<?xml version="1.0" encoding="utf-8"?>
<!-- Generator: Adobe Illustrator 27.2.0, SVG Export Plug-In . SVG Version: 6.00 Build 0)  -->
<svg version="1.1" id="Livello_1" xmlns="http://www.w3.org/2000/svg" xmlns:xlink="http://www.w3.org/1999/xlink" x="0px" y="0px"
	 viewBox="0 0 395 395" style="enable-background:new 0 0 395 395;" xml:space="preserve">
<style type="text/css">
	.st0{fill:#4D517A;}
	.st1{fill:#FFFFFF;}
</style>
<g>
	<g>
		<path class="st0" d="M197.5,34.4c-90,0-163.1,72.9-163.1,163.1s73.2,163.1,163.1,163.1c90.2,0,163.1-73.2,163.1-163.1
			S287.7,34.4,197.5,34.4z M141.4,82.9c0-12.8,10.4-23,23-23c12.8,0,23,10.4,23,23c0,1.4-0.2,33.9-13,54.4
			c-0.2,0.2-14.7,23.9-18,43.8l27.5-0.2l0,0c3.8,0,6.9,3.1,7.1,6.9c0,3.8-3.1,7.1-6.9,7.1l-35.3,0.2l0,0c-1.9,0-3.6-0.7-5-2.1
			c-1.4-1.4-2.1-3.1-2.1-5c0.2-24.6,19.9-56.8,20.8-58c10.9-17,10.9-46.9,10.9-47.1c0-5-4-9-9-9c-5,0-9,4-9,9v21.5
			c0,3.8-3.1,7.1-7.1,7.1c-3.8,0-7.1-3.1-7.1-7.1V82.9H141.4z M214.5,272.1l-30.8,31.2c-1.4,1.4-3.3,2.6-5.4,2.6
			c-4.3,0-7.6-3.6-7.6-7.8c0-2.1,0.7-4,2.4-5.7l17.5-17.8h-41.4c-4.3,0-7.8-3.3-7.8-7.6c0-4.3,3.6-7.8,7.8-7.8h41.2l-17.8-17.5
			c-1.4-1.4-2.4-3.1-2.4-5.2c0-4.3,3.6-7.8,7.8-7.8c2.1,0,4,0.9,5.4,2.4l30.8,30.8c1.4,1.4,2.4,3.1,2.4,5.2
			C216.7,269.2,216,270.7,214.5,272.1z M246,323L246,323c0,4.3-3.6,7.8-7.8,7.8s-7.8-3.6-7.8-7.8l0,0V213.4l0,0
			c0-4.3,3.6-7.6,7.8-7.6s7.8,3.6,7.8,7.6V323z M246.7,173.8c0,12.8-10.4,23-23,23c-12.8,0-23-10.4-23-23V82.9c0-12.8,10.4-23,23-23
			c12.8,0,23,10.4,23,23V173.8z"/>
		<path class="st0" d="M223.5,73.9c-5,0-9,4-9,9v90.9c0,5,4,9,9,9s9-4,9-9V82.9C232.8,78,228.7,73.9,223.5,73.9z"/>
		<path class="st1" d="M183.8,231.1c-1.4-1.4-3.3-2.4-5.4-2.4c-4.3,0-7.8,3.6-7.8,7.8c0,2.1,0.9,3.8,2.4,5.2l17.8,17.5h-41.4
			c-4.3,0-7.8,3.6-7.8,7.8s3.6,7.6,7.8,7.6h41.4l-17.5,17.8c-1.4,1.4-2.4,3.6-2.4,5.7c0,4.3,3.3,7.8,7.6,7.8c2.1,0,4-1.2,5.4-2.6
			l30.8-31.2c1.4-1.4,2.4-2.8,2.4-5s-0.9-3.8-2.4-5.2L183.8,231.1z"/>
		<path class="st1" d="M238.2,205.6c-4.3,0-7.8,3.6-7.8,7.6l0,0V323l0,0c0,4.3,3.6,7.8,7.8,7.8s7.8-3.6,7.8-7.8l0,0V213.4
			C246,209.1,242.5,205.6,238.2,205.6z"/>
		<path class="st1" d="M223.5,60c-12.8,0-23,10.4-23,23v90.9c0,12.8,10.4,23,23,23c12.8,0,23-10.4,23-23V82.9
			C246.7,70.4,236.3,60,223.5,60z M232.8,173.8c0,5-4,9-9,9c-5,0-9-4-9-9V82.9c0-5,4-9,9-9c5,0,9,4,9,9V173.8z"/>
		<path class="st1" d="M148.3,111.6c3.8,0,7.1-3.1,7.1-7.1V82.9c0-5,4-9,9-9c5,0,9,4,9,9c0,0.2-0.2,29.8-10.9,47.1
			c-0.9,1.4-20.4,33.6-20.8,58c0,1.9,0.7,3.8,2.1,5c1.4,1.4,3.1,2.1,5,2.1l0,0l35-0.2c3.8,0,6.9-3.1,6.9-7.1c0-3.8-3.1-6.9-7.1-6.9
			l0,0l-27.2,0.2c3.3-19.9,17.8-43.6,18-43.8c13-20.6,13-53,13-54.4c0-12.8-10.4-23-23-23c-12.8,0-23,10.4-23,23v21.5
			C141.4,108.5,144.5,111.6,148.3,111.6z"/>
	</g>
</g>
</svg>
