<?xml version="1.0" encoding="UTF-8" standalone="no"?>
<!-- Created with Inkscape (http://www.inkscape.org/) -->

<svg
   version="1.1"
   id="svg1"
   width="666.23999"
   height="682.66669"
   viewBox="0 0 666.23999 682.66669"
   sodipodi:docname="apify.svg"
   inkscape:version="1.3.2 (091e20e, 2023-11-25)"
   xmlns:inkscape="http://www.inkscape.org/namespaces/inkscape"
   xmlns:sodipodi="http://sodipodi.sourceforge.net/DTD/sodipodi-0.dtd"
   xmlns="http://www.w3.org/2000/svg"
   xmlns:svg="http://www.w3.org/2000/svg">
  <defs
     id="defs1">
    <clipPath
       clipPathUnits="userSpaceOnUse"
       id="clipPath2">
      <path
         d="M 0,512 H 499.68 V 0 H 0 Z"
         transform="translate(-62.779802,-464.33011)"
         id="path2" />
    </clipPath>
    <clipPath
       clipPathUnits="userSpaceOnUse"
       id="clipPath4">
      <path
         d="M 0,512 H 499.68 V 0 H 0 Z"
         transform="translate(-499.49021,-208.4199)"
         id="path4" />
    </clipPath>
    <clipPath
       clipPathUnits="userSpaceOnUse"
       id="clipPath6">
      <path
         d="M 0,512 H 499.68 V 0 H 0 Z"
         transform="translate(-109.5898,-0.45020001)"
         id="path6" />
    </clipPath>
  </defs>
  <sodipodi:namedview
     id="namedview1"
     pagecolor="#ffffff"
     bordercolor="#666666"
     borderopacity="1.0"
     inkscape:showpageshadow="2"
     inkscape:pageopacity="0.0"
     inkscape:pagecheckerboard="0"
     inkscape:deskcolor="#d1d1d1"
     showgrid="false"
     inkscape:zoom="0.39111327"
     inkscape:cx="333.66293"
     inkscape:cy="341.33334"
     inkscape:window-width="1512"
     inkscape:window-height="916"
     inkscape:window-x="0"
     inkscape:window-y="38"
     inkscape:window-maximized="1"
     inkscape:current-layer="layer-MC0">
    <inkscape:page
       x="0"
       y="0"
       inkscape:label="1"
       id="page1"
       width="666.23999"
       height="682.66669"
       margin="0 0.0040000002 0 0.01072184"
       bleed="0" />
  </sodipodi:namedview>
  <g
     id="layer-MC0"
     inkscape:groupmode="layer"
     inkscape:label="Layer 1">
    <path
       id="path1"
       d="m 0,0 c -39.793,-5.51 -67.585,-42.236 -62.075,-82.029 0.001,-0.014 0.003,-0.028 0.005,-0.041 l 43,-307.15 180.98,411.81 z"
       style="fill:#97d700;fill-opacity:1;fill-rule:nonzero;stroke:none"
       transform="matrix(1.3333333,0,0,-1.3333333,83.7064,63.559867)"
       clip-path="url(#clipPath2)" />
    <path
       id="path3"
       d="m 0,0 -16.91,236.11 c -2.942,40.086 -37.813,70.203 -77.901,67.28 -1.62,-0.12 -3.239,-0.29 -4.849,-0.51 l -69.66,-9.66 153.42,-344 C -4.364,-36.476 1.317,-18.329 0,0"
       style="fill:#71c5e8;fill-opacity:1;fill-rule:nonzero;stroke:none"
       transform="matrix(1.3333333,0,0,-1.3333333,665.98693,404.77347)"
       clip-path="url(#clipPath4)" />
    <path
       id="path5"
       d="M 0,0 C 12.389,-1.392 24.928,0.44 36.4,5.319 L 299.82,116.49 174.59,397.34 Z"
       style="fill:#ff9013;fill-opacity:1;fill-rule:nonzero;stroke:none"
       transform="matrix(1.3333333,0,0,-1.3333333,146.11973,682.0664)"
       clip-path="url(#clipPath6)" />
  </g>
</svg>
