<svg id="Vrstva_1" data-name="Vrstva 1" xmlns="http://www.w3.org/2000/svg" viewBox="0 0 512 135.32"><defs><style>.cls-1{fill:#97d700;}.cls-2{fill:#71c5e8;}.cls-3{fill:#ff9013;}.cls-4{fill:#212322;}</style></defs><path class="cls-1" d="M16.59,12.6A19.22,19.22,0,0,0,.19,34.27v0l11.37,81.18L59.39,6.63Z" transform="translate(0 0)"/><path class="cls-2" d="M132,80.24l-4.47-62.41A19.25,19.25,0,0,0,107,.05a9.11,9.11,0,0,0-1.28.14L87.26,2.74l40.55,90.91A19.19,19.19,0,0,0,132,80.24Z" transform="translate(0 0)"/><path class="cls-3" d="M29,135.2a19.1,19.1,0,0,0,9.62-1.4l69.63-29.38L75.11,30.19Z" transform="translate(0 0)"/><path class="cls-4" d="M189.66,26.43h22l30.72,82.45h-19.7L216.92,92H183.78L178,108.88H158.92Zm-1,50.93H212l-11.28-33.8h-.48Z" transform="translate(0 0)"/><path class="cls-4" d="M330.68,26.43H349.3v82.45H330.68Z" transform="translate(0 0)"/><path class="cls-4" d="M363.34,26.43h60.39V41.65H382V64.78h33.62V79.62H382v29.24H363.34Z" transform="translate(0 0)"/><path class="cls-4" d="M461.91,77.6l-31-51.17H452l19.33,33.92h.48l20.29-33.92H512L480.65,77.48v31.4H461.91Z" transform="translate(0 0)"/><path class="cls-4" d="M290.7,26.43H249.58v82.45h18.61V82.75H290.7a28.16,28.16,0,1,0,0-56.32Zm-2.06,41.82H268.19V40.93h20.45a13.66,13.66,0,1,1,0,27.32Z" transform="translate(0 0)"/></svg>