<svg width="407" height="164" viewBox="0 0 407 164" fill="none" xmlns="http://www.w3.org/2000/svg">
<mask id="mask0_1_2" style="mask-type:luminance" maskUnits="userSpaceOnUse" x="0" y="0" width="407" height="86">
<path d="M0.49292 85.44H406.708V0.682175H0.49292V85.44Z" fill="white"/>
</mask>
<g mask="url(#mask0_1_2)">
<path d="M11.1795 35.456H21.368C29.956 35.456 33.9992 37.6414 33.9992 43.8747C33.9992 51.7067 26.42 52.6334 20.9461 52.6334H11.1795V35.456ZM0.567993 61.728H22.0413C33.3243 61.728 44.6093 57.6867 44.6093 44.716C44.6093 37.056 39.22 31.1587 31.7247 30.3201V30.148C37.8711 28.2974 42.0827 23.8374 42.0827 17.0974C42.0827 6.23471 32.8185 2.10938 23.8091 2.10938H0.567993V61.728ZM11.1795 11.2041H19.9357C27.9367 11.2041 31.4727 13.7294 31.4727 18.8654C31.4727 23.3294 27.9367 26.3614 20.8628 26.3614H11.1795V11.2041Z" fill="#100F0D"/>
<path d="M51.536 0.698715H61.64V61.728H51.536V0.698715Z" fill="#100F0D"/>
<path d="M68.396 41.5174C68.396 54.2347 78.164 62.7387 90.3773 62.7387C102.584 62.7387 112.352 54.2347 112.352 41.5174C112.352 28.8027 102.584 20.2974 90.3773 20.2974C78.164 20.2974 68.396 28.8027 68.396 41.5174ZM78.5013 41.5174C78.5013 35.2014 82.964 29.392 90.3773 29.392C97.7853 29.392 102.248 35.2014 102.248 41.5174C102.248 47.8347 97.7853 53.644 90.3773 53.644C82.964 53.644 78.5013 47.8347 78.5013 41.5174Z" fill="#100F0D"/>
<path d="M116.92 41.5174C116.92 54.2347 126.688 62.7387 138.899 62.7387C151.107 62.7387 160.875 54.2347 160.875 41.5174C160.875 28.8027 151.107 20.2974 138.899 20.2974C126.688 20.2974 116.92 28.8027 116.92 41.5174ZM127.024 41.5174C127.024 35.2014 131.489 29.392 138.899 29.392C146.308 29.392 150.771 35.2014 150.771 41.5174C150.771 47.8347 146.308 53.644 138.899 53.644C131.489 53.644 127.024 47.8347 127.024 41.5174Z" fill="#100F0D"/>
<path d="M167.044 21.3067H176.641V27.6227H176.809C178.58 23.8374 182.453 20.2974 189.189 20.2974C195.421 20.2974 199.716 22.74 201.82 27.7934C204.768 22.6534 209.06 20.2974 215.124 20.2974C225.903 20.2974 229.691 27.96 229.691 37.6414V61.728H219.587V38.824C219.587 33.7707 218.072 29.392 212.095 29.392C205.777 29.392 203.419 34.6134 203.419 39.8307V61.728H193.316V37.6414C193.316 32.676 191.293 29.392 186.409 29.392C179.759 29.392 177.149 34.2774 177.149 39.6667V61.728H167.044V21.3067Z" fill="#100F0D"/>
<path d="M237.881 61.728H247.481V55.6654H247.649C250.599 60.5467 255.901 62.7387 261.545 62.7387C274.005 62.7387 281.5 53.4747 281.5 41.5174C281.5 29.5627 273.5 20.2974 261.965 20.2974C254.387 20.2974 250.344 23.8374 248.24 26.444H247.987V0.698708H237.881V61.728ZM271.396 41.5174C271.396 47.8347 266.932 53.644 259.523 53.644C252.115 53.644 247.649 47.8347 247.649 41.5174C247.649 35.2014 252.115 29.392 259.523 29.392C266.932 29.392 271.396 35.2014 271.396 41.5174Z" fill="#100F0D"/>
<path d="M326.992 45.052V42.2774C326.992 28.2174 319.331 20.2974 308.045 20.2974C295.836 20.2974 286.067 28.8027 286.067 41.5174C286.067 54.2347 295.836 62.7387 308.045 62.7387C314.445 62.7387 320.423 60.4614 325.139 54.6534L317.899 49.1827C315.375 52.2974 312.088 54.6534 307.037 54.6534C301.395 54.6534 296.847 51.036 296.172 45.052H326.992ZM296.172 37.4774C296.932 31.6654 300.636 27.8774 306.616 27.8774C312.929 27.8774 316.804 31.58 316.887 37.4774H296.172Z" fill="#100F0D"/>
<path d="M333.583 21.3067H343.684V27.708H343.856C346.044 23.0774 350.505 20.2974 355.812 20.2974C357.076 20.2974 358.255 20.552 359.431 20.8867V30.656C357.747 30.2334 356.147 29.8987 354.549 29.8987C345.033 29.8987 343.684 37.8987 343.684 40.0881V61.728H333.583V21.3067Z" fill="#100F0D"/>
<path d="M393.993 21.3067V27.3734H393.825C390.877 22.4867 385.572 20.2974 379.929 20.2974C367.467 20.2974 359.975 29.5627 359.975 41.5174C359.975 52.968 367.973 62.2347 380.097 62.2347C385.149 62.2347 390.371 60.2974 393.32 56.34H393.487V59.2881C393.487 67.2881 390.455 72.8414 380.689 72.8414C375.045 72.8414 370.837 70.7387 366.793 67.0307L360.729 75.2854C366.457 80.34 373.277 81.9361 380.773 81.9361C396.519 81.9361 403.592 72.6747 403.592 58.108V21.3067H393.993ZM382.035 29.392C389.363 29.392 393.993 34.2774 393.993 41.2627C393.993 48.0054 389.447 53.14 381.951 53.14C375.129 53.14 370.079 47.8347 370.079 41.4347C370.079 34.2774 374.963 29.392 382.035 29.392Z" fill="#100F0D"/>
</g>
<path d="M0.49292 119.788V163.156H212.921V119.788H0.49292Z" fill="black"/>
<path d="M24.07 153.521V150.832H13.1175V141.256H23.5289V138.584H13.1175V130.992H24.07V128.336H9.91998V153.521H24.07ZM41.7986 153.521V140.732C41.7986 138.556 41.3146 136.908 40.347 135.788C39.38 134.668 37.9508 134.107 36.0596 134.107C35.1194 134.107 34.2096 134.257 33.33 134.559C32.4497 134.859 31.5669 135.402 30.6814 136.189L30.2388 134.616H27.4841V153.521H30.6158V138.584C31.4357 137.994 32.2008 137.554 32.9117 137.264C33.6221 136.975 34.3653 136.829 35.1413 136.829C36.4205 136.829 37.333 137.135 37.88 137.747C38.4263 138.36 38.6997 139.48 38.6997 141.108V153.521H41.7986ZM60.5386 134.616H57.784L57.408 135.994C56.6533 135.369 55.888 134.9 55.112 134.583C54.336 134.266 53.4666 134.107 52.5053 134.107C50.4386 134.107 48.7253 134.941 47.364 136.608C46.004 138.275 45.3226 140.535 45.3226 143.388C45.3226 146.383 45.952 148.665 47.2093 150.233C48.4653 151.801 50.1866 152.587 52.3733 152.587C53.4453 152.587 54.432 152.363 55.3333 151.913C56.2347 151.465 56.9373 150.985 57.44 150.471V151.373C57.44 153.657 56.9293 155.223 55.9066 156.071C54.8853 156.917 53.4173 157.341 51.5053 157.341C50.4773 157.341 49.584 157.216 48.824 156.964C48.064 156.712 47.444 156.428 46.9626 156.112H46.2253V159.063C47.1106 159.302 47.952 159.492 48.7507 159.628C49.548 159.765 50.34 159.833 51.128 159.833C54.1226 159.833 56.4426 159.073 58.088 157.555C59.7333 156.035 60.5493 153.592 60.5386 150.225V134.616ZM57.44 148.241C56.9266 148.7 56.3093 149.108 55.588 149.463C54.8653 149.817 54.0293 149.996 53.0786 149.996C51.5813 149.996 50.4387 149.46 49.652 148.388C48.8653 147.318 48.4706 145.651 48.4706 143.388C48.4706 141.18 48.8867 139.53 49.7173 138.436C50.548 137.343 51.712 136.796 53.2093 136.796C53.9533 136.796 54.6586 136.931 55.3253 137.199C55.992 137.466 56.6973 137.868 57.44 138.402V148.241ZM76.4306 153.521V151.061H72.528V134.616H65.608V137.059H69.4453V151.061H64.8373V153.521H76.4306ZM72.396 130.385V126.22H68.6413V130.385H72.396ZM94.9986 153.521V140.732C94.9986 138.556 94.5146 136.908 93.5466 135.788C92.58 134.668 91.1506 134.107 89.26 134.107C88.3186 134.107 87.4093 134.257 86.5293 134.559C85.6493 134.859 84.7666 135.402 83.8813 136.189L83.4386 134.616H80.684V153.521H83.816V138.584C84.636 137.994 85.4013 137.554 86.112 137.264C86.8213 136.975 87.5653 136.829 88.3413 136.829C89.62 136.829 90.5333 137.135 91.08 137.747C91.6253 138.36 91.9 139.48 91.9 141.108V153.521H94.9986ZM114.416 144.519V142.502C114.416 139.944 113.787 137.906 112.529 136.387C111.273 134.866 109.425 134.107 106.988 134.107C104.528 134.107 102.52 134.987 100.963 136.747C99.404 138.507 98.6253 141.011 98.6253 144.257C98.6253 147.58 99.4893 150.033 101.216 151.619C102.944 153.204 105.168 153.996 107.889 153.996C108.939 153.996 109.993 153.878 111.055 153.644C112.115 153.409 113.18 153.066 114.252 152.619V149.765H113.464C112.94 150.182 112.193 150.554 111.227 150.882C110.259 151.209 109.261 151.373 108.235 151.373C106.299 151.373 104.736 150.807 103.545 149.676C102.353 148.544 101.757 146.825 101.757 144.519H114.416ZM101.791 142.207C101.888 140.611 102.367 139.288 103.225 138.239C104.083 137.189 105.316 136.665 106.923 136.665C108.551 136.665 109.709 137.184 110.399 138.223C111.087 139.261 111.432 140.589 111.432 142.207H101.791ZM133.207 144.519V142.502C133.207 139.944 132.577 137.906 131.321 136.387C130.064 134.866 128.216 134.107 125.779 134.107C123.32 134.107 121.311 134.987 119.753 136.747C118.196 138.507 117.417 141.011 117.417 144.257C117.417 147.58 118.28 150.033 120.008 151.619C121.735 153.204 123.959 153.996 126.681 153.996C127.731 153.996 128.785 153.878 129.845 153.644C130.905 153.409 131.971 153.066 133.043 152.619V149.765H132.256C131.731 150.182 130.985 150.554 130.017 150.882C129.051 151.209 128.052 151.373 127.025 151.373C125.091 151.373 123.527 150.807 122.336 149.676C121.144 148.544 120.548 146.825 120.548 144.519H133.207ZM120.581 142.207C120.68 140.611 121.157 139.288 122.016 138.239C122.875 137.189 124.107 136.665 125.713 136.665C127.343 136.665 128.501 137.184 129.189 138.223C129.879 139.261 130.223 140.589 130.223 142.207H120.581ZM151.865 137.764V134.616C151.407 134.463 150.884 134.34 150.3 134.247C149.715 134.153 149.051 134.107 148.308 134.107C147.848 134.107 147.373 134.217 146.881 134.435C146.389 134.655 145.897 134.941 145.405 135.296C144.913 135.652 144.427 136.056 143.947 136.509C143.465 136.963 143.012 137.431 142.585 137.911L142.159 134.616H136.617V137.059H139.536V151.061H136.617V153.521H146.389V151.061H142.617V140.42C142.968 140.071 143.341 139.694 143.741 139.288C144.14 138.884 144.567 138.509 145.02 138.165C145.473 137.821 145.955 137.535 146.463 137.304C146.971 137.075 147.515 136.96 148.095 136.96C148.509 136.96 148.865 136.988 149.16 137.043C149.455 137.097 149.715 137.163 149.939 137.239C150.163 137.316 150.36 137.4 150.529 137.494C150.699 137.587 150.86 137.676 151.013 137.764H151.865ZM166.712 153.521V151.061H162.809V134.616H155.889V137.059H159.727V151.061H155.12V153.521H166.712ZM162.679 130.385V126.22H158.924V130.385H162.679ZM185.28 153.521V140.732C185.28 138.556 184.796 136.908 183.829 135.788C182.861 134.668 181.432 134.107 179.541 134.107C178.601 134.107 177.691 134.257 176.811 134.559C175.931 134.859 175.048 135.402 174.163 136.189L173.72 134.616H170.965V153.521H174.097V138.584C174.917 137.994 175.683 137.554 176.393 137.264C177.104 136.975 177.847 136.829 178.623 136.829C179.901 136.829 180.815 137.135 181.361 137.747C181.908 138.36 182.181 139.48 182.181 141.108V153.521H185.28ZM204.02 134.616H201.265L200.889 135.994C200.135 135.369 199.369 134.9 198.593 134.583C197.817 134.266 196.948 134.107 195.987 134.107C193.92 134.107 192.207 134.941 190.845 136.608C189.485 138.275 188.804 140.535 188.804 143.388C188.804 146.383 189.433 148.665 190.691 150.233C191.947 151.801 193.669 152.587 195.855 152.587C196.927 152.587 197.913 152.363 198.815 151.913C199.716 151.465 200.419 150.985 200.921 150.471V151.373C200.921 153.657 200.411 155.223 199.388 156.071C198.367 156.917 196.899 157.341 194.987 157.341C193.959 157.341 193.065 157.216 192.305 156.964C191.545 156.712 190.925 156.428 190.444 156.112H189.707V159.063C190.592 159.302 191.433 159.492 192.232 159.628C193.029 159.765 193.821 159.833 194.609 159.833C197.604 159.833 199.924 159.073 201.569 157.555C203.215 156.035 204.031 153.592 204.02 150.225V134.616ZM200.921 148.241C200.408 148.7 199.791 149.108 199.069 149.463C198.347 149.817 197.511 149.996 196.56 149.996C195.063 149.996 193.92 149.46 193.133 148.388C192.347 147.318 191.952 145.651 191.952 143.388C191.952 141.18 192.368 139.53 193.199 138.436C194.029 137.343 195.193 136.796 196.691 136.796C197.435 136.796 198.14 136.931 198.807 137.199C199.473 137.466 200.179 137.868 200.921 138.402V148.241Z" fill="white"/>
</svg>
