<?xml version="1.0" encoding="UTF-8" standalone="no"?>
<svg
   width="247.34741"
   height="40.357208"
   viewBox="0 0 247.34741 40.357208"
   fill="none"
   version="1.1"
   id="svg5"
   sodipodi:docname="clickhouse.svg"
   inkscape:export-filename="clickhouse1.svg"
   inkscape:export-xdpi="300"
   inkscape:export-ydpi="300"
   xmlns:inkscape="http://www.inkscape.org/namespaces/inkscape"
   xmlns:sodipodi="http://sodipodi.sourceforge.net/DTD/sodipodi-0.dtd"
   xmlns="http://www.w3.org/2000/svg"
   xmlns:svg="http://www.w3.org/2000/svg">
  <defs
     id="defs5" />
  <sodipodi:namedview
     id="namedview5"
     pagecolor="#ffffff"
     bordercolor="#666666"
     borderopacity="1.0"
     inkscape:showpageshadow="2"
     inkscape:pageopacity="0.0"
     inkscape:pagecheckerboard="0"
     inkscape:deskcolor="#d1d1d1"
     showgrid="false" />
  <g
     id="g5"
     transform="matrix(1.9930174,0,0,1.9930174,-3.7369076,-21.674064)">
    <rect
       x="1.875"
       y="10.875"
       width="2.2499199"
       height="20.2493"
       rx="0.54728597"
       fill="#151515"
       id="rect1" />
    <rect
       x="6.375"
       y="10.875"
       width="2.2499199"
       height="20.2493"
       rx="0.54728597"
       fill="#151515"
       id="rect2" />
    <rect
       x="10.8752"
       y="10.875"
       width="2.2499199"
       height="20.2493"
       rx="0.54728597"
       fill="#151515"
       id="rect3" />
    <rect
       x="15.3743"
       y="10.875"
       width="2.2499199"
       height="20.2493"
       rx="0.54728597"
       fill="#151515"
       id="rect4" />
    <rect
       x="19.8755"
       y="18.7502"
       width="2.2499199"
       height="4.4998498"
       rx="0.54728597"
       fill="#151515"
       id="rect5" />
    <path
       d="m 39.2,15.642 c -1.284,0 -2.286,0.444 -3.006,1.332 -0.72,0.876 -1.08,2.082 -1.08,3.618 0,1.524 0.336,2.724 1.008,3.6 0.672,0.876 1.692,1.314 3.06,1.314 0.552,0 1.08,-0.048 1.584,-0.144 0.516,-0.108 1.038,-0.246 1.566,-0.414 v 1.674 c -0.504,0.192 -1.02,0.33 -1.548,0.414 -0.516,0.096 -1.128,0.144 -1.836,0.144 -1.32,0 -2.412,-0.27 -3.276,-0.81 -0.864,-0.552 -1.512,-1.32 -1.944,-2.304 -0.432,-0.996 -0.648,-2.16 -0.648,-3.492 0,-1.296 0.234,-2.442 0.702,-3.438 0.48,-0.996 1.176,-1.77 2.088,-2.322 0.912,-0.564 2.028,-0.846 3.348,-0.846 0.648,0 1.278,0.072 1.89,0.216 0.624,0.132 1.194,0.324 1.71,0.576 l -0.72,1.62 C 41.678,16.188 41.222,16.02 40.73,15.876 40.25,15.72 39.74,15.642 39.2,15.642 Z M 46.7926,27 h -1.908 V 13.32 h 1.908 z m 3.9683,-13.392 c 0.288,0 0.54,0.084 0.756,0.252 0.216,0.168 0.324,0.45 0.324,0.846 0,0.384 -0.108,0.666 -0.324,0.846 -0.216,0.168 -0.468,0.252 -0.756,0.252 -0.312,0 -0.576,-0.084 -0.792,-0.252 -0.204,-0.18 -0.306,-0.462 -0.306,-0.846 0,-0.396 0.102,-0.678 0.306,-0.846 0.216,-0.168 0.48,-0.252 0.792,-0.252 z m 0.936,3.69 V 27 h -1.908 v -9.702 z m 6.9023,9.882 c -1.344,0 -2.424,-0.396 -3.24,-1.188 -0.816,-0.804 -1.224,-2.064 -1.224,-3.78 0,-1.2 0.198,-2.172 0.594,-2.916 0.396,-0.744 0.942,-1.29 1.638,-1.638 0.696,-0.36 1.488,-0.54 2.376,-0.54 0.54,0 1.044,0.06 1.512,0.18 0.48,0.108 0.876,0.234 1.188,0.378 l -0.576,1.548 c -0.336,-0.132 -0.696,-0.246 -1.08,-0.342 -0.372,-0.096 -0.726,-0.144 -1.062,-0.144 -1.752,0 -2.628,1.152 -2.628,3.456 0,1.104 0.216,1.944 0.648,2.52 0.432,0.576 1.068,0.864 1.908,0.864 0.54,0 1.014,-0.06 1.422,-0.18 0.42,-0.12 0.804,-0.276 1.152,-0.468 v 1.656 c -0.348,0.204 -0.726,0.354 -1.134,0.45 -0.408,0.096 -0.906,0.144 -1.494,0.144 z m 6.8082,-7.02 c 0,0.24 -0.012,0.528 -0.036,0.864 -0.024,0.336 -0.042,0.636 -0.054,0.9 h 0.054 c 0.132,-0.18 0.312,-0.414 0.54,-0.702 0.24,-0.3 0.45,-0.546 0.63,-0.738 l 2.97,-3.186 h 2.214 l -3.906,4.158 4.158,5.544 h -2.25 l -3.204,-4.338 -1.116,0.936 V 27 h -1.89 V 13.32 h 1.89 z M 83.8141,27 h -1.944 v -5.868 h -6.138 V 27 h -1.944 V 14.148 h 1.944 v 5.328 h 6.138 v -5.328 h 1.944 z M 95.587,22.14 c 0,1.608 -0.414,2.85 -1.242,3.726 -0.828,0.876 -1.944,1.314 -3.348,1.314 -0.876,0 -1.656,-0.198 -2.34,-0.594 -0.672,-0.396 -1.206,-0.966 -1.602,-1.71 -0.384,-0.756 -0.576,-1.668 -0.576,-2.736 0,-1.608 0.408,-2.844 1.224,-3.708 0.816,-0.876 1.932,-1.314 3.348,-1.314 0.888,0 1.668,0.198 2.34,0.594 0.684,0.384 1.218,0.948 1.602,1.692 0.396,0.744 0.594,1.656 0.594,2.736 z m -7.146,0 c 0,1.092 0.204,1.944 0.612,2.556 0.42,0.612 1.08,0.918 1.98,0.918 0.9,0 1.554,-0.306 1.962,-0.918 0.42,-0.612 0.63,-1.464 0.63,-2.556 0,-1.104 -0.21,-1.95 -0.63,-2.538 -0.42,-0.6 -1.08,-0.9 -1.98,-0.9 -0.9,0 -1.554,0.3 -1.962,0.9 -0.408,0.588 -0.612,1.434 -0.612,2.538 z m 17.917,-4.842 V 27 h -1.53 l -0.27,-1.278 h -0.09 c -0.312,0.504 -0.744,0.876 -1.296,1.116 -0.552,0.228 -1.134,0.342 -1.746,0.342 -1.14,0 -2.0103,-0.282 -2.6103,-0.846 -0.6,-0.564 -0.9,-1.458 -0.9,-2.682 v -6.354 h 1.926 v 6.066 c 0,1.5 0.6543,2.25 1.9623,2.25 0.996,0 1.686,-0.294 2.07,-0.882 0.384,-0.588 0.576,-1.428 0.576,-2.52 v -4.914 z m 9.43,6.966 c 0,0.948 -0.348,1.674 -1.044,2.178 -0.696,0.492 -1.662,0.738 -2.898,0.738 -0.684,0 -1.272,-0.054 -1.764,-0.162 -0.48,-0.096 -0.924,-0.24 -1.332,-0.432 v -1.674 c 0.42,0.204 0.912,0.39 1.476,0.558 0.576,0.156 1.134,0.234 1.674,0.234 0.72,0 1.236,-0.114 1.548,-0.342 0.324,-0.228 0.486,-0.534 0.486,-0.918 0,-0.216 -0.06,-0.408 -0.18,-0.576 -0.12,-0.18 -0.348,-0.36 -0.684,-0.54 -0.324,-0.192 -0.804,-0.408 -1.44,-0.648 -0.624,-0.252 -1.152,-0.498 -1.584,-0.738 -0.42,-0.252 -0.744,-0.546 -0.972,-0.882 -0.228,-0.348 -0.342,-0.792 -0.342,-1.332 0,-0.84 0.336,-1.482 1.008,-1.926 0.684,-0.456 1.584,-0.684 2.7,-0.684 0.588,0 1.14,0.06 1.656,0.18 0.528,0.12 1.038,0.288 1.53,0.504 l -0.63,1.458 c -0.42,-0.18 -0.852,-0.33 -1.296,-0.45 -0.444,-0.132 -0.894,-0.198 -1.35,-0.198 -0.576,0 -1.014,0.09 -1.314,0.27 -0.3,0.18 -0.45,0.432 -0.45,0.756 0,0.228 0.072,0.426 0.216,0.594 0.144,0.168 0.384,0.336 0.72,0.504 0.348,0.168 0.822,0.372 1.422,0.612 0.6,0.228 1.11,0.462 1.53,0.702 0.432,0.24 0.756,0.534 0.972,0.882 0.228,0.348 0.342,0.792 0.342,1.332 z m 6.09,-7.146 c 1.272,0 2.274,0.396 3.006,1.188 0.732,0.78 1.098,1.848 1.098,3.204 v 1.044 h -6.516 c 0.024,0.996 0.282,1.758 0.774,2.286 0.504,0.528 1.206,0.792 2.106,0.792 0.624,0 1.176,-0.054 1.656,-0.162 0.492,-0.12 0.996,-0.294 1.512,-0.522 v 1.584 c -0.492,0.216 -0.984,0.378 -1.476,0.486 -0.492,0.108 -1.08,0.162 -1.764,0.162 -0.948,0 -1.782,-0.186 -2.502,-0.558 -0.708,-0.372 -1.266,-0.924 -1.674,-1.656 -0.396,-0.744 -0.594,-1.656 -0.594,-2.736 0,-1.092 0.18,-2.016 0.54,-2.772 0.372,-0.756 0.882,-1.332 1.53,-1.728 0.66,-0.408 1.428,-0.612 2.304,-0.612 z m 0,1.476 c -0.684,0 -1.236,0.222 -1.656,0.666 -0.408,0.444 -0.648,1.074 -0.72,1.89 h 4.572 c -0.012,-0.756 -0.198,-1.368 -0.558,-1.836 -0.348,-0.48 -0.894,-0.72 -1.638,-0.72 z"
       fill="#151515"
       id="path5" />
  </g>
</svg>
