<?xml version="1.0" encoding="UTF-8" standalone="no"?>
<svg
   width="1920"
   height="1080"
   viewBox="0 0 1920 1080"
   fill="none"
   version="1.1"
   id="svg10"
   sodipodi:docname="dlthub.svg"
   inkscape:version="1.3.2 (091e20e, 2023-11-25)"
   xmlns:inkscape="http://www.inkscape.org/namespaces/inkscape"
   xmlns:sodipodi="http://sodipodi.sourceforge.net/DTD/sodipodi-0.dtd"
   xmlns="http://www.w3.org/2000/svg"
   xmlns:svg="http://www.w3.org/2000/svg">
  <sodipodi:namedview
     id="namedview10"
     pagecolor="#ffffff"
     bordercolor="#666666"
     borderopacity="1.0"
     inkscape:showpageshadow="2"
     inkscape:pageopacity="0.0"
     inkscape:pagecheckerboard="0"
     inkscape:deskcolor="#d1d1d1"
     inkscape:zoom="0.21851852"
     inkscape:cx="958.72881"
     inkscape:cy="537.71186"
     inkscape:window-width="1512"
     inkscape:window-height="888"
     inkscape:window-x="0"
     inkscape:window-y="38"
     inkscape:window-maximized="1"
     inkscape:current-layer="svg10" />
  <g
     clip-path="url(#clip0_5_49775)"
     id="g10"
     transform="matrix(1.4474231,0,0,1.4474231,-436.94378,-245.40762)">
    <path
       d="M 856.96,626.286 H 822.228 V 661 h 34.732 z"
       fill="#c6d300"
       id="path1" />
    <path
       d="M 822.228,452.714 V 418 h -34.733 v 34.714 34.715 34.714 34.714 34.715 34.714 h 34.733 v -34.714 -34.715 -34.714 h 34.733 v -34.714 h -34.733 z"
       fill="#59c1d5"
       id="path2" />
    <path
       d="m 719.347,452.714 v 34.715 34.714 34.714 34.715 34.714 V 661 h 34.732 V 626.286 591.572 556.857 522.143 487.429 452.714 418 h -34.732 z"
       fill="#59c1d5"
       id="path3" />
    <path
       d="m 651.198,452.714 v 34.715 h -34.732 -34.733 v 34.714 h 34.733 34.732 v 34.714 34.715 34.714 H 616.466 581.733 V 661 h 34.733 34.732 34.733 V 626.286 591.572 556.857 522.143 487.429 452.714 418 h -34.733 z"
       fill="#59c1d5"
       id="path4" />
    <path
       d="M 581.733,556.857 V 522.143 H 547 v 34.714 34.715 34.714 h 34.733 v -34.714 z"
       fill="#59c1d5"
       id="path5" />
    <path
       d="M 994.574,522.143 H 925.109 V 418 h -34.733 v 243 h 34.733 V 556.857 h 69.465 V 661 h 34.736 V 418 h -34.736 z"
       fill="#c6d300"
       id="path6" />
    <path
       d="m 1097.46,487.429 h -34.74 v 138.857 h 34.74 z"
       fill="#c6d300"
       id="path7" />
    <path
       d="m 1166.92,626.286 h -69.46 V 661 h 104.19 V 487.429 h -34.73 z"
       fill="#c6d300"
       id="path8" />
    <path
       d="m 1269.8,522.143 h 69.47 V 487.429 H 1269.8 V 418 h -34.73 v 243 h 104.2 v -34.714 h -69.47 z"
       fill="#c6d300"
       id="path9" />
    <path
       d="m 1374,522.143 h -34.73 V 626.286 H 1374 Z"
       fill="#c6d300"
       id="path10" />
  </g>
  <defs
     id="defs10">
    <clipPath
       id="clip0_5_49775">
      <rect
         width="827"
         height="243"
         fill="white"
         transform="translate(547 418)"
         id="rect10" />
    </clipPath>
  </defs>
</svg>
