<svg width="2899.66" height="512" xmlns="http://www.w3.org/2000/svg" data-name="Google Cloud logo">

 <g>
  <title>Layer 1</title>
  <g data-name="1570x512px" id="_1570x512px">
   <path id="svg_1" fill="#5f6368" d="m1890.13,397.29q-77.91,0 -130.34,-52.43q-51.94,-52.42 -51.94,-130.83t51.94,-130.34q51.93,-52.92 130.34,-52.92q79.38,0 128.87,57.33l-32.34,31.36q-37.74,-45.57 -96.53,-45.57q-58.32,0 -97.51,39.2q-38.71,38.72 -38.71,100.94t38.71,100.97q39.2,39.21 97.51,39.2q61.24,0 106.33,-51.45l32.83,31.85a170.14,170.14 0 0 1 -61.25,46.3a186.79,186.79 0 0 1 -77.91,16.39zm213.73,-358.68l0,350.84l-45.08,0l0,-350.84l45.08,0zm32.58,230.79q0,-55.36 34.79,-91.63q35.28,-36.26 88.69,-36.26t88.2,36.26q35.28,36.23 35.28,91.63q0,55.86 -35.28,91.63q-34.78,36.27 -88.2,36.26t-88.69,-36.29q-34.79,-36.22 -34.79,-91.6zm45.08,0q0,38.72 22.54,62.72t55.86,24q33.33,0 55.86,-24t22.54,-62.72q0,-38.22 -22.54,-62.23q-23,-24.49 -55.86,-24.5t-55.86,24.5q-22.53,24.02 -22.54,62.23zm444.78,120.05l-43.12,0l0,-33.32l-2,0q-10.29,17.64 -31.61,29.4a90.58,90.58 0 0 1 -44.34,11.76q-44.1,0 -67.87,-25.24t-23.76,-71.78l0,-150.92l45.08,0l0,148q1.47,58.8 59.29,58.8q26.94,0 45.08,-21.81t18.13,-52.18l0,-132.81l45.08,0l0.04,240.1zm146.45,7.84q-47,0 -80.85,-37.24q-33.33,-37.73 -33.32,-90.65t33.32,-90.65q33.81,-37.23 80.85,-37.24q26.46,0 48.27,11.27t33.56,29.89l2,0l-2,-33.32l0,-110.74l45.08,0l0,350.84l-43.12,0l0,-33.32l-2,0q-11.72,18.63 -33.54,29.87t-48.25,11.29zm7.35,-41.16q33.32,0 54.39,-24q22.05,-24 22.05,-62.72q0,-37.72 -22.05,-62.23q-21.55,-24.49 -54.39,-24.5q-32.34,0 -54.39,24.5t-22.05,62.23q0,38.22 22.05,62.23q22.05,24.5 54.39,24.49z"/>
   <path id="svg_2" fill="#4285f4" d="m202.4,235.58l0,-54.26l181.6,0a178.07,178.07 0 0 1 2.94,33.27c0,40.68 -11.14,91.06 -47,126.9c-34.86,36.33 -79.42,55.71 -138.5,55.71c-109.44,0 -201.44,-89.13 -201.44,-198.6s92,-198.6 201.45,-198.6c60.55,0 103.64,23.74 136.08,54.74l-38.26,38.26c-23.27,-21.79 -54.72,-38.75 -97.82,-38.75c-79.9,0 -142.37,64.42 -142.37,144.35s62.47,144.4 142.37,144.4c51.82,0 81.36,-20.83 100.24,-39.72c15.39,-15.39 25.53,-37.47 29.46,-67.65l-128.75,-0.05z"/>
   <path id="svg_3" fill="#ea4335" d="m663.64,269.32c0,73.68 -57.64,127.88 -128.32,127.88s-128.32,-54.2 -128.32,-127.88c0,-74.11 57.63,-127.88 128.34,-127.88s128.3,53.77 128.3,127.88zm-56.17,0c0,-46 -33.41,-77.5 -72.15,-77.5s-72.16,31.48 -72.16,77.5c0,45.53 33.41,77.5 72.16,77.5s72.15,-31.97 72.15,-77.5z"/>
   <path id="svg_4" fill="#fbbc04" d="m943.59,269.32c0,73.68 -57.59,127.88 -128.32,127.88s-128.33,-54.2 -128.33,-127.88c0,-74.11 57.62,-127.88 128.33,-127.88s128.32,53.77 128.32,127.88zm-56.17,0c0,-46 -33.41,-77.5 -72.15,-77.5s-72.16,31.48 -72.16,77.5c0,45.53 33.41,77.5 72.16,77.5s72.15,-31.97 72.15,-77.5z"/>
   <path id="svg_5" fill="#4285f4" d="m1211.93,149.19l0,229.6c0,94.46 -55.69,133.21 -121.55,133.21c-62,0 -99.28,-41.66 -113.32,-75.56l48.94,-20.35c8.71,20.83 30,45.53 64.41,45.53c42.13,0 68.28,-26.16 68.28,-75.08l0,-18.4l-1.94,0c-12.59,15.5 -36.8,29.06 -67.31,29.06c-63.93,0 -122.52,-55.71 -122.52,-127.39c0,-72.18 58.59,-128.37 122.52,-128.37c30.51,0 54.72,13.56 67.31,28.58l1.94,0l0,-20.83l53.24,0zm-49.4,120.62c0,-45.05 -30,-78 -68.28,-78c-38.74,0 -71.19,32.94 -71.19,78c0,44.56 32.45,77 71.19,77c38.26,0.01 68.28,-32.44 68.28,-77z"/>
   <path id="svg_6" fill="#34a853" d="m1307.07,14.82l0,374.63l-56.17,0l0,-374.63l56.17,0z"/>
   <path id="svg_7" fill="#ea4335" d="m1524,311.46l43.58,29.07c-14,20.82 -47.94,56.67 -106.54,56.67c-72.64,0 -126.88,-56.19 -126.88,-127.88c0,-76 54.73,-127.88 120.58,-127.88c66.35,0 98.79,52.8 109.45,81.38l5.81,14.53l-171,70.72c13.08,25.67 33.42,38.75 62,38.75s48.47,-14.04 63,-35.36zm-134.15,-46l114.29,-47.46c-6.3,-16 -25.18,-27.12 -47.46,-27.12c-28.57,-0.03 -68.28,25.12 -66.83,74.57l0,0.01z"/>
  </g>
 </g>
</svg>