<?xml version="1.0" encoding="UTF-8" standalone="no"?>
<svg
   xmlns:dc="http://purl.org/dc/elements/1.1/"
   xmlns:cc="http://creativecommons.org/ns#"
   xmlns:rdf="http://www.w3.org/1999/02/22-rdf-syntax-ns#"
   xmlns:svg="http://www.w3.org/2000/svg"
   xmlns="http://www.w3.org/2000/svg"
   xmlns:sodipodi="http://sodipodi.sourceforge.net/DTD/sodipodi-0.dtd"
   xmlns:inkscape="http://www.inkscape.org/namespaces/inkscape"
   width="277.97101"
   height="137.166"
   version="1.1"
   id="svg10"
   sodipodi:docname="kiwi.svg"
   inkscape:version="0.92.5 (2060ec1f9f, 2020-04-08)"
   inkscape:export-filename="/home/raquel/src/europython/website/public/img/logos/sponsor_logos/kiwi.png"
   inkscape:export-xdpi="170.67"
   inkscape:export-ydpi="170.67">
  <metadata
     id="metadata16">
    <rdf:RDF>
      <cc:Work
         rdf:about="">
        <dc:format>image/svg+xml</dc:format>
        <dc:type
           rdf:resource="http://purl.org/dc/dcmitype/StillImage" />
        <dc:title></dc:title>
      </cc:Work>
    </rdf:RDF>
  </metadata>
  <defs
     id="defs14" />
  <sodipodi:namedview
     pagecolor="#ffffff"
     bordercolor="#666666"
     borderopacity="1"
     objecttolerance="10"
     gridtolerance="10"
     guidetolerance="10"
     inkscape:pageopacity="0"
     inkscape:pageshadow="2"
     inkscape:window-width="1920"
     inkscape:window-height="1016"
     id="namedview12"
     showgrid="false"
     inkscape:zoom="0.23464244"
     inkscape:cx="-301.43636"
     inkscape:cy="-298.20419"
     inkscape:window-x="0"
     inkscape:window-y="27"
     inkscape:window-maximized="1"
     inkscape:current-layer="svg10"
     fit-margin-top="0"
     fit-margin-left="0"
     fit-margin-right="0"
     fit-margin-bottom="0" />
  <g
     id="g8"
     style="fill:none"
     transform="translate(1.3568579e-6,-0.116)">
    <path
       d="m 120.447,57.027 c 0.14,-0.354 0.282,-0.919 0.282,-1.272 0,-1.907 -1.483,-2.826 -3.037,-2.826 -1.342,0 -2.19,0.636 -2.685,2.12 l -6.216,19.003 -7.135,-19.145 c -0.424,-1.2 -1.2,-1.978 -2.685,-1.978 -1.483,0 -2.26,0.777 -2.683,1.978 L 89.223,74.052 83.007,55.049 c -0.495,-1.483 -1.343,-2.12 -2.685,-2.12 -1.554,0 -3.037,0.919 -3.037,2.826 0,0.353 0.14,0.918 0.282,1.272 l 8.689,25.784 c 0.283,1.13 1.2,1.908 2.755,1.908 1.554,0 2.402,-0.848 2.826,-1.979 l 7.134,-19.568 7.206,19.568 c 0.424,1.2 1.342,1.979 2.826,1.979 1.484,0 2.331,-0.706 2.755,-1.908 z M 55.67,78.823 45.39,68.605 55.67,58.388 c 1.298,-1.3 1.4,-3.298 0,-4.696 -1.399,-1.399 -3.397,-1.3 -4.695,0 L 38.467,66.2 a 3.303,3.303 0 0 0 -0.979,2.405 3.302,3.302 0 0 0 0.979,2.405 l 12.508,12.507 c 1.298,1.3 3.296,1.4 4.695,0 1.398,-1.397 1.298,-3.395 0,-4.694 z M 35.913,81.16 V 56.01 c 0,-1.836 -1.412,-3.32 -3.32,-3.32 -1.908,0 -3.32,1.484 -3.32,3.32 v 25.15 c 0,1.835 1.341,3.319 3.32,3.319 1.978,0 3.32,-1.484 3.32,-3.32 z M 64.018,56.25 v 25.147 c 0,1.837 1.343,3.322 3.32,3.322 1.98,0 3.322,-1.485 3.322,-3.322 V 56.25 c 0,-1.837 -1.414,-3.32 -3.321,-3.32 -1.907,0 -3.32,1.483 -3.32,3.32 z m 63.45,0 v 25.147 c 0,1.837 1.342,3.322 3.32,3.322 1.978,0 3.32,-1.485 3.32,-3.322 V 56.25 c 0,-1.837 -1.413,-3.32 -3.32,-3.32 -1.907,0 -3.32,1.483 -3.32,3.32 z m 0,0 v 25.147 c 0,1.837 1.342,3.322 3.32,3.322 1.978,0 3.32,-1.485 3.32,-3.322 V 56.25 c 0,-1.837 -1.413,-3.32 -3.32,-3.32 -1.907,0 -3.32,1.483 -3.32,3.32 z m 0,0 v 25.147 c 0,1.837 1.342,3.322 3.32,3.322 1.978,0 3.32,-1.485 3.32,-3.322 V 56.25 c 0,-1.837 -1.413,-3.32 -3.32,-3.32 -1.907,0 -3.32,1.483 -3.32,3.32 z m 67.2,2.46 c 2.975,0 4.71,1.136 6.371,2.402 0.663,0.458 1.312,0.68 1.982,0.68 1.612,0 2.829,-1.236 2.829,-2.874 0,-0.764 -0.31,-1.446 -0.947,-2.084 -2.37,-2.453 -6.196,-3.917 -10.235,-3.917 -9.16,0 -15.559,6.49 -15.559,15.782 0,9.293 6.398,15.783 15.56,15.783 4.038,0 7.858,-1.459 10.217,-3.901 0.648,-0.65 0.964,-1.336 0.964,-2.1 0,-1.638 -1.217,-2.874 -2.83,-2.874 -0.671,0 -1.334,0.233 -2.029,0.714 -1.569,1.198 -3.35,2.368 -6.323,2.368 -5.487,0 -9.32,-4.108 -9.32,-9.99 0,-5.882 3.833,-9.989 9.32,-9.989 z m 30.914,-5.793 c -8.92,0 -15.648,6.785 -15.648,15.782 0,8.998 6.727,15.783 15.648,15.783 8.92,0 15.647,-6.785 15.647,-15.783 0,-8.997 -6.726,-15.782 -15.647,-15.782 z m 0,25.928 c -6.19,0 -9.428,-5.104 -9.428,-10.146 0,-6.66 4.743,-10.145 9.428,-10.145 6.192,0 9.432,5.104 9.432,10.145 0,6.661 -4.745,10.146 -9.432,10.146 z m 49.427,-25.75 c -1.15,0 -2.16,0.681 -2.703,1.82 l -9.671,20.25 -0.085,-0.178 -9.693,-20.112 c -0.669,-1.214 -1.535,-1.78 -2.727,-1.78 a 2.887,2.887 0 0 0 -2.918,2.92 v 25.324 c 0,1.607 1.336,2.964 2.918,2.964 1.606,0 2.963,-1.357 2.963,-2.964 V 67.883 l 6.98,14.792 c 0.558,1.11 1.373,1.628 2.564,1.628 1.135,0 2.071,-0.599 2.569,-1.643 l 6.884,-14.774 v 13.499 c 0,1.609 1.31,2.918 2.919,2.918 1.661,0 2.962,-1.282 2.962,-2.918 V 56.059 c 0,-1.772 -1.19,-2.963 -2.962,-2.963 z"
       id="path2"
       inkscape:connector-curvature="0"
       style="fill:#171b1e" />
    <path
       d="m 149.934,97.876 a 4.941,4.941 0 0 0 -2.952,-0.973 5.002,5.002 0 0 0 -4.01,2.024 c -6.244,8.46 -15.06,15.553 -25.496,20.511 -10.851,5.16 -23.254,7.885 -35.904,7.885 -19.301,0 -37.403,-6.207 -50.97,-17.48 C 24.089,104.439 18.987,98.165 15.437,91.197 11.804,84.062 9.961,76.493 9.959,68.701 9.961,60.909 11.804,53.339 15.437,46.202 20.78,35.711 29.687,26.754 41.196,20.3 53.123,13.61 67.092,10.074 81.598,10.074 c 12.648,0 25.081,2.74 35.956,7.924 10.458,4.984 19.279,12.107 25.51,20.6 a 5.001,5.001 0 0 0 4.018,2.033 4.942,4.942 0 0 0 2.942,-0.965 4.985,4.985 0 0 0 1.067,-6.96 C 143.885,22.891 133.771,14.696 121.839,9.008 109.635,3.191 95.72,0.117 81.6,0.116 59.978,0.12 39.608,7.144 24.24,19.893 16.68,26.17 10.733,33.5 6.564,41.682 2.207,50.227 -0.002,59.317 0,68.7 c -0.002,9.383 2.207,18.472 6.564,27.017 6.248,12.253 16.54,22.65 29.761,30.066 13.412,7.521 29.067,11.498 45.273,11.499 14.083,0 27.968,-3.06 40.153,-8.85 11.909,-5.662 22.017,-13.82 29.233,-23.592 a 4.987,4.987 0 0 0 -1.05,-6.965"
       id="path4"
       inkscape:connector-curvature="0"
       style="fill:#00a991" />
    <path
       d="m 157.898,63.215 a 5.49,5.49 0 0 0 -5.483,5.484 5.49,5.49 0 0 0 5.483,5.484 5.49,5.49 0 0 0 5.483,-5.484 5.49,5.49 0 0 0 -5.483,-5.484"
       id="path6"
       inkscape:connector-curvature="0"
       style="fill:#00a991" />
  </g>
</svg>
