<?xml version="1.0" encoding="UTF-8" standalone="no"?>
<svg
   viewBox="0 0 477.05 185"
   version="1.1"
   id="svg28"
   sodipodi:docname="optiver.svg"
   inkscape:version="1.1.2 (0a00cf5339, 2022-02-04)"
   width="477.04999"
   height="185"
   xmlns:inkscape="http://www.inkscape.org/namespaces/inkscape"
   xmlns:sodipodi="http://sodipodi.sourceforge.net/DTD/sodipodi-0.dtd"
   xmlns="http://www.w3.org/2000/svg"
   xmlns:svg="http://www.w3.org/2000/svg">
  <sodipodi:namedview
     id="namedview30"
     pagecolor="#ffffff"
     bordercolor="#666666"
     borderopacity="1.0"
     inkscape:pageshadow="2"
     inkscape:pageopacity="0.0"
     inkscape:pagecheckerboard="0"
     showgrid="false"
     inkscape:zoom="0.72529087"
     inkscape:cx="-126.84566"
     inkscape:cy="96.513003"
     inkscape:window-width="1920"
     inkscape:window-height="1043"
     inkscape:window-x="3852"
     inkscape:window-y="0"
     inkscape:window-maximized="1"
     inkscape:current-layer="svg28" />
  <defs
     id="defs4">
    <style
       id="style2">.cls-1{fill:#f30;}.cls-2{fill:none;}</style>
  </defs>
  <g
     id="g1454"
     transform="matrix(1.1717008,0,0,1.1717008,1034.0358,3.5790121)">
    <path
       d="m -825.45266,36.461047 a 31.17,31.17 0 1 0 22.28,9.15 31.08,31.08 0 0 0 -22.28,-9.15 z m 0,54.69 a 23,23 0 0 1 -16.48,-6.73 24.06,24.06 0 0 1 0,-33.21 23.52,23.52 0 0 1 33,0 24.06,24.06 0 0 1 0,33.21 23,23 0 0 1 -16.52,6.73 z"
       id="path6" />
    <path
       d="m -763.95266,53.691047 c -6.89,0 -12.47,2.84 -16.15,8.23 v -7.14 h -7.75 v 60.540003 h 7.75 V 91.011047 c 3.68,5.39 9.26,8.23 16.15,8.23 a 21.43,21.43 0 0 0 15.47,-6.58 23.58,23.58 0 0 0 0,-32.39 21.43,21.43 0 0 0 -15.47,-6.58 z m -1,7.49 a 15.29,15.29 0 1 1 -15.2,15.28 14.87,14.87 0 0 1 15.3,-15.28 z"
       id="path8" />
    <path
       d="m -723.78266,42.711047 -7.75,2.31 v 9.76 h -8.52 v 7.49 h 8.52 v 23.21 c 0,4.75 1.17,8.09 3.59,10.2 2.17,1.91 5.32,2.84 9.73,2.84 a 44.64,44.64 0 0 0 5.77,-0.43 h 0.11 v -7 h -1 c -4.53,0.21 -7.53,0.35 -9.12,-1.17 -0.92,-0.88 -1.35,-2.31 -1.35,-4.51 v -23.11 h 11.45 v -7.52 h -11.43 z"
       id="path10" />
    <rect
       x="-703.71265"
       y="54.811047"
       width="7.75"
       height="43.32"
       id="rect12" />
    <path
       d="m -699.79266,36.891047 a 5.17,5.17 0 1 0 0,10.33 5.12,5.12 0 0 0 5.12,-5.12 5.18,5.18 0 0 0 -5.12,-5.21 z"
       id="path14" />
    <polygon
       points="244.35,123.34 253.31,123.34 270.57,80.2 270.64,80.03 262.27,80.03 248.83,114.85 235.4,80.03 227.03,80.03 244.32,123.26 "
       id="polygon16"
       transform="translate(-916.85266,-25.218953)" />
    <path
       d="m -622.69266,53.691047 c -13.15,0 -22.69,9.58 -22.69,22.77 a 22.7,22.7 0 0 0 6.38,16.26 c 4.25,4.27 10.07,6.52 16.83,6.52 8.2,0 15,-3.48 19.05,-9.79 l 0.07,-0.11 -6.49,-3.68 -0.1,-0.07 -0.07,0.11 c -2.38,3.9 -7,6.22 -12.29,6.22 -8.08,0 -14,-4.55 -15.44,-11.88 h 36 v -0.11 a 22.63,22.63 0 0 0 0.26,-3.38 23.82,23.82 0 0 0 -5.88,-16 20.7,20.7 0 0 0 -15.63,-6.86 z m 0,7.31 c 5.7,0 12.29,3.22 13.72,12.24 h -28.47 c 1.28,-7.55 6.92,-12.24 14.75,-12.24 z"
       id="path18" />
    <path
       d="m -572.80266,54.031047 c -6.24,0 -10.83,2.62 -13.31,7.58 v -6.83 h -7.74 v 43.31 h 7.75 v -23 c 0,-4.22 1.2,-7.52 3.57,-9.8 a 13.1,13.1 0 0 1 9.68,-3.17 h 0.14 v -8.1 z"
       id="path20" />
    <path
       class="cls-1"
       d="m -501.65266,95.431047 -27.2,-57.89 a 1.88,1.88 0 0 0 -1.7,-1.08 h -5.05 a 1.88,1.88 0 0 0 -1.75,1.17 l -23.5,57.9 a 1.88,1.88 0 0 0 1.75,2.59 h 55.75 a 1.88,1.88 0 0 0 1.7,-2.69 z m -33.31,-33.5 11.56,24.67 a 1.88,1.88 0 0 1 -1.7,2.68 h -21.55 a 1.88,1.88 0 0 1 -1.75,-2.59 l 10,-24.66 a 1.89,1.89 0 0 1 3.44,-0.1 z"
       id="path22" />
  </g>
  <g
     id="Clearance_area"
     data-name="Clearance area"
     style="fill:none">
    <rect
       class="cls-2"
       width="477.04999"
       height="185"
       id="rect25"
       x="0"
       y="0"
       style="fill:none" />
  </g>
</svg>
