<?xml version="1.0" encoding="UTF-8" standalone="no"?>
<svg
   width="600"
   height="105"
   version="1.1"
   id="svg3"
   xmlns="http://www.w3.org/2000/svg"
   xmlns:svg="http://www.w3.org/2000/svg">
  <defs
     id="defs3" />
  <mask
     id="a"
     x="21"
     y="268"
     width="116.6"
     height="105.7"
     maskUnits="userSpaceOnUse">
    <g
       filter="url(#b)"
       id="g1">
      <path
         d="M 21,268 H 138 V 373 H 21 Z"
         fill="#ffffff"
         id="path1" />
    </g>
  </mask>
  <filter
     id="b"
     x="21"
     y="268"
     width="116.6"
     height="105.7"
     filterUnits="userSpaceOnUse">
    <feColorMatrix
       in="SourceGraphic"
       result="result1"
       values="1 0 0 0 0 0 1 0 0 0 0 0 1 0 0 0 0 0 1 0"
       id="feColorMatrix1" />
  </filter>
  <g
     transform="translate(-21,-268)"
     mask="url(#a)"
     id="g2">
    <path
       d="M 83,373 H 58 c -6,0 -11,-3 -13,-7 L 23,328 c -3,-5 -3,-10 0,-15 l 22,-38 c 2,-4 7,-7 13,-7 h 43 c 5,0 10,3 13,7 l 22,38 c 2,5 2,10 0,15 l -6,9 c -3,5 -8,7 -13,7 H 91 L 105,320 92,298 H 66 l -13,22 z"
       fill="#fe5000"
       id="path2" />
  </g>
  <path
     d="m 159,53 c 4,0 7,-2 7,-7 0,-4 -2,-6 -7,-6 h -3 v 13 z m -3,25 H 144 V 31 h 17 c 11,0 18,5 18,15 0,11 -8,16 -20,16 h -3 z m 41,-47 v 30 c 0,5 3,7 7,7 4,0 6,-2 6,-7 V 31 h 12 v 32 c 0,9 -7,15 -18,15 -12,0 -18,-5 -18,-16 V 31 Z m 77,0 h 31 v 10 h -19 v 8 h 16 v 10 h -16 v 8 h 19 v 11 h -31 z m 42,38 c 2,1 7,4 13,4 5,0 10,-2 10,-9 0,-6 -5,-7 -11,-9 -7,-2 -13,-4 -13,-13 0,-8 6,-13 15,-13 6,0 12,3 15,6 l -3,4 c -4,-3 -8,-5 -12,-5 -4,0 -9,2 -9,7 0,6 4,8 10,9 7,2 14,5 14,14 0,9 -6,14 -16,14 -7,0 -13,-3 -15,-5 z m 67,-38 v 5 h -14 v 42 h -5 V 36 h -14 v -5 z m 23,42 c 10,0 13,-10 13,-19 0,-9 -2,-20 -13,-20 -10,0 -14,10 -14,19 0,9 3,20 14,20 m 0,5 c -12,0 -19,-9 -19,-25 0,-18 10,-24 19,-24 10,0 19,6 19,24 0,17 -8,25 -19,25 m 78,-19 h 15 l -8,-23 z m -12,19 16,-47 h 7 l 17,47 h -6 l -5,-15 h -19 l -5,15 z m 76,-5 c -4,3 -9,5 -15,5 -12,0 -20,-8 -20,-25 0,-18 11,-24 20,-24 4,0 10,2 15,8 l -4,3 c -3,-4 -7,-6 -11,-6 -9,0 -14,7 -14,19 0,13 4,20 14,20 l 9,-2 V 57 h -10 v -5 h 16 z m 10,-42 h 26 v 5 h -20 v 15 h 17 v 5 h -17 v 17 h 20 v 5 H 558 Z M 446,56 h -7 V 35 h 6 c 8,0 14,1 14,11 0,7 -5,10 -13,10 z m 14,7 c -1,-3 -2,-4 -4,-4 6,-3 9,-7 9,-14 0,-10 -6,-14 -16,-14 h -16 v 47 h 6 V 60 h 10 c 3,0 4,2 5,5 l 6,12 h 6 z M 243,53 V 40 h 3 c 4,0 7,2 7,6 0,5 -3,7 -8,7 z m 18,10 -3,-4 c 4,-3 7,-7 7,-13 0,-10 -7,-15 -17,-15 h -17 v 47 h 11 V 62 h 4 l 3,3 5,13 h 13 z m 333,-28 2,-1 -2,-1 h -1 v 2 z m -1,4 h -1 v -7 h 2 c 2,0 3,1 3,2 l -2,2 2,3 h -1 l -2,-3 h -1 z m 1,-9 c -3,0 -5,2 -5,5 0,3 2,5 5,5 3,0 5,-2 5,-5 0,-3 -2,-5 -5,-5 z m 0,11 c -4,0 -6,-2 -6,-6 0,-4 3,-6 6,-6 3,0 6,2 6,6 0,4 -3,6 -6,6 z"
     fill="#222222"
     id="path3" />
</svg>
