<svg width="307" height="100" viewBox="0 0 307 100" fill="none" xmlns="http://www.w3.org/2000/svg">
<path fill-rule="evenodd" clip-rule="evenodd" d="M130.971 -6.10352e-05H134.458V4.0485H130.971V-6.10352e-05ZM49.3297 6.31854C51.9391 6.31854 54.2559 7.58226 55.7068 9.91076V9.89906V0.31591H58.9832V24.9934H55.7068V21.7522C54.2676 24.0807 51.9391 25.3444 49.3297 25.3444C45.0237 25.3444 41.2559 21.9277 41.2559 15.8315C41.2559 9.73525 45.0588 6.31854 49.3297 6.31854ZM44.5673 15.8198C44.5673 20.196 47.0363 22.7702 50.1371 22.7702C53.2028 22.7702 55.7068 20.196 55.7068 15.8198C55.7068 11.4436 53.2379 8.86937 50.1371 8.86937C47.0363 8.86937 44.5673 11.4436 44.5673 15.8198ZM3.28815 9.93414C4.7274 7.57053 7.05593 6.30682 9.70039 6.30682L9.68869 6.31852C13.9245 6.31852 17.7274 9.73523 17.7274 15.8315C17.7274 21.9277 13.9596 25.3444 9.68869 25.3444C7.04423 25.3444 4.7274 24.0807 3.27645 21.7171V31.3354H0.00012207V6.65785H3.28815V9.93414ZM3.27645 15.8198C3.27645 20.196 5.7805 22.7702 8.84621 22.7702C11.947 22.7702 14.4511 20.196 14.4511 15.8198C14.4511 11.4436 11.9119 8.86935 8.84621 8.86935C5.7805 8.86935 3.27645 11.4436 3.27645 15.8198ZM210.273 32.1682L202.248 24.1426L194.222 32.1682L202.248 40.1939L210.273 32.1682ZM64.1361 44.9202C51.0776 44.9202 40.488 55.5096 40.488 68.568V76.1386C40.488 89.1969 51.0776 99.7864 64.1361 99.7864C77.1946 99.7864 87.7842 89.1969 87.7842 76.1386V68.568C87.7842 55.5096 77.1946 44.9202 64.1361 44.9202ZM76.2468 75.4833C76.2468 82.3752 70.8292 87.9683 64.1361 87.9683C57.443 87.9683 52.0254 82.3752 52.0254 75.4833V69.7147C52.0254 62.8228 57.443 57.2297 64.1361 57.2297C70.8292 57.2297 76.2468 62.8228 76.2468 69.7147V75.4833ZM189.769 57.2181V45.8681H159.498H155.719H148.148V66.6842V76.1387V78.0343V98.8504H155.239H159.498V87.4887V78.0343H182.198V66.6842H159.498V57.2181H189.769ZM247.665 72.3592H244.26C251.574 72.3592 257.506 66.4268 257.506 59.1137C257.506 51.8005 252.077 46.3946 245.208 45.9032V45.8681H216.353V98.8387H227.703V78.0226H246.156V98.8387H257.506V82.1881C257.506 76.7588 253.106 72.3475 247.665 72.3475V72.3592ZM233.39 66.6842H227.703V57.2298H242.844C245.489 57.2298 247.619 59.3945 247.572 62.0506C247.525 64.66 245.29 66.6959 242.681 66.6959H233.39V66.6842ZM196.58 45.8681H207.93V98.8387H196.58V45.8681ZM117.495 68.568H124.118H140.675V76.1386C140.675 91.268 130.554 99.7864 117.495 99.7864C104.437 99.7864 93.8472 89.1969 93.8472 76.1386V68.568C93.8472 55.5096 104.437 44.9202 117.495 44.9202C127.909 44.9202 136.744 51.6483 139.903 60.9974H126.178C123.978 58.6689 120.9 57.218 117.495 57.218C110.802 57.218 105.385 62.8111 105.385 69.703V75.4716C105.385 82.3635 110.802 87.9566 117.495 87.9566C123.334 87.9566 128.202 83.6974 129.349 78.0224H117.495V68.568ZM306.122 57.2181V45.8681H264.501V57.2181V66.6842V76.1387V78.0343H275.852V98.8504H282.954H287.202H306.122V87.4887H287.202V78.0343H298.564V66.6842H275.852V57.2181H306.122ZM22.7004 76.1387V87.4887H37.8417V98.8504H11.3503V87.4887H0.000141586V45.8681H11.3503V76.1387H22.7004ZM29.5884 20.8745L24.0889 6.65775H20.7423L28.1024 24.7827L25.5983 31.3353H28.9214L38.2941 6.65775H34.9826L29.5884 20.8745ZM80.0033 14.24C80.0033 8.28413 77.0078 6.30666 72.7369 6.30666C68.8638 6.30666 65.6811 8.67027 65.0492 12.2976H68.2203C68.6064 10.1446 70.3031 8.88089 72.6667 8.88089C75.2058 8.88089 76.7153 9.96908 76.7153 13.6432V13.9942L73.439 14.2049C67.2374 14.6261 64.5578 16.8142 64.5578 20.0905C64.5578 22.9455 66.7459 25.3443 71.0051 25.3443C74.1059 25.3443 75.943 24.1507 76.961 22.3137C76.961 23.3317 77.0312 24.2912 77.2068 24.9932H80.3427C80.132 24.2561 79.9916 23.1562 79.9916 21.8924V14.24H80.0033ZM76.7153 18.1598C76.7153 20.8042 74.9835 22.9572 71.7774 22.9572C68.9925 22.9572 67.8341 21.5765 67.8341 19.9969C67.8341 17.879 69.7414 16.861 74.0708 16.5451L76.7153 16.3696V18.1598ZM89.1979 9.89888C90.3563 7.53526 92.5094 6.30666 95.2591 6.30666C98.9918 6.30666 101.496 8.60006 101.496 13.7134V24.9932H98.2195V14.2049C98.2195 10.5424 96.7101 8.88089 94.1007 8.88089C91.1403 8.88089 89.1979 10.9637 89.1979 14.8718V24.9932H85.9216V6.65769H89.1979V9.89888ZM113.143 2.43386H109.866V6.66964H104.086V9.31408H109.866V20.1024C109.866 24.2212 112.37 25.0052 115.366 25.0052H119.637V22.3607H116.255C114.523 22.3607 113.154 22.1501 113.154 19.7865V9.30238H119.637V6.65794H113.154V2.42216L113.143 2.43386ZM134.356 6.65775H124.773V9.30219H131.08V22.3489H124.773V24.9933H139.961V22.3489H134.356V6.65775ZM145.647 15.8196C145.647 20.4064 148.151 22.77 151.182 22.77V22.7466C153.686 22.7466 155.452 21.4478 156.225 19.014H159.501C158.518 23.1327 155.3 25.3208 151.182 25.3208C146.454 25.3208 142.371 22.0797 142.371 15.8079C142.371 9.53614 146.454 6.29495 151.182 6.29495C155.3 6.29495 158.483 8.48304 159.501 12.5667H156.19C155.417 10.168 153.686 8.86918 151.182 8.86918C148.151 8.86918 145.647 11.2328 145.647 15.8196Z" fill="#E520E9"/>
</svg>
