<?xml version="1.0" encoding="UTF-8" standalone="no"?>
<!-- Created with Inkscape (http://www.inkscape.org/) -->

<svg
   version="1.1"
   id="svg1"
   width="844"
   height="213.33333"
   viewBox="0 0 844 213.33333"
   sodipodi:docname="Qt Group logo black cmyk.svg"
   inkscape:version="1.3.2 (091e20ef0f, 2023-11-25, custom)"
   xmlns:inkscape="http://www.inkscape.org/namespaces/inkscape"
   xmlns:sodipodi="http://sodipodi.sourceforge.net/DTD/sodipodi-0.dtd"
   xmlns="http://www.w3.org/2000/svg"
   xmlns:svg="http://www.w3.org/2000/svg">
  <defs
     id="defs1">
    <clipPath
       clipPathUnits="userSpaceOnUse"
       id="clipPath2">
      <path
         d="M 0,160 H 633 V 0 H 0 Z"
         transform="translate(-66.448202,-112.5281)"
         id="path2" />
    </clipPath>
    <clipPath
       clipPathUnits="userSpaceOnUse"
       id="clipPath4">
      <path
         d="M 0,160 H 633 V 0 H 0 Z"
         transform="translate(-318.55201,-72.727999)"
         id="path4" />
    </clipPath>
    <clipPath
       clipPathUnits="userSpaceOnUse"
       id="clipPath6">
      <path
         d="M 0,160 H 633 V 0 H 0 Z"
         transform="translate(-364.81701,-34.999998)"
         id="path6" />
    </clipPath>
    <clipPath
       clipPathUnits="userSpaceOnUse"
       id="clipPath8">
      <path
         d="M 0,160 H 633 V 0 H 0 Z"
         transform="translate(-431.98101,-52.423999)"
         id="path8" />
    </clipPath>
    <clipPath
       clipPathUnits="userSpaceOnUse"
       id="clipPath10">
      <path
         d="M 0,160 H 633 V 0 H 0 Z"
         transform="translate(-536.27701,-107)"
         id="path10" />
    </clipPath>
    <clipPath
       clipPathUnits="userSpaceOnUse"
       id="clipPath12">
      <path
         d="M 0,160 H 633 V 0 H 0 Z"
         transform="translate(-602.22401,-94.616002)"
         id="path12" />
    </clipPath>
  </defs>
  <sodipodi:namedview
     id="namedview1"
     pagecolor="#ffffff"
     bordercolor="#000000"
     borderopacity="0.25"
     inkscape:showpageshadow="2"
     inkscape:pageopacity="0.0"
     inkscape:pagecheckerboard="0"
     inkscape:deskcolor="#d1d1d1"
     showgrid="false"
     inkscape:zoom="0.27962085"
     inkscape:cx="420.21186"
     inkscape:cy="107.28814"
     inkscape:window-width="1622"
     inkscape:window-height="972"
     inkscape:window-x="4"
     inkscape:window-y="24"
     inkscape:window-maximized="1"
     inkscape:current-layer="layer-MC0">
    <inkscape:page
       x="0"
       y="0"
       inkscape:label="1"
       id="page1"
       width="844"
       height="213.33333"
       margin="0 0.71466666 0 0"
       bleed="0" />
  </sodipodi:namedview>
  <g
     id="layer-MC0"
     inkscape:groupmode="layer"
     inkscape:label="Layer 1">
    <path
       id="path1"
       d="m 0,0 c 3.36,5.952 9.552,8.928 18.576,8.928 9.024,0 15.2,-2.976 18.512,-8.928 3.296,-5.952 4.96,-15.504 4.96,-28.656 0,-13.152 -1.6,-22.48 -4.816,-28 -3.232,-5.52 -9.44,-8.272 -18.656,-8.272 -9.216,0 -15.456,2.8 -18.72,8.416 -3.264,5.616 -4.896,14.944 -4.896,28 0,13.056 1.68,22.56 5.04,28.512 m 80.192,-73.296 c 3.024,-3.744 8.624,-5.616 16.784,-5.616 3.36,0 8.256,0.624 14.688,1.872 l -0.72,12.528 -11.808,-0.432 c -3.552,0 -5.76,0.96 -6.624,2.88 -0.864,1.92 -1.296,5.808 -1.296,11.664 v 31.68 h 19.872 V -5.328 H 91.216 v 20.88 H 75.664 V -5.328 H 66.448 V -18.72 h 9.216 v -33.408 c 0,-10.368 1.504,-17.424 4.528,-21.168 m -40.016,-25.776 14.832,6.912 h -0.016 l -12.096,19.44 c 5.568,3.744 9.584,9.168 12.032,16.272 2.432,7.104 3.664,16.416 3.664,27.936 0,17.472 -2.976,30.416 -8.928,38.816 -5.952,8.4 -16.32,12.608 -31.104,12.608 -14.784,0 -25.168,-4.224 -31.168,-12.672 -6,-8.464 -8.992,-21.392 -8.992,-38.816 0,-17.424 2.944,-30.176 8.848,-38.24 5.92,-8.064 16.352,-12.096 31.328,-12.096 4.032,0 6.96,0.288 8.784,0.864 z m -106.624,120.944 25.6,25.6 h 198.4 v -134.4 l -25.6,-25.6 h -198.4 z"
       style="fill:#0d0d0d;fill-opacity:1;fill-rule:evenodd;stroke:none"
       transform="matrix(1.3333333,0,0,-1.3333333,88.5976,63.295867)"
       clip-path="url(#clipPath2)" />
    <path
       id="path3"
       d="M 0,0 V 14.112 H 28.08 V -36 c -2.592,-0.672 -7.872,-1.392 -15.84,-2.16 -7.872,-0.768 -13.584,-1.152 -17.136,-1.152 -14.976,0 -25.296,4.128 -30.96,12.384 -5.664,8.256 -8.496,21.168 -8.496,38.736 0,17.664 2.88,30.528 8.64,38.592 5.856,8.064 15.936,12.096 30.24,12.096 8.448,0 17.952,-0.96 28.512,-2.88 L 28.08,58.608 27.504,45.936 C 15.888,47.472 5.472,48.24 -3.744,48.24 c -9.216,0 -15.552,-2.592 -19.008,-7.776 -3.36,-5.184 -5.04,-14.784 -5.04,-28.8 0,-14.016 1.584,-23.712 4.752,-29.088 3.264,-5.28 9.792,-7.92 19.584,-7.92 7.008,0 12.24,0.432 15.696,1.296 V 0 Z"
       style="fill:#0d0d0d;fill-opacity:1;fill-rule:nonzero;stroke:none"
       transform="matrix(1.3333333,0,0,-1.3333333,424.736,116.36267)"
       clip-path="url(#clipPath4)" />
    <path
       id="path5"
       d="m 0,0 v 72 h 15.552 v -8.64 c 8.16,5.28 16.32,8.688 24.48,10.224 V 57.888 C 31.776,56.256 24.72,54.144 18.864,51.552 L 15.696,50.256 V 0 Z"
       style="fill:#0d0d0d;fill-opacity:1;fill-rule:nonzero;stroke:none"
       transform="matrix(1.3333333,0,0,-1.3333333,486.42267,166.66667)"
       clip-path="url(#clipPath6)" />
    <path
       id="path7"
       d="m 0,0 c 2.208,-3.84 6.528,-5.76 12.96,-5.76 6.432,0 10.752,1.92 12.96,5.76 2.208,3.84 3.312,10.128 3.312,18.864 0,8.736 -1.2,14.928 -3.6,18.576 -2.304,3.648 -6.528,5.472 -12.672,5.472 C 6.816,42.912 2.544,41.088 0.144,37.44 -2.16,33.792 -3.312,27.6 -3.312,18.864 -3.312,10.128 -2.208,3.84 0,0 m -11.808,46.8 c 4.992,6.24 13.248,9.36 24.768,9.36 11.52,0 19.728,-3.12 24.624,-9.36 4.992,-6.24 7.488,-15.6 7.488,-28.08 0,-12.48 -2.4,-21.888 -7.2,-28.224 -4.8,-6.336 -13.104,-9.504 -24.912,-9.504 -11.808,0 -20.112,3.168 -24.912,9.504 -4.8,6.336 -7.2,15.744 -7.2,28.224 0,12.48 2.448,21.84 7.344,28.08"
       style="fill:#0d0d0d;fill-opacity:1;fill-rule:nonzero;stroke:none"
       transform="matrix(1.3333333,0,0,-1.3333333,575.97467,143.43467)"
       clip-path="url(#clipPath8)" />
    <path
       id="path9"
       d="M 0,0 H 15.552 V -72 H 0 v 4.464 c -7.008,-4.032 -13.488,-6.048 -19.44,-6.048 -9.888,0 -16.512,2.64 -19.872,7.92 -3.36,5.376 -5.04,14.736 -5.04,28.08 V 0 h 15.696 v -37.728 c 0,-8.64 0.72,-14.448 2.16,-17.424 1.44,-2.976 4.8,-4.464 10.08,-4.464 5.184,0 9.936,0.96 14.256,2.88 L 0,-55.872 Z"
       style="fill:#0d0d0d;fill-opacity:1;fill-rule:nonzero;stroke:none"
       transform="matrix(1.3333333,0,0,-1.3333333,715.036,70.666667)"
       clip-path="url(#clipPath10)" />
    <path
       id="path11"
       d="m 0,0 c -4.512,0 -9.024,-1.008 -13.536,-3.024 l -2.16,-1.008 v -42.48 c 3.84,-0.768 8.064,-1.152 12.672,-1.152 6.528,0 11.04,1.872 13.536,5.616 2.496,3.744 3.744,10.128 3.744,19.152 C 14.256,-7.632 9.504,0 0,0 M -31.392,-90.576 V 12.384 H -15.84 V 7.92 c 6.624,4.032 12.816,6.048 18.576,6.048 9.504,0 16.464,-2.928 20.88,-8.784 4.416,-5.76 6.624,-15.504 6.624,-29.232 0,-13.632 -2.544,-23.232 -7.632,-28.8 -4.992,-5.568 -13.2,-8.352 -24.624,-8.352 -3.936,0 -8.496,0.432 -13.68,1.296 v -30.672 z"
       style="fill:#0d0d0d;fill-opacity:1;fill-rule:nonzero;stroke:none"
       transform="matrix(1.3333333,0,0,-1.3333333,802.96533,87.178667)"
       clip-path="url(#clipPath12)" />
  </g>
</svg>
