<?xml version="1.0" encoding="UTF-8" standalone="no"?>
<svg
   width="1548.15"
   height="390"
   viewBox="0 0 1548.15 390"
   fill="none"
   version="1.1"
   id="svg214"
   sodipodi:docname="Temporal_LogoLockup_Horizontal_dark 1.svg"
   inkscape:version="1.2.1 (9c6d41e, 2022-07-14)"
   xmlns:inkscape="http://www.inkscape.org/namespaces/inkscape"
   xmlns:sodipodi="http://sodipodi.sourceforge.net/DTD/sodipodi-0.dtd"
   xmlns="http://www.w3.org/2000/svg"
   xmlns:svg="http://www.w3.org/2000/svg">
  <defs
     id="defs218" />
  <sodipodi:namedview
     id="namedview216"
     pagecolor="#ffffff"
     bordercolor="#000000"
     borderopacity="0.25"
     inkscape:showpageshadow="2"
     inkscape:pageopacity="0.0"
     inkscape:pagecheckerboard="0"
     inkscape:deskcolor="#d1d1d1"
     showgrid="false"
     inkscape:zoom="0.19666667"
     inkscape:cx="788.13559"
     inkscape:cy="193.22034"
     inkscape:window-width="1309"
     inkscape:window-height="456"
     inkscape:window-x="0"
     inkscape:window-y="25"
     inkscape:window-maximized="0"
     inkscape:current-layer="svg214" />
  <path
     d="m 501,113.956 v 19.047 h 55.006 V 279.658 H 576.72 V 133.003 h 55.01 v -19.047 z"
     fill="#141414"
     id="path196" />
  <path
     d="m 636.01,219.906 c 0,36.181 23.81,61.181 60.24,61.181 27.13,0 49.05,-16.897 53.81,-41.182 H 730.3 c -4.05,15.714 -19.3,23.801 -35.48,23.801 -22.62,0 -37.62,-15.714 -38.34,-38.324 v -1.667 h 94.29 c 0.24,-2.857 0.47,-5.714 0.47,-8.333 -0.95,-35.952 -24.29,-57.618 -57.61,-57.618 -34.29,0 -57.62,24.761 -57.62,62.142 z m 21.66,-12.381 c 1.91,-19.762 18.34,-32.618 36.19,-32.618 19.28,0 34.53,11.666 36.43,32.618 z"
     fill="#141414"
     id="path198" />
  <path
     d="m 921.55,157.764 c -21.67,0 -34.76,10 -42.14,23.095 -6.91,-15.476 -21.43,-23.095 -38.34,-23.095 -18.81,0 -29.04,9.286 -35.47,18.095 l -1.66,-16.666 h -17.87 v 120.465 h 19.53 v -63.086 c 0,-24.285 12.14,-40.951 32.14,-40.951 18.57,0 29.29,12.38 29.29,36.189 v 67.848 h 19.52 V 215.62 c 0,-24.761 12.38,-39.999 32.62,-39.999 18.33,0 28.81,12.38 28.81,36.189 v 67.848 H 967.5 V 210.62 c 0,-38.332 -20.71,-52.856 -45.95,-52.856 z"
     fill="#141414"
     id="path200" />
  <path
     d="m 1064.41,157.764 c -20.48,0 -33.57,9.762 -41.67,20.952 l -1.66,-19.523 h -17.86 v 168.083 h 19.52 v -66.189 c 7.38,11.667 21.19,20 41.67,20 32.61,0 58.33,-25 58.33,-61.181 0,-39.523 -25.72,-62.142 -58.33,-62.142 z m -1.91,105.942 c -23.81,0 -40,-18.571 -40,-44.277 0,-25.951 16.19,-44.284 40,-44.284 23.09,0 40.24,18.333 40.24,44.761 0,25.467 -17.15,43.8 -40.24,43.8 z"
     fill="#141414"
     id="path202" />
  <path
     d="m 1210.65,281.087 c 35.48,0 60.24,-25.238 60.24,-61.181 0,-36.904 -24.76,-62.142 -60.24,-62.142 -35.47,0 -60.24,25.238 -60.24,62.142 0,35.943 24.77,61.181 60.24,61.181 z m 0,-17.381 c -24.05,0 -40.24,-18.809 -40.24,-43.8 0,-25.952 16.19,-44.761 40.24,-44.761 24.05,0 40.24,18.809 40.24,44.761 0,24.991 -16.19,43.8 -40.24,43.8 z"
     fill="#141414"
     id="path204" />
  <path
     d="m 1359.12,159.193 c -21.67,0 -32.88,9.047 -38.59,18.333 l -1.66,-18.333 h -17.86 v 120.465 h 19.52 v -60.943 c 0,-19.285 8.82,-40.475 34.3,-40.475 h 9.76 v -19.047 z"
     fill="#141414"
     id="path206" />
  <path
     d="m 1494.98,260.842 c -5,0 -8.1,-1.897 -8.1,-7.85 v -51.419 c 0,-28.333 -16.89,-43.809 -47.85,-43.809 -29.28,0 -48.57,14.047 -51.42,37.856 h 19.52 c 2.38,-12.38 13.81,-20.475 30.95,-20.475 19.05,0 29.28,9.523 29.28,25.237 v 8.333 h -34.75 c -31.91,0 -48.81,12.611 -48.81,36.897 0,22.142 18.09,35.475 44.76,35.475 20.95,0 32.13,-9.286 39.75,-20.238 0.24,11.905 5.72,18.809 21.91,18.809 h 10.71 v -18.816 z m -27.62,-30.706 c 0,20.237 -13.09,34.285 -37.37,34.285 -16.19,0 -26.43,-8.095 -26.43,-20 0,-13.809 9.76,-19.277 27.14,-19.277 h 36.66 z"
     fill="#141414"
     id="path208" />
  <path
     d="m 1528.63,113.956 v 165.702 h 19.52 V 113.956 Z"
     fill="#141414"
     id="path210" />
  <path
     d="M 263.375,126.625 C 254.152,57.648 230.892,0 195,0 159.208,0 135.848,57.648 126.625,126.625 57.648,135.848 0,159.108 0,195 0,230.792 57.648,254.152 126.625,263.375 135.848,332.352 159.108,390 195,390 230.792,390 254.152,332.352 263.375,263.375 332.352,254.152 390,230.892 390,195 390,159.108 332.352,135.748 263.375,126.625 Z M 124.419,243.123 C 58.35,233.599 19.751,211.743 19.751,194.9 c 0,-16.843 38.498,-38.699 104.668,-48.224 -1.504,15.941 -2.206,32.183 -2.206,48.224 0,16.041 0.702,32.383 2.206,48.223 z M 195,19.65 c 16.843,0 38.699,38.499 48.224,104.669 -15.941,-1.504 -32.183,-2.206 -48.224,-2.206 -16.041,0 -32.283,0.802 -48.224,2.206 C 156.301,58.249 178.157,19.65 195,19.65 Z m 70.581,223.473 c -3.208,0.502 -16.643,2.006 -19.951,2.407 -0.301,3.408 -1.905,16.742 -2.406,19.951 -9.525,66.069 -31.381,104.668 -48.224,104.668 -16.843,0 -38.699,-38.499 -48.224,-104.668 -0.501,-3.209 -2.005,-16.643 -2.406,-19.951 -1.504,-15.641 -2.506,-32.484 -2.506,-50.63 0,-18.147 0.902,-34.89 2.506,-50.63 15.64,-1.504 32.483,-2.507 50.63,-2.507 18.147,0 34.889,0.903 50.63,2.507 3.409,0.301 16.743,1.905 19.951,2.406 66.069,9.525 104.668,31.381 104.668,48.224 0,16.843 -38.599,38.699 -104.668,48.223 z"
     fill="#141414"
     id="path212" />
</svg>
