<svg xmlns="http://www.w3.org/2000/svg" width="300" height="120" viewBox="0 0 300 120"><rect width="100%" height="100%" fill="#DDDDDD"/><path fill="#999999" d="M68.88 54.44h2.38l-6.71 15.69q-.13.32-.34.48t-.64.16h-2.21l2.3-4.94-4.98-11.39h2.61q.35 0 .54.17.2.16.3.38l2.61 6.38q.14.33.23.65.09.33.17.66l.22-.66q.1-.33.24-.66l2.47-6.37q.09-.24.32-.4.22-.15.49-.15m9.3-.19q1.37 0 2.49.44 1.13.44 1.92 1.26.8.82 1.23 1.99.44 1.18.44 2.63 0 1.46-.44 2.64-.43 1.18-1.23 2-.79.83-1.92 1.28-1.12.44-2.49.44-1.38 0-2.5-.44-1.13-.45-1.93-1.28-.8-.82-1.24-2-.43-1.18-.43-2.64 0-1.45.43-2.63.44-1.17 1.24-1.99t1.93-1.26q1.12-.44 2.5-.44m0 10.4q1.54 0 2.28-1.03t.74-3.03q0-1.99-.74-3.03-.74-1.05-2.28-1.05-1.56 0-2.31 1.05t-.75 3.03.75 3.02 2.31 1.04m15.99-10.21h2.96v12.31h-1.81q-.59 0-.74-.54l-.21-.98q-.75.76-1.67 1.24-.91.47-2.14.47-1.01 0-1.79-.34-.77-.34-1.3-.97-.53-.62-.8-1.48t-.27-1.89v-7.82h2.97v7.82q0 1.13.52 1.75t1.57.62q.76 0 1.44-.35.67-.34 1.27-.94zm8.51.74.18 1.39q.57-1.1 1.36-1.73.8-.63 1.88-.63.85 0 1.36.37l-.19 2.22q-.06.22-.17.31-.12.09-.31.09-.18 0-.53-.06-.36-.06-.69-.06-.49 0-.88.14-.38.15-.69.42-.3.27-.54.65-.23.38-.44.88v7.58h-2.96V54.44h1.74q.46 0 .64.16t.24.58m20.35.59-.67 1.07q-.12.19-.26.27-.13.08-.33.08-.22 0-.46-.12-.25-.12-.57-.27-.33-.15-.74-.27-.42-.12-.98-.12-.88 0-1.37.37-.5.37-.5.97 0 .4.26.67.25.27.68.47t.97.37q.54.16 1.09.35.56.19 1.1.44.54.24.97.62.42.38.68.91t.26 1.27q0 .89-.32 1.64t-.94 1.29q-.62.55-1.54.86-.92.3-2.12.3-.64 0-1.24-.11-.61-.12-1.17-.32-.55-.2-1.03-.48-.47-.28-.83-.6l.68-1.13q.13-.2.31-.31t.46-.11.52.16q.25.15.57.33.33.18.76.34.44.16 1.11.16.53 0 .91-.13t.62-.33q.25-.2.36-.47.12-.27.12-.56 0-.43-.26-.71t-.68-.48q-.43-.2-.98-.37-.54-.16-1.11-.35t-1.12-.45q-.54-.26-.97-.65-.43-.4-.68-.98-.26-.57-.26-1.39 0-.75.3-1.44.3-.68.88-1.19t1.45-.82q.87-.3 2.01-.3 1.27 0 2.32.42 1.04.42 1.74 1.1m6.47 11.17q-1.61 0-2.47-.9-.86-.91-.86-2.51v-6.87h-1.26q-.24 0-.41-.16-.16-.15-.16-.47v-1.17l1.98-.33.62-3.36q.06-.24.23-.37t.43-.13h1.54v3.88h3.28v2.11h-3.28v6.67q0 .58.28.9t.77.32q.28 0 .46-.06.19-.07.33-.14t.24-.14q.11-.06.22-.06.13 0 .22.06.08.07.18.2l.88 1.44q-.64.54-1.48.82-.84.27-1.74.27m11.32-3.37v-2.08q-1.28.06-2.16.23-.87.16-1.4.41t-.76.59q-.22.33-.22.73 0 .78.46 1.12.46.33 1.2.33.92 0 1.58-.33.67-.33 1.3-1m-6.26-6.47-.53-.95q2.13-1.94 5.11-1.94 1.08 0 1.94.35.85.36 1.44.99.58.63.89 1.5.31.88.31 1.92v7.78h-1.35q-.42 0-.65-.13-.22-.12-.36-.51l-.26-.88q-.47.42-.91.73-.45.32-.93.54-.48.21-1.02.33-.55.11-1.21.11-.78 0-1.44-.21t-1.14-.63-.74-1.04q-.27-.63-.27-1.45 0-.47.16-.93.16-.47.51-.89t.92-.79q.56-.37 1.38-.65.83-.27 1.92-.45 1.09-.17 2.49-.21v-.72q0-1.23-.52-1.83-.53-.59-1.53-.59-.72 0-1.19.17-.48.17-.84.38t-.65.37q-.29.17-.65.17-.32 0-.53-.16-.22-.16-.35-.38m14.56-1.92.18 1.39q.57-1.1 1.36-1.73.8-.63 1.88-.63.85 0 1.36.37l-.19 2.22q-.06.22-.17.31-.12.09-.31.09-.18 0-.53-.06-.36-.06-.69-.06-.49 0-.88.14-.38.15-.69.42-.3.27-.54.65-.23.38-.44.88v7.58h-2.96V54.44h1.74q.46 0 .64.16t.24.58m10.44 11.76q-1.61 0-2.47-.9-.86-.91-.86-2.51v-6.87h-1.26q-.24 0-.41-.16-.16-.15-.16-.47v-1.17l1.98-.33.62-3.36q.06-.24.23-.37t.43-.13h1.54v3.88h3.28v2.11h-3.28v6.67q0 .58.28.9t.77.32q.28 0 .46-.06.19-.07.33-.14t.24-.14q.11-.06.22-.06.13 0 .22.06.08.07.18.2l.88 1.44q-.64.54-1.48.82-.84.27-1.74.27m12.46-12.5h2.97v12.31h-1.81q-.59 0-.75-.54l-.2-.98q-.76.76-1.67 1.24-.91.47-2.15.47-1.01 0-1.78-.34t-1.3-.97q-.53-.62-.8-1.48t-.27-1.89v-7.82h2.96v7.82q0 1.13.53 1.75.52.62 1.56.62.77 0 1.44-.35.67-.34 1.27-.94zm8.86 3.6v5.52q.5.61 1.1.86.59.25 1.29.25.67 0 1.21-.25t.92-.77q.38-.51.58-1.3.2-.78.2-1.85 0-1.08-.17-1.83t-.5-1.22q-.32-.47-.78-.68-.47-.22-1.05-.22-.93 0-1.58.39-.64.39-1.22 1.1m-.4-3.06.24 1.14q.76-.85 1.72-1.38t2.26-.53q1 0 1.84.42.83.42 1.44 1.22.6.8.93 1.97t.33 2.68q0 1.38-.37 2.55-.37 1.18-1.06 2.04-.69.87-1.67 1.35-.98.49-2.19.49-1.03 0-1.76-.32t-1.31-.88v5.04h-2.96V54.44h1.81q.57 0 .75.54m16.94-6.06h2.96v17.83h-2.96zm11.37 5.33q1.37 0 2.49.44t1.92 1.26 1.23 1.99q.43 1.18.43 2.63 0 1.46-.43 2.64t-1.23 2q-.8.83-1.92 1.28-1.12.44-2.49.44-1.38 0-2.51-.44-1.12-.45-1.92-1.28-.8-.82-1.24-2t-.44-2.64q0-1.45.44-2.63.44-1.17 1.24-1.99t1.92-1.26q1.13-.44 2.51-.44m0 10.4q1.54 0 2.28-1.03.73-1.03.73-3.03 0-1.99-.73-3.03-.74-1.05-2.28-1.05-1.56 0-2.31 1.05t-.75 3.03.75 3.02 2.31 1.04m12.84-4.36q.55 0 .96-.15t.68-.41.41-.64q.14-.37.14-.81 0-.91-.55-1.45-.55-.53-1.64-.53t-1.64.53q-.54.54-.54 1.45 0 .43.14.8.13.37.4.64t.69.42q.41.15.95.15m3.35 7.01q0-.36-.22-.59-.21-.22-.58-.35-.38-.13-.87-.19-.5-.06-1.06-.09t-1.15-.05q-.6-.02-1.16-.1-.49.28-.8.65-.3.37-.3.87 0 .32.16.6t.51.49q.36.2.92.32.57.11 1.38.11.83 0 1.43-.13.6-.12.99-.34.39-.23.57-.53.18-.31.18-.67m-.59-12.44h3.54v1.1q0 .53-.63.65l-1.11.2q.25.64.25 1.4 0 .91-.36 1.65-.37.73-1.02 1.25-.64.52-1.53.8-.88.28-1.9.28-.36 0-.69-.04-.34-.03-.66-.09-.58.35-.58.78 0 .37.34.54.34.18.91.25.56.07 1.28.09t1.48.08q.75.06 1.47.21t1.29.47q.56.33.9.88.35.56.35 1.44 0 .81-.41 1.58-.4.77-1.16 1.37t-1.87.97q-1.11.36-2.53.36-1.39 0-2.42-.27t-1.72-.72q-.68-.45-1.02-1.04-.33-.58-.33-1.22 0-.86.52-1.45.52-.58 1.43-.93-.49-.25-.78-.67t-.29-1.1q0-.28.11-.57.1-.3.3-.58.19-.29.49-.55t.71-.46q-.93-.51-1.47-1.35-.53-.84-.53-1.96 0-.92.36-1.65.37-.74 1.02-1.26.66-.53 1.55-.8.9-.28 1.95-.28.79 0 1.49.16.7.17 1.27.48m10.86-.61q1.37 0 2.49.44t1.92 1.26 1.23 1.99q.43 1.18.43 2.63 0 1.46-.43 2.64t-1.23 2q-.8.83-1.92 1.28-1.12.44-2.49.44-1.38 0-2.51-.44-1.12-.45-1.92-1.28-.8-.82-1.24-2t-.44-2.64q0-1.45.44-2.63.44-1.17 1.24-1.99t1.92-1.26q1.13-.44 2.51-.44m0 10.4q1.54 0 2.28-1.03.73-1.03.73-3.03 0-1.99-.73-3.03-.74-1.05-2.28-1.05-1.56 0-2.31 1.05t-.75 3.03.75 3.02 2.31 1.04"/></svg>