<?xml version="1.0" encoding="UTF-8" standalone="no"?>
<svg
   version="1.1"
   id="svg2"
   xml:space="preserve"
   width="403.09906"
   height="162.45734"
   viewBox="0 0 403.09906 162.45733"
   sodipodi:docname="bloomberg.svg"
   inkscape:version="1.2 (dc2aeda, 2022-05-15)"
   xmlns:inkscape="http://www.inkscape.org/namespaces/inkscape"
   xmlns:sodipodi="http://sodipodi.sourceforge.net/DTD/sodipodi-0.dtd"
   xmlns="http://www.w3.org/2000/svg"
   xmlns:svg="http://www.w3.org/2000/svg"
   xmlns:rdf="http://www.w3.org/1999/02/22-rdf-syntax-ns#"
   xmlns:cc="http://creativecommons.org/ns#"
   xmlns:dc="http://purl.org/dc/elements/1.1/"><metadata
     id="metadata8"><rdf:RDF><cc:Work
         rdf:about=""><dc:format>image/svg+xml</dc:format><dc:type
           rdf:resource="http://purl.org/dc/dcmitype/StillImage" /></cc:Work></rdf:RDF></metadata><defs
     id="defs6"><clipPath
       clipPathUnits="userSpaceOnUse"
       id="clipPath24"><path
         d="m 695.117,1235.55 h 3046.61 v 635.684 H 695.117 Z"
         id="path22" /></clipPath></defs><sodipodi:namedview
     pagecolor="#ffffff"
     bordercolor="#666666"
     borderopacity="1"
     objecttolerance="10"
     gridtolerance="10"
     guidetolerance="10"
     inkscape:pageopacity="0"
     inkscape:pageshadow="2"
     inkscape:window-width="1577"
     inkscape:window-height="888"
     id="namedview4"
     inkscape:showpageshadow="2"
     inkscape:pagecheckerboard="0"
     inkscape:deskcolor="#d1d1d1"
     showgrid="false"
     inkscape:zoom="1.2912165"
     inkscape:cx="243.56875"
     inkscape:cy="83.642051"
     inkscape:window-x="0"
     inkscape:window-y="0"
     inkscape:window-maximized="0"
     inkscape:current-layer="g12" /><g
     id="g10"
     inkscape:groupmode="layer"
     inkscape:label="ink_ext_XXXXXX"
     transform="matrix(1.3333333,0,0,-1.3333333,-92.682264,249.48133)"><g
       id="g12"
       transform="scale(0.1)"><g
         id="g18"><g
           id="g20"
           clip-path="url(#clipPath24)"><path
             d="m 775.266,1610.43 h 76.414 c 64.41,0 94.734,-16.39 94.734,-63.14 0,-58.74 -56.844,-65.69 -97.898,-65.69 h -73.25 z M 695.68,1413.39 h 161.05 c 84.622,0 169.26,30.31 169.26,127.59 0,57.45 -40.42,101.68 -96.635,107.97 v 1.29 c 46.098,13.88 77.685,47.33 77.685,97.88 0,81.47 -69.481,112.41 -137.052,112.41 H 695.68 Z m 79.586,378.93 h 65.672 c 60.007,0 86.527,-18.94 86.527,-57.46 0,-33.48 -26.52,-56.22 -79.574,-56.22 h -72.625 v 113.68"
             style="fill:#100f0d;fill-opacity:1;fill-rule:nonzero;stroke:none"
             id="path26" /><path
             d="m 1077.94,1871.11 h 75.78 v -457.72 h -75.78 v 457.72"
             style="fill:#100f0d;fill-opacity:1;fill-rule:nonzero;stroke:none"
             id="path28" /><path
             d="m 1204.39,1564.97 c 0,-95.38 73.26,-159.16 164.86,-159.16 91.55,0 164.81,63.78 164.81,159.16 0,95.36 -73.26,159.15 -164.81,159.15 -91.6,0 -164.86,-63.79 -164.86,-159.15 z m 75.79,0 c 0,47.37 33.47,90.94 89.07,90.94 55.56,0 89.03,-43.57 89.03,-90.94 0,-20.1759 -6.0692,-39.661 -17.3289,-55.385 -15.182,-21.2013 -39.8003,-35.565 -71.7011,-35.565 -55.6,0 -89.07,43.57 -89.07,90.95"
             style="fill:#100f0d;fill-opacity:1;fill-rule:nonzero;stroke:none"
             id="path30"
             sodipodi:nodetypes="ssssscssssc" /><path
             d="m 1568.32,1564.97 c 0,-95.38 73.26,-159.16 164.84,-159.16 91.56,0 164.82,63.78 164.82,159.16 0,95.36 -73.26,159.15 -164.82,159.15 -91.58,0 -164.84,-63.79 -164.84,-159.15 z m 75.78,0 c 0,47.37 33.49,90.94 89.06,90.94 55.57,0 89.04,-43.57 89.04,-90.94 0,-47.38 -33.47,-90.95 -89.04,-90.95 -55.57,0 -89.06,43.57 -89.06,90.95"
             style="fill:#100f0d;fill-opacity:1;fill-rule:nonzero;stroke:none"
             id="path32" /><path
             d="m 1944.25,1716.55 h 71.98 v -47.37 h 1.26 c 13.28,28.39 42.33,54.94 92.85,54.94 46.74,0 78.95,-18.32 94.73,-56.22 22.11,38.55 54.3,56.22 99.78,56.22 80.84,0 109.25,-57.47 109.25,-130.08 v -180.65 h -75.78 v 171.78 c 0,37.9 -11.36,70.74 -56.19,70.74 -47.38,0 -65.07,-39.16 -65.07,-78.29 v -164.23 h -75.77 v 180.65 c 0,37.24 -15.17,61.87 -51.8,61.87 -49.88,0 -69.45,-36.64 -69.45,-77.06 v -165.46 h -75.79 v 303.16"
             style="fill:#100f0d;fill-opacity:1;fill-rule:nonzero;stroke:none"
             id="path34" /><path
             d="m 2475.53,1413.39 h 72 v 45.47 h 1.26 c 22.12,-36.61 61.89,-53.05 104.22,-53.05 93.45,0 149.66,69.48 149.66,159.16 0,89.66 -60,159.15 -146.51,159.15 -56.84,0 -87.16,-26.55 -102.94,-46.1 h -1.9 v 193.09 h -75.79 z m 251.36,151.58 c 0,-47.38 -33.48,-90.95 -89.05,-90.95 -55.56,0 -89.05,43.57 -89.05,90.95 0,47.37 33.49,90.94 89.05,90.94 55.57,0 89.05,-43.57 89.05,-90.94"
             style="fill:#100f0d;fill-opacity:1;fill-rule:nonzero;stroke:none"
             id="path36" /><path
             d="m 3143.86,1538.46 v 20.81 c 0,105.45 -57.46,164.85 -142.1,164.85 -91.57,0 -164.84,-63.79 -164.84,-159.15 0,-95.38 73.27,-159.16 164.84,-159.16 48,0 92.83,17.08 128.2,60.64 l -54.3,41.03 c -18.93,-23.36 -43.58,-41.03 -81.46,-41.03 -42.32,0 -76.43,27.13 -81.49,72.01 z m -231.15,56.81 c 5.7,43.59 33.48,72 78.33,72 47.35,0 76.41,-27.77 77.03,-72 h -155.36"
             style="fill:#100f0d;fill-opacity:1;fill-rule:nonzero;stroke:none"
             id="path38" /><path
             d="m 3193.29,1716.55 h 75.76 v -48.01 h 1.29 c 16.41,34.73 49.87,55.58 89.67,55.58 9.48,0 18.32,-1.91 27.14,-4.42 v -73.27 c -12.63,3.17 -24.63,5.68 -36.61,5.68 -71.37,0 -81.49,-60 -81.49,-76.42 v -162.3 h -75.76 v 303.16"
             style="fill:#100f0d;fill-opacity:1;fill-rule:nonzero;stroke:none"
             id="path40" /><path
             d="m 3646.37,1716.55 v -45.5 h -1.26 c -22.11,36.65 -61.9,53.07 -104.22,53.07 -93.47,0 -149.66,-69.49 -149.66,-159.15 0,-85.88 59.99,-155.38 150.92,-155.38 37.89,0 77.05,14.53 99.17,44.21 h 1.25 v -22.11 c 0,-60 -22.74,-101.65 -95.98,-101.65 -42.33,0 -73.89,15.77 -104.22,43.58 l -45.48,-61.91 c 42.96,-37.91 94.11,-49.88 150.33,-49.88 118.09,0 171.14,69.46 171.14,178.71 v 276.01 z m -89.69,-60.64 c 54.96,0 89.69,-36.64 89.69,-89.03 0,-50.57 -34.1,-89.08 -90.32,-89.08 -51.16,0 -89.04,39.79 -89.04,87.79 0,53.68 36.63,90.32 89.67,90.32"
             style="fill:#100f0d;fill-opacity:1;fill-rule:nonzero;stroke:none"
             id="path42" /></g></g><path
         d="M 695.117,977.941 V 652.68 H 2288.33 V 977.941 H 695.117"
         style="fill:#000000;fill-opacity:1;fill-rule:nonzero;stroke:none"
         id="path44" /><path
         d="m 871.945,724.941 v 20.168 h -82.144 v 71.821 h 78.086 v 20.039 h -78.086 v 56.941 h 82.144 v 19.922 H 765.82 V 724.941 Z m 132.965,0 v 95.918 c 0,16.321 -3.63,28.68 -10.887,37.082 -7.253,8.399 -17.972,12.61 -32.156,12.61 -7.051,0 -13.875,-1.129 -20.472,-3.391 -6.602,-2.25 -13.223,-6.328 -19.864,-12.23 l -3.32,11.8 h -20.66 V 724.941 h 23.488 v 112.028 c 6.149,4.429 11.887,7.73 17.219,9.902 5.328,2.168 10.902,3.258 16.722,3.258 9.594,0 16.438,-2.289 20.54,-6.879 4.097,-4.602 6.148,-13 6.148,-25.211 v -93.098 z m 140.55,141.789 h -20.66 l -2.82,-10.332 c -5.66,4.684 -11.4,8.204 -17.22,10.582 -5.82,2.379 -12.34,3.571 -19.55,3.571 -15.5,0 -28.35,-6.262 -38.56,-18.762 -10.2,-12.5 -15.31,-29.449 -15.31,-50.848 0,-22.461 4.72,-39.582 14.15,-51.339 9.42,-11.762 22.33,-17.653 38.73,-17.653 8.04,0 15.44,1.68 22.2,5.051 6.76,3.359 12.03,6.961 15.8,10.82 v -6.769 c 0,-17.129 -3.83,-28.871 -11.5,-35.231 -7.66,-6.351 -18.67,-9.531 -33.01,-9.531 -7.71,0 -14.41,0.941 -20.11,2.832 -5.7,1.891 -10.35,4.02 -13.96,6.391 h -5.53 v -22.133 c 6.64,-1.797 12.95,-3.219 18.94,-4.238 5.98,-1.032 11.92,-1.539 17.83,-1.539 22.46,0 39.86,5.699 52.2,17.089 12.34,11.399 18.46,29.719 18.38,54.969 z m -23.24,-102.191 c -3.85,-3.437 -8.48,-6.5 -13.89,-9.16 -5.42,-2.66 -11.69,-4 -18.82,-4 -11.23,0 -19.8,4.019 -25.7,12.062 -5.9,8.028 -8.86,20.528 -8.86,37.5 0,16.559 3.12,28.938 9.35,37.141 6.23,8.199 14.96,12.297 26.19,12.297 5.58,0 10.87,-1.008 15.87,-3.02 5,-2.007 10.29,-5.019 15.86,-9.027 z m 142.43,-39.598 v 18.45 h -29.27 V 866.73 h -51.9 v -18.32 h 28.78 V 743.391 h -34.56 v -18.45 z m -30.26,173.52 v 31.238 h -28.16 v -31.238 z m 169.52,-173.52 v 95.918 c 0,16.321 -3.63,28.68 -10.89,37.082 -7.25,8.399 -17.97,12.61 -32.15,12.61 -7.06,0 -13.88,-1.129 -20.48,-3.391 -6.6,-2.25 -13.22,-6.328 -19.86,-12.23 l -3.32,11.8 h -20.66 V 724.941 h 23.49 v 112.028 c 6.15,4.429 11.89,7.73 17.22,9.902 5.32,2.168 10.9,3.258 16.72,3.258 9.59,0 16.44,-2.289 20.54,-6.879 4.09,-4.602 6.15,-13 6.15,-25.211 v -93.098 z m 145.63,67.52 v 15.121 c 0,19.188 -4.72,34.477 -14.15,45.867 -9.42,11.403 -23.28,17.102 -41.56,17.102 -18.45,0 -33.51,-6.602 -45.19,-19.801 -11.69,-13.199 -17.53,-31.98 -17.53,-56.328 0,-24.922 6.48,-43.32 19.43,-55.211 12.96,-11.891 29.64,-17.832 50.05,-17.832 7.87,0 15.78,0.883 23.74,2.641 7.95,1.761 15.94,4.332 23.98,7.691 v 21.398 h -5.91 c -3.93,-3.121 -9.53,-5.91 -16.78,-8.371 -7.26,-2.457 -14.74,-3.687 -22.44,-3.687 -14.52,0 -26.24,4.25 -35.17,12.73 -8.94,8.489 -13.41,21.379 -13.41,38.68 z m -94.69,17.34 c 0.73,11.969 4.32,21.89 10.76,29.758 6.43,7.871 15.68,11.8 27.73,11.8 12.21,0 20.9,-3.89 26.07,-11.679 5.16,-7.789 7.75,-17.75 7.75,-29.879 z m 235.62,-17.34 v 15.121 c 0,19.188 -4.72,34.477 -14.14,45.867 -9.43,11.403 -23.29,17.102 -41.57,17.102 -18.44,0 -33.51,-6.602 -45.19,-19.801 -11.68,-13.199 -17.52,-31.98 -17.52,-56.328 0,-24.922 6.47,-43.32 19.43,-55.211 12.95,-11.891 29.63,-17.832 50.05,-17.832 7.87,0 15.78,0.883 23.73,2.641 7.95,1.761 15.94,4.332 23.98,7.691 v 21.398 h -5.9 c -3.94,-3.121 -9.53,-5.91 -16.79,-8.371 -7.25,-2.457 -14.74,-3.687 -22.44,-3.687 -14.51,0 -26.24,4.25 -35.17,12.73 -8.94,8.489 -13.41,21.379 -13.41,38.68 z m -94.69,17.34 c 0.74,11.969 4.32,21.89 10.76,29.758 6.44,7.871 15.68,11.8 27.73,11.8 12.22,0 20.91,-3.89 26.07,-11.679 5.17,-7.789 7.75,-17.75 7.75,-29.879 z m 234.63,33.32 v 23.609 c -3.44,1.149 -7.36,2.071 -11.74,2.77 -4.39,0.699 -9.37,1.051 -14.94,1.051 -3.45,0 -7.01,-0.832 -10.7,-2.461 -3.69,-1.649 -7.38,-3.801 -11.07,-6.461 -3.69,-2.668 -7.34,-5.699 -10.94,-9.098 -3.61,-3.402 -7.01,-6.91 -10.21,-10.511 l -3.2,24.71 h -41.56 v -18.32 h 21.89 V 743.391 h -21.89 v -18.45 h 73.29 v 18.45 h -28.29 v 79.808 c 2.63,2.621 5.43,5.449 8.43,8.492 2.99,3.028 6.19,5.84 9.59,8.418 3.4,2.582 7.01,4.731 10.82,6.461 3.81,1.719 7.89,2.578 12.24,2.578 3.11,0 5.78,-0.207 7.99,-0.617 2.21,-0.41 4.16,-0.902 5.84,-1.472 1.68,-0.579 3.16,-1.207 4.43,-1.911 1.27,-0.699 2.48,-1.367 3.63,-2.027 z m 111.35,-118.18 v 18.45 h -29.27 V 866.73 h -51.9 v -18.32 h 28.78 V 743.391 h -34.55 v -18.45 z m -30.25,173.52 v 31.238 h -28.16 v -31.238 z m 169.51,-173.52 v 95.918 c 0,16.321 -3.63,28.68 -10.88,37.082 -7.26,8.399 -17.98,12.61 -32.16,12.61 -7.05,0 -13.88,-1.129 -20.48,-3.391 -6.6,-2.25 -13.22,-6.328 -19.86,-12.23 l -3.32,11.8 h -20.66 V 724.941 h 23.49 v 112.028 c 6.15,4.429 11.89,7.73 17.22,9.902 5.33,2.168 10.9,3.258 16.72,3.258 9.59,0 16.44,-2.289 20.54,-6.879 4.1,-4.602 6.15,-13 6.15,-25.211 v -93.098 z m 140.55,141.789 h -20.66 l -2.82,-10.332 c -5.66,4.684 -11.4,8.204 -17.22,10.582 -5.82,2.379 -12.34,3.571 -19.55,3.571 -15.5,0 -28.35,-6.262 -38.56,-18.762 -10.2,-12.5 -15.31,-29.449 -15.31,-50.848 0,-22.461 4.72,-39.582 14.15,-51.339 9.42,-11.762 22.34,-17.653 38.73,-17.653 8.04,0 15.44,1.68 22.2,5.051 6.76,3.359 12.03,6.961 15.8,10.82 v -6.769 c 0,-17.129 -3.83,-28.871 -11.5,-35.231 -7.66,-6.351 -18.67,-9.531 -33.01,-9.531 -7.71,0 -14.41,0.941 -20.11,2.832 -5.7,1.891 -10.35,4.02 -13.96,6.391 h -5.53 v -22.133 c 6.64,-1.797 12.95,-3.219 18.94,-4.238 5.98,-1.032 11.92,-1.539 17.83,-1.539 22.46,0 39.86,5.699 52.2,17.089 12.34,11.399 18.46,29.719 18.38,54.969 z m -23.24,-102.191 c -3.85,-3.437 -8.48,-6.5 -13.89,-9.16 -5.42,-2.66 -11.69,-4 -18.82,-4 -11.23,0 -19.8,4.019 -25.7,12.062 -5.9,8.028 -8.86,20.528 -8.86,37.5 0,16.559 3.12,28.938 9.35,37.141 6.23,8.199 14.96,12.297 26.19,12.297 5.58,0 10.87,-1.008 15.87,-3.02 5,-2.007 10.29,-5.019 15.86,-9.027 v -73.793"
         style="fill:#ffffff;fill-opacity:1;fill-rule:nonzero;stroke:none"
         id="path46" /></g></g></svg>
