<?xml version="1.0" encoding="UTF-8" standalone="no"?>
<svg
   xmlns:dc="http://purl.org/dc/elements/1.1/"
   xmlns:cc="http://creativecommons.org/ns#"
   xmlns:rdf="http://www.w3.org/1999/02/22-rdf-syntax-ns#"
   xmlns:svg="http://www.w3.org/2000/svg"
   xmlns="http://www.w3.org/2000/svg"
   xmlns:sodipodi="http://sodipodi.sourceforge.net/DTD/sodipodi-0.dtd"
   xmlns:inkscape="http://www.inkscape.org/namespaces/inkscape"
   version="1.1"
   id="svg2"
   xml:space="preserve"
   width="192"
   height="149.42667"
   viewBox="0 0 192 149.42667"
   sodipodi:docname="Vertical Combination Mark - Full Color Light (1).eps"><metadata
     id="metadata8"><rdf:RDF><cc:Work
         rdf:about=""><dc:format>image/svg+xml</dc:format><dc:type
           rdf:resource="http://purl.org/dc/dcmitype/StillImage" /></cc:Work></rdf:RDF></metadata><defs
     id="defs6" /><sodipodi:namedview
     pagecolor="#ffffff"
     bordercolor="#666666"
     borderopacity="1"
     objecttolerance="10"
     gridtolerance="10"
     guidetolerance="10"
     inkscape:pageopacity="0"
     inkscape:pageshadow="2"
     inkscape:window-width="640"
     inkscape:window-height="480"
     id="namedview4" /><g
     id="g10"
     inkscape:groupmode="layer"
     inkscape:label="ink_ext_XXXXXX"
     transform="matrix(1.3333333,0,0,-1.3333333,0,149.42667)"><g
       id="g12"
       transform="scale(0.1)"><path
         d="M 1425.94,512.703 1208.03,294.789 c -9,-9.004 -21.21,-14.059 -33.94,-14.059 L 24,280.73 c -13.2539,0 -24,10.747 -24,24 v 550.086 c 0,12.731 5.05859,24.942 14.0586,33.942 L 231.973,1106.67 c 9,9 21.211,14.06 33.937,14.06 H 1416 c 13.25,0 24,-10.75 24,-24 V 546.645 c 0,-12.735 -5.06,-24.942 -14.06,-33.942"
         style="fill:#f79029;fill-opacity:1;fill-rule:evenodd;stroke:none"
         id="path14" /><path
         d="m 531.602,520.73 h -73.204 c -4.636,0 -8.398,3.762 -8.398,8.399 v 118.199 c 0,4.641 -3.762,8.402 -8.398,8.402 H 338.398 c -4.636,0 -8.398,-3.761 -8.398,-8.402 V 529.129 c 0,-4.637 -3.762,-8.399 -8.398,-8.399 h -73.204 c -4.636,0 -8.398,3.762 -8.398,8.399 v 343.199 c 0,4.641 3.762,8.402 8.398,8.402 h 73.204 c 4.636,0 8.398,-3.761 8.398,-8.402 V 754.129 c 0,-4.637 3.762,-8.399 8.398,-8.399 h 103.204 c 4.636,0 8.398,3.762 8.398,8.399 v 118.199 c 0,4.641 3.762,8.402 8.398,8.402 h 73.204 c 4.636,0 8.398,-3.761 8.398,-8.402 V 529.129 c 0,-4.637 -3.762,-8.399 -8.398,-8.399 z M 810,797.93 H 690 v -90 h 120 z m 96.137,-277.114 h -81.75 c -2.746,0 -5.489,0.77 -8.227,2.313 -2.75,1.543 -4.805,3.512 -6.172,5.91 l -54.5,94.672 c -0.687,1.367 -1.886,2.055 -3.597,2.055 h -59.383 c -1.723,0 -2.574,-0.86 -2.574,-2.571 v -92.613 c 0,-6.512 -3.258,-9.766 -9.766,-9.766 h -70.355 c -6.516,0 -9.77,3.254 -9.77,9.766 v 340.305 c 0,6.508 3.254,9.769 9.77,9.769 h 230 c 8.222,0 16.015,-1.633 23.39,-4.886 7.367,-3.258 13.707,-7.54 19.027,-12.848 5.309,-5.32 9.59,-11.656 12.852,-19.024 3.254,-7.371 4.887,-15.164 4.887,-23.386 V 685.313 c 0,-13.028 -3.86,-24.762 -11.571,-35.211 -7.71,-10.457 -17.57,-17.567 -29.562,-21.336 l -1.543,-0.512 c -2.402,-0.691 -2.918,-1.719 -1.543,-3.086 l 0.516,-1.027 55.011,-95.102 c 1.368,-2.398 1.543,-4.367 0.516,-5.91 -1.027,-1.543 -2.918,-2.313 -5.656,-2.313 z M 1221.6,790.73 h -81 c -4.64,0 -8.4,-3.761 -8.4,-8.402 V 529.129 c 0,-4.637 -3.76,-8.399 -8.4,-8.399 h -73.2 c -4.64,0 -8.4,3.762 -8.4,8.399 v 253.199 c 0,4.641 -3.76,8.402 -8.4,8.402 h -80.402 c -4.636,0 -8.398,3.762 -8.398,8.399 v 73.199 c 0,4.641 3.762,8.402 8.398,8.402 H 1221.6 c 4.64,0 8.4,-3.761 8.4,-8.402 v -73.199 c 0,-4.637 -3.76,-8.399 -8.4,-8.399"
         style="fill:#ffffff;fill-opacity:1;fill-rule:evenodd;stroke:none"
         id="path16" /><path
         d="m 1253.82,44.4805 h -18.94 v 81.4175 h 18.94 z m -608.523,0 h -18.938 v 81.4175 h 18.938 z M 51.0977,92.6289 c 0,4.8399 0,10.0621 -3.6719,14.1211 -2.125,2.32 -5.7969,4.262 -10.6289,4.262 -6.375,0 -11.3985,-3.102 -13.9141,-6.774 -2.7031,-3.867 -3.8633,-10.0583 -3.8633,-20.4997 V 44.4805 H 0.0820313 V 158.945 H 19.0195 v -40.004 c 8.1172,8.313 17.0078,9.082 21.836,9.082 14.8828,0 21.6445,-7.734 23.9648,-11.023 5.0235,-7.352 5.2149,-16.82 5.2149,-22.6211 V 44.4805 H 51.0977 Z m 72.6293,-50.668 c -8.309,0 -18.356,2.5196 -25.6997,10.0586 -7.539,7.5391 -8.6992,16.25 -8.6992,26.6914 V 125.898 H 108.266 V 79.2891 c 0,-4.8399 0.195,-10.4375 3.48,-14.6993 2.512,-3.289 6.957,-5.6093 12.367,-5.6093 5.41,0 9.856,2.3203 12.367,5.6093 3.286,4.2618 3.481,9.8594 3.481,14.6993 v 46.6089 h 18.937 V 78.7109 c 0,-10.4414 -1.16,-19.1523 -8.695,-26.6914 -7.344,-7.3476 -17.394,-10.0586 -26.476,-10.0586 z m 91.347,69.0511 c -13.722,0 -22.609,-11.6136 -22.609,-26.1136 0,-14.1171 8.887,-25.9179 22.609,-25.9179 11.981,0 22.996,8.7109 22.996,25.7187 0,17.8008 -11.015,26.3128 -22.996,26.3128 z M 236.91,52.9883 c -8.308,-9.668 -18.551,-11.0274 -24.347,-11.0274 -25.122,0 -39.426,20.8907 -39.426,43.3282 0,26.4919 18.168,42.7339 39.617,42.7339 5.992,0 16.426,-1.546 24.156,-11.601 v 42.523 h 18.938 V 44.4805 H 236.91 Z m 60.235,44.0898 9.66,-4.8281 c 4.254,-2.1289 8.312,-4.2617 11.402,-7.5508 4.445,-4.4375 5.992,-9.4687 5.992,-15.0781 0,-7.3516 -2.707,-13.7305 -7.152,-18.5625 -6.375,-6.9688 -14.297,-9.0977 -22.801,-9.0977 -5.219,0 -11.789,0.7774 -17.586,5.2305 -4.637,3.4805 -8.504,9.0899 -10.437,14.8867 l 15.461,7.3516 c 0.968,-2.7109 2.707,-6.1914 4.445,-7.7383 1.16,-1.1601 3.863,-3.0898 8.309,-3.0898 2.902,0 5.992,0.957 7.73,2.6992 1.547,1.5508 2.707,4.0703 2.707,6.3906 0,2.3203 -0.773,4.25 -2.512,6.1875 -2.32,2.3125 -5.023,3.6719 -8.117,5.0195 l -6.957,3.293 c -3.672,1.7383 -8.117,3.8672 -11.211,6.957 -4.25,4.0625 -5.797,8.5118 -5.797,13.7306 0,6.582 2.516,12.961 6.766,17.41 3.672,3.867 9.855,7.734 19.902,7.734 5.801,0 10.438,-1.16 15.074,-4.253 2.707,-1.739 6.379,-4.829 9.278,-10.059 l -14.106,-9.281 c -1.933,3.101 -5.605,6.961 -11.597,6.961 -2.703,0 -4.637,-0.961 -5.797,-2.121 -0.965,-0.969 -1.738,-2.52 -1.738,-4.258 0,-2.133 0.964,-3.481 2.703,-4.641 1.16,-0.7694 2.32,-1.1601 6.379,-3.2929 z m 80.359,13.9339 c -11.981,0 -24.156,-7.551 -24.156,-26.1136 0,-15.6679 9.273,-25.9179 24.156,-25.9179 14.879,0 24.156,10.25 24.156,25.9179 0,18.5626 -12.176,26.1136 -24.156,26.1136 z m 0,-69.0511 c -24.543,0 -43.481,18.1797 -43.481,43.1289 0,25.1402 18.938,42.9332 43.481,42.9332 24.543,0 43.48,-17.793 43.48,-42.9332 0,-24.9492 -18.937,-43.1289 -43.48,-43.1289 z m 108.695,47.7696 c 0,20.6995 -7.726,21.2815 -14.879,21.2815 -8.5,0 -17.199,-1.16 -17.199,-27.4612 V 44.4805 h -18.937 v 81.4175 h 18.937 v -7.546 c 8.117,9.093 17.395,9.671 22.031,9.671 15.075,0 21.45,-7.543 23.965,-11.023 3.09,-4.449 5.024,-10.059 5.024,-22.6211 V 44.4805 h -18.942 z m 113,20.1215 c -4.062,0 -8.121,-0.582 -11.789,-4.454 -5.219,-5.6089 -5.219,-13.3472 -5.219,-18.7574 V 44.4805 h -18.937 v 81.4175 h 18.937 v -7.347 c 2.125,2.512 5.219,5.219 7.922,6.765 3.672,2.129 7.344,2.707 11.598,2.707 4.637,0 9.66,-0.769 14.879,-3.867 l -7.731,-17.215 c -4.254,2.707 -7.73,2.911 -9.66,2.911 z m 36.629,26.593 c -6.957,0 -12.176,5.223 -12.176,12.184 0,6.961 5.219,12.184 12.176,12.184 6.957,0 12.176,-5.223 12.176,-12.184 0,-6.961 -5.219,-12.184 -12.176,-12.184 z m 18.996,-10.547 h 21.262 l 20.867,-46.4175 20.871,46.4175 h 21.258 L 696.953,38.6797 Z M 797.383,96.1211 c -0.774,4.4379 -2.899,8.3089 -5.797,11.0199 -2.512,2.32 -6.57,4.64 -12.754,4.64 -6.57,0 -10.824,-2.711 -13.336,-5.222 -2.703,-2.52 -4.828,-6.379 -5.797,-10.4379 z M 765.305,64.2109 c 4.445,-4.4492 9.855,-5.2304 14.492,-5.2304 5.219,0 9.082,1.1601 12.949,4.0586 3.285,2.5195 5.797,5.8125 7.535,8.9023 l 15.848,-8.9023 c -3.481,-6.1797 -8.504,-11.5977 -13.723,-14.8907 -6.57,-4.25 -15.265,-6.1875 -23.961,-6.1875 -10.82,0 -19.711,2.711 -27.441,10.4493 -7.731,7.7304 -11.981,18.9492 -11.981,31.1406 0,12.5703 4.446,24.7502 12.946,33.4492 6.765,6.77 15.656,11.023 27.25,11.023 12.945,0 21.258,-5.605 26.086,-10.632 10.437,-10.832 11.402,-25.9222 11.402,-34.4222 v -2.3282 h -58.359 c 0.386,-5.8008 2.898,-12.3711 6.957,-16.4297 z m 101.933,45.6411 c -4.058,0 -8.117,-0.582 -11.789,-4.454 C 850.23,99.7891 850.23,92.0508 850.23,86.6406 V 44.4805 h -18.937 v 81.4175 h 18.937 v -7.347 c 2.125,2.512 5.219,5.219 7.926,6.765 3.672,2.129 7.344,2.707 11.594,2.707 4.641,0 9.664,-0.769 14.879,-3.867 l -7.731,-17.215 c -4.25,2.707 -7.73,2.911 -9.66,2.911 z m 84.61,-65.3715 H 932.91 v 64.0075 h -14.156 v 17.41 h 14.156 v 33.293 h 18.938 v -33.293 h 14.492 v -17.41 h -14.492 z m 66.482,65.3715 c -4.06,0 -8.11,-0.582 -11.79,-4.454 -5.21,-5.6089 -5.21,-13.3472 -5.21,-18.7574 V 44.4805 h -18.939 v 81.4175 h 18.939 v -7.347 c 2.12,2.512 5.21,5.219 7.92,6.765 3.67,2.129 7.34,2.707 11.6,2.707 4.63,0 9.66,-0.769 14.88,-3.867 l -7.74,-17.215 c -4.25,2.707 -7.73,2.911 -9.66,2.911 z m 59.29,1.16 c -13.72,0 -22.61,-11.6136 -22.61,-26.1136 0,-14.1171 8.89,-25.9179 22.61,-25.9179 11.98,0 23,8.7109 23,25.7187 0,17.8008 -11.02,26.3128 -23,26.3128 z m 21.84,-58.0237 c -8.31,-9.668 -18.56,-11.0274 -24.35,-11.0274 -25.13,0 -39.43,20.8907 -39.43,43.3282 0,26.4919 18.17,42.7339 39.62,42.7339 5.99,0 16.42,-1.546 24.16,-11.601 v 9.476 h 18.93 V 44.4805 h -18.93 z m 75.45,58.0237 c -13.72,0 -22.61,-11.6136 -22.61,-26.1136 0,-14.1171 8.89,-25.9179 22.61,-25.9179 11.99,0 23,8.7109 23,25.7187 0,17.8008 -11.01,26.3128 -23,26.3128 z m 21.84,-58.0237 c -8.31,-9.668 -18.55,-11.0274 -24.35,-11.0274 -25.12,0 -39.42,20.8907 -39.42,43.3282 0,26.4919 18.16,42.7339 39.61,42.7339 5.99,0 16.43,-1.546 24.16,-11.601 v 42.523 h 18.94 V 44.4805 h -18.94 z m 47.6,83.4567 c -6.96,0 -12.18,5.223 -12.18,12.184 0,6.961 5.22,12.184 12.18,12.184 6.95,0 12.17,-5.223 12.17,-12.184 0,-6.961 -5.22,-12.184 -12.17,-12.184 z m 79.77,-46.7145 c 0,20.6995 -7.73,21.2815 -14.88,21.2815 -8.5,0 -17.2,-1.16 -17.2,-27.4612 V 44.4805 h -18.94 v 81.4175 h 18.94 v -7.546 c 8.12,9.093 17.39,9.671 22.03,9.671 15.07,0 21.45,-7.543 23.96,-11.023 3.09,-4.449 5.03,-10.059 5.03,-22.6211 V 44.4805 h -18.94 z m 90.31,15.4685 c -4.63,4.653 -9.85,5.813 -15.26,5.813 -5.22,0 -10.05,-1.364 -14.3,-5.422 -4.83,-4.449 -8.31,-11.9884 -8.31,-20.6916 0,-8.1171 3.09,-16.0468 8.11,-20.5 3.48,-3.0976 8.7,-5.4179 14.5,-5.4179 5.99,0 11.21,1.7383 15.85,6.5781 5.6,5.9922 7.15,12.9609 7.15,19.1406 0,9.0899 -2.9,15.8598 -7.74,20.4998 z M 1426.61,8.69922 C 1421.39,4.44922 1412.89,0 1399.56,0 c -9.47,0 -18.94,2.32031 -26.67,10.0508 -5.99,6 -10.63,15.4805 -11.98,25.3398 h 18.35 c 0.78,-4.4492 3.1,-9.6718 6,-12.7617 2.31,-2.5195 6.95,-5.6094 14.68,-5.6094 7.92,0 12.56,3.0899 14.88,5.4102 6.19,6 6.19,14.5117 6.19,20.5 v 10.6406 c -8.7,-11.0312 -19.33,-11.6094 -24.74,-11.6094 -10.43,0 -19.13,2.9102 -26.86,11.0274 -7.35,7.7305 -12.18,18.7617 -12.18,32.3008 0,14.8909 5.61,25.1409 11.99,31.5199 8.11,8.316 17.77,11.214 27.63,11.214 8.12,0 17.2,-2.707 24.16,-11.023 v 8.898 h 18.93 V 51.0586 c 0,-19.1484 -2.12,-32.8789 -13.33,-42.35938"
         style="fill:#1b1918;fill-opacity:1;fill-rule:evenodd;stroke:none"
         id="path18" /></g></g></svg>
