<?xml version="1.0" encoding="UTF-8" standalone="no"?>
<svg
   version="1.1"
   width="337.64841pt"
   height="71.997002pt"
   viewBox="0 0 337.64841 71.997002"
   id="svg86"
   sodipodi:docname="microsoft.svg"
   inkscape:version="1.2 (dc2aeda, 2022-05-15)"
   xmlns:inkscape="http://www.inkscape.org/namespaces/inkscape"
   xmlns:sodipodi="http://sodipodi.sourceforge.net/DTD/sodipodi-0.dtd"
   xmlns="http://www.w3.org/2000/svg"
   xmlns:svg="http://www.w3.org/2000/svg">
  <defs
     id="defs90" />
  <sodipodi:namedview
     id="namedview88"
     pagecolor="#ffffff"
     bordercolor="#000000"
     borderopacity="0.25"
     inkscape:showpageshadow="2"
     inkscape:pageopacity="0.0"
     inkscape:pagecheckerboard="0"
     inkscape:deskcolor="#d1d1d1"
     inkscape:document-units="pt"
     showgrid="false"
     inkscape:zoom="1.9387967"
     inkscape:cx="225.39754"
     inkscape:cy="47.967897"
     inkscape:window-width="1390"
     inkscape:window-height="1052"
     inkscape:window-x="0"
     inkscape:window-y="0"
     inkscape:window-maximized="0"
     inkscape:current-layer="svg86" />
  <g
     enable-background="new"
     id="g84"
     transform="translate(-71.996,-71.996)">
    <g
       id="Layer-1"
       data-name="MS-symbol">
      <clipPath
         id="cp0">
        <path
           transform="matrix(1,0,0,-1,0,216)"
           d="M 0,216 H 482 V 0 H 0 Z"
           id="path68" />
      </clipPath>
      <g
         clip-path="url(#cp0)"
         id="g81">
        <path
           transform="matrix(1,0,0,-1,394.9424,104.5891)"
           d="m 0,0 h -10.858 v -25.004 h -7.38 V 0 h -5.182 v 5.965 h 5.182 v 4.308 c 0,3.254 1.059,5.92 3.178,7.998 2.119,2.079 4.835,3.118 8.149,3.118 0.883,0 1.667,-0.045 2.35,-0.135 0.682,-0.091 1.285,-0.227 1.807,-0.407 v -6.296 c -0.241,0.14 -0.663,0.311 -1.265,0.512 -0.603,0.2 -1.296,0.301 -2.078,0.301 -1.528,0 -2.702,-0.477 -3.526,-1.431 -0.824,-0.954 -1.235,-2.365 -1.235,-4.232 V 5.965 H 0 v 6.959 l 7.321,2.229 V 5.965 h 7.381 V 0 H 7.321 v -14.49 c 0,-1.909 0.346,-3.254 1.039,-4.037 0.693,-0.783 1.782,-1.175 3.269,-1.175 0.421,0 0.928,0.1 1.521,0.301 0.592,0.201 1.109,0.441 1.552,0.723 v -6.025 c -0.463,-0.261 -1.231,-0.502 -2.305,-0.723 -1.074,-0.221 -2.134,-0.331 -3.178,-0.331 -3.073,0 -5.378,0.817 -6.914,2.455 C 0.768,-21.665 0,-19.2 0,-15.906 Z m -48.407,-9.731 c 0,-3.233 0.733,-5.703 2.199,-7.411 1.466,-1.707 3.565,-2.56 6.296,-2.56 2.652,0 4.67,0.853 6.055,2.56 1.386,1.708 2.079,4.238 2.079,7.592 0,3.334 -0.718,5.849 -2.154,7.547 -1.436,1.697 -3.45,2.545 -6.04,2.545 -2.671,0 -4.745,-0.888 -6.221,-2.666 -1.476,-1.777 -2.214,-4.313 -2.214,-7.607 m -7.592,-0.24 c 0,5.121 1.446,9.177 4.338,12.17 2.892,2.993 6.909,4.489 12.05,4.489 4.841,0 8.621,-1.441 11.343,-4.323 2.721,-2.883 4.082,-6.774 4.082,-11.674 0,-5.021 -1.447,-9.018 -4.338,-11.99 -2.892,-2.973 -6.829,-4.458 -11.81,-4.458 -4.8,0 -8.611,1.41 -11.432,4.232 -2.822,2.821 -4.233,6.673 -4.233,11.554 m -16.417,7.802 c 0,-1.045 0.331,-1.863 0.994,-2.456 0.662,-0.592 2.128,-1.34 4.398,-2.243 2.912,-1.166 4.956,-2.476 6.131,-3.932 1.175,-1.456 1.762,-3.219 1.762,-5.287 0,-2.912 -1.12,-5.252 -3.359,-7.019 -2.24,-1.768 -5.267,-2.651 -9.083,-2.651 -1.285,0 -2.706,0.155 -4.263,0.467 -1.556,0.311 -2.877,0.707 -3.961,1.19 v 7.169 c 1.326,-0.924 2.751,-1.656 4.278,-2.198 1.526,-0.543 2.911,-0.814 4.157,-0.814 1.647,0 2.862,0.231 3.645,0.693 0.784,0.461 1.175,1.235 1.175,2.319 0,1.005 -0.406,1.853 -1.22,2.546 -0.813,0.693 -2.355,1.492 -4.624,2.395 -2.691,1.125 -4.599,2.39 -5.724,3.796 -1.125,1.406 -1.687,3.193 -1.687,5.362 0,2.792 1.109,5.086 3.329,6.884 2.218,1.797 5.096,2.696 8.631,2.696 1.084,0 2.3,-0.12 3.645,-0.361 1.346,-0.242 2.47,-0.553 3.374,-0.934 v -6.929 c -0.964,0.643 -2.089,1.194 -3.374,1.657 -1.286,0.462 -2.561,0.693 -3.826,0.693 -1.386,0 -2.465,-0.271 -3.238,-0.813 -0.774,-0.543 -1.16,-1.286 -1.16,-2.23 m -35.066,-7.562 c 0,-3.233 0.733,-5.703 2.2,-7.411 1.465,-1.707 3.564,-2.56 6.295,-2.56 2.652,0 4.67,0.853 6.055,2.56 1.386,1.708 2.079,4.238 2.079,7.592 0,3.334 -0.718,5.849 -2.154,7.547 -1.436,1.697 -3.449,2.545 -6.039,2.545 -2.672,0 -4.745,-0.888 -6.222,-2.666 -1.476,-1.777 -2.214,-4.313 -2.214,-7.607 m -7.592,-0.24 c 0,5.121 1.446,9.177 4.338,12.17 2.893,2.993 6.909,4.489 12.051,4.489 4.84,0 8.621,-1.441 11.342,-4.323 2.721,-2.883 4.082,-6.774 4.082,-11.674 0,-5.021 -1.446,-9.018 -4.338,-11.99 -2.892,-2.973 -6.828,-4.458 -11.809,-4.458 -4.801,0 -8.611,1.41 -11.433,4.232 -2.822,2.821 -4.233,6.673 -4.233,11.554 m -3.136,16.448 c 0.582,0 1.105,-0.041 1.567,-0.121 0.462,-0.08 0.853,-0.18 1.175,-0.301 v -7.38 c -0.382,0.281 -0.939,0.546 -1.672,0.798 -0.733,0.251 -1.622,0.376 -2.666,0.376 -1.788,0 -3.299,-0.753 -4.534,-2.259 -1.235,-1.506 -1.853,-3.826 -1.853,-6.959 v -15.635 h -7.291 V 5.965 h 7.291 v -4.88 h 0.12 c 0.663,1.687 1.667,3.007 3.013,3.961 1.346,0.953 2.962,1.431 4.85,1.431 m -27.956,-26.179 c 1.084,0 2.279,0.25 3.585,0.753 1.305,0.502 2.51,1.164 3.615,1.988 v -6.778 c -1.165,-0.663 -2.485,-1.165 -3.962,-1.506 -1.475,-0.342 -3.098,-0.512 -4.865,-0.512 -4.559,0 -8.265,1.44 -11.116,4.323 -2.852,2.881 -4.278,6.562 -4.278,11.04 0,4.981 1.456,9.083 4.369,12.307 2.911,3.224 7.038,4.835 12.381,4.835 1.366,0 2.746,-0.176 4.143,-0.527 1.395,-0.352 2.504,-0.758 3.328,-1.22 v -6.989 c -1.125,0.823 -2.274,1.461 -3.45,1.913 -1.174,0.451 -2.375,0.678 -3.599,0.678 -2.872,0 -5.192,-0.934 -6.959,-2.802 -1.768,-1.868 -2.652,-4.388 -2.652,-7.562 0,-3.132 0.849,-5.573 2.546,-7.32 1.697,-1.748 4.002,-2.621 6.914,-2.621 m -22.112,-5.302 h -7.29 V 5.965 h 7.29 z m -8.044,39.916 c 0,1.205 0.437,2.214 1.311,3.028 0.874,0.813 1.913,1.22 3.118,1.22 1.285,0 2.35,-0.417 3.193,-1.25 0.844,-0.834 1.266,-1.833 1.266,-2.998 0,-1.185 -0.432,-2.179 -1.296,-2.982 -0.864,-0.804 -1.918,-1.205 -3.163,-1.205 -1.246,0 -2.295,0.406 -3.148,1.219 -0.854,0.815 -1.281,1.803 -1.281,2.968 m -6.273,3.284 v -43.2 h -7.501 V 8.857 h -0.12 l -13.407,-33.861 h -4.97 l -13.738,33.861 h -0.09 v -33.861 h -6.929 v 43.2 h 10.755 l 12.412,-32.024 h 0.18 l 13.105,32.024 z"
           fill="#77787b"
           id="path71" />
        <path
           transform="matrix(1,0,0,-1,0,216)"
           d="M 106.214,109.786 H 71.996 v 34.218 h 34.218 z"
           fill="#f26522"
           id="path73" />
        <path
           transform="matrix(1,0,0,-1,0,216)"
           d="m 143.993,109.786 h -34.218 v 34.218 h 34.218 z"
           fill="#8dc63f"
           id="path75" />
        <path
           transform="matrix(1,0,0,-1,0,216)"
           d="M 106.214,72.007 H 71.996 v 34.21801 h 34.218 z"
           fill="#00aeef"
           id="path77" />
        <path
           transform="matrix(1,0,0,-1,0,216)"
           d="m 143.993,72.007 h -34.218 v 34.21801 h 34.218 z"
           fill="#ffc20d"
           id="path79" />
      </g>
    </g>
  </g>
</svg>
