<?xml version="1.0" encoding="UTF-8" standalone="no"?>
<!-- Created with Inkscape (http://www.inkscape.org/) -->

<svg
   width="469.70001mm"
   height="119.8mm"
   viewBox="0 0 469.70002 119.8"
   version="1.1"
   id="svg896"
   inkscape:version="1.2 (dc2aeda, 2022-05-15)"
   sodipodi:docname="numberly.svg"
   xmlns:inkscape="http://www.inkscape.org/namespaces/inkscape"
   xmlns:sodipodi="http://sodipodi.sourceforge.net/DTD/sodipodi-0.dtd"
   xmlns="http://www.w3.org/2000/svg"
   xmlns:svg="http://www.w3.org/2000/svg"
   xmlns:rdf="http://www.w3.org/1999/02/22-rdf-syntax-ns#"
   xmlns:cc="http://creativecommons.org/ns#"
   xmlns:dc="http://purl.org/dc/elements/1.1/">
  <defs
     id="defs890" />
  <sodipodi:namedview
     id="base"
     pagecolor="#ffffff"
     bordercolor="#666666"
     borderopacity="1.0"
     inkscape:pageopacity="0.0"
     inkscape:pageshadow="2"
     inkscape:zoom="0.18501897"
     inkscape:cx="1432.2855"
     inkscape:cy="140.52613"
     inkscape:document-units="mm"
     inkscape:current-layer="layer1"
     showgrid="false"
     fit-margin-top="0"
     fit-margin-left="0"
     fit-margin-right="0"
     fit-margin-bottom="0"
     inkscape:window-width="1390"
     inkscape:window-height="1052"
     inkscape:window-x="0"
     inkscape:window-y="0"
     inkscape:window-maximized="0"
     inkscape:showpageshadow="2"
     inkscape:pagecheckerboard="0"
     inkscape:deskcolor="#d1d1d1" />
  <metadata
     id="metadata893">
    <rdf:RDF>
      <cc:Work
         rdf:about="">
        <dc:format>image/svg+xml</dc:format>
        <dc:type
           rdf:resource="http://purl.org/dc/dcmitype/StillImage" />
        <dc:title />
      </cc:Work>
    </rdf:RDF>
  </metadata>
  <g
     inkscape:label="Layer 1"
     inkscape:groupmode="layer"
     id="layer1"
     transform="translate(-104.05427,-31.972352)">
    <g
       id="g22"
       transform="translate(38.554272,-0.8276475)">
      <path
         class="st0"
         d="m 65.6,67.2 c 2.4,-0.7 5.6,-1.4 9.7,-2.2 4.1,-0.8 9,-1.2 14.9,-1.2 4.9,0 9,0.7 12.2,2.1 3.3,1.4 5.9,3.4 7.8,6 1.9,2.6 3.3,5.7 4.2,9.4 0.8,3.6 1.2,7.7 1.2,12.1 v 35.9 h -8.1 V 95.9 c 0,-4.6 -0.3,-8.4 -0.9,-11.6 -0.6,-3.1 -1.7,-5.7 -3.1,-7.7 -1.5,-2 -3.4,-3.4 -5.7,-4.3 -2.4,-0.9 -5.3,-1.3 -8.9,-1.3 -3.8,0 -7.1,0.2 -9.9,0.6 -2.8,0.4 -4.6,0.8 -5.4,1.1 v 56.4 H 65.5 V 67.2 Z"
         id="path6"
         inkscape:connector-curvature="0"
         style="fill:#00a5b5" />
      <path
         class="st0"
         d="m 179.4,127 c -2.4,0.7 -5.6,1.4 -9.7,2.2 -4.1,0.8 -9,1.2 -14.9,1.2 -4.8,0 -8.8,-0.7 -12.1,-2.1 -3.2,-1.4 -5.8,-3.4 -7.8,-6 -2,-2.6 -3.4,-5.7 -4.3,-9.3 -0.9,-3.6 -1.3,-7.7 -1.3,-12.1 V 65 h 8.1 v 33.4 c 0,4.6 0.3,8.4 1,11.6 0.7,3.1 1.7,5.7 3.2,7.6 1.5,1.9 3.4,3.4 5.8,4.2 2.4,0.9 5.2,1.3 8.6,1.3 3.8,0 7.1,-0.2 9.9,-0.6 2.8,-0.4 4.6,-0.8 5.3,-1.1 V 65 h 8.1 v 62 z"
         id="path8"
         inkscape:connector-curvature="0"
         style="fill:#00a5b5" />
      <path
         class="st0"
         d="m 194.6,67.2 c 2.4,-0.7 5.5,-1.4 9.4,-2.2 3.9,-0.8 8.8,-1.2 15,-1.2 8.1,0 14,2.4 17.6,7.1 0.4,-0.3 1.2,-0.9 2.4,-1.7 1.2,-0.8 2.7,-1.6 4.5,-2.4 1.8,-0.8 4,-1.5 6.4,-2.1 2.4,-0.6 5.2,-0.9 8.1,-0.9 4.9,0 8.8,0.7 11.9,2.2 3,1.5 5.4,3.5 7,6.1 1.7,2.6 2.8,5.7 3.4,9.4 0.6,3.6 0.9,7.6 0.9,11.9 v 35.9 h -8.1 V 95.9 c 0,-4.2 -0.2,-7.9 -0.6,-11 -0.4,-3.1 -1.1,-5.7 -2.2,-7.7 -1.1,-2 -2.7,-3.6 -4.8,-4.6 -2.1,-1 -4.8,-1.6 -8.1,-1.6 -2.5,0 -4.7,0.2 -6.8,0.7 -2,0.5 -3.8,1 -5.3,1.7 -1.5,0.7 -2.7,1.3 -3.7,2 -1,0.7 -1.6,1.2 -2.1,1.5 0.7,2.2 1.3,4.6 1.7,7.3 0.4,2.7 0.6,5.5 0.6,8.5 v 36.5 h -8.1 V 95.9 c 0,-4.2 -0.2,-7.9 -0.6,-11 -0.4,-3.1 -1.1,-5.7 -2.3,-7.7 -1.2,-2 -2.8,-3.6 -4.9,-4.6 -2.1,-1 -4.9,-1.6 -8.4,-1.6 -3.9,0 -7.2,0.2 -9.9,0.6 -2.7,0.4 -4.4,0.8 -5.2,1.1 v 56.4 h -8.1 V 67.2 Z"
         id="path10"
         inkscape:connector-curvature="0"
         style="fill:#00a5b5" />
      <path
         class="st0"
         d="m 303.7,68.8 c 1.4,-1.1 3.7,-2.2 6.8,-3.4 3.1,-1.2 6.8,-1.8 11,-1.8 4.6,0 8.8,0.8 12.4,2.5 3.6,1.7 6.6,4 9.1,7 2.5,3 4.4,6.5 5.7,10.6 1.3,4.1 1.9,8.6 1.9,13.5 0,5.2 -0.8,9.9 -2.3,14 -1.5,4.1 -3.7,7.7 -6.5,10.6 -2.8,2.9 -6.1,5.1 -9.9,6.6 -3.9,1.5 -8.1,2.3 -12.9,2.3 -5.7,0 -10.4,-0.4 -14.2,-1.1 -3.7,-0.7 -6.8,-1.5 -9.2,-2.4 V 34.3 l 8.1,-1.5 z m 0,52.8 c 1.2,0.4 3.1,0.8 5.5,1.2 2.4,0.4 5.7,0.6 9.6,0.6 7,0 12.6,-2.3 16.8,-6.8 4.2,-4.5 6.3,-11 6.3,-19.4 0,-3.6 -0.4,-6.9 -1.1,-10.1 -0.7,-3.2 -1.9,-6 -3.6,-8.3 -1.7,-2.4 -3.8,-4.2 -6.5,-5.7 -2.7,-1.4 -6,-2.1 -10,-2.1 -1.9,0 -3.7,0.2 -5.5,0.6 -1.7,0.4 -3.4,0.9 -4.8,1.4 -1.5,0.6 -2.8,1.2 -3.9,1.9 -1.1,0.7 -2.1,1.3 -2.8,1.9 z"
         id="path12"
         inkscape:connector-curvature="0"
         style="fill:#00a5b5" />
      <path
         class="st0"
         d="m 358,97 c 0,-5.6 0.8,-10.5 2.4,-14.7 1.6,-4.2 3.7,-7.7 6.3,-10.5 2.6,-2.8 5.6,-4.9 8.9,-6.3 3.4,-1.4 6.8,-2.1 10.4,-2.1 7.9,0 14.1,2.6 18.8,7.7 4.7,5.1 7,13 7,23.7 0,0.7 0,1.3 -0.1,2 0,0.7 -0.1,1.3 -0.2,1.9 h -45.1 c 0.2,7.9 2.2,13.9 5.8,18.1 3.6,4.2 9.4,6.3 17.4,6.3 4.4,0 7.9,-0.4 10.4,-1.2 2.6,-0.8 4.4,-1.5 5.6,-2.1 l 1.5,7 c -1.2,0.7 -3.3,1.5 -6.5,2.4 -3.2,0.9 -6.9,1.4 -11.2,1.4 -5.6,0 -10.4,-0.8 -14.4,-2.5 -4,-1.7 -7.2,-4 -9.8,-7 -2.6,-3 -4.4,-6.5 -5.6,-10.6 -1,-4.1 -1.6,-8.6 -1.6,-13.5 z m 45.6,-5.1 c -0.2,-6.7 -1.7,-11.9 -4.7,-15.7 -3,-3.7 -7.2,-5.6 -12.7,-5.6 -2.9,0 -5.5,0.6 -7.8,1.7 -2.3,1.2 -4.3,2.7 -6,4.7 -1.7,1.9 -3,4.2 -4,6.8 -1,2.6 -1.5,5.3 -1.7,8.1 z"
         id="path14"
         inkscape:connector-curvature="0"
         style="fill:#00a5b5" />
      <path
         class="st0"
         d="m 445.6,63.7 c 2.6,0 5.2,0.2 7.5,0.6 2.4,0.4 4,0.8 4.9,1.2 l -1.6,7 c -0.7,-0.3 -2,-0.7 -4,-1.1 -2,-0.4 -4.7,-0.6 -8,-0.6 -3.5,0 -6.3,0.2 -8.4,0.7 -2.1,0.5 -3.5,0.9 -4.2,1.2 V 129 h -8.1 V 67.9 c 2.1,-0.9 4.9,-1.8 8.6,-2.8 3.7,-0.9 8.1,-1.4 13.3,-1.4 z"
         id="path16"
         inkscape:connector-curvature="0"
         style="fill:#00a5b5" />
      <path
         class="st1"
         d="m 480.3,130.3 c -2.7,-0.1 -5.1,-0.4 -7.1,-1.1 -2,-0.6 -3.7,-1.6 -5.1,-2.9 -1.4,-1.3 -2.4,-2.9 -3.1,-5 -0.7,-2 -1.1,-4.6 -1.1,-7.6 V 34.3 l 8.1,-1.5 v 80.8 c 0,2 0.2,3.6 0.6,4.8 0.4,1.2 0.9,2.2 1.7,2.9 0.7,0.7 1.7,1.2 2.9,1.6 1.2,0.3 2.6,0.6 4.3,0.9 z"
         id="path18"
         inkscape:connector-curvature="0"
         style="fill:#636569" />
      <path
         class="st1"
         d="m 507,130.6 c -2.7,-5.1 -5.3,-10.3 -7.8,-15.8 -2.5,-5.5 -4.9,-11 -7.1,-16.6 -2.2,-5.6 -4.2,-11.2 -6,-16.8 -1.8,-5.6 -3.4,-11.1 -4.7,-16.5 h 8.6 c 0.9,4 2.1,8.3 3.5,12.9 1.4,4.6 3,9.3 4.8,14.2 1.8,4.9 3.7,9.9 5.9,15 2.2,5.1 4.5,10.2 7,15.2 1.8,-5.1 3.5,-10 4.9,-14.5 1.4,-4.6 2.7,-9.1 4,-13.6 1.2,-4.5 2.4,-9.1 3.5,-13.8 1.1,-4.7 2.3,-9.8 3.5,-15.3 h 8.1 c -2.7,12 -5.7,23.7 -9.1,35.1 -3.4,11.4 -7,21.7 -11,31.2 -1.6,3.7 -3.2,6.9 -4.9,9.6 -1.7,2.7 -3.5,4.9 -5.6,6.6 -2,1.7 -4.4,3 -7.1,3.9 -2.7,0.8 -5.9,1.2 -9.5,1.2 -2.1,0 -4,-0.2 -5.7,-0.7 -1.7,-0.5 -2.8,-0.9 -3.2,-1.1 l 1.6,-6.7 c 0.3,0.2 1.3,0.6 2.8,1.1 1.5,0.5 3.1,0.7 4.8,0.7 2.3,0 4.4,-0.2 6.3,-0.7 1.9,-0.5 3.5,-1.3 5,-2.5 1.5,-1.2 2.8,-2.8 4,-4.7 1.1,-2.1 2.3,-4.5 3.4,-7.4 z"
         id="path20"
         inkscape:connector-curvature="0"
         style="fill:#636569" />
    </g>
  </g>
</svg>
