<?xml version="1.0" encoding="UTF-8" standalone="no"?>
<!-- Generator: Adobe Illustrator 22.1.0, SVG Export Plug-In . SVG Version: 6.00 Build 0)  -->

<svg
   version="1.1"
   id="Layer_1"
   x="0px"
   y="0px"
   width="318.91312"
   height="55.202892"
   viewBox="0 0 318.91311 55.202892"
   xml:space="preserve"
   sodipodi:docname="OReilly.svg"
   inkscape:version="1.1.2 (0a00cf5339, 2022-02-04)"
   xmlns:inkscape="http://www.inkscape.org/namespaces/inkscape"
   xmlns:sodipodi="http://sodipodi.sourceforge.net/DTD/sodipodi-0.dtd"
   xmlns="http://www.w3.org/2000/svg"
   xmlns:svg="http://www.w3.org/2000/svg"><sodipodi:namedview
   id="namedview16"
   pagecolor="#ffffff"
   bordercolor="#666666"
   borderopacity="1.0"
   inkscape:pageshadow="2"
   inkscape:pageopacity="0.0"
   inkscape:pagecheckerboard="0"
   showgrid="false"
   inkscape:zoom="1.7463564"
   inkscape:cx="226.75784"
   inkscape:cy="-114.81047"
   inkscape:window-width="1920"
   inkscape:window-height="1016"
   inkscape:window-x="0"
   inkscape:window-y="27"
   inkscape:window-maximized="1"
   inkscape:current-layer="Layer_1"
   fit-margin-top="0"
   fit-margin-left="0"
   fit-margin-right="0"
   fit-margin-bottom="0" /><defs
   id="defs29" />
<style
   type="text/css"
   id="style2">
	.st0{fill:#D3002D;}
</style>








<g
   id="g844"
   transform="matrix(0.83136888,0,0,0.83136888,-2.992928,-3.6580231)"><polygon
     class="st0"
     points="196.6,58.6 163.1,58.6 163.1,42.7 194.9,42.7 194.9,32.2 163.1,32.2 163.1,16.3 196.6,16.3 196.6,5.8 152.5,5.8 152.5,69.1 196.6,69.1 "
     id="polygon4" /><polygon
     class="st0"
     points="270.3,69.1 229.2,69.1 229.2,5.8 239.8,5.8 239.8,58.6 270.3,58.6 "
     id="polygon6" /><polygon
     class="st0"
     points="319.9,69.1 278.9,69.1 278.9,5.8 289.4,5.8 289.4,58.6 319.9,58.6 "
     id="polygon8" /><rect
     x="207.60001"
     y="5.8000002"
     class="st0"
     width="10.6"
     height="63.299999"
     id="rect10" /><path
     class="st0"
     d="m 20.7,21.9 c -4.1,4.1 -6.6,9.7 -6.6,15.9 0,6.2 2.5,11.8 6.6,15.9 4.1,4.1 9.7,6.6 15.9,6.6 6.2,0 11.8,-2.5 15.9,-6.6 C 56.5,49.5 59,44 59,37.8 59,31.6 56.5,26 52.4,21.9 48.3,17.8 42.7,15.3 36.5,15.3 c -6.2,0 -11.7,2.5 -15.8,6.6 M 3.6,37.8 c 0,-18.2 14.8,-33 33,-33 18.2,0 33,14.8 33,33 0,18.2 -14.8,33 -33,33 C 18.3,70.7 3.6,56 3.6,37.8"
     id="path12" /><path
     class="st0"
     d="M 102.2,32.2 V 16.3 h 21.3 c 4.4,0 7.9,3.5 7.9,7.9 0,4.4 -3.5,7.9 -7.9,7.9 h -21.3 z m 26.5,9.8 c 7.6,-2.3 13.2,-9.3 13.2,-17.7 0,-10.2 -8.3,-18.5 -18.5,-18.5 H 91.6 v 63.3 h 10.6 V 42.7 h 14.7 l 15.9,26.4 h 12.3 z"
     id="path14" /><path
     class="st0"
     d="m 84.1,12.5 c 0,4.3 -3.5,7.8 -7.8,7.8 -4.3,0 -7.8,-3.5 -7.8,-7.8 0,-4.3 3.5,-7.8 7.8,-7.8 4.4,0.1 7.8,3.5 7.8,7.8"
     id="path16" /><polygon
     class="st0"
     points="332.6,40.2 332.6,69.1 343.1,69.1 343.1,40.3 366.9,5.8 354.1,5.8 337.9,29.3 321.6,5.8 308.8,5.8 "
     id="polygon18" /><g
     id="g24">
	<path
   class="st0"
   d="m 379.4,18.8 c -3.6,0 -6.6,-2.9 -6.6,-6.6 0,-3.6 2.9,-6.6 6.6,-6.6 3.6,0 6.6,2.9 6.6,6.6 0,3.6 -2.9,6.6 -6.6,6.6 m 0,-14.4 c -4.3,0 -7.8,3.5 -7.8,7.8 0,4.3 3.5,7.8 7.8,7.8 4.3,0 7.8,-3.5 7.8,-7.8 0,-4.3 -3.5,-7.8 -7.8,-7.8"
   id="path20" />
	<path
   class="st0"
   d="m 377.5,9.5 h 3.1 c 0.6,0 1,0.4 1,1 0,0.6 -0.4,1 -1,1 h -3.1 z m 5.4,1 c 0,-1.3 -1,-2.3 -2.3,-2.3 h -4.4 v 8 h 1.3 v -3.3 h 2.2 l 1.6,3.3 h 1.5 l -1.6,-3.4 c 1,-0.3 1.7,-1.2 1.7,-2.3"
   id="path22" />
</g></g>
</svg>
