<?xml version="1.0" encoding="UTF-8" standalone="no"?>
<svg
   class="css-lfbo6j e10nushx4"
   viewBox="0 0 199.94788 44.009924"
   width="360.26645"
   height="79.351227"
   version="1.1"
   id="svg4"
   sodipodi:docname="sentry.svg"
   inkscape:version="1.1.2 (0a00cf5339, 2022-02-04)"
   xmlns:inkscape="http://www.inkscape.org/namespaces/inkscape"
   xmlns:sodipodi="http://sodipodi.sourceforge.net/DTD/sodipodi-0.dtd"
   xmlns="http://www.w3.org/2000/svg"
   xmlns:svg="http://www.w3.org/2000/svg">
  <sodipodi:namedview
     id="namedview5"
     pagecolor="#ffffff"
     bordercolor="#666666"
     borderopacity="1.0"
     inkscape:pageshadow="2"
     inkscape:pageopacity="0.0"
     inkscape:pagecheckerboard="0"
     showgrid="false"
     fit-margin-top="0"
     fit-margin-left="0"
     fit-margin-right="0"
     fit-margin-bottom="0"
     inkscape:zoom="3.37"
     inkscape:cx="180.11869"
     inkscape:cy="87.091988"
     inkscape:window-width="1920"
     inkscape:window-height="1016"
     inkscape:window-x="0"
     inkscape:window-y="27"
     inkscape:window-maximized="1"
     inkscape:current-layer="svg4" />
  <defs
     id="defs8" />
  <path
     d="m 28.947884,2.237334 a 4.67,4.67 0 0 0 -8,0 l -6.58,11.27 a 32.21,32.21 0 0 1 17.75,26.66 h -4.62 a 27.68,27.68 0 0 0 -15.46,-22.72 l -6.0900001,10.53 a 15.92,15.92 0 0 1 9.2300001,12.17 H 4.5678839 a 0.76,0.76 0 0 1 -0.62,-1.11 l 2.94,-5 a 10.74,10.74 0 0 0 -3.36,-1.9 l -2.90999999,5 a 4.54,4.54 0 0 0 1.68999999,6.24 4.66,4.66 0 0 0 2.26,0.6 H 19.097884 a 19.4,19.4 0 0 0 -8,-17.31 l 2.31,-4 a 23.87,23.87 0 0 1 10.3,21.31 h 12.31 a 35.88,35.88 0 0 0 -16.41,-31.8 l 4.67,-8 a 0.77,0.77 0 0 1 1.05,-0.27 c 0.53,0.29 20.29,34.77 20.66,35.17 a 0.76,0.76 0 0 1 -0.68,1.13 h -4.76 q 0.09,1.91 0,3.81 h 4.78 a 4.59,4.59 0 0 0 4.62,-4.61 4.49,4.49 0 0 0 -0.62,-2.28 z m 95.319996,26.02 -14.76,-19.06 h -3.68 v 25.55 h 3.73 v -19.58 l 15.18,19.58 h 3.26 v -25.55 h -3.73 z m -37.169996,-4.74 h 13.229996 v -3.32 H 87.087884 v -7.69 h 14.929996 v -3.32 H 83.287884 v 25.56 h 18.919996 v -3.32 H 87.087884 Z m -15.56,-3.24 v 0 c -5.15,-1.24 -6.59,-2.22 -6.59,-4.6 0,-2.14 1.89,-3.59 4.71,-3.59 a 12.06,12.06 0 0 1 7.07,2.55 l 2,-2.83 a 14.1,14.1 0 0 0 -9,-3 c -5.06,0 -8.59,3 -8.59,7.27 0,4.6 3,6.19 8.46,7.52 4.86,1.12 6.35,2.16 6.35,4.49 0,2.33 -2,3.77 -5.09,3.77 a 12.34,12.34 0 0 1 -8.3,-3.26 l -2.25,2.69 a 15.94,15.94 0 0 0 10.42,3.85 c 5.48,0 9,-2.95 9,-7.51 -0.03,-3.86 -2.31,-5.93 -8.19,-7.35 z m 124.109996,-11.08 -7.69,12 -7.64,-12 h -4.46 l 10.09,15.45 v 10.11 h 3.84 v -10.23 l 10.16,-15.33 z m -64.63,3.46 h 8.37 v 22.1 h 3.84 v -22.1 h 8.37 v -3.46 h -20.57 z m 38.34,12.12 c 3.86,-1.07 6,-3.77 6,-7.63 0,-4.91 -3.59,-8 -9.38,-8 h -11.36 v 25.59 h 3.8 v -9.18 h 6.45 l 6.48,9.2 h 4.44 l -7,-9.82 z m -10.95,-2.5 v -9.7 h 7.17 c 3.74,0 5.88,1.77 5.88,4.84 0,3.07 -2.29,4.86 -5.84,4.86 z"
     fill="#362d59"
     id="path2" />
</svg>
