<?xml version="1.0" encoding="UTF-8" standalone="no"?>
<svg
   width="668.95728"
   height="164.62001"
   version="1.1"
   id="svg501"
   sodipodi:docname="sonar.svg"
   inkscape:version="1.2 (dc2aeda, 2022-05-15)"
   xmlns:inkscape="http://www.inkscape.org/namespaces/inkscape"
   xmlns:sodipodi="http://sodipodi.sourceforge.net/DTD/sodipodi-0.dtd"
   xmlns="http://www.w3.org/2000/svg"
   xmlns:svg="http://www.w3.org/2000/svg">
  <defs
     id="defs505" />
  <sodipodi:namedview
     id="namedview503"
     pagecolor="#ffffff"
     bordercolor="#000000"
     borderopacity="0.25"
     inkscape:showpageshadow="2"
     inkscape:pageopacity="0.0"
     inkscape:pagecheckerboard="0"
     inkscape:deskcolor="#d1d1d1"
     showgrid="false"
     inkscape:zoom="1.2932091"
     inkscape:cx="354.15772"
     inkscape:cy="107.48455"
     inkscape:window-width="1390"
     inkscape:window-height="1052"
     inkscape:window-x="0"
     inkscape:window-y="0"
     inkscape:window-maximized="0"
     inkscape:current-layer="svg501" />
  <g
     id="g499"
     transform="translate(-63.902713,-63.679996)">
    <title
       id="title486">Layer 1</title>
    <path
       id="svg_1"
       fill="#fd3456"
       d="m 203.35,135.27 a 102,102 0 0 0 -7.23,-38.16 c -1,0.41 -1.72,0.79 -2.24,1 v 0 a 5.86,5.86 0 0 0 -3.13,5.93 141.71,141.71 0 0 1 0.94,16 c 0,24.45 -7.89,47.89 -22.22,66 -13.55,17.14 -31.73,28.16 -51.5,31.31 l 0.17,0.1 a 40.28,40.28 0 0 0 37.65,1.13 c 27.9,-13.64 47.56,-45.85 47.56,-83.31 z"
       class="cls-1" />
    <path
       id="svg_2"
       fill="#fd3456"
       d="m 208.8,94.62 a 27.7,27.7 0 0 0 -5.18,0.33 109.86,109.86 0 0 1 7.51,40.32 c 0,42 -23.4,79.27 -57.56,92.86 1.72,0.11 3.46,0.17 5.21,0.17 H 159 a 54.8,54.8 0 0 0 42.41,-20.38 c 13.08,-16.2 21.11,-38 21.11,-61.91 A 100.35,100.35 0 0 0 208.8,94.62 Z"
       class="cls-1" />
    <path
       id="svg_3"
       fill="#fd3456"
       d="m 241.08,146 a 82,82 0 0 0 -6.27,-31.56 36.25,36.25 0 0 0 -7.91,-12 26.37,26.37 0 0 0 -6.21,-4.66 c -0.58,-0.31 -1.17,-0.58 -1.75,-0.83 a 109.48,109.48 0 0 1 11.39,49 c 0,24.3 -7.91,47.71 -22,65.67 A 82.15,82.15 0 0 0 241.08,146 Z"
       class="cls-1" />
    <path
       id="svg_4"
       fill="#290042"
       d="m 217.82,88.68 a 82.06,82.06 0 0 0 -59,-25 c -45.48,0 -82.76,37.67 -82.29,83.15 a 81.92,81.92 0 0 0 6.47,31.4 22.19,22.19 0 0 0 -4.08,-0.18 c -3.69,0.17 -8.91,-1.17 -11.27,-1.83 -2.36,-0.66 -4.47,1.24 -3.51,3.44 v 0.06 c 8.17,18.72 26.28,30.9 43.57,30.86 v 0 a 32.89,32.89 0 0 0 3.44,-0.18 c 40.49,-3.08 72.62,-42.39 72.62,-90.28 0,-3 -0.13,-6 -0.39,-9 a 1.78,1.78 0 0 0 -3.2,-0.92 v 0 c -11.19,14.82 -27.78,40.87 -48.53,27.29 -8,-5.21 -12.26,-16.42 -9.85,-27.83 4.32,-20.48 28.2,-33.95 38.72,-29.75 0.82,0.33 3.78,1.51 4.79,4.21 1.54,4.12 -3.1,7.51 -5.47,14.81 -2.55,7.89 -1.11,16.27 0.68,16.63 2,0.41 5.35,-6.93 13.61,-13.59 6,-4.84 10.52,-6.2 13.36,-11.32 2.74,-5 -2.14,-10.27 -0.48,-10.74 1.66,-0.47 3.21,5.29 8.15,8.15 4.13,2.39 7.81,0.89 13.24,0.68 a 35.88,35.88 0 0 1 6,0.46 c 0,0 1.07,0.14 2.75,0.49 a 0.62,0.62 0 0 0 0.67,-1.01 z m -61.34,63.44 a 5.8,5.8 0 0 1 3.74,-2.27 4.79,4.79 0 0 1 3.69,1 c 2,1.84 1.41,5.43 -0.32,7.49 -1.59,1.9 -4.74,3.15 -6.93,1.73 a 5,5 0 0 1 -1.94,-4 5.85,5.85 0 0 1 1.76,-3.95 z"
       class="cls-2" />
    <path
       id="svg_5"
       fill="#290042"
       d="m 285.21,104.39 c 0,0 -17.63,0 -17.63,17.64 v 20.1 c 0,0 0,17.64 17.63,17.64 h 48 v 20.1 h -46.04 c -17.52,0 -17.63,17.64 -17.63,17.64 h 64.69 c 0,0 17.63,0 17.63,-17.64 v -20.1 c 0,0 0,-17.64 -17.63,-17.64 h -48 V 122 h 45.1 c 17.51,0 17.63,-17.64 17.63,-17.64 h -63.75 z"
       class="cls-2" />
    <path
       id="svg_6"
       fill="#290042"
       d="m 428.81,104.39 h -49 c -17.63,0 -17.63,17.64 -17.63,17.64 v 57.84 c 0,17.64 17.63,17.64 17.63,17.64 h 49 c 17.63,0 17.63,-17.64 17.63,-17.64 V 122 c 0,-17.61 -17.63,-17.61 -17.63,-17.61 z m -1,75.48 H 380.77 V 122 h 47.06 z"
       class="cls-2" />
    <path
       id="svg_7"
       fill="#290042"
       d="m 457.72,105.37 v 91.16 h 18.62 V 122 c 0,0 0,-16.63 -18.62,-16.63 z"
       class="cls-2" />
    <path
       id="svg_8"
       fill="#290042"
       d="M 524.37,104.39 H 494 c -17.63,0 -17.63,17.64 -17.63,17.64 h 47.05 v 74.5 H 542 V 122 c 0,-17.61 -17.63,-17.61 -17.63,-17.61 z"
       class="cls-2" />
    <path
       id="svg_9"
       fill="#290042"
       d="m 573.86,104.39 h -17.64 c 0,17.55 17.64,17.64 17.64,17.64 H 619 v 18.14 h -48 c 0,0 -17.64,0 -17.64,17.64 v 22.06 c 0,0 0,17.64 17.64,17.64 h 31.37 c 0,0 16.66,0 16.66,-17.64 H 571.9 v -22.8 H 619 v 22.8 c 0,0 0.48,16.66 18.62,16.66 V 122 c 0,0 0,-17.64 -17.64,-17.64 z"
       class="cls-2" />
    <path
       id="svg_10"
       fill="#290042"
       d="m 650.53,105.37 v 91.16 h 18.62 V 122 c 0,-16.64 -18.62,-16.63 -18.62,-16.63 z"
       class="cls-2" />
    <path
       id="svg_11"
       fill="#290042"
       d="m 686.79,104.39 c -17.64,0 -17.64,17.64 -17.64,17.64 h 46.07 c 0,0 17.64,0 17.64,-17.64 z"
       class="cls-2" />
  </g>
</svg>
