<?xml version="1.0" encoding="UTF-8"?>
<svg xmlns="http://www.w3.org/2000/svg" xmlns:xlink="http://www.w3.org/1999/xlink"
     viewBox="1658.000 2245.580 211.180 272.590"
     width="211" height="273">
  <defs xmlns="http://www.w3.org/2000/svg">
    <style>
      .uuid-7cc9a5c2-b2b7-4e4b-909e-c6f164744abe {
        fill: #1a4f2f;
      }

      .uuid-7cc9a5c2-b2b7-4e4b-909e-c6f164744abe, .uuid-474292df-e5ab-40e7-97f8-8b1479f314ec, .uuid-3d39a6ea-7885-46fd-a1f4-ad8e786a7eb6, .uuid-4e1e79a6-9f57-47aa-bff5-50e28b5b4bd4, .uuid-0942ba93-a040-434a-b9bf-18ade82857a8, .uuid-5b845d5f-acdd-4712-a653-3a1bf9d37724, .uuid-7709f5e5-23dd-44d3-a486-f9b40ef09275, .uuid-1c95d878-50cd-428a-b4f7-6e195e4803c6, .uuid-ae69439e-64c5-4efc-a70f-1e85c4137c92, .uuid-bca342e1-51f5-43bd-ac3a-9db07985a29d, .uuid-b597f69a-275b-434a-ac72-386ab50f7904, .uuid-712d8a8b-c053-4b58-9a30-0f69d1f70733, .uuid-f5193f33-3d57-4da9-afb2-fd4becd8e2ac, .uuid-a827e4b0-4800-4da1-9ef6-80fc1d89258d, .uuid-6fa6948b-bc78-4b49-81d0-9434f00fe026, .uuid-f1dc4b9b-0f80-4ab5-a6a2-1f7172088efc, .uuid-ec459f8d-5702-4afe-9fbd-be8d3cd93be0, .uuid-48439798-cf8a-4918-9c0f-819a28ebe832, .uuid-e95fe15a-141e-4c1b-b7d4-01c877e946b4, .uuid-eb077a57-561b-4ac2-b46b-ded7525ec273, .uuid-16fa0571-6fe9-4943-a80f-aeb06e559408, .uuid-e9f59946-e4e3-40c6-a868-1be5c9efafbe, .uuid-7e1deae3-85e3-4746-8703-9d6bbcd77938, .uuid-ca772c99-9b0f-4ab9-b0b2-348d24258317, .uuid-ba8d8edc-fd26-4582-abe1-24773075ec5b, .uuid-f586d3bf-856a-4aec-bf0f-e6897d8a802b, .uuid-1b80d46c-0bd8-48cc-9dc6-d85a39f7e6e2, .uuid-a1217be7-c1ee-45ff-8bd3-d7bacbbc73ea, .uuid-52507b89-ff89-45b8-ad86-9ecda6673709, .uuid-c06e969b-07e7-4482-be26-ba90eeff214c, .uuid-8bd778b4-7fd8-40db-b540-fa3f930fb027 {
        stroke-width: 0px;
      }

      .uuid-474292df-e5ab-40e7-97f8-8b1479f314ec {
        fill: #912578;
      }

      .uuid-3d39a6ea-7885-46fd-a1f4-ad8e786a7eb6 {
        fill: #ed1260;
      }

      .uuid-4e1e79a6-9f57-47aa-bff5-50e28b5b4bd4 {
        fill: #096fb2;
      }

      .uuid-0942ba93-a040-434a-b9bf-18ade82857a8 {
        fill: #f04f24;
      }

      .uuid-5b845d5f-acdd-4712-a653-3a1bf9d37724 {
        fill: #fcdde3;
      }

      .uuid-7709f5e5-23dd-44d3-a486-f9b40ef09275 {
        fill: #ee2424;
      }

      .uuid-1c95d878-50cd-428a-b4f7-6e195e4803c6 {
        fill: #00aeef;
      }

      .uuid-bca342e1-51f5-43bd-ac3a-9db07985a29d {
        fill: #fdb515;
      }

      .uuid-b597f69a-275b-434a-ac72-386ab50f7904 {
        fill: #116c37;
      }

      .uuid-712d8a8b-c053-4b58-9a30-0f69d1f70733 {
        fill: #00ad4d;
      }

      .uuid-f5193f33-3d57-4da9-afb2-fd4becd8e2ac {
        fill: #00bdf2;
      }

      .uuid-a827e4b0-4800-4da1-9ef6-80fc1d89258d {
        fill: #6fcaeb;
      }

      .uuid-6fa6948b-bc78-4b49-81d0-9434f00fe026 {
        fill: #00a651;
      }

      .uuid-f1dc4b9b-0f80-4ab5-a6a2-1f7172088efc {
        fill: #d9306c;
      }

      .uuid-ec459f8d-5702-4afe-9fbd-be8d3cd93be0 {
        fill: #1ebee9;
      }

      .uuid-48439798-cf8a-4918-9c0f-819a28ebe832 {
        fill: #fff200;
      }

      .uuid-e95fe15a-141e-4c1b-b7d4-01c877e946b4 {
        fill: #ffc20e;
      }

      .uuid-eb077a57-561b-4ac2-b46b-ded7525ec273 {
        fill: #fff;
      }

      .uuid-16fa0571-6fe9-4943-a80f-aeb06e559408 {
        fill: #2a2b69;
      }

      .uuid-e9f59946-e4e3-40c6-a868-1be5c9efafbe {
        fill: #452f91;
      }

      .uuid-7e1deae3-85e3-4746-8703-9d6bbcd77938 {
        fill: #473184;
      }

      .uuid-ca772c99-9b0f-4ab9-b0b2-348d24258317 {
        fill: #28469d;
      }

      .uuid-ba8d8edc-fd26-4582-abe1-24773075ec5b {
        fill: #921a1f;
      }

      .uuid-f586d3bf-856a-4aec-bf0f-e6897d8a802b {
        fill: #f8b9bd;
      }

      .uuid-1b80d46c-0bd8-48cc-9dc6-d85a39f7e6e2 {
        fill: #057d3f;
      }

      .uuid-a1217be7-c1ee-45ff-8bd3-d7bacbbc73ea {
        fill: #f6aab5;
      }

      .uuid-52507b89-ff89-45b8-ad86-9ecda6673709 {
        fill: #df1b51;
      }

      .uuid-c06e969b-07e7-4482-be26-ba90eeff214c {
        fill: #ec1d3e;
      }

      .uuid-8bd778b4-7fd8-40db-b540-fa3f930fb027 {
        fill: url(#uuid-e28073b8-9e44-47c0-a921-39f086042e6d);
      }
    </style>
    <linearGradient id="uuid-e28073b8-9e44-47c0-a921-39f086042e6d" x1="1151.62" y1="1741.65" x2="1203.93" y2="1741.65" gradientTransform="translate(2.58 401.91)" gradientUnits="userSpaceOnUse">
      <stop offset="0" stop-color="#231f20" />
      <stop offset="1" stop-color="#000" />
    </linearGradient>
  </defs>
  
  <g xmlns="http://www.w3.org/2000/svg" id="uuid-54f923c3-7a39-4ed0-9b0c-3ff863d6baad" data-name="flower">
      <path class="uuid-474292df-e5ab-40e7-97f8-8b1479f314ec" d="m1834.2,2397.31c.06-25.19-20.24-51.33-20.29-51.41,0,0-32.63,21.49-34.41,23.27,32.1-56.48-5.48-57.28-15.14-92.97-.34-.41-.22-.26-.26-.32-.02-.02-.03-.04-.04-.05v-.25s-.05.06-.11.13c-.06-.06-.11-.13-.11-.13v.25s-.02.03-.04.05c-.05.05.07-.08-.27.32-9.83,35.65-47.42,36.26-15.59,92.89-1.78-1.79-34.3-23.44-34.3-23.44-.05.08-20.48,26.12-20.54,51.31,0,.7-.07,1.4-.07,2.09-.09,39.77,31.38,72.09,70.34,72.31h0s.07,0,.11,0c.04,0,.07,0,.11,0h0c38.96-.03,70.59-32.19,70.69-71.96,0-.69-.06-1.39-.06-2.09Z" />
      <path class="uuid-eb077a57-561b-4ac2-b46b-ded7525ec273" d="m1805.03,2423.24l-16-3.87,15.66-2.94c-.27-2.18-.7-4.29-1.28-6.35l-15.24.88,13.23-6.54c-.09-.21-.18-.42-.27-.63-.09-.2-.19-.4-.28-.6-.19-.4-.38-.8-.59-1.19-.13-.25-.26-.51-.39-.75-.11-.2-.21-.39-.32-.58l-13.04,3.42,9.48-8.85c-.07-.09-.14-.2-.22-.29-.24-.31-.5-.6-.74-.9-.21-.27-.43-.54-.66-.8-.47-.54-.95-1.05-1.44-1.58-.03-.03-.07-.05-.1-.08l-10.38,5.61,6.27-9.34c-.07-.06-.14-.11-.21-.17-.24-.19-.5-.37-.74-.55-.54-.41-1.08-.79-1.64-1.16-.37-.26-.74-.5-1.12-.74-.08-.05-.15-.08-.22-.13l-7.9,7.83,2.95-10.46c-1.3-.58-2.65-1.08-4.02-1.53l-5.03,9.68.57-10.82c-.3-.05-.61-.12-.91-.17-.22-.04-.44-.08-.66-.11-.35-.05-.7-.1-1.04-.14-.34-.05-.7-.09-1.04-.13,0,0-.02,0-.03,0l-3.99,10.45h-.03l-3.94-10.47s-.02,0-.03,0c-.35.04-.69.09-1.04.13-.35.04-.7.08-1.05.13-.22.03-.44.07-.66.12-.3.05-.61.11-.92.16l.51,10.82-4.98-9.7c-1.37.43-2.72.94-4.03,1.5l2.9,10.47-7.86-7.88c-.07.05-.15.09-.22.14-.38.23-.75.48-1.12.73-.56.37-1.1.75-1.65,1.15-.25.18-.5.36-.74.55-.07.05-.14.11-.21.17l6.22,9.37-10.35-5.67s-.06.06-.09.09c-.5.52-.99,1.03-1.46,1.57-.23.26-.44.54-.66.79-.25.3-.5.6-.75.9-.07.1-.14.2-.21.29l9.43,8.9-13.02-3.49c-.11.19-.21.37-.32.58-.13.25-.26.5-.4.75-.2.38-.4.79-.59,1.19-.09.2-.19.4-.28.59-.1.21-.19.42-.28.63l13.2,6.61-15.24-.95c-.58,2.05-1.02,4.16-1.31,6.34l15.64,3.02-16.02,3.8c.05,1.25.17,2.48.38,3.68l15.61,2.04-13.81,4.16c8.51,20.62,32.81,40.96,39.13,40.98,6.31.02,30.72-20.21,39.33-40.79l-13.79-4.23,15.62-1.97c.21-1.2.35-2.42.4-3.67Z" />
      <path class="uuid-712d8a8b-c053-4b58-9a30-0f69d1f70733" d="m1763.52,2446.67c-29.84-23.93-53.17-22.93-75.52-28.71,3.57,39.29,35.94,70.12,75.42,70.21,39.48.1,72-30.56,75.76-69.84-22.38,5.67-45.71,4.55-75.66,28.33Z" />
    </g>
    
</svg>
