<?xml version="1.0" encoding="UTF-8"?>
<svg xmlns="http://www.w3.org/2000/svg" xmlns:xlink="http://www.w3.org/1999/xlink"
     viewBox="2574.470 2237.080 199.800 281.090"
     width="200" height="281">
  <defs xmlns="http://www.w3.org/2000/svg">
    <style>
      .uuid-7cc9a5c2-b2b7-4e4b-909e-c6f164744abe {
        fill: #1a4f2f;
      }

      .uuid-7cc9a5c2-b2b7-4e4b-909e-c6f164744abe, .uuid-474292df-e5ab-40e7-97f8-8b1479f314ec, .uuid-3d39a6ea-7885-46fd-a1f4-ad8e786a7eb6, .uuid-4e1e79a6-9f57-47aa-bff5-50e28b5b4bd4, .uuid-0942ba93-a040-434a-b9bf-18ade82857a8, .uuid-5b845d5f-acdd-4712-a653-3a1bf9d37724, .uuid-7709f5e5-23dd-44d3-a486-f9b40ef09275, .uuid-1c95d878-50cd-428a-b4f7-6e195e4803c6, .uuid-ae69439e-64c5-4efc-a70f-1e85c4137c92, .uuid-bca342e1-51f5-43bd-ac3a-9db07985a29d, .uuid-b597f69a-275b-434a-ac72-386ab50f7904, .uuid-712d8a8b-c053-4b58-9a30-0f69d1f70733, .uuid-f5193f33-3d57-4da9-afb2-fd4becd8e2ac, .uuid-a827e4b0-4800-4da1-9ef6-80fc1d89258d, .uuid-6fa6948b-bc78-4b49-81d0-9434f00fe026, .uuid-f1dc4b9b-0f80-4ab5-a6a2-1f7172088efc, .uuid-ec459f8d-5702-4afe-9fbd-be8d3cd93be0, .uuid-48439798-cf8a-4918-9c0f-819a28ebe832, .uuid-e95fe15a-141e-4c1b-b7d4-01c877e946b4, .uuid-eb077a57-561b-4ac2-b46b-ded7525ec273, .uuid-16fa0571-6fe9-4943-a80f-aeb06e559408, .uuid-e9f59946-e4e3-40c6-a868-1be5c9efafbe, .uuid-7e1deae3-85e3-4746-8703-9d6bbcd77938, .uuid-ca772c99-9b0f-4ab9-b0b2-348d24258317, .uuid-ba8d8edc-fd26-4582-abe1-24773075ec5b, .uuid-f586d3bf-856a-4aec-bf0f-e6897d8a802b, .uuid-1b80d46c-0bd8-48cc-9dc6-d85a39f7e6e2, .uuid-a1217be7-c1ee-45ff-8bd3-d7bacbbc73ea, .uuid-52507b89-ff89-45b8-ad86-9ecda6673709, .uuid-c06e969b-07e7-4482-be26-ba90eeff214c, .uuid-8bd778b4-7fd8-40db-b540-fa3f930fb027 {
        stroke-width: 0px;
      }

      .uuid-474292df-e5ab-40e7-97f8-8b1479f314ec {
        fill: #912578;
      }

      .uuid-3d39a6ea-7885-46fd-a1f4-ad8e786a7eb6 {
        fill: #ed1260;
      }

      .uuid-4e1e79a6-9f57-47aa-bff5-50e28b5b4bd4 {
        fill: #096fb2;
      }

      .uuid-0942ba93-a040-434a-b9bf-18ade82857a8 {
        fill: #f04f24;
      }

      .uuid-5b845d5f-acdd-4712-a653-3a1bf9d37724 {
        fill: #fcdde3;
      }

      .uuid-7709f5e5-23dd-44d3-a486-f9b40ef09275 {
        fill: #ee2424;
      }

      .uuid-1c95d878-50cd-428a-b4f7-6e195e4803c6 {
        fill: #00aeef;
      }

      .uuid-bca342e1-51f5-43bd-ac3a-9db07985a29d {
        fill: #fdb515;
      }

      .uuid-b597f69a-275b-434a-ac72-386ab50f7904 {
        fill: #116c37;
      }

      .uuid-712d8a8b-c053-4b58-9a30-0f69d1f70733 {
        fill: #00ad4d;
      }

      .uuid-f5193f33-3d57-4da9-afb2-fd4becd8e2ac {
        fill: #00bdf2;
      }

      .uuid-a827e4b0-4800-4da1-9ef6-80fc1d89258d {
        fill: #6fcaeb;
      }

      .uuid-6fa6948b-bc78-4b49-81d0-9434f00fe026 {
        fill: #00a651;
      }

      .uuid-f1dc4b9b-0f80-4ab5-a6a2-1f7172088efc {
        fill: #d9306c;
      }

      .uuid-ec459f8d-5702-4afe-9fbd-be8d3cd93be0 {
        fill: #1ebee9;
      }

      .uuid-48439798-cf8a-4918-9c0f-819a28ebe832 {
        fill: #fff200;
      }

      .uuid-e95fe15a-141e-4c1b-b7d4-01c877e946b4 {
        fill: #ffc20e;
      }

      .uuid-eb077a57-561b-4ac2-b46b-ded7525ec273 {
        fill: #fff;
      }

      .uuid-16fa0571-6fe9-4943-a80f-aeb06e559408 {
        fill: #2a2b69;
      }

      .uuid-e9f59946-e4e3-40c6-a868-1be5c9efafbe {
        fill: #452f91;
      }

      .uuid-7e1deae3-85e3-4746-8703-9d6bbcd77938 {
        fill: #473184;
      }

      .uuid-ca772c99-9b0f-4ab9-b0b2-348d24258317 {
        fill: #28469d;
      }

      .uuid-ba8d8edc-fd26-4582-abe1-24773075ec5b {
        fill: #921a1f;
      }

      .uuid-f586d3bf-856a-4aec-bf0f-e6897d8a802b {
        fill: #f8b9bd;
      }

      .uuid-1b80d46c-0bd8-48cc-9dc6-d85a39f7e6e2 {
        fill: #057d3f;
      }

      .uuid-a1217be7-c1ee-45ff-8bd3-d7bacbbc73ea {
        fill: #f6aab5;
      }

      .uuid-52507b89-ff89-45b8-ad86-9ecda6673709 {
        fill: #df1b51;
      }

      .uuid-c06e969b-07e7-4482-be26-ba90eeff214c {
        fill: #ec1d3e;
      }

      .uuid-8bd778b4-7fd8-40db-b540-fa3f930fb027 {
        fill: url(#uuid-e28073b8-9e44-47c0-a921-39f086042e6d);
      }
    </style>
    <linearGradient id="uuid-e28073b8-9e44-47c0-a921-39f086042e6d" x1="1151.62" y1="1741.65" x2="1203.93" y2="1741.65" gradientTransform="translate(2.58 401.91)" gradientUnits="userSpaceOnUse">
      <stop offset="0" stop-color="#231f20" />
      <stop offset="1" stop-color="#000" />
    </linearGradient>
  </defs>
  
  <g xmlns="http://www.w3.org/2000/svg" id="uuid-b19c5581-7d74-4960-92b0-45a2eb5219a6" data-name="flower">
      <path class="uuid-c06e969b-07e7-4482-be26-ba90eeff214c" d="m2630.11,2281.72c6.81.26,24.98,30.12,24.98,30.12l-10.93-38.78c2.56-1.17,2.31-1.29,5.04-2.14l15.72,39.34-3.57-42.5c2.43-.44,2.93-.5,5.43-.68l7.52,35.89,7.35-35.55c2.51.3,3.01.38,5.43.93l-3.38,42.33,15.54-38.62c2.73.98,2.48,1.08,5.05,2.37l-10.76,38.29s18.04-29.04,24.85-28.99c15.28.35,25.84,33.11,25.89,55.13.09,38.9-69.59,137.51-69.59,137.51h0s-70.12-101.8-70.21-140.69c-.05-22.02,10.36-54.3,25.64-53.95Z" />
      <path class="uuid-48439798-cf8a-4918-9c0f-819a28ebe832" d="m2642.95,2329.41c4.39.16,13.13,11.11,14.74,13.17l-4.74-19.07c1.82-.8,1.64-.88,3.58-1.46l6.52,7.01,2.13-9.15c1.72-.3,2.08-.34,3.87-.46l5.31,9.61,5.26-9.37c1.78.2,2.14.26,3.86.63l2.18,9.25,6.48-6.71c1.95.67,1.77.74,3.6,1.62l-4.66,18.86c1.6-1.99,10.29-12.54,14.69-12.5,10.86.25,18.38,22.59,18.41,37.6.06,26.52-49.51,93.69-49.51,93.69h0s0,0,0,0c0,0-49.88-69.44-49.94-95.96-.03-15.01,7.38-37.01,18.24-36.76Z" />
      <path class="uuid-ba8d8edc-fd26-4582-abe1-24773075ec5b" d="m2656.15,2366.76c2.82.11,10.35,11.98,10.35,11.98,0,0-2.95-13.78,7.94-13.53,10.89.24,8,13.89,8,13.89,0,0,7.47-11.52,10.3-11.5,6.32.14,10.7,13.16,10.72,21.9.04,15.45-28.85,54.58-28.85,54.58h0s-29.05-40.45-29.09-55.9c-.02-8.74,4.29-21.56,10.63-21.42Z" />
      <path class="uuid-712d8a8b-c053-4b58-9a30-0f69d1f70733" d="m2625.59,2408.43c5.72.38,30.15,3.26,49,24.52,18.76-20.4,43.18-22.17,48.9-22.29-.33.58-.66,1.16-.99,1.74.34-.21.71-.42,1-.59-23.05,40.39-48.46,76.36-48.46,76.36h0s-.11-.17-.32-.47c-.21.29-.32.46-.32.46h0s0,0,0,0c0,0-25.56-37.13-48.8-78.58.29.18.65.41,1,.64-.34-.61-.67-1.19-1-1.79Z" />
    </g>
    
</svg>
