<?xml version="1.0" encoding="UTF-8"?>
<svg width="59px" height="60px" viewBox="0 0 59 60" version="1.1" xmlns="http://www.w3.org/2000/svg" xmlns:xlink="http://www.w3.org/1999/xlink">
    <title>icon-image</title>
    <g id="Page-1" stroke="none" stroke-width="1" fill="none" fill-rule="evenodd">
        <g id="Sponsors-v2" transform="translate(-82.000000, -5260.000000)" fill="#FFFFFF" fill-rule="nonzero">
            <g id="Benefits" transform="translate(79.000000, 4427.000000)">
                <g id="Group-12" transform="translate(0.000000, 516.000000)">
                    <g id="Group-4" transform="translate(3.000000, 311.000000)">
                        <path d="M21.0581335,9.44727909 L19.6421391,8.85039423 C18.6093236,8.41284975 17.4380938,8.44054317 16.4269716,8.92665962 C15.4161139,9.41277606 14.6629311,10.3101669 14.3595415,11.3901258 L13.9403887,12.86956 L13.9405954,12.86956 C13.7091114,13.6472934 13.2411698,14.3337031 12.6016918,14.8332324 C11.9622139,15.3327828 11.1828403,15.6207013 10.3721965,15.6568393 L8.8357246,15.7331047 C7.83454959,15.7802279 6.88983024,16.2107448 6.19723005,16.9351813 C5.50462985,17.6597925 5.11711238,18.6229247 5.11504886,19.6251579 C5.11484214,19.8506472 5.13406389,20.0759301 5.17209182,20.2981283 L5.43251266,21.8092031 L5.43251266,21.8094097 C5.57243483,22.6150799 5.45586794,23.4442425 5.09933969,24.1802823 C4.74281197,24.9160576 4.16409134,25.521461 3.44524748,25.911042 L2.07369804,26.6664471 C1.08532741,27.1990456 0.373732299,28.1312251 0.120978204,29.2249408 C-0.131791765,30.3189211 0.0984499142,31.4686691 0.752995719,32.3807955 L1.64834946,33.6506507 C2.12578327,34.3149437 2.38269614,35.1120953 2.38269614,35.9301466 C2.38269614,36.7481979 2.12578856,37.5453495 1.64834946,38.2094309 L0.746805175,39.4792861 C0.0881207003,40.3849574 -0.14997715,41.5297848 0.0930942998,42.6229185 C0.335943525,43.7160522 1.03638507,44.6523058 2.01666037,45.1936345 L3.3627598,45.9302563 L3.36255313,45.9302563 C4.07933348,46.3229538 4.65473662,46.9305848 5.00775636,47.6674183 C5.36097717,48.4044634 5.47382497,49.2336788 5.33080223,50.0382908 L5.05777278,51.5493656 C5.01643635,51.7777491 4.99514776,52.0094394 4.99432235,52.2415425 C4.99618248,53.240654 5.38102501,54.2010878 6.06967806,54.9251169 C6.75836287,55.649146 7.69810863,56.0814788 8.69600317,56.1335958 L10.2324751,56.2160623 C11.0490978,56.2592591 11.8313815,56.5574999 12.4693779,57.0690346 C13.1072156,57.5805746 13.5684905,58.2793654 13.7880167,59.067046 L14.200762,60.5464802 L14.200762,60.5462735 C14.5045854,61.6231107 15.2556942,62.5178295 16.2636417,63.0034962 C17.2714306,63.4892 18.4391683,63.5191686 19.470714,63.0859627 L20.8867083,62.4954801 L20.8865017,62.4954801 C21.6416951,62.1794607 22.4771011,62.1087774 23.2747289,62.2933456 C24.0720922,62.4779137 24.791571,62.9084317 25.3309949,63.5241527 L26.3468261,64.679721 L26.3470328,64.679721 C27.088205,65.519254 28.1540368,66 29.2738374,66 C30.3938497,66 31.4596815,65.5192593 32.2008537,64.679721 L33.2230871,63.5305549 C33.7658444,62.9191726 34.4865401,62.4934007 35.2839034,62.3133987 C36.0812666,62.1335872 36.9150324,62.2081965 37.6675803,62.5273164 L39.0835747,63.1242013 C40.1163902,63.5617457 41.28762,63.5340523 42.2987422,63.0479359 C43.3098644,62.5618194 44.0627827,61.6644286 44.3661723,60.5844697 L44.7853251,59.1050355 L44.7851183,59.1050355 C45.0135018,58.3186247 45.4834858,57.6237494 46.1283606,57.1190349 C46.7733941,56.614315 47.5606514,56.3251637 48.3789144,56.2923062 L49.9153862,56.2224483 C51.034552,56.1716044 52.0778967,55.6418599 52.7791743,54.7680408 C53.4802402,53.8941688 53.7716719,52.7609288 53.5790243,51.6572659 L53.3186035,50.1461912 C53.1786813,49.3405209 53.2952482,48.5113584 53.6517764,47.7753186 C54.0083042,47.0395433 54.5870248,46.4339282 55.3058687,46.0445589 L56.6774181,45.2827516 C57.6657887,44.7501531 58.3773838,43.8179736 58.6301379,42.7242579 C58.8829079,41.6302776 58.6526662,40.4805296 57.9981204,39.5684032 L57.1027667,38.298548 C56.6253329,37.634255 56.36842,36.8371034 56.36842,36.0190521 C56.36842,35.2010008 56.6253276,34.4038492 57.1027667,33.7397678 L58.004311,32.4699126 C58.6629954,31.5642413 58.9010933,30.4194139 58.6580218,29.3262802 C58.4151726,28.2331465 57.7147311,27.2968929 56.7344558,26.7555642 L55.3883563,26.0189424 L55.388563,26.0189424 C54.6717827,25.6262449 54.0963795,25.0186139 53.7433598,24.2817804 C53.390139,23.5447353 53.2772912,22.7155199 53.4203139,21.9109079 L53.6933434,20.3998331 C53.7346798,20.1714496 53.755762,19.9397593 53.7567938,19.7076562 C53.7549337,18.7085447 53.3700911,17.7481109 52.6814381,17.0240818 C51.9927533,16.3000527 51.0530075,15.8677199 50.055113,15.8156029 L48.4867889,15.783774 C47.6703778,15.7407841 46.8878825,15.4425427 46.2500977,14.9310133 C45.6120484,14.4194733 45.1507735,13.7206826 44.9312472,12.933002 L44.518502,11.4535678 C44.2146785,10.3769422 43.4635698,9.48222339 42.4558338,8.99650377 C41.4478334,8.51080003 40.2800957,8.48083145 39.2487616,8.91383091 L37.8327672,9.50431357 C37.0775738,9.82053927 36.2423265,9.89122258 35.4447516,9.70665442 C34.6471767,9.52208626 33.927698,9.09156831 33.388274,8.47584727 L32.3724428,7.32027903 C31.6312706,6.48074601 30.5652272,6 29.4454266,6 C28.3256259,6 27.2595825,6.48074072 26.5184103,7.32027903 L25.5025791,8.44399506 C24.9600334,9.05537743 24.2391261,9.4811493 23.4417628,9.66115127 C22.6443996,9.84096277 21.8106338,9.76614713 21.0580859,9.44723358 L21.0581335,9.44727909 Z M28.9566328,28.2284375 L29.3819867,28.6537914 L29.8011395,28.2346386 C31.7292558,26.3065222 34.5395512,25.553551 37.1737071,26.2593789 C39.8074397,26.9649951 41.8647639,29.0223192 42.5705917,31.6562635 C43.2764196,34.2899961 42.5232616,37.1002385 40.5951203,39.028302 L30.2077048,49.3839712 C29.9898611,49.6022275 29.6941012,49.7247897 29.3855264,49.7247897 C29.077158,49.7247897 28.7811812,49.6022275 28.5633481,49.3839712 L18.1822818,39.0029049 C16.2541654,37.0749472 15.5009826,34.2644931 16.2068104,31.6308664 C16.9126383,28.9969221 18.9697508,26.939598 21.603695,26.2339818 C24.2376393,25.5281539 27.0476701,26.2813119 28.9762627,28.2092415 L28.9566328,28.2284375 Z" id="icon-image"></path>
                    </g>
                </g>
            </g>
        </g>
    </g>
</svg>