<?xml version="1.0" encoding="UTF-8"?>
<svg width="170px" height="170px" viewBox="0 0 170 170" version="1.1" xmlns="http://www.w3.org/2000/svg" xmlns:xlink="http://www.w3.org/1999/xlink">
    <!-- Generator: Sketch 57.1 (83088) - https://sketch.com -->
    <title>Icon / Language</title>
    <desc>Created with Sketch.</desc>
    <g id="Page-1" stroke="none" stroke-width="1" fill="none" fill-rule="evenodd">
        <g id="Content" transform="translate(-449.000000, -2956.000000)" fill="#FFFFFF">
            <g id="CTAs" transform="translate(364.000000, 2795.000000)">
                <g id="Group-3">
                    <g id="component-/-Card-/-Statistic" transform="translate(32.000000, 144.000000)">
                        <g id="Icon-/-Language" transform="translate(36.000000, 0.000000)">
                            <path d="M101.915,17 C54.995,17 17,55.08 17,102 C17,148.92 54.995,187 101.915,187 C148.92,187 187,148.92 187,102 C187,55.08 148.92,17 101.915,17 Z M160.82,68 L135.745,68 C133.025,57.375 129.115,47.175 124.015,37.74 C139.655,43.095 152.66,53.975 160.82,68 Z M102,34.34 C109.055,44.54 114.58,55.845 118.235,68 L85.765,68 C89.42,55.845 94.945,44.54 102,34.34 Z M36.21,119 C34.85,113.56 34,107.865 34,102 C34,96.135 34.85,90.44 36.21,85 L64.94,85 C64.26,90.61 63.75,96.22 63.75,102 C63.75,107.78 64.26,113.39 64.94,119 L36.21,119 Z M43.18,136 L68.255,136 C70.975,146.625 74.885,156.825 79.985,166.26 C64.345,160.905 51.34,150.11 43.18,136 L43.18,136 Z M68.255,68 L43.18,68 C51.34,53.89 64.345,43.095 79.985,37.74 C74.885,47.175 70.975,57.375 68.255,68 L68.255,68 Z M102,169.66 C94.945,159.46 89.42,148.155 85.765,136 L118.235,136 C114.58,148.155 109.055,159.46 102,169.66 Z M121.89,119 L82.11,119 C81.345,113.39 80.75,107.78 80.75,102 C80.75,96.22 81.345,90.525 82.11,85 L121.89,85 C122.655,90.525 123.25,96.22 123.25,102 C123.25,107.78 122.655,113.39 121.89,119 Z M124.015,166.26 C129.115,156.825 133.025,146.625 135.745,136 L160.82,136 C152.66,150.025 139.655,160.905 124.015,166.26 L124.015,166.26 Z M139.06,119 C139.74,113.39 140.25,107.78 140.25,102 C140.25,96.22 139.74,90.61 139.06,85 L167.79,85 C169.15,90.44 170,96.135 170,102 C170,107.865 169.15,113.56 167.79,119 L139.06,119 Z" id="Shape"></path>
                        </g>
                    </g>
                </g>
            </g>
        </g>
    </g>
</svg>