<?xml version="1.0" encoding="UTF-8"?>
<svg width="61px" height="61px" viewBox="0 0 61 61" version="1.1" xmlns="http://www.w3.org/2000/svg" xmlns:xlink="http://www.w3.org/1999/xlink">
    <title>icon-headhunt</title>
    <g id="Page-1" stroke="none" stroke-width="1" fill="none" fill-rule="evenodd">
        <g id="Sponsors-v2" transform="translate(-766.000000, -5196.000000)" fill="#FFFFFF" fill-rule="nonzero">
            <g id="Benefits" transform="translate(79.000000, 4427.000000)">
                <g id="Group-12" transform="translate(0.000000, 516.000000)">
                    <g id="Group-10" transform="translate(687.235902, 248.000000)">
                        <path d="M53.3817731,12.2297368 C44.5577555,3.40571924 30.1990661,3.40571924 21.3750485,12.2297368 C13.6776832,19.9271022 12.6954955,31.834454 18.4270607,40.6068975 L-2.35900188e-12,59.0339582 L6.57755173,65.6115099 L25.0046125,47.1844492 C33.7769989,52.9155016 45.6838379,51.9343967 53.3817731,44.2364614 C62.2057907,35.4124438 62.2063606,21.0543243 53.3817731,12.2297368 Z M46.7121275,41.3731889 C46.7162201,38.9342786 46.7190534,37.3816513 46.7121275,37.3212064 C46.4029802,32.4641789 42.2499258,28.6260101 37.299652,28.6324575 C32.3948327,28.6409577 28.3683177,32.437019 28.01129,37.2341658 C28.0037344,37.2924073 28.005938,38.8810065 28.0075121,41.3708517 C23.734785,38.4008324 20.9294982,33.4591821 20.9294982,27.8714969 C20.9294982,18.8112135 28.3006294,11.4401629 37.3608322,11.4401629 C46.4211156,11.4401629 53.7929722,18.8112941 53.7929722,27.8714969 C53.7929722,33.4598268 50.9870406,38.4026055 46.7118151,41.3724635 L46.7121275,41.3731889 Z M37.3600969,12.8947888 C33.3808094,12.8947888 30.1539398,16.1201272 30.1539398,20.1012683 C30.1539398,24.0824093 33.3808094,27.3087148 37.3600969,27.3087148 C41.3409961,27.3087148 44.5693971,24.0824899 44.5693971,20.1012683 C44.5693971,16.1201272 41.3409155,12.8947888 37.3600969,12.8947888 Z" id="icon-headhunt"></path>
                    </g>
                </g>
            </g>
        </g>
    </g>
</svg>