<?xml version="1.0" encoding="UTF-8"?>
<svg width="65px" height="60px" viewBox="0 0 65 60" version="1.1" xmlns="http://www.w3.org/2000/svg" xmlns:xlink="http://www.w3.org/1999/xlink">
    <title>Shape</title>
    <g id="Page-1" stroke="none" stroke-width="1" fill="none" fill-rule="evenodd">
        <g id="Sponsors-v2" transform="translate(-79.000000, -4951.000000)" fill="#FFFFFF" fill-rule="nonzero">
            <g id="Benefits" transform="translate(79.000000, 4427.000000)">
                <g id="Group-2" transform="translate(0.000000, 516.000000)">
                    <path d="M32.0963155,8.00467204 C29.8207806,8.06382621 27.5043826,8.66755597 25.3977686,9.88377461 C20.6297636,12.6365667 18.0856739,17.81783 18.3897436,22.9936248 C12.1767466,27.2926053 8.48644638,34.0855581 7.86688937,41.2317966 C7.5913097,41.3674741 7.31807364,41.4963432 7.04884578,41.6517432 C0.329867255,45.530795 -2.00173427,54.2351803 1.87569503,60.9511542 C5.75474684,67.6701327 14.4591321,70.0017343 21.175106,66.124305 C21.439887,65.9714889 21.6978655,65.8052962 21.9488011,65.6379257 C28.4586566,68.681507 36.200415,68.8808349 43.0389782,65.6379257 C47.3635582,68.4662545 53.096714,68.8691168 57.8506572,66.124305 C64.5696357,62.2452532 66.9012372,53.5408679 63.0238079,46.824894 C61.5839238,44.3308015 59.472923,42.4336711 57.054908,41.2318146 C56.7685297,37.7086325 55.7279383,34.2057618 53.8493165,30.9517354 C51.9723772,27.7004132 49.4397652,25.0450316 46.5318134,23.0375106 C46.7123263,20.3413259 46.1390948,17.5768157 44.6968791,15.0788172 C42.0351877,10.4687963 37.1161695,7.87428864 32.0954141,8.00469007 L32.0963155,8.00467204 Z M32.2730726,15.0787991 C34.7601342,15.0142474 37.1941339,16.2649113 38.5515707,18.616043 C40.5196106,22.0249285 39.3935913,26.2658593 35.9870494,28.2326974 C32.584774,30.1970116 28.3390358,29.0563897 26.370395,25.646122 C24.402355,22.2372365 25.5283743,17.9963057 28.9349163,16.0294676 C29.9926701,15.4189245 31.1360563,15.1083648 32.2731327,15.0787991 L32.2730726,15.0787991 Z M20.7995499,30.0677519 C24.9046108,36.095663 33.10656,38.0835336 39.5244735,34.3786909 C41.4244283,33.2817565 42.944356,31.7815392 44.1006621,30.0677519 C45.4945152,31.3017581 46.7160821,32.7778181 47.7041283,34.4892617 C48.6839417,36.1864032 49.3406962,37.9828781 49.7158557,39.7950373 C47.6687336,39.9501969 45.6150013,40.5386859 43.7249017,41.6299716 C37.309392,45.3339129 34.9158948,53.4303992 38.0874738,60.0009485 C34.3544476,61.2716112 30.3949916,61.2314692 26.8128584,60.023014 C28.7632912,55.949622 28.7597457,51.0012785 26.3485452,46.8248273 C23.9356982,42.6455517 19.6632187,40.1557258 15.1622662,39.8168023 C15.9063957,36.1171276 17.8410841,32.6615499 20.7996941,30.0673427 L20.7995499,30.0677519 Z M50.6001817,46.8252365 C53.0872433,46.7606848 55.521243,48.0113487 56.8786798,50.3624803 C58.8467198,53.7713659 57.7207004,58.0122967 54.3141585,59.9791348 C50.9118831,61.943449 46.6661449,60.8028271 44.6975041,57.3925594 C42.7294641,53.9836739 43.8554834,49.7427431 47.2620254,47.775905 C48.3197792,47.1653619 49.4631654,46.8548022 50.6002418,46.8252365 L50.6001817,46.8252365 Z M13.92433,46.847302 C16.4254534,46.7822816 18.8486364,48.0167684 20.2028282,50.3622514 C22.1708681,53.771137 21.0448488,58.0120677 17.6383069,59.9789058 C14.2294213,61.9469458 9.98849052,60.8209265 8.02165243,57.4143845 C6.05361248,54.005499 7.1796318,49.7645682 10.5861737,47.7977301 C11.6439276,47.187187 12.7873137,46.8766273 13.9243901,46.8470616 L13.92433,46.847302 Z" id="Shape"></path>
                </g>
            </g>
        </g>
    </g>
</svg>