<?xml version="1.0" encoding="UTF-8"?>
<svg width="71px" height="23px" viewBox="0 0 71 23" version="1.1" xmlns="http://www.w3.org/2000/svg" xmlns:xlink="http://www.w3.org/1999/xlink">
    <!-- Generator: Sketch 57.1 (83088) - https://sketch.com -->
    <title>“”</title>
    <desc>Created with Sketch.</desc>
    <g id="Page-1" stroke="none" stroke-width="1" fill="none" fill-rule="evenodd">
        <g id="Content" transform="translate(-369.000000, -5352.000000)" fill="#FFFFFF" fill-rule="nonzero">
            <g id="Quote-styles" transform="translate(303.000000, 4482.000000)">
                <g id="Group" transform="translate(50.000000, 870.000000)">
                    <g id="“”" transform="translate(16.429688, 0.000000)">
                        <path d="M0,21.953125 L0,13.7109375 C0,9.8046875 0.930989583,6.71875 2.79296875,4.453125 C4.65494792,2.1875 7.36979167,0.703125 10.9375,0 L10.9375,4.0625 C8.28125,4.89583333 6.49739583,6.328125 5.5859375,8.359375 C5.1171875,9.42708333 4.921875,10.5338542 5,11.6796875 L11.1328125,11.6796875 L11.1328125,21.953125 L0,21.953125 Z M29.453125,4.0625 C26.8229167,4.86979167 25.0520833,6.328125 24.140625,8.4375 C23.6197917,9.55729167 23.4114583,10.6380208 23.515625,11.6796875 L29.6484375,11.6796875 L29.6484375,21.953125 L18.515625,21.953125 L18.515625,13.7109375 C18.515625,9.75260417 19.4726562,6.65364583 21.3867188,4.4140625 C23.3007812,2.17447917 25.9895833,0.703125 29.453125,0 L29.453125,4.0625 Z" id="Shape"></path>
                        <path d="M40.46875,11.015625 L40.46875,0.7421875 L51.6015625,0.7421875 L51.6015625,8.984375 C51.6015625,12.8125 50.6705729,15.8854167 48.8085938,18.203125 C46.9466146,20.5208333 44.2317708,22.0182292 40.6640625,22.6953125 L40.6640625,18.59375 C43.2942708,17.7604167 45.0651042,16.328125 45.9765625,14.296875 C46.4713542,13.2291667 46.6796875,12.1354167 46.6015625,11.015625 L40.46875,11.015625 Z M67.3046875,18.0859375 C65.4817708,20.4557292 62.7473958,21.9921875 59.1015625,22.6953125 L59.1015625,18.59375 C61.7838542,17.7864583 63.5677083,16.3020833 64.453125,14.140625 C64.8177083,13.28125 65,12.2395833 65,11.015625 L58.90625,11.015625 L58.90625,0.7421875 L70,0.7421875 L70,8.984375 C70,12.7083333 69.1015625,15.7421875 67.3046875,18.0859375 Z" id="Shape"></path>
                    </g>
                </g>
            </g>
        </g>
    </g>
</svg>