<?xml version="1.0" encoding="UTF-8"?>
<svg width="58px" height="60px" viewBox="0 0 58 60" version="1.1" xmlns="http://www.w3.org/2000/svg" xmlns:xlink="http://www.w3.org/1999/xlink">
    <title>icon-newbusiness</title>
    <g id="Page-1" stroke="none" stroke-width="1" fill="none" fill-rule="evenodd">
        <g id="Sponsors-v2" transform="translate(-770.000000, -5342.000000)" fill="#FFFFFF" fill-rule="nonzero">
            <g id="Benefits" transform="translate(79.000000, 4427.000000)">
                <g id="Group-12" transform="translate(0.000000, 516.000000)">
                    <g id="Group-11" transform="translate(691.000000, 394.000000)">
                        <path d="M5.80780335,31.0641226 L12.9062151,34.0074648 C12.105859,36.0281154 11.4674099,38.1091433 10.9969361,40.2308137 L10.7276248,41.4546778 L20.9040548,51.6372271 L22.1279189,51.3740862 C24.2497423,50.9035818 26.3307702,50.2653673 28.3512679,49.4649602 L31.29461,56.5633719 L31.2948092,56.5633719 C31.3533711,56.7061969 31.4798626,56.8101743 31.6314534,56.8396593 C31.7830443,56.8693395 31.9394133,56.8205364 32.0473735,56.7101795 L36.4960175,52.2615355 L36.4962167,52.2615355 C37.9642926,50.7934595 38.7425682,48.7726049 38.6379788,46.6990732 L38.4788204,43.8414015 C46.7154258,37.7587969 55.0499403,27.0928213 57.3202082,8.47784835 C57.4506823,7.53185239 57.1319677,6.57912519 56.4585059,5.90202237 C55.7850237,5.22497055 54.8340813,4.90105452 53.8872694,5.02655159 C35.2784158,7.31512646 24.6063208,15.6558113 18.5237163,23.8679394 L15.6720109,23.7211318 L15.6722102,23.7211318 C13.6031659,23.6083884 11.5829232,24.3752872 10.1097478,25.8321954 L5.66110381,30.2808394 C5.53561184,30.3876113 5.47684597,30.5533429 5.50712641,30.7150868 C5.53760368,30.8770346 5.65234298,31.0102981 5.80791141,31.0642807 L5.80780335,31.0641226 Z M34.3483142,20.2206867 C35.3821224,19.1904481 36.7826818,18.6125803 38.2421908,18.6143609 C39.7016997,18.6159586 41.1008823,19.1970264 42.1324978,20.2296617 C43.1639602,21.262297 43.7432049,22.6622446 43.7432049,24.1217535 C43.7432049,25.5812625 43.1639602,26.981006 42.1324978,28.0138453 C41.1008823,29.0464807 39.7016997,29.6273572 38.2421908,29.6291453 C36.7826818,29.6307355 35.3821224,29.0530589 34.3483142,28.0228203 C33.3112933,26.9893691 32.728428,25.585648 32.728428,24.1217535 C32.728428,22.6576551 33.3112933,21.253934 34.3483142,20.2206867 Z M4.4799108,52.4511478 C3.30183962,52.0378132 2.03697607,51.9366149 0.808318502,52.1573337 C0.586212665,52.2053403 0.355147123,52.1360196 0.196386452,51.9738714 C-0.00221099539,51.7760694 -0.0559947231,51.4754833 0.0617308044,51.221093 C1.36509508,48.4185971 4.82251116,42.78255 11.082627,47.3353754 C11.1487616,47.3945391 11.1864107,47.4791948 11.1864107,47.5678382 C11.1864107,47.6566806 11.1487626,47.7413363 11.082627,47.8004999 C9.38288377,49.1391012 8.42174249,51.2067686 8.49405246,53.3690815 C8.50341451,53.6286325 8.71177279,53.8369954 8.97132886,53.8463579 C11.1242588,53.9330075 13.1907023,52.9928147 14.5399105,51.3129593 C14.599273,51.2404504 14.6879114,51.198222 14.7817359,51.198222 C14.8753564,51.198222 14.9641987,51.2404514 15.0233623,51.3129593 C15.8922549,52.3471754 18.2850112,55.7249893 15.6352944,58.9865872 C14.4785388,60.3769988 12.8212229,61.2562431 11.0213267,61.4343154 C8.45131411,61.7096032 3.70261941,62.5480317 1.76279481,64.7632767 C1.60403414,64.9511194 1.35484011,65.0365758 1.11419784,64.9853825 C0.873555558,64.9341893 0.680745968,64.7547148 0.612423754,64.5184682 C-0.0729911358,62.1808878 -1.13770191,56.9549881 4.47983431,52.4511682 L4.4799108,52.4511478 Z" id="icon-newbusiness"></path>
                    </g>
                </g>
            </g>
        </g>
    </g>
</svg>