<?xml version="1.0" encoding="UTF-8"?>
<svg width="60px" height="60px" viewBox="0 0 60 60" version="1.1" xmlns="http://www.w3.org/2000/svg" xmlns:xlink="http://www.w3.org/1999/xlink">
    <title>icon-target</title>
    <g id="Page-1" stroke="none" stroke-width="1" fill="none" fill-rule="evenodd">
        <g id="Sponsors-v2" transform="translate(-81.000000, -5092.000000)" fill="#FFFFFF">
            <g id="Benefits" transform="translate(79.000000, 4427.000000)">
                <g id="Group-12" transform="translate(0.000000, 516.000000)">
                    <g id="Group-3" transform="translate(2.000000, 141.000000)">
                        <path d="M42.325783,33.9516461 C44.9841104,39.9374936 43.8617154,47.1982849 38.9509317,52.1064021 C32.5817677,58.4755661 22.2572224,58.4755661 15.8880584,52.1064021 C9.52167208,45.7372382 9.52167208,35.4126928 15.8880584,29.0435289 C20.7988421,24.1353006 28.0541893,23.0132389 34.0428145,25.6686775 L28.3291772,31.3850924 C25.6181299,31.118393 22.8793061,32.0599516 20.8906159,34.0459752 C17.2853302,37.6512609 17.2853302,43.5011144 20.8906159,47.1092889 C24.4959016,50.7145745 30.3457551,50.7145745 33.9511518,47.1092889 C35.9400087,45.120432 36.8815783,42.3790527 36.6120347,39.6707275 L42.325783,33.9516461 Z M35.4371975,14.3441762 C32.9013092,13.5692659 30.2095388,13.1526175 27.4208839,13.1526175 C24.6321733,13.1526175 21.9406807,13.5692659 19.4045702,14.3441762 L19.3908991,14.3498182 L19.0102715,14.4691685 L18.8019473,14.5386098 C18.6769528,14.5774537 18.5519583,14.6219395 18.4269638,14.6664264 L18.2631266,14.7219795 C18.1324879,14.7692863 18.0020714,14.8163754 17.8714327,14.8636844 L17.7075955,14.9246651 C17.432652,15.0303437 17.1603085,15.1386334 16.8910203,15.2497396 L16.829823,15.2746952 C16.7048285,15.3274273 16.5854782,15.3803739 16.4633003,15.4331104 L16.2799306,15.513618 C16.1688244,15.5609248 16.0605402,15.610836 15.954856,15.6607449 L15.7187553,15.7718511 L15.3993249,15.9246221 L15.2159552,16.013596 C14.8160173,16.2136761 14.4243234,16.4220002 14.0354516,16.6414017 L13.8826806,16.7247313 L13.5382958,16.9245948 L13.3800972,17.0192073 C13.2661689,17.0858266 13.1522405,17.1552679 13.0411343,17.2247093 L12.8772971,17.3247494 C12.7661909,17.3941908 12.6579067,17.4636321 12.5468005,17.5358956 L12.3773191,17.6470018 C12.1466459,17.7995562 11.919006,17.9551494 11.6911271,18.1135591 L11.6301465,18.1552239 C11.5162181,18.2357315 11.4051119,18.316239 11.2940057,18.3967522 L11.1551229,18.4967922 L10.8439366,18.7300708 L10.6744552,18.863526 L10.3856235,19.0885606 L10.2246083,19.2189826 C10.1245683,19.2994902 10.0245283,19.3773979 9.92731033,19.4579054 C9.78842756,19.5746558 9.65236688,19.6883619 9.51630621,19.8051124 L9.22183029,20.0661675 L9.0911916,20.1829179 L8.81624815,20.4329069 L8.62745646,20.6106324 L8.40806612,20.8161345 L8.18020949,21.041169 L7.97188533,21.243849 C7.87748949,21.3384615 7.78569353,21.4382849 7.69129769,21.5328974 L7.57194739,21.6550698 L7.43588671,21.8021966 L7.18589772,22.0717181 L6.97192937,22.3078188 L6.77749348,22.5272092 L6.5830576,22.7522437 L6.38862172,22.9798837 L6.19136374,23.2216286 L5.99692786,23.4605514 L5.82202445,23.6827638 C5.70245749,23.8298907 5.58874583,23.9826617 5.47481752,24.1326162 L5.32486856,24.338335 L5.12761058,24.6076398 L4.95530706,24.8493847 L4.77475946,25.1104398 L4.61656087,25.3437185 L4.42755252,25.6299447 L4.28584765,25.8521572 C4.18320217,26.0131723 4.08316769,26.1715876 3.98312765,26.3354248 L3.89437045,26.4825516 L3.67215801,26.8603572 L3.55259105,27.0630372 L3.36097727,27.4130662 L3.25811513,27.60468 L3.06650135,27.9631698 L2.96928341,28.1547836 C2.89159794,28.3047325 2.81651236,28.4546815 2.74424887,28.6074525 L2.69715873,28.6992429 C2.60818487,28.8880346 2.51943322,29.0796539 2.43328146,29.2686623 L2.38597465,29.3741243 C2.31653326,29.5240733 2.25273607,29.6740222 2.18611123,29.8267933 L2.11384775,30.0019133 C2.05547254,30.1407961 1.99709733,30.282501 1.94154422,30.4239892 L1.87492493,30.5934706 C1.81654973,30.7408141 1.76099662,30.8879465 1.70544351,31.0350734 L1.65271139,31.1796004 C1.5804479,31.3768583 1.51100652,31.5741163 1.44156513,31.7739631 L1.42485586,31.8266952 C1.36669731,32.0018153 1.30832211,32.1795463 1.252769,32.3572718 L1.19439379,32.5434636 C1.14990797,32.6879906 1.10824203,32.8322953 1.0665772,32.9740002 L1.01384508,33.1573699 C0.969359257,33.3157852 0.924871216,33.4768003 0.883206384,33.6352155 L0.849787856,33.76021 C0.744325833,34.1712142 0.647107892,34.5906735 0.56095613,35.010155 L0.530358589,35.1601039 C0.496940061,35.3239412 0.466561398,35.4851785 0.438784844,35.6461937 L0.408187302,35.8100309 C0.377589761,35.9766902 0.349812095,36.1433495 0.324857639,36.312831 L0.302723058,36.4545358 C0.272125516,36.6517938 0.244347851,36.8490518 0.219393394,37.0460653 L0.21375142,37.0905512 C0.185974866,37.3127636 0.158198311,37.534976 0.138665838,37.7571885 L0.130419534,37.8322741 C0.11371027,38.0184659 0.0970010061,38.2044354 0.0805083991,38.3906384 L0.0666201218,38.5989625 C0.0555528314,38.7489115 0.044485541,38.8988604 0.0388435672,39.0516315 L0.0277762768,39.2517115 C0.0195299733,39.4155488 0.0138879995,39.579386 0.00824602576,39.7434454 L0.00260405199,39.9183489 C0.00282104244,40.1375225 0,40.3569129 0,40.5763199 L0.00282104244,40.784644 C0.00282104244,40.9207047 0.00282104244,41.0567654 0.0084630162,41.1902262 L0.0167093197,41.5096566 L0.030597597,41.8401531 L0.0473068612,42.1652277 L0.0668371122,42.4651256 L0.0917926799,42.8040884 L0.119569235,43.1263409 L0.147345789,43.4262388 C0.16948037,43.6234968 0.191831608,43.8233547 0.213965078,44.0177683 L0.247383606,44.2705794 L0.300115728,44.6427408 L0.34178056,44.9148622 L0.400155767,45.2759574 L0.450066903,45.5593671 L0.511264208,45.8759754 L0.569639415,46.1758733 C0.597415969,46.306512 0.625192524,46.4341064 0.652969079,46.561923 L0.75018702,46.9813934 C0.780784561,47.1035658 0.808562227,47.2257382 0.839160879,47.3481328 L0.911424364,47.6230762 L0.994754027,47.9342625 L1.07808369,48.2287384 L1.17530163,48.5481688 L1.2586313,48.8231123 L1.35584924,49.1204103 L1.44742298,49.40382 C1.50579819,49.5787234 1.56677328,49.7482049 1.62797059,49.9205084 L1.63361256,49.9372177 L1.74754088,50.2371156 L1.85040301,50.5092369 L1.96715343,50.7980686 L2.08108174,51.0758342 L2.20889834,51.3785542 L2.32000456,51.6341874 L2.44499905,51.9175971 C2.52550662,52.0925005 2.60601418,52.264804 2.68674396,52.4371076 L2.7839619,52.6371876 C2.84233711,52.751116 2.89789022,52.8650443 2.95626543,52.9787504 L3.0979703,53.2508717 L3.22860899,53.4980386 L3.38420214,53.7868703 L3.51484083,54.0229711 L3.68714435,54.322869 L3.78718439,54.4923504 C3.91217889,54.7006746 4.03717338,54.9089987 4.16781207,55.1173229 L4.27609619,55.2896264 C4.3344714,55.3840222 4.39826859,55.4784181 4.4594659,55.5730361 L4.60659275,55.7952486 C4.66779006,55.8868223 4.73158725,55.9786183 4.79538444,56.0730141 L4.93991141,56.2813383 L5.14259137,56.57017 L5.26194167,56.7368293 C5.33702725,56.8422914 5.41471272,56.9451535 5.49239819,57.0480156 C5.60068231,57.1925426 5.70896643,57.3340253 5.82007265,57.472908 L5.82289369,57.47855 L6.02557365,57.7313611 L6.1839889,57.925797 L6.42291171,58.2146287 L6.55897238,58.3784659 L6.80896138,58.6644756 L6.93960007,58.8144245 C7.02575183,58.9116424 7.11450348,59.0088604 7.20347734,59.1060783 L7.27009662,59.1783418 C7.48666487,59.4116204 7.70627742,59.6394771 7.92851207,59.8670893 L7.95628863,59.8948658 C8.05632867,59.9949059 8.15896859,60.0975458 8.26183073,60.1975858 L8.37293695,60.3030478 L8.65352459,60.5725693 L8.81453972,60.7225183 L9.10054935,60.9835734 L9.19494519,61.0669031 C9.54497422,61.3780894 9.90324733,61.6836537 10.270009,61.9753075 L10.3782931,62.0614593 C10.4922214,62.1504332 10.6033276,62.2391848 10.7172559,62.3281587 L10.8283622,62.4114883 C10.9394684,62.494818 11.0533967,62.5809697 11.167325,62.6642994 L11.2951416,62.7586953 C11.6868355,63.0447049 12.0839402,63.3170596 12.4923667,63.58377 L12.5450988,63.6197929 L12.8884003,63.8309391 L13.0383493,63.925335 C13.1576996,63.9975985 13.2800942,64.0724618 13.4022666,64.1447253 L13.5023066,64.2031005 C13.6355452,64.280786 13.769006,64.3615158 13.9022446,64.4363792 L13.9521557,64.4641557 C14.3744482,64.7030785 14.8021738,64.9281131 15.2380991,65.1446813 L15.388048,65.2197669 L15.7491432,65.3946703 L15.9158026,65.4697559 C16.0464413,65.5281311 16.1768577,65.5891062 16.3103185,65.6474814 L16.3908261,65.6835042 C16.8602054,65.8890063 17.3352289,66.0862643 17.8213186,66.2639787 L17.8547372,66.2778669 C17.9936199,66.3305991 18.1325027,66.377907 18.2713855,66.430638 L18.4241565,66.4861911 C18.5573951,66.5334979 18.6908559,66.575165 18.8269166,66.6222518 L18.9686215,66.6695586 C21.6295043,67.533465 24.4712125,68 27.421027,68 C30.3710082,68 33.209661,67.5334428 35.8734326,66.6695586 L36.0179595,66.6222518 C36.1511981,66.574945 36.287481,66.5332779 36.4207196,66.4861911 L36.5734906,66.430638 L36.9929611,66.2778669 L37.0263796,66.2639787 C37.5042252,66.0890753 37.9764489,65.8946394 38.4401507,65.6888929 L38.5430128,65.6444071 C38.6680073,65.5860319 38.7958239,65.5304788 38.9208184,65.4695037 L39.0985439,65.3889961 L39.456817,65.2166926 L39.609588,65.141607 C40.0373025,64.9276386 40.4624394,64.7054262 40.8790877,64.4693033 L40.945707,64.4304594 L41.3428228,64.2000029 L41.4428629,64.1416277 C41.5650353,64.0693642 41.6872077,63.9945008 41.8096023,63.9222374 L41.9595512,63.8278415 C42.0763016,63.755578 42.1956519,63.6778926 42.3124024,63.6056291 L42.3651345,63.5696062 C42.7707166,63.3029068 43.1706546,63.0307855 43.5651927,62.7445314 L43.6930093,62.6501356 L44.0235059,62.4029687 L44.1541446,62.3029287 L44.4653309,62.0585839 L44.626346,61.9307673 C44.9735529,61.6501796 45.312538,61.3641811 45.6430235,61.0668609 L45.7597739,60.9639987 L46.0347173,60.7140097 L46.2124428,60.5417062 L46.4652539,60.3027834 L46.6236692,60.1500124 C46.712643,60.0638606 46.8013947,59.9751089 46.8903685,59.8861351 L47.015363,59.7583185 C47.1959106,59.5721267 47.3792803,59.3805129 47.5570058,59.1888991 L47.6542238,59.0834371 C47.7375534,58.9918634 47.8237052,58.9000674 47.9042128,58.8056716 L48.0598059,58.6307681 L48.2848405,58.3668909 L48.4432557,58.1835212 L48.6737122,57.9057556 L48.8293054,57.7113197 L49.0319853,57.4613308 L49.0348064,57.4530845 C49.1459126,57.3113796 49.2541967,57.1696747 49.3624808,57.0281921 L49.5569167,56.7643148 L49.723576,56.5338583 L49.8984795,56.2895135 L50.0790271,56.0284583 L50.2374423,55.7951797 L50.426234,55.506348 L50.5679389,55.2869576 C50.6373802,55.1758514 50.7096437,55.0647452 50.7790851,54.9508169 C50.8541707,54.8258224 50.9318562,54.6980058 51.0069417,54.5730113 L51.1764232,54.2896015 L51.318128,54.0424346 L51.4819653,53.7479587 L51.612604,53.5090359 L51.7792633,53.1952497 L51.8903695,52.9812814 C51.9654551,52.8313324 52.0403185,52.6839834 52.1125819,52.5312123 L52.1598888,52.4396386 C52.2488626,52.2562689 52.3347922,52.0728992 52.4181218,51.8897517 L52.5070957,51.6896716 C52.5598278,51.5757433 52.6071357,51.461815 52.6570446,51.3452868 L52.7625067,51.0952978 L52.9013894,50.7563349 L52.9957853,50.5202342 C53.0402711,50.4034838 53.0847591,50.2841335 53.1290239,50.1673831 L53.2123535,49.9451706 C53.2789728,49.7618009 53.3455921,49.5758313 53.4067894,49.3896395 L53.4762308,49.1756712 L53.5955811,48.8089318 L53.6732666,48.5506987 L53.7787286,48.1978476 L53.84817,47.9506807 L53.9510321,47.5618089 L54.0065852,47.3563069 C54.051071,47.1896475 54.0899149,47.0229882 54.1287576,46.8563289 L54.1537132,46.7562888 L54.1593551,46.7395796 C54.203841,46.5423216 54.2455069,46.3450636 54.2871717,46.1480501 L54.3316576,45.9201934 C54.3594341,45.7869549 54.3872107,45.6534941 54.409343,45.5174334 L54.4510079,45.2923989 C54.4759634,45.150694 54.4983147,45.0063892 54.5204492,44.8646844 L54.5538678,44.6563602 C54.5788233,44.4953451 54.6011746,44.3397519 54.617665,44.1813367 L54.6397995,44.0257435 C54.6675761,43.8174194 54.6925317,43.6090952 54.712063,43.3951046 L54.7287723,43.2089128 C54.7426606,43.061786 54.7565489,42.917259 54.7704371,42.7673101 L54.7899674,42.4951887 L54.812102,42.1173831 L54.8288112,41.8535059 C54.8344532,41.7174452 54.8398785,41.5785624 54.8455205,41.4425017 L54.8511625,41.1953348 C54.8568044,40.9841886 54.8594088,40.7730423 54.8594088,40.5593073 C54.8594088,40.3453389 54.8565877,40.1344149 54.8511625,39.9232797 L54.8455205,39.678935 C54.8398785,39.5400522 54.8344532,39.4011694 54.8288112,39.2679308 L54.812102,39.0040536 L54.7899674,38.6290701 L54.7704371,38.3541266 C54.7565489,38.2069998 54.7426606,38.0596507 54.7287723,37.9125239 L54.712063,37.7263321 C54.6899285,37.5151858 54.6647562,37.3040395 54.6397995,37.0931377 L54.6202693,36.9514328 C54.5981347,36.7875956 54.5757835,36.6263583 54.55365,36.4653431 L54.5202315,36.2598411 L54.4507901,35.8293045 L54.4091253,35.6042699 L54.3314398,35.2015099 L54.286954,34.9764754 C54.2452891,34.7763953 54.2036243,34.5793595 54.1591374,34.3849459 L54.1534954,34.3682366 L54.1285398,34.2681966 C54.089696,34.0987151 54.0508544,33.9320558 54.0063674,33.7653965 L53.9536353,33.5681385 L53.8453512,33.1653785 L53.7787319,32.9264556 L53.6704478,32.5653604 L53.5981843,32.3210156 C53.5536985,32.184955 53.5092104,32.0488943 53.4649457,31.9154335 L53.4065705,31.74313 C53.3427733,31.5543383 53.2759318,31.3681465 53.2093125,31.1819325 L53.1259829,30.95972 C53.0814971,30.8403697 53.037009,30.7207972 52.9899222,30.604269 L52.9037704,30.3792345 L52.7538215,30.0209614 L52.6451041,29.8046098 L52.5728406,29.6379505 L47.1481906,29.1351504 L45.9427437,30.3379863 L45.9815875,30.4074277 L46.0399627,30.5157118 C46.1122262,30.6517725 46.1870896,30.7878332 46.2565309,30.924116 L46.2981958,31.0074457 C46.356571,31.121374 46.4121241,31.2353023 46.4676772,31.3490084 L46.5260524,31.4629368 C46.5844276,31.5822871 46.6371586,31.7018596 46.6927117,31.8212099 L46.7261303,31.8906513 C46.7899275,32.0323561 46.8539469,32.1766609 46.914922,32.3211879 L46.9205639,32.3407181 L46.9288102,32.3546064 C46.9871854,32.4934892 47.0427385,32.6323719 47.1011138,32.7712547 L47.1510249,32.8990713 L47.2621311,33.1907251 L47.3287504,33.3740948 L47.4287904,33.6575046 L47.503876,33.8853612 C47.5427199,34.0021116 47.5789616,34.1186398 47.6178043,34.2353902 L47.6677155,34.3909834 L47.7510451,34.6854593 L47.8037773,34.8631848 L47.8927511,35.1882594 L47.9261696,35.3132539 C47.9650135,35.4603807 47.9984331,35.6077298 48.0344538,35.7576787 L48.0704766,35.916094 L48.1370959,36.2298802 L48.1705144,36.3937174 L48.2371337,36.7352801 L48.2620893,36.8713408 C48.2870449,37.0212898 48.3148214,37.1740608 48.3371749,37.3240098 L48.3593095,37.482425 L48.4037953,37.7936113 L48.4287508,37.9908693 L48.4647737,38.2853452 L48.484304,38.476959 C48.5010132,38.6240859 48.5120805,38.7714349 48.5259688,38.9213839 L48.5287898,38.9491604 L48.5316109,39.0214239 C48.5426782,39.1520626 48.5511411,39.279657 48.5593874,39.4102957 L48.5676337,39.6075537 L48.578701,39.8853192 L48.5869473,40.1185978 L48.5897684,40.4241399 L48.5897684,40.576911 C48.5897684,40.7492145 48.5897684,40.9158738 48.5841264,41.085133 L48.5813054,41.1879952 C48.5784843,41.3297 48.5702381,41.4657607 48.5645961,41.6018214 L48.5589542,41.7101055 C48.5422449,42.0490684 48.5144683,42.3824092 48.4838686,42.7157279 L48.4756223,42.7962355 C48.461734,42.9322961 48.4422037,43.0711789 48.4257111,43.2046397 L48.4118229,43.318568 C48.3922926,43.4602729 48.372979,43.6019777 48.3534477,43.7408605 L48.3423804,43.8103019 C48.3174248,43.9741391 48.2896482,44.1353765 48.2646949,44.2963916 L48.2371356,44.3873154 C48.21218,44.520554 48.1872244,44.6540148 48.16205,44.7872533 L48.1370944,44.8983596 C48.1093179,45.0315981 48.0787192,45.1622368 48.0509426,45.2954754 L48.0342334,45.3816272 C47.9591478,45.6982354 47.8758181,46.0148215 47.7898886,46.3288632 L47.759291,46.4260812 C47.7204472,46.5593197 47.6842055,46.6927805 47.6425406,46.823197 L47.620406,46.8954605 C47.5704949,47.0510536 47.5231881,47.2038247 47.4704571,47.3565957 L47.4676361,47.364842 C47.4120829,47.5204352 47.3593519,47.6703841 47.3037988,47.8259773 L47.2703803,47.909307 L47.1371417,48.259336 L47.0898349,48.3786863 C46.9704846,48.6759843 46.8454901,48.973049 46.7148514,49.2618696 L46.6814329,49.3341331 C46.6230577,49.4563055 46.5675046,49.5784779 46.5091294,49.7008725 L46.4646436,49.7898464 C46.3980243,49.925907 46.3285829,50.0647898 46.2619636,50.1982506 L46.2563216,50.2093179 C46.181236,50.3564447 46.1035506,50.4981496 46.0258651,50.6426766 L45.9870213,50.7092959 C45.925824,50.8232242 45.8620268,50.9371525 45.8008295,51.0482587 L45.7370323,51.1593649 L45.5482406,51.4816174 L45.4955085,51.5677692 C45.4150009,51.7010078 45.3316712,51.8316465 45.2483416,51.9622851 L45.2066767,52.0234824 C45.1344132,52.1374108 45.0567278,52.2513391 44.9844643,52.3624453 L44.9260891,52.4485971 C44.8566477,52.5540591 44.7815621,52.6569212 44.7095208,52.7623832 L44.6511456,52.8457129 C44.4677759,53.103946 44.2761622,53.3567571 44.0845595,53.6039017 L44.0261843,53.6761652 C43.9484988,53.7733832 43.8705911,53.8706011 43.7929057,53.9649969 L43.7152202,54.0593928 C43.5179622,54.2983156 43.3124601,54.5344163 43.104136,54.7620285 L43.0290504,54.8453582 C42.9485428,54.934332 42.8652132,55.0230837 42.7818835,55.1120575 L42.6985538,55.2010314 C42.5930918,55.3093155 42.4902297,55.4149998 42.3847677,55.5204618 L42.3791257,55.5261038 C42.2680195,55.6400321 42.1540912,55.7511383 42.037563,55.8594224 L41.9624774,55.9316859 C41.8763256,56.0121935 41.787574,56.0983452 41.695778,56.1788528 L41.6013822,56.2650046 L41.3207945,56.5121714 L41.2457089,56.5787907 C41.1317806,56.6760087 41.0178523,56.7732266 40.9041462,56.8676225 L40.7986842,56.9537742 L40.5348069,57.1649205 L40.4265228,57.2510722 C40.3293049,57.3261578 40.2292648,57.4038433 40.1292248,57.4789289 L40.0597834,57.534482 C39.937611,57.6234558 39.8126165,57.7122075 39.6904441,57.8040034 L39.5710938,57.884511 L39.3128607,58.0650586 L39.1683338,58.1594545 L38.9072786,58.331758 L38.7712179,58.4207318 L38.4823862,58.5984573 L38.3908124,58.6568326 L38.3879913,58.6568326 L38.3074838,58.7067437 C38.2074437,58.767941 38.1048038,58.8317382 37.9991196,58.8901134 L37.8602368,58.9677989 L37.5824713,59.1205699 L37.4492327,59.1928334 L37.115914,59.3677368 L37.0521168,59.4037597 L37.0243403,59.4176479 C36.8937016,59.4842672 36.7632851,59.5508865 36.6326464,59.6120838 L36.4798754,59.6815252 L36.2216423,59.8036976 L36.0467389,59.8813831 L35.7273085,60.0230879 L35.6329127,60.0619318 C33.1080794,61.1313291 30.3332572,61.7203032 27.4193855,61.7203032 C24.5085137,61.7203032 21.7363024,61.1313291 19.2114136,60.0675982 L19.0864191,60.0120451 L18.7919432,59.8842285 L18.6142177,59.8037209 L18.3559846,59.6815485 L18.2060356,59.6121072 C18.0727971,59.54831 17.9421584,59.4814685 17.8089198,59.4176713 L17.6921694,59.356474 C17.5893073,59.3037418 17.4866673,59.2510119 17.3866273,59.1926367 L17.2505666,59.1203733 L16.9949334,58.9758463 L16.8282741,58.8814504 C16.7310562,58.8258973 16.6366603,58.7703442 16.5394424,58.7091469 L16.4478686,58.6535938 L16.3534728,58.5952186 L16.0646411,58.4174931 L15.9285804,58.3285192 L15.6675252,58.1562157 L15.5229982,58.0589978 L15.2951416,57.9005825 L15.097017,57.775588 C14.996977,57.7033245 14.894337,57.6284612 14.7971191,57.5561977 L14.688835,57.4756901 L14.4303853,57.27561 L14.2915025,57.1673259 L14.0749342,56.9924225 L13.9278074,56.8702501 C13.8195233,56.7812763 13.713839,56.6925246 13.608377,56.6007287 L13.4916266,56.4978665 L13.2555259,56.2867203 L13.1305314,56.175614 L12.8861866,55.9451575 L12.8028569,55.8700719 C12.6917507,55.7646099 12.5806445,55.6561036 12.4723604,55.5478195 L12.4111631,55.4840223 L12.1611741,55.2283891 L12.0472458,55.1062167 L11.8137505,54.8590498 L11.7332429,54.772898 C11.5249188,54.5424415 11.3222388,54.3089407 11.1249919,54.0702623 L11.0444844,53.9730444 L10.830516,53.706345 L10.7415421,53.5952388 C10.6553904,53.4841326 10.5692386,53.3730264 10.485909,53.259098 L10.4663787,53.2341425 L10.4555286,53.2202542 C10.3639549,53.0980818 10.274981,52.9759094 10.1860072,52.8509149 L10.127632,52.7675852 L9.90824161,52.4537991 L9.84986641,52.3676473 C9.77478083,52.2565411 9.69991746,52.1426128 9.62765397,52.0286844 L9.58598914,51.9674871 C9.50265948,51.8368484 9.42215191,51.706432 9.34164434,51.5729712 L9.28891222,51.4868194 L9.09729844,51.1645669 L9.03350125,51.0506386 L8.86684192,50.7561627 L8.79740053,50.6311682 C8.72513705,50.4979296 8.65569566,50.3616467 8.58625428,50.2284082 L8.54176846,50.1370511 C8.48621535,50.028767 8.43066224,49.9204828 8.37793123,49.8119765 L8.31131194,49.6759158 C8.25857982,49.5619875 8.20584992,49.4508813 8.15571879,49.336953 L8.11969593,49.2592675 C8.05589874,49.1175626 7.99187934,48.9732579 7.93090425,48.831553 L7.92526227,48.8120228 L7.9196203,48.7981345 C7.86124509,48.6592517 7.80569198,48.5203689 7.74731678,48.3814862 L7.69740564,48.2536696 L7.58065523,47.9426999 L7.5279231,47.8009951 C7.4806163,47.6731785 7.43634936,47.5453619 7.39468453,47.4177675 L7.37515428,47.3593923 L7.37233323,47.351146 L7.36669126,47.3316157 C7.31938445,47.192733 7.27229542,47.0510281 7.23063058,46.9121453 L7.19178674,46.7843287 C7.15576388,46.6649784 7.11952326,46.5454059 7.08350262,46.4260556 L7.05290508,46.3205936 C7.01688222,46.187355 6.98064159,46.0538942 6.94462096,45.9206556 L6.92791169,45.8594583 L6.91966539,45.8234355 C6.88364253,45.6817306 6.84740191,45.5374259 6.81420337,45.395721 L6.78078484,45.2373057 L6.71134345,44.9261194 L6.67792492,44.7538159 C6.65296936,44.6344656 6.63061812,44.512071 6.60848354,44.3898986 L6.58895329,44.2955028 C6.56117673,44.1344876 6.53340018,43.9732503 6.51126782,43.8094131 L6.50020053,43.7317276 C6.48067028,43.6010889 6.46135668,43.4706724 6.44464742,43.3400337 L6.42511717,43.1677302 L6.38627332,42.8454777 L6.36956406,42.6898846 C6.35567578,42.5342914 6.33896652,42.3815204 6.32789923,42.2259272 L6.32507813,42.1953297 L6.32225709,42.1230662 C6.3111898,41.9924275 6.30272684,41.862011 6.29730152,41.7285503 L6.28905522,41.5562467 L6.27516694,41.2172839 L6.2723459,41.0478025 C6.2695248,40.8867873 6.26670392,40.72555 6.26670392,40.5645348 C6.26670392,40.4006976 6.26952496,40.2422824 6.2723459,40.0812672 L6.27516694,39.9117858 L6.28905522,39.5702231 L6.29730152,39.4007416 C6.30294349,39.270103 6.3111898,39.1368644 6.32225709,39.0062257 L6.32507813,38.9339622 L6.32789923,38.9061856 C6.33896652,38.7505925 6.35285479,38.5978215 6.36956406,38.4422283 L6.38627332,38.2894573 L6.42511717,37.9617828 L6.44464742,37.7951235 C6.46135668,37.6618849 6.48067028,37.5284241 6.50020053,37.3951855 L6.51126782,37.3257441 C6.53622339,37.1619069 6.56399994,36.9980697 6.59177538,36.8340102 L6.60566366,36.7563248 L6.67792715,36.3756971 L6.71134567,36.2118599 L6.78078706,35.8980737 L6.81680992,35.7396584 C6.85283278,35.5897095 6.88625131,35.4423604 6.92509404,35.2952336 L6.95287059,35.1923714 L7.05573273,34.82021 L7.08915126,34.7008597 L7.19461328,34.3536528 L7.23345713,34.2230141 C7.28076393,34.0758873 7.32785297,33.9313603 7.375162,33.7842334 L7.37798304,33.7759871 L7.38905033,33.7425686 C7.43635714,33.60933 7.48344617,33.4730471 7.5307552,33.3398086 L7.58630831,33.1870375 L7.70305872,32.8814954 L7.75296986,32.7536788 C7.81134507,32.614796 7.86689818,32.4759133 7.92527338,32.3370305 L7.93091536,32.3231422 L7.93655733,32.303612 C7.99775464,32.159085 8.06155183,32.0147802 8.12534902,31.8730754 L8.15594656,31.803634 C8.21149967,31.6842837 8.26705278,31.5647112 8.32260589,31.4453609 L8.378159,31.3314326 L8.54764042,30.9898698 L8.58930525,30.9065402 C8.65874664,30.7704795 8.73101012,30.6344188 8.80587349,30.4981359 L8.86120939,30.4074288 L9.02786872,30.1101308 L9.1001322,29.9851363 C9.16675149,29.871208 9.23337078,29.7572797 9.30281217,29.6435735 L9.33623069,29.5880204 C9.41956036,29.4491377 9.50571212,29.313077 9.59446377,29.1770163 L9.60835204,29.1520607 C9.68885961,29.0270663 9.77218927,28.8992497 9.85834103,28.7742552 L9.90825217,28.7019917 C9.97769356,28.5965297 10.049957,28.4936675 10.1248204,28.3908054 L10.1914397,28.2964095 C10.2804136,28.1742371 10.3691652,28.0492426 10.4581391,27.9296701 L10.466602,27.9157819 L10.4861323,27.8908263 C10.5694619,27.776898 10.6556137,27.6657918 10.7417655,27.5546855 L10.8305227,27.4435793 L11.044491,27.179702 L11.1249986,27.079662 C11.3222566,26.8407392 11.5249365,26.6074606 11.7332496,26.3770263 L11.8083352,26.2936966 L12.0583242,26.0269973 L12.147298,25.9326014 C12.2362719,25.8410277 12.3250235,25.7492317 12.4168195,25.657658 L12.4751947,25.5992828 C12.5863009,25.4909986 12.694585,25.3827145 12.8056912,25.2742082 L12.8833767,25.2019447 L13.1387932,24.965844 L13.2498995,24.8658039 L13.5109546,24.6353474 L13.5971064,24.5602618 C13.7110347,24.4602218 13.824963,24.365826 13.9414912,24.268608 L14.0469532,24.1852784 L14.2969422,23.9825984 L14.4330029,23.8743143 L14.6886361,23.6798784 L14.7969202,23.5993708 C14.9136706,23.5075804 15.035843,23.4160011 15.15541,23.3326715 L15.2443838,23.2714742 C15.3444239,23.2020328 15.4470638,23.1297693 15.5471039,23.0603279 L15.6471439,22.9937086 L15.9609301,22.7853845 L16.0499039,22.7270092 C16.1777205,22.6436796 16.308137,22.563172 16.4415978,22.4852643 L16.4498441,22.4796224 C16.5830827,22.3993315 16.7163268,22.3188239 16.849782,22.2437383 L16.9691323,22.1742969 L17.2579641,22.0132818 L17.3886028,21.9410183 L17.6941449,21.7800032 L17.8108953,21.721628 C17.9441338,21.6521866 18.0747725,21.5855673 18.2080111,21.5215479 L18.349716,21.4549286 L18.6385477,21.3188679 L18.7746084,21.2576706 L19.099683,21.1159657 L19.2136113,21.0686589 C21.7384445,20.004928 24.5132668,19.4159539 27.4243608,19.4159539 C30.3352326,19.4159539 33.1102215,20.0020948 35.6323327,21.0686589 L35.746261,21.1159657 L36.0685135,21.2576706 L36.2045742,21.3188679 L36.496228,21.4549286 L36.6379329,21.5215479 C36.7711714,21.5853451 36.9018101,21.6493645 37.0350487,21.7188059 L37.148977,21.7771811 C37.2518392,21.8299132 37.3544791,21.8854652 37.4545191,21.9381962 L37.5877577,22.0104597 L37.6600212,22.0521245 L38.8654681,20.8466776 L38.4043328,15.8775075 L38.362668,15.4220165 L38.0154611,15.2720675 L37.9514472,15.2497163 C37.6793259,15.1386101 37.4098044,15.030326 37.1348721,14.9246417 L36.9682128,14.8634444 C36.8403962,14.8161376 36.7071576,14.7690486 36.5765189,14.7217396 L36.4183203,14.6664037 L36.0405147,14.5385871 L35.8321906,14.4691457 C35.7071961,14.4274808 35.5793795,14.3886381 35.454385,14.3497954 L35.4371975,14.3441762 Z M16.8491272,22.2438283 L16.4517947,22.4773236 C16.5824334,22.3994214 16.7156719,22.3189083 16.8491272,22.2438283 Z M8.12173373,31.8906257 L7.93294205,32.3211623 C7.99392269,32.1766353 8.05793654,32.0323306 8.12173373,31.8906257 Z M6.40525762,38.4542256 L6.33025762,38.9181829 C6.35525762,38.7625898 6.38025762,38.6098187 6.40525762,38.4542256 Z M32.8596443,38.5625097 L45.8590719,25.5630821 L50.828242,26.0270395 L59.9972826,16.8552212 L51.8948616,16.102421 L51.1394505,8 L41.9704098,17.1690407 L42.4315451,22.1382107 L29.4348952,35.1376383 C27.3765969,34.3766162 24.9739249,34.82103 23.3184978,36.4737461 C21.0518754,38.7403685 21.0518754,42.4123735 23.3184978,44.6761627 C25.582287,46.9399519 29.2543476,46.9399519 31.5209144,44.6761627 C33.1764526,43.0234577 33.6237107,40.6179525 32.8598554,38.562543 L32.8596443,38.5625097 Z" id="icon-target"></path>
                    </g>
                </g>
            </g>
        </g>
    </g>
</svg>