<?xml version="1.0" encoding="UTF-8"?>
<svg width="63px" height="49px" viewBox="0 0 63 49" version="1.1" xmlns="http://www.w3.org/2000/svg" xmlns:xlink="http://www.w3.org/1999/xlink">
    <title>icon-transfer</title>
    <g id="Page-1" stroke="none" stroke-width="1" fill="none" fill-rule="evenodd">
        <g id="Sponsors-v2" transform="translate(-764.000000, -5051.000000)" fill="#FFFFFF" fill-rule="nonzero">
            <g id="Benefits" transform="translate(79.000000, 4427.000000)">
                <g id="Group-12" transform="translate(0.000000, 516.000000)">
                    <g id="Group-8" transform="translate(685.000000, 106.000000)">
                        <path d="M33.4688735,3.96874839 C33.4688735,5.056075 32.5874517,5.93749678 31.5001251,5.93749678 C30.4127985,5.93749678 29.5313767,5.056075 29.5313767,3.96874839 C29.5313767,2.88142178 30.4127985,2 31.5001251,2 C32.5874517,2 33.4688735,2.88142178 33.4688735,3.96874839 M27.1820037,5.11954745 C27.1820037,6.20687406 26.3003719,7.08829584 25.2132553,7.08829584 C24.1259287,7.08829584 23.2445069,6.20687406 23.2445069,5.11954745 C23.2445069,4.03222084 24.1259287,3.15079906 25.2132553,3.15079906 C26.3003719,3.15079906 27.1820037,4.03222084 27.1820037,5.11954745 M21.6800082,8.29841985 C21.6800082,9.38553646 20.7985864,10.2671682 19.7112598,10.2671682 C18.6239332,10.2671682 17.7425114,9.38553646 17.7425114,8.29841985 C17.7425114,7.21109324 18.6239332,6.32967146 19.7112598,6.32967146 C20.7985864,6.32967146 21.6800082,7.21109324 21.6800082,8.29841985 M17.5949865,13.1662159 C17.5949865,14.2535425 16.7135647,15.1349643 15.6262381,15.1349643 C14.5389115,15.1349643 13.6574897,14.2535425 13.6574897,13.1662159 C13.6574897,12.0788893 14.5389115,11.1974675 15.6262381,11.1974675 C16.7135647,11.1974675 17.5949865,12.0788893 17.5949865,13.1662159 M28.7722274,35.5868475 C28.7722274,35.5843867 28.7709969,35.5837714 28.7697665,35.5804903 L26.2358036,29.2432205 C26.0789179,22.1410263 20.2639334,16.408031 13.1249893,16.408031 C5.88892019,16.4086462 0,22.2974762 0,29.5335453 C0,33.1949973 1.51079126,36.5071146 3.93749678,38.8906126 L3.93749678,50.5324781 L19.6874839,50.5324781 L19.6874839,45.9661893 C23.3054659,45.9661893 25.5937291,43.6508362 25.5937291,40.0321192 L25.5937291,37.4075413 L27.5624775,37.4075413 C28.2876069,37.4075413 28.8747664,36.8198043 28.8747664,36.0946224 C28.8747664,35.9330223 28.772024,35.5864386 28.772024,35.5864386 L28.7722274,35.5868475 Z M7.87514445,34.7843857 C6.78844784,34.7843857 5.90639606,33.9023339 5.90639606,32.8156373 C5.90639606,31.7283107 6.78844784,30.8468889 7.87514445,30.8468889 C8.96184106,30.8468889 9.84389284,31.7283107 9.84389284,32.8156373 C9.84389284,33.9023339 8.96184106,34.7843857 7.87514445,34.7843857 Z M7.87514445,29.533865 C6.78844784,29.533865 5.90639606,28.6524432 5.90639606,27.5651166 C5.90639606,26.47842 6.78844784,25.5963682 7.87514445,25.5963682 C8.96184106,25.5963682 9.84389284,26.47779 9.84389284,27.5651166 C9.84389284,28.6526532 8.96184106,29.533865 7.87514445,29.533865 Z M13.1249302,34.7843857 C12.0376035,34.7843857 11.1561818,33.9023339 11.1561818,32.8156373 C11.1561818,31.7283107 12.0376035,30.8468889 13.1249302,30.8468889 C14.2116268,30.8468889 15.0936785,31.7283107 15.0936785,32.8156373 C15.0936785,33.9023339 14.2122568,34.7843857 13.1249302,34.7843857 Z M13.1249302,29.533865 C12.0376035,29.533865 11.1561818,28.6524432 11.1561818,27.5651166 C11.1561818,26.47842 12.0376035,25.5963682 13.1249302,25.5963682 C14.2116268,25.5963682 15.0936785,26.47779 15.0936785,27.5651166 C15.0936785,28.6526532 14.2122568,29.533865 13.1249302,29.533865 Z M13.1249302,24.2840793 C12.0376035,24.2840793 11.1561818,23.4020275 11.1561818,22.3153309 C11.1561818,21.2286343 12.0376035,20.3465825 13.1249302,20.3465825 C14.2116268,20.3465825 15.0936785,21.2286343 15.0936785,22.3153309 C15.0936785,23.4022375 14.2122568,24.2840793 13.1249302,24.2840793 Z M18.3754509,34.7845957 C17.2887543,34.7845957 16.4067025,33.9025439 16.4067025,32.8158473 C16.4067025,31.7285207 17.2887543,30.8470989 18.3754509,30.8470989 C19.4627775,30.8470989 20.3441993,31.7285207 20.3441993,32.8158473 C20.3441993,33.9025439 19.4621475,34.7845957 18.3754509,34.7845957 Z M18.3754509,29.534075 C17.2887543,29.534075 16.4067025,28.6526532 16.4067025,27.5653266 C16.4067025,26.47863 17.2887543,25.5965782 18.3754509,25.5965782 C19.4627775,25.5965782 20.3441993,26.478 20.3441993,27.5653266 C20.3441993,28.6528632 19.4621475,29.534075 18.3754509,29.534075 Z M39.6775184,5.11954745 C39.6775184,6.20687406 38.7958867,7.08829584 37.7087701,7.08829584 C36.6214434,7.08829584 35.7400217,6.20687406 35.7400217,5.11954745 C35.7400217,4.03222084 36.6214434,3.15079906 37.7087701,3.15079906 C38.7958867,3.15079906 39.6775184,4.03222084 39.6775184,5.11954745 M45.1805639,8.29841985 C45.1805639,9.38553646 44.2991422,10.2671682 43.2118156,10.2671682 C42.1246989,10.2671682 41.2430672,9.38553646 41.2430672,8.29841985 C41.2430672,7.21109324 42.1246989,6.32967146 43.2118156,6.32967146 C44.2991422,6.32967146 45.1805639,7.21109324 45.1805639,8.29841985 M49.2650606,13.1662159 C49.2650606,14.2535425 48.3836388,15.1349643 47.2963122,15.1349643 C46.2089856,15.1349643 45.3275638,14.2535425 45.3275638,13.1662159 C45.3275638,12.0788893 46.2089856,11.1974675 47.2963122,11.1974675 C48.3836388,11.1974675 49.2650606,12.0788893 49.2650606,13.1662159 M49.8751101,16.4091382 C42.7351159,16.4091382 36.9212707,22.1421335 36.7637708,29.2443277 L34.2304379,35.5815975 C34.2292075,35.5846737 34.2273618,35.5852889 34.2273618,35.5879548 C34.2273618,35.5879548 34.1252336,35.9345385 34.1252336,36.0957291 C34.1252336,36.8208585 34.7123931,37.408648 35.4375225,37.408648 L37.4062709,37.408648 L37.4062709,40.0332259 C37.4062709,43.6520479 39.6945341,45.967296 43.3125161,45.967296 L43.3125161,50.5335848 L59.0625032,50.5335848 L59.0625032,38.8917193 C61.4892087,36.5084838 63,33.196524 63,29.534652 C63,22.2980579 57.1116048,16.4096627 49.8750107,16.4096627 L49.8751101,16.4091382 Z M49.8751101,34.7846482 C48.7877835,34.7846482 47.9063617,33.9025964 47.9063617,32.8158998 C47.9063617,31.7285732 48.7877835,30.8471514 49.8751101,30.8471514 C50.9618067,30.8471514 51.8438585,31.7285732 51.8438585,32.8158998 C51.8438585,33.9025964 50.9618067,34.7846482 49.8751101,34.7846482 Z M49.8751101,29.5341275 C48.7877835,29.5341275 47.9063617,28.6527057 47.9063617,27.5653791 C47.9063617,26.4786825 48.7877835,25.5966307 49.8751101,25.5966307 C50.9618067,25.5966307 51.8438585,26.4780525 51.8438585,27.5653791 C51.8438585,28.6529157 50.9618067,29.5341275 49.8751101,29.5341275 Z M49.8751101,24.2843418 C48.7877835,24.2843418 47.9063617,23.40229 47.9063617,22.3155934 C47.9063617,21.2288968 48.7877835,20.346845 49.8751101,20.346845 C50.9618067,20.346845 51.8438585,21.2288968 51.8438585,22.3155934 C51.8438585,23.4025 50.9618067,24.2843418 49.8751101,24.2843418 Z" id="icon-transfer"></path>
                    </g>
                </g>
            </g>
        </g>
    </g>
</svg>