<svg xmlns="http://www.w3.org/2000/svg" xml:space="preserve" id="svg2" x="0" y="0" viewBox="0 0 6113.5 2953.3"><style>.st1{fill:#f9e366}.st2{fill:#3a78a7}</style><path d="M1694.9 2339.9c-1.2-1.9-5.6-29.7-7.6-47.8-4.7-42.7-5.7-103-3.1-195 1.1-37 1-78.9 0-166.9-1.9-150.1-2.7-163.1-15.1-238.1-9.8-58.9-10.3-75.8-3.1-98.4 3.3-10.5 17-34.2 29-50.3 24.6-32.9 57.9-64.7 102.2-97.5 17.4-12.9 45.9-32.5 59.7-41.2l8.5-5.3 20.9 11.6c30.7 17 60.2 34.6 87.9 52.5 24.9 16.1 56 37.9 57.7 40.4.5.8.9 16 .9 34 0 24.2-.4 33.1-1.5 34.6s-6.2 2.6-19.1 4.1c-37.8 4.4-87.5 13.6-120.6 22.2l-15.6 4.1-.3 23.3-.3 23.3 14.9 4c29.5 7.8 78.7 18.2 116.2 24.7 7.1 1.2 13.7 2.9 14.5 3.8 4.2 4.2-13.8 91.2-31.3 152-26.3 91-74.9 214.6-119.6 304.1-30.3 60.7-77.7 136.8-99.7 159.8-11.6 12.1-27.9 23.2-50.3 33.9-17.4 8-23.9 10.2-25.2 8.1" style="fill:#f7ea9d"/><path d="M1382.5 2951.8c-.4-1.2-4.1-1.5-14-1.2-16.4.4-61.5-2-87.8-4.8-34.1-3.6-70.8-10.8-98.6-19.4-43.9-13.5-84.5-34.4-112.7-58-9.8-8.2-13.8-15.7-20.4-37.5-10.3-34.3-11.3-65.7-5-155 1.1-15.8 2.1-34.1 2.1-40.8l.1-12.1 24.7-.9c32.9-1.2 267.3.4 289.2.6 11.3.2 17.5 0 21.4 0 2.6 0 34.4-.3 116.8-.4 63.8-.1 139.1-.4 167.3-.7 43.1-.4 51.6-.2 53.5 1.3 2.2 1.7 2.3 5.9 2 89.2-.3 108.1-1.6 123.7-11.9 143-13.8 25.9-45.9 46.7-99.6 64.5-50.8 16.9-98.8 24.7-193.3 31.4-17.9 1.3-32.7 2.3-32.9 2.3-.1 0-.6-.7-.9-1.5m-1-447.5c-4.8-.2-8.4-.4-40.5-.7-84.2 2.2-126.3-3.6-164.4-22.8-14.3-7.2-22.5-12.9-34.3-23.9-23.4-21.8-33.8-46.8-35.3-84.9-1.4-32.8 2.8-60.5 22.1-146.9 21.2-94.6 83.4-397.1 90-437.3 4.1-25.4 5.4-45.8 4.6-75.9-1.5-57.1-11.6-100.9-33.8-146.9-15.4-31.8-31.4-54.8-53.6-76.9-15.4-15.3-31.9-27.9-58.6-44.5-58.2-36.3-106-61.1-241-125.1-65.4-31-106.9-51.6-139.7-69.5-11.8-6.4-22-11.3-22.5-10.7-1.2 1.2-25.9-1.6-49.1-5.7-80.5-14.2-163.3-49.3-237.5-100.5C164.1 977.9 25.4 718.7 3.4 413.9c-5.4-75 8.7-151.8 45.2-245.3 15.1-38.7 43.8-99.7 54.9-116.5C112.7 38.1 131 19 149.4 4c7.7-6.2 9.5-5.6 8.8 3.2-2.9 37.6-6.7 68.7-19.1 156.7-6.4 45.7-10.4 79.2-12.4 105.6-7.3 93.8 2.9 169.6 31.6 233.8 8.8 19.7 51 86.3 74.8 118.2 35.5 47.4 75.9 89.3 116.6 121.1 14.8 11.5 43.1 30.3 58.8 39 38.4 21.3 89.2 38.5 146.9 49.8l23.1 4.5 5.5-6c79.1-86.1 159.7-152.8 250.7-207.5 93.3-56.1 194.6-96.6 292.8-117.1 70.3-14.7 163.1-24.5 230.5-24.5 16.8 0 23.5-.4 23.8-1.5.6-1.7 23.8-1.6 72.8.3 115.2 4.5 183.3 15.2 269.1 42.4 132.5 42 251.6 113.1 374.1 223.3 26.4 23.7 87.4 84.9 87.4 87.5 0 1.8 1.2 2 9.5 1.2 55.8-5.1 126.4-31.9 183.6-69.8 51.9-34.5 97.6-79.1 149.2-145.7 52-67.2 82.1-126.5 93.9-185 6.4-31.9 8-53.5 8.1-108.9 0-44.9-.4-55.8-2.9-81.3-3.2-32.6-8.9-79.3-16.5-135-5.7-42-11.2-89.6-11.2-96.7V6.8l6.1 6.7c62.4 68.6 108.5 166.1 128.9 272.9 9.1 47.4 11.1 75.7 8.9 121.3-4.6 94.7-21.5 184.4-50.9 271-69.2 203.7-196.5 369.1-366.1 475.7-55.7 35-101.3 52.3-202.9 76.8-18 4.4-32.4 8.2-32.1 8.6 1.3 1.3-2.4 3.2-36.3 19.2-101.3 47.8-295.6 143.4-338.8 166.8-44.9 24.4-71.9 42.9-95.8 66-19.9 19.3-32.3 35.5-47.9 62.5-38.1 66.3-51.1 159.9-34.6 249 6 32.1 52.5 259.9 74.6 365.6 34.5 164.5 34.2 163 35.1 184.4 2.1 52.1-14.2 90.9-48.4 115.1-31.4 22.3-67.5 32.8-124.2 36.1-33 1.9-85 .3-89.7-.2z" class="st1"/><path d="M1694.9 2339.9c-1.2-1.9-5.6-29.7-7.6-47.8-4.7-42.7-5.7-103-3.1-195 1.1-37 1-78.9 0-166.9-1.9-150.1-2.7-163.1-15.1-238.1-9.8-58.9-10.3-75.8-3.1-98.4 3.3-10.5 17-34.2 29-50.3 24.6-32.9 57.9-64.7 102.2-97.5 17.4-12.9 45.9-32.5 59.7-41.2l8.5-5.3 20.9 11.6c30.7 17 60.2 34.6 87.9 52.5 24.9 16.1 56 37.9 57.7 40.4.5.8.9 16 .9 34 0 24.2-.4 33.1-1.5 34.6s-6.2 2.6-19.1 4.1c-37.8 4.4-87.5 13.6-120.6 22.2l-15.6 4.1-.3 23.3-.3 23.3 14.9 4c29.5 7.8 78.7 18.2 116.2 24.7 7.1 1.2 13.7 2.9 14.5 3.8 4.2 4.2-13.8 91.2-31.3 152-26.3 91-74.9 214.6-119.6 304.1-30.3 60.7-77.7 136.8-99.7 159.8-11.6 12.1-27.9 23.2-50.3 33.9-17.4 8-23.9 10.2-25.2 8.1m-651.9-4.2c-21.6-10-43.4-25.2-61.3-42.8-15-14.8-23.1-25.4-38.6-51-95.6-157.8-161.8-322.1-202.1-501.2-5.6-24.8-11.1-52.6-10.6-53.1.2-.2 31.2-7.4 68.9-16s69.1-16.2 69.9-16.9c.7-.7 2.9-10.8 4.8-22.3 1.9-11.6 3.8-22.5 4.1-24.4.4-2.1-.1-4.1-1.2-5.2-4-4-80.5-20.8-128.7-28.2-13.8-2.1-25.7-4.1-26.6-4.4-1.2-.4-1.6-8-1.6-32.4V1506l14.1-9.9c7.7-5.4 23.3-16.5 34.6-24.7 48.2-34.8 79.2-51.6 107.9-58.9l8.4-2.1 10.3 4c21.4 8.4 45.7 23.4 71 43.8 16.7 13.5 71.7 68.2 84.1 83.7 18.9 23.6 31.4 48.7 35.2 70.5 2.7 15.6 2.6 17.3-3.6 59.7-9.7 65.7-15.6 130.1-18.2 198.5-.7 18.2-1.8 45.2-2.3 59.9-1.2 30.3.1 96.3 3 152.6 2.8 53.7 3.8 133.1 2 160-2.9 44.5-10.6 96.4-14.3 96.2-.6.1-4.8-1.6-9.2-3.6" class="st1"/><path d="M1382 2950.5c-2.5-6-3.3-274.2-1-313.4l.8-14.4 94.4-.3c51.9-.1 127.3-.5 167.5-.8 61-.4 73.5-.2 75.4 1.2 2.2 1.6 2.3 5.8 2 89.2-.3 108.1-1.6 123.7-11.9 143-13.8 25.9-45.9 46.7-99.6 64.5-50.8 16.9-98.8 24.7-193.3 31.4-17.9 1.3-32.7 2.3-32.9 2.3-.1.1-.8-1.1-1.4-2.7m1.1-446.2c-.8-1-1.5-284.9-2-819.7-.8-858.8-.2-1205.8 2.2-1206.6 2.1-.7 69.6 1.2 98.9 2.8 99.2 5.3 162.5 16.1 241.6 41.2 132.5 42 251.6 113.1 374.1 223.3 25.4 22.9 87.4 84.8 87.4 87.4 0 2.2.3 2.2-28.8 7-72.5 12-89.9 23.5-116.7 77.5-28.5 57.3-38.2 127.5-27 196.2 6.6 40.3 22.4 68.1 62.3 109.1 14.2 14.6 16.5 17.5 15 18.9-1 .9-16.9 8.8-35.5 17.6-99.4 46.8-295.4 143.3-338.8 166.8-44.9 24.4-71.9 42.9-95.8 66-19.9 19.3-32.3 35.5-47.9 62.5-38.1 66.3-51.1 159.9-34.6 249 6 32.1 52.5 259.9 74.6 365.6 34.5 164.5 34.2 163 35.1 184.4 2.1 52.1-14.2 90.9-48.4 115.1-31.4 22.3-67.5 32.8-124.2 36.1-32.3 1.9-89.9 1.7-91.5-.2" class="st2"/><path d="M1694.9 2339.9c-1.2-1.9-5.6-29.7-7.6-47.8-4.7-42.7-5.7-103-3.1-195 1.1-37 1-78.9 0-166.9-1.9-150.1-2.7-163.1-15.1-238.1-9.8-58.9-10.3-75.8-3.1-98.4 3.3-10.5 17-34.2 29-50.3 24.6-32.9 57.9-64.7 102.2-97.5 17.4-12.9 45.9-32.5 59.7-41.2l8.5-5.3 20.9 11.6c30.7 17 60.2 34.6 87.9 52.5 24.9 16.1 56 37.9 57.7 40.4.5.8.9 16 .9 34 0 24.2-.4 33.1-1.5 34.6s-6.2 2.6-19.1 4.1c-37.8 4.4-87.5 13.6-120.6 22.2l-15.6 4.1-.3 23.3-.3 23.3 14.9 4c29.5 7.8 78.7 18.2 116.2 24.7 7.1 1.2 13.7 2.9 14.5 3.8 4.2 4.2-13.8 91.2-31.3 152-26.3 91-74.9 214.6-119.6 304.1-30.3 60.7-77.7 136.8-99.7 159.8-11.6 12.1-27.9 23.2-50.3 33.9-17.4 8-23.9 10.2-25.2 8.1M654.1 1235.7c-141.4-17.6-277.6-92.3-397.4-217.9C128.1 883 42.1 696.9 12.9 490.8 4.6 432.6 2 376.4 5.9 340.2c8.5-79.6 32.5-154.8 81.6-255.6 13.6-27.9 20.9-39.1 35.6-54.5C133.6 19.2 154 .8 155.8.8c3.4 0-2.2 51.2-17.4 158.8-10.5 74.7-13.8 107.3-15.1 151.9-2.1 69.3 8.4 132.4 30.6 184.9 6.9 16.3 26.4 49.9 48 82.9 64.2 97.8 138.2 169.3 216.5 209.1 41.9 21.3 84.5 34.5 158.1 48.8 41.4 8.1 45.9 9.1 65 15.2 32.5 10.5 56.1 29 67.6 53.3 21.3 44.8 34.9 105.1 34.9 154.2 0 58.1-18.2 115.3-48.6 153.5-7.3 9.2-20.5 23.1-22.6 23.8-1 .3-9.4-.3-18.7-1.5m729.7 1695.4c-.5-10.1-.6-83.1-.2-162.2l.7-143.7 166.7-.1c91.7-.1 166.9.1 167.2.4s.4 39 .4 86c-.1 74.5-.4 87.9-2.4 103.9-2.9 23.8-4.1 28.6-9.5 38.6-11.7 22-36.4 39.6-78.9 56.1-43 16.8-91.5 27.1-158.5 33.7-16.9 1.7-74.5 5.9-80 5.9h-4.6z" class="st2"/><path d="M1384.9 2401.9c-1-125.1-1.7-1195.8-1.1-1724.7l.2-196.7 30.3.8c107.6 2.9 173.4 9.5 237.8 23.9 25.6 5.7 32.7 7.7 66.6 18.3 124.6 39 237.3 103.3 349 199.1 42.5 36.5 115.6 107.7 112.3 109.5-.9.5-7.9 1.8-15.4 3-49.8 7.8-74.4 15.9-92.6 30.5-22.3 17.9-47.8 68.8-58.5 116.7-9.5 42.7-10.7 90.5-3.2 134.2 6.5 37.8 23.3 67.2 59.8 104.5 9.2 9.4 16.5 17.7 16.3 18.5-.2.7-23.2 12.2-51.1 25.4-107.9 51.3-273.9 133.1-316.5 155.9-79.2 42.4-117.1 75.8-148 130.3-22.7 40-37.1 87.8-41.7 137.7-2.7 29.2-1.1 73.5 3.7 103.7 2.7 17.1 53.3 265.5 80.6 396.3 15.4 73.6 28.7 138.5 29.5 144.4 2.5 17 1.9 47-1.3 62.3-12 57.7-54.4 90.8-131.7 102.9-14.2 2.2-24.3 2.7-70.4 3.2l-53.9.6z" class="st2"/><path d="M1694.2 2321.2c-8-51.5-9.9-99.8-7.7-194.7 2-86.2 2.1-106.2.9-205-1.7-133.8-3.3-158.3-15.4-229.4-6.7-39.5-7.1-43.1-7.2-63.1-.1-30.9 2.8-39.6 23.6-70.6 14.9-22.3 24.9-34.4 45.7-55.1 19.4-19.3 36.2-33.6 63.7-54.2 19.4-14.5 65.4-45.7 67.5-45.7 1.9 0 36.1 18.9 63.1 35 36.6 21.7 88.9 56.2 99.1 65.4 3.2 2.9 3.5 8.2 2 46.6l-.8 21.4-13.9 1.5c-35.2 3.9-79.9 11.9-117.4 20.9-21.3 5.2-23.6 6-24.7 8.8-1.9 4.9-1.5 44.5.4 47.1 2.9 4 77 21.2 127.1 29.6 9.3 1.5 17.4 3.3 18 3.8 1.4 1.3-1.7 21.9-8.7 56.8-14.8 74.5-39.1 153-77.1 248.8-47.4 119.6-87.8 198.8-140.7 276.2-23.4 34.3-38 47-73.1 63.8-24.1 11.4-21.2 12.3-24.4-7.9m-1042-1087.3c-141.2-17.7-283.8-97.3-400.5-223.6C108.9 855.9 23.2 647.1 6.4 413.3.4 329.9 20.2 238 67.2 131.4c12.1-27.5 32.3-68.3 38.7-78.1 6-9.3 36.8-41.4 45.5-47.5l4.2-2.9-.8 11.1c-2.3 29.9-4.9 50.7-18.8 151.1-11.2 80.6-14.4 116-14.4 160.6 0 83.5 15 147.5 47.8 203.8 55.9 95.9 117.3 169.2 183.5 218.9 61.7 46.4 118.2 69.9 210 87.4 57.1 10.9 69.2 13.8 88.5 21.3 20.8 8 39.9 22.3 50 37.5 9.4 14.1 23.8 51.6 30.7 80 18.2 74.9 12.8 146.4-15.4 202.3-10.5 20.8-21.3 36.4-35.6 51.2-8.6 8.8-7.4 8.5-28.9 5.8" class="st2"/><path id="path3342_1_" d="M3286.8 2706.3c-1.8-3.5-16.8-61.9-16-62.6.4-.4 14.6-2.8 31.6-5.5 40.5-6.3 55-9.1 74.7-14.2 61.6-16.1 104.1-41.2 126.6-74.9 17.3-25.9 24-50 29-103.9 1.6-16.9 3.9-102.5 2.9-105.1-.9-2.5-3.1-2.2-11.2 1.4-29.5 13.1-82.8 31-105.4 35.6-35.3 7.1-80.2 10.8-117.5 9.6-32.2-1-53.8-5.5-82.5-17.1-54.4-21.9-97.3-67-112-117.3-7.1-24.6-6.9-14.6-6.5-264.5l.3-229.9 50.6-17.2c27.8-9.5 51.3-17.3 52.2-17.3 1.2-.1 1.6 45.7 1.6 224.6 0 149.6.5 229.5 1.3 238.9 5 53.2 29.6 89 76.5 111.4 26.1 12.4 47.8 16.8 82.8 16.8 22.2 0 26.7-.4 40.7-3.4 26-5.5 45.3-12.6 79.3-29.1 21.1-10.3 38-19.9 41.6-23.9l2.8-3.1V1737H3634l-.5 323.4c-.3 230-.9 328.3-1.9 340.3-5.7 66.1-12.2 107.1-21.5 135.3-14.1 42.6-46.1 80.1-93.1 109.4-57.4 35.7-126.4 55.4-218.3 62.3-9.6.8-10.8.7-11.9-1.4m1832.3-317.6c-21.5-1.6-50.5-7.6-70-14.4-38.1-13.3-80.8-43-109.2-76-44.6-51.8-70.3-115.4-81-200-1.1-8.6-1.6-27-1.6-53.1 0-34.8.4-42.3 2.8-57.5 15.3-97.8 61-173.5 133.9-222 33.2-22.1 69.6-36 109.7-42 20.7-3.1 67.8-3.1 87.7 0 79.8 12.4 145.2 54.4 190.7 122.4 53.3 79.8 70.5 182 48.8 290.3-15.8 78.9-53.1 146.9-104.1 189.5-52.5 44-111.1 64.2-183.3 63.4-10.4-.1-21.3-.4-24.4-.6m63.5-66.6c49-10 84.9-39.7 109.8-90.9 22.3-45.8 32.3-102.7 32.3-182.9 0-43.4-1.1-56.4-7.5-88.1-5.9-29-15.2-55.3-27.6-77.4-9.2-16.5-16.3-26.3-28.4-39-43.4-45.9-102.7-61.5-165.2-43.5-41 11.8-76.7 43.6-98.2 87.5-16.7 34.1-24.9 72.3-28 131.9-.8 15.6 1.9 65.9 5.1 93.6 7.1 61.1 23.1 107.9 50.1 146.1 8.7 12.3 34.4 37.5 46 45 15.9 10.3 35.1 17.3 55.9 20.3 12.5 1.6 41.1.4 55.7-2.6m-1187.9 62.4c-68-7-143.3-33.9-201.3-71.8-22.1-14.4-49.4-36-49.4-39 0-1.4 40.2-68.4 42.5-70.9.6-.6 5.4 2.3 10.8 6.4 58.5 44.6 135.5 77.1 200.1 84.7 27 3.2 65.5 2 92.2-2.7 49.1-8.7 99.9-43.9 125-86.7 13.9-23.7 19.4-43.2 20.3-72.1 1-32.3-4.5-56.8-18.1-79.7-8.2-13.9-28.2-33.8-45.3-45.2-30.1-20-48.1-27.5-141.3-58.6-81.1-27.1-108.5-37.6-140-53.3-43.3-21.6-69.9-42.4-90.9-70.7-26.2-35.4-39-87.4-35.4-143.6 3.2-50 16.4-89.9 42.7-128.6 52.2-76.9 147.7-118.8 263-115.2 62.7 1.9 104.1 13.7 163.6 46.8 19.7 10.9 54.6 33.4 54.6 35.1 0 .8-41.7 66-43.1 67.5-.2.2-5.4-2.9-11.5-7-25.2-16.9-60.6-35.2-83.7-43.2-28.7-9.9-55.3-14-91.1-13.9-28.3.1-47.5 2.5-68.7 8.7-40.3 11.7-72.7 36.1-91.4 68.9s-24.5 81.5-13.6 114.3c5.2 15.6 12.3 26.8 25.5 40 13.1 13.2 26.9 22.9 48.5 34.1 30.6 15.9 47 22 138 51.4 78.3 25.3 90.9 29.9 115.9 42 41 19.9 69.8 42.3 97.7 76 18.9 22.8 29.5 43.7 36.8 72.3 8.4 33.1 12 72.1 9.3 100.3-7.1 74.4-43.9 137-110.5 187.5-21.6 16.4-26.5 19.7-42.4 28.1-35.4 18.7-71.3 29.9-114.7 35.6-22 3-75.6 4.4-94.1 2.5m669.4 0c-76.8-8.3-129-45.7-148-106-7.9-25.1-7.5-11.8-8.2-254l-.7-220.6-35.9-.3-35.9-.3v-65l35.9-.3 35.9-.3.6-89.2c.5-77.6.9-89.4 2.5-90.3 2.5-1.5 99.7-36.1 101.3-36.1.8 0 1.2 36.9 1.2 107.4 0 96.8.2 107.4 2 108.1 1.1.4 28.1.8 60 .8h58l-.3 32.2-.3 32.2-59.4.6-59.4.6-.4 215c-.3 153.8 0 218.3 1 226.6 4.1 33.7 16.3 54.1 39.6 66.2 17.9 9.3 43.2 16 70.1 18.4l9.1.8v26c0 17.8-.4 26.3-1.4 26.9-2.2 1.5-55.6 1.9-67.3.6m-2231.9-10.2c-.3-.9-.5-207.7-.3-459.7l.3-458.1 151.9-.8c90.6-.5 157.4-.3 165.6.4 100 8.5 189.7 77.8 220.5 170.4 17.2 51.6 16 111.6-3.2 163.1-27.1 72.6-87 127.1-160.9 146.4-30.5 8-28 7.8-153.9 8.6l-115 .7-.6 215-.6 215-51.6.3c-40.7.2-51.8-.1-52.2-1.3m310.3-503.9c42.5-8.6 76.9-29.9 101.4-62.7 13.7-18.4 24.9-45.6 29.9-72.5 3-16.1 3-52.7 0-66.5-15-69.4-69-123.5-136.5-136.8-7-1.4-28.2-1.7-104.4-1.7h-95.6l-.3 170.5c-.3 135.6 0 170.8 1.3 171.6.9.6 44.9.8 97.8.6 83.5-.4 97.4-.7 106.4-2.5m2858.4 503.9c-.3-.9-.5-221.4-.3-490.2l.3-488.6 50.6-17.4c27.8-9.5 51.3-17.1 52.2-16.8 1.2.5 1.6 64.4 1.6 313.8 0 305.7.1 313.2 2.3 312.9 1.3-.2 68.3-60.3 149-133.5 80.6-73.2 147.3-133.5 148.1-134 1.7-1 50.6 44.4 50.6 46.9 0 .8-47 43.9-104.5 95.8-83.6 75.5-104.4 94.8-103.9 96.9.3 1.4 60.2 95.2 133.2 208.5 79.9 124.1 132 206.2 131.1 206.6-.8.3-28.4.4-61.4.2l-59.9-.3-111.1-170.6c-61.1-93.8-111.8-170.8-112.7-171-1.4-.3-13.9 10.6-53.3 46.4l-6.9 6.2-.6 144.5-.6 144.5-51.6.3c-40.6.4-51.7.1-52.2-1.1" style="fill:#010101"/></svg>