<?xml version="1.0" encoding="UTF-8"?>
<svg width="203px" height="270px" viewBox="0 0 203 270" version="1.1" xmlns="http://www.w3.org/2000/svg" xmlns:xlink="http://www.w3.org/1999/xlink">
    <title>BA37A4FB-671C-412D-A72C-156808B52ABB@1x</title>
    <g id="Page-1" stroke="none" stroke-width="1" fill="none" fill-rule="evenodd">
        <g id="Content" transform="translate(-1185.000000, -1657.000000)" fill="#3DAE2B" fill-rule="nonzero">
            <g id="Incidentals" transform="translate(-48.000000, 214.000000)">
                <path d="M1385.16995,1594.54539 C1373.82303,1591.22931 1362.14373,1593.15056 1350.67769,1597.44649 C1358.72198,1587.17354 1364.48766,1575.94573 1364.48766,1563.423 C1364.48766,1548.82916 1352.65658,1537 1338.06465,1537 C1330.34698,1537 1323.4247,1540.32761 1318.59467,1545.6053 C1313.76272,1540.32761 1306.84044,1537 1299.12468,1537 C1284.53084,1537 1272.70168,1548.83108 1272.70168,1563.423 C1272.70168,1575.94766 1278.46544,1587.17546 1286.51165,1597.44649 C1275.04753,1593.15248 1263.36631,1591.23123 1252.01938,1594.54539 C1238.01152,1598.63766 1229.97492,1613.31412 1234.06719,1627.32198 C1236.23244,1634.72649 1241.36987,1640.43838 1247.78878,1643.59692 C1244.08076,1649.71227 1242.82811,1657.2897 1244.99144,1664.69613 C1249.08563,1678.70399 1263.76017,1686.74252 1277.76803,1682.64833 C1294.13135,1677.86248 1305.21314,1663.54722 1314.23727,1647.76989 C1311.8991,1675.00366 1317.36891,1714.87736 1318.43521,1712.39318 C1320.12207,1708.45461 1325.15575,1701.49967 1329.79174,1700.10868 C1333.40369,1699.02701 1321.54379,1667.5588 1321.60527,1645.376 C1330.87532,1662.0813 1342.2357,1677.62425 1359.42323,1682.64833 C1373.43109,1686.74252 1388.10371,1678.70399 1392.1979,1664.69613 C1394.36507,1657.2897 1393.1105,1649.71035 1389.40248,1643.59692 C1395.82139,1640.43838 1400.96074,1634.72841 1403.12407,1627.32198 C1407.21634,1613.31412 1399.17589,1598.63766 1385.16995,1594.54539 Z M1426.16984,1470.29213 C1420.78832,1468.7194 1415.24916,1469.6306 1409.81115,1471.66803 C1413.62632,1466.79587 1416.36082,1461.47084 1416.36082,1455.53167 C1416.36082,1448.61023 1410.74968,1443 1403.82915,1443 C1400.16888,1443 1396.88584,1444.57819 1394.59509,1447.08124 C1392.30344,1444.57819 1389.0204,1443 1385.36104,1443 C1378.4396,1443 1372.82937,1448.61114 1372.82937,1455.53167 C1372.82937,1461.47175 1375.56295,1466.79678 1379.37904,1471.66803 C1373.94194,1469.63151 1368.40187,1468.72031 1363.02035,1470.29213 C1356.37682,1472.23297 1352.56529,1479.1936 1354.50614,1485.83712 C1355.53305,1489.34887 1357.96959,1492.05785 1361.0139,1493.55586 C1359.25529,1496.45619 1358.66119,1500.04995 1359.68719,1503.56261 C1361.62895,1510.20613 1368.58866,1514.01858 1375.23219,1512.07682 C1382.99284,1509.80703 1388.24862,1503.01771 1392.5285,1495.53498 C1391.41958,1508.45117 1394.01375,1527.36212 1394.51946,1526.18395 C1395.31949,1524.316 1397.70683,1521.01747 1399.90554,1520.35776 C1401.61859,1519.84476 1395.99378,1504.92029 1396.02294,1494.39963 C1400.41946,1502.32247 1405.80735,1509.69404 1413.95891,1512.07682 C1420.60244,1514.01858 1427.56124,1510.20613 1429.50299,1503.56261 C1430.53082,1500.04995 1429.93581,1496.45528 1428.1772,1493.55586 C1431.22151,1492.05785 1433.65896,1489.34978 1434.68496,1485.83712 C1436.62581,1479.1936 1432.81245,1472.23297 1426.16984,1470.29213 Z" id="Combined-Shape"></path>
            </g>
        </g>
    </g>
</svg>