<?xml version="1.0" encoding="UTF-8"?>
<svg width="193px" height="265px" viewBox="0 0 193 265" version="1.1" xmlns="http://www.w3.org/2000/svg" xmlns:xlink="http://www.w3.org/1999/xlink">
    <title>9B65ED2A-9F0F-48EB-B335-57ADFA36606F@1x</title>
    <g id="Page-1" stroke="none" stroke-width="1" fill="none" fill-rule="evenodd">
        <g id="Content" transform="translate(-1114.000000, -5778.000000)" fill="#3DAE2B" fill-rule="nonzero">
            <g id="Incidentals" transform="translate(-48.000000, 214.000000)">
                <path d="M1338.50325,5611.46097 C1329.14479,5608.72601 1319.51221,5610.31057 1310.05551,5613.85367 C1316.69009,5605.38098 1321.44538,5596.12077 1321.44538,5585.79256 C1321.44538,5573.75618 1311.68761,5564 1299.65282,5564 C1293.28761,5564 1287.57841,5566.74447 1283.59481,5571.09728 C1279.60962,5566.74447 1273.90043,5564 1267.5368,5564 C1255.50043,5564 1245.74424,5573.75777 1245.74424,5585.79256 C1245.74424,5596.12236 1250.49795,5605.38257 1257.13412,5613.85367 C1247.679,5610.31216 1238.04483,5608.72759 1228.68637,5611.46097 C1217.13329,5614.8361 1210.50504,5626.94061 1213.88017,5638.49369 C1215.66598,5644.60062 1219.90311,5649.31154 1225.19715,5651.91657 C1222.13894,5656.96025 1221.1058,5663.20978 1222.89002,5669.31829 C1226.26674,5680.87137 1238.36967,5687.5012 1249.92275,5684.12449 C1263.41851,5680.17733 1272.5583,5668.37072 1280.00101,5655.35825 C1278.07259,5677.8195 1282.58386,5710.70561 1283.46329,5708.65677 C1284.85454,5705.4084 1289.00611,5699.67227 1292.82967,5698.52504 C1295.80866,5697.63293 1286.02712,5671.6793 1286.07783,5653.38388 C1293.72337,5667.16169 1303.09292,5679.98085 1317.26846,5684.12449 C1328.82154,5687.5012 1340.92288,5680.87137 1344.2996,5669.31829 C1346.08699,5663.20978 1345.05227,5656.95866 1341.99405,5651.91657 C1347.28809,5649.31154 1351.52681,5644.6022 1353.31103,5638.49369 C1356.68616,5626.94061 1350.05475,5614.8361 1338.50325,5611.46097 Z M1251.94764,5759.01507 C1245.24048,5757.05494 1238.33684,5758.19059 1231.55927,5760.72991 C1236.31425,5754.65757 1239.72234,5748.02082 1239.72234,5740.61863 C1239.72234,5731.99221 1232.72899,5725 1224.10371,5725 C1219.54179,5725 1215.45003,5726.96695 1212.595,5730.08659 C1209.73883,5726.96695 1205.64708,5725 1201.08629,5725 C1192.45987,5725 1185.46766,5731.99335 1185.46766,5740.61863 C1185.46766,5748.02196 1188.87462,5754.65871 1193.63073,5760.72991 C1186.85429,5758.19173 1179.94952,5757.05607 1173.24236,5759.01507 C1164.96231,5761.43402 1160.21187,5770.10927 1162.63082,5778.38931 C1163.9107,5782.76612 1166.94743,5786.14242 1170.74165,5788.00943 C1168.54984,5791.62421 1167.80939,5796.10323 1169.08814,5800.48117 C1171.50821,5808.76121 1180.18233,5813.51279 1188.46238,5811.09271 C1198.13473,5808.2638 1204.68518,5799.80205 1210.01934,5790.47607 C1208.63725,5806.57395 1211.87045,5830.14329 1212.50074,5828.67489 C1213.49784,5826.3468 1216.47325,5822.23574 1219.21358,5821.41352 C1221.34861,5820.77415 1214.33823,5802.17329 1214.37457,5789.06104 C1219.85409,5798.93554 1226.56921,5808.12298 1236.72876,5811.09271 C1245.0088,5813.51279 1253.68178,5808.76121 1256.10186,5800.48117 C1257.38288,5796.10323 1256.6413,5791.62308 1254.44949,5788.00943 C1258.2437,5786.14242 1261.28157,5782.76725 1262.56032,5778.38931 C1264.97926,5770.10927 1260.22655,5761.43402 1251.94764,5759.01507 Z" id="Combined-Shape"></path>
            </g>
        </g>
    </g>
</svg>