<svg height="156" viewBox="0 0 152 156" width="152" xmlns="http://www.w3.org/2000/svg"><path d="m1078.33746 50.8224445c-10.02128-2.9286705-20.3361-1.2318741-30.46258 2.5621625 7.10448-9.0727701 12.19657-18.988848 12.19657-30.0485667 0-12.8888651-10.44887-23.3360403-23.33604-23.3360403-6.81603 0-12.92959 2.93885129-17.19533 7.59995089-4.26745-4.6610996-10.381-7.59995089-17.19534-7.59995089-12.888863 0-23.336038 10.448872-23.336038 23.3360403 0 11.0614155 5.090389 20.9774934 12.196572 30.0485667-10.124784-3.7923398-20.441306-5.4891362-30.462585-2.5621625-12.371342 3.6141763-19.469042 16.5760037-15.854865 28.9473459 1.912289 6.5394532 6.449523 11.5840288 12.118519 14.373562-3.274817 5.4009028-4.381128 12.0930676-2.470535 18.6342176 3.615873 12.371342 16.576003 19.470738 28.947346 15.854865 14.451614-4.22672 24.238736-16.869549 32.208586-30.8036409-2.065 24.0520879 2.76578 59.2673999 3.7075 57.0734419 1.48979-3.478432 5.9354-9.620835 10.02977-10.849316 3.18997-.955296-7.28435-28.747123-7.23005-48.3383342 8.18704 14.7536442 18.2202 28.4807272 33.39974 32.9178492 12.37134 3.615873 25.32977-3.483523 28.94564-15.854865 1.91399-6.54115.80598-13.2350116-2.46883-18.6342176 5.66899-2.7895332 10.20792-7.832412 12.11852-14.373562 3.61417-12.3713422-3.48692-25.3331696-15.85657-28.9473459z" fill="#3dae2b" transform="translate(-943.945313 .348617)"/></svg>