<?xml version="1.0" encoding="UTF-8" standalone="no"?>
<svg
   xmlns:dc="http://purl.org/dc/elements/1.1/"
   xmlns:cc="http://creativecommons.org/ns#"
   xmlns:rdf="http://www.w3.org/1999/02/22-rdf-syntax-ns#"
   xmlns:svg="http://www.w3.org/2000/svg"
   xmlns="http://www.w3.org/2000/svg"
   xmlns:xlink="http://www.w3.org/1999/xlink"
   xmlns:sodipodi="http://sodipodi.sourceforge.net/DTD/sodipodi-0.dtd"
   xmlns:inkscape="http://www.inkscape.org/namespaces/inkscape"
   width="799px"
   height="799px"
   viewBox="0 0 799 799"
   version="1.1"
   id="svg3947"
   sodipodi:docname="Burst.svg"
   inkscape:version="0.92.5 (2060ec1f9f, 2020-04-08)">
  <metadata
     id="metadata3951">
    <rdf:RDF>
      <cc:Work
         rdf:about="">
        <dc:format>image/svg+xml</dc:format>
        <dc:type
           rdf:resource="http://purl.org/dc/dcmitype/StillImage" />
      </cc:Work>
    </rdf:RDF>
  </metadata>
  <sodipodi:namedview
     pagecolor="#ffffff"
     bordercolor="#666666"
     borderopacity="1"
     objecttolerance="10"
     gridtolerance="10"
     guidetolerance="10"
     inkscape:pageopacity="0"
     inkscape:pageshadow="2"
     inkscape:window-width="1920"
     inkscape:window-height="1043"
     id="namedview3949"
     showgrid="false"
     inkscape:zoom="0.29536921"
     inkscape:cx="135320.71"
     inkscape:cy="399.5"
     inkscape:window-x="0"
     inkscape:window-y="0"
     inkscape:window-maximized="1"
     inkscape:current-layer="svg3947" />
  <title
     id="title3931">Image / Burst</title>
  <defs
     id="defs3934">
    <path
       d="M284.108254,0.000162289333 C284.363569,0.0011443144 284.635284,0.00300707578 284.933535,0.00560899657 C290.582795,23.2413849 300.943649,44.8570676 311.410423,66.3433058 L313.333026,70.2886441 L314.845331,73.3963855 C315.161387,74.0468573 315.477077,74.69736 315.792273,75.347935 L316.736255,77.2999187 C317.050338,77.9506799 317.363798,78.6015549 317.67651,79.252585 L318.612269,81.2061826 C330.744586,106.61008 341.54262,132.313039 343.414892,160.772079 C344.910624,183.486125 341.625101,206.651748 344.834327,229.243359 C348.680757,256.331854 361.355337,277.483495 377.152566,298.222271 C361.961328,275.119387 351.77568,252.97518 351.531422,223.003317 C351.358165,201.664676 356.217306,180.507301 356.012259,159.155939 C355.446392,100.468315 310.731805,57.0278017 297.276579,1.38991759 C298.761184,1.70475 299.49236,1.87011653 300.945175,2.20402969 C306.932838,25.5686019 318.820749,46.4427295 330.685271,67.1666002 L332.379404,70.1263837 L332.853181,70.9549632 L333.799422,72.6121311 C334.105035,73.1479722 334.410285,73.68385 334.71507,74.2198049 L335.627926,75.8279415 C350.207998,101.563128 363.479488,127.569406 364.104469,158.325927 C364.528869,179.20027 359.901797,199.885395 359.931997,220.735888 C359.975091,250.142666 369.213622,272.117357 383.521697,295.018641 L383.976,295.742 L383.58206,295.009566 C370.774486,271.091427 363.889174,248.884376 366.654683,219.135013 C367.47964,210.2611 369.126441,201.48298 370.819327,192.709033 L371.497101,189.199459 C373.526764,178.670103 375.473846,168.129163 375.99784,157.418319 C378.919364,97.7671163 327.187078,60.4213136 312.53018,5.50213776 C314.014785,5.97279632 314.763446,6.20335541 316.287789,6.63903259 C331.742622,61.5597985 386.231124,96.895762 383.617965,157.019213 C382.731016,177.451519 376.504894,197.24939 374.492571,217.533819 C371.514995,247.569539 378.115239,269.981609 390.843331,294.360306 C380.144616,270.305523 375.321074,248.531625 380.114678,220.278745 C383.757842,198.811308 391.784882,178.294729 394.437779,156.630125 C401.859214,95.9914933 344.646288,64.3349349 329.310668,10.0279332 C331.090922,10.4190887 332.004892,10.5955856 333.894823,10.8945174 C349.618284,65.4416185 408.832407,95.2505241 401.38236,156.553802 C398.783507,177.938555 390.889986,198.183233 387.200727,219.351738 C382.400669,246.903594 386.593721,268.312633 396.545507,291.747294 C388.91335,270.883967 385.233959,250.79619 390.201409,227.178822 C392.538727,216.067953 396.195885,205.336441 399.91894,194.624887 L401.160678,191.054615 C405.089685,179.747973 408.936875,168.419074 411.227485,156.64523 C423.288709,94.6486853 363.14631,67.9992344 350.71632,12.4631143 C353.079925,12.5346671 354.30385,12.5346671 356.842302,12.4631143 C369.156259,68.1582407 429.489399,94.5087598 417.385258,156.680212 C412.685069,180.831674 401.477413,203.129123 396.416404,227.188362 C391.04639,252.722072 395.797041,274.153209 404.701144,296.888117 C389.193885,243.168103 412.440496,210.88028 426.760364,156.974691 C442.604628,97.326669 387.327729,66.2202722 378.966891,10.8876801 C381.964712,10.5855682 383.493824,10.4090713 386.601321,10.0163258 C394.920832,65.4236508 448.935658,98.0517376 433.002381,157.516903 C418.924183,210.059469 396.611561,242.15414 409.760588,293.407603 C399.573667,241.535279 424.767122,210.03804 442.448697,158.829658 C462.231774,101.534929 415.619309,62.4972994 412.376703,6.62249594 C415.719449,6.18840882 417.404332,5.95943979 420.789995,5.49355142 C423.994453,61.8660445 468.775799,102.471476 448.693893,160.025386 C430.818282,211.26271 405.622191,243.164362 416.017605,295.170919 C408.833213,243.008962 436.895832,211.62717 458.076152,162.294087 C482.146145,106.228476 446.405948,59.5251542 447.887374,2.28766699 C449.37486,2.14992781 450.536502,2.04292777 451.655684,1.94176741 L452.611193,1.8559079 C453.729244,1.75605189 454.885801,1.65492141 456.364247,1.52761702 C454.719101,59.7159617 488.812562,107.258837 464.404003,164.14174 C443.401712,213.088137 414.645707,245.134994 422.17779,297.603066 C418.141665,245.627844 449.661099,213.785863 473.558802,167.334427 C502.249509,111.567748 477.647029,59.6522002 482.626973,0.425544557 C485.826662,0.458935874 487.411407,0.490737128 490.537979,0.595681267 C486.168408,60.7302627 508.96997,113.375649 479.516296,169.748142 C457.73327,211.4409 429.947823,242.528746 428.029691,286.520948 C431.145012,257.23745 447.907339,232.590965 465.330827,207.939147 L467.162963,205.349362 C467.774114,204.485961 468.385518,203.622354 468.996618,202.758342 L470.828445,200.16489 C476.927775,191.514669 482.940902,182.803988 488.310276,173.83349 C521.570833,118.263979 508.263431,64.7869897 514.171651,3.16410956 C516.970783,3.71745138 518.344122,4.01797323 521.031988,4.67307906 C516.282524,67.4869162 527.626877,120.397843 493.981658,176.822808 C489.105767,185.000183 483.675195,193.015084 478.125176,201.000059 L476.457022,203.394786 C476.178544,203.793802 475.899877,204.192776 475.621074,204.591725 L473.947066,206.985249 C473.533958,207.575643 473.120792,208.166055 472.707744,208.756537 L470.85042,211.414372 C470.438123,212.005189 470.026209,212.596158 469.614853,213.187333 L468.382641,214.961528 L468.382641,214.961528 L467.154841,216.737278 C448.980432,243.090706 432.611543,270.063915 433.589846,302.389945 L433.646,303.864 L433.682163,302.867496 C434.942111,272.62638 452.254274,247.054901 471.177849,222.678377 L472.427739,221.072829 L473.681379,219.470522 C474.518185,218.403349 475.356878,217.33819 476.196232,216.274749 L478.156488,213.794924 C486.651123,203.061339 495.11568,192.480155 502.280187,181.745801 C539.217287,126.400489 536.017598,75.8985069 541.382204,11.7394767 C543.882507,12.7539367 545.127096,13.2579866 547.605147,14.2597261 C546.604389,27.8026082 546.65856,41.8286149 546.560137,55.9041299 L546.536271,58.9209114 C546.355725,79.0357331 545.68774,99.1883825 541.011847,118.114672 C535.020973,142.371078 521.225591,164.641497 507.584391,185.2662 C482.714732,222.87151 441.105902,260.194548 439.537856,307.522052 C444.884584,262.251081 490.014405,225.733014 515.27668,190.938908 C530.117962,170.498652 546.001964,148.201202 554.373928,124.127653 C565.349515,92.5696784 562.853979,55.5911801 566.845246,22.6800622 C569.196136,23.791516 570.362838,24.3416777 572.675579,25.4324607 C571.26572,37.0447662 570.67952,49.2131293 570.01905,61.4819247 L569.881047,64.0215797 L569.739157,66.5632042 C568.559709,87.3254042 566.814638,108.194914 560.172471,126.973865 C551.56049,151.322495 535.048631,174.101734 520.153306,194.912474 C495.629542,229.174953 450.797082,266.935872 445.26395,311.480661 C454.507921,269.53285 502.72881,232.820044 527.167031,201.186544 C543.326019,180.269269 561.519583,157.499571 571.768762,132.898121 C584.322735,102.761662 584.255976,66.3206052 590.415338,34.4716492 C591.333622,34.9766077 592.053088,35.3723386 592.740772,35.7507133 L593.424049,36.1267051 C594.109106,36.5037169 594.818062,36.8939962 595.717953,37.3894143 C589.301089,69.2510908 588.905301,105.297812 576.427625,135.512184 C566.013136,160.732168 547.92448,183.915283 531.579519,205.494024 C508.021018,236.589645 460.25199,274.563734 450.800352,315.62247 C463.761076,277.519819 514.600389,241.094995 537.885593,212.154796 C555.492627,190.269173 573.158474,167.025637 585.130684,141.454248 C592.827343,125.012128 597.362293,107.08491 601.46801,89.0503013 L602.066099,86.4104836 C602.165376,85.9704395 602.264477,85.5303715 602.363441,85.0902996 L602.969661,82.3885849 C603.171389,81.4881112 603.372886,80.5877924 603.574492,79.6877998 L604.252193,76.6678622 C606.51573,66.6070898 608.840455,56.6111854 611.702571,46.9202501 C613.624292,48.158909 614.574821,48.7742632 616.459983,49.9954314 C613.615276,59.1565386 611.225643,68.5487223 608.915512,77.9969202 L608.147898,81.1481539 C607.920407,82.0848637 607.693287,83.0219321 607.466172,83.959189 L606.784481,86.7713555 L606.100636,89.5836331 C601.529618,108.330254 596.66904,127.016268 588.600591,144.28138 C576.46625,170.248694 559.410777,194.125075 541.830764,216.626053 C518.88537,245.997706 468.78337,283.16177 455.848878,320.953547 C460.645842,311.58647 468.191885,304.553009 476.166728,297.694892 L477.146591,296.854684 C478.455517,295.735185 479.773367,294.618016 481.089992,293.493744 L482.077072,292.649062 C482.241495,292.508011 482.405858,292.366811 482.570143,292.225446 L483.55475,291.375111 C483.718641,291.233007 483.882413,291.0907 484.046048,290.948171 L485.026041,290.090195 C485.841056,289.372754 486.651627,288.648855 487.455277,287.916196 C509.058347,268.218499 529.135484,246.073696 547.424419,223.315128 C588.066674,172.736824 605.73252,118.611089 630.880203,60.1047321 C632.627078,61.4276642 633.496541,62.0859502 635.232289,63.4041122 C609.016453,121.237873 590.23318,176.494142 550.873662,227.597167 C533.147414,250.613325 513.68224,273.720116 492.239711,293.432124 C490.797461,294.757771 489.327408,296.048326 487.845379,297.319071 L486.855759,298.163466 C486.029887,298.864963 485.201405,299.561393 484.373025,300.255376 L483.379193,301.08715 C483.213621,301.225639 483.048096,301.364072 482.88264,301.50247 L481.89091,302.332606 C473.92501,309.007791 466.221455,315.699117 461.219196,324.761174 C466.680317,317.282366 474.181719,312.032511 481.930761,306.905908 L483.000657,306.199587 L484.072647,305.493602 C484.608991,305.140489 485.14573,304.787043 485.682274,304.432572 L486.754931,303.722061 C489.792406,301.703921 492.811083,299.638134 495.704054,297.399171 C518.456342,279.787637 538.145638,256.353292 555.793999,233.845955 C577.351326,206.353771 593.644127,176.585932 609.436036,146.458857 L611.328965,142.842006 C612.589722,140.429786 613.848493,138.015758 615.107716,135.600902 L616.997195,131.978121 C627.079481,112.65462 637.268791,93.3095699 648.813882,74.4453486 C650.506713,75.9082063 651.357103,76.6444053 653.083314,78.1247537 C638.27869,100.971371 625.645447,124.819597 612.949263,148.611538 L610.771741,152.689408 C595.155772,181.90736 579.25209,210.949111 558.917392,237.852913 C541.82377,260.466785 522.943536,285.073005 500.367685,302.574825 C497.13285,305.082727 493.730794,307.343124 490.315749,309.548142 L489.237062,310.242847 C488.697683,310.589503 488.158384,310.935283 487.619773,311.280943 L486.54365,311.972326 L485.195823,312.842624 C478.023488,317.493266 471.138776,322.326679 466.003155,329.163426 C472.178266,322.800913 479.991482,318.740019 487.952606,314.748737 L489.138827,314.154728 L490.32614,313.56011 C494.878208,311.277484 499.430279,308.945367 503.705344,306.148809 C527.397034,290.648878 546.393302,265.835949 563.510766,243.713407 C580.232848,222.102569 594.428783,198.766899 608.593301,175.453985 L610.829906,171.773443 C627.98079,143.561307 645.278044,115.517301 667.147006,90.7414243 C668.933618,92.4189404 669.826924,93.2569035 671.611947,94.9344196 C649.142016,119.339464 631.286634,147.102408 613.850542,175.224037 L611.87821,178.408989 C611.221213,179.471043 610.564587,180.533447 609.908108,181.596039 L607.938884,184.784219 C607.282471,185.847026 606.62598,186.909861 605.969184,187.972562 L603.821492,191.444633 C592.000015,210.536107 580.000792,229.527619 566.514945,247.483446 C549.833008,269.695031 531.691897,295.291861 508.144854,310.74727 C504.443502,313.176645 500.529842,315.243522 496.585727,317.225101 L495.401761,317.817293 C486.466754,322.269175 477.468918,326.426195 470.515664,333.500642 C476.995477,328.338907 484.625239,325.188889 492.38895,322.175798 L493.716998,321.661803 C493.938494,321.576244 494.160051,321.49071 494.381647,321.405156 L495.711493,320.89126 C501.031204,318.831993 506.345843,316.711882 511.330555,313.931689 C535.898066,300.228529 554.113884,274.852718 571.053323,253.022747 C582.16048,238.710336 592.604056,224.180676 602.951428,209.710919 L605.249492,206.496516 L607.545771,203.284761 L609.841651,200.07633 C632.803061,168.010893 655.912031,136.545422 685.394931,108.721376 C687.071867,110.508607 687.91113,111.402222 689.588066,113.189453 C643.835528,156.609295 611.983279,206.661289 574.089292,256.605158 C557.440734,278.548024 539.995831,304.202095 515.547533,317.994299 C510.971686,320.575925 506.117651,322.596879 501.237214,324.52278 L499.905721,325.046019 C491.010738,328.5297 482.104103,331.838439 474.707637,337.786501 C481.250188,333.652414 488.550225,331.158347 495.971402,328.85539 L497.499691,328.383824 C498.264485,328.148921 499.0301,327.914991 499.795844,327.680454 L501.327298,327.210108 C507.196957,325.40044 513.04707,323.493425 518.565859,320.778658 C543.867725,308.333237 561.60351,283.526669 578.751175,261.901816 C618.004195,212.403164 653.663327,168.350477 702.558332,127.813418 C704.082675,129.702413 704.829746,130.64691 706.288919,132.535904 C657.490874,172.847174 620.706367,215.659613 581.907947,265.349072 C580.600023,267.024387 579.290687,268.714689 577.976439,270.413573 L576.848655,271.871711 C576.660463,272.115035 576.472151,272.358496 576.283707,272.602077 L575.151395,274.064839 C574.773379,274.552803 574.394759,275.041094 574.015451,275.529563 L572.875384,276.995352 L571.699275,278.501466 C557.751086,296.321044 542.668711,313.973802 522.488777,324.210013 C516.497461,327.249206 510.104292,329.347516 503.721404,331.407331 L501.807258,332.025023 C493.517533,334.704505 485.314831,337.471435 478.104606,342.308359 C485.412837,338.556513 493.250277,336.578352 501.15177,334.628415 L503.307962,334.096002 C509.41969,332.582052 515.544415,330.990206 521.467515,328.515108 C543.513623,319.3025 560.073285,302.112448 575.327183,284.172286 L576.483264,282.808418 C577.060117,282.125879 577.635239,281.442523 578.20886,280.758745 L579.354169,279.390743 C579.544742,279.162688 579.735166,278.934615 579.925449,278.706539 L581.065514,277.338168 L582.215499,275.954895 C582.789798,275.263541 583.36311,274.572704 583.935671,273.882792 L585.079861,272.504322 L585.651338,271.816241 L586.793315,270.442838 C626.594717,222.623292 666.206968,184.743228 716.4165,147.941227 C717.491011,149.924035 718.006013,150.914644 718.989922,152.897452 C669.605346,189.289218 629.355701,226.676362 590.120165,273.824901 L589.536313,274.526657 L588.36676,275.932817 C587.781317,276.636687 587.194826,277.341646 586.607066,278.047275 L585.429785,279.4593 C568.332749,299.942987 550.042974,320.75356 525.142469,331.625271 C518.61491,334.47434 511.841174,336.263627 505.118465,338.065795 L503.506147,338.499112 C496.711522,340.332326 489.993539,342.26666 483.66043,345.414564 C490.000255,342.892077 496.652436,341.367653 503.348298,339.943608 L505.16233,339.559786 C512.7236,337.965242 520.309661,336.39522 527.535321,333.558946 C552.975868,323.572121 572.62063,303.492193 590.777101,283.67732 L592.041471,282.295447 L593.301336,280.915217 C593.930197,280.225642 594.557491,279.536976 595.1834,278.849659 C634.538149,235.638114 676.727,201.706176 725.156278,169.024027 C725.725324,171.094289 725.989183,172.12783 726.477163,174.198091 C679.406918,206.433433 637.260985,240.411483 598.468923,282.212641 C578.852744,303.347755 558.038073,325.015539 530.816076,336.18255 C524.351066,338.835159 517.582438,340.53809 510.81052,342.183052 L508.161137,342.825753 C500.360376,344.721876 492.607288,346.69551 485.361795,350.112232 C493.473305,347.104999 501.991258,345.434667 510.50275,343.704685 L512.57217,343.282079 C519.468344,341.864518 526.338245,340.333379 532.9616,337.944816 C560.456994,328.029185 582.505127,307.247065 603.175153,287.441244 C641.585731,250.637653 684.232362,219.827008 728.97397,190.98009 C729.131332,193.128265 729.198091,194.201557 729.315715,196.349732 C686.103218,224.864327 644.024044,255.824437 606.126878,291.001395 C585.165972,310.457402 563.165524,330.325236 535.913326,340.490506 C520.458658,346.254167 503.614676,347.762569 488.435917,354.086293 C495.7041,351.692616 503.192058,350.096534 510.710685,348.586152 L513.248109,348.078841 C522.977297,346.138866 532.72222,344.208582 542.07396,340.751118 C565.171896,332.212808 584.866136,317.311314 603.822164,301.952212 L605.684404,300.440213 L607.542447,298.926512 C607.851803,298.674156 608.161007,298.421781 608.470071,298.169413 L610.322874,296.655499 C647.442768,266.309152 688.994224,239.38621 729.558593,213.721008 C729.539519,215.384611 729.529385,216.423916 729.527523,217.77537 L729.527499,218.73286 C729.527697,218.903575 729.527995,219.080712 729.528392,219.265557 C690.224507,244.844896 649.757099,271.561129 612.929675,300.528891 C591.774848,317.170488 570.198801,333.888407 544.68235,343.363591 C537.242852,346.125674 529.540414,348.022553 521.808532,349.800064 L519.488317,350.330482 C519.101545,350.418537 518.714758,350.50648 518.327985,350.594404 L516.007747,351.12247 C507.220893,353.127626 498.4714,355.219427 490.101956,358.492501 C498.582942,355.954026 507.256531,354.208726 515.9428,352.49549 L519.200393,351.853043 C530.058678,349.706654 540.901635,347.461712 551.377855,343.631675 C572.194315,336.021238 590.469739,323.994103 608.757637,311.860142 L613.237945,308.888768 C614.358778,308.146563 615.48044,307.405277 616.603516,306.665897 C653.52949,282.357019 692.223002,260.255147 729.911941,237.159486 C730.042282,239.438046 730.134473,240.578121 730.387206,242.856681 C722.039692,247.402961 714.426773,252.963513 706.891317,258.645562 L704.739869,260.27154 L701.991518,262.351443 C695.116369,267.547207 688.187001,272.68285 680.703802,277.079601 C671.995769,282.195287 663.085122,286.826458 654.162422,291.442985 L649.700949,293.752203 C639.29262,299.147683 628.911114,304.629822 618.859035,310.944756 C614.567203,313.640914 610.296214,316.360164 606.016253,319.053195 L603.68066,320.519224 C587.712245,330.51527 571.543888,340.022498 553.631785,346.487428 C543.961789,349.977113 533.962742,352.245945 523.955691,354.451203 L520.203299,355.277455 C510.824515,357.346937 501.473967,359.487686 492.416188,362.653273 C500.307156,360.586265 508.309928,359.033778 516.328557,357.547626 L520.458969,356.78588 C532.163032,354.631407 543.86584,352.454865 555.269778,348.868229 C578.92014,341.429915 600.146495,329.137141 621.989581,317.750702 C659.047484,298.43144 697.000283,279.654389 734.446027,261.201712 C735.267805,263.532743 735.722406,264.698259 736.711083,267.029291 C699.101619,285.564652 661.568451,303.883765 623.88269,322.450927 C621.508541,323.620496 619.141258,324.799565 616.777363,325.981522 L613.233625,327.755796 C597.884666,335.446541 582.605324,343.119598 566.440161,348.958955 C586.403915,343.70969 606.307393,337.76034 626.462629,329.880177 C665.855526,314.47724 706.268891,300.235048 746.051219,285.752757 C747.388,288.12672 748.088975,289.312907 749.538611,291.686871 C709.060076,306.161212 668.346293,320.231676 627.985382,334.981098 C602.496243,344.295975 576.651946,350.586946 550.828844,356.866133 L545.664617,358.122706 C528.761837,362.241266 511.878894,366.440841 495.121391,371.56661 C540.404614,362.090081 585.076228,355.489411 630.001679,342.915193 C673.347695,330.783015 718.008239,321.644924 761.740506,310.714833 C763.323661,313.122188 764.129544,314.325866 765.754026,316.73322 C721.015597,327.593349 675.676332,336.884085 631.149308,348.381829 C586.516765,359.908414 540.566067,365.370224 496.054819,376.447402 L487.226864,377.81532 C583.961439,362.765377 681.26029,349.854068 778.255545,335.991901 C779.735381,338.423107 780.468147,339.639505 781.901888,342.070711 C754.478916,345.892526 726.858041,349.334999 699.17272,352.728565 L689.942075,353.858396 C688.403298,354.04655 686.864367,354.234667 685.325306,354.422802 L676.089561,355.552298 L666.851788,356.68497 C609.638946,363.714971 552.372643,371.084155 496.226874,381.69928 L488.371,382.339 L498.645595,381.50308 C570.912364,375.674849 643.307529,370.940164 715.690326,366.324936 L737.404654,364.942977 C755.499383,363.792708 773.592459,362.643817 791.681683,361.481083 C792.667181,363.92819 793.12973,365.150948 793.978529,367.596464 C758.286436,369.867743 722.455205,371.709133 686.600056,373.621573 L675.842908,374.197938 C615.931203,377.425293 555.984892,380.990819 496.541339,387.230848 L488.072326,387.176178 C591.342978,387.942589 694.650188,387.085545 797.924018,387.085545 C798.033695,389.535832 797.992367,390.76177 797.992367,393.212057 C697.43561,393.080546 596.877348,393.260665 496.320509,393.222136 C558.294158,400.54005 620.985343,403.742622 683.5963,406.702317 L692.722187,407.132464 C695.763899,407.275569 698.805331,407.418545 701.84639,407.561836 L710.968358,407.9931 C739.850477,409.364579 768.690745,410.804609 797.410765,412.694141 C797.264529,415.138067 797.191412,416.360825 797.045177,418.804752 C768.456905,417.002681 739.748928,415.639717 710.999504,414.328808 L702.373512,413.93671 C697.144979,413.699552 691.915334,413.462836 686.685049,413.224234 L678.839198,412.864627 C617.506547,410.038035 556.118084,406.79236 495.432036,399.37743 C592.295085,423.364745 696.562147,427.542009 795.229794,438.212262 C794.913481,440.645058 794.75453,441.861456 794.42709,444.297432 C771.719433,442.02677 748.704999,440.079836 725.549057,438.1239 L719.505275,437.613233 C716.985786,437.400187 714.464795,437.186694 711.942513,436.972324 L706.896294,436.542292 C635.385604,430.430043 562.95305,423.386269 494.426147,405.691894 C515.285513,413.551196 537.678839,418.765262 560.078387,423.676161 L563.876052,424.50633 C580.963331,428.23282 598.003997,431.859858 614.319863,436.427417 C652.12838,447.010922 690.311989,452.107562 728.80538,456.483536 L733.083695,456.967032 L737.523138,457.463724 C739.743536,457.711136 741.964946,457.957349 744.187355,458.203275 L748.633502,458.695015 C762.717165,460.252689 776.84058,461.823223 791.000577,463.63816 C790.460143,466.063005 790.183567,467.276223 789.62088,469.707429 C778.241173,468.371619 766.873726,467.219154 755.525698,466.114543 L751.52133,465.726447 L745.517955,465.148858 L741.517925,464.764905 L737.519753,464.380293 C735.521143,464.187601 733.523255,463.994166 731.52613,463.799243 L727.532908,463.407192 C687.611081,459.462424 648.004628,454.723814 609.028375,443.234475 C594.981607,439.094239 580.291322,435.714106 565.489579,432.347898 L561.935293,431.539893 C560.749999,431.270393 559.564265,431.000599 558.378362,430.730131 L554.820419,429.916319 C533.197338,424.953444 511.608798,419.639196 491.705862,411.658066 C508.93625,421.199092 528.333483,428.047963 547.850555,434.556317 L550.778759,435.53031 L556.049156,437.276257 C571.267351,442.314356 586.384102,447.345588 600.427997,453.485927 C640.421088,470.971684 682.442259,477.161036 725.026856,482.057416 L727.964601,482.393169 L731.702144,482.815283 C732.94842,482.955246 734.195112,483.094551 735.442184,483.233447 L739.1845,483.64916 L742.928873,484.06392 C756.661745,485.584792 770.431676,487.116676 784.189991,488.992028 C783.385698,491.407333 782.977193,492.617371 782.157004,495.037446 C769.428185,493.441977 756.648947,492.169227 743.875456,490.938481 L738.127963,490.386532 L732.382383,489.83457 L729.54895,489.560523 L726.716395,489.284407 C725.772372,489.191948 724.828519,489.099029 723.884857,489.005539 L721.054471,488.723236 L719.654962,488.582123 L716.856958,488.296545 C674.897507,483.97688 633.430623,477.962957 594.464145,460.219843 C580.878695,454.033103 566.227569,448.911726 551.47927,443.779224 L548.623807,442.785409 L545.767478,441.789581 C525.963135,434.87382 506.208852,427.687864 488.845438,417.629915 C503.618241,428.932104 521.084124,437.618936 538.694411,446.053153 L542.561404,447.901435 L545.139019,449.131857 L546.427046,449.747155 L548.947259,450.953457 C561.537719,456.990735 573.948273,463.133829 585.240838,470.252503 C641.819548,505.920789 710.089126,505.051025 774.748921,514.189115 C773.715737,516.57898 773.200735,517.774707 772.180268,520.162981 C757.749843,518.264192 743.087545,516.884106 728.385844,515.494106 L724.375457,515.114371 C722.343179,514.921446 720.310483,514.727413 718.277877,514.530879 L715.229098,514.234027 L712.363708,513.95063 C665.567788,509.282454 619.08065,502.569883 579.105318,476.77653 C567.460442,469.263082 554.362847,462.764469 541.13237,456.249586 L538.796469,455.099522 C519.834103,445.762127 500.758443,436.266985 485.445467,423.586035 C498.060897,437.123248 514.444594,448.161052 530.933324,458.937545 L533.03116,460.307196 C545.967868,468.746787 558.873632,477.083999 569.980243,486.399748 C608.954569,519.091641 658.392904,526.579803 707.951855,532.399496 L711.049353,532.761268 C712.081842,532.881276 713.114291,533.000772 714.146604,533.119971 L718.220613,533.589424 C733.154517,535.308623 748.034423,537.023942 762.576749,539.380638 C761.208178,541.757782 760.523098,542.932838 759.162475,545.251149 C746.453398,543.254794 733.486793,541.751917 720.448024,540.316281 L716.328335,539.86466 C714.267507,539.63947 712.205367,539.414838 710.142644,539.189086 L706.016637,538.735591 C655.124958,533.111806 604.174543,526.125939 564.11653,492.596223 C553.244973,483.496416 540.378754,475.164092 527.539957,466.604255 L525.339667,465.134439 C509.211705,454.336729 493.309694,443.089597 481.651109,429.416186 C492.330515,445.64714 508.114144,459.731991 523.970919,473.301062 L525.766067,474.835068 L528.394291,477.076023 C538.020946,485.279605 547.501495,493.348482 555.703715,501.649563 C591.246377,537.623247 638.510791,546.534419 686.689352,553.28761 L689.701605,553.707099 C690.706021,553.846143 691.710735,553.984475 692.715652,554.122321 L695.889626,554.556269 L700.651602,555.204578 L704.773933,555.766978 C719.199248,557.741492 733.585528,559.801352 747.643752,562.612567 C746.114641,564.644667 745.354854,565.640046 743.851175,567.584693 C676.633854,553.770228 602.104775,557.947323 550.482165,507.427851 C543.025124,500.130417 534.488296,492.909831 525.785508,485.522198 L524.043008,484.042371 C506.377076,469.029846 488.280121,453.265119 477.348359,434.720811 C490.855814,465.486193 521.06219,491.603226 543.273406,515.796192 C576.006532,551.447357 621.409307,561.027263 667.509523,569.013763 L670.391586,569.511065 C671.352504,569.676289 672.313617,569.841042 673.274816,570.005547 L679.367056,571.046934 C696.964295,574.057818 714.513758,577.142019 731.350927,581.658179 C729.716908,583.245062 728.907846,584.014652 727.307207,585.509311 C711.307568,581.021757 694.601688,577.879693 677.776396,574.908959 L673.736334,574.198671 C672.389082,573.962604 671.041367,573.727033 669.693489,573.491356 L665.649664,572.783405 C619.146953,564.624492 572.807461,555.624067 538.969005,521.095871 C515.868185,497.523454 486.218558,472.302911 473.503522,441.136203 L473.123,440.19 L473.41351,441.217248 C483.150749,475.064824 509.109683,503.590785 533.306843,528.715769 C563.827683,560.4068 606.810192,570.296568 649.678317,579.476901 L653.574754,580.310109 C674.35034,584.749724 695.00945,589.172815 714.118701,595.983372 L713.326159,596.511663 C712.09918,597.327196 711.276387,597.860971 709.876291,598.758031 C651.11041,576.784955 577.601798,578.309825 530.078542,533.485957 C503.614658,508.523985 477.319212,481.046813 468.781019,445.693193 C474.406813,484.064238 496.447251,513.324147 525.919581,540.165175 C550.453427,562.509404 582.259617,572.634741 614.880645,581.205019 L615.429,581.349 L614.941636,581.224886 C606.032379,578.962 596.905816,576.840755 587.422603,574.723598 C563.462286,569.376217 542.359913,560.446425 523.406562,544.564878 C492.002922,518.250929 469.23481,491.049433 464.392424,451.879783 L464.251,450.69 L464.30179,451.969587 C466.144403,494.084093 485.06624,522.390305 520.248041,550.57611 C539.420745,565.934526 560.519939,574.482703 584.397601,579.413488 C619.649818,586.692795 645.611331,595.876997 676.738762,614.937078 C674.796377,615.779812 673.825185,616.217079 671.876442,617.153626 C641.697951,597.508401 617.877511,588.653342 583.16096,581.717488 C559.24197,576.93935 538.166619,569.001757 518.385131,554.412932 C480.523663,526.492954 461.028574,500.242368 459.840353,456.659938 L459.809,455.341 L459.747297,456.746334 C457.864086,503.158335 474.251408,530.123263 515.81632,560.090728 C536.088967,574.708174 556.66998,581.545444 580.439555,587.857993 C612.805216,596.452282 629.731939,603.140085 655.750675,626.210305 C653.752657,627.60956 652.786234,628.347349 650.918556,629.904021 C626.169841,606.530099 610.872369,599.562444 579.260137,591.004727 C555.539836,584.584053 534.857094,577.831057 514.220449,563.821015 C468.996577,533.119526 452.058246,507.427375 455.639771,456.474047 C455.440578,457.633936 455.23817,458.7999 455.035941,459.969544 L454.789221,461.39985 L454.543766,462.833535 L454.293763,464.311417 C451.478971,481.078191 449.371706,498.418838 455.725421,514.347486 C464.871478,537.27301 492.354156,556.088222 511.865427,569.452699 C532.462334,583.561325 553.437546,590.79611 576.469588,599.353828 C604.468857,609.756018 616.339339,621.053414 637.138115,643.691136 C635.542244,645.599212 634.777689,646.593001 633.312158,648.658492 C613.56405,627.200596 601.583891,614.251125 575.159829,603.526152 C552.388468,594.284708 531.100122,586.940208 510.275914,573.194116 C490.047773,559.84077 461.434952,542.001856 451.786608,518.51345 C445.255951,502.616607 447.308887,485.170419 450.058319,468.339875 L450.298964,466.877954 L450.538581,465.439685 C450.618713,464.96085 450.699043,464.48262 450.779386,464.005045 C450.625622,464.71512 450.47179,465.426901 450.318462,466.140231 L450.012648,467.568908 L449.700924,469.040732 L449.392795,470.516314 C445.874198,487.50594 443.287259,505.180498 449.17488,521.455066 C458.306631,546.695721 486.758912,564.451952 507.724587,578.843609 C518.183581,586.023354 529.343592,591.702732 540.518212,597.288055 L543.87035,598.962237 C553.365426,603.705726 562.821464,608.482867 571.816925,614.157312 C593.397741,627.769839 606.797334,647.168604 623.089841,666.869481 C621.927908,669.310227 621.368399,670.553656 620.271635,673.073905 C617.512947,669.738458 614.810277,666.359869 612.119746,662.97922 L609.920221,660.213609 L608.454244,658.371827 L606.986718,656.53334 C595.970513,642.760755 584.690162,629.391248 570.141578,619.237562 C550.150275,605.286352 526.27897,596.334299 505.866446,582.567536 C484.339673,568.050263 455.663271,551.015922 446.005391,525.277577 C439.941201,509.114142 442.06793,491.720207 445.254809,474.852217 L445.534427,473.386804 L446.043399,470.77926 L446.557,468.195 L446.207686,469.633814 C446.090282,470.118569 445.973039,470.604254 445.856183,471.090772 L445.492668,472.612925 C441.451816,489.639106 438.099753,507.605974 442.728292,524.069606 C450.756922,552.620772 480.139067,571.855761 502.605242,587.934475 C522.072007,601.865014 544.886285,613.372298 562.690419,629.39854 C575.33356,640.779218 585.810078,655.718629 595.844127,670.489296 L597.346132,672.703165 C602.093335,679.70679 606.760158,686.630292 611.531381,693.074191 C610.404416,695.549919 609.843318,696.790167 608.716353,699.264305 C593.29172,678.401092 579.009947,653.112735 560.43331,634.827014 C549.510531,624.075658 536.246796,615.300461 523.007543,606.737251 L520.67194,605.227938 C513.668782,600.704445 506.711484,596.211281 500.151035,591.486675 C477.751619,575.355489 448.787516,555.740475 440.140565,527.543893 C435.036593,510.903629 437.996145,492.770391 441.689538,475.508301 L441.854,474.736 L441.761429,475.116017 C437.011233,494.579564 433.556962,514.415365 440.447659,533.739254 C449.792406,559.941898 475.03546,579.976688 496.058357,596.675526 C501.523156,601.015616 507.267984,605.23056 513.047056,609.486503 L515.08775,610.990573 C528.696521,621.032666 542.334788,631.409961 552.800787,644.286774 C570.476171,666.032471 583.651643,694.580457 599.047664,718.019572 C597.731548,720.240889 597.063952,721.341213 595.704919,723.513238 C580.178557,699.784733 566.984011,671.743977 549.661499,649.368614 C540.090099,637.00585 527.905072,626.893671 515.481694,617.166964 L513.465378,615.592745 C506.739862,610.354645 499.982217,605.199718 493.56759,599.833391 C473.123276,582.730676 448.60186,562.411265 438.595877,536.849417 C431.270505,518.13263 433.593565,498.964817 437.557621,479.919675 L437.857877,478.491529 L438.163536,477.063896 L438.240707,476.707074 L438.315,476.364 L438.141469,477.052898 C432.977466,497.664134 429.507865,518.39472 437.463826,539.004588 C447.415766,564.782685 471.420589,585.558444 490.70297,604.352985 C492.867667,606.462587 495.051535,608.55688 497.242038,610.646359 L499.120945,612.436408 C499.747594,613.032861 500.374492,613.629166 501.001347,614.225568 L502.881491,616.015308 C516.977216,629.44421 530.903121,643.04601 541.328955,659.609254 C550.114546,673.566471 557.702606,688.653418 565.245204,703.743255 L567.507772,708.269166 C572.789291,718.824568 578.104985,729.326172 583.850014,739.38747 C582.225532,741.200142 581.398985,742.088987 579.714101,743.828515 C551.520912,694.105665 529.412377,648.58694 489.370958,607.178527 C470.544768,587.711389 446.992955,567.177319 436.114329,541.761757 C427.253682,521.061142 429.861762,500.324039 434.399276,479.356229 L434.551,478.655 L434.38316,479.313745 C428.916135,500.831422 425.613885,522.378395 435.295571,543.658066 C443.461853,561.606948 456.978338,576.869102 470.552059,591.657097 L472.11821,593.361426 C477.598521,599.320093 483.054965,605.215308 488.138927,611.192799 C511.368906,638.506372 526.914454,670.707524 541.465148,703.415696 L542.627208,706.033348 C542.820573,706.469776 543.013793,706.906273 543.206884,707.342829 L544.364004,709.962792 C544.749278,710.836294 545.134162,711.709948 545.518782,712.583672 L546.850552,715.611093 L548.846817,720.151592 L550.178445,723.177051 C555.064021,734.266965 559.989836,745.313952 565.215996,756.147685 C563.260895,757.507189 562.269039,758.168655 560.255126,759.459786 C537.316866,711.522575 521.404252,655.247076 487.789234,613.687607 C469.9549,591.638208 447.134263,571.678151 434.262388,546.067011 C423.822249,525.290706 425.712244,504.384814 430.218444,483.063146 L430.36,482.393 L430.200336,483.043956 C424.859203,504.864468 422.646843,526.028183 433.598766,547.710658 C441.817102,563.982131 454.105347,577.815109 466.369103,591.574834 L468.163149,593.588204 C468.461969,593.92377 468.760656,594.259361 469.05915,594.595012 L470.847325,596.609902 C476.797028,603.330406 482.622089,610.102117 487.847251,617.199579 C502.216448,636.717598 507.190033,655.466028 512.726307,678.552148 C520.209733,709.755539 531.447589,738.594506 543.318071,768.35094 C541.081627,769.304977 539.953073,769.767685 537.67848,770.672431 C525.731701,740.71088 515.727307,712.627192 509.94148,680.808447 C505.713376,657.5506 501.97961,639.210817 488.195355,619.357294 C481.273808,609.388122 473.127341,600.272792 464.925976,591.194642 L462.957193,589.016181 L460.989897,586.83664 C450.508003,575.205077 440.242878,563.420348 432.648238,549.76979 C420.564,528.046594 421.724524,506.975633 426.358951,484.6979 L426.491,484.063 L426.331096,484.710141 C420.782407,507.390526 419.200766,528.738989 431.949647,551.155052 C447.059556,577.72023 472.396391,596.853454 489.030644,622.35647 C502.511302,643.025695 504.413949,661.324137 505.208706,685.359525 C506.289574,718.011462 509.188846,745.742156 518.872158,777.090242 C517.844198,777.415296 517.039288,777.67055 516.269871,777.915707 L515.505338,778.15971 C514.738744,778.40477 513.945122,778.659634 512.936917,778.984007 C503.763838,747.144591 502.786288,720.159637 503.488853,687.253289 C504.003855,663.206771 503.026304,645.037125 489.688702,624.172322 C473.040144,598.125505 447.119958,579.156056 430.821093,552.86755 C416.94882,530.493295 417.430358,509.320054 422.267117,486.192235 L422.407,485.525 L422.236939,486.201151 C416.409187,509.622423 415.423418,531.015103 429.886936,553.997448 C437.72068,566.44497 447.66507,577.260632 457.795536,587.939044 L460.135763,590.401536 L462.477341,592.863238 C472.619509,603.534795 482.651667,614.299043 490.649244,626.650593 C520.168088,672.242461 486.398887,733.205466 494.365526,784.424565 C492.0353,785.033559 490.871776,785.338851 488.544729,785.947845 C481.719361,734.383702 520.994635,674.250711 491.140404,628.116631 C473.643046,601.079205 446.298656,581.961881 428.295833,555.360132 C412.625963,532.206471 412.73949,510.758935 418.089091,486.556002 C411.635667,510.903057 410.834788,532.535199 426.912004,556.232917 C445.304257,583.346667 473.635734,602.45445 491.444637,630.062709 C510.002997,658.830206 499.613413,690.396768 487.699856,722.211764 L486.961232,724.179997 C486.837884,724.508081 486.714434,724.836186 486.590913,725.164309 L484.736459,730.087155 C477.121328,750.328205 469.804389,770.584644 469.83203,790.201104 C467.454119,790.660632 466.261984,790.889601 463.872946,791.349129 C464.955405,738.167892 523.826193,681.205486 491.222105,631.172573 C481.972856,616.978916 469.924718,605.088731 457.766448,593.29034 L454.346246,589.972641 C443.710368,579.647101 433.183162,569.233093 424.565883,557.248967 C407.719867,533.818355 407.49798,512.455718 413.28946,487.891197 L413.464,487.153 L413.253342,487.889613 C406.27257,512.404121 405.565819,533.938765 422.517318,557.867661 C431.015947,569.864883 441.479679,580.247843 452.100667,590.502388 L454.378341,592.698366 L456.180097,594.434078 L457.980438,596.170969 C469.673815,607.468075 481.153613,618.941726 490.004856,632.576757 C524.549739,685.791386 452.048878,741.100127 444.651285,794.399029 C442.212972,794.705911 440.992226,794.860147 438.545966,795.167029 C441.41207,776.541468 452.691337,757.733975 464.644374,738.852363 L465.700606,737.186148 C466.053134,736.630681 466.406049,736.075153 466.759153,735.519566 L468.821211,732.275493 C489.777797,699.287725 510.050457,666.112229 488.470976,633.322497 C479.538314,619.750255 467.991544,608.359407 456.163329,597.203401 L454.387278,595.531518 C453.794751,594.974648 453.201813,594.418123 452.608754,593.861697 L450.306317,591.701436 C439.181055,581.257514 428.146248,570.738093 419.128477,558.535487 C401.439196,534.599813 401.580835,513.058668 408.273226,488.069246 L408.477,487.315 L408.234077,488.060315 C400.249847,512.759718 398.828193,534.474626 416.199482,558.900725 C435.895136,586.594847 466.374045,605.45299 484.810805,634.175883 C521.153427,690.794836 431.848236,744.244794 419.016098,797.003074 C416.557122,797.157311 415.326839,797.233634 412.869452,797.38787 C422.889741,756.534389 452.052534,734.480219 475.644084,701.125473 C491.292838,679.001341 496.790963,658.367097 481.352025,634.555908 C462.624384,605.674009 431.663852,586.91922 411.496113,559.226687 C393.850936,534.998342 394.877226,513.387829 402.569259,488.658892 L402.8,487.92 L402.484217,488.769044 C392.013343,517.111312 390.945087,540.203076 413.965898,568.18049 C432.825468,591.101243 458.817183,609.215238 474.327649,634.853409 C492.276429,664.523979 477.344545,687.104459 457.183164,710.387748 C432.243707,739.190144 404.13794,760.360238 393.345148,798.000203 L387.220754,798.000203 C397.781478,760.15035 426.186073,739.179013 451.273355,710.387748 C471.558718,687.10764 486.285555,664.592352 468.314522,634.88839 C452.799287,609.243859 426.861616,591.071032 408.013172,568.124837 C384.811241,539.878415 386.251032,516.711423 396.902758,488.017202 L397.226,487.15 L396.859851,487.988802 C384.786835,515.755892 381.399904,538.990617 403.242408,567.820817 C410.046286,576.801252 418.17139,585.14506 426.3041,593.547858 L427.986407,595.287438 C439.757284,607.473584 451.354089,619.884088 458.786346,634.632072 C490.471696,697.503152 386.544576,744.659641 367.743817,797.386121 C365.302326,797.231884 364.08158,797.155561 361.640088,797.001325 C380.971744,744.179442 484.332997,697.511102 452.482338,634.226606 C445.768661,620.887413 435.75099,609.407198 425.301091,598.254617 L423.603177,596.448721 C423.319711,596.148136 423.036043,595.84773 422.752229,595.547473 L421.048052,593.747471 C420.763883,593.447688 420.479681,593.147992 420.195504,592.848355 L418.491186,591.050982 C411.111012,583.263287 403.824013,575.473879 397.626659,567.151401 C376.207723,538.386169 379.622191,515.319619 391.344275,487.64559 L391.693,486.826 L391.307636,487.613551 C378.371575,514.240121 373.261064,537.231719 393.111807,566.355416 C408.493523,588.921586 431.762402,607.981667 442.971647,633.262074 C471.511351,697.632583 366.142542,744.73978 342.337997,795.165439 C339.931475,794.858557 338.729803,794.704321 336.331228,794.397439 C361.084712,743.893867 465.390136,697.514918 436.677176,632.39231 C430.194027,617.688881 419.791153,605.018187 409.259986,592.505808 L407.639305,590.581823 C400.616402,582.247775 393.622895,573.941367 387.78217,565.107216 C368.517875,535.967888 373.833033,512.859504 386.481923,486.074613 C372.800887,511.689125 365.991164,534.573782 383.490804,563.85059 C388.184177,571.702368 393.765118,579.185518 399.444961,586.655075 L400.928384,588.60358 C411.073354,601.919449 421.314683,615.290227 427.184923,630.727037 C452.494736,697.283882 347.129107,743.708943 317.52284,791.350402 C315.202151,790.890873 314.044986,790.661904 311.737013,790.202376 C342.613301,742.438483 446.351269,697.023112 420.903168,629.389794 C415.708252,615.585804 407.177535,603.365552 398.391751,591.319608 L397.135237,589.599793 L395.847991,587.841484 L394.363583,585.813285 C388.679066,578.038004 383.08441,570.245698 378.41231,562.055409 C361.811907,532.954427 368.741819,509.828808 381.964819,484.129913 C368.783263,506.888605 360.414518,528.902071 372.048218,555.907273 C376.808279,566.955735 383.397576,577.074187 389.980662,587.196793 L391.390559,589.366326 C399.137115,601.302856 406.692938,613.337839 411.053275,627.000566 C433.072796,696.004517 329.52557,740.683689 293.866438,785.948004 C291.690395,785.33742 290.607937,785.033718 288.454147,784.423134 C325.574041,739.030024 426.857801,695.506828 404.808079,625.189485 C396.655467,599.188779 377.303148,578.66107 367.34326,553.581011 C357.20989,528.060057 364.443926,506.441604 376.174253,484.621995 L376.525,483.97 L376.154068,484.591384 C363.760447,505.399022 356.133814,525.832347 363.77846,551.578645 C371.112472,576.278679 389.059662,596.788898 395.392281,622.104286 C413.43961,694.237481 313.691319,736.55223 272.028597,778.983053 C270.06396,778.224593 269.087999,777.846158 267.151972,777.089288 C310.472556,734.342042 407.099043,693.417008 389.16457,619.822546 C383.032229,594.655034 365.730381,573.591473 359.319876,548.775364 C352.817851,523.601437 360.296767,502.867716 372.075309,482.072148 L372.431,481.444 L372.056369,482.037207 C359.649974,501.684382 351.261144,521.729931 355.946453,546.420163 C360.505176,570.450781 375.422754,591.682888 379.762124,616.033109 C393.177613,691.316218 300.365956,729.897499 253.036621,770.48703 C251.335842,769.585464 250.472737,769.133886 248.711556,768.230731 C297.900622,727.036976 386.612925,690.125261 373.528055,613.28866 C369.409627,589.103807 355.286805,567.251575 351.731065,543.182796 C348.21124,519.351551 356.17595,499.189743 367.781875,479.728775 L368.148,479.115 L367.747163,479.717237 C355.577832,498.012374 346.828879,517.27771 348.543297,540.507515 C349.396865,552.072836 352.699475,563.331275 356.079972,574.607205 L356.891572,577.31393 C359.999133,587.69227 363.01206,598.107378 364.083964,608.811839 C372.018812,688.052614 287.531434,720.113048 234.32726,760.48633 C232.459582,759.443249 231.502695,758.921709 229.531699,757.878628 C240.517776,749.540339 252.530107,741.677224 264.660748,733.786773 L268.302581,731.418316 L269.723644,730.493521 L272.56523,728.641093 C318.487951,698.65712 363.284205,666.721384 357.79903,605.628533 C356.893757,595.545837 354.393382,585.586928 351.804174,575.645767 L351.026253,572.663845 C349.082319,565.209841 347.173144,557.759856 345.934185,550.269154 C346.457334,565.258874 348.02267,581.487316 348.230163,600.522524 C348.905769,662.623918 302.156807,692.808572 254.658053,722.14134 L249.105597,725.567803 C236.771485,733.18171 224.509474,740.819799 213.137463,749.02643 C210.980494,747.845014 209.872604,747.255101 207.599601,746.073684 C264.531183,704.334538 341.535134,677.467248 341.822836,596.946473 C341.996046,548.24644 334.829398,514.879431 359.044635,475.199274 L359.781,474.005 L359.021063,475.099701 C333.992319,511.529514 336.826477,545.145904 331.991381,591.294913 C323.938909,668.152184 244.372663,696.277213 188.771503,736.149626 C186.320474,734.837824 185.067938,734.181128 182.524717,732.867736 C237.467819,692.332268 315.001078,663.019462 325.344038,587.388129 C331.437502,542.829757 330.905234,506.94106 355.440216,470.886719 C329.962071,504.077061 326.204162,539.732875 315.027305,581.403133 C296.031037,652.226116 215.994295,681.99527 161.996953,721.909024 C159.406047,720.468427 158.097878,719.748129 155.47995,718.307532 C208.541069,677.404759 287.461973,646.837394 308.206705,577.507479 C320.057601,537.904442 326.3,500.631914 350.555092,468.167541 L351.29,467.191 L350.483797,468.127987 C330.847598,491.118333 319.820903,517.770888 308.732405,545.587668 L307.832866,547.845998 C304.682809,555.758738 301.508888,563.759832 298.112822,571.792158 C270.197797,637.817922 188.28543,663.921981 135.367367,706.355985 C132.971971,704.792953 131.787784,704.012232 129.479811,702.449201 C181.534768,657.991047 262.456869,633.799833 291.718211,568.111163 C294.450584,561.977416 297.080958,555.808538 299.690086,549.646728 L301.253659,545.950829 L302.295122,543.488838 C302.468718,543.078678 302.642339,542.668611 302.816009,542.258651 L303.858811,539.800268 L304.714704,537.78881 C316.016723,511.273751 327.891065,485.3972 346.855983,463.565606 C326.756474,483.66361 312.561878,507.608949 299.058796,532.401622 L297.946903,534.447678 C297.576722,535.130295 297.206956,535.81349 296.837495,536.4972 L295.729922,538.549815 L294.070583,541.63372 C293.88628,541.97667 293.701985,542.319709 293.517685,542.66283 L291.618463,546.199986 C290.562639,548.166336 289.50514,550.134503 288.443431,552.103026 L287.167197,554.465331 C286.9541,554.859046 286.740794,555.252752 286.52726,555.646437 L285.243137,558.008205 C284.385005,559.582426 283.522556,561.155942 282.654491,562.728006 C246.380218,628.421446 164.83026,639.734742 113.419055,689.556177 C111.632443,687.877071 110.739137,687.039108 108.954114,685.361592 C158.949062,633.560529 240.104821,625.22701 277.134113,559.261669 C277.789692,558.093879 278.442521,556.924683 279.093111,555.754424 L280.39146,553.412591 C281.039294,552.241069 281.685229,551.068713 282.329779,549.895869 L283.617181,547.549631 C284.474419,545.985174 285.329798,544.420256 286.184529,542.855694 L288.107095,539.336372 L288.780464,538.104507 L290.128056,535.642332 L290.812922,534.39328 L292.184765,531.897611 L293.560339,529.405805 C307.338414,504.509545 321.841753,480.304324 342.035582,460.134103 C316.761107,482.02257 298.732521,508.563333 280.83407,536.533796 L279.342681,538.867909 C276.11133,543.932023 272.877778,549.039828 269.60014,554.172355 C228.557328,618.44269 148.471311,622.939387 95.1701759,671.574635 C93.4932398,669.788995 92.6555666,668.895379 90.977041,667.108149 C111.070278,650.043309 134.452563,638.482396 158.005987,627.495744 L160.485792,626.341162 C161.725876,625.764719 162.966131,625.189387 164.206103,624.614448 L168.048604,622.832604 C168.791118,622.48805 169.533362,622.143371 170.275237,621.798412 L172.499659,620.762538 L174.721283,619.724054 L176.939522,618.682031 C210.923572,602.672467 243.506788,585.08745 265.163809,550.866615 C287.094536,516.215185 306.387674,483.228433 336.985374,456.739468 C304.050956,481.4393 283.086139,510.881237 259.289288,545.944576 C217.435824,607.613568 140.384188,617.912404 79.2531119,652.887423 C78.0307765,651.116093 77.4426567,650.239969 76.2918494,648.49408 C138.349611,615.611583 214.789285,604.953393 255.898857,542.688127 C279.591362,506.803544 298.8007,478.035736 331.894086,453.236161 C296.381009,476.222195 276.895964,500.746432 251.438048,537.724747 C208.341585,600.325515 134.470564,608.697195 68.1481392,634.410099 C67.76202,633.658132 67.4562043,633.062963 67.1621629,632.493352 L66.8105788,631.813686 C66.514992,631.243523 66.2037675,630.646421 65.8083762,629.891141 C132.968474,605.327853 206.473908,598.457192 248.815351,534.352224 C274.88019,494.889331 291.869235,471.389307 330.212662,447.455557 C311.60356,456.487701 290.77234,466.347606 276.635959,480.60238 C267.765437,489.545702 261.454774,500.712559 255.275121,511.844042 L254.245976,513.698575 C251.33114,518.94996 248.41543,524.165472 245.24308,529.107243 C203.113042,594.741851 127.588927,596.215839 58.4069685,615.00402 C57.4771034,613.068914 56.9970705,612.095795 55.9924984,610.133658 C125.578193,592.076906 201.566445,592.44262 242.399442,525.410347 C251.917445,509.786391 258.06727,491.128595 270.713435,477.544689 C283.596755,463.70638 303.474482,454.066559 321.48903,445.460488 C302.099203,453.299988 280.175131,461.893173 265.770208,474.985801 C257.740944,482.284546 252.17096,491.829994 246.991868,501.53271 L246.19789,503.026395 C245.934073,503.524515 245.671004,504.022767 245.408406,504.52087 L244.56281,506.12638 C242.169608,510.671868 239.790617,515.179541 237.21302,519.434414 C196.467447,586.679756 117.974122,580.406959 47.7240114,593.925672 C46.6463217,591.814069 46.0836341,590.748727 44.9121631,588.603732 C58.1385792,586.133665 71.7317773,584.404878 85.3418209,582.758667 L89.6398812,582.240787 C146.227633,575.437949 202.469797,568.863978 233.212216,515.169866 C241.45384,500.773438 247.373186,483.424264 259.739597,471.800906 C273.922053,458.471695 296.257434,449.737745 315.884933,441.860372 C294.857282,448.980697 270.669515,456.559647 254.742804,469.077287 C245.821126,476.089051 239.783667,485.72714 234.052773,495.458526 L233.254843,496.816744 C233.1221,497.04313 232.989458,497.269503 232.856884,497.49583 L232.006571,498.947604 C230.164887,502.090419 228.323045,505.211325 226.393842,508.224631 C194.50203,558.037241 139.307888,562.731809 84.1168745,566.569616 L79.8166907,566.867708 C64.7689286,567.910388 49.7664242,568.974853 35.2819404,570.958965 C34.0389413,568.672455 33.3951886,567.52125 32.0711244,565.206118 C47.0141985,563.160407 62.584118,562.117934 78.2135694,561.054137 L82.4771968,560.762712 C136.491042,557.045133 190.599856,551.961532 221.415487,503.273176 C229.653933,490.253742 236.266306,475.385066 248.702655,465.634802 C256.470832,459.544785 266.202237,454.593013 276.589882,450.28519 C252.795887,459.580379 232.071666,471.528826 213.319939,495.262599 C168.349441,552.183664 87.5958292,539.509274 21.5022944,546.329053 C20.1845882,543.905797 19.5106347,542.687809 18.1420641,540.247063 C83.4869384,533.098141 162.244122,544.551363 207.648558,489.611516 C234.973214,456.54746 267.758737,446.893854 306.145864,434.362671 C300.693998,435.85252 295.278412,437.292652 289.909816,438.743205 L287.611898,439.365684 C255.482196,448.094228 225.099284,457.507193 198.777168,480.594271 C147.569422,525.507182 72.8559584,515.340321 8.70321879,520.803776 C7.84806086,518.382111 7.43955606,517.167303 6.66387377,514.740867 C70.2332621,508.603225 140.871214,516.434284 192.789473,474.327833 C219.484897,452.676522 251.15483,443.537086 283.60595,434.891398 L286.311929,434.17181 C288.117,433.692503 289.924123,433.213689 291.732579,432.733308 L294.446171,432.011304 C296.587586,431.440377 298.730362,430.865813 300.87331,430.284197 C296.72864,431.218815 292.570308,432.122321 288.405364,433.012491 L285.569988,433.616443 C279.897526,434.821063 274.215797,436.008475 268.542699,437.223673 L265.706952,437.833795 C237.358333,443.962342 209.300061,450.972992 183.769306,464.489797 C142.892888,486.130278 98.6776919,489.69464 53.708681,492.129236 L50.9545563,492.277025 L47.2300074,492.473789 L43.5025846,492.669108 C42.2596674,492.734211 41.0163256,492.799428 39.7726131,492.865115 L36.0404184,493.063943 L32.3063257,493.267725 C22.3465037,493.819644 12.3699071,494.447151 2.40429717,495.332244 C2.10387924,492.883547 1.9751287,491.660789 1.75577592,489.220043 C63.0108336,482.940885 121.573256,484.225656 177.918309,457.768602 C197.804083,448.430527 219.164676,442.467309 240.914411,437.542239 C161.754859,452.31659 81.5967783,462.14363 1.62225684,469.781526 C1.78915569,467.3376 1.88611598,466.118022 2.09434216,463.682046 C57.5127085,457.569845 109.914179,452.12706 164.267572,440.427379 C185.43182,435.871455 206.647891,432.991097 227.897387,430.289563 C222.239476,430.512856 216.541785,430.558598 210.790707,430.393129 C208.718043,430.333501 206.647919,430.266846 204.579741,430.197278 L200.445803,430.055478 L196.503645,429.919601 C183.368374,429.473066 170.280604,429.125771 157.087425,429.938371 C106.537736,433.054894 55.1948808,439.532809 4.67221414,444.293457 C5.08389798,441.855891 5.28735562,440.637903 5.67837579,438.203517 C54.1028855,433.029453 104.50316,424.648232 153.059599,422.969126 C165.519563,422.538617 177.858763,423.305919 190.224704,424.123375 L194.130799,424.381847 C198.689348,424.68222 203.253634,424.973003 207.831034,425.196804 C236.080966,426.57937 263.14875,422.093088 290.471047,416.58774 C262.430537,421.17447 234.673937,424.62438 206.017082,420.980912 C186.664762,418.521085 167.663725,414.030748 148.177887,412.553579 C102.927635,409.122224 54.1200522,415.666922 8.82847241,418.797756 C9.19882891,416.355419 9.36731727,415.132661 9.65184007,412.690325 C53.8514246,409.425926 101.722784,401.93196 145.877862,405.787862 C165.652992,407.514671 184.81139,412.726896 204.433927,415.442723 C233.365986,419.444851 261.586051,415.704108 289.97449,410.891526 C261.197195,414.607252 232.697259,417.078654 203.801777,410.964153 C196.008447,409.314591 188.337779,407.18255 180.682915,404.992289 L174.943061,403.345306 C164.738207,400.421499 154.513957,397.582749 144.017019,395.834706 C101.322703,388.725536 54.3955148,393.112519 11.1416905,393.212693 C11.2100395,390.760816 11.2100395,389.536468 11.1416905,387.084591 C54.3732616,387.084591 101.262302,382.449558 143.939133,389.542828 C154.749509,391.339549 165.242275,394.37574 175.721288,397.475121 L179.419687,398.569729 C187.433792,400.938764 195.460759,403.263827 203.636468,405.018908 C232.627048,411.241404 261.395184,408.63404 290.337259,404.830934 C261.112288,407.424926 232.330659,408.592543 203.503108,400.349689 C183.433918,394.611153 164.590243,385.201162 144.252426,380.322849 C101.680503,370.111467 53.3672589,370.618697 9.68267662,367.595987 C9.40451187,365.150471 9.24079205,363.927713 8.8767936,361.480606 C52.8522568,364.512856 101.742494,363.771887 144.548075,374.283791 C164.722173,379.238426 183.354443,388.788343 203.286934,394.510979 C232.140207,402.795513 261.161153,401.492031 290.483375,398.796569 C259.534112,400.318724 229.362866,400.06903 199.411702,388.828413 C180.973352,381.90846 164.030735,371.26458 145.279251,365.114217 C102.004763,350.921318 50.7366151,348.070335 5.74704275,342.069439 C5.34807502,339.638233 5.13825932,338.421835 4.70750133,335.990629 C50.0578931,341.997886 102.268623,344.448172 145.760874,359.234166 C155.013428,362.380105 163.798666,366.657373 172.552312,371.010766 L175.834299,372.644796 C183.492786,376.45624 191.168786,380.224981 199.154201,383.244112 C228.951138,394.507327 259.418969,394.531173 290.362592,392.842329 L289.319824,392.85638 L287.235669,392.880078 C257.0289,393.178759 227.412989,391.453772 198.941047,378.735649 C180.830137,370.647 164.798311,358.413057 146.612694,350.500905 C102.923343,331.491706 48.2584056,325.668896 1.74925892,316.734334 C1.45837806,314.326979 1.3153219,313.123301 1.04510471,310.715946 C47.813342,319.647328 103.600475,324.951778 147.256446,344.816431 C165.117803,352.943241 180.769736,365.352091 198.694673,373.400988 C227.984787,386.552484 259.103914,387.618538 290.438551,386.932826 C260.246089,386.413119 230.145875,384.209162 202.370421,371.07409 C182.914784,361.873988 166.768512,347.22792 148.237971,336.514078 C105.675584,311.904677 47.3595361,303.504376 0,291.68703 C0.0238426931,289.313066 0.050864412,288.126879 0.139877133,285.752916 C47.5375615,297.570262 106.910636,305.437892 149.015242,331.061753 C167.122973,342.079297 182.857561,356.881191 202.176501,365.969989 C230.262488,379.18265 261.165662,380.884663 291.836164,381.074641 C260.913224,379.67219 229.784921,376.713389 202.073023,362.087215 C182.739778,351.883783 167.642585,335.943404 150.288283,323.022555 C109.844718,292.909947 49.9423356,281.998937 2.43179575,267.030086 C2.93090279,264.699054 3.20111998,263.533539 3.79400828,261.202507 C51.1789766,276.24768 111.516885,286.680081 151.173642,317.84372 C157.736476,323.000824 163.969255,328.579475 170.26957,334.063274 L172.071841,335.627046 C181.39662,343.688592 190.951084,351.436268 202.014211,357.208903 C229.952836,371.784823 261.846826,374.216216 293.16236,375.262873 C289.775195,375.017939 286.381271,374.756794 282.986972,374.466095 L280.950399,374.288023 C253.457434,371.833287 226.02365,367.264461 202.04171,353.491018 C188.420343,345.668702 177.37494,334.914021 166.46372,323.959319 L164.941849,322.429733 L163.311532,320.789883 C159.7782,317.237164 156.234263,313.691079 152.596733,310.244493 C115.314708,274.92125 56.8015605,261.469319 9.93000483,242.652517 C10.8328481,240.375547 11.2938069,239.249783 12.236388,237.028465 C24.876258,242.109002 38.3434789,246.77514 51.9856046,251.596615 L55.019802,252.670842 C90.9522646,265.41827 127.75999,279.531668 153.579052,305.37095 C155.894654,307.688546 158.173455,310.042813 160.439778,312.407444 L161.949079,313.985112 C162.451741,314.51132 162.954053,315.037752 163.456283,315.564118 L164.962994,317.142731 L166.406606,318.652201 L167.852638,320.158202 C178.227902,330.935147 188.89796,341.32774 202.191124,348.817824 C228.750692,363.780711 259.978361,367.292464 290.546408,369.23408 L292.990343,369.386247 C293.633148,369.425513 294.275598,369.4642 294.917643,369.502401 C262.877049,366.345929 229.813442,361.98685 202.414927,345.249087 C186.888417,335.763717 175.233796,322.444496 163.857317,308.743196 L162.519974,307.129724 C162.074476,306.591451 161.629189,306.052798 161.183897,305.513975 L159.847786,303.897199 C158.288464,302.010846 156.726416,300.124946 155.152352,298.248424 C121.076375,257.620731 67.4017039,243.100279 20.8861992,220.398953 C22.1260192,218.454307 22.7586453,217.500269 24.0525088,215.630355 C32.903139,220.021854 41.9620638,224.052643 51.0587575,227.988203 L53.9324543,229.228155 C54.4115467,229.43439 54.890694,229.640437 55.3698713,229.846338 L58.2450969,231.080277 L62.5566767,232.928604 C64.6540668,233.828217 66.7496484,234.72871 68.8413324,235.633335 L70.9316399,236.539457 L71.9756742,236.993777 L74.0612137,237.905386 C104.969985,251.459636 134.638142,266.519347 156.247526,293.699254 C196.448034,344.26156 237.626424,356.125663 295.833746,363.136073 C237.739065,354.021724 194.302306,340.874395 158.026827,287.06758 C127.630572,241.984532 81.1436785,229.090713 35.6502305,202.086678 C37.2731232,200.555448 38.0996699,199.811299 39.7813745,198.361161 C84.963278,225.627557 129.98623,237.13325 159.290489,282.836423 C194.802568,338.220522 241.057645,349.431728 300.131866,357.731601 C241.503546,347.069782 193.559437,333.630583 161.344458,276.679223 C150.53736,257.57462 142.844118,240.813769 123.685719,229.147478 C115.539933,224.188166 107.301284,219.566564 99.0669101,214.975569 L94.9505289,212.6812 C81.2334436,205.032329 67.573203,197.326302 54.4195165,188.141351 C56.4127656,187.018767 57.4205168,186.473376 59.4550933,185.408034 C81.6542301,201.094002 105.574809,212.082925 128.350939,226.317167 C146.442775,237.625693 152.988389,254.473997 162.875159,272.745408 C193.848102,329.985837 243.807731,342.085639 301.979499,351.908063 C244.564727,340.002695 192.092554,326.056344 165.618022,266.989381 C157.82623,249.605225 153.930334,233.456548 139.507094,220.55796 C121.450228,204.412463 96.0291487,193.415589 76.5925853,177.885447 C78.8512831,177.042714 79.9830162,176.624527 82.2433035,175.783384 C90.3437849,182.301905 99.6793042,188.030051 109.068832,193.704748 L112.743131,195.924188 C124.166551,202.830802 135.441709,209.800655 144.437763,218.163325 C157.885042,230.662808 160.955981,246.620678 167.916458,263.255914 C192.821949,322.76435 248.357076,335.299981 305.723488,346.410268 C249.476599,333.274948 191.911802,318.583158 172.271723,257.754774 C171.019492,253.876807 170.006641,249.821248 169.016181,245.722256 L168.68656,244.354501 L168.19133,242.299251 C165.428096,230.874889 162.372542,219.40294 154.373808,210.75888 C146.604558,202.363349 136.064984,195.040283 125.491705,187.793639 L123.37741,186.345034 C115.277109,180.793693 107.26423,175.248241 100.571976,169.259834 C102.892665,168.428231 104.041883,167.995734 106.298991,167.075088 C121.930261,181.112161 145.529759,192.791172 159.283814,207.977861 C170.308675,220.154561 170.890437,238.922071 175.453928,253.933853 C194.121736,315.341186 254.708498,328.653523 311.330642,341.269799 C255.578313,326.311913 195.156435,310.468847 180.869716,247.955535 C177.650953,233.87553 179.173706,212.921684 170.332835,200.439691 C159.379502,184.976332 136.90379,171.869445 123.404057,158.31734 C125.389359,156.959427 126.349425,156.235948 128.209155,154.703128 C140.605766,167.17717 166.196923,182.712082 175.818244,198.075268 C183.594141,210.490478 181.349749,229.881292 184.619377,243.640105 C199.653528,306.903845 260.378439,321.267356 316.771573,336.056287 C261.53814,318.786982 201.33821,301.387015 191.157997,237.100177 C188.829361,222.396867 192.19436,201.951841 185.707558,188.183488 C177.847416,171.49896 153.685231,153.966929 141.991185,140.915694 C143.595004,138.983768 144.365917,137.974078 145.844164,135.868835 C157.814786,149.18084 181.713112,166.485492 189.859365,183.303586 C196.575057,197.168932 193.407158,217.731623 195.855008,232.581219 C206.530529,297.386753 268.062216,313.89566 323.747214,331.291106 L322.94246,330.989739 L317.398875,328.919775 L315.809849,328.326118 L312.633683,327.1368 C261.314508,307.879704 211.66882,286.913094 203.699731,225.678439 C201.437854,208.305414 205.346466,185.672461 198.192069,169.056306 C190.168208,150.420771 168.794028,132.615249 156.249592,117.108957 C157.440138,114.577577 158.017131,113.284856 159.145685,110.666023 C172.012792,126.55393 193.256631,144.375352 201.90676,163.211235 C209.7065,180.196285 206.490915,202.959623 209.140633,220.873269 C218.52898,284.349876 271.601971,304.238655 324.987539,324.422982 L328.669271,325.816006 C328.980037,325.933735 329.29078,326.051509 329.601491,326.169335 C275.728767,302.020419 224.819932,279.542165 217.757542,213.398861 C215.61011,193.284568 218.124719,170.840833 210.983038,151.596304 C202.781151,129.494433 181.929921,108.818847 168.16474,89.8350885 C168.662712,88.7277234 169.053537,87.8572128 169.429181,87.020914 L169.803171,86.1885138 C170.178912,85.3525071 170.570127,84.4831646 171.06878,83.3778439 C185.09782,102.724137 205.500808,123.253436 214.607127,145.433221 C222.705695,165.156359 221.163868,187.736839 224.015454,208.573021 C232.988533,274.142104 282.357321,296.619211 335.965123,321.276484 C283.4195,292.912646 241.688393,267.70888 234.134134,201.476889 C233.709688,197.755935 233.3786,194.004188 233.082998,190.237572 L232.924933,188.181676 C232.873186,187.49595 232.822264,186.809828 232.771819,186.123405 L232.62157,184.063334 C232.521895,182.689481 232.422739,181.31481 232.321318,179.940088 L232.167141,177.878062 C230.966764,162.070365 229.28294,146.306484 222.883562,131.75105 C215.5943,115.173912 205.104559,99.4945294 194.646933,84.1409744 L192.904846,81.5849674 L191.166681,79.0344059 C187.696487,73.9383359 184.26977,68.8714083 181.006255,63.8124403 C182.354162,61.4957189 183.037653,60.3492837 184.425298,58.0913947 C198.691176,80.2457384 215.265026,102.318989 226.671371,126.125408 C234.03881,141.500613 236.525907,157.943073 238.503045,174.592271 L238.753012,176.718757 C239.000882,178.846234 239.243472,180.976483 239.489875,183.107715 L239.737885,185.239207 C240.196136,189.1473 240.677387,193.056689 241.237667,196.956341 C249.84387,256.875492 284.37063,283.247455 330.133952,309.553996 C308.676906,296.47549 287.229881,281.970073 273.342648,262.073702 C261.076341,244.50022 256.858921,223.21067 254.012742,202.256516 L253.784844,200.558345 C253.559687,198.86107 253.342358,197.166719 253.129298,195.477453 L252.917529,193.789961 C252.777123,192.666203 252.638087,191.545025 252.499365,190.427066 C245.295693,132.381827 225.080268,92.2883963 196.484932,41.6003773 C198.131667,39.7225133 198.96934,38.803457 200.671709,37.0066862 C228.790191,87.0809409 251.437571,129.284385 260.198966,186.408978 C260.464869,188.143169 260.730179,189.884571 260.998819,191.630875 L261.268713,193.378727 C264.705101,215.536709 268.8852,238.357462 281.776603,257.144508 C297.884796,280.616927 323.994559,296.809879 348.531976,312.057458 C347.245984,311.136429 345.957342,310.211672 344.668031,309.282141 L343.120662,308.164346 C321.972351,292.854665 300.856813,276.148455 288.506442,253.431234 C278.7214,235.433748 275.964436,214.572966 273.68088,194.250589 L273.46462,192.316861 C273.034123,188.453096 272.613253,184.612783 272.156712,180.819431 C265.285248,123.694838 239.965897,75.7560373 215.28871,24.3270491 C217.254938,22.9357443 218.253152,22.2583776 220.273422,20.9433957 C223.6835,28.0947027 227.152085,35.2048716 230.618766,42.3001031 L232.104193,45.3400784 L233.588331,48.3786829 L235.070122,51.416375 C235.49457,52.2873109 235.918599,53.1581907 236.342096,54.0290631 L237.61088,56.6417068 C256.404176,95.3970365 273.92222,134.23403 280.285481,177.437367 C283.815789,201.404382 285.699362,227.079125 297.305985,248.855034 C308.387687,269.64151 326.412727,285.576945 345.20071,300.08221 L346.83622,301.340015 C348.473352,302.594383 350.114898,303.838687 351.756796,305.075175 L353.398659,306.309141 C354.151095,306.873592 354.903321,307.436558 355.654944,307.998257 C334.936986,290.174448 314.592247,271.18491 304.243414,245.461522 C297.483533,228.656369 295.852519,210.196787 294.422884,192.00694 L294.244871,189.734753 C294.215259,189.356335 294.185644,188.97807 294.155984,188.599974 L293.977108,186.333568 C293.616821,181.805374 293.23704,177.306566 292.760773,172.867209 C288.762285,135.621807 275.085416,100.512566 260.238237,65.9105609 L259.122637,63.3163362 C258.750127,62.4518946 258.377019,61.5877447 258.003446,60.7238608 L256.637261,57.5699441 C255.497447,54.9425896 254.354821,52.3174131 253.213129,49.693697 L251.843786,46.5458929 C246.826268,35.006178 241.85586,23.4891815 237.251804,11.9337824 C239.489838,10.9749746 240.618393,10.5106763 242.894575,9.6059306 C248.316721,23.2209697 254.356926,36.8083844 260.457226,50.4508416 L261.865801,53.6001157 C262.805223,55.7003333 263.745051,57.8020042 264.683255,59.9054294 L266.089087,63.0619206 C281.534247,97.7986244 296.260372,133.053915 301.140685,170.180003 C301.904042,175.985166 302.489588,181.882245 303.069572,187.80854 L303.301677,190.180468 L303.535639,192.554621 L303.773907,194.930106 C305.382158,210.769136 307.44081,226.637578 313.216214,241.34644 C322.927374,266.07933 341.376494,284.829406 360.732767,302.38617 L362.116795,303.63826 C362.347688,303.846625 362.578683,304.054837 362.809768,304.262904 C344.29023,285.059839 327.439729,264.923698 320.213886,238.347104 C316.172549,223.486605 315.530621,207.892106 315.057185,192.358625 L314.940467,188.476986 C314.719566,181.14914 314.476198,173.849675 313.87014,166.662307 C311.288563,136.039405 300.804513,107.052347 289.185219,78.3209643 L288.157214,75.7864707 C287.64191,74.5195206 287.124784,73.2529891 286.606417,71.9867577 L285.5682,69.4546599 L284.554753,66.9888996 L283.03262,63.290882 L281.712126,60.082176 C274.014459,41.364249 266.443844,22.6306907 260.880549,3.49802272 C262.978706,2.9065194 264.000763,2.6377988 265.994012,2.15123961 C271.623558,21.9833921 279.724084,41.1810485 288.066629,60.3008262 L289.458911,63.4868301 L290.500484,65.8661378 C291.368705,67.8487584 292.237202,69.8311221 293.103486,71.8138507 L294.141806,74.1933398 L295.177046,76.5734179 C307.577623,105.138843 319.106472,133.883026 322.331117,164.662008 C324.759892,187.846713 323.203759,212.077678 329.167612,234.772643 C336.058458,260.993798 351.830963,281.182914 369.553312,300.488366 L369.951,300.921 L369.81413,300.749146 C353.529504,280.298357 340.170665,259.333261 336.07929,232.218367 C334.005483,218.472511 334.44829,204.476657 334.900208,190.497072 L334.996273,187.501793 C335.263674,179.016424 335.46841,170.544063 335.049286,162.144303 C333.651779,134.114475 323.982557,108.342601 312.877157,82.8755619 L311.961291,80.7830269 C311.348745,79.3884077 310.732449,77.994543 310.113529,76.6011116 L309.183319,74.5112492 L308.261412,72.4472754 L306.849426,69.2952675 L305.555566,66.4111519 C295.850095,44.7773238 286.172808,23.0590503 280.734042,0.0533108777 C281.829505,0.0189705083 282.567078,0.00322358567 283.381368,-5.69997816e-14 L284.108254,0.000162289333 Z M620.953,582.782 L622.14055,583.088262 C622.746222,583.243788 623.35201,583.399052 623.957872,583.554121 L629.411534,584.946315 C652.437234,590.817715 675.392699,596.701381 696.02766,606.313373 C694.223563,607.157697 693.328667,607.572703 691.545233,608.409076 C667.978175,596.970299 645.783457,589.418863 622.318701,583.14636 L620.953,582.782 Z M317.328536,381.585466 L317.396,381.223 L317.323623,381.600953 C316.976943,383.383998 316.734519,384.524568 316.335211,386.210979 L316.222,386.683 C315.965541,388.632756 315.781537,389.816522 315.426085,391.772626 L315.460447,391.29142 C315.299566,393.551921 315.182542,394.767702 314.907024,396.899328 L314.909,396.74 L314.905415,396.914789 C314.864677,398.865455 314.805199,400.053462 314.642527,402.028664 C314.664616,402.844077 314.675515,403.526486 314.688168,404.184014 L314.704948,404.966386 C314.720945,405.619715 314.743614,406.290507 314.78527,407.084379 L314.779554,407.052548 C314.921933,407.924732 315.041968,408.631178 315.165708,409.316696 L315.291648,410.000601 C315.356199,410.344429 315.423848,410.695093 315.497848,411.070693 L315.655284,411.860505 L315.515762,411.41732 C316.159963,413.468834 316.518491,414.546251 317.167121,416.391542 L317.26672,416.600131 C317.553575,417.202953 317.801659,417.718979 318.044056,418.216296 L318.366784,418.874279 C318.637756,419.423322 318.919858,419.98663 319.258469,420.657606 L319.470083,420.989694 C320.271056,422.244396 320.833145,423.109362 321.630055,424.326116 L321.869,424.692 L321.879,424.704351 C322.961886,426.058806 323.651941,426.91591 324.657537,428.16978 L324.939,428.521 L325.261606,428.858538 C326.40622,430.056003 327.175943,430.866285 328.355226,432.125399 L327.998684,431.803037 C329.698173,433.340215 330.591087,434.160189 332.111775,435.59761 C333.66703,436.854032 334.586547,437.617467 336.063396,438.886283 C337.534378,439.972867 338.457505,440.675896 339.751222,441.704368 L340.145,442.018 C341.840102,443.185979 342.821178,443.892114 344.394336,445.08097 C346.086756,446.184203 347.075099,446.861765 348.653926,448.005834 C350.330079,449.051651 351.315206,449.701624 352.863638,450.785433 L352.824,450.762 L352.867369,450.78895 C354.56902,451.812176 355.554152,452.439171 357.118772,453.502568 C358.797104,454.477754 359.770952,455.078306 361.324572,456.09945 C362.959988,457.012974 363.919801,457.583048 365.434893,458.538616 L365.034175,458.325919 C366.917956,459.323215 367.897111,459.872789 369.522611,460.845643 L369.241,460.706 L369.562351,460.866639 C371.044755,461.608773 371.964301,462.091517 373.279653,462.820467 L373.644,463.023 L373.432,462.926 L373.642778,463.023124 C375.120317,463.70336 376.039714,464.145778 377.362214,464.812842 L377.73,464.998 L378.111911,465.156339 C379.488959,465.725852 380.405902,466.122125 381.804191,466.747476 L381.611,466.679 L381.847593,466.763201 C383.478918,467.341961 384.448244,467.699956 386.031248,468.299857 L385.67,468.195 L386.067943,468.311118 C387.713471,468.790575 388.705593,469.088258 390.332004,469.586725 L390.259,469.57 L390.349305,469.59079 C391.025249,469.741786 391.594561,469.869668 392.142435,469.993695 L392.958816,470.179251 C393.369617,470.272991 393.792319,470.369979 394.262864,470.478339 L394.693,470.577 L394.769525,470.589569 C396.346929,470.831195 397.365231,470.988246 398.845229,471.218564 L399.299,471.289 L399.345018,471.293623 C401.14298,471.442355 402.242271,471.533312 404.05876,471.683287 L403.567305,471.676404 C405.75235,471.708939 406.985884,471.716716 409.009741,471.724041 C410.945549,471.605612 412.062291,471.536054 413.82083,471.423883 C415.486072,471.2091 416.51115,471.072367 417.937002,470.876881 L418.37,470.817 L418.756591,470.738902 C420.271757,470.428447 421.242291,470.221679 422.722584,469.897816 L422.649,469.918 L422.726433,469.896598 C424.371163,469.426217 425.328025,469.142057 426.856255,468.674278 L426.805,468.693 L426.859034,468.673089 C428.43185,468.086646 429.351459,467.731435 430.826257,467.145087 L430.762,467.175 L430.825723,467.14603 C432.331956,466.447755 433.2207,466.023779 434.641317,465.329374 L434.616,465.343 L434.672548,465.312628 C436.145846,464.495618 437.016187,464.001131 438.429382,463.18272 L438.403,463.199 L438.453584,463.167453 C439.714283,462.355916 440.528346,461.823097 441.661164,461.069775 L442.092,460.782 L442.06,460.806 L442.119751,460.763209 C443.280241,459.916468 444.058864,459.342608 445.062214,458.593122 L445.449,458.303 L445.41139,458.353904 C446.163316,457.745089 446.752695,457.266356 447.31572,456.806406 L447.875005,456.348594 C448.342163,455.96543 448.822546,455.569546 449.394969,455.096531 L449.363,455.124 L449.419227,455.075285 C449.991602,454.567804 450.470845,454.141869 450.931844,453.730631 L451.61902,453.116442 C451.965127,452.806504 452.322034,452.486031 452.721334,452.126824 L453.054,451.827 L453.392735,451.503029 C454.462431,450.476408 455.22439,449.740975 456.271526,448.724814 L456.674,448.333 L456.682693,448.325363 C457.93044,447.04203 458.733374,446.210652 459.878012,445.018432 L460.258,444.622 L460.196,444.691 L460.300867,444.57714 C460.878823,443.940996 461.360655,443.409545 461.825812,442.894585 L462.381081,442.278905 C462.845611,441.763027 463.325245,441.228359 463.899435,440.586702 C464.457214,439.93015 464.922789,439.38083 465.371319,438.849012 L465.913088,438.205287 C466.238973,437.81725 466.571614,437.41969 466.939497,436.978704 L467.219,436.643 L467.052767,436.862617 C468.477353,435.066908 469.281053,434.04287 470.500581,432.461026 L470.781,432.095 L470.766,432.117 L470.786763,432.090513 C471.956437,430.494473 472.692283,429.476288 473.74225,427.990609 L474.062,427.536 L474.328886,427.139775 C475.389699,425.553554 476.081974,424.49261 477.148992,422.812413 C478.251755,420.984348 478.903243,419.868729 479.921949,418.049941 L479.85,418.184 L479.932064,418.030926 C480.949297,416.112478 481.530933,414.963915 482.445811,413.047024 C483.30985,411.125607 483.800968,409.960518 484.551901,408.027945 C485.187941,406.269844 485.566697,405.136738 486.054266,403.491831 L486.07113,403.475752 C486.688216,401.187588 486.975831,399.9685 487.375804,397.829562 C487.697595,395.852788 487.841059,394.657354 487.988803,392.66902 C488.0842,390.719135 488.078341,389.527571 488.073444,387.647949 C488.015622,385.761912 487.960333,384.646972 487.838471,382.85016 L487.851,382.981 L487.837256,382.837703 C487.65814,381.047295 487.530452,379.985165 487.291409,378.274142 L487.363562,378.690014 C487.020202,376.704321 486.817564,375.660288 486.430119,373.879029 L486.532,374.277 L486.416637,373.824881 C486.041202,372.35523 485.782936,371.417626 485.382383,370.071492 L485.262,369.671 L485.243803,369.615664 C484.714234,368.061058 484.371904,367.121756 483.778653,365.585725 L483.94754,365.981597 C483.195478,364.22125 482.775786,363.28525 482.002892,361.657658 L482.072,361.791 L481.983044,361.619891 C481.22532,360.161837 480.743761,359.272882 479.916726,357.802394 L480.043,358.01 L479.903284,357.779825 C479.040525,356.365062 478.490581,355.493098 477.56387,354.063896 L477.613,354.134 L477.521194,354.002013 C476.541711,352.600957 475.923227,351.738442 474.870522,350.301369 L474.893,350.33 L474.852695,350.278235 C473.775022,348.905626 473.092954,348.052674 471.950411,346.648188 L472.082,346.799 L471.894342,346.581841 C470.706308,345.213962 469.958043,344.365069 468.69771,342.951595 L469.02567,343.296967 C467.508784,341.699458 466.68074,340.835309 465.181522,339.289817 C463.795201,337.944765 462.927659,337.110565 461.478322,335.727475 L461.678,335.906 L461.441128,335.693336 C459.942707,334.348913 459.016315,333.523158 457.442205,332.132155 L457.125414,331.869224 C455.735886,330.714884 454.784664,329.931157 453.258399,328.683471 C451.592229,327.404502 450.568066,326.625055 448.831195,325.319036 L448.483979,325.074864 C446.965599,324.006787 445.929634,323.286583 444.267575,322.14631 C442.480219,321.003971 441.380452,320.311072 439.530119,319.170027 C437.687239,318.118763 436.554635,317.485835 434.647658,316.448995 C432.770262,315.515774 431.613994,314.956304 429.674431,314.053105 C427.753823,313.248728 426.575746,312.776013 424.591107,312.017603 C422.664672,311.374957 421.474664,310.999712 419.48905,310.41868 C417.515081,309.939984 416.310765,309.67307 414.2742,309.272705 C412.319198,308.989777 411.113452,308.843707 409.088803,308.648559 C407.129787,308.568864 405.951283,308.561364 403.907948,308.617746 L404.405614,308.574927 C402.136956,308.769957 400.867431,308.904579 398.551489,309.195666 C396.492908,309.577837 395.197819,309.836834 392.980317,310.304946 C391.677906,310.661299 390.674154,310.940664 389.568907,311.254921 L388.714688,311.498905 C388.271811,311.625916 387.800594,311.761767 387.279933,311.912358 C385.230333,312.637719 383.912851,313.110531 381.835287,313.861552 L381.488,313.986 L381.467716,313.995129 C379.297061,314.927731 377.945139,315.509757 375.658127,316.496265 C374.730755,316.961859 373.956336,317.350645 373.196074,317.73171 L372.418054,318.12145 C372.026135,318.317664 371.62582,318.517909 371.198961,318.731263 L370.304475,319.178139 C370.169405,319.245591 370.031148,319.314622 369.889274,319.385449 C367.750985,320.61482 366.431327,321.368398 364.212237,322.628066 C362.131207,323.979145 360.84883,324.804873 358.697668,326.176178 C356.691959,327.63565 355.458937,328.523357 353.395451,329.993337 C351.478674,331.550864 350.304578,332.493491 348.334443,334.055714 C346.534139,335.687946 345.428497,336.676788 343.57562,338.31447 C342.937887,338.961702 342.394327,339.510932 341.870115,340.037326 L341.234694,340.673675 C340.607567,341.300004 339.964655,341.937042 339.176231,342.714462 C337.630251,344.476822 336.685603,345.537637 335.098108,347.29191 C333.706381,349.089068 332.850887,350.17603 331.415756,351.965876 C330.169776,353.805277 329.40344,354.914708 328.113271,356.743787 C327.656069,357.524914 327.273016,358.174848 326.898466,358.803078 L326.450228,359.551307 C326.134942,360.075085 325.80778,360.613398 325.431538,361.228222 L325.203,361.599 L325.199,361.606 L325.002785,362.001484 L324.609095,362.787403 C324.042183,363.914407 323.562803,364.844517 322.917596,366.070969 L322.679,366.521 L322.673447,366.536182 C321.882313,368.445282 321.385966,369.600938 320.531417,371.511888 L320.697256,371.018279 C319.952627,373.245566 319.53491,374.43978 318.760182,376.518854 L318.884735,376.040015 C318.300248,378.282799 317.965202,379.484975 317.328536,381.585466 Z M511.799,362.42 L511.661443,362.45135 C507.164304,363.456509 502.689015,364.547601 498.25511,365.806694 C501.656707,364.938666 505.046795,364.088813 508.426932,363.25209 L511.799,362.42 Z M369.951,300.921 L370.411203,301.497126 C373.801882,305.734497 377.31499,309.952716 380.894016,314.202 C381.060101,314.141904 381.22122,314.083614 381.377917,314.026937 L381.488,313.986 L382.028452,313.754238 C381.579287,313.282466 381.130336,312.810878 380.681702,312.339396 L379.336854,310.925193 L377.994528,309.511168 L375.987121,307.389458 L373.988873,305.265561 L372.662829,303.847647 L371.4148,302.505697 C370.999685,302.058021 370.585494,301.609964 370.172313,301.161462 L369.951,300.921 Z"
       id="path-1" />
    <mask
       id="mask-2"
       fill="white">
      <use
         xlink:href="#path-1"
         id="use3936"
         x="0"
         y="0"
         width="100%"
         height="100%" />
    </mask>
  </defs>
  <use
     id="Mask"
     xlink:href="#path-1"
     style="fill:#f18a00;fill-rule:evenodd;stroke:none;stroke-width:1"
     x="0"
     y="0"
     width="100%"
     height="100%"
     transform="rotate(90,67701.207,67989.483)" />
</svg>
