<?xml version="1.0" encoding="UTF-8" standalone="no"?>
<!-- Generator: Adobe Illustrator 16.0.0, SVG Export Plug-In . SVG Version: 6.00 Build 0)  -->

<svg
   xmlns:dc="http://purl.org/dc/elements/1.1/"
   xmlns:cc="http://creativecommons.org/ns#"
   xmlns:rdf="http://www.w3.org/1999/02/22-rdf-syntax-ns#"
   xmlns:svg="http://www.w3.org/2000/svg"
   xmlns="http://www.w3.org/2000/svg"
   xmlns:sodipodi="http://sodipodi.sourceforge.net/DTD/sodipodi-0.dtd"
   xmlns:inkscape="http://www.inkscape.org/namespaces/inkscape"
   version="1.1"
   id="Capa_1"
   x="0px"
   y="0px"
   width="81.527298"
   height="27.737793"
   viewBox="0 0 81.527296 27.737793"
   xml:space="preserve"
   sodipodi:docname="closed_big.svg"
   inkscape:version="0.92.5 (2060ec1f9f, 2020-04-08)"><metadata
   id="metadata49"><rdf:RDF><cc:Work
       rdf:about=""><dc:format>image/svg+xml</dc:format><dc:type
         rdf:resource="http://purl.org/dc/dcmitype/StillImage" /><dc:title></dc:title></cc:Work></rdf:RDF></metadata><defs
   id="defs47" /><sodipodi:namedview
   pagecolor="#ffffff"
   bordercolor="#666666"
   borderopacity="1"
   objecttolerance="10"
   gridtolerance="10"
   guidetolerance="10"
   inkscape:pageopacity="0"
   inkscape:pageshadow="2"
   inkscape:window-width="1920"
   inkscape:window-height="1043"
   id="namedview45"
   showgrid="false"
   inkscape:zoom="7.773466"
   inkscape:cx="55.820684"
   inkscape:cy="8.6664177"
   inkscape:window-x="0"
   inkscape:window-y="0"
   inkscape:window-maximized="1"
   inkscape:current-layer="Capa_1"
   fit-margin-top="0"
   fit-margin-left="0"
   fit-margin-right="0"
   fit-margin-bottom="0" />
<g
   id="g10"
   transform="matrix(0.19147264,5.4051099e-4,-5.4051099e-4,0.19147264,-5.8250188,-47.271428)"
   style="fill:#9c2424;fill-opacity:1">
		<g
   id="g8"
   style="fill:#9c2424;fill-opacity:1">
			<path
   inkscape:connector-curvature="0"
   id="path2"
   d="m 203.078,292.864 c -11.691,0 -18.492,11.117 -18.492,25.975 0,14.979 7.023,25.53 18.602,25.53 11.691,0 18.383,-11.121 18.383,-25.974 -0.001,-13.729 -6.583,-25.531 -18.493,-25.531 z"
   style="fill:#9c2424;fill-opacity:1" />
			<path
   inkscape:connector-curvature="0"
   id="path4"
   d="m 398.09,293.084 c -3.844,0 -6.344,0.349 -7.814,0.699 V 343.8 c 1.473,0.348 3.844,0.348 6.012,0.348 15.646,0.113 25.863,-8.508 25.863,-26.781 0.107,-15.882 -9.194,-24.283 -24.061,-24.283 z"
   style="fill:#9c2424;fill-opacity:1" />
			<path
   inkscape:connector-curvature="0"
   id="path6"
   d="m 428.395,246.70808 c -156.08538,0.40591 -222.19832,-0.39767 -371.227,0.014 -31.605,0.192 -25.264599,21.73143 -25.264599,53.36843 v 28.81484 c 0,31.768 -6.153401,61.63457 25.612599,61.63457 h 370.723 c 31.762,0 28.70003,-26.77914 28.70003,-58.54714 v -28.81384 c -10e-4,-31.7 3.14297,-56.39386 -28.54403,-56.47086 z m -68.903,-0.017 H 126.23 c 111.6026,0.0784 110.25996,-0.0184 233.262,0 z m -255.266,41.99792 -0.523,2.023 c -0.727,2.848 -3.637,4.586 -6.5,3.857 -2.703,-0.663 -5.852,-1.141 -9.441,-1.141 -13.715,0 -24.379,8.288 -24.379,25.297 0,15.328 9.066,24.961 24.504,24.961 2.563,0 5.234,-0.271 7.719,-0.711 3.766,-0.664 7.371,1.814 8.098,5.599 0.73,3.767 -1.707,7.418 -5.473,8.194 -3.496,0.711 -7.906,1.203 -12.953,1.203 -26.434,0 -40.055,-16.438 -40.055,-38.22 0,-26.103 18.605,-40.621 41.746,-40.621 4.699,0 8.797,0.505 12.086,1.198 1.805,0.384 3.387,1.505 4.367,3.07 0.98,1.587 1.265,3.501 0.804,5.291 z m 52.489,68.161 h -33.504 c -3.879,0 -7.008,-3.148 -7.008,-7.008 v -60.773 c 0,-4.793 3.891,-8.684 8.684,-8.684 4.793,0 8.684,3.891 8.684,8.684 v 53.262 h 23.145 c 4,0 7.258,3.242 7.258,7.259 -0.002,4.016 -3.259,7.26 -7.259,7.26 z m 45.57,1.25 c -22.699,0 -35.969,-17.133 -35.969,-38.914 0,-22.922 14.629,-40.051 37.203,-40.051 23.492,0 36.305,17.59 36.305,38.69 0,25.071 -15.203,40.275 -37.539,40.275 z m 67.578,-0.125 c -5.457,0 -10.867,-0.871 -15.203,-2.121 -3.699,-1.043 -5.898,-4.84 -4.98,-8.574 l 0.109,-0.473 c 0.457,-1.867 1.66,-3.449 3.34,-4.398 1.66,-0.934 3.637,-1.155 5.473,-0.586 3.699,1.156 7.957,1.978 12.273,1.978 7.941,0 12.148,-3.289 12.148,-8.289 0,-4.745 -3.638,-7.465 -12.828,-10.754 -12.703,-4.431 -20.992,-11.47 -20.992,-22.591 0,-13.034 10.897,-23.03 28.934,-23.03 5.125,0 9.457,0.647 13.082,1.599 1.738,0.457 3.212,1.599 4.113,3.147 0.902,1.547 1.137,3.414 0.664,5.155 l -0.129,0.441 c -1.043,3.766 -4.935,6.012 -8.715,5.031 -2.625,-0.695 -5.742,-1.188 -9.349,-1.188 -7.5,0 -11.121,3.402 -11.121,7.371 0,4.893 4.302,7.039 14.173,10.772 13.512,5 19.854,12.022 19.854,22.81 0.002,12.817 -9.869,23.7 -30.846,23.7 z m 84.188,-1.125 h -34.297 c -4.098,0 -7.401,-3.305 -7.401,-7.387 v -61.691 c 0,-4.082 3.306,-7.387 7.401,-7.387 h 32.715 c 3.906,0 7.087,3.18 7.087,7.086 0,3.922 -3.181,7.102 -7.087,7.102 h -22.75 v 15.883 h 21.087 c 3.896,0 7.043,3.134 7.043,7.023 0,3.889 -3.147,7.039 -7.043,7.039 h -21.087 v 18.145 h 24.332 c 3.906,0 7.086,3.181 7.086,7.104 0,3.903 -3.18,7.083 -7.086,7.083 z m 73.777,-9.079 c -8.07,6.691 -20.313,9.871 -35.293,9.871 -5.234,0 -9.57,-0.191 -13.146,-0.461 -3.673,-0.285 -6.483,-3.336 -6.483,-7.023 v -62.562 c 0,-3.621 2.733,-6.646 6.344,-7.008 5.125,-0.504 10.978,-0.759 17.035,-0.759 14.521,0 23.934,2.595 31.305,8.159 7.941,5.889 12.938,15.313 12.938,28.824 -0.001,14.616 -5.329,24.725 -12.7,30.959 z"
   sodipodi:nodetypes="ccsssssccccccccssscccssscccsssssscscssssssscccccsscsscccccssccsssssssssccsssccssscscsscsccc"
   style="fill:#9c2424;fill-opacity:1" />
		</g>
	</g>
<g
   id="g14"
   transform="translate(-25.328222,-357.15623)">
</g>
<g
   id="g16"
   transform="translate(-25.328222,-357.15623)">
</g>
<g
   id="g18"
   transform="translate(-25.328222,-357.15623)">
</g>
<g
   id="g20"
   transform="translate(-25.328222,-357.15623)">
</g>
<g
   id="g22"
   transform="translate(-25.328222,-357.15623)">
</g>
<g
   id="g24"
   transform="translate(-25.328222,-357.15623)">
</g>
<g
   id="g26"
   transform="translate(-25.328222,-357.15623)">
</g>
<g
   id="g28"
   transform="translate(-25.328222,-357.15623)">
</g>
<g
   id="g30"
   transform="translate(-25.328222,-357.15623)">
</g>
<g
   id="g32"
   transform="translate(-25.328222,-357.15623)">
</g>
<g
   id="g34"
   transform="translate(-25.328222,-357.15623)">
</g>
<g
   id="g36"
   transform="translate(-25.328222,-357.15623)">
</g>
<g
   id="g38"
   transform="translate(-25.328222,-357.15623)">
</g>
<g
   id="g40"
   transform="translate(-25.328222,-357.15623)">
</g>
<g
   id="g42"
   transform="translate(-25.328222,-357.15623)">
</g>
</svg>