<?xml version="1.0" encoding="utf-8"?>
<!-- Generator: Adobe Illustrator 27.3.0, SVG Export Plug-In . SVG Version: 6.00 Build 0)  -->
<svg version="1.1" id="Layer_1" xmlns="http://www.w3.org/2000/svg" xmlns:xlink="http://www.w3.org/1999/xlink" x="0px" y="0px"
	 viewBox="0 0 2048 512" style="enable-background:new 0 0 2048 512;" xml:space="preserve">
<style type="text/css">
	.st0{fill:#4B5CBA;}
	.st1{fill:#B5682B;}
	.st2{fill:#FFFFFF;}
</style>
<path class="st0" d="M1920,512H128C57.31,512,0,454.69,0,384V128C0,57.31,57.31,0,128,0h1792c70.69,0,128,57.31,128,128v256
	C2048,454.69,1990.69,512,1920,512z"/>
<g>
	<path class="st2" d="M383.84,407.19H282.23L238.61,293h-28.9v114.19h-91.66V108.6h155.97c34.42,0,61.14,8.06,80.17,24.17
		c19.03,16.12,28.55,37.37,28.55,63.77c0,17.21-3.5,32.41-10.5,45.61c-7,13.2-21.15,24.83-42.44,34.89L383.84,407.19z
		 M209.71,229.13h39.16c11.52,0,20.78-2.41,27.78-7.22s10.5-11.88,10.5-21.22c0-19.1-11.74-28.66-35.22-28.66h-42.22V229.13z"/>
	<path class="st2" d="M552.71,411.78c-42,0-76.23-13.92-102.7-41.78c-26.47-27.85-39.7-65.11-39.7-111.78
		c0-44.62,12.65-81.48,37.95-110.58c25.3-29.09,60.41-43.64,105.33-43.64c41.56,0,75.43,13.71,101.61,41.12
		c26.17,27.42,39.27,64.02,39.27,109.81c0,47.4-13.2,85.39-39.59,113.97C628.47,397.49,594.42,411.78,552.71,411.78z M552.27,343.97
		c15.46,0,26.58-6.74,33.36-20.23c6.78-13.49,10.17-38.17,10.17-74.05c0-51.92-13.93-77.88-41.78-77.88
		c-30.04,0-45.06,29.61-45.06,88.81C508.96,316.19,523.4,343.97,552.27,343.97z"/>
	<path class="st2" d="M975.34,108.6v197.75c0,37.48-11.12,64.42-33.36,80.83c-22.24,16.41-51.22,24.61-86.95,24.61
		c-37.62,0-67.85-7.88-90.67-23.62c-22.83-15.75-34.23-41.42-34.23-77V108.6h93.19v191.84c0,14.29,3.01,24.72,9.05,31.28
		s15.67,9.84,28.91,9.84c11.05,0,20.1-2.37,27.16-7.11c7.05-4.74,11.27-10.1,12.65-16.08c1.38-5.98,2.07-17.64,2.07-35V108.6H975.34
		z"/>
	<path class="st2" d="M1279.62,407.19h-74.59l-81.78-131.93c-10.5-16.92-21.08-37.47-31.75-61.66c4.81,19.25,7.22,35.58,7.22,49
		v144.59h-74.38V108.6h86.62l69.57,109.37c13.86,21.73,24.35,40.84,31.49,57.32c-4.67-25.52-7-51.62-7-78.31V108.6h74.59V407.19z"/>
	<path class="st2" d="M1331.68,407.19V108.6h115.5c50.17,0,87.72,14.88,112.66,44.62s37.41,64.17,37.41,103.25
		c0,44.62-13.38,80.9-40.14,108.83c-26.76,27.93-61.51,41.89-104.23,41.89H1331.68z M1423.34,338.5h23.84
		c15.17,0,27.96-7.36,38.39-22.09c10.42-14.73,15.64-34.78,15.64-60.16c0-21.73-4.63-40.47-13.89-56.22
		c-9.26-15.75-22.64-23.62-40.14-23.62h-23.84V338.5z"/>
	<path class="st2" d="M1880.95,340.69h70.44v66.5H1721.7v-66.5h73.72V198.72c-28,12.4-49.88,19.69-65.62,21.88v-67.16
		c42.44-9.19,71.24-25.67,86.41-49.44h64.75V340.69z"/>
</g>
</svg>
