<?xml version="1.0" encoding="UTF-8" standalone="no"?>
<svg
   xmlns:dc="http://purl.org/dc/elements/1.1/"
   xmlns:cc="http://creativecommons.org/ns#"
   xmlns:rdf="http://www.w3.org/1999/02/22-rdf-syntax-ns#"
   xmlns:svg="http://www.w3.org/2000/svg"
   xmlns="http://www.w3.org/2000/svg"
   xmlns:sodipodi="http://sodipodi.sourceforge.net/DTD/sodipodi-0.dtd"
   xmlns:inkscape="http://www.inkscape.org/namespaces/inkscape"
   xml:space="preserve"
   viewBox="0 0 19.548626 9.5508477"
   y="0px"
   x="0px"
   id="圖層_1"
   version="1.1"
   width="39.097252"
   height="19.101696"
   sodipodi:docname="new.svg"
   inkscape:version="0.92.5 (2060ec1f9f, 2020-04-08)"><metadata
     id="metadata21"><rdf:RDF><cc:Work
         rdf:about=""><dc:format>image/svg+xml</dc:format><dc:type
           rdf:resource="http://purl.org/dc/dcmitype/StillImage" /><dc:title></dc:title></cc:Work></rdf:RDF></metadata><defs
     id="defs19">

</defs><sodipodi:namedview
     pagecolor="#ffffff"
     bordercolor="#666666"
     borderopacity="1"
     objecttolerance="10"
     gridtolerance="10"
     guidetolerance="10"
     inkscape:pageopacity="0"
     inkscape:pageshadow="2"
     inkscape:window-width="1920"
     inkscape:window-height="1043"
     id="namedview17"
     showgrid="false"
     fit-margin-top="0"
     fit-margin-left="0"
     fit-margin-right="0"
     fit-margin-bottom="0"
     inkscape:zoom="2.36"
     inkscape:cx="0.49468785"
     inkscape:cy="3.8968746"
     inkscape:window-x="0"
     inkscape:window-y="0"
     inkscape:window-maximized="1"
     inkscape:current-layer="圖層_1" /><g
     id="g841"
     transform="scale(0.7261598)"><path
       d="M 22.291873,13.152542 H 1.1803564 C 0.53959149,13.152542 0,12.612951 0,11.972186 V 1.1803561 C 0,0.53959123 0.53959149,-2.6e-7 1.1803564,-2.6e-7 H 22.291873 c 0.404694,0 0.775663,0.20234681 0.97801,0.53959149 l 3.47362,5.39591487 c 0.236071,0.3709692 0.236071,0.8768362 0,1.2478053 l -3.47362,5.3959146 c -0.202347,0.370969 -0.573316,0.573316 -0.97801,0.573316 z"
       style="fill:#c33837;stroke-width:0.33724469"
       id="path2"
       inkscape:connector-curvature="0" /><g
       transform="matrix(0.48367364,0,0,0.48367364,-11.747588,-17.631595)"
       id="g10"><path
   d="m 26.9,42.2 h 4.2 l 4.5,8.4 v -3.9 -4.5 h 3.9 v 15.6 h -4.2 l -4.5,-8.5 v 4 4.5 h -3.9 z"
   style="fill:#f5e169"
   id="path4"
   inkscape:connector-curvature="0" />
<path
   d="m 43,42.2 h 10.1 v 3.5 h -6 v 2.4 h 5.1 v 3.5 h -5.1 v 2.8 h 6 v 3.5 H 43 Z"
   style="fill:#f5e169"
   id="path6"
   inkscape:connector-curvature="0" />
<path
   d="m 54.9,42.2 h 3.5 c 0,0 1.4,10.2 1.5,11.8 l 2.4,-11.8 h 4 L 68.2,54 c 0.2,-1.6 1.4,-11.8 1.4,-11.8 h 3.6 l -2.3,15.6 h -5.2 c 0,0 -1.5,-8.7 -1.6,-9.8 H 64 c -0.2,1.2 -1.5,9.8 -1.5,9.8 h -5.1 z"
   style="fill:#f5e169"
   id="path8"
   inkscape:connector-curvature="0" /></g></g><!-- generated by https://loading.io/ --></svg>