<?xml version="1.0" encoding="UTF-8" standalone="no"?>
<!-- Created with Inkscape (http://www.inkscape.org/) -->

<svg
   xmlns:dc="http://purl.org/dc/elements/1.1/"
   xmlns:cc="http://creativecommons.org/ns#"
   xmlns:rdf="http://www.w3.org/1999/02/22-rdf-syntax-ns#"
   xmlns:svg="http://www.w3.org/2000/svg"
   xmlns="http://www.w3.org/2000/svg"
   xmlns:sodipodi="http://sodipodi.sourceforge.net/DTD/sodipodi-0.dtd"
   xmlns:inkscape="http://www.inkscape.org/namespaces/inkscape"
   width="25.949034mm"
   height="17.185421mm"
   viewBox="0 0 25.949033 17.185421"
   version="1.1"
   id="svg835"
   sodipodi:docname="soldout.svg"
   inkscape:version="0.92.5 (2060ec1f9f, 2020-04-08)">
  <defs
     id="defs829" />
  <sodipodi:namedview
     id="base"
     pagecolor="#ffffff"
     bordercolor="#666666"
     borderopacity="1.0"
     inkscape:pageopacity="0.0"
     inkscape:pageshadow="2"
     inkscape:zoom="1.4"
     inkscape:cx="73.472082"
     inkscape:cy="-4.6968899"
     inkscape:document-units="mm"
     inkscape:current-layer="layer1"
     showgrid="false"
     inkscape:window-width="1920"
     inkscape:window-height="1043"
     inkscape:window-x="0"
     inkscape:window-y="0"
     inkscape:window-maximized="1"
     fit-margin-top="0"
     fit-margin-left="0"
     fit-margin-right="0"
     fit-margin-bottom="0" />
  <metadata
     id="metadata832">
    <rdf:RDF>
      <cc:Work
         rdf:about="">
        <dc:format>image/svg+xml</dc:format>
        <dc:type
           rdf:resource="http://purl.org/dc/dcmitype/StillImage" />
        <dc:title></dc:title>
      </cc:Work>
    </rdf:RDF>
  </metadata>
  <g
     inkscape:label="Layer 1"
     inkscape:groupmode="layer"
     id="layer1"
     transform="translate(-80.970522,-183.11018)">
    <path
       inkscape:connector-curvature="0"
       style="opacity:1;fill:#9c2424;fill-opacity:1;stroke:#000000;stroke-width:0;stroke-linecap:round;stroke-linejoin:round;stroke-miterlimit:4;stroke-dashoffset:0.97097409;stroke-opacity:1"
       id="path5035-3"
       d="m 92.519166,188.16157 c -2.13997,1.01577 -5.416793,2.45984 -5.416793,2.45984 l 10.318121,-4.89847 c 0,0 -2.760972,1.42253 -4.901328,2.43863 z m -11.400698,5.69376 c -0.150072,0.0915 -0.192467,0.28271 -0.09713,0.48353 l 2.712533,5.71372 c 0.101708,0.21423 0.295007,0.29738 0.485768,0.20682 l 0.34553,-0.16441 2.051663,-0.97341 0.440755,-0.20875 2.679572,-1.27194 0.338762,-0.16115 10.776759,-5.1162 0.33876,-0.16115 2.67957,-1.27193 0.44076,-0.20875 0.82011,-0.38937 1.6154,-0.76684 c 0.1652,-0.0785 0.22369,-0.2811 0.12198,-0.49532 l -2.7126,-5.7137 c -0.10167,-0.21419 -0.29354,-0.29806 -0.46995,-0.2143 l -1.60639,0.76251 -0.83814,0.39802 -0.44076,0.20874 -2.690855,1.27735 -0.336507,0.16007 -10.722529,5.09046 -0.33651,0.16008 -2.690843,1.27734 -0.440756,0.20873 -2.0697,0.98208 -0.36357,0.17305 c -0.01091,0.005 -0.02159,0.008 -0.03163,0.015 z m 2.352095,-0.084 c 0.369865,-0.17608 0.70467,-0.18648 1.006356,-0.032 0.303032,0.15383 0.555256,0.4299 0.757177,0.831 l -0.574864,0.32279 c -0.133161,-0.21479 -0.26543,-0.35143 -0.396603,-0.40971 -0.130788,-0.0609 -0.28156,-0.0517 -0.449165,0.0277 -0.172895,0.0823 -0.283139,0.20061 -0.330517,0.35348 -0.03061,0.0982 -0.01943,0.20398 0.0349,0.31842 0.04957,0.10446 0.123742,0.17967 0.218005,0.22594 0.119897,0.0588 0.347954,0.0692 0.686172,0.0342 0.338232,-0.0351 0.603415,-0.0286 0.79394,0.0162 0.190882,0.0422 0.369399,0.13908 0.537706,0.2929 0.168703,0.15116 0.318571,0.3678 0.451051,0.64685 0.120091,0.25298 0.185713,0.51052 0.196724,0.77593 0.01103,0.26539 -0.04259,0.49366 -0.162743,0.68354 -0.121097,0.18792 -0.309388,0.34345 -0.56548,0.46502 -0.372554,0.17738 -0.720171,0.18337 -1.041939,0.0212 -0.322743,-0.16413 -0.622168,-0.48367 -0.895521,-0.95909 l 0.540963,-0.35922 c 0.173062,0.27456 0.343996,0.45564 0.51473,0.54188 0.172076,0.0856 0.349302,0.0834 0.530312,-0.002 0.19177,-0.0909 0.307425,-0.21708 0.346784,-0.38335 0.03975,-0.16893 0.02026,-0.33635 -0.05693,-0.49897 -0.0496,-0.10446 -0.112868,-0.18175 -0.188745,-0.23431 -0.0755,-0.0551 -0.175901,-0.0854 -0.303546,-0.0913 -0.08689,-0.004 -0.277066,0.006 -0.568949,0.032 -0.375351,0.0331 -0.667324,-0.006 -0.878012,-0.11754 -0.296324,-0.15698 -0.526793,-0.40985 -0.692637,-0.75919 -0.106737,-0.22484 -0.164748,-0.45555 -0.172723,-0.69039 -0.0076,-0.23748 0.04495,-0.44403 0.155892,-0.62218 0.112311,-0.17873 0.281097,-0.3217 0.507699,-0.42928 z m 3.025154,-1.43624 c 0.434624,-0.2058 0.877284,-0.16901 1.328975,0.111 0.453028,0.27944 0.848707,0.77889 1.189919,1.49762 0.338382,0.71269 0.475639,1.33115 0.408447,1.85754 -0.06815,0.52438 -0.320882,0.88875 -0.753967,1.09435 -0.438636,0.20771 -0.881831,0.17456 -1.330275,-0.10216 -0.449403,-0.27868 -0.841202,-0.7689 -1.17479,-1.47157 -0.213451,-0.44973 -0.346771,-0.84844 -0.401805,-1.19626 -0.0397,-0.25667 -0.04457,-0.50183 -0.01408,-0.73527 0.03182,-0.23405 0.09593,-0.42698 0.193043,-0.57889 0.128416,-0.20364 0.314528,-0.36248 0.554536,-0.47643 z m 9.836869,-4.67004 c 0.434635,-0.2058 0.879557,-0.17009 1.331242,0.10991 0.453033,0.27942 0.848707,0.77887 1.189921,1.4976 0.338382,0.7127 0.473385,1.33224 0.406186,1.85863 -0.06815,0.52438 -0.318637,0.88768 -0.751713,1.09326 -0.438639,0.20773 -0.881829,0.17458 -1.330279,-0.10215 -0.449392,-0.27868 -0.8412,-0.76889 -1.174785,-1.47156 -0.213555,-0.44967 -0.346766,-0.84844 -0.401804,-1.19626 -0.0397,-0.25669 -0.04456,-0.50184 -0.01407,-0.73528 0.03182,-0.23404 0.09593,-0.42699 0.19305,-0.57889 0.128418,-0.20363 0.31226,-0.36141 0.552265,-0.47534 z m -5.389136,2.6498 1.086708,-0.51592 c 0.2453,-0.11658 0.446841,-0.1786 0.602227,-0.18352 0.209159,-0.006 0.420072,0.0602 0.635881,0.19645 0.2158,0.13618 0.423663,0.32961 0.622422,0.58213 0.197787,0.25051 0.396326,0.5841 0.592678,0.99765 0.172557,0.36337 0.291299,0.69113 0.355825,0.98276 0.07876,0.35624 0.09613,0.66595 0.05374,0.92962 -0.03176,0.19959 -0.115038,0.38317 -0.250653,0.55087 -0.101829,0.12465 -0.262532,0.23816 -0.482422,0.34257 l -1.12053,0.53213 z m 7.317826,-3.47404 0.596345,-0.28337 1.134789,2.3903 c 0.18025,0.37939 0.30295,0.62371 0.37106,0.72915 0.11123,0.16861 0.24239,0.28392 0.39,0.34916 0.14801,0.0625 0.30408,0.055 0.47035,-0.024 0.16888,-0.0803 0.27168,-0.19174 0.30887,-0.33491 0.0363,-0.14508 0.0287,-0.29697 -0.0254,-0.45581 -0.0541,-0.15883 -0.16541,-0.41254 -0.33123,-0.76188 l -1.15945,-2.4423 0.59635,-0.28337 1.1005,2.318 c 0.25179,0.52994 0.41273,0.91461 0.48444,1.14872 0.0717,0.23412 0.1,0.44632 0.0843,0.63826 -0.0143,0.1913 -0.0721,0.3665 -0.17407,0.52559 -0.10286,0.15713 -0.27156,0.28949 -0.50486,0.40025 -0.28156,0.13372 -0.5184,0.18697 -0.71029,0.16001 -0.19151,-0.0297 -0.36573,-0.10203 -0.5236,-0.21653 -0.15881,-0.11645 -0.29211,-0.25296 -0.399938,-0.41089 -0.158975,-0.2345 -0.356264,-0.59884 -0.590737,-1.0927 z m 2.769864,-1.31498 2.34307,-1.11187 0.35476,0.74796 -0.87197,0.41425 1.7408,3.6668 -0.59634,0.28337 -1.74078,-3.66681 -0.87423,0.41534 z m -12.57156,6.0125 0.596348,-0.28338 1.725783,3.63519 1.479593,-0.70304 0.352922,0.74329 -2.076464,0.98532 z m -1.59793,1.55592 c -0.245305,0.11657 -0.381661,0.33633 -0.41173,0.66057 -0.03103,0.32226 0.07351,0.738 0.314648,1.24593 0.237373,0.49989 0.493869,0.84351 0.771017,1.02928 0.276186,0.18379 0.53243,0.21789 0.769752,0.10519 0.237276,-0.11282 0.371166,-0.33164 0.401637,-0.65854 0.03084,-0.32954 -0.07461,-0.75194 -0.317651,-1.2639 -0.24025,-0.50589 -0.494,-0.84743 -0.761023,-1.02572 -0.265668,-0.17891 -0.521279,-0.20932 -0.76665,-0.0928 z m 9.839186,-4.67101 c -0.245304,0.11657 -0.381661,0.33632 -0.41174,0.66057 -0.03102,0.32225 0.07351,0.738 0.314649,1.24593 0.237372,0.49989 0.493889,0.8435 0.771028,1.02928 0.276193,0.18377 0.532426,0.21789 0.769748,0.10519 0.237266,-0.11282 0.371171,-0.33165 0.401633,-0.65855 0.03085,-0.32954 -0.0746,-0.75195 -0.317646,-1.26389 -0.240255,-0.5059 -0.49401,-0.84743 -0.761031,-1.02572 -0.265664,-0.17891 -0.521278,-0.20932 -0.766641,-0.0928 z m -4.808155,2.35738 1.387905,2.92351 0.445267,-0.2109 c 0.16621,-0.079 0.278433,-0.15037 0.33884,-0.21348 0.07935,-0.082 0.13054,-0.1805 0.152598,-0.29669 0.02338,-0.11682 0.0097,-0.28397 -0.04348,-0.49982 -0.05414,-0.21786 -0.164302,-0.49767 -0.326314,-0.83898 -0.16198,-0.34131 -0.305039,-0.59474 -0.431999,-0.75834 -0.126955,-0.1636 -0.251155,-0.27853 -0.372163,-0.34655 -0.121012,-0.068 -0.245862,-0.0937 -0.374308,-0.077 -0.09642,0.0109 -0.2646,0.0759 -0.507286,0.19106 z m -1.468156,6.92607 c 0,0 3.872276,-1.89474 6.032249,-2.92012 2.160001,-1.02539 4.351416,-2.00939 4.351416,-2.00939 z"
       sodipodi:nodetypes="sccscsssccccccccccssssccccccccccscsccccccsccccsccsccccsccccccsccsscscscscccsscscscscccscscccccccsccccsccccccccscccscccccccccccccccccccccscscccscsscscccscsccscccscccsccscc" />
    <text
       xml:space="preserve"
       style="font-style:normal;font-weight:normal;font-size:3.52777767px;line-height:1.25;font-family:sans-serif;letter-spacing:0px;word-spacing:0px;fill:#000000;fill-opacity:1;stroke:none;stroke-width:0.26458332"
       x="108.56278"
       y="188.57835"
       id="text3020"><tspan
         sodipodi:role="line"
         id="tspan3018"
         x="108.56278"
         y="191.69962"
         style="stroke-width:0.26458332"></tspan></text>
    <text
       xml:space="preserve"
       style="font-style:normal;font-weight:normal;font-size:3.52777767px;line-height:1.25;font-family:sans-serif;letter-spacing:0px;word-spacing:0px;fill:#000000;fill-opacity:1;stroke:none;stroke-width:0.26458332"
       x="109.50772"
       y="189.14531"
       id="text3024"><tspan
         sodipodi:role="line"
         id="tspan3022"
         x="109.50772"
         y="192.26657"
         style="stroke-width:0.26458332"></tspan></text>
  </g>
</svg>
