<?xml version="1.0" encoding="UTF-8" standalone="no"?>
<!-- Created with Inkscape (http://www.inkscape.org/) -->

<svg
   xmlns:dc="http://purl.org/dc/elements/1.1/"
   xmlns:cc="http://creativecommons.org/ns#"
   xmlns:rdf="http://www.w3.org/1999/02/22-rdf-syntax-ns#"
   xmlns:svg="http://www.w3.org/2000/svg"
   xmlns="http://www.w3.org/2000/svg"
   xmlns:sodipodi="http://sodipodi.sourceforge.net/DTD/sodipodi-0.dtd"
   xmlns:inkscape="http://www.inkscape.org/namespaces/inkscape"
   width="15.813937mm"
   height="4.8641911mm"
   viewBox="0 0 15.813937 4.8641911"
   version="1.1"
   id="svg835"
   sodipodi:docname="soldout_vertical.svg"
   inkscape:version="0.92.5 (2060ec1f9f, 2020-04-08)">
  <defs
     id="defs829" />
  <sodipodi:namedview
     id="base"
     pagecolor="#ffffff"
     bordercolor="#666666"
     borderopacity="1.0"
     inkscape:pageopacity="0.0"
     inkscape:pageshadow="2"
     inkscape:zoom="1.4"
     inkscape:cx="72.897638"
     inkscape:cy="-33.691274"
     inkscape:document-units="mm"
     inkscape:current-layer="layer1"
     showgrid="false"
     inkscape:window-width="1920"
     inkscape:window-height="1043"
     inkscape:window-x="0"
     inkscape:window-y="0"
     inkscape:window-maximized="1"
     fit-margin-top="0"
     fit-margin-left="0"
     fit-margin-right="0"
     fit-margin-bottom="0" />
  <metadata
     id="metadata832">
    <rdf:RDF>
      <cc:Work
         rdf:about="">
        <dc:format>image/svg+xml</dc:format>
        <dc:type
           rdf:resource="http://purl.org/dc/dcmitype/StillImage" />
        <dc:title></dc:title>
      </cc:Work>
    </rdf:RDF>
  </metadata>
  <g
     inkscape:label="Layer 1"
     inkscape:groupmode="layer"
     id="layer1"
     transform="translate(-81.12251,-187.75998)">
    <path
       inkscape:connector-curvature="0"
       style="opacity:1;fill:#9c2424;fill-opacity:1;stroke:#000000;stroke-width:0;stroke-linecap:round;stroke-linejoin:round;stroke-miterlimit:4;stroke-dashoffset:0.97097409;stroke-opacity:1"
       id="path5035-3"
       d="m 89.184926,187.84238 c -1.460751,-0.008 -3.667742,-0.0824 -3.667742,-0.0824 l 7.043408,0.0387 c 0,0 -1.914611,0.0517 -3.375666,0.0437 z m -7.857667,0.11361 c -0.107861,0.0107 -0.18257,0.10559 -0.183323,0.24268 l -0.02142,3.90032 c -8.01e-4,0.14624 0.08436,0.24415 0.214573,0.24487 l 0.235967,0.001 1.400355,0.008 0.300737,0.002 1.829097,0.0101 0.231335,0.001 7.356483,0.0404 0.23133,0.001 1.829094,0.0101 0.300743,0.002 0.559832,0.003 1.102699,0.006 c 0.112789,5.8e-4 0.199487,-0.0963 0.200282,-0.24257 l 0.0214,-3.90033 c 6.17e-4,-0.14621 -0.08335,-0.24414 -0.203778,-0.24479 l -1.096532,-0.006 -0.572165,-0.003 -0.300744,-0.002 -1.836808,-0.0102 -0.229794,-10e-4 -7.319467,-0.0401 -0.229796,-10e-4 -1.836804,-0.0101 -0.300733,-0.002 -1.412696,-0.008 -0.248301,-0.001 c -0.0074,-1.4e-4 -0.01413,-0.001 -0.02159,-1.3e-4 z m 1.329343,0.58257 c 0.252609,0.001 0.441416,0.0849 0.567712,0.25145 0.127217,0.16653 0.193502,0.3874 0.19839,0.66428 l -0.40576,0.0255 c -0.01653,-0.15496 -0.05346,-0.26627 -0.110753,-0.33374 -0.05638,-0.0688 -0.142609,-0.10405 -0.256975,-0.10478 -0.118081,-5.2e-4 -0.210986,0.0357 -0.278207,0.10798 -0.04328,0.0464 -0.06536,0.10814 -0.06579,0.18626 -4.04e-4,0.0713 0.02069,0.13293 0.06069,0.18386 0.05089,0.0648 0.174818,0.13153 0.372101,0.20257 0.197319,0.071 0.342921,0.14554 0.436795,0.2214 0.09477,0.0745 0.168039,0.1761 0.220403,0.30659 0.05329,0.12912 0.07861,0.28958 0.07756,0.48007 -9.25e-4,0.17269 -0.03339,0.33334 -0.09828,0.48375 -0.06487,0.1504 -0.155729,0.26289 -0.273286,0.33625 -0.117557,0.072 -0.263783,0.10806 -0.438596,0.1071 -0.254452,-0.001 -0.449197,-0.0908 -0.584593,-0.26697 -0.135414,-0.17753 -0.216296,-0.43518 -0.24099,-0.77246 l 0.396669,-0.0549 c 0.02271,0.19885 0.06924,0.34519 0.141029,0.43878 0.07271,0.0936 0.171767,0.13978 0.295186,0.14076 0.13087,6.1e-4 0.228886,-0.0384 0.295236,-0.12022 0.06728,-0.0832 0.101238,-0.18147 0.101854,-0.29247 3.88e-4,-0.0713 -0.01409,-0.13118 -0.04219,-0.18069 -0.02721,-0.0508 -0.07489,-0.0945 -0.144231,-0.13193 -0.04721,-0.0255 -0.155548,-0.0708 -0.32468,-0.13443 -0.217408,-0.082 -0.369173,-0.18186 -0.456396,-0.30019 -0.122648,-0.1665 -0.183052,-0.36865 -0.181742,-0.60712 8.64e-4,-0.15348 0.03033,-0.29718 0.08873,-0.42981 0.05931,-0.13397 0.143764,-0.23468 0.253065,-0.30398 0.110217,-0.0693 0.242245,-0.10355 0.39693,-0.1027 z m 2.065063,0.0113 c 0.296542,0.002 0.53265,0.1408 0.708709,0.41721 0.176955,0.27646 0.263187,0.65981 0.260494,1.15044 -0.0027,0.48651 -0.09184,0.86686 -0.269994,1.14135 -0.178149,0.27313 -0.41605,0.40797 -0.711683,0.40634 -0.299283,-0.002 -0.536662,-0.13892 -0.711797,-0.41264 -0.175144,-0.27506 -0.26169,-0.65226 -0.259057,-1.13191 0.0017,-0.30699 0.03431,-0.56418 0.09678,-0.77216 0.04661,-0.15324 0.109487,-0.29076 0.188879,-0.4123 0.08029,-0.12153 0.167527,-0.21157 0.262124,-0.27 0.12583,-0.0788 0.271731,-0.11726 0.435568,-0.11636 z m 6.714904,0.0368 c 0.296548,0.002 0.534202,0.1408 0.710261,0.41721 0.176962,0.27644 0.263192,0.6598 0.2605,1.15043 -0.0027,0.48651 -0.09338,0.86686 -0.271543,1.14135 -0.178149,0.27313 -0.414515,0.40797 -0.710138,0.40633 -0.29929,-0.002 -0.536666,-0.1389 -0.711803,-0.41263 -0.175137,-0.27506 -0.261691,-0.65225 -0.259056,-1.13191 0.0017,-0.30698 0.03431,-0.56418 0.09678,-0.77216 0.04661,-0.15325 0.109496,-0.29075 0.188888,-0.4123 0.08029,-0.12152 0.16753,-0.21158 0.262128,-0.27 0.125828,-0.0788 0.270184,-0.11727 0.434015,-0.11636 z m -3.703194,0.0306 0.741817,0.004 c 0.167481,6.2e-4 0.296053,0.0203 0.383705,0.0591 0.117818,0.0526 0.217296,0.14582 0.300753,0.27927 0.08347,0.13339 0.147217,0.29647 0.190096,0.48995 0.04288,0.1921 0.06395,0.43056 0.06241,0.71287 -0.0014,0.24806 -0.02304,0.46193 -0.06521,0.64123 -0.05154,0.219 -0.124745,0.39574 -0.218836,0.53089 -0.07104,0.1024 -0.166424,0.18212 -0.286639,0.23902 -0.08992,0.042 -0.209581,0.0621 -0.359688,0.0613 l -0.764946,-0.004 z m 4.995316,0.0274 0.407147,0.002 -0.0089,1.63168 c -0.0012,0.25902 0.0012,0.42759 0.0111,0.50439 0.01671,0.12345 0.05871,0.2226 0.123284,0.29834 0.06552,0.0743 0.154242,0.11191 0.267759,0.1125 0.115311,5.6e-4 0.202243,-0.0339 0.261209,-0.10346 0.05902,-0.0709 0.09539,-0.15732 0.107825,-0.26005 0.01246,-0.10272 0.01844,-0.27346 0.0198,-0.51192 l 0.0092,-1.66717 0.40715,0.002 -0.0086,1.58233 c -0.0019,0.36181 -0.01535,0.61859 -0.03817,0.76785 -0.02282,0.14927 -0.06384,0.27474 -0.123907,0.37718 -0.05914,0.10247 -0.13811,0.18435 -0.237326,0.24546 -0.09919,0.0598 -0.228334,0.0882 -0.38759,0.0873 -0.192209,-0.001 -0.338052,-0.0348 -0.437453,-0.10112 -0.09846,-0.0677 -0.175911,-0.15453 -0.232997,-0.26038 -0.0571,-0.10719 -0.09463,-0.21869 -0.112292,-0.33529 -0.0256,-0.17282 -0.03775,-0.42804 -0.0359,-0.76516 z m 1.890776,0.0104 1.599309,0.009 -0.0031,0.51049 -0.595303,-0.003 -0.01375,2.50305 -0.40715,-0.002 0.01375,-2.50305 -0.596851,-0.003 z m -8.593489,-0.0225 0.407153,0.002 -0.01362,2.48147 1.010171,0.005 -0.0028,0.5074 -1.417321,-0.008 z m -1.304087,0.43701 c -0.167481,-6.1e-4 -0.302034,0.0848 -0.405483,0.25688 -0.103453,0.17076 -0.156589,0.42972 -0.158491,0.77644 -0.0019,0.34125 0.04875,0.6008 0.153036,0.77816 0.104286,0.176 0.237537,0.2635 0.399548,0.26437 0.162017,6.2e-4 0.294949,-0.085 0.399332,-0.25845 0.105296,-0.17485 0.159708,-0.43775 0.16163,-0.78723 0.0019,-0.34535 -0.04777,-0.603 -0.148435,-0.7735 -0.09975,-0.17048 -0.233634,-0.25575 -0.401139,-0.25666 z m 6.716451,0.0369 c -0.167481,-6.1e-4 -0.302032,0.0848 -0.405489,0.25688 -0.103445,0.17075 -0.156589,0.42972 -0.15849,0.77644 -0.0019,0.34125 0.04876,0.60079 0.153042,0.77816 0.104295,0.17599 0.237535,0.26349 0.399546,0.26437 0.162012,6.2e-4 0.294954,-0.085 0.399333,-0.25846 0.1053,-0.17484 0.159715,-0.43775 0.16163,-0.78722 0.0018,-0.34536 -0.04777,-0.60301 -0.14844,-0.7735 -0.09974,-0.17048 -0.233634,-0.25576 -0.401134,-0.25666 z m -3.30216,0.0235 -0.01096,1.99565 0.303819,0.002 c 0.113484,5.8e-4 0.19493,-0.009 0.245377,-0.028 0.06603,-0.0244 0.120819,-0.0654 0.164158,-0.12403 0.04424,-0.0586 0.08136,-0.15518 0.109556,-0.28934 0.0282,-0.13553 0.04185,-0.32047 0.04314,-0.55345 0.0013,-0.23297 -0.01038,-0.41205 -0.03715,-0.53691 -0.02677,-0.12487 -0.06503,-0.22196 -0.11407,-0.29212 -0.04904,-0.0702 -0.111539,-0.11783 -0.187374,-0.14292 -0.05649,-0.0197 -0.167322,-0.0286 -0.332971,-0.0295 z m -2.668623,3.4555 c 0,0 2.6584,-0.0168 4.132837,-0.009 1.474455,0.008 2.955291,0.0477 2.955291,0.0477 z"
       sodipodi:nodetypes="sccscsssccccccccccssssccccccccccscsccccccsccccsccsccccsccccccsccsscscscscccsscscscscccscscccccccsccccsccccccccscccscccccccccccccccccccccscscccscsscscccscsccscccscccsccscc" />
    <text
       xml:space="preserve"
       style="font-style:normal;font-weight:normal;font-size:3.52777767px;line-height:1.25;font-family:sans-serif;letter-spacing:0px;word-spacing:0px;fill:#000000;fill-opacity:1;stroke:none;stroke-width:0.26458332"
       x="108.56278"
       y="188.57835"
       id="text3020"><tspan
         sodipodi:role="line"
         id="tspan3018"
         x="108.56278"
         y="191.69962"
         style="stroke-width:0.26458332"></tspan></text>
    <text
       xml:space="preserve"
       style="font-style:normal;font-weight:normal;font-size:3.52777767px;line-height:1.25;font-family:sans-serif;letter-spacing:0px;word-spacing:0px;fill:#000000;fill-opacity:1;stroke:none;stroke-width:0.26458332"
       x="109.50772"
       y="189.14531"
       id="text3024"><tspan
         sodipodi:role="line"
         id="tspan3022"
         x="109.50772"
         y="192.26657"
         style="stroke-width:0.26458332"></tspan></text>
  </g>
</svg>
