<?xml version="1.0" encoding="UTF-8"?>
<svg width="729px" height="704px" viewBox="0 0 729 704" version="1.1" xmlns="http://www.w3.org/2000/svg" xmlns:xlink="http://www.w3.org/1999/xlink">
    <title>14732B44-ECE4-4D34-AAB6-60C9A82E0EB6@1x</title>
    <g id="Page-1" stroke="none" stroke-width="1" fill="none" fill-rule="evenodd" opacity="0.400000006">
        <g id="Home" transform="translate(-297.000000, -4131.000000)" fill="#3DAE2B">
            <g id="Keynotes" transform="translate(81.000000, 3688.000000)">
                <g id="Group-33" transform="translate(216.000000, 443.000000)">
                    <path d="M274.244298,7.26444749 C261.543371,7.26444749 248.585896,14.0830692 238.499228,19.3926665 C210.320515,34.2208646 193.393775,57.5718881 175.473363,82.2945876 C164.613438,97.276399 153.384952,112.767845 139.403092,126.262318 C128.521487,136.764044 117.406821,144.574827 106.65891,152.125371 C87.2660585,165.751771 68.9481784,178.622755 56.8579078,205.031586 C41.8661168,237.772898 33.3404164,281.568944 31.5192878,335.203467 C30.928505,352.626825 24.8309761,369.309226 18.9357949,385.44404 C8.54741232,413.867916 -1.2664475,440.717707 19.168856,469.16327 C26.294383,479.079458 34.4659751,488.41553 42.3719859,497.442568 C53.2843042,509.908736 64.5687977,522.7996 73.5335201,537.644063 C79.2679073,547.140977 83.9056426,558.071013 88.3916172,568.64322 C95.7285253,585.940074 103.320175,603.827886 115.878374,615.965142 C134.026427,633.507776 163.787788,637.998705 192.571737,642.339636 C209.014289,644.820942 224.544469,647.164899 238.132473,651.794984 C291.241498,669.899662 335.297273,678.923086 376.778537,680.193558 C388.646586,680.558616 404.816329,683.500762 423.540711,686.910976 C469.287535,695.242237 531.930385,706.649377 555.012467,680.18633 C560.889582,673.443611 563.442414,663.012367 565.910332,652.922686 C567.778435,645.292625 569.706157,637.404132 573.108127,630.843942 C581.252618,615.132016 593.967999,603.627286 606.26423,592.500264 C611.053726,588.170177 616.004016,583.690091 620.587551,579.041934 C643.320946,555.999945 658.276603,525.785119 672.740845,496.564262 C678.122931,485.692057 683.68749,474.452988 689.551958,463.797649 C711.056813,424.731085 721.898671,381.361542 721.773298,334.894433 C721.642123,286.365292 707.983659,242.666836 693.524837,196.402135 C688.805801,181.29924 688.101198,162.804203 687.421888,144.920005 C686.354143,116.861187 685.252071,87.8445445 669.259382,70.7428701 C653.44736,53.8345677 625.328267,47.697266 600.52081,42.2828502 C594.598528,40.9906916 589.006868,39.7690143 583.722343,38.4389042 C561.648386,32.8817184 539.885176,25.905869 518.839216,19.161343 C515.045198,17.9450874 511.247567,16.7288318 507.437289,15.5161906 C469.114094,3.31929741 430.066422,12.113205 392.30149,20.616151 C371.844507,25.2227417 350.691953,29.984753 330.050689,31.2787188 C316.061602,32.1516036 308.244119,25.6347867 300.694023,19.3257996 C296.209855,15.5830576 291.575733,11.7101961 285.478204,9.31382916 C281.81246,7.8734789 278.038316,7.26444749 274.244298,7.26444749 M502.629726,704 C477.021911,704 448.017547,698.715704 422.247132,694.024174 C403.808205,690.666369 387.884169,687.767596 376.556315,687.418803 C334.337929,686.128452 289.611877,676.982138 235.800055,658.638907 C222.826321,654.214844 207.606889,651.919682 191.493152,649.488978 C161.589064,644.976362 130.664204,640.31194 110.855817,621.164499 C97.2407124,608.00436 89.3599951,589.429805 81.7376323,571.467897 C77.1504839,560.653523 72.8162701,550.439144 67.3474642,541.383191 C58.7133633,527.080892 47.6420575,514.43581 36.9338934,502.206387 C28.9176755,493.049229 20.6268429,483.579423 13.3007748,473.381309 C-9.36577253,441.827337 1.5700326,411.901666 12.148116,382.960927 C17.849983,367.361048 23.7451643,351.228041 24.2962002,334.957686 C26.1516557,280.363531 34.8959638,235.63677 50.28703,202.020766 C63.1939178,173.833636 82.2886683,160.416872 102.503557,146.212164 C113.027441,138.81704 123.909045,131.172521 134.385955,121.059347 C147.907112,108.007641 158.947705,92.7782412 169.623349,78.0512471 C187.242045,53.7460142 205.462365,28.6112696 235.133392,12.9969331 C249.471167,5.44819653 269.11334,-4.8800365 288.12137,2.58556817 C295.308324,5.41024502 300.401341,9.66442885 305.324531,13.7776499 C312.381405,19.6709776 318.47532,24.770938 329.59902,24.064317 C349.667568,22.8064955 370.534667,18.1077368 390.715229,13.5625913 C429.419633,4.84820119 469.442909,-4.15895776 509.628786,8.62708751 C513.442677,9.84153591 517.245729,11.061406 521.04336,12.2758543 C541.982726,18.9878504 563.635728,25.9257483 585.485658,31.4287176 C590.659976,32.7317196 596.197436,33.9407463 602.060097,35.2202545 C627.899166,40.8587649 657.187178,47.2508839 674.53668,65.8055591 C692.372178,84.8752905 693.526644,115.259994 694.643169,144.647115 C695.335125,162.85842 695.989142,180.059491 700.392009,194.143117 C715.047759,241.043957 728.863404,285.255662 729,334.872746 C729.127179,382.583219 717.985413,427.132873 695.882548,467.285573 C690.093961,477.79995 684.563728,488.970345 679.217776,499.770261 C664.500599,529.506175 649.281167,560.248707 625.732962,584.120208 C621.004893,588.914749 615.97511,593.461702 611.113347,597.86227 C598.746655,609.050737 587.066499,619.61933 579.52363,634.172831 C576.520936,639.963148 574.777494,647.092611 572.929266,654.63954 C570.257193,665.569576 567.491173,676.87009 560.457787,684.93569 C547.941141,699.290398 526.79762,704 502.629726,704" id="Fill-1"></path>
                    <path d="M272.613032,30.2095057 C266.287123,30.2095057 259.24729,31.7311518 250.839253,35.6635768 C222.654617,48.8451523 207.127222,72.2517558 190.685281,97.0354308 C180.057753,113.05428 169.068746,129.618897 154.361911,143.152873 C143.781376,152.889962 132.906235,159.580145 122.38896,166.048044 C105.070428,176.701374 88.7134348,186.761949 77.4804278,209.051715 C55.464457,252.729463 50.400115,308.459299 49.3391697,337.791648 C48.7608009,353.730981 45.4894022,368.092645 42.3246403,381.982636 C35.5830287,411.575218 29.761385,437.132367 51.7104819,468.624296 C54.1052903,472.05794 56.5000987,475.455439 58.8804479,478.838481 C73.7553711,499.957194 87.8025039,519.904854 98.8186226,543.651207 C101.520689,549.47575 103.957068,555.853291 106.312114,562.023005 C112.218705,577.483436 118.325919,593.47337 129.546274,604.153807 C146.937101,620.707582 175.452492,623.734609 203.02984,626.660435 C218.61688,628.314005 233.338174,629.875409 246.252065,633.735547 C295.606807,648.483948 333.905668,659.03969 377.426115,660.512542 C388.648277,660.89205 402.825543,663.028138 417.837829,665.287113 C462.010748,671.941152 516.979282,680.216233 541.50935,651.832654 C547.244238,645.196686 550.958451,636.744503 554.889551,627.795344 C558.426638,619.74074 562.084821,611.413252 567.413044,604.323682 C573.912463,595.670901 581.883109,588.574103 589.589873,581.710431 C595.521769,576.428042 601.656093,570.966742 606.913827,564.936181 C624.734816,544.498775 635.816002,517.842861 646.533899,492.063429 C653.031511,476.436738 659.747819,460.276929 667.904627,445.665874 C697.974383,391.797434 703.987612,360.610918 703.771148,330.358714 C703.510458,295.445792 694.292704,264.962269 684.532731,232.693252 C682.118041,224.705513 679.62021,216.448505 677.241669,208.046922 C672.961739,192.947928 673.189472,174.227344 673.409975,156.126623 C673.742537,128.764101 674.087751,100.472688 659.445983,83.3586879 C646.750787,68.5217349 619.515038,63.2628393 597.627393,59.0394582 C592.740176,58.0961099 588.122262,57.2051699 583.976081,56.2636288 C562.739101,51.4511068 541.639483,45.6482498 521.232101,40.0369539 C515.739404,38.5279581 510.237671,37.0153479 504.716056,35.515388 C467.884806,25.5126433 432.412723,32.2425839 398.113645,38.7520485 C377.718914,42.6194151 356.631948,46.620513 335.291946,47.1680887 C320.610415,47.5819331 309.838295,42.659173 299.445731,37.9297813 C290.589458,33.9033829 282.466991,30.2095057 272.613032,30.2095057 M481.796384,679 C460.347937,679 437.419228,675.546478 416.760617,672.43632 C401.961605,670.208066 387.98496,668.104508 377.182115,667.73765 C329.365473,666.118417 284.108112,652.595284 244.182589,640.660663 C231.908519,636.993894 217.51075,635.465019 202.267116,633.847592 C173.489653,630.795264 143.730769,627.638119 124.561457,609.387402 C112.157254,597.579284 105.751819,580.815877 99.5596576,564.601852 C97.1395456,558.269491 94.8549887,552.291338 92.2595586,546.694499 C81.5181651,523.53548 67.6517726,503.846247 52.9702414,483.000418 C50.5808552,479.60834 48.1806246,476.199998 45.780394,472.757318 C22.0022057,438.64317 28.4492107,410.342721 35.2775776,380.379667 C38.3664286,366.814969 41.5619164,352.787633 42.1131742,337.531414 C43.1940009,307.608117 48.3902833,250.703614 71.0243858,205.796982 C83.1791681,181.67835 100.385641,171.0955 118.600644,159.892787 C128.82512,153.601992 139.398425,147.099756 149.465658,137.834341 C163.529057,124.89312 174.272258,108.698975 184.661208,93.0379473 C200.929638,68.5145062 217.751134,43.1561477 247.775706,29.1161614 C272.305774,17.6441788 287.625318,24.6108601 302.438789,31.3516439 C312.086704,35.7394784 321.996692,40.2194792 335.107591,39.9429806 C355.861995,39.4098623 376.654354,35.464787 396.765322,31.6498287 C431.87231,24.9867537 468.170376,18.095974 506.612021,28.5396708 C512.139058,30.0396307 517.648021,31.5540481 523.147947,33.0666583 C543.477611,38.6580751 564.497703,44.4374388 585.573825,49.2156243 C589.609755,50.1282506 594.169831,51.0101547 598.999211,51.9408527 C621.989372,56.3792883 650.602362,61.9020323 664.938679,78.6618254 C681.349895,97.8414334 680.988414,127.517146 680.639585,156.215175 C680.415467,174.608659 680.204001,191.986508 684.196554,206.077095 C686.560636,214.417234 689.047622,222.64352 691.453275,230.600536 C701.368686,263.380986 710.729223,294.352447 711,330.306306 C711.314822,373.720206 696.523039,409.227691 674.216077,449.188069 C666.265313,463.435881 659.62853,479.400514 653.208637,494.839259 C642.270236,521.151808 630.959511,548.362527 612.364953,569.687258 C606.803575,576.061184 600.497548,581.676095 594.397564,587.10848 C586.613081,594.040825 579.260568,600.590047 573.193117,608.66453 C568.367352,615.08725 564.880873,623.024387 561.508259,630.701291 C557.535589,639.74623 553.425555,649.100197 546.982165,656.558431 C532.051212,673.831463 508.03264,679 481.796384,679" id="Fill-3"></path>
                    <path d="M282.606614,47.5362172 C274.166074,47.5362172 265.172827,49.4548573 254.58648,54.9397834 C230.433496,67.4488835 215.512183,88.8718918 199.711233,111.550507 C190.018973,125.463358 179.996171,139.851353 167.715574,151.776912 C158.306893,160.914842 147.996899,167.720414 138.024672,174.301964 C122.386284,184.625043 107.613082,194.37542 97.5523492,212.064126 C78.4875315,245.58071 65.3688418,296.440933 64.1279578,341.637374 C63.8750848,350.876476 63.2356774,359.513969 62.6179448,367.866016 C60.4847805,396.678137 58.6442263,421.562647 75.0303964,451.178719 C79.4773487,459.216412 84.2132986,467.124027 88.7921061,474.769682 C98.2892933,490.626466 108.109797,507.021625 115.630962,525.09695 C117.774964,530.251263 119.72028,535.604305 121.600571,540.78391 C127.635204,557.383219 133.333878,573.06476 145.630731,584.896374 C162.591284,601.219268 188.279568,604.212853 213.122533,607.107073 C226.999842,608.725812 241.348578,610.398751 254.001259,614.396821 C296.294268,627.762264 334.758057,638.883872 377.242526,639.619171 C387.906542,639.803447 399.428519,640.883811 411.627835,642.027407 C450.960423,645.711124 495.549157,649.889857 523.330868,623.643149 C528.491284,618.768864 532.956298,612.369783 537.271395,606.180272 C540.576807,601.441484 543.994204,596.541905 547.767431,592.243935 C553.811095,585.355258 560.570029,579.290404 567.10499,573.426086 C576.181324,565.278188 584.753719,557.583755 591.669795,547.817118 C605.13167,528.811379 612.763016,505.793117 620.143295,483.53364 C626.376614,464.741083 632.821263,445.307174 642.789878,427.931015 C646.127801,422.110056 649.532555,416.43182 652.825323,410.941474 C670.55172,381.381409 685.861374,355.850126 685.775041,319.824134 C685.706038,291.255907 677.115581,267.435502 668.019378,242.216766 C664.408713,232.206234 660.673417,221.852443 657.405937,210.978342 C653.087227,196.61564 653.302169,180.038011 653.509886,164.004178 C653.831396,139.01669 654.13665,115.414887 639.056389,99.2383298 C617.090756,75.674466 566.47642,66.0740388 525.809024,58.3579257 C513.674732,56.0562802 502.214167,53.8829054 492.715173,51.5523538 C460.68339,43.693517 428.810555,48.155891 397.990755,52.4683147 C380.600318,54.9036508 362.61563,57.4220918 344.757377,57.718379 C331.087786,57.9080751 319.999305,55.0102419 309.259427,52.1720276 C300.163225,49.7692108 291.708235,47.5362172 282.606614,47.5362172 M455.510331,652 C440.614305,652 425.441925,650.578183 410.954109,649.221404 C398.89568,648.090455 387.505557,647.022737 377.117896,646.845687 C333.663478,646.094129 294.665043,634.824377 251.824745,621.287305 C239.827728,617.49519 226.450746,615.937876 212.286246,614.286617 C186.254777,611.25148 159.336447,608.115172 140.622039,590.104886 C127.116815,577.109802 120.861821,559.898047 114.812737,543.251766 C112.957733,538.149845 111.041317,532.876295 108.958728,527.873739 C101.641667,510.284397 92.3883213,494.837718 82.5967177,478.484111 C77.985398,470.784258 73.2151296,462.82425 68.7085715,454.678159 C51.2802034,423.177774 53.1948132,397.297811 55.4128707,367.331254 C56.0251846,359.062312 56.657367,350.50973 56.9066276,341.440452 C58.174605,295.147387 71.6653793,242.961097 91.2720677,208.490614 C102.188956,189.298792 118.383665,178.608968 134.045535,168.269629 C143.737796,161.872355 153.760597,155.256479 162.679789,146.593693 C174.465477,135.148697 184.28598,121.05157 193.783168,107.418747 C209.39085,85.0183519 225.525954,61.8555597 251.263006,48.5208301 C275.742918,35.8419068 292.918413,40.3819658 311.103594,45.1857927 C321.372044,47.897543 332.016191,50.7628568 344.638166,50.4918625 C362.052084,50.2028018 379.8128,47.7168801 396.988295,45.3122567 C428.490851,40.9040816 461.059087,36.3441497 494.436516,44.5335996 C503.749467,46.8189854 515.119721,48.9761006 527.156475,51.2596798 C568.857039,59.1691022 620.761027,69.015231 644.341434,94.3098455 C661.399524,112.609192 661.059952,138.783635 660.734829,164.098122 C660.532531,179.584547 660.32662,195.598508 664.323819,208.895298 C667.537113,219.585123 671.236283,229.843163 674.816243,239.763364 C684.129194,265.589127 692.927368,289.987654 693,319.806068 C693.091735,357.842838 676.543004,385.440904 659.018905,414.659517 C655.746006,420.11915 652.359314,425.766673 649.055709,431.526207 C639.450148,448.271852 633.122904,467.355276 627.001572,485.809992 C619.453313,508.569906 611.648568,532.108477 597.565349,551.995851 C590.183263,562.421908 580.902824,570.750468 571.931252,578.804421 C565.551627,584.527822 558.957061,590.448145 553.196975,597.011629 C549.689266,601.006086 546.535578,605.528079 543.195848,610.315646 C538.671228,616.803251 533.993077,623.511265 528.292598,628.896827 C508.826796,647.288311 482.625541,652 455.510331,652" id="Fill-5"></path>
                    <path d="M301.983483,64.2459224 C289.012433,64.2459224 276.023302,66.1783436 262.26032,73.0610138 C239.117103,84.6356748 224.027002,104.315669 208.052757,125.155115 C199.348738,136.507638 190.350004,148.244839 179.986182,158.421655 C171.73237,166.528794 163.022927,173.171266 154.597349,179.593406 C139.478319,191.126529 125.196423,202.018522 115.275576,219.934053 C91.8918864,262.174612 77.6768883,309.898191 77.2538013,347.596658 C76.7674321,390.597544 84.7880034,411.760265 107.616618,449.810902 C116.275436,464.246269 122.289056,481.332845 128.105597,497.857755 C136.578185,521.93175 145.336446,546.823863 162.303317,563.258473 C178.380621,578.829814 203.181833,583.370101 227.169417,587.76049 C238.896519,589.907825 251.025011,592.129206 261.730557,595.632848 C299.443153,607.980478 335.06382,619.641827 377.056103,619.813397 C384.112976,619.842293 391.491685,620.066237 398.624497,620.281151 C432.538351,621.303348 467.600325,622.367083 496.131573,605.08907 C521.269085,589.866287 556.906023,560.787863 574.603353,528.93181 C584.531431,511.063235 590.552284,491.009399 596.372442,471.614753 C603.011652,449.49124 609.878679,426.61643 622.603832,406.441592 C627.026356,399.430696 631.709242,392.681669 636.238442,386.156587 C652.827428,362.255969 668.496109,339.679149 668.767451,308.251118 C668.975246,283.519739 660.200712,265.651164 650.91088,246.729691 C646.708939,238.169246 642.362354,229.314422 638.576268,219.399476 C633.341923,205.682898 632.313135,190.781583 631.3187,176.373306 C629.823431,154.681427 628.411333,134.192345 613.469493,118.570435 C593.352975,97.5341346 559.480706,89.6834478 526.722205,82.0928253 C514.501502,79.2592095 502.958822,76.5845219 492.430466,73.2777339 C458.27614,62.5482814 426.734466,64.2567584 393.339526,66.0645655 C381.393648,66.7111139 369.042764,67.3811403 356.274217,67.4949184 C345.816375,67.5816065 336.027518,66.6713819 326.551455,65.7846354 C318.247018,65.0062489 310.117962,64.2459224 301.983483,64.2459224 M423.114722,628 C414.873567,628 406.608907,627.750772 398.405721,627.501544 C390.992659,627.2776 383.98822,627.066297 377.027174,627.037401 C333.892194,626.860413 297.74719,615.027494 259.47771,602.497459 C249.238644,599.147327 237.885811,597.066813 225.863994,594.867104 C200.818694,590.281667 174.921795,585.540914 157.26786,568.443502 C139.078737,550.824155 130.031186,525.11573 121.281964,500.254319 C115.584755,484.068937 109.695891,467.330919 101.411343,453.525846 C77.8088769,414.180306 69.517096,392.250035 70.0215459,347.515388 C70.4572892,308.675529 85.0103953,259.675107 108.947353,216.439441 C119.600465,197.196499 134.469982,185.858424 150.210986,173.852129 C158.455758,167.563633 166.984395,161.058417 174.916371,153.27094 C184.916772,143.4481 193.760013,131.916783 202.310347,120.762921 C218.082088,100.190762 234.389016,78.9214873 259.022078,66.6027539 C283.266406,54.4772625 304.61964,56.4783117 327.225863,58.591333 C336.522927,59.4618255 346.10205,60.3557961 356.210935,60.270914 C368.81314,60.158942 381.082661,59.4943336 392.948984,58.8513972 C427.012907,57.0074701 459.194636,55.264679 494.598335,66.3860337 C504.864521,69.6097457 516.27702,72.2555373 528.356695,75.054839 C560.574585,82.5208475 597.092051,90.9855746 618.700222,113.578648 C635.448318,131.091441 637.017717,153.857891 638.536491,175.878462 C639.492957,189.759386 640.481968,204.113483 645.334811,216.824119 C649.001564,226.432045 653.274019,235.133358 657.405445,243.549323 C667.082203,263.256407 676.220158,281.872666 676,308.314328 L676,308.316134 C675.708476,341.965547 659.423245,365.430919 642.183356,390.272464 C637.699357,396.734336 633.061673,403.414734 628.724128,410.291986 C616.523313,429.634258 609.800932,452.030477 603.299134,473.689849 C597.368685,493.451112 591.235732,513.886015 580.92796,532.437258 C562.53995,565.530422 525.776588,595.585892 499.881497,611.265594 C476.642452,625.337954 450.007864,628 423.114722,628" id="Fill-7"></path>
                    <path d="M355.408876,78.3204614 C324.35092,78.3204614 294.932535,78.862322 266.398941,93.6388595 C245.131463,104.654885 230.277815,121.960105 214.552017,140.282217 C207.500777,148.498629 200.20938,156.993197 192.314881,164.826694 C186.043702,171.04906 179.911562,176.601324 173.979853,181.971163 C156.990068,197.352778 142.316989,210.637393 131.013338,233.234784 C113.248909,268.748326 91.1381725,312.944279 91.2227966,353.883651 C91.2862395,383.613734 104.379335,403.012342 120.957422,427.569463 C122.764923,430.248061 124.606732,432.975425 126.466597,435.76962 C136.009696,450.112669 141.923348,467.242687 147.640178,483.810977 C155.345079,506.14647 162.625642,527.242908 177.988496,542.284957 C192.782556,556.772502 215.312214,562.606534 237.099732,568.250915 C248.130723,571.10652 259.535493,574.061467 269.560713,578.100134 C308.594424,593.830346 342.62636,601.031673 376.69441,600.767968 C466.356201,600.068968 526.429872,569.759094 555.241543,510.680036 C563.255218,494.247212 568.93774,476.246604 574.430665,458.834818 C581.519824,436.371085 588.847335,413.143329 601.328299,392.592364 C606.907897,383.404215 613.330755,374.82295 619.54054,366.521646 C635.268145,345.504681 650.125404,325.652716 650.759203,297.904036 C651.252158,276.303668 642.418697,262.780635 632.193046,247.124477 C628.789311,241.913584 625.271817,236.529296 621.886138,230.541737 C614.912544,218.212603 611.147669,204.561329 607.503777,191.357994 C602.260038,172.344106 597.305211,154.383235 583.556648,140.318341 C562.836297,119.126174 529.340652,107.546614 499.790452,97.3271238 C493.010066,94.9844799 486.605266,92.7700764 480.413537,90.4743939 C446.486332,77.8905854 412.5826,78.0712055 376.703438,78.2753064 C373.489301,78.2915622 370.267941,78.3096242 367.041164,78.3186552 C364.388597,78.32588 361.737837,78.3222676 359.097911,78.3222676 C357.866427,78.3204614 356.634943,78.3204614 355.408876,78.3204614 M374.881492,608 C340.473971,608 306.091731,600.610828 266.863004,584.802949 C257.271152,580.935871 246.594077,578.172382 235.292231,575.244529 C212.585615,569.363536 189.106161,563.282054 172.934356,547.448888 C156.354463,531.212939 148.452741,508.312106 140.81104,486.169877 C135.242276,470.031463 129.48572,453.343964 120.453633,439.773969 C118.60099,436.992418 116.77182,434.277697 114.971542,431.613549 C98.3880384,407.047397 84.0652648,385.83175 84,353.898101 C83.9117807,311.24645 106.446856,266.199775 124.552561,230.003489 C136.464731,206.19233 152.33318,191.8258 169.133367,176.613968 C175.003682,171.300122 181.072624,165.805656 187.228238,159.697081 C194.916888,152.067684 202.112583,143.683295 209.071732,135.575255 C224.553762,117.536717 240.563055,98.885876 263.076462,87.2232305 C294.300542,71.052305 325.802699,71.043274 359.103328,71.0974601 C361.737837,71.0956539 364.377763,71.0992663 367.024912,71.0938477 C370.242661,71.0848167 373.456798,71.0667547 376.663713,71.0504988 C413.229039,70.8445918 447.762958,70.658553 482.923453,83.7011368 C489.041149,85.9679202 495.408029,88.1696803 502.150495,90.4996807 C532.457282,100.979264 566.808826,112.855041 588.71913,135.266394 C603.773211,150.666072 609.210159,170.375346 614.468343,189.438001 C617.99306,202.216879 621.636952,215.431052 628.171763,226.985326 C631.443683,232.77059 634.897977,238.057343 638.240319,243.172507 C648.670014,259.142944 658.523692,274.228342 657.978372,298.070207 C657.294014,328.130825 641.040952,349.848596 625.322376,370.852918 C619.215515,379.015144 612.900999,387.453719 607.500165,396.342039 C595.47243,416.148849 588.278541,438.953954 581.317586,461.009485 C575.745211,478.670527 569.983238,496.93484 561.734823,513.848115 C531.619439,575.594932 469.382546,607.272101 376.750386,607.992775 C376.129227,608 375.504457,608 374.881492,608" id="Fill-9"></path>
                    <path d="M375.971822,91.2245894 L375.456477,91.2245894 C338.765721,91.2986414 306.968031,97.5750035 278.247945,110.411293 C253.319713,121.553416 235.996888,139.430662 217.654223,158.359086 C213.688778,162.453623 209.587717,166.685426 205.381779,170.875688 C175.84799,200.30144 107.162447,277.402258 107.232914,357.625905 C107.252859,379.471258 119.666344,395.175709 132.808546,411.801295 C137.980078,418.341355 143.327008,425.105377 148.066374,432.425692 C156.138304,444.893527 160.926492,459.113325 165.557364,472.867137 C171.862655,491.593273 177.818958,509.280874 191.344504,522.86852 C206.721676,538.314693 233.564821,546.509183 257.248992,553.737385 C265.825418,556.356298 273.92628,558.828914 281.267686,561.541747 C317.524466,574.946973 348.065438,581.068006 377.375007,580.764574 C456.399997,579.980706 508.200307,551.178074 535.743236,492.711278 C542.064802,479.291603 547.493102,465.198235 552.744196,451.567241 C561.080128,429.92779 569.699951,407.555043 582.167683,387.053464 C587.563436,378.181668 594.029659,369.418241 600.282512,360.945604 C616.256399,339.300734 632.772754,316.91715 633.729306,290.000136 C634.468872,269.177063 623.738846,257.393758 611.31632,243.746509 C607.714329,239.792852 603.991188,235.701928 600.387389,231.219071 C592.731352,221.689837 586.389896,211.145549 580.260003,200.946235 C572.245936,187.618674 563.960635,173.835963 552.840033,162.697452 C507.475207,117.258397 443.035384,91.2245894 375.971822,91.2245894 M375.37149,588 C345.787071,588 315.018262,581.725444 278.756057,568.318412 C271.613556,565.676019 263.60853,563.234108 255.135174,560.647705 C230.6373,553.170254 202.871958,544.694005 186.218178,527.963662 C171.50101,513.180346 164.995005,493.858182 158.702371,475.169975 C154.212541,461.840607 149.57082,448.056091 141.992536,436.348644 C137.439418,429.3137 132.200981,422.688751 127.134326,416.278734 C113.19108,398.641706 100.021755,381.981802 100,357.63313 C99.9277267,274.700262 170.099633,195.822195 200.275343,165.760678 C204.436075,161.61557 208.51363,157.407247 212.457375,153.336191 C231.297303,133.893014 249.093884,115.528108 275.291492,103.818855 C304.95909,90.558121 337.716949,84.0758582 375.442011,84 L375.971822,84 C444.948489,84 511.247171,110.805033 557.962743,157.596892 C569.707184,169.362136 578.223938,183.525944 586.458609,197.225571 C592.46735,207.218985 598.678614,217.550147 606.029061,226.696478 C609.491818,231.005945 613.139014,235.01198 616.666866,238.887972 C629.593889,253.08429 641.803045,266.493128 640.958602,290.256609 C639.920679,319.406021 622.729855,342.70171 606.105006,365.231592 C599.66229,373.960702 593.577602,382.207571 588.348207,390.803026 C576.216805,410.751924 567.716325,432.819432 559.494312,454.160869 C554.196204,467.912875 548.720889,482.132673 542.289022,495.787147 C513.845595,556.164847 458.385432,587.187234 377.445528,587.989163 C376.758401,588 376.062233,588 375.37149,588" id="Fill-11"></path>
                    <path d="M379.276489,109.223086 C378.557356,109.223086 377.84545,109.228505 377.119089,109.237536 C316.417368,109.979855 264.406681,132.887003 218.116537,179.264812 C173.63326,223.829266 127.97552,296.424859 126.242734,358.147549 C125.745845,375.910839 137.398335,391.788529 148.667769,407.142441 C153.470423,413.687856 158.437503,420.45362 162.298779,427.199516 C168.068108,437.28314 172.245586,448.410708 176.282128,459.173437 C182.868161,476.721797 189.085593,493.294847 201.659586,506.098503 C222.543363,527.362073 257.851365,540.259648 283.792565,547.336065 C313.965449,555.568407 348.84703,560.589448 377.097407,560.770061 C377.583454,560.77548 378.073115,560.77548 378.555549,560.77548 C442.301842,560.77548 485.270963,533.865947 513.716482,476.181764 C516.900183,469.724849 519.989926,463.322118 523.054374,456.971764 C536.728749,428.640807 549.642433,401.879378 568.115848,375.61644 C571.256184,371.14988 574.504932,366.746535 577.941595,362.084913 C594.882786,339.116357 612.400369,315.367552 613.710348,288.160008 L617.32047,288.335203 L613.710348,288.160008 C614.733035,266.950622 602.657738,258.432913 587.36983,247.652122 C585.053426,246.015768 582.682816,244.345098 580.29775,242.585927 C563.891391,230.497498 550.121252,215.9726 536.806444,201.922714 C531.647837,196.48265 526.317577,190.858361 520.880712,185.421909 C476.319741,140.86468 439.936652,109.223086 379.276489,109.223086 M378.495922,568 C378.013489,568 377.536475,568 377.052235,567.994582 C328.523382,567.685733 236.595373,551.983238 196.504592,511.161086 C182.85732,497.264721 176.074339,479.190777 169.515409,461.709243 C165.576437,451.215628 161.507371,440.364398 156.023528,430.78649 C152.368234,424.398208 147.739039,418.093008 142.840621,411.415745 C130.850247,395.081104 118.449713,378.186563 119.018877,357.947069 C120.805869,294.241248 167.507979,219.738381 212.999487,174.162494 C260.689954,126.381322 314.344891,102.78062 377.030553,102.013015 C441.676666,101.234573 481.140464,135.466157 525.990534,180.314173 C531.49606,185.819258 536.862457,191.47967 542.051781,196.95405 C555.753259,211.408509 568.695853,225.062853 584.585447,236.770188 C586.930762,238.498655 589.259814,240.142233 591.538274,241.747883 C607.277899,252.848358 622.143,263.33475 620.930591,288.510397 C619.514007,317.896134 600.518407,343.649743 583.759709,366.372666 C580.346536,370.999971 577.123084,375.370806 574.026112,379.772345 C555.896002,405.549434 543.105185,432.052587 529.564518,460.110818 C526.492843,466.479233 523.392258,472.898219 520.199523,479.373196 C490.799978,538.995357 444.433946,568 378.495922,568" id="Fill-13"></path>
                    <path d="M377.961001,128.236617 C377.70813,128.236617 377.457066,128.236617 377.202389,128.236617 C323.736537,128.522459 264.954986,155.939824 219.956682,201.575128 C176.555075,245.594878 151.869497,299.535898 152.225063,349.56196 C152.342726,365.276063 160.181711,381.469585 167.760601,397.129415 C171.347749,404.54142 175.057721,412.204895 177.888064,419.712784 C180.454699,426.522349 182.629386,433.587002 184.733629,440.420086 C190.686923,459.754258 196.309679,478.017425 210.329541,492.220905 C227.08763,509.19778 271.056389,538.073304 377.272832,540.72187 C425.952207,541.879713 460.35885,518.16021 492.166345,461.219653 C505.483588,437.386175 521.954488,409.321141 543.164903,381.873021 C545.135487,379.325766 547.16387,376.733283 549.222958,374.09919 C568.408603,349.585479 590.153659,321.797242 592.651658,292.737187 C594.396465,272.433322 576.838222,263.49622 559.859774,254.852197 C558.600841,254.211765 557.352744,253.57676 556.126322,252.943564 C530.786893,239.856318 510.407338,225.144473 491.991141,206.642501 C482.831811,197.441266 475.066881,188.297923 467.556627,179.456705 C443.272029,150.857978 424.059291,128.236617 377.961001,128.236617 M380.686583,548 C379.496286,548 378.298764,547.985527 377.094016,547.954772 C268.345256,545.244695 222.714777,515.059361 205.194464,497.309987 C189.926505,481.843735 183.776334,461.869131 177.830265,442.551241 C175.758533,435.826705 173.616359,428.868791 171.129197,422.269085 C168.412645,415.066938 164.939289,407.888311 161.258217,400.286346 C153.330727,383.902865 145.130498,366.962172 145,349.614425 C144.630176,297.679731 170.076172,241.868071 214.817993,196.491473 C261.823004,148.81547 320.996505,121.300412 377.164459,121 C427.252684,120.748628 448.441425,145.774323 473.060173,174.76744 C480.480116,183.501919 488.149316,192.533096 497.10635,201.533518 C514.978875,219.485515 534.784053,233.779451 559.438926,246.512107 C560.652704,247.139875 561.886351,247.765834 563.132641,248.400839 C580.454269,257.218539 602.011479,268.192721 599.849436,293.357719 C597.165396,324.565211 574.717722,353.254394 554.910738,378.564123 C552.858874,381.185552 550.839523,383.767181 548.879777,386.301772 C527.958356,413.375402 511.659047,441.152783 498.471851,464.752884 C483.012433,492.427145 467.711962,511.549649 450.323504,524.933593 C430.180563,540.437837 407.366226,548 380.686583,548" id="Fill-15"></path>
                    <path d="M376.531606,148.233239 C328.882726,148.233239 279.423434,170.350677 240.710978,209.003299 C204.063692,245.590831 183.112061,291.411594 183.22722,334.716997 C183.325263,372.452806 190.859611,451.479562 218.673461,480.474001 C254.906991,518.24236 337.64389,519.934938 377.40429,520.746869 C421.860558,521.694424 443.307251,490.06166 466.018704,456.613353 C468.040511,453.635067 470.071352,450.645931 472.122068,447.669453 C481.343965,434.295194 493.977098,420.143361 507.352824,405.161514 C535.762918,373.338878 567.961867,337.272139 570.704587,302.704489 C572.422852,281.064445 539.260879,265.411715 510.003397,251.598037 C492.486489,243.330444 475.941639,235.520354 467.379223,226.750051 C456.934123,216.053899 449.538898,204.343284 442.387591,193.021457 C427.273725,169.088476 414.217801,148.421303 377.31395,148.233239 C377.051964,148.233239 376.791785,148.233239 376.531606,148.233239 M379.267099,528 C378.60039,528 377.931875,527.992767 377.256132,527.980109 C336.523675,527.146478 251.764969,525.412309 213.460849,485.48302 C200.24412,471.707315 190.163994,447.155893 183.498715,412.510485 C176.634689,376.827108 176.023992,343.95746 176,334.73508 C175.879448,289.516485 197.606195,241.822314 235.606773,203.882165 C275.663488,163.887777 326.985588,141 376.531606,141 C376.80624,141 377.075452,141 377.348279,141 C418.212632,141.207956 432.923582,164.498986 448.496375,189.157099 C455.448935,200.162472 462.636378,211.543974 472.550279,221.695825 C480.202069,229.53304 496.175971,237.073692 513.085795,245.05738 C544.460844,259.867437 580.024051,276.655786 577.910098,303.275914 C574.974051,340.273933 541.911452,377.308118 512.742503,409.98066 C499.522161,424.790717 487.035379,438.777994 478.071854,451.776125 C476.028365,454.739944 474.008365,457.714614 471.995592,460.678434 C449.519023,493.783162 426.283599,528 379.267099,528" id="Fill-17"></path>
                    <path d="M377.485598,168.226795 C377.283061,168.226795 377.078717,168.226795 376.876181,168.230409 C337.435884,168.586328 297.109491,184.427464 266.239005,211.692356 C233.784397,240.35744 215.798464,277.774173 215.597736,317.051806 C215.552527,325.803455 214.881626,336.616548 214.17275,348.063792 C211.662748,388.616954 208.221442,444.15849 229.285201,467.929226 C259.385327,501.900585 338.701735,501.062276 376.803846,500.662996 C408.891358,500.323337 421.994723,480.789309 437.168659,458.167632 C442.572033,450.111562 448.159861,441.782681 454.885146,433.950641 C463.26327,424.190854 474.381058,414.190776 486.151663,403.603521 C514.861161,377.782181 547.400762,348.515466 547.766074,314.699484 C548.028262,290.189808 519.702136,278.984661 492.309123,268.148082 C474.310532,261.027881 457.310154,254.305155 447.52151,243.844369 C438.405576,234.104455 432.602554,221.965246 426.989409,210.225317 C416.220635,187.701202 406.909397,168.226795 377.485598,168.226795 M360.365869,508 C316.607212,508 252.305603,504.81479 223.870976,472.718785 C200.818023,446.704128 204.221353,391.764223 206.953783,347.617537 C207.657234,336.275082 208.319093,325.561357 208.364302,317.015672 C208.57588,275.651302 227.429825,236.323081 261.448664,206.27768 C293.604893,177.878181 335.652842,161.375793 376.809272,161.003613 C377.035316,161 377.261361,161 377.485598,161 C411.473694,161 422.676474,184.438304 433.515775,207.108761 C438.893832,218.355461 444.452726,229.983375 452.803725,238.906661 C461.483846,248.182253 477.75003,254.615907 494.971027,261.428969 C523.255561,272.617855 555.314138,285.299074 555,314.777172 C554.599837,351.763911 520.807043,382.158005 490.99083,408.974836 C479.397444,419.401295 468.449642,429.249611 460.375322,438.655285 C453.928524,446.162119 448.463665,454.31033 443.177833,462.191151 C427.544575,485.495759 412.779329,507.510385 376.881606,507.889791 C371.847136,507.942186 366.295476,508 360.365869,508" id="Fill-19"></path>
                    <path d="M378.216005,188.221683 C377.72153,188.221683 377.219835,188.230706 376.710923,188.250559 C345.27021,189.461547 313.277273,201.248382 288.927053,220.589908 C262.212734,241.810181 247.551711,270.2639 247.645553,300.70826 C247.685255,312.962526 245.021583,329.035646 242.202711,346.054457 C235.86476,384.307979 228.68223,427.668948 246.149493,451.433921 C268.341345,481.618397 327.297644,481.062534 366.312496,480.696169 C369.929026,480.660074 373.365091,480.629393 376.56655,480.623979 C401.275897,480.584274 412.663274,463.242413 424.71657,444.882672 C430.168435,436.577204 435.80618,427.990194 442.835314,420.763967 C451.064544,412.299681 461.228365,404.425548 471.989528,396.08579 C497.7943,376.090943 524.47794,355.415705 524.780952,325.599399 C525.008509,303.094142 501.100429,292.05267 475.786523,280.365097 C460.788029,273.436654 445.277013,266.273594 435.75204,256.399796 C427.901788,248.265779 422.597904,236.94457 417.467268,225.99875 C408.368194,206.583229 399.763595,188.221683 378.216005,188.221683 M352.082786,488 C312.652862,488 261.985347,485.15932 240.334892,455.709379 C221.062974,429.491748 228.510788,384.535377 235.081539,344.874149 C237.849881,328.163951 240.464827,312.381396 240.42693,300.729917 C240.327674,268.031422 255.955992,237.561795 284.438874,214.937425 C309.96212,194.661037 343.492624,182.305706 376.433006,181.03877 C403.928741,179.954114 414.108804,201.816879 424.003731,222.934281 C428.88352,233.3477 433.929338,244.114849 440.947644,251.388 C449.532391,260.287231 463.754883,266.854724 478.812931,273.810238 C505.097742,285.947194 532.272248,298.499244 532,325.673393 C531.66047,358.98009 502.309549,381.725379 476.410934,401.792415 C465.855503,409.971551 455.88478,417.695889 448.009262,425.79742 C441.463776,432.52734 436.017324,440.823785 430.749534,448.844102 C418.178302,467.99613 405.175758,487.797868 376.577378,487.842987 C373.392161,487.848401 369.979557,487.879082 366.379268,487.913372 C361.849582,487.956686 357.051003,488 352.082786,488" id="Fill-21"></path>
                    <path d="M379.125304,208.243824 C378.478154,208.243824 377.820159,208.269157 377.14951,208.318013 C348.524908,210.456842 324.101352,218.255787 306.518055,230.87343 C286.425699,245.291525 276.078542,265.275642 275.765814,290.272074 C275.610353,302.699719 272.130571,318.69027 268.444713,335.618142 C261.00792,369.785119 252.576903,408.513846 267.437835,432.410102 C286.062355,462.357326 332.790867,461.970093 366.930699,461.707715 C370.394212,461.680573 373.714919,461.667906 376.889204,461.658859 L376.963319,461.658859 C397.484095,461.660668 408.870667,446.138778 420.926081,429.706709 C425.67847,423.22689 430.595357,416.526312 436.081664,410.949433 C442.905654,404.01362 451.376439,397.528372 460.344336,390.664939 C481.765337,374.265441 503.916639,357.308617 503.76915,333.497408 C503.641872,312.908918 482.186526,300.347369 461.437982,288.202006 C449.436799,281.173908 438.099034,274.536663 430.255514,266.287152 C424.378748,260.10771 419.736628,251.521633 414.823355,242.430706 C405.732536,225.615023 396.339834,208.243824 379.125304,208.243824 M356.410005,469 C322.046021,469 280.087975,466.443177 261.297148,436.233575 C244.887035,409.843829 253.650665,369.591503 261.380302,334.076448 C264.984814,317.517714 268.388675,301.876397 268.535097,290.179789 C269.1714,239.41065 309.573033,206.106804 376.612629,201.101727 C399.781655,199.35556 411.144728,220.418139 421.182771,238.985418 C425.861045,247.640256 430.280821,255.815576 435.492361,261.296552 C442.632694,268.805976 453.540231,275.191702 465.089495,281.951993 C487.584257,295.123343 510.843667,308.745259 511,333.450361 C511.169049,360.869713 486.499649,379.751845 464.736997,396.41372 C455.976983,403.119727 447.703235,409.454786 441.231743,416.028699 C436.112395,421.232821 431.566081,427.430358 426.754039,433.989796 C414.163552,451.151093 401.142838,468.895049 376.965127,468.896859 C376.661437,468.898668 376.325208,468.896859 375.999826,468.896859 C373.123808,468.896859 370.110407,468.920382 366.988544,468.943906 C363.57203,468.972858 360.030787,469 356.410005,469" id="Fill-23"></path>
                    <path d="M377.878409,228.232996 C377.59764,228.232996 377.313248,228.238421 377.027045,228.249269 C358.172048,229.014101 296.670955,235.611906 296.88289,288.417852 C296.93361,301.485086 293.769072,316.268219 290.419769,331.924671 C284.366027,360.208986 278.105784,389.458833 289.610067,412.506852 C304.806011,442.948245 348.140443,442.141827 376.813298,441.610241 C395.233557,441.2667 407.692455,427.192347 419.738351,413.582679 C423.058671,409.832652 426.491299,405.956058 429.989137,402.435661 C434.802061,397.589918 440.364911,392.774912 446.255625,387.679649 C463.887919,372.420982 483.873238,355.129996 483.754219,334.951453 C483.655869,317.84851 465.875039,305.432197 448.681107,293.424517 C440.230866,287.522836 432.24978,281.950231 426.154376,275.777333 C420.984603,270.539229 416.242324,263.594266 411.654015,256.877126 C402.033601,242.790116 392.090755,228.232996 377.878409,228.232996 M363.908793,449 C334.580205,449 298.047629,445.624253 283.125209,415.730717 C270.490604,390.420749 277.312385,358.540097 283.335333,330.413089 C286.599499,315.148997 289.686147,300.734719 289.637239,288.446782 C289.476023,248.445894 322.036171,223.238988 376.733596,221.024049 C395.400207,220.26645 407.225111,237.550204 417.640735,252.803446 C422.250781,259.551325 426.603606,265.926732 431.316903,270.698343 C436.944963,276.40294 444.663393,281.791117 452.834677,287.497522 C470.666226,299.951806 490.876161,314.069554 491,334.909866 C491.137004,358.415338 469.814862,376.865325 451.001527,393.143768 C445.217686,398.148625 439.752653,402.876841 435.131738,407.527308 C431.782436,410.899439 428.568989,414.528322 425.168967,418.370563 C412.085131,433.153696 398.553877,448.439485 376.947343,448.842694 C372.849927,448.918635 368.464496,449 363.908793,449" id="Fill-25"></path>
                    <path d="M374.096532,253.221742 C374.009573,253.221742 373.924426,253.221742 373.839279,253.223547 C356.675824,253.436589 332.311109,260.022818 319.376016,273.971612 C312.739987,281.128359 309.696436,289.565159 310.328697,299.049112 C310.913856,307.803668 310.77436,317.710093 310.625806,328.196063 C310.17652,359.933814 309.66745,395.905311 329.055596,414.264784 C339.153664,423.826371 353.71742,427.847076 373.558475,426.552579 C404.749441,424.523269 460.979051,368.652262 460.753279,339.913339 C460.636652,324.928224 445.331937,311.894785 431.831613,300.395967 C427.210125,296.460117 422.847702,292.744531 419.153772,289.041583 C415.767822,285.647364 412.361943,281.778316 409.072009,278.037453 C398.332621,265.83632 387.230905,253.221742 374.096532,253.221742 M366.822807,434 C348.601355,434 334.240503,429.136157 324.064534,419.500547 C302.375608,398.965524 302.908229,361.313166 303.379255,328.094958 C303.525998,317.757034 303.663682,307.993239 303.100263,299.527552 C302.328505,287.989014 306.015188,277.739556 314.053424,269.069855 C328.519351,253.469087 354.458379,246.243734 373.748697,246 C373.870077,246 373.991457,246 374.112837,246 C390.515404,246 402.716784,259.865745 414.517792,273.27652 C417.885626,277.104043 421.066862,280.716719 424.291577,283.950254 C427.778979,287.443772 432.032705,291.069087 436.540059,294.905637 C451.216136,307.408278 467.854216,321.579141 468,339.855565 C468.258212,372.656718 409.41622,431.456141 374.029501,433.759877 C371.565674,433.920561 369.161631,434 366.822807,434" id="Fill-27"></path>
                    <path d="M369.38165,280.215173 C369.193199,280.215173 369.006559,280.218782 368.819919,280.224196 C335.212077,281.287097 318.539529,293.484298 319.271591,316.478341 C319.380313,319.923297 319.438299,323.611872 319.499908,327.468274 C319.913052,353.889227 320.429483,386.772405 337.663762,403.320465 C345.267068,410.621822 355.407224,414.050537 368.629655,413.765412 C394.298965,413.236668 435.941377,375.863679 435.751763,347.019166 C435.67682,335.671925 424.762924,317.635081 408.595934,302.135487 C394.42762,288.555972 379.48013,280.215173 369.38165,280.215173 M367.230763,421 C352.895742,421 341.260655,416.802531 332.633549,408.517674 C313.230261,389.883512 312.688462,355.33831 312.251762,327.580158 C312.191964,323.765262 312.133979,320.114584 312.027069,316.707524 C311.420037,297.607779 320.741153,274.521702 368.58979,273.009458 C380.717751,272.668391 397.593248,281.568613 413.622523,296.936473 C427.105887,309.862727 442.890537,330.723748 443,346.972247 C443.20402,378.128435 400.894778,420.321475 368.780054,420.983759 C368.261812,420.994586 367.745381,421 367.230763,421" id="Fill-29"></path>
                    <path d="M358.81173,308.263282 C348.314903,308.263282 338.865404,311.543531 333.050745,317.312996 C328.098591,322.229742 325.829987,328.728555 326.310163,336.631633 C328.971968,380.501341 341.094145,402.742811 362.334228,402.742811 C362.426639,402.742811 362.517238,402.742811 362.60965,402.740997 C383.18111,402.557753 409.737556,379.648621 409.752058,355.567454 C409.764736,335.818828 387.912202,310.170108 362.390399,308.388468 C361.187242,308.30501 359.991332,308.263282 358.81173,308.263282 M362.337852,410 C344.538727,410 322.729681,397.25819 319.074908,337.070693 C318.469705,327.133787 321.541019,318.519504 327.950009,312.158578 C335.997032,304.172041 348.729848,300.153373 362.894131,301.149422 C375.125027,302.002142 388.751151,308.584412 399.344013,318.755363 C410.572881,329.539545 417.00905,342.958088 417,355.571082 C416.983683,384.115421 386.607573,409.784099 362.673069,409.998186 C362.562538,409.998186 362.450195,410 362.337852,410" id="Fill-31"></path>
                </g>
            </g>
        </g>
    </g>
</svg>