<?xml version="1.0" encoding="UTF-8" standalone="no"?>
<svg
   viewBox="0 0 8642.6767 2831.5263"
   fill="currentColor"
   class="nav_logo_svg"
   version="1.1"
   id="svg7"
   sodipodi:docname="kpler-orange.svg"
   width="8642.6768"
   height="2831.5264"
   inkscape:version="1.4.4 (1:1.4.4+202605061436+dcaf3e7d9e)"
   xmlns:inkscape="http://www.inkscape.org/namespaces/inkscape"
   xmlns:sodipodi="http://sodipodi.sourceforge.net/DTD/sodipodi-0.dtd"
   xmlns="http://www.w3.org/2000/svg"
   xmlns:svg="http://www.w3.org/2000/svg">
  <defs
     id="defs7" />
  <sodipodi:namedview
     id="namedview7"
     pagecolor="#ffffff"
     bordercolor="#666666"
     borderopacity="1.0"
     inkscape:showpageshadow="2"
     inkscape:pageopacity="0.0"
     inkscape:pagecheckerboard="0"
     inkscape:deskcolor="#d1d1d1"
     inkscape:zoom="0.04"
     inkscape:cx="5187.5"
     inkscape:cy="4912.5"
     inkscape:window-width="1920"
     inkscape:window-height="1011"
     inkscape:window-x="0"
     inkscape:window-y="0"
     inkscape:window-maximized="1"
     inkscape:current-layer="svg7">
    <inkscape:page
       x="0"
       y="0"
       width="8642.6768"
       height="2831.5264"
       id="page2"
       margin="0"
       bleed="0" />
  </sodipodi:namedview>
  <g
     id="g7"
     style="fill:#ff5349;fill-opacity:1;stroke-width:0.0254562"
     transform="matrix(39.28311,0,0,39.28311,-1.0796901e-4,-7.6071457e-5)"
     inkscape:export-filename="kpler-orange.svg"
     inkscape:export-xdpi="400"
     inkscape:export-ydpi="400">
    <path
       d="M 220,15.22 C 216.47,13.18 212.37,12 208,12 c -4.37,0 -8.47,1.17 -12,3.22 V 12 h -12 v 48.06 h 12 V 36.03 c 0,-1.45 0.25,-2.83 0.72,-4.12 1.68,-4.61 6.09,-7.9 11.28,-7.9 0.99,0 1.95,0.12 2.87,0.35 l 9.14,-9.15 z"
       fill-rule="evenodd"
       id="path1-6"
       style="fill:#ff5349;fill-opacity:1;stroke-width:0.0254562" />
    <path
       d="M 31.98,12.02 15.69,27.56 c -4.92,4.69 -4.92,12.3 0,16.99 L 31.98,60.08 H 48 L 27.14,40.19 c -2.4,-2.29 -2.4,-5.99 0,-8.28 L 48,12.02 Z"
       id="path2-7"
       style="fill:#ff5349;fill-opacity:1;stroke-width:0.0254562" />
    <path
       d="M 0,60.08 V 0 h 12 v 60.08 z"
       id="path3-5"
       style="fill:#ff5349;fill-opacity:1;stroke-width:0.0254562" />
    <path
       d="M 55,72.08 V 12 h 12 v 60.08 z"
       id="path4-3"
       style="fill:#ff5349;fill-opacity:1;stroke-width:0.0254562" />
    <path
       d="M 79,12 C 65.74,12 55,22.76 55,36.03 55,49.3 65.75,60.06 79,60.06 92.25,60.06 103,49.3 103,36.03 103,22.76 92.25,12 79,12 Z m 0,12.02 c -6.63,0 -12,5.38 -12,12.02 0,6.64 5.37,12.02 12,12.02 6.63,0 12,-5.38 12,-12.02 C 91,29.4 85.63,24.02 79,24.02 Z"
       fill-rule="evenodd"
       id="path5-5"
       style="fill:#ff5349;fill-opacity:1;stroke-width:0.0254562" />
    <path
       d="M 110,60.08 V 0 h 12 v 60.08 z"
       id="path6-6"
       style="fill:#ff5349;fill-opacity:1;stroke-width:0.0254562" />
    <path
       d="m 153,12 c -13.26,0 -24,10.76 -24,24.03 0,13.27 10.75,24.03 24,24.03 5.41,0 10.39,-1.79 14.41,-4.81 l -8.27,-8.28 c 0,0 0,0 0,0 -1.86,1.11 -3.97,1.76 -6.14,1.76 -5.07,0 -9.81,-3.55 -11.76,-8.2 h 23.51 c 0,0 11.82,0 11.82,0 v 0 c 0.02,-0.13 0.05,-0.26 0.07,-0.39 0.23,-1.34 0.35,-2.72 0.35,-4.12 0,-13.27 -10.75,-24.03 -24,-24.03 z m 0,11.33 c -5.07,0 -9.81,3.55 -11.76,8.2 h 23.51 c -1.94,-4.64 -6.68,-8.2 -11.76,-8.2 z"
       fill-rule="evenodd"
       id="path7-2"
       style="fill:#ff5349;fill-opacity:1;stroke-width:0.0254562" />
  </g>
</svg>
