<?xml version="1.0" encoding="UTF-8" standalone="no"?>
<!-- Created with Inkscape (http://www.inkscape.org/) -->

<svg
   width="70mm"
   height="70mm"
   viewBox="0 0 70 70"
   version="1.1"
   id="svg5018"
   xml:space="preserve"
   inkscape:version="1.2 (1:1.2+202206011327+fc4e4096c5)"
   sodipodi:docname="fistbump_yellow.svg"
   inkscape:export-filename="fistbump_yellow.png"
   inkscape:export-xdpi="400"
   inkscape:export-ydpi="400"
   xmlns:inkscape="http://www.inkscape.org/namespaces/inkscape"
   xmlns:sodipodi="http://sodipodi.sourceforge.net/DTD/sodipodi-0.dtd"
   xmlns="http://www.w3.org/2000/svg"
   xmlns:svg="http://www.w3.org/2000/svg"><sodipodi:namedview
     id="namedview5020"
     pagecolor="#ffffff"
     bordercolor="#000000"
     borderopacity="0.25"
     inkscape:showpageshadow="2"
     inkscape:pageopacity="0.0"
     inkscape:pagecheckerboard="0"
     inkscape:deskcolor="#d1d1d1"
     inkscape:document-units="mm"
     showgrid="false"
     inkscape:zoom="2.2565551"
     inkscape:cx="100.81739"
     inkscape:cy="104.80577"
     inkscape:window-width="1848"
     inkscape:window-height="1136"
     inkscape:window-x="72"
     inkscape:window-y="27"
     inkscape:window-maximized="1"
     inkscape:current-layer="layer1" /><defs
     id="defs5015" /><g
     inkscape:label="Layer 1"
     inkscape:groupmode="layer"
     id="layer1"
     transform="translate(-25.136399,-149.6846)"><circle
       style="fill:#ffcc00;fill-opacity:1;stroke:#000000;stroke-width:0;stroke-linejoin:bevel;paint-order:fill markers stroke;stroke-dasharray:none"
       id="path5074-1"
       cx="60.136398"
       cy="184.6846"
       r="34.904667" /><text
       xml:space="preserve"
       style="font-weight:bold;font-size:7.76111px;font-family:sans-serif;-inkscape-font-specification:'sans-serif Bold';letter-spacing:0.05291667px;fill:#000000;fill-opacity:1;stroke:#ffffff;stroke-width:0.2;stroke-linejoin:bevel;stroke-dasharray:none;stroke-opacity:1;paint-order:fill markers stroke"
       x="60.586296"
       y="166.78128"
       id="text5862-7"><tspan
         sodipodi:role="line"
         style="font-style:normal;font-variant:normal;font-weight:normal;font-stretch:normal;font-size:7.76111px;font-family:'Bree Serif';-inkscape-font-specification:'Bree Serif';text-align:center;text-anchor:middle;fill:#000000;stroke:#ffffff;stroke-width:0.2;stroke-dasharray:none;stroke-opacity:1"
         x="60.586296"
         y="166.78128"
         id="tspan5916-5"
         dy="1.5 0 0 0 0 0 -0.050000001">Elbow bumps</tspan><tspan
         sodipodi:role="line"
         style="font-style:normal;font-variant:normal;font-weight:normal;font-stretch:normal;font-size:7.76111px;font-family:'Bree Serif';-inkscape-font-specification:'Bree Serif';text-align:center;text-anchor:middle;fill:#000000;stroke:#ffffff;stroke-width:0.2;stroke-dasharray:none;stroke-opacity:1"
         x="60.600849"
         y="176.74121"
         id="tspan539">only</tspan></text><text
       xml:space="preserve"
       style="font-weight:bold;font-size:7.05556px;font-family:sans-serif;-inkscape-font-specification:'sans-serif Bold';fill:#000000;fill-opacity:1;stroke:#000000;stroke-width:0.264999;stroke-linejoin:bevel;paint-order:fill markers stroke"
       x="163.33327"
       y="153.81293"
       id="text6261"><tspan
         sodipodi:role="line"
         id="tspan6259"
         style="stroke-width:0.265"
         x="163.33327"
         y="153.81293" /></text><path
       style="fill:#000000;stroke-width:0.171439"
       d="m 40.530847,213.48791 -0.40133,-0.26474 0.320859,-0.0682 c 0.227942,-0.0484 0.351621,-0.0808 0.931074,-0.21174 8.955307,-2.02293 17.018427,-5.49919 19.482792,-8.60019 0.615157,-0.77408 0.655327,-1.88281 0.13023,-3.59522 -1.024284,-3.34035 -5.831357,-10.64231 -8.878519,-13.48648 l -0.883614,-0.82475 -0.981984,0.55328 c -3.808039,2.14559 -5.5791,3.81143 -5.176333,4.86878 0.0716,0.18809 0.831837,1.11123 1.689291,2.0514 1.502561,1.64752 2.076448,2.49647 2.076448,3.07166 0,0.14949 0.25074,0.37862 0.557187,0.50917 0.578187,0.24632 1.524961,1.13875 1.208094,1.13875 -0.0992,0 -0.28061,-0.12081 -0.403147,-0.26846 -0.758377,-0.9138 -2.416678,-0.9687 -4.190886,-0.13874 -0.859937,0.40227 -1.337914,0.49774 -2.914475,0.58217 -1.834171,0.0982 -1.930089,0.12375 -3.500869,0.93225 -1.509011,0.77671 -1.728463,0.83959 -3.343085,0.95786 -0.950429,0.0696 -2.525383,0.29849 -3.499897,0.50861 -1.303963,0.28114 -1.915127,0.34051 -2.314439,0.22482 -0.477372,-0.1383 -0.274703,-0.20442 1.686124,-0.55015 1.225794,-0.21613 3.077343,-0.49418 4.114553,-0.61788 1.703037,-0.20312 2.040028,-0.30515 3.476513,-1.05259 1.554089,-0.80862 1.634942,-0.83007 3.51453,-0.93208 1.594971,-0.0866 2.085038,-0.18215 2.866762,-0.55919 0.518607,-0.25013 1.232224,-0.45554 1.585821,-0.45646 1.227914,-0.003 0.882797,-0.68102 -1.971558,-3.87219 -0.730767,-0.817 -1.325921,-1.61116 -1.322581,-1.7648 0.003,-0.15365 0.116327,-0.47223 0.251087,-0.70795 0.32599,-0.57027 0.32457,-0.57935 -0.18669,-1.18693 -0.539207,-0.64082 -0.841654,-0.65293 -2.470635,-0.0989 -0.693072,0.23573 -1.574241,0.42861 -1.958151,0.42861 -1.022055,0 -3.350821,-0.82515 -3.911696,-1.38603 -0.42619,-0.42619 -0.473439,-0.59243 -0.473439,-1.66571 0,-0.90032 -0.06948,-1.24989 -0.283717,-1.42757 -0.356041,-0.29527 -0.744922,-1.20864 -0.744922,-1.74962 0,-0.22604 0.166474,-0.62262 0.369941,-0.88128 0.203466,-0.25867 0.531341,-0.78948 0.728619,-1.17958 0.270103,-0.53412 0.529145,-0.77296 1.04901,-0.96719 0.37968,-0.14186 0.859896,-0.42955 1.067134,-0.63931 0.207244,-0.20976 0.590927,-0.43365 0.852626,-0.49753 0.261711,-0.0639 0.690254,-0.29423 0.952334,-0.51186 0.570899,-0.47408 1.435973,-0.66219 2.299932,-0.50011 1.995817,0.37442 5.091322,2.85326 6.665643,5.33778 1.166601,1.84106 1.599371,2.30699 2.040108,2.19637 1.345561,-0.33771 4.626353,3.31646 8.434532,9.39445 l 1.043464,1.66543 0.610337,-0.97967 c 0.766624,-1.23054 2.156688,-2.96726 3.606369,-4.50576 0.802814,-0.852 1.240684,-1.1885 1.546551,-1.1885 0.270427,0 0.464987,-0.12074 0.531327,-0.32974 0.0575,-0.18136 0.481157,-0.57136 0.941344,-0.86665 0.932534,-0.59841 1.809271,-1.51653 2.834095,-2.96792 0.852184,-1.20688 1.580491,-1.64847 2.230408,-1.35236 0.249137,0.11352 0.526267,0.16111 0.615834,0.10575 0.0896,-0.0553 0.42262,-0.61566 0.740107,-1.24512 0.866304,-1.71759 2.637685,-3.97034 3.580119,-4.553 1.147684,-0.70956 1.442944,-0.68367 3.899199,0.34188 0.522717,0.21825 1.434011,0.50964 2.025108,0.64753 1.252574,0.29221 1.836691,0.63069 2.005338,1.16205 0.0665,0.20941 0.27253,0.50356 0.457917,0.65369 0.623057,0.50452 0.885177,3.50351 0.38994,4.46121 -0.31404,0.60729 -1.445724,1.40761 -2.680415,1.89556 -0.809357,0.31986 -1.194764,0.35644 -3.215492,0.30522 l -2.295908,-0.0582 -0.339747,0.45504 c -0.3174,0.42512 -0.32144,0.48119 -0.0614,0.85249 0.15311,0.21859 0.278377,0.48248 0.278377,0.58643 0,0.10394 -0.597894,0.61709 -1.328651,1.14032 -0.730757,0.52323 -1.656521,1.26956 -2.057268,1.65851 -0.621917,0.60362 -0.728607,0.80931 -0.728607,1.40468 0,0.83052 -0.551097,0.93739 4.595756,-0.89122 5.827377,-2.07038 5.797787,-2.06479 11.412174,-2.16059 3.464019,-0.0591 4.746473,-0.0294 4.661583,0.10793 -0.0779,0.12601 -1.075704,0.18997 -2.978582,0.19095 -5.58267,0.003 -7.514548,0.32424 -12.289211,2.04434 -1.509421,0.54379 -3.654829,1.27786 -4.767533,1.63128 -1.841061,0.58475 -2.060378,0.69892 -2.437175,1.26864 -0.22774,0.34434 -0.500777,0.87507 -0.606767,1.17943 -0.16652,0.47815 -0.14401,0.61528 0.165607,1.0089 0.38354,0.48759 0.504847,1.84145 0.18283,2.04047 -0.11439,0.0707 -0.13931,-0.11973 -0.0716,-0.54706 0.0829,-0.52287 0.0192,-0.77986 -0.314357,-1.26996 l -0.418267,-0.61444 0.329937,-0.88446 c 0.18255,-0.48936 0.697587,-1.28707 1.152944,-1.78572 0.452657,-0.49569 0.876924,-1.14751 0.942814,-1.4485 0.19668,-0.89835 1.034864,-1.86736 2.508425,-2.89992 1.502051,-1.05252 1.715231,-1.3287 1.326014,-1.71792 -0.22234,-0.22234 -0.28009,-0.21919 -0.483877,0.0264 -0.19502,0.23498 -0.1927,0.30332 0.0147,0.43458 0.193357,0.12234 0.169287,0.15631 -0.11222,0.15837 -1.100054,0.008 -4.051386,-2.15657 -4.715653,-3.45865 -0.425167,-0.83341 -0.379197,-1.57257 0.10229,-1.64445 0.332877,-0.0497 0.333507,-0.0437 0.0214,0.2046 -0.20478,0.16291 -0.28008,0.36378 -0.20738,0.55322 0.10191,0.26559 0.16156,0.25002 0.556957,-0.14538 0.511117,-0.51112 0.412277,-0.82134 -0.2617,-0.82134 -0.520037,0 -1.046644,0.49564 -2.209285,2.07935 -0.38964,0.53076 -1.072014,1.26366 -1.516414,1.62869 -0.444387,0.36501 -1.060954,0.9144 -1.370131,1.22085 -0.309177,0.30644 -0.711827,0.55718 -0.894754,0.55718 -0.618587,0 -3.976659,3.87702 -5.27087,6.08542 l -0.4232,0.72213 0.4124,0.9325 c 1.208061,2.73166 1.447961,4.81891 0.712774,6.2016 l -0.421037,0.79186 1.063934,0.50677 c 1.421811,0.67721 3.343852,1.16215 5.57219,1.4059 1.796358,0.1965 5.525887,0.1501 12.807095,-0.15932 1.602951,-0.0681 3.493062,-0.0831 4.200246,-0.0334 1.150554,0.0809 1.245524,0.11347 0.902947,0.30925 -0.410427,0.23455 -7.646578,0.44643 -15.218073,0.44559 -4.572746,-5.1e-4 -6.353424,-0.2793 -8.641302,-1.35294 l -1.333564,-0.6258 -1.355831,0.89009 c -3.652129,2.39756 -11.083101,4.92097 -16.956859,6.77884 -0.445965,0.14106 -0.784738,0.26433 -1.117842,0.003 z m 39.788957,-25.06295 2.550665,-0.004 1.265611,-0.67208 c 1.572374,-0.83496 1.904481,-1.32155 1.905361,-2.79161 5.2e-4,-0.9313 -0.0411,-1.0715 -0.31886,-1.0715 -0.744454,0 -1.595431,1.5066 -1.294281,2.29142 0.0596,0.15529 0.0229,0.28017 -0.0823,0.28017 -0.10438,0 -0.18978,-0.15429 -0.18978,-0.34287 0,-0.42348 -0.177097,-0.43256 -0.705494,-0.0362 -0.555247,0.41652 -1.544041,0.26981 -1.778171,-0.26385 -0.10263,-0.23394 -0.319517,-0.38574 -0.551137,-0.38574 -0.210047,0 -0.465937,-0.15701 -0.568637,-0.34891 -0.150547,-0.28129 -0.295047,-0.32859 -0.745644,-0.24406 -0.668787,0.12547 -1.046494,-0.2212 -0.926257,-0.85016 0.0577,-0.30215 -0.007,-0.43919 -0.236987,-0.49925 -0.442997,-0.11585 -0.398227,-0.73461 0.0884,-1.22121 l 0.404967,-0.40498 -0.447827,-0.36817 -0.447837,-0.36818 0.545147,0.35544 c 0.673444,0.43911 0.905974,0.18491 0.408907,-0.447 -0.377037,-0.47934 -0.449567,-0.74671 -0.20257,-0.74671 0.0833,0 0.19174,0.15409 0.24099,0.34242 0.0493,0.18833 0.261567,0.40606 0.471827,0.48384 0.368377,0.13627 0.352997,0.17154 -0.422787,0.96976 -0.709727,0.73026 -0.775097,0.8583 -0.552057,1.08135 0.374917,0.37492 1.098844,0.12428 1.775848,-0.61484 0.726197,-0.79283 0.854957,-1.28225 0.485617,-1.84593 -0.386407,-0.58976 -1.766778,-1.44524 -2.331965,-1.44524 -0.521107,0 -1.601161,0.66179 -2.187678,1.34048 -0.659757,0.76342 -2.010678,2.80134 -2.507475,3.78261 -0.25697,0.50756 -0.814437,1.29405 -1.238834,1.74776 -0.577787,0.61771 -0.743967,0.91206 -0.661527,1.1718 0.16558,0.52169 2.015588,2.12114 3.042705,2.6306 l 0.905154,0.44897 0.878104,-0.97509 0.878107,-0.9751 2.550675,-0.004 z M 46.139146,189.452 c 0.678827,-0.61032 2.064458,-1.59525 3.863419,-2.7462 0.0628,-0.0402 -1.942758,-2.76907 -3.047482,-4.14643 -0.895887,-1.11698 -2.433328,-2.35114 -3.809989,-3.05843 -0.595767,-0.30609 -1.084404,-0.41545 -1.856171,-0.41545 -0.939602,0 -1.101508,0.054 -1.571455,0.52391 -0.288154,0.28816 -0.624459,0.48534 -0.747345,0.43818 -0.28233,-0.10833 -1.102525,0.52435 -1.102525,0.85047 0,0.16485 -0.193631,0.24471 -0.593358,0.24471 -0.914059,0 -1.863134,1.2202 -1.226286,1.5766 0.393041,0.21995 0.361375,0.53806 -0.03259,0.32723 -0.365327,-0.19552 -0.592496,-0.0757 -0.875681,0.46186 -0.450022,0.85426 0.523676,2.17249 2.856472,3.86723 0.495029,0.35963 0.900064,0.7336 0.900064,0.83106 0,0.19139 -0.892755,-0.43469 -1.935648,-1.35745 -0.357409,-0.31624 -0.723864,-0.52924 -0.814338,-0.47333 -0.284812,0.17603 -0.188421,1.55796 0.135527,1.94303 0.356768,0.42408 2.924871,1.39575 3.68894,1.39575 0.295231,0 1.251641,-0.20647 2.125351,-0.45883 1.80538,-0.52145 2.250397,-0.44781 2.765664,0.45769 0.160637,0.28231 0.319307,0.51378 0.352597,0.51438 0.0333,5.2e-4 0.449467,-0.3486 0.924814,-0.77598 z m -7.585785,-7.28061 c -0.154519,-0.0999 -0.175669,-0.16723 -0.053,-0.16881 0.112298,-0.001 0.251862,0.0745 0.31014,0.16881 0.131549,0.21285 0.0722,0.21285 -0.257163,0 z m -0.717909,-0.28855 c 0.123761,-0.0495 0.271626,-0.0434 0.328594,0.0135 0.05696,0.057 -0.04432,0.0975 -0.225011,0.09 -0.199721,-0.008 -0.240341,-0.0489 -0.103583,-0.10358 z m 2.00371,-1.2544 c -0.279518,-0.12012 -0.289308,-0.14957 -0.053,-0.15939 0.159444,-0.007 0.337587,0.0651 0.395865,0.15939 0.121836,0.19713 0.115875,0.19713 -0.342888,0 z m 43.635004,5.10033 c 0.312767,-0.21215 0.740064,-0.69311 0.949544,-1.06878 0.22699,-0.40709 0.596217,-0.77093 0.913894,-0.90056 0.556617,-0.22712 0.654627,-0.5262 0.35557,-1.08498 -0.25308,-0.47289 -0.730677,-0.40976 -1.058074,0.13984 -0.537237,0.90189 -1.575921,1.9748 -2.139958,2.21047 -0.531547,0.22209 -0.745737,0.68302 -0.4533,0.97546 0.22843,0.22841 0.876437,0.10561 1.432324,-0.27145 z m -1.533821,-0.73313 c 0.912584,-0.32198 1.206451,-0.57738 2.154838,-1.87277 0.890654,-1.21653 0.946774,-1.69647 0.241027,-2.06143 -0.748694,-0.38717 -1.004564,-0.33982 -0.907494,0.16794 0.10305,0.53908 -1.046444,2.0888 -2.122638,2.86166 -0.615667,0.44215 -0.708327,0.58097 -0.565687,0.84751 0.20639,0.38565 0.261297,0.38827 1.199954,0.0571 z m -0.819997,-1.08527 c 0.409987,-0.28207 1.082524,-0.94981 1.494541,-1.48387 0.988314,-1.28105 0.969057,-1.31561 -1.287371,-2.30945 l -0.857187,-0.37754 0.47145,0.4967 c 0.302367,0.31856 0.471457,0.68396 0.471457,1.01879 0,0.7182 -0.862867,1.8629 -1.607101,2.13201 -0.571087,0.20652 -0.893467,0.71191 -0.677257,1.06175 0.17158,0.27762 1.215734,-0.005 1.991468,-0.53839 z m -20.774413,8.33307 c 0.0153,-1.49319 0.0518,-1.77385 0.16156,-1.24293 0.203,0.98137 0.1962,3.17164 -0.01,3.17164 -0.1053,0 -0.16383,-0.74405 -0.15172,-1.92871 z m -1.219791,1.16211 c 0,-0.51583 -0.868517,-2.19233 -1.386334,-2.67604 -0.354277,-0.33095 -0.446737,-0.50048 -0.272947,-0.50048 0.394017,0 1.278631,1.16634 1.662761,2.19229 0.383827,1.02514 0.412537,1.23651 0.167957,1.23651 -0.0943,0 -0.171437,-0.11353 -0.171437,-0.25228 z m 2.232488,0.0481 c 0.0129,-0.76889 1.174661,-2.49605 1.967788,-2.92543 0.188587,-0.1021 0.0643,0.0781 -0.27612,0.40049 -0.626924,0.59364 -1.352561,1.81874 -1.352561,2.28357 0,0.13964 -0.0772,0.30156 -0.17144,0.35983 -0.0943,0.0583 -0.169747,0.005 -0.167667,-0.11846 z m -1.952031,-4.77031 c -1.168994,-0.74135 -2.485855,-2.02249 -2.886882,-2.80856 -0.766757,-1.50298 0.099,-3.02682 1.709068,-3.00832 0.4464,0.005 1.156974,0.14165 1.579061,0.30339 0.726057,0.27823 0.813827,0.27803 1.628671,-0.004 0.473697,-0.16379 1.023334,-0.30031 1.221424,-0.30339 1.151544,-0.0179 2.125708,0.93587 2.125708,2.0812 0,1.18405 -1.610701,2.90622 -3.720289,3.97778 -0.715037,0.36319 -0.706197,0.36446 -1.656761,-0.23837 z m 2.537835,-0.98764 c 1.570331,-1.06888 2.231398,-1.90156 2.231398,-2.8107 0,-0.51951 -0.10034,-0.7742 -0.400847,-1.01753 -0.501407,-0.40602 -1.642901,-0.427 -2.591095,-0.0476 -0.658327,0.26341 -0.733557,0.2592 -1.535351,-0.0857 -1.500791,-0.64562 -2.569625,-0.37401 -2.844945,0.72295 -0.1255,0.50001 0.22874,1.38666 0.846877,2.1197 0.552794,0.65556 2.428565,1.93973 2.823862,1.93325 0.15427,-0.003 0.815807,-0.36899 1.470101,-0.81434 z"
       id="path595"
       sodipodi:nodetypes="ccssssscsssssssssssssssssscscsssssssssssssssssscssssssssssssssssscssssssssscsssssssscssssssssssssssssssscsscssssssscssscccscsssssssssssscccssssssssssssssscccccsssssssssssssssssssscssccsccssssscssccsssssssscsssssscsscsssscsssssssssssscsssscccscssscccsssssscccs" /><text
       xml:space="preserve"
       style="font-style:normal;font-variant:normal;font-weight:normal;font-stretch:normal;font-size:7.7611px;font-family:'Bree Serif';-inkscape-font-specification:'Bree Serif';text-align:center;text-anchor:middle;fill:#ffffff;stroke:#ca88f0;stroke-width:0;stroke-linejoin:bevel;paint-order:fill markers stroke"
       x="120.09913"
       y="155.02818"
       id="text398"><tspan
         sodipodi:role="line"
         id="tspan396"
         x="120.09913"
         y="155.02818"
         style="stroke-width:0" /></text></g></svg>
