<?xml version="1.0" encoding="UTF-8" standalone="no"?>
<!-- Created with Inkscape (http://www.inkscape.org/) -->

<svg
   width="70mm"
   height="70mm"
   viewBox="0 0 70 70"
   version="1.1"
   id="svg5018"
   xml:space="preserve"
   inkscape:version="1.2 (1:1.2+202206011327+fc4e4096c5)"
   sodipodi:docname="handshake_green.svg"
   inkscape:export-filename="handshake_green.png"
   inkscape:export-xdpi="400"
   inkscape:export-ydpi="400"
   xmlns:inkscape="http://www.inkscape.org/namespaces/inkscape"
   xmlns:sodipodi="http://sodipodi.sourceforge.net/DTD/sodipodi-0.dtd"
   xmlns="http://www.w3.org/2000/svg"
   xmlns:svg="http://www.w3.org/2000/svg"><sodipodi:namedview
     id="namedview5020"
     pagecolor="#ffffff"
     bordercolor="#000000"
     borderopacity="0.25"
     inkscape:showpageshadow="2"
     inkscape:pageopacity="0.0"
     inkscape:pagecheckerboard="0"
     inkscape:deskcolor="#d1d1d1"
     inkscape:document-units="mm"
     showgrid="false"
     inkscape:zoom="2.7365225"
     inkscape:cx="90.077827"
     inkscape:cy="140.50679"
     inkscape:window-width="1848"
     inkscape:window-height="1136"
     inkscape:window-x="72"
     inkscape:window-y="27"
     inkscape:window-maximized="1"
     inkscape:current-layer="layer1" /><defs
     id="defs5015" /><g
     id="g4484"
     transform="translate(-17.519344,-187.1884)"><g
       id="g4520" /></g><g
     inkscape:label="Layer 1"
     inkscape:groupmode="layer"
     id="layer1"
     transform="translate(-26.423451,-154.64731)"><circle
       style="fill:#1eb31e;fill-opacity:1;stroke:#000000;stroke-width:0;stroke-linejoin:bevel;paint-order:fill markers stroke;stroke-dasharray:none"
       id="path5074-6"
       cx="61.42345"
       cy="189.64731"
       r="34.904667" /><text
       xml:space="preserve"
       style="font-weight:bold;font-size:7.76111px;font-family:sans-serif;-inkscape-font-specification:'sans-serif Bold';letter-spacing:0.0529167px;fill:#ffffff;fill-opacity:1;stroke:#fcfcfc;stroke-width:0.2;stroke-linejoin:bevel;stroke-opacity:1;paint-order:fill markers stroke;stroke-dasharray:none"
       x="61.218929"
       y="168.64494"
       id="text5862-7"><tspan
         sodipodi:role="line"
         style="font-style:normal;font-variant:normal;font-weight:bold;font-stretch:normal;font-size:7.76111px;font-family:'Bree Serif';-inkscape-font-specification:'Bree Serif Bold';text-align:center;text-anchor:middle;fill:#000000;stroke:#fcfcfc;stroke-width:0.2;stroke-opacity:1;stroke-dasharray:none"
         x="61.218929"
         y="168.64494"
         id="tspan4701">Happy to</tspan><tspan
         sodipodi:role="line"
         style="font-style:normal;font-variant:normal;font-weight:bold;font-stretch:normal;font-size:7.76111px;font-family:'Bree Serif';-inkscape-font-specification:'Bree Serif Bold';text-align:center;text-anchor:middle;fill:#000000;stroke:#fcfcfc;stroke-width:0.2;stroke-opacity:1;stroke-dasharray:none"
         x="61.245388"
         y="178.60487"
         id="tspan4734">handshake</tspan></text><text
       xml:space="preserve"
       style="font-weight:bold;font-size:7.05556px;font-family:sans-serif;-inkscape-font-specification:'sans-serif Bold';fill:#000000;fill-opacity:1;stroke:#000000;stroke-width:0.264999;stroke-linejoin:bevel;paint-order:fill markers stroke"
       x="163.33327"
       y="153.81293"
       id="text6261"><tspan
         sodipodi:role="line"
         id="tspan6259"
         style="stroke-width:0.265"
         x="163.33327"
         y="153.81293" /></text><path
       style="fill:#000000;stroke-width:0.0567938"
       d="m 57.349549,217.81301 c -0.845586,-0.18493 -1.623425,-0.68668 -2.100107,-1.35469 -0.225056,-0.31538 -0.323954,-0.50494 -0.539502,-1.03406 -0.04728,-0.11615 -0.06031,-0.11773 -0.349965,-0.0426 -0.402669,0.10445 -1.230049,0.0988 -1.65478,-0.0112 -1.222321,-0.31674 -2.218211,-1.30166 -2.516376,-2.48865 l -0.09429,-0.37538 H 49.65617 c -0.539613,0 -1.196506,-0.16148 -1.667032,-0.4098 -0.550439,-0.29048 -1.168767,-0.94224 -1.447319,-1.52558 -0.260433,-0.54536 -0.352258,-0.9222 -0.352258,-1.44557 0,-0.35339 -0.0052,-0.36626 -0.156184,-0.39517 -0.433114,-0.0829 -1.105638,-0.35053 -1.441563,-0.57374 -0.42367,-0.28151 -0.700769,-0.56686 -0.990893,-1.0204 l -0.197749,-0.30913 H 41.25568 c -2.132136,0 -2.149254,-6.6e-4 -2.394795,-0.13078 -0.475823,-0.25162 -0.646991,-0.88111 -0.381091,-1.4015 0.253963,-0.497 0.170644,-0.48011 2.52563,-0.5123 l 2.077356,-0.0284 0.09767,-0.35697 c 0.235901,-0.86219 0.298919,-0.94113 2.608745,-3.26776 2.294666,-2.31136 2.618456,-2.58377 3.3565,-2.8239 0.539083,-0.1754 1.428904,-0.19012 1.956534,-0.0323 1.150856,0.34409 2.094317,1.24504 2.415469,2.30666 0.06143,0.20303 0.130887,0.54796 0.154364,0.76651 l 0.0427,0.39734 0.315172,0.0394 c 1.279288,0.15968 2.460615,1.22883 2.812231,2.5452 0.101229,0.37898 0.138431,1.21701 0.06594,1.4854 -0.03923,0.14526 -0.02678,0.15498 0.342362,0.26794 0.804644,0.2462 1.594408,0.89874 1.993128,1.64681 0.228626,0.42895 0.406127,1.11362 0.406127,1.56655 v 0.34823 l 0.411758,0.0961 c 1.173829,0.27389 2.081351,1.08749 2.516619,2.25616 0.139787,0.37534 0.159131,0.50695 0.162766,1.10748 0.0039,0.6152 -0.01212,0.72734 -0.162655,1.15227 l -0.166781,0.47075 0.422354,0.42542 c 0.54059,0.54452 0.789798,0.66984 1.271076,0.6392 0.64728,-0.0412 1.200168,-0.51684 1.343059,-1.15537 0.06156,-0.27508 0.05769,-0.35825 -0.02999,-0.64024 -0.09751,-0.31367 -0.193453,-0.4172 -2.984748,-3.22058 -1.586196,-1.59306 -2.91249,-2.95231 -2.947315,-3.02053 -0.105296,-0.20631 -0.0759,-0.63322 0.06031,-0.87553 0.260151,-0.46288 0.877817,-0.68969 1.301029,-0.47775 0.106697,0.0534 1.701864,1.60129 3.544826,3.4397 2.556591,2.55026 3.411417,3.3698 3.606409,3.45753 0.908393,0.40874 1.937484,-0.26387 1.949127,-1.27395 0.007,-0.60491 0.122492,-0.46989 -3.57121,-4.17435 -1.884329,-1.88981 -3.453073,-3.50797 -3.486104,-3.59591 -0.09327,-0.2483 -0.07214,-0.4467 0.08009,-0.75219 0.153009,-0.30703 0.486353,-0.56684 0.803667,-0.62637 0.438352,-0.0822 0.386782,-0.12784 4.536799,4.01256 3.005933,2.99897 3.978306,3.93651 4.174346,4.02478 0.895682,0.40333 1.958564,-0.31988 1.955617,-1.33066 -6.42e-4,-0.21599 -0.03864,-0.41354 -0.103757,-0.53954 -0.05651,-0.10933 -1.862391,-1.96223 -4.013046,-4.11755 -2.172979,-2.17771 -3.936728,-3.98982 -3.969812,-4.07866 -0.141935,-0.38118 -0.0332,-0.79571 0.288657,-1.1003 0.308048,-0.29154 0.688052,-0.37873 1.05376,-0.24178 0.08793,0.0329 1.718871,1.6133 3.624306,3.51194 2.338961,2.33063 3.538225,3.4865 3.6916,3.55806 0.863601,0.40291 1.95939,-0.32883 1.95939,-1.30843 0,-0.17385 -0.03929,-0.41111 -0.08737,-0.52724 -0.06149,-0.14856 -1.622901,-1.74745 -5.267207,-5.39359 l -5.179835,-5.18245 h -2.675135 c -2.655777,0 -2.675908,6.6e-4 -2.783318,0.12069 -0.451862,0.50405 -1.817448,1.43898 -2.777503,1.90158 -1.987457,0.95765 -3.955255,1.05615 -5.480607,0.27433 -0.484599,-0.24838 -0.640699,-0.3576 -0.982295,-0.68722 -0.902604,-0.87098 -1.173619,-2.10798 -0.707219,-3.228 0.260491,-0.62557 0.599134,-1.01716 2.651933,-3.06658 1.126207,-1.12435 2.047652,-2.06494 2.047652,-2.0902 0,-0.0253 -0.785882,-0.0382 -1.746409,-0.0287 l -1.746414,0.0172 -0.297649,0.16493 c -0.33119,0.18352 -0.990775,0.74731 -2.243632,1.91781 -1.794102,1.67617 -2.639759,2.26725 -3.736439,2.61161 -0.423945,0.13313 -0.424023,0.13313 -3.661201,0.13313 -3.616304,0 -3.434056,0.0196 -3.757401,-0.40431 -0.22133,-0.29019 -0.250825,-0.80569 -0.06431,-1.12379 0.161319,-0.27509 0.356632,-0.42347 0.645629,-0.4905 0.122532,-0.0284 1.577316,-0.0523 3.232856,-0.053 l 3.010077,-0.001 0.356861,-0.16882 c 0.662944,-0.31362 1.313806,-0.83827 2.993975,-2.4134 0.468548,-0.43926 0.992798,-0.91758 1.165001,-1.06294 0.488436,-0.41231 1.253945,-0.86718 1.711799,-1.01716 l 0.417246,-0.13667 h 9.001825 9.001831 l 0.416558,0.15217 c 0.782614,0.28587 1.357374,0.69863 2.646544,1.9006 1.802982,1.68101 2.4618,2.22429 3.099028,2.55554 l 0.312369,0.16238 3.208855,0.0284 c 2.844934,0.0251 3.228173,0.039 3.37923,0.12238 0.367228,0.20259 0.539542,0.50083 0.539542,0.93382 0,0.49081 -0.282135,0.86554 -0.745627,0.99034 -0.156447,0.0421 -1.224987,0.0555 -3.362453,0.0421 -3.103441,-0.0194 -3.136905,-0.0209 -3.530694,-0.15197 -1.099999,-0.36609 -1.899148,-0.9284 -3.6916,-2.59753 -1.283315,-1.19501 -1.928506,-1.7461 -2.258072,-1.92872 l -0.297655,-0.16492 h -5.338619 -5.338627 l -0.312363,0.14736 c -0.259064,0.12222 -0.765436,0.59712 -2.967341,2.7829 -2.905843,2.88457 -2.933825,2.91834 -2.85477,3.4455 0.05331,0.35564 0.489759,0.79554 0.967998,0.97569 0.423926,0.15969 1.265045,0.21624 1.819249,0.12231 1.308632,-0.2218 2.704689,-0.98002 3.934384,-2.13684 0.742261,-0.69827 0.426552,-0.64898 4.155132,-0.64869 2.918377,2.1e-4 3.227793,0.009 3.418044,0.0981 0.308853,0.14455 10.991606,10.80069 11.289124,11.26101 0.125327,0.1939 0.28235,0.53449 0.34895,0.75686 0.06659,0.22237 0.140023,0.44264 0.163185,0.48949 0.03582,0.0725 0.339383,0.0894 2.033906,0.1136 1.909358,0.0272 1.998433,0.0333 2.152044,0.14732 0.591695,0.43915 0.539384,1.43202 -0.09307,1.76647 -0.245201,0.12967 -0.265128,0.13079 -2.338595,0.13079 h -2.091285 l -0.113638,0.22273 c -0.164541,0.32254 -0.716997,0.89893 -1.098926,1.14656 -0.181469,0.11766 -0.496975,0.26951 -0.701116,0.33744 -0.350954,0.11678 -0.369362,0.13168 -0.338007,0.27328 0.229385,1.03593 -0.05193,2.21388 -0.714809,2.99307 -0.941844,1.10711 -2.340035,1.53523 -3.686826,1.12888 -0.06877,-0.0208 -0.121726,0.0559 -0.214494,0.31028 -0.366894,1.00623 -1.332293,1.85839 -2.418023,2.13437 -0.42422,0.10784 -1.269969,0.11008 -1.666901,0.005 -0.226439,-0.0603 -0.307314,-0.0637 -0.324609,-0.0135 -0.177756,0.51508 -0.300942,0.77099 -0.503799,1.04655 -0.716578,0.9734 -1.782773,1.47531 -3.015965,1.41975 -0.975445,-0.0439 -1.563702,-0.31558 -2.354088,-1.08701 l -0.456643,-0.44569 -0.501448,0.47719 c -0.527564,0.50205 -1.038043,0.81486 -1.598691,0.97965 -0.461993,0.13579 -1.151852,0.16049 -1.620426,0.058 z m 1.293898,-2.13432 c 0.281204,-0.14346 1.620825,-1.44032 1.858566,-1.79925 0.428556,-0.64701 0.197055,-1.573 -0.494952,-1.97976 -0.355715,-0.2091 -0.939368,-0.22497 -1.294461,-0.0352 -0.312952,0.16725 -1.875861,1.75678 -1.985616,2.01945 -0.104536,0.25019 -0.112172,0.59948 -0.01984,0.90765 0.08644,0.28852 0.487736,0.73545 0.798455,0.88926 0.327831,0.16228 0.817374,0.16135 1.137844,-0.002 z m -4.486892,-2.40742 c 0.116775,-0.0614 0.901006,-0.79793 1.742721,-1.63664 1.697353,-1.69125 1.748799,-1.76253 1.689173,-2.34022 -0.09947,-0.96378 -1.140201,-1.59348 -1.977195,-1.19631 -0.110934,0.0527 -0.897745,0.79746 -1.76367,1.66954 -1.415801,1.42588 -1.570303,1.60009 -1.636778,1.8456 -0.08995,0.3322 -0.04735,0.75029 0.107391,1.05357 0.1354,0.2654 0.525672,0.61573 0.769556,0.69079 0.27296,0.084 0.830694,0.039 1.068802,-0.0863 z m -3.991429,-2.92661 c 0.190807,-0.0856 0.792665,-0.65021 2.374991,-2.22791 1.232348,-1.22876 2.169109,-2.20832 2.238152,-2.34041 0.322788,-0.61758 -0.0074,-1.46442 -0.706846,-1.81299 -0.361662,-0.18022 -0.815744,-0.19495 -1.151793,-0.0374 -0.14997,0.0703 -0.955249,0.83715 -2.369451,2.2563 -2.283488,2.29149 -2.316041,2.3319 -2.316041,2.87446 0,0.99106 1.042699,1.68652 1.930988,1.28792 z m -3.079245,-3.77579 c 0.14168,-0.0589 0.88123,-0.75499 2.24766,-2.11558 2.160675,-2.15142 2.30648,-2.33012 2.307672,-2.82803 6.55e-4,-0.35506 -0.294584,-0.89759 -0.616501,-1.13214 -0.454737,-0.33133 -1.07076,-0.39325 -1.448308,-0.14559 -0.252816,0.16585 -4.0038,3.86773 -4.18779,4.13297 -0.657751,0.94823 -0.02226,2.17615 1.126286,2.17615 0.197906,0 0.454848,-0.0395 0.570981,-0.0878 z"
       id="path4736" /><path
       style="fill:#143914;fill-opacity:1;stroke:#143914;stroke-width:0.0286291;stroke-linejoin:bevel;stroke-opacity:1;paint-order:fill markers stroke"
       d=""
       id="path4327"
       transform="scale(0.26458333)" /><path
       style="fill:#143914;fill-opacity:1;stroke:#143914;stroke-width:0.0286291;stroke-linejoin:bevel;stroke-opacity:1;paint-order:fill markers stroke"
       d=""
       id="path4331"
       transform="scale(0.26458333)" /></g></svg>
