<?xml version="1.0" encoding="UTF-8" standalone="no"?>
<!-- Created with Inkscape (http://www.inkscape.org/) -->

<svg
   width="70mm"
   height="70mm"
   viewBox="0 0 70 70"
   version="1.1"
   id="svg5018"
   xml:space="preserve"
   inkscape:version="1.2 (1:1.2+202206011327+fc4e4096c5)"
   sodipodi:docname="keep_away_red.svg"
   inkscape:export-filename="keep_away_red.png"
   inkscape:export-xdpi="400"
   inkscape:export-ydpi="400"
   xmlns:inkscape="http://www.inkscape.org/namespaces/inkscape"
   xmlns:sodipodi="http://sodipodi.sourceforge.net/DTD/sodipodi-0.dtd"
   xmlns="http://www.w3.org/2000/svg"
   xmlns:svg="http://www.w3.org/2000/svg"><sodipodi:namedview
     id="namedview5020"
     pagecolor="#ffffff"
     bordercolor="#000000"
     borderopacity="0.25"
     inkscape:showpageshadow="2"
     inkscape:pageopacity="0.0"
     inkscape:pagecheckerboard="0"
     inkscape:deskcolor="#d1d1d1"
     inkscape:document-units="mm"
     showgrid="false"
     inkscape:zoom="3.4138984"
     inkscape:cx="101.20395"
     inkscape:cy="138.99066"
     inkscape:window-width="1848"
     inkscape:window-height="1136"
     inkscape:window-x="72"
     inkscape:window-y="27"
     inkscape:window-maximized="1"
     inkscape:current-layer="g13094" /><defs
     id="defs5015" /><g
     inkscape:label="Layer 1"
     inkscape:groupmode="layer"
     id="layer1"
     transform="translate(-25.136399,-149.6846)"><g
       id="g13094"><circle
         style="fill:#aa0000;fill-opacity:1;stroke:#000000;stroke-width:0;stroke-linejoin:bevel;stroke-dasharray:none;paint-order:fill markers stroke"
         id="path5074-1"
         cx="60.136398"
         cy="184.6846"
         r="35" /><text
         xml:space="preserve"
         style="font-weight:bold;font-size:7.76111px;font-family:sans-serif;-inkscape-font-specification:'sans-serif Bold';letter-spacing:0.0291042px;fill:#ffffff;fill-opacity:1;stroke:#000000;stroke-width:0.264999;stroke-linejoin:bevel;stroke-opacity:1;paint-order:fill markers stroke"
         x="41.593521"
         y="164.28461"
         id="text5862-7"><tspan
           sodipodi:role="line"
           style="font-size:7.76111px;fill:#ffffff;stroke:#000000;stroke-width:0.265;stroke-opacity:1"
           x="41.593521"
           y="164.28461"
           id="tspan5914-3"
           dx="0.029999999">I like my</tspan><tspan
           sodipodi:role="line"
           style="font-size:7.76111px;fill:#ffffff;stroke:#000000;stroke-width:0.265;stroke-opacity:1"
           x="41.593521"
           y="173.98599"
           id="tspan5916-5">distance</tspan></text><path
         style="fill:#ffffff;stroke:#000000;stroke-width:0.165;stroke-dasharray:none;stroke-opacity:1"
         d="m 47.405517,208.275 -5.308389,-5.31414 v -7.43692 -7.43692 l 5.216809,-5.2406 5.21681,-5.2406 h 7.690321 7.690295 l 5.21678,5.2406 5.21678,5.2406 v 7.44678 7.44678 l -5.28559,5.30429 -5.28558,5.30428 h -7.529915 -7.529941 z m 24.388325,-1.23153 4.699003,-4.6936 v -6.74702 -6.74701 l -4.825933,-4.83126 -4.825933,-4.83126 h -6.614621 -6.614631 l -4.83126,4.82596 -4.831254,4.82597 v 6.74687 6.74687 l 4.693594,4.69904 4.6936,4.69904 h 6.879221 6.879201 z m -15.93837,-0.69157 c -1.380015,-0.70442 -2.786175,-2.41102 -3.147725,-3.82023 -0.13843,-0.53958 -0.33418,-3.90544 -0.43499,-7.47968 -0.16632,-5.89637 -0.14191,-6.54001 0.26339,-6.94531 0.62458,-0.62458 1.62402,-0.55775 2.11369,0.14135 0.2972,0.42432 0.41922,1.28986 0.43825,3.10885 0.0145,1.38645 0.13151,2.81847 0.26002,3.18227 0.14299,0.40483 0.1819,-1.08361 0.10027,-3.83646 -0.1132,-3.8176 -0.0702,-4.58795 0.284155,-5.09322 0.461997,-0.65873 1.796811,-0.8224 2.157828,-0.26459 0.11773,0.1819 0.344197,2.41433 0.503257,4.96094 l 0.28921,4.63021 0.0415,-4.91037 c 0.0455,-5.37645 0.171627,-5.8714 1.496721,-5.8714 1.332151,0 1.455201,0.49088 1.455201,5.80525 0,2.66433 0.10036,4.84423 0.22303,4.84423 0.122667,0 0.301317,-1.98499 0.396997,-4.41108 0.140467,-3.56155 0.258277,-4.50424 0.611727,-4.89479 0.607374,-0.67116 1.584021,-0.60952 2.068938,0.13057 0.350547,0.53501 0.369117,1.41429 0.143857,6.81302 -0.142247,3.4093 -0.261097,6.47318 -0.264107,6.80861 -0.005,0.58142 0.0644,0.55982 1.492811,-0.46302 0.824047,-0.59009 1.768041,-1.0729 2.097758,-1.0729 1.097994,0 1.962568,1.38804 1.455151,2.33617 -0.306097,0.57194 -6.859401,5.42263 -8.550429,6.32894 -1.526684,0.81822 -3.862809,0.80659 -5.49653,-0.0274 z"
         id="path6263"
         sodipodi:nodetypes="cccccccccccccccccccccccccccccccccccssssssscssccssssssscsssscc" /></g><text
       xml:space="preserve"
       style="font-weight:bold;font-size:7.05556px;font-family:sans-serif;-inkscape-font-specification:'sans-serif Bold';fill:#000000;fill-opacity:1;stroke:#000000;stroke-width:0.264999;stroke-linejoin:bevel;paint-order:fill markers stroke"
       x="163.33327"
       y="153.81293"
       id="text6261"><tspan
         sodipodi:role="line"
         id="tspan6259"
         style="stroke-width:0.265"
         x="163.33327"
         y="153.81293" /></text></g></svg>
