<svg height="429" viewBox="0 0 484 429" width="484" xmlns="http://www.w3.org/2000/svg"><path d="m893.613769 212c18.00143 0 32.596928 14.593128 32.596928 32.596928 0 15.448758-7.112876 29.300023-17.036772 41.973314 14.145166-5.299696 28.55342-7.669865 42.551636-3.578954 17.278528 5.048459 27.197684 23.154176 22.149225 40.435075-2.66881 9.137-9.009011 16.181141-16.927744 20.077698 4.574425 7.541876 6.122145 16.892191 3.448595 26.029191-5.050829 17.280899-23.151806 27.197684-40.432705 22.146855-21.203527-6.197991-35.218334-25.372655-46.654397-45.98127-.075846 27.365966 14.555205 66.186956 10.099288 67.521361-5.719217 1.716002-11.929058 10.296012-14.010066 15.154858-1.315444 3.064628-8.063314-46.12585-5.178819-79.722989-11.132681 19.463824-24.803813 37.12395-44.990539 43.02804-17.280898 5.050829-35.384246-4.865956-40.435075-22.146855-2.66881-9.137-1.12346-18.484945 3.450965-26.029191-7.918733-3.896557-14.256563-10.943068-16.927743-20.077698-5.048459-17.280899 4.865956-35.386616 22.146855-40.435075 13.998215-4.088541 28.40884-1.718372 42.551635 3.578954-9.926265-12.670921-17.036771-26.522185-17.036771-41.973314 0-18.00143 14.593128-32.596928 32.596928-32.596928 9.518597 0 18.058314 4.105132 24.019288 10.615985 5.958603-6.510853 14.498321-10.615985 24.019288-10.615985zm306.764491-77c10.33004 0 18.7056 8.374199 18.7056 18.705597 0 8.865198-4.08169 16.813683-9.77647 24.086192 8.11713-3.041206 16.38524-4.401317 24.41806-2.053766 9.9152 2.897035 15.60726 13.286917 12.71023 23.203481-1.53149 5.243225-5.16978 9.285473-9.71391 11.521494 2.62501 4.327871 3.51316 9.693506 1.97896 14.936731-2.8984 9.916564-13.28556 15.607265-23.20212 12.70887-12.16755-3.556688-20.20988-14.55998-26.77241-26.386139-.04353 15.703833 8.35244 37.98108 5.79543 38.746822-3.28195.984719-6.84544 5.908319-8.03961 8.696545-.75487 1.758622-4.6271-26.469106-2.97184-45.748669-6.38844 11.169225-14.23356 21.303407-25.81762 24.691441-9.91656 2.898395-20.30508-2.792306-23.20348-12.70887-1.53148-5.243225-.64469-10.6075 1.98032-14.936731-4.54413-2.236021-8.18106-6.279629-9.71391-11.521494-2.89703-9.916564 2.79231-20.306446 12.70887-23.203481 8.03282-2.34619 16.30229-.98608 24.41806 2.053766-5.69614-7.271149-9.77647-15.219634-9.77647-24.086192 0-10.330038 8.3742-18.705597 18.7056-18.705597 5.4622 0 10.36268 2.355711 13.78336 6.091934 3.41931-3.736223 8.31979-6.091934 13.78335-6.091934zm-189.45088-135c13.73954 0 24.87952 11.1381673 24.87952 24.8795216 0 11.7912253-5.42889 22.3631677-13.00327 32.0360247 10.79626-4.04498 21.79332-5.8540051 32.47742-2.7316279 13.1878 3.8532234 20.75857 17.6723658 16.90534 30.8619675-2.03696 6.9737916-6.8761 12.350214-12.92006 15.3242511 3.49142 5.756318 4.67272 12.892922 2.63214 19.866713-3.85504 13.189602-17.67056 20.758563-30.86016 16.90353-16.18354-4.7306-26.88031-19.365613-35.608851-35.095086-.057889 20.887004 11.109221 50.517025 7.708251 51.535506-4.365173 1.309734-9.104819 7.858405-10.693143 11.566906-1.004008 2.33907-6.154303-35.205436-3.952719-60.848366-8.496991 14.855713-18.931447 28.334759-34.338914 32.84104-13.189602 3.855033-27.006935-3.713928-30.861967-16.90353-2.036963-6.973791-.857478-14.108586 2.63394-19.866713-6.043953-2.9740371-10.881286-8.3522686-12.920057-15.3242511-3.853223-13.1896017 3.713929-27.0087441 16.90353-30.8619675 10.684102-3.1205682 21.682975-1.3115431 32.477427 2.7316279-7.576197-9.671048-13.003272-20.2429904-13.003272-32.0360247 0-13.7395453 11.138167-24.8795216 24.879522-24.8795216 7.265044 0 13.782962 3.1332314 18.33266 8.10262322 4.547889-4.96939182 11.065803-8.10262322 18.332663-8.10262322z" fill="#3dae2b" transform="translate(-764)"/></svg>