<svg height="67" viewBox="0 0 66 67" width="66" xmlns="http://www.w3.org/2000/svg"><g fill="none"><path d="m41.9061896 55.6273771c1.6507146 0 2.9938426 1.3536074 2.9938426 3.0314628 0 1.6881491-1.343128 3.0571968-2.9938426 3.0571968-1.6455882 0-2.9835898-1.3690477-2.9835898-3.0571968 0-1.6778554 1.3380016-3.0314628 2.9835898-3.0314628zm8.9456428-38.5495014v7.1077252c0 5.496778-4.6445573 10.1340411-9.9452992 10.1340411h-15.9022258c-3.7474297 0-6.9360772 2.7638294-7.7563081 6.3254122-.1332875.581588-.2050577 1.1837631-.2050577 1.7962318v15.2139287c0 4.3336022 3.7525562 6.8812662 7.9613658 8.1267908 5.0392934 1.487424 9.8684025 1.7550574 15.9022258 0 4.0088783-1.1683227 7.9613658-3.504968 7.9613658-8.1267908v-6.0938063h-15.9073522v-2.0278376h15.9022258 7.9562393c4.6291779 0 6.3516627-3.2424815 7.9562393-8.1010568 1.6712204-5.0078324 1.5943238-9.8200866 0-16.2432879-1.1380703-4.6321164-3.3219349-8.1113504-7.9562393-8.1113504z" fill="#f18a00"/><path d="m23.9995246 4.90055655c1.6404617 0 2.9835898 1.36390092 2.9835898 3.05719678 0 1.67270867-1.3431281 3.03146277-2.9835898 3.03146277-1.6507146 0-2.9887162-1.3587541-2.9887162-3.03146277 0-1.68814906 1.3380016-3.05719678 2.9887162-3.05719678zm8.6072976-4.89974971c-2.7221412.01029359-5.3212477.2470462-7.6076412.64849628-6.736146 1.19920345-7.9613658 3.70569307-7.9613658 8.31722221v6.08865957l15.9176051-.0051468v2.0278376l-15.9176051.0051468h-5.972306c-4.62917789 0-8.67906776 2.7947102-9.94529915 8.1164972-1.46616266 6.0835127-1.52255353 9.8818481.00512644 16.2432879 1.13294388 4.7350522 3.83457927 8.1010568 8.46375719 8.1010568h5.47504102v-7.2981567c0-5.2754658 4.5420284-9.9333161 9.9452992-9.9333161l15.9022258-.0051468c4.4241202 0 7.9613657-3.6645187 7.9562449-8.1216439l-.005132-15.22936916c0-4.33360217-3.6397745-7.58123039-7.9613658-8.31207541-2.7375205-.45291804-5.5724434-.65878988-8.2945846-.64334949z" fill="#3dae2b"/><path d="m48.867899 12.6722184v-3.71083987c0-.26248659-.0153793-.51467959-.046138-.76687259-.0051264-.04117436-.0102529-.08749553-.0153793-.1286699-.0153793-.1183763-.0256322-.2418994-.046138-.36027571-.0051264 0-.0102529 0-.0102529 0-.625426-3.69539947-3.9524874-6.40261412-7.848584-7.05625721-2.6452446-.44262444-5.3776386-.64849628-8.0126302-.64849628-.092276 0-.184552 0-.2819544 0-2.7221412.01029359-5.3212477.2470462-7.6076412.64849628-.7125756.1286699-1.3585074.26763339-1.9531748.42718407-.0051264 0-.0153793.00514679-.0205057.00514679-5.0085347 1.32787335-5.9876853 3.76230782-5.9876853 7.87974455v6.08865957l13.415901-.0051468h2.5017041v2.0226908l-13.0211649.0051468h-2.2966464-.5946674-5.9723059c-.1742991 0-.3434717.0102936-.5126443.0205872 0 0-.0051265 0-.0051265-.0051468-.0256322 0-.0461379.0051468-.0717702.0051468-.2153106.0102936-.4306212.0308808-.64080532.0514679-.06151731.0051468-.12816107.0154404-.18967838.0205872-.20505772.025734-.41011543.0617616-.61517315.0977892-.06664376.0102935-.13328751.0257339-.19993127.0411743-.19480483.0411744-.38960966.0874956-.57928805.1389635-.0717702.0205872-.14866684.0411744-.22043704.0617616-.1794255.0514679-.36397744.1132295-.5382765.174991-.08202309.0308808-.15891973.0566148-.23581637.0874956-.16917262.0669083-.33321879.1338166-.49726496.2058718-.08714953.0411744-.17429906.0823487-.25632215.1235231-.15379328.0720551-.30246013.1492571-.45112697.2316058-.09227597.051468-.18455194.1080827-.27682792.1646975-.13328751.0823487-.27170147.1646974-.39986254.252193-.09740241.0669083-.19480483.1389635-.29220724.2058718-.11790819.0874955-.23581638.1749911-.35372456.2676334-.10252886.0823487-.20505772.1698443-.30758657.2624866-.10252886.0874955-.20505772.1801379-.30246013.2727802-.1076553.1029359-.21018416.2110186-.31271302.3191013-.08714953.0926424-.17429906.1801379-.25632214.2727802-.11790819.1389635-.22043705.2676334-.3229659.4014501-.07177021.0874955-.14354041.1749911-.21018416.2676334-.11278175.1492571-.2153106.3088077-.31783946.4683584-.05639087.0823487-.11278174.1595507-.16404617.2470462-.11278175.1801379-.2153106.3705693-.31783946.5661476-.0358851.0720551-.07689664.1389635-.11790819.2110186-.11278174.226459-.22043704.4632116-.3229659.6999642-.02050577.0463212-.04101154.0874956-.06151731.1338167-.23581638.581588-.44087409 1.1992035-.59466738 1.8579934-.09227597.3757161-.17429905.7359918-.2511957 1.0962675-.01025288.0411744-.01537933.0823487-.02563221.1235231-.06151732.2727802-.11790819.5404136-.16917262.8029002-.03075865.1544038-.06151731.3036609-.08714953.4580648-.02563221.1441103-.05639087.2933674-.08202308.4374776-.0358851.1904315-.06664376.3757162-.09740242.5610008-.00512644.0411744-.01537933.0823487-.02050577.1235231-.32809234 2.0381312-.44600053 3.9012713-.34347167 5.8416134 0 .0411743.00512644.0823487.01025288.1235231.01025289.2058718.02563222.4168904.04101155.6279091.01025288.1029359.01537933.2058718.02563221.3088077.01537933.1904315.0358851.3808629.05639087.5712944.01537933.1544039.0358851.3088077.05639088.4632116.02050577.1492571.0358851.2933674.05639087.4426245.0358851.2367526.0717702.4837988.11278174.7256982.01025289.0772019.02563222.1492571.0358851.226459.00512644.0308808.01025289.0566148.01537933.0823487.13841396.808047.31271301 1.6572683.51777073 2.5528108.05126443.2161654.09740241.4323309.14866684.6536431.26657503 1.1168547.62542603 2.1513607 1.07142656 3.0880776.03075866.0617615.05639088.1286699.08714953.1904314.00512645.0154404.01025289.025734.02050577.0411744h.00512645c.18455194.3705693.38960966.7205514.60492026 1.0602399.00512644.0102936.00512644.0205872.01025288.025734.03075866.051468.06664376.0926423.09740242.1441103.04613798.0669083.08714953.1286699.13328751.1955782.09740242.1338167.19480483.2676334.29733369.3963033.04613798.0566148.08714953.1132295.12816107.1646975.01025289.0102936.02050577.025734.03075866.0360276.00512644 0 .00512644.0051468.01025288.0051468 1.03041502 1.235231 2.33765796 2.1050395 3.93710813 2.5064896.08714953.0205872.17429906.0463211.26657503.0669083.15379329.0308808.31271302.0566148.4665063.0823488.05126443.0102936.10252886.0205871.15891973.0257339-.00512644 0-.01025288-.0051468-.01537933-.0051468.36910389.0463212.75358711.0823488 1.14832321.0823488h5.47504096v-7.2981566c0-5.2754659 4.5420284-9.9333162 9.9452992-9.9333162h8.0997798 7.269296s0 0 0-.0051468h.5280236c.7074491 0 1.3841395-.1029359 2.0351978-.2779269 0 .0051468.0051264.0051468.0051264.0102936.0666438-.0205872.1281611-.0463212.1948049-.0669084.1179082-.0360276.2306899-.0720551.3434716-.1132295.138414-.0463212.276828-.0977891.4101155-.1544039.1179082-.0514679.2358163-.1029359.3485981-.1595507.0871495-.0411743.174299-.0720551.2563221-.1183763-.0051264 0-.0051264-.0051468-.0102529-.0051468 2.5991066-1.3433137 4.3728558-4.0917027 4.3677294-7.2415418v-5.7541179-4.4982996l.0153793-1.2403778c-.0051264 0-.0051264 0 0 0zm-24.1711782-1.765351c-.0974024.025734-.1999312.0411744-.3024601.0566147-.0153793 0-.0307586.0051468-.046138.0051468-.1127817.0154404-.2255635.0205872-.3434716.0205872h-.0051265c-.0153793 0-.0307586 0-.046138 0-.0820231 0-.1589197-.0051468-.2358164-.0102936-.0461379-.0051468-.0922759-.0102936-.1384139-.0205871-.046138-.0051468-.092276-.0102936-.138414-.0205872-.0512644-.0102936-.1025288-.0205872-.1537933-.0360276-.0358851-.0102936-.0717702-.0205872-.1076553-.0308808-.0563908-.0154404-.1076553-.0360276-.1640461-.0514679-.0307587-.0102936-.0563909-.0205872-.0871496-.0308808-.0563908-.0205872-.1179081-.0463212-.174299-.0720552-.0205058-.0102935-.0410116-.0205871-.0615173-.0308807-.0615173-.0308808-.1230347-.0617616-.184552-.0977892-.0051264-.0051468-.0153793-.0102935-.0205057-.0154403-.7279549-.4374777-1.2559785-1.17346951-1.4200247-2.04327802 0 0-.0051265-.0051468-.0051265-.0051468-.0256322-.13896349-.0410115-.27792698-.0461379-.41689047h.0051264c0-.05146796-.0051264-.09778912-.0051264-.14925708 0-1.68814906 1.3380015-3.05719678 2.9835897-3.05719678.0205058 0 .0410116.0051468.0666438.0051468.0820231 0 .1691726.0051468.2511957.01544039.0512644.00514679.0974024.01544039.1435404.02058718.0512644.01029359.1076553.01544039.1589197.02573398s.1025289.02573398.1537933.04117437c.046138.01544039.0974024.02573398.1435404.04117437.0512644.01544038.1025288.03602757.1486668.05661475.046138.01544039.092276.03602757.1332875.05661476.046138.02058718.0974025.04632116.1435404.07205514.046138.02058718.0871496.04632116.1281611.07205514.046138.02573398.0871495.05146796.1332875.08234874.0410116.02573398.0820231.05661475.1230347.08749553.0410115.03088077.082023.06176155.1230346.09264232.0410115.03088078.0768966.06690835.1127817.09778913.0358851.03602757.0768967.06690834.1127818.10293591.0358851.03602758.0666437.07205515.1025288.10808272.497265.54556037.8048516 1.27640539.8048516 2.07930555 0 1.42566247-.9791506 2.62486587-2.2863936 2.94911407zm-23.65853384 27.6434409c.41524188.2110186.85611596.3757161 1.29699005.5198264.47675919.1544038.95864482.2882205 1.44053045.40145-.4665063.1338167-.9330126.2830738-1.38926602.4683585-.33834523.1338167-.66643757.2882205-.96377126.4837988-.14866684-.6433495-.27682792-1.2661118-.38448322-1.8734337zm39.86834624-6.7680367h-.3947361c.184552-.6948174.3434717-1.3947816.4716328-2.1050395.4152418.4220373 1.1021852 1.1631759 1.6404617 1.8940209-.5485294.1338167-1.122691.2110186-1.7173584.2110186zm7.4435951-17.5557208c-.2101842.1441102-.404989.3088077-.5741616.5095328-.5639087.6896706-.6971963 1.4668368-.3896097 2.2954709.1948048.5352668.5228972.9212765.9637713 1.1734695v5.9702833c0 3.0880775-1.8147608 5.748971-4.4087409 6.9378809-.8663688-.5507072-1.8711517-1.4925708-2.3940488-2.0072504 1.3174958-.2418994 2.6196123-.5352668 3.8704643-1.0396528.5946674-.2418994 1.1790819-.5198264 1.5994502-1.0293592.5639087-.6896706.6971963-1.4668368.3896097-2.295471-.3024601-.8183405-.9125069-1.3021393-1.7686228-1.46169-.1948048-.0360276-.3947361-.0360276-.5946674-.051468 0-.0463211 0-.0874955 0-.1286699.0307587-1.0396527-.6049202-1.940342-1.5943237-2.269737-.9586448-.3191013-2.024945.0566148-2.6093594.8955425-.4203684.6021751-.6715641 1.2764054-.8971275 1.9660761-.0615174.1904314-.1127818.3808629-.1691727.5712943-.1845519-.7668726-.4049889-1.5234516-.7023226-2.2594434-.2409429-.5970283-.5177708-1.1837631-1.0252886-1.6058003-.6869434-.5661476-1.4610362-.6999643-2.2863935-.3911565-.8151045.3036609-1.2969901.9161297-1.4559098 1.7756446-.0358851.1955782-.0358851.3963033-.0512644.5970283-.046138 0-.0871496 0-.1281611-.0051468-1.0355415-.0308808-1.932669.6073219-2.2607613 1.6006535-.3178395.9624509.0563909 2.0329844.892001 2.6197192.5997939.4220372 1.2713579.6742302 1.9583012.9006892.4767592.1544039.9586448.2882206 1.4405305.4014501-.4665063.1338167-.9330126.2830738-1.3892661.4683585-.5946673.2418994-1.1790818.5198263-1.5994501 1.0293591-.5639087.6896707-.6971963 1.4668369-.3896097 2.295471.0102529.0308808.0256322.0566148.0410116.0874955h-7.8178254c-2.7375205 0-5.3520064 1.1168548-7.361572 3.1395456-1.9685541 1.9815164-3.0963715 4.6475567-3.0963715 7.3084502v6.783477h-4.9623967c-1.50717421 0-3.26041767-.3911565-4.79835054-1.7499106.83048375.0977891 1.67122038-.277927 2.16848534-.9881848.42036832-.6021752.67156402-1.2764054.8971275-1.9660761.32809235-1.0036252.55365583-2.0278376.73820778-3.0674904.60492026.6176156 1.81476082 1.9197549 2.25563482 2.8616186.5177708 1.1014143.4818857 1.2764054.4818857 1.2764054l.9740241-.9778913.9740242-.9778912s-.1691726.0360276-1.2713579-.4837988c-.938139-.4426244-2.23512906-1.6572683-2.85030221-2.2645902 1.31749581-.2418994 2.61961231-.5352668 3.87046441-1.0396528.5946673-.2418994 1.1790818-.5198264 1.5994501-1.0293592.5639088-.6896706.6971963-1.4668368.3896097-2.2954709-.3024601-.8183406-.9125068-1.3021394-1.7686228-1.4616901-.1948048-.0360276-.3947361-.0360276-.5946674-.0514679 0-.0463212 0-.0874956 0-.1286699.0307587-1.0396528-.6049202-1.9403421-1.5943237-2.269737-.9586448-.3191014-2.02494493.0566147-2.60935942.8955424-.42036832.6021752-.67156402 1.2764054-.89712751 1.9660761-.06151731.1904314-.11278174.3808629-.16917261.5712943-.18455194-.7668726-.40498899-1.5234516-.69719623-2.2594434-.24094282-.5970283-.51777073-1.183763-1.02528858-1.6058003-.68694334-.5661475-1.46103622-.6999642-2.28639352-.3911565-.81510442.303661-1.29699005.9161297-1.45590978 1.7756446-.0358851.1955782-.0358851.3963033-.05126443.5970283-.04613798 0-.08714952 0-.12816107-.0051468-.44087409-.0102936-.85611596.0977892-1.21496696.3088078-.06664376-1.6778555.04613799-3.3248302.31783946-5.121062.13328751.077202.27170147.1389635.42036831.1904315.95864482.3191013 2.02494494-.0566148 2.60935943-.8955425.42036831-.6021751.67156402-1.2764054.8971275-1.966076.32809235-1.0036252.55365583-2.0278376.73820778-3.0674904.60492026.6176155 1.81476077 1.9197549 2.25563486 2.8616185.51777073 1.1014144.48188563 1.2764054.48188563 1.2764054l.97402415-.9778912.97402419-.9778912s-.1691727.0360275-1.27135788-.4837988c-.93813904-.4426245-2.23512909-1.6572683-2.85030224-2.2645903 1.31749582-.2418994 2.61961231-.5352667 3.87046437-1.0396527.59466735-.2418994 1.17908185-.5198264 1.59945015-1.0293592.5639087-.6896707.6971963-1.4668368.3896097-2.295471-.1281611-.3551289-.3178395-.6433495-.5587823-.8698085h5.6390872c-.2511957.2985142-.4254948.6639367-.5075179 1.1014143-.0358851.1955783-.0358851.3963033-.0512644.5970284-.046138 0-.0871495 0-.1281611-.0051468-1.0355414-.0308808-1.9326689.6073219-2.2607613 1.6006535-.3178394.9624508.0563909 2.0329844.8920011 2.6197191.5997938.4220373 1.2713578.6742303 1.9583012.9006893.4767592.1544039.9586448.2882206 1.4405304.4014501-.4665063.1338167-.9330126.2830738-1.389266.4683584-.5946674.2418994-1.1790819.5198264-1.5994502 1.0293592-.5639087.6896706-.6971962 1.4668368-.3896096 2.295471.3024601.8183405.9125068 1.3021393 1.7686228 1.46169.1948048.0360276.3947361.0360276.5946673.0463212 0 .0463211 0 .0874955-.0051264.1286699-.0307587 1.0396527.6049202 1.940342 1.5943237 2.269737.9586448.3191013 2.024945-.0566148 2.6093594-.8955425.4203684-.6021751.6715641-1.2764054.8971275-1.9660761.3280924-1.0036252.5536559-2.0278376.7382078-3.0674903.6049203.6176155 1.8147608 1.9197549 2.2556349 2.8616185.5177707 1.1014143.4818856 1.2764054.4818856 1.2764054l.9740242-.9778912.9740241-.9778913s-.1691726.0360276-1.2713578-.4837988c-.9381391-.4426244-2.2351291-1.6572683-2.8503023-2.2645902 1.3174959-.2418994 2.6196123-.5352668 3.8704644-1.0396528.5946674-.2418994 1.1790819-.5198263 1.5994502-1.0293591.5639087-.6896707.6971962-1.4668369.3896096-2.295471-.3024601-.8183406-.9125068-1.3021394-1.7686227-1.4616901-.1948049-.0360275-.3947362-.0360275-.5946674-.0514679 0-.0463212 0-.0874955.0051264-.1286699.0307587-1.0396528-.6049202-1.9403421-1.5943237-2.269737-.9586448-.3191014-2.024945.0566147-2.6093594.8955425-.4203684.6021751-.6715641 1.2764054-.8971275 1.966076-.0615174.1904315-.1127818.3808629-.1691727.5712944-.1845519-.7668726-.4049889-1.5234516-.6971962-2.2594434-.1896784-.4786521-.4101154-.9418637-.7484606-1.3227266l12.4111182-.0051468h.0615173c.1640461.1080827.3434716.200725.5382765.2624866.9586448.3191013 2.0249449-.0566148 2.6093594-.8955425.4203683-.6021751.671564-1.2764054.8971275-1.966076.3280923-1.0036252.5536558-2.0278376.7382078-3.0674904.6049202.6176155 1.8147608 1.9197549 2.2556348 2.8616185.5177708 1.1065612.4818857 1.2764054.4818857 1.2764054l.9740241-.9778912.9740242-.9778912s-.1691727.0360275-1.2713579-.4837988c-.938139-.4426245-2.2351291-1.6572683-2.8503022-2.2645903 1.3174958-.2418994 2.6196123-.5352667 3.8704644-1.0396527.5946673-.2418994 1.1790818-.51982642 1.5994501-1.02935921.5639088-.68967066.6971963-1.46683684.3896097-2.29547098-.3024601-.81834056-.9125068-1.30213937-1.7686228-1.46169005-.1948048-.03602757-.3947361-.03602757-.5946674-.05146795 0-.04632117 0-.08749554 0-.1286699.0307587-1.03965278-.6049202-1.94034206-1.5943237-2.269737-.9586448-.31910135-2.0249449.05661475-2.6093594.89554249-.4203683.60217512-.671564 1.27640538-.8971275 1.96607604-.0615173.19043145-.1127818.3808629-.1691726.57129435-.184552-.7668726-.404989-1.5234516-.7023227-2.25944341-.2409428-.59702833-.5177707-1.18376307-1.0252886-1.60580033-.6869433-.56614755-1.4610362-.69996425-2.2863935-.39115649-.8151044.30366096-1.2969901.91612967-1.4559098 1.77564459-.0358851.19557825-.0358851.39630329-.0512644.59702833-.046138 0-.0871496 0-.1281611-.0051468-1.0355415-.03088077-1.932669.60732192-2.2607613 1.60065353-.3178395.96245084.0563909 2.03298439.8920011 2.61971913.5997938.42203726 1.2713578.67423026 1.9583011.90068928.4767592.15440388.9586449.28822058 1.4405305.40145008-.4665063.1338167-.9330126.2830738-1.389266.4683584-.5946674.2418994-1.1790819.5198264-1.5994502 1.0293592-.5639087.6896707-.6971962 1.4668369-.3896097 2.295471.0820231.2213122.1896784.4168905.3178395.5867347l-12.3598538.0051468c.358851-.1698442.6869434-.427184.9227597-.7720194.4203683-.6021751.671564-1.2764053.8971275-1.966076.3280924-1.0036252.5536559-2.02783759.7382078-3.06749037.1948048.20072504.4613799.47865202.7382078.79260657.2409428.48894561.5844145.9109829 1.0099092 1.2403778.2050577.2882206.3844832.5712944.5075179.8286342.5177707 1.1014143.4818856 1.2764054.4818856 1.2764054l.9740241-.9778913.3998626-.4014501c1.8147608-.1286699 3.2552912-1.66241504 3.2552912-3.53584875 0-.95215725-.3691039-1.81681896-.9637712-2.45502166.2358163-.53011998.2460692-1.10141432.0256322-1.70358945-.3024602-.81834055-.9125069-1.30213936-1.7686228-1.46169004-.1948048-.03602757-.3947361-.03602757-.5946674-.05146796 0-.04632116 0-.08749553 0-.12866989.0102529-.28307378-.0410115-.55070717-.1281611-.80804696.3229659-.07205515.6613112-.13896349 1.0201622-.20072505 2.3684166-.38086289 4.9675231-.60217512 7.5768825-.61246871h.276828c2.6965089 0 5.3673856.21616543 7.9254806.63820269 3.3834523.56614756 6.7925369 2.97999484 7.4230893 6.60333917-.8151044.15440388-1.4866684.73084502-1.7583699 1.55433237-.3178394.96245084.0563909 2.03298434.8920011 2.61971914.3075866.2161654.6408053.3860097.9791506.5352668z" fill="#006e43"/><path d="m65.2366311 37.397426c-.1332875.8801021-.3229659 1.7447638-.5639087 2.6145723-.4870121.6279091-1.2303463.983038-1.9890598 1.1322951-.7279549.1389635-1.4405305.0823488-2.1069681-.277927-1.2457256-.6690834-1.4148982-2.0072504-.5177707-3.0211692.9278862-1.0447995 2.1223474-1.3639009 3.4808547-1.0705335.0358851.0102936.0717702.0154404.1127818.0205872.0256322.0051468.0563908.0051468.1025288.0154404 0-2.9336737 0-5.8673474 0-8.8113147-1.0509208.1904315-2.0967151.3808629-3.137383.5712944-1.4969213.277927-2.9887162.5661475-4.4856375.8234873-.2511957.0411744-.2665751.1492571-.2665751.3499822 0 3.3917385-.0102529 6.783477-.0153793 10.1752155-.0051264 1.6624151-.9278862 2.7329486-2.5786008 2.9954352-.0410115.0051468-1.3943924.051468-2.2197497-.4014501-.451127-.2470462-.7535871-.6279091-.8407367-1.1683226-.1076553-.6690835.0974024-1.2403779.5382765-1.7138831.9381391-1.0036252 2.0967152-1.3330201 3.4398432-1.0396528.0615173.0154404.1281611.0154404.2101842.025734 0-4.3387489 0-8.6672043 0-13.0162469 3.1732681-.5146795 6.3414098-1.0345059 9.5300573-1.5543323.128161.4065969.2460692.8234873.358851 1.2712586.4254947 1.713883.7382077 3.2888026.938139 4.7813734-.0051264 2.4292877-.0051264 4.8637221.0102529 7.2981566zm-32.2863372-2.5682512c1.122691 1.7447638 4.3318442 7.2209547 5.4801674 14.1897164h-3.3475672c-.1281611-.6793771-.2973337-1.3639009-.5075178-2.069012-1.1637026-3.8858309-2.4043017-6.253357-3.3578201-7.6481387v23.4385086l.9740241 1.6778555.3024602-.4580649c.0410115-.0617615 3.2347854-4.9975388 2.9425782-11.8839517h3.3475672c.1127817 1.739617.0768966 3.5512891-.1640462 5.3938421-.1332875.3757161-.2101842.7720194-.2101842 1.1940566 0 .0360276.0051265.0720552.0051265.1080827-.2255635 1.2455247-.5382765 2.5013429-.9791506 3.7623079-.4921385 1.4153688-1.0047828 2.6660403-1.5328064 3.7674546-1.0150357.1235231-2.0146921.1852846-3.0040956.1852846-2.5222099 0-4.9880289-.3808629-7.7511816-1.1992034-1.1585761-.3448353-2.6349916-.8955425-3.9832461-1.7499106-.6561847-1.8476998-1.4559098-4.1328772-2.4350604-6.9636149-.3947361-1.1477355-.7945986-2.2903242-1.1790818-3.4071789v-10.7259227c0-.5661476.0666437-1.1322951.1896784-1.6830023.5587822-2.4138473 2.2300026-4.3541893 4.3574764-5.3011998.0256322.025734.0563909.0566148.0871495.0823488.4767592.4632116.8253573.8029001 1.6763468.6639366.5536559-.0874955 1.2457257-.6330559 1.9634277-1.3690477h7.1257556zm-12.5802908 4.4828593c-.7382078-.3448354-1.122691-.6382027-1.3687603-.8286342-.0205058-.0154404-.0410115-.0308807-.0615173-.0463211v3.1189583l1.435404 2.4756088v-4.7196118zm2.4555661.7720194c-.2717015-.0205872-.543403-.0669084-.7997251-.1492571-.2255635-.0720552-.4357476-.1441103-.6305525-.2110187v6.0629256l1.435404 2.4704621v-8.1731119zm2.4555661-.4014501c-.4716327.1646975-.9535183.2933673-1.435404.3602757v9.9847841l1.435404 2.470462zm2.4555662-1.1940567c-.4203684.2573398-.9073804.5249732-1.435404.7720194v15.0029101l1.435404 2.4704621zm2.4606925-.4837988c-.3485981-.3654225-.5639087-.5146796-.5946673-.5352668l-.2050577-.1389635-.1948049.1544039c-.0102529.0051468-.1691726.1338167-.4357476.3242482v20.6901196l1.435404 2.4756088v-22.9701502zm13.5184299 5.8210262v.2624866c-.4408741-.0205872-.8561159-.0823487-1.2662314-.0463212-.9637712.0926424-1.7634963.504386-2.2915199 1.3536074-.5126443.8286341-.2614486 1.8271125.579288 2.3057645.6408054.3602757 1.3226223.4271841 2.0403243.3088078 1.389266-.2367526 2.2402555-1.2043503 2.2402555-2.6094256.0102529-3.4998212.0153793-6.9996424.0256322-10.4994636 0-.0926424 0-.1852847 0-.329395 2.2658878.3242482 3.5782571 1.8579934 4.7880977 3.5512892-.1025289-1.2300842-.6202996-2.2645902-1.5584387-3.0623436-.5895409-.4992392-1.2405991-.9264232-1.8506459-1.4050752-.1179081-.0926424-.2306899-.1852847-.3485981-.277927-.7382077.4426244-1.5328064.7926066-2.3684166 1.0396528.0102529 3.1395455.0102529 6.2739442.0102529 9.4083429z" fill="#ffcfa1"/></g></svg>