<svg height="91" viewBox="0 0 295 91" width="295" xmlns="http://www.w3.org/2000/svg"><g fill="none"><path d="m120.968738 32.0827935h-13.729771c.045658.6778202.182629 1.3624185.42396 2.0605733s.600066 1.3353058 1.08925 1.9046747c.489185.5761472 1.095773 1.0506213 1.819766 1.4369788.723992.3795793 1.519732.5761472 2.387219.5761472 1.213177 0 2.289382-.2846845 3.228616-.8608316.939233-.5761472 1.519732-.9421701 2.061096-2.1758028h2.367652c-.626156 1.7081068-1.604525 3.0162998-2.935106 3.931357-1.330581.9082791-2.909015 1.3691968-4.722258 1.3691968-1.037071 0-2.048052-.2101243-3.032943-.6235946-.98489-.4134703-1.8589-1.0031738-2.628549-1.7691107-.76965-.7659368-1.369716-1.6945504-1.800198-2.7858409-.430483-1.0912905-.652246-2.2639194-.652246-3.524665 0-.94217.143494-1.9250093.437005-2.9349613.29351-1.0099521.834874-1.9995696 1.624091-2.9688525.789217-.9692828 1.754541-1.6877722 2.889448-2.1622463 1.134908-.4744742 2.243725-.704933 3.326453-.704933 1.063161 0 2.061096.1965678 3.00033.5897035s1.767586.9625047 2.485056 1.7013287c.71747.7456022 1.278401 1.6335466 1.689316 2.6638333.410915 1.0370649.639201 2.14869.678336 3.3416535v.9353919zm-10.031538-6.547743c-.841397.2914627-1.611047.840497-2.302427 1.6538812-.69138.8066061-1.128385 1.7962235-1.297969 2.9688524h11.133833c-.130449-.9896174-.450049-1.8911183-.958801-2.6977243-.508751-.806606-1.160997-1.4030878-1.963259-1.7894453-.802262-.3795793-1.611047-.5761471-2.432876-.5761471-.613111 0-1.337104.1491204-2.178501.4405831z" fill="#3dae2b"/><path d="m141.137804 39.9080414h-2.693027v-2.5536013c-.70314.9367482-1.610191 1.6681818-2.728183 2.1878846-1.117993.5197028-2.376614.7827622-3.782894.7827622-.745329 0-1.525814-.1090734-2.327394-.3208042s-1.546908-.5838636-2.221923-1.1163986c-.675014-.5325349-1.244558-1.2383042-1.694568-2.1237237-.457041-.8854196-.682046-1.9312413-.682046-3.1438811v-9.4188111h2.693027v8.9696852c0 1.4692832.435947 2.6498426 1.314872 3.5416783.871894.8918356 2.025044 1.3409615 3.445387 1.3409615 1.821133 0 3.269601-.5453671 4.359469-1.6425174 1.089867-1.0971504 1.624253-2.6434266 1.624253-4.6452447v-7.570979h2.693027z" fill="#3dae2b"/><path d="m157.267839 24.3251855-.209074 2.3619212-1.003553-.0325333c-.808419 0-1.623806.1236267-2.446163.3708802-.822356.2472534-1.554114.6766936-2.202242 1.2818139-.648129.6051203-1.177782 1.3924274-1.59593 2.3619212-.418147.9694938-.627221 2.1406944-.627221 3.5005884v6.1553098h-2.669174v-15.967368h2.669174v3.9170153c.738727-1.2492806 1.693497-2.2448011 2.86431-2.9800548s2.501915-1.0996273 4.007246-1.0996273c.480869 0 .885078.0390401 1.212627.1301334z" fill="#3dae2b"/><path d="m170.739978 23.5036155c1.066564.428356 2.005677 1.0334938 2.803923 1.8086141.798245.7751204 1.422084 1.6998254 1.871517 2.774115.442725 1.0742896.670795 2.2301708.670795 3.4676436 0 1.2374729-.221363 2.4001534-.670795 3.4880416-.442725 1.0810889-1.066564 2.0193925-1.871517 2.8081114-.804954.788719-1.737359 1.4006561-2.803923 1.8290121-1.066563.428356-2.193499.6459336-3.374098.6459336-1.200722 0-2.334365-.2175776-3.407637-.6459336s-2.005676-1.0402931-2.803922-1.8290121c-.798246-.7887189-1.422085-1.7270225-1.871518-2.8081114-.449432-1.0810889-.670795-2.2437694-.670795-3.4880416 0-.9247049.147575-1.8834064.449433-2.8761044s.858617-1.9717974 1.670279-2.9304989 1.817854-1.6794274 3.018577-2.1689771c1.200722-.4895497 2.401445-.7275252 3.608876-.7275252 1.187306.0135986 2.314242.2243769 3.380805.6527329zm-.999484 14.081353c.757998-.3127679 1.422085-.7615218 2.005676-1.3394624.576884-.5779406 1.033024-1.2714693 1.355006-2.0805862.321981-.8091168.482972-1.6794274.482972-2.6041324 0-.9247049-.160991-1.7882162-.482972-2.5905338-.321982-.8023175-.771414-1.4822476-1.355006-2.0465897-.576883-.564342-1.247678-1.0062965-2.005676-1.3190644s-1.549536-.4759511-2.367906-.4759511c-.825077 0-1.576367.135986-2.25387.4079581-.677503.271972-1.287926.632335-1.837978 1.0810889-.543344.4487539-1.04644 1.1014868-1.50258 1.9446002-.456141.8431133-.684211 1.8426106-.684211 2.9984918 0 1.1762792.281734 2.277766.838494 3.3180591.556759 1.0402931 1.341589 1.829012 2.354489 2.3661568 1.012901.5371448 2.039217.8091169 3.085656.8091169.81837.0067993 1.609908-.156384 2.367906-.4691518z" fill="#3dae2b"/><g fill="#f18a00"><path d="m195.118278 24.8144177c1.00956.4149702 1.903936 1.0136157 2.683127 1.7959365.772415.7823208 1.382217 1.714303 1.822629 2.8095522.440413 1.0952491.657231 2.2721318.657231 3.5374507s-.216818 2.4422015-.657231 3.5374507c-.440412 1.0952491-1.043438 2.0340341-1.822629 2.8095521-.772415.7755181-1.666791 1.3741636-2.683127 1.7959365-1.009561.4149702-2.059775.6258567-3.137091.6258567-1.348339 0-2.60182-.2721116-3.760443-.809532s-2.107203-1.2993328-2.852517-2.265329v8.3946426h-2.561166v-22.4492063h2.561166v2.6734964c.738538-.9727989 1.693894-1.7279086 2.852517-2.265329s2.412104-.8096915 3.760443-.8096915c1.084092-.0066432 2.12753.2042432 3.137091.6192134zm.880824 12.816456c1.192501-1.197291 1.788752-2.7551299 1.788752-4.6735166 0-.7210957-.108409-1.4625998-.318452-2.2177095-.216818-.7551097-.575924-1.4489942-1.077316-2.0816537-.501393-.6326594-1.172175-1.1564742-1.992019-1.5714444s-1.761649-.6258567-2.818639-.6258567c-.765639 0-1.524504.1496614-2.276592.455787-.752089.3061255-1.422871.741504-2.00557 1.3197412-.582699.5782371-1.050214 1.2721217-1.402544 2.0816536-.345554.809532-.521719 1.6938947-.521719 2.6394825 0 1.1768826.284574 2.2789346.860498 3.3197614s1.36189 1.8231476 2.357899 2.3537653c.99601.5306176 1.998795.7959264 2.988028.7959264 1.748098 0 3.225173-.5986455 4.417674-1.7959365z"/><path d="m209.08678 47.0459347h-2.81799l2.684752-6.1004932-7.328108-16.7503894h2.8513l5.835838 13.5789639 5.969077-13.5789639h2.81799z"/><path d="m232.534568 39.3279575c-1.258467.8240166-1.698254.9971294-2.997317.9971294-1.684723 0-3.017616-.4985647-4.005445-1.5026186-.987829-1.004054-1.481744-2.416654-1.481744-4.2585736v-9.4727295h-3.606254v-2.2089187h3.606254v-5.4080422h2.59136v5.4080422h5.893146v2.2089187h-5.893146v9.3065412c0 1.0802236.28417 1.9250138.838979 2.5343707.561574.6093568 1.299063.9140353 2.225999.9140353.426255 0 .906637-.0969432 1.434382-.2908295.527744-.1938862.994595-.4431686 1.400552-.7409225v2.5135971z"/><path d="m249.439466 24.1110415c.810378.2351547 1.550287.6484568 2.226776 1.2399064.676489.5914497 1.247277 1.3752985 1.69827 2.3586726.458039.983374.683535 2.1448956.683535 3.4916905v10.4608196h-2.663675v-9.9620067c0-1.6318309-.443946-2.9501222-1.331838-3.9548739-.887892-1.0047518-2.04356-1.5106906-3.474053-1.5106906-1.825111 0-3.276743.6128273-4.368991 1.8456078s-1.627802 2.9572481-1.627802 5.1805285v8.4085608h-2.663675v-25.5392217h2.663675v10.9596325c.704676-1.061759 1.606662-1.8883632 2.72005-2.465561 1.113388-.5771979 2.381805-.8693597 3.80525-.8693597.746957 0 1.529147.1140144 2.332478.3562949z"/><path d="m268.864356 23.5036155c1.066564.428356 2.005677 1.0334938 2.803923 1.8086141.798245.7751204 1.422085 1.6998254 1.871517 2.774115.442725 1.0742896.670795 2.2301708.670795 3.4676436 0 1.2374729-.221362 2.4001534-.670795 3.4880416-.442724 1.0810889-1.066564 2.0193925-1.871517 2.8081114-.804954.788719-1.737359 1.4006561-2.803923 1.8290121-1.066563.428356-2.193499.6459336-3.374097.6459336-1.200723 0-2.334366-.2175776-3.407638-.6459336s-2.005676-1.0402931-2.803922-1.8290121c-.798246-.7887189-1.422085-1.7270225-1.871518-2.8081114-.449432-1.0810889-.670794-2.2437694-.670794-3.4880416 0-.9247049.147574-1.8834064.449432-2.8761044s.858617-1.9717974 1.670279-2.9304989 1.817854-1.6794274 3.018577-2.1689771c1.200722-.4895497 2.401445-.7275252 3.608876-.7275252 1.187306.0135986 2.314242.2243769 3.380805.6527329zm-1.006192 14.081353c.757998-.3127679 1.422085-.7615218 2.005677-1.3394624.576883-.5779406 1.033024-1.2714693 1.355005-2.0805862.321982-.8091168.482972-1.6794274.482972-2.6041324 0-.9247049-.16099-1.7882162-.482972-2.5905338-.321981-.8023175-.771414-1.4822476-1.355005-2.0465897-.576884-.564342-1.247679-1.0062965-2.005677-1.3190644s-1.549536-.4759511-2.367905-.4759511c-.825078 0-1.576368.135986-2.253871.4079581-.677503.271972-1.287926.632335-1.837978 1.0810889-.543343.4487539-1.04644 1.1014868-1.50258 1.9446002-.45614.8431133-.684211 1.8426106-.684211 2.9984918 0 1.1762792.281734 2.277766.838494 3.3180591s1.341589 1.829012 2.35449 2.3661568c1.0129.5371448 2.039216.8091169 3.085656.8091169.825077.0067993 1.616615-.156384 2.367905-.4691518z"/><path d="m289.764553 24.5158563c.810377.2117308 1.550287.5838637 2.226776 1.1163986.676489.532535 1.247277 1.2383042 1.69827 2.1237238.458039.8854195.683535 1.9312412.683535 3.143881v9.4188111h-2.663675v-8.9696852c0-1.4692832-.443946-2.6562587-1.331838-3.5609265s-2.04356-1.3602098-3.474053-1.3602098c-1.825111 0-3.276743.5517832-4.368991 1.6617657s-1.627802 2.6626748-1.627802 4.664493v7.5709789h-2.663675v-15.7450697h2.663675v2.6177622c.704676-.9559965 1.606661-1.7002622 2.72005-2.219965 1.113388-.5197028 2.381805-.7827623 3.80525-.7827623.746957 0 1.529147.1026574 2.332478.3208042z"/></g><g fill="#3dae2b" transform="translate(104.845226 53.766783)"><path d="m1.25474751 1.12836899c.77904653-.75459676 1.79249645-1.12836899 3.04034974-1.12836899.45501833 0 .91693088.06347076 1.39952607.19041227.4825952.12694151.94450775.36671992 1.40642029.72638754.46191255.35261531.79972919.8039629 1.02723835 1.35404279.22750916.55007988.33781664 1.10721207.33781664 1.69255349 0 .47955682-.08273061.95911364-.24819182 1.45982738s-.45501833 1.00847979-.87556557 1.53740276c-.42054724.52892296-1.03413256 1.17773513-1.84075597 1.94643651l-3.04034974 2.89849786h6.13585322v1.3893043h-8.51435811v-.9873229l4.50881798-4.30190674c.66873906-.62060295 1.15133425-1.10015977 1.46157402-1.45982739.31023977-.35966761.54464315-.73343984.71699858-1.12836899.17235543-.40198145.25508603-.84627674.25508603-1.33288587 0-.78280599-.25508603-1.42456586-.76525809-1.91117499-.51017207-.48660912-1.17201691-.73343984-1.99242875-.73343984-.85488292 0-1.54430463.26798764-2.05447669.81101521-.46191255.48660913-.73768123 1.14952592-.81351762 1.98875035h-1.39952607c.05515374-1.26236281.47570098-2.25673798 1.25474751-3.01133475z"/><path d="m18.5109729.47955682c.6480564.32440609 1.1995938.78280599 1.6615063 1.38225202.4619126.59944603.8135176 1.31172895 1.0686037 2.14390109.255086.83217213.3791819 1.73486732.3791819 2.71513789 0 .98027056-.1240959 1.88296575-.3791819 2.71513789-.2481918.83217209-.6066911 1.54445509-1.0686037 2.14390109-.4619125.599446-1.0134499 1.0578459-1.6615063 1.382252s-1.3581608.4795568-2.1234189.4795568-1.4753624-.162203-2.1234188-.4795568c-.6480564-.3244061-1.206488-.782806-1.6684006-1.382252-.4619125-.599446-.827306-1.311729-1.0754978-2.14390109-.2481918-.83217214-.379182-1.73486733-.379182-2.71513789 0-.98027057.1240959-1.88296576.379182-2.71513789.255086-.83217214.6135853-1.54445506 1.0754978-2.14390109.4688068-.59944603 1.0203442-1.05784593 1.6684006-1.38225202.6480564-.32440608 1.3581607-.47955682 2.1234188-.47955682s1.4753625.15515074 2.1234189.47955682zm-.8755656 11.27663758c.4274415-.1692553.8479887-.4866091 1.2547476-.9661659.4067588-.4795568.7169985-1.07900285.9169308-1.8124427.1999323-.73343984.3033456-1.48803661.3033456-2.25673798 0-.76870138-.0896248-1.48803661-.2619803-2.14390109-.1723554-.65586448-.4274414-1.22004898-.7514696-1.69255349-.3240282-.47250452-.7238928-.83217213-1.1858054-1.09310746-.4619125-.25388303-.9720846-.38787684-1.5098335-.38787684-.3998646 0-.8204119.08462767-1.2547475.25388302-.4343357.16925535-.854883.48660913-1.2616418.96616595s-.7169985 1.08605516-.9169308 1.82654731-.3033456 1.49508891-.3033456 2.2708426c0 .77575368.0896248 1.4809843.2619803 2.12979647.1723554.64881217.4274414 1.21299671.7514696 1.67844891.3240282.4725045.7238928.8321721 1.1858054 1.0931074.4619125.2538831.9720846.3878769 1.5305162.3878769.3998646-.0070523.8135176-.09168 1.240959-.2538831z"/><path d="m25.3362478 1.12836899c.7790466-.75459676 1.7924965-1.12836899 3.0403498-1.12836899.4550183 0 .9169309.06347076 1.399526.19041227.4825952.12694151.9445078.36671992 1.4064203.72638754.4619126.35261531.7997292.8039629 1.0272384 1.35404279.2275091.55007988.3378166 1.10721207.3378166 1.69255349 0 .47955682-.0827306.95911364-.2481918 1.45982738s-.4550183 1.00847979-.8755656 1.53740276c-.4205472.52892296-1.0341325 1.17773513-1.8407559 1.94643651l-3.0403498 2.89849786h6.1358532v1.3893043h-8.5143581v-.9873229l4.508818-4.30190674c.6687391-.62060295 1.1513343-1.10015977 1.461574-1.45982739.3102398-.35966761.5446432-.73343984.7169986-1.12836899.1723554-.40198145.255086-.84627674.255086-1.33288587 0-.78280599-.255086-1.42456586-.765258-1.91117499-.5101721-.48660912-1.172017-.73343984-1.9924288-.73343984-.8548829 0-1.5443046.26798764-2.0544767.81101521-.4619125.48660913-.7376812 1.14952592-.8135176 1.98875035h-1.3995261c.0551538-1.26236281.475701-2.25673798 1.2547475-3.01133475z"/><path d="m37.4337739 1.12836899c.7790465-.75459676 1.7924965-1.12836899 3.0403497-1.12836899.4550184 0 .9169309.06347076 1.3995261.19041227s.9445078.36671992 1.4064203.72638754c.4619126.35261531.7997292.8039629 1.0272384 1.35404279.2275091.55007988.3378166 1.10721207.3378166 1.69255349 0 .47955682-.0827306.95911364-.2481918 1.45982738s-.4550184 1.00847979-.8755656 1.53740276c-.4205472.52892296-1.0341326 1.17773513-1.840756 1.94643651l-3.0403497 2.89849786h6.1358532v1.3893043h-8.5143581v-.9873229l4.508818-4.30190674c.668739-.62060295 1.1513342-1.10015977 1.461574-1.45982739.3102398-.35966761.5446432-.73343984.7169986-1.12836899.1723554-.40198145.255086-.84627674.255086-1.33288587 0-.78280599-.255086-1.42456586-.7652581-1.91117499-.510172-.48660912-1.1720169-.73343984-1.9924287-.73343984-.8548829 0-1.5443047.26798764-2.0544767.81101521-.4619126.48660913-.7376812 1.14952592-.8135176 1.98875035h-1.3995261c.0551537-1.26236281.475701-2.25673798 1.2547475-3.01133475z"/></g><path d="m56.3290245 74.7726272c2.2188404 0 4.0242322 1.8194778 4.0242322 4.0748001 0 2.2691585-1.8053918 4.1093908-4.0242322 4.1093908-2.2119495 0-4.0104505-1.8402323-4.0104505-4.1093908 0-2.2553223 1.798501-4.0748001 4.0104505-4.0748001zm12.0244608-51.8170665v9.5539879c0 7.3886017-6.2430724 13.6218696-13.3681684 13.6218696h-21.3752879c-5.037181 0-9.3232639 3.7150554-10.4257933 8.5024266-.179161.7817528-.2756323 1.5911783-.2756323 2.4144401v20.4500999c0 5.8250961 5.0440718 9.2495885 10.7014256 10.9237848 6.7736647 1.9993501 13.2648063 2.3590947 21.3752879 0 5.3886122-1.5704238 10.7014256-4.7112713 10.7014256-10.9237848v-8.191109h-21.3821788v-2.7257576h21.3752879 10.6945348c6.2224001 0 8.5377117-4.3584449 10.6945348-10.889194 2.2464035-6.7313759 2.1430414-13.1998615 0-21.8337332-1.5297595-6.2263498-4.4652439-10.9030303-10.6945348-10.9030303z" fill="#f18a00"/><path d="m32.2594305 6.58717896c2.2050587 0 4.0104505 1.8333141 4.0104505 4.10939084 0 2.2484041-1.8053918 4.0748-4.0104505 4.0748-2.2188403 0-4.0173413-1.8263959-4.0173413-4.0748 0-2.26915857 1.798501-4.10939084 4.0173413-4.10939084zm11.5696674-6.58609443c-3.6590193.01383633-7.1526592.33207199-10.2259597.87168897-9.0545224 1.61193277-10.7014256 4.98107982-10.7014256 11.1797569v8.1841909l21.3959603-.0069182v2.7257576l-21.3959603.0069182h-8.0277919c-6.22240005 0-11.66613875 3.7565644-13.36816845 10.9099484-1.97077122 8.1772727-2.04657011 13.2828796.00689081 21.8337333 1.52286868 6.3647131 5.15432475 10.8891939 11.37672484 10.8891939h7.3593834v-9.80996c0-7.0911206 6.1052563-13.3520612 13.3681685-13.3520612l21.3752879-.0069181c5.9467677 0 10.7014256-4.9257345 10.6945422-10.9168666l-.0068983-20.4708545c0-5.82509612-4.892474-10.19045914-10.7014255-11.17283877-3.6796918-.60879864-7.4903088-.8855253-11.1493282-.8647708z" fill="#3dae2b"/><path d="m65.6867425 17.0336103v-4.987998c0-.3528265-.0206725-.6918167-.0620173-1.0308068-.0068908-.0553454-.0137816-.1176089-.0206724-.1729542-.0206725-.1591178-.0344541-.3251538-.0620173-.4842716-.0068908 0-.0137816 0-.0137816 0-.8406787-4.96724353-5.3128134-8.60619907-10.5498278-9.4848062-3.5556572-.59496232-7.2284581-.87168897-10.7703337-.87168897-.1240345 0-.2480691 0-.3789945 0-3.6590193.01383633-7.1526592.33207199-10.2259597.87168897-.9578224.17295416-1.8260643.35974465-2.6253981.57420781-.0068908 0-.0206724.00691817-.0275632.00691817-6.7323199 1.78488693-8.0484643 5.05717965-8.0484643 10.59171282v8.1841908l18.0332458-.0069181h3.3627145v2.7188394l-17.5026535.0069182h-3.0870822-.7993338-8.0277919c-.2342875 0-.4616842.0138363-.6890808.0276726 0 0-.0068908 0-.0068908-.0069181-.0344541 0-.0620173.0069181-.0964714.0069181-.2894139.0138364-.5788279.041509-.861351.0691817-.0826897.0069182-.1722702.0207545-.2549599.0276726-.2756324.0345909-.5512647.083018-.8268971.1314452-.0895805.0138363-.179161.0345908-.2687415.0553453-.2618507.0553454-.5237014.1176089-.7786613.1867905-.0964714.0276727-.1998335.0553454-.2963048.083018-.2411783.0691817-.4892474.1521997-.7235349.2352177-.11025293.041509-.21361506.0760998-.31697719.1176088-.22739668.0899362-.44790255.1798723-.66840842.2767267-.11714374.0553453-.23428749.1106906-.34454042.166036-.20672426.0968543-.4065577.2006268-.60639115.3113175-.12403455.0691816-.2480691.1452815-.37210366.2213813-.17916102.1106906-.36521285.2213813-.53748306.3389901-.13092536.0899362-.26185072.1867905-.39277608.2767267-.1584886.1176088-.31697719.2352177-.47546579.3597447-.13781617.1106906-.27563234.2282994-.41344851.3528264-.13781617.1176089-.27563233.2421359-.4065577.3666629-.14470697.1383633-.28252314.2836448-.42033931.4289263-.11714375.124527-.23428749.2421358-.34454043.3666628-.15848859.1867905-.29630476.3597447-.43412093.539617-.09647132.1176088-.19294264.2352176-.28252315.3597446-.15159779.2006269-.28941396.41509-.42723013.6295532-.07579889.1106906-.15159778.2144631-.22050587.332072-.15159778.2421358-.28941395.4981079-.42723012.7609983-.04823566.0968543-.10336213.1867905-.1584886.2836448-.15159778.3043993-.29630476.622635-.43412093.9408706-.02756324.0622635-.05512647.1176089-.0826897.1798724-.31697719.7817528-.59260953 1.6119327-.79933379 2.497458-.12403455.5050262-.23428749.9892978-.33764961 1.4735695-.01378162.0553453-.02067243.1106906-.03445405.166036-.0826897.3666628-.15848859.7264075-.22739668 1.0792339-.04134485.207545-.0826897.4081719-.11714374.6157169-.03445404.1937086-.07579889.3943354-.11025294.5880441-.04823565.2559722-.08958051.5050261-.13092536.7540801-.0068908.0553454-.02067242.1106907-.02756323.166036-.44101174 2.7395939-.59950034 5.2439702-.46168417 7.8521189 0 .0553454.00689081.1106907.01378162.166036.01378161.2767267.03445404.5603715.05512647.8440163.01378161.1383633.02067242.2767267.03445404.41509.02067242.2559722.04823566.5119443.07579889.7679165.02067243.207545.04823566.41509.0757989.622635.02756323.2006268.04823565.3943354.07579889.5949623.04823566.3182356.09647132.6503076.15159779.9754614.01378161.1037725.03445404.2006269.04823565.3043994.00689081.041509.01378162.0760998.02067243.1106906.18605183 1.0861521.42033932 2.2276496.69597166 3.4314106.06890808.290563.13092536.5811259.19983344.8786071.35832204 1.5012421.84067864 2.8917936 1.44017897 4.1508999.04134486.083018.0757989.1729541.11714375.2559721.00689081.0207545.01378162.0345908.02756323.0553453h.00689081c.24806911.498108.52370145.9685433.8131154 1.4251423.00689081.0138364.00689081.0276727.01378162.0345909.04134485.0691816.08958051.124527.13092536.1937086.06201728.0899362.11714374.1729542.17916102.2628903.13092536.1798724.26185072.3597447.39966689.5326989.06201728.0760998.11714375.1521996.17227021.2213813.01378162.0138363.02756324.0345908.04134486.0484272.0068908 0 .0068908.0069181.01378161.0069181 1.38505251 1.66036 3.14220867 2.8295301 5.29214091 3.3691471.1171438.0276726.2342875.0622635.358322.0899361.2067243.041509.4203394.0760999.6270636.1106907.0689081.0138363.1378162.0276727.2136151.0345908-.0068908 0-.0137816-.0069181-.0206724-.0069181.4961382.0622635 1.0129488.1106906 1.5435411.1106906h7.3593834v-9.80996c0-7.0911206 6.1052563-13.3520612 13.3681685-13.3520612h10.8874774 9.7711664s0 0 0-.0069181h.7097533c.9509315 0 1.8605183-.1383634 2.7356509-.373581 0 .0069181.0068908.0069181.0068908.0138363.0895806-.0276727.1722703-.0622635.2618508-.0899361.1584886-.0484272.3100864-.0968544.4616841-.1521997.1860519-.0622635.3721037-.1314452.5512647-.207545.1584886-.0691817.3169772-.1383633.468575-.2144632.1171437-.0553453.2342875-.0968543.3445404-.1591178-.0068908 0-.0068908-.0069182-.0137816-.0069182 3.4936399-1.8056414 5.8778596-5.4999423 5.8709688-9.7338601v-7.7345101-6.0464774l.0206725-1.6672781c-.0068909 0-.0068909 0 0 0zm-32.490162-2.3729311c-.1309254.0345908-.2687416.0553453-.4065577.0760998-.0206725 0-.0413449.0069182-.0620173.0069182-.1515978.0207545-.3031956.0276726-.4616842.0276726h-.0068908c-.0206724 0-.0413448 0-.0620173 0-.1102529 0-.213615-.0069181-.3169772-.0138363-.0620172-.0069182-.1240345-.0138363-.1860518-.0276727-.0620173-.0069181-.1240345-.0138363-.1860518-.0276726-.0689081-.0138364-.1378162-.0276727-.2067243-.0484272-.0482356-.0138363-.0964713-.0276727-.1447069-.041509-.0757989-.0207545-.144707-.0484272-.2205059-.0691817-.0413449-.0138363-.0757989-.0276726-.1171438-.0415089-.0757989-.0276727-.1584886-.0622635-.2342875-.0968544-.0275632-.0138363-.0551264-.0276726-.0826897-.041509-.0826897-.041509-.1653794-.083018-.2480691-.1314451-.0068908-.0069182-.0206724-.0138364-.0275632-.0207545-.9784948-.5880442-1.6882481-1.577342-1.9087539-2.7465121 0 0-.0068909-.0069182-.0068909-.0069182-.034454-.1867905-.0551264-.373581-.0620172-.5603715h.0068908c0-.0691816-.0068908-.1314451-.0068908-.2006268 0-2.26915857 1.798501-4.10939084 4.0104505-4.10939084.0275632 0 .0551265.00691817.0895805.00691817.110253 0 .2273967.00691817.3376496.0207545.0689081.00691816.1309254.0207545.1929427.02767266.0689081.01383634.1447069.0207545.213615.03459084.0689081.01383633.1378162.03459083.2067243.05534533.0620173.0207545.1309253.03459083.1929426.05534533.0689081.0207545.1378162.04842716.1998335.07609983.0620172.0207545.1240345.04842716.179161.07609983.0620173.02767267.1309254.0622635.1929426.09685433.0620173.02767267.1171438.0622635.1722702.09685433.0620173.03459083.1171438.06918166.1791611.11069066.0551264.03459083.1102529.07609983.1653794.11760883.0551264.041509.1102529.083018.1653794.124527.0551264.041509.1033621.08993616.1515978.13144516.0482356.04842716.1033621.08993616.1515977.13836333.0482357.04842716.0895806.09685433.1378162.14528149.6684084.73332564 1.0818569 1.71570528 1.0818569 2.79493922 0 1.9163321-1.3161444 3.5282649-3.0733005 3.9641094zm-31.80108118 37.1574718c.55815548.2836449 1.15076501.5050262 1.74337454.6987348.64084519.207545 1.28858119.3874174 1.93631719.539617-.62706357.1798724-1.25412715.3804992-1.8674091.6295532-.45479336.1798723-.8958051.3874173-1.295472.6503076-.19983344-.8647708-.37210365-1.7018689-.51681063-2.5182126zm53.58981758-9.0973888h-.5305923c.2480691-.9339525.4616842-1.8748231.6339544-2.8295301.5581555.5672897 1.4815238 1.5635056 2.2050587 2.5458853-.7373165.1798723-1.509087.2836448-2.3084208.2836448zm10.0054539-23.5978657c-.2825232.1937087-.5443739.41509-.7717706.6848985-.7579889.9270343-.9371499 1.9716774-.5237014 3.0855022.2618507.7194893.7028625 1.2383518 1.295472 1.577342v8.025073c0 4.1508999-2.4393462 7.7275919-5.9260953 9.3256884-1.1645466-.7402439-2.5151451-2.0062683-3.2180076-2.6980849 1.7709378-.3251539 3.5212032-.7194894 5.2025604-1.3974697.7993338-.3251538 1.584886-.6987348 2.1499323-1.3836333.7579889-.9270343.9371499-1.9716774.5237014-3.0855022-.4065577-1.0999884-1.2265639-1.7502961-2.3773289-1.9647592-.2618507-.0484272-.5305922-.0484272-.7993338-.0691817 0-.0622635 0-.1176088 0-.1729542.0413449-1.3974696-.8131154-2.6081487-2.1430414-3.0509114-1.2885812-.4289263-2.7218694.0760999-3.5074215 1.203761-.5650463.8094255-.9026959 1.7157053-1.2058915 2.6427396-.0826897.2559721-.1515978.5119443-.2273967.7679164-.2480691-1.0308067-.5443739-2.0477772-.9440408-3.037075-.323868-.8025073-.6959716-1.5911783-1.3781617-2.1584679-.9233683-.7609983-1.9638804-.9408707-3.0733005-.5257807-1.0956386.4081718-1.7433746 1.2314336-1.9569896 2.3867674-.0482357.2628904-.0482357.5326988-.0689081.8025073-.0620173 0-.1171438 0-.1722702-.0069181-1.3919434-.041509-2.5978348.8163436-3.0388466 2.1515497-.4272301 1.2936971.0757989 2.7326758 1.1990007 3.5213467.8062246.5672897 1.7089205.9062798 2.6322888 1.2106792.6408452.207545 1.2885812.3874173 1.9363172.5396169-.6270636.1798724-1.2541271.3804992-1.8674091.6295532-.7993338.3251538-1.5848859.6987348-2.1499322 1.3836333-.757989.9270343-.93715 1.9716774-.5237015 3.0855022.0137816.041509.0344541.0760998.0551265.1176088h-10.5084829c-3.6796918 0-7.1940041 1.5012421-9.895201 4.2200815-2.6460705 2.6634941-4.1620483 6.2471043-4.1620483 9.8237964v9.1181433h-6.6703027c-2.0258976 0-4.38255415-.5257806-6.44979669-2.3521766 1.11631097.1314452 2.24640356-.373581 2.91481199-1.3282879.56504629-.8094255.9026959-1.7157053 1.2058915-2.6427396.4410117-1.3490425.7442073-2.7257576.9922764-4.1232272.8131154.83018 2.4393462 2.5804761 3.0319557 3.8465005.6959717 1.4804877.647736 1.7157053.647736 1.7157053l1.3092536-1.3144516 1.3092537-1.3144516s-.2273967.0484271-1.7089205-.6503077c-1.261018-.5949623-3.0043925-2.2276496-3.8312896-3.0439932 1.7709378-.3251538 3.5212032-.7194893 5.2025604-1.3974696.7993338-.3251538 1.584886-.6987348 2.1499323-1.3836333.7579889-.9270343.9371499-1.9716774.5237014-3.0855022-.4065577-1.0999885-1.2265639-1.7502961-2.3773289-1.9647593-.2618507-.0484272-.5305922-.0484272-.7993338-.0691817 0-.0622634 0-.1176088 0-.1729541.0413449-1.3974696-.8131154-2.6081488-2.1430414-3.0509114-1.2885812-.4289263-2.7218694.0760998-3.5074215 1.203761-.5650463.8094254-.9026959 1.7157052-1.2058915 2.6427395-.0826897.2559722-.15159781.5119443-.2273967.7679165-.2480691-1.0308068-.54437387-2.0477773-.93714995-3.0370751-.323868-.8025073-.69597166-1.5911782-1.3781617-2.1584679-.92336834-.7609983-1.96388042-.9408706-3.07330058-.5257806-1.09563855.4081718-1.74337455 1.2314336-1.95698961 2.3867674-.04823566.2628903-.04823566.5326988-.06890809.8025073-.06201727 0-.11714374 0-.17227021-.0069182-.59260953-.0138363-1.15076501.1314452-1.63312161.41509-.08958051-2.2553222.06201728-4.4691355.42723013-6.8835756.17916102.1037725.36521285.1867905.56504629.2559722 1.28858119.4289263 2.72186935-.0760999 3.50742152-1.203761.5650463-.8094255.90269591-1.7157053 1.20589149-2.6427396.44101174-1.3490424.74420731-2.7257575.99227642-4.1232271.8131154.8301799 2.4393462 2.580476 3.0319557 3.8465005.6959717 1.4804876.647736 1.7157053.647736 1.7157053l1.3092536-1.3144517 1.3092536-1.3144516s-.2273966.0484272-1.7089205-.6503076c-1.2610179-.5949623-3.00439245-2.2276496-3.83128947-3.0439933 1.77093778-.3251538 3.52120317-.7194893 5.20256037-1.3974696.7993338-.3251538 1.584886-.6987348 2.1499323-1.3836333.7579889-.9270343.9371499-1.9716774.5237014-3.0855022-.1722702-.4773535-.4272301-.8647708-.7510981-1.1691701h7.5798893c-.3376496.4012536-.5719371.8924435-.68219 1.4804876-.0482357.2628903-.0482357.5326988-.0689081.8025073-.0620173 0-.1171437 0-.1722702-.0069182-1.3919433-.0415089-2.5978348.8163437-3.0388465 2.1515498-.4272302 1.2936971.0757988 2.7326757 1.1990006 3.5213467.8062246.5672897 1.7089205.9062798 2.6322889 1.2106791.6408452.207545 1.2885812.3874174 1.9363172.539617-.6270636.1798723-1.2541272.3804992-1.8674091.6295532-.7993338.3251538-1.584886.6987348-2.1499323 1.3836333-.7579889.9270343-.9371499 1.9716774-.5237014 3.0855022.4065577 1.0999884 1.2265639 1.7502961 2.3773289 1.9647592.2618507.0484272.5305922.0484272.7993338.0622635 0 .0622635 0 .1176089-.0068908.1729542-.0413449 1.3974696.8131154 2.6081487 2.1430414 3.0509114 1.2885812.4289263 2.7218694-.0760998 3.5074215-1.203761.5650463-.8094254.9026959-1.7157052 1.2058915-2.6427395.4410117-1.3490425.7442073-2.7257576.9922764-4.1232272.8131154.8301799 2.4393462 2.580476 3.0319558 3.8465005.6959716 1.4804876.647736 1.7157053.647736 1.7157053l1.3092536-1.3144516 1.3092536-1.3144517s-.2273967.0484272-1.7089205-.6503076c-1.261018-.5949623-3.0043925-2.2276496-3.8312895-3.0439932 1.7709377-.3251539 3.5212031-.7194893 5.2025604-1.3974697.7993337-.3251538 1.5848859-.6987348 2.1499322-1.3836332.7579889-.9270343.93715-1.9716775.5237015-3.0855023-.4065577-1.0999884-1.226564-1.7502961-2.377329-1.9647592-.2618507-.0484272-.5305922-.0484272-.7993338-.0691817 0-.0622635 0-.1176088.0068909-.1729542.0413448-1.3974696-.8131154-2.6081487-2.1430415-3.0509113-1.2885812-.4289264-2.7218693.0760998-3.5074215 1.2037609-.5650463.8094255-.9026959 1.7157053-1.2058915 2.6427396-.0826897.2559721-.1515978.5119443-.2273967.7679165-.2480691-1.0308068-.5443738-2.0477773-.9371499-3.0370751-.2549599-.6433895-.5512647-1.2660245-1.0060581-1.7779688l16.6826474-.0069181h.0826897c.2205058.1452815.4616841.2698085.7235349.3528265 1.2885812.4289263 2.7218693-.0760999 3.5074215-1.203761.5650463-.8094255.9026959-1.7157053 1.2058915-2.6427396.4410117-1.3490424.7442073-2.7257576.9922764-4.1232272.8131154.83018 2.4393462 2.5804761 3.0319557 3.8465006.6959717 1.4874057.647736 1.7157052.647736 1.7157052l1.3092536-1.3144516 1.3092536-1.3144516s-.2273966.0484272-1.7089205-.6503076c-1.2610179-.5949624-3.0043925-2.2276496-3.8312895-3.0439933 1.7709378-.3251538 3.5212032-.7194893 5.2025604-1.3974696.7993338-.3251538 1.584886-.6987348 2.1499323-1.3836333.7579889-.9270343.9371499-1.9716774.5237014-3.0855022-.4065577-1.09998846-1.2265639-1.75029611-2.3773289-1.96475927-.2618507-.04842716-.5305923-.04842716-.7993338-.06918166 0-.0622635 0-.11760883 0-.17295416.0413449-1.39746962-.8131154-2.60814874-2.1430414-3.05091139-1.2885812-.42892632-2.7218694.07609983-3.5074215 1.20376095-.5650463.80942547-.902696 1.71570528-1.2058915 2.64273958-.0826897.25597215-.1515978.51194431-.2273967.76791647-.2480691-1.0308068-.5443739-2.04777726-.9440408-3.03707506-.323868-.8025073-.6959716-1.59117828-1.3781617-2.15846792-.9233683-.76099831-1.9638804-.94087064-3.0733006-.52578065-1.0956385.40817182-1.7433745 1.23143362-1.9569896 2.38676741-.0482356.26289033-.0482356.53269882-.068908.80250731-.0620173 0-.1171438 0-.1722703-.00691817-1.3919433-.041509-2.5978348.81634364-3.0388465 2.15154976-.4272301 1.29369712.0757989 2.7326757 1.1990007 3.5213467.8062246.5672897 1.7089205.9062798 2.6322888 1.2106791.6408452.207545 1.2885812.3874174 1.9363172.539617-.6270636.1798723-1.2541271.3804992-1.8674091.6295532-.7993338.3251538-1.5848859.6987348-2.1499322 1.3836332-.757989.9270343-.93715 1.9716775-.5237015 3.0855023.1102529.2974811.2549599.5603714.4272301.7886709l-16.6137392.0069182c.4823566-.2282995.9233683-.5742078 1.2403455-1.037725.5650463-.8094254.9026959-1.7157052 1.2058915-2.6427395.4410117-1.3490425.7442073-2.7257576.9922764-4.1232272.2618507.2698085.6201728.6433895.9922764 1.0653976.323868.6572258.7855522 1.2245155 1.3574893 1.6672781.2756324.3874173.5168106.7679165.6821901 1.1138248.6959716 1.4804876.6477359 1.7157053.6477359 1.7157053l1.3092537-1.3144516.537483-.539617c2.4393462-.1729542 4.3756634-2.2345678 4.3756634-4.7527803 0-1.27986084-.4961382-2.4421128-1.295472-3.29996543.3169772-.71257114.3307588-1.48048762.0344541-2.28991309-.4065577-1.09998846-1.226564-1.7502961-2.377329-1.96475926-.2618507-.04842717-.5305922-.04842717-.7993338-.06918167 0-.06226349 0-.11760883 0-.17295416.0137817-.38049915-.0551264-.7402438-.1722702-1.08615213.434121-.09685433.8889143-.18679049 1.3712709-.26980849 3.1835535-.51194431 6.6771934-.80942547 10.184615-.8232618h.3721036c3.6245653 0 7.2146765.29056299 10.6531899.85785264 4.5479336.7609983 9.1303213 4.00561836 9.9778907 8.87600749-1.0956385.207545-1.9983345.9823797-2.3635473 2.0892863-.4272301 1.2936971.0757989 2.7326757 1.1990007 3.5213467.4134485.290563.861351.5188625 1.3161444.7194893z" fill="#006e43"/><path d="m87.6890939 50.2684818c-.179161 1.1830064-.4341209 2.3452584-.7579889 3.5144285-.6546268.8440163-1.653794 1.3213698-2.6736337 1.5219966-.9784948.1867905-1.9363172.1106907-2.8321223-.373581-1.6744664-.8993616-1.9018631-2.6980849-.6959716-4.0609637 1.2472363-1.4043877 2.8527947-1.8333141 4.6788589-1.4389786.0482357.0138364.0964713.0207545.1515978.0276727.0344541.0069182.0757989.0069182.1378162.0207545 0-3.9433549 0-7.8867097 0-11.8439009-1.4126158.2559721-2.8183407.5119443-4.2171748.7679164-2.0121161.373581-4.0173414.7609984-6.0294574 1.1069067-.3376496.0553453-.3583221.2006268-.3583221.4704353 0 4.5590717-.0137816 9.1181433-.0206724 13.677215-.0068908 2.2345678-1.2472363 3.6735464-3.4660767 4.0263729-.0551264.0069181-1.8742999.0691816-2.98372-.539617-.6063912-.332072-1.0129489-.8440163-1.1300926-1.5704238-.144707-.8993616.1309253-1.6672781.7235349-2.3037494 1.2610179-1.3490425 2.8183406-1.7918051 4.6237325-1.3974696.0826897.0207545.1722702.0207545.2825231.0345908 0-5.8320143 0-11.6501923 0-17.4960429 4.2654105-.6918166 8.5239301-1.3905514 12.810013-2.0892862.1722702.5465351.3307588 1.1069066.4823566 1.7087871.5719371 2.3037494.9922764 4.4207083 1.2610179 6.4269766-.0068908 3.2653745-.0068908 6.5376672.0137816 9.80996zm-43.3983118-3.4521651c1.5090871 2.3452584 5.8227332 9.7061875 7.3662743 19.0733848h-4.499698c-.1722702-.9131979-.3996668-1.8333141-.68219-2.7811029-1.5642135-5.2232156-3.2317892-8.4055722-4.5134796-10.2803953v31.5053299l1.3092537 2.2553223.4065577-.6157168c.0551264-.083018 4.3481001-6.7175396 3.955324-15.9740463h4.499698c.1515978 2.3383403.1033621 4.7735348-.2205059 7.2502384-.179161.5050262-.2825232 1.037725-.2825232 1.6050146 0 .0484272.0068909.0968544.0068909.1452815-.3031956 1.6741963-.7235349 3.3622289-1.3161445 5.0571797-.6615176 1.9024957-1.3505984 3.5836102-2.0603517 5.0640978-1.3643801.166036-2.7080877.249054-4.0380138.249054-3.3902777 0-6.7047566-.5119443-10.4189024-1.6119328-1.5573227-.4635171-3.5418756-1.2037609-5.3541582-2.3521766-.8820235-2.4836217-1.9569896-5.5552876-3.273134-9.3602791-.5305923-1.5427512-1.0680753-3.0785841-1.584886-4.5798262v-14.4174588c0-.7609984.0895805-1.5219967.25496-2.2622405.7510981-3.24462 2.9975016-5.8527688 5.8571872-7.1257114.034454.0345909.0757989.0760998.1171437.1106907.6408452.622635 1.1094202 1.0792339 2.2532944.8924434.7442073-.1176088 1.6744664-.8509344 2.6391796-1.8402322h9.5782238zm-16.910044 6.025723c-.9922764-.4635172-1.5090871-.8578527-1.8398459-1.1138248-.0275632-.0207545-.0551264-.041509-.0826897-.0622635v4.1924088l1.9294264 3.3276381v-6.3439586zm3.3006973 1.0377249c-.3652129-.0276726-.7304257-.0899361-1.0749662-.2006268-.3031955-.0968543-.5857187-.1937087-.8475694-.2836448v8.1496l1.9294264 3.3207199v-10.9860483zm3.3006972-.5396169c-.6339544.2213813-1.2816903.3943354-1.9294263.4842716v13.4212429l1.9294263 3.3207198zm3.3006973-1.6050147c-.5650463.3459084-1.2196731.705653-1.9294264 1.037725v20.1664551l1.9294264 3.3207199zm3.3075881-.6503076c-.468575-.4911898-.757989-.6918166-.7993338-.7194893l-.2756324-.1867905-.2618507.207545c-.0137816.0069182-.2273967.1798723-.5857187.4358445v27.811029l1.9294264 3.327638v-30.8757767zm18.1710619 7.8244462v.3528265c-.5926095-.0276727-1.150765-.1106907-1.7020297-.0622635-1.295472.124527-2.3704381.6779803-3.0801914 1.8194778-.6890808 1.1138248-.3514312 2.4559491.7786614 3.0993385.8613511.4842717 1.7778286.5742079 2.7425418.41509 1.8674091-.3182356 3.0112833-1.6188509 3.0112833-3.5075104.0137816-4.7043531.0206724-9.4087063.034454-14.1130595 0-.124527 0-.2490539 0-.4427626 3.0457374.4358445 4.8097843 2.4974581 6.4360151 4.7735348-.1378161-1.6534417-.8337878-3.0439932-2.0948057-4.116309-.792443-.6710621-1.6675757-1.24527-2.4875819-1.8886594-.1584886-.124527-.3100864-.249054-.468575-.373581-.9922764.5949623-2.0603517 1.0653976-3.1835535 1.3974696.0137816 4.2200815.0137816 8.4332449.0137816 12.6464082z" fill="#ffcfa1"/></g></svg>