<svg id="svg9660" xmlns="http://www.w3.org/2000/svg" viewBox="0 0 268.22 77.6"><defs><style>.cls-1{fill:#ed8b00;}.cls-2{fill:#43b02a;}.cls-3{fill:#007041;}.cls-4{fill:#f8d199;}.cls-5{fill:#fff;}</style></defs><g id="layer1"><g id="g10401"><g id="g9380"><path id="path79680" class="cls-1" d="M59.14,19.78V28A11.88,11.88,0,0,1,47.57,39.75H29.08a9.41,9.41,0,0,0-9,7.33,9,9,0,0,0-.24,2.08V66.78c0,5,4.36,8,9.26,9.41a30.87,30.87,0,0,0,18.49,0c4.66-1.35,9.26-4.06,9.26-9.41V59.72H38.33V57.38H66.09c5.38,0,7.38-3.76,9.25-9.39,1.94-5.8,1.86-11.38,0-18.81-1.33-5.37-3.86-9.4-9.25-9.4ZM48.73,64.44A3.53,3.53,0,1,1,45.27,68a3.49,3.49,0,0,1,3.46-3.51"/><path id="path79684" class="cls-2" d="M27.91,5.38a3.83,3.83,0,1,0,3.77,3.84,3.81,3.81,0,0,0-3.77-3.84M11.15,57.08c-6.08,0-8.55-5-9.55-9.16a34.23,34.23,0,0,1,0-18.67C3,23.59,7.27,20.08,12.87,20.08H38.63V17.13H20.12V10.38c0-5.25,1.35-8,9-9.34A53.45,53.45,0,0,1,37.93.3h.32A57.51,57.51,0,0,1,47.52,1c5.23.88,9,4.81,9,9.34V28a9,9,0,0,1-9,9.11H29.08a12,12,0,0,0-11.86,11.8v8.16Z"/><path id="path79688" class="cls-3" d="M27.91,12.73a3.53,3.53,0,1,1,3.47-3.51,3.5,3.5,0,0,1-3.47,3.51M38.26,0h-.33a52.45,52.45,0,0,0-8.85.75C21.24,2.14,19.82,5,19.82,10.38v7H38.33v2.35H12.87c-5.38,0-10.09,3.24-11.56,9.4-1.71,7-1.78,11.45,0,18.81,1.31,5.49,4.45,9.39,9.84,9.39h6.36V48.92a11.77,11.77,0,0,1,11.57-11.5H47.57A9.34,9.34,0,0,0,56.83,28V10.38c0-5-4.23-8.79-9.26-9.63A57.39,57.39,0,0,0,38.26,0M27.91,13.32a4.12,4.12,0,1,0-4.07-4.1,4.09,4.09,0,0,0,4.07,4.1M38.26.59a55.87,55.87,0,0,1,9.22.75c4.35.73,8.76,4.07,8.76,9V28a8.75,8.75,0,0,1-8.67,8.81H29.08a12.29,12.29,0,0,0-12.16,12.1v7.86H11.15c-5.89,0-8.29-4.85-9.27-8.93a34.14,34.14,0,0,1,0-18.54c1.32-5.51,5.53-8.94,11-8.94H38.93V16.84H20.42V10.38c0-5.08,1.31-7.73,8.76-9A51.87,51.87,0,0,1,37.93.6Z"/><path id="path79692" class="cls-3" d="M47.67,34.38A19.84,19.84,0,0,1,50,37.1a9.42,9.42,0,0,0,1.81-.7l-.12-.06a15.81,15.81,0,0,1-3.32-2.62,22.76,22.76,0,0,0,4.51-1.21,4.47,4.47,0,0,0,1.86-1.19A2.68,2.68,0,0,0,53.09,27a5.36,5.36,0,0,0-.7-.05.81.81,0,0,0,0-.15,2.68,2.68,0,0,0-1.86-2.63,2.71,2.71,0,0,0-3,1,8.5,8.5,0,0,0-1,2.27c-.07.22-.13.44-.19.66a20.23,20.23,0,0,0-.82-2.61,4.51,4.51,0,0,0-1.19-1.87,2.68,2.68,0,0,0-4.36,1.61,5.09,5.09,0,0,0,0,.69H39.7a2.68,2.68,0,0,0-1.59,4.89,8.36,8.36,0,0,0,2.27,1.05c.55.18,1.11.33,1.68.47a15.38,15.38,0,0,0-1.62.54,4.47,4.47,0,0,0-1.86,1.19,2.56,2.56,0,0,0-.45,2.67,2.75,2.75,0,0,0,.37.7H47a29.11,29.11,0,0,0,.71-3"/><path id="path79696" class="cls-3" d="M38.33,19.78h-.58a2.77,2.77,0,0,0,1.28.9,2.7,2.7,0,0,0,3-1,8.5,8.5,0,0,0,1-2.27A27,27,0,0,0,44,13.82a15.49,15.49,0,0,1,2.62,3.31c.61,1.28.56,1.48.56,1.48l1.14-1.14h0l1.13-1.13s-.2,0-1.48-.56a15.52,15.52,0,0,1-3.31-2.63,23.34,23.34,0,0,0,4.5-1.2A4.41,4.41,0,0,0,51,10.76a2.58,2.58,0,0,0,.46-2.67A2.55,2.55,0,0,0,49.39,6.4c-.22,0-.46,0-.69-.06V6.2a2.66,2.66,0,0,0-1.85-2.63,2.7,2.7,0,0,0-3,1,8.2,8.2,0,0,0-1,2.27c-.07.22-.14.44-.2.66a18.86,18.86,0,0,0-.81-2.62,4.4,4.4,0,0,0-1.2-1.86,2.56,2.56,0,0,0-2.66-.45,2.54,2.54,0,0,0-1.69,2.05c0,.23,0,.46-.06.7H36a2.66,2.66,0,0,0-2.62,1.86,2.69,2.69,0,0,0,1,3,8.42,8.42,0,0,0,2.28,1c.55.18,1.11.33,1.67.46a16.09,16.09,0,0,0-1.61.55,4.41,4.41,0,0,0-1.86,1.19,2.57,2.57,0,0,0-.46,2.66,2.53,2.53,0,0,0,1,1.28h2.91Z"/><path id="path79700" class="cls-3" d="M17.9,30.48a2.66,2.66,0,0,0,1.6,4.35,5.2,5.2,0,0,0,.69.06V35A2.64,2.64,0,0,0,22,37.66a2.7,2.7,0,0,0,3-1,8.39,8.39,0,0,0,1-2.28A25.5,25.5,0,0,0,27,30.8a15.85,15.85,0,0,1,2.63,3.32c.6,1.27.56,1.47.56,1.47l1.13-1.13h0l1.13-1.14s-.19,0-1.47-.56a15.81,15.81,0,0,1-3.32-2.62,23.64,23.64,0,0,0,4.51-1.2A4.4,4.4,0,0,0,34,27.74a2.56,2.56,0,0,0,.45-2.66,2.54,2.54,0,0,0-2.05-1.69,5.36,5.36,0,0,0-.7-.06s0-.1,0-.15a2.66,2.66,0,0,0-1.86-2.62,2.69,2.69,0,0,0-3,1,8.42,8.42,0,0,0-1,2.28c-.07.21-.13.44-.2.66a18.46,18.46,0,0,0-.81-2.62,4.41,4.41,0,0,0-1.19-1.86,3,3,0,0,0-.39-.27H20.52a2.55,2.55,0,0,0-1.3,1.87c0,.22,0,.46-.06.69H19a2.66,2.66,0,0,0-2.63,1.85,2.69,2.69,0,0,0,1,3,8.2,8.2,0,0,0,2.27,1c.55.18,1.11.33,1.68.47-.55.16-1.09.33-1.62.54a4.4,4.4,0,0,0-1.86,1.2"/><path id="path79704" class="cls-3" d="M19.82,17.05A2.73,2.73,0,0,0,21.5,16a8.42,8.42,0,0,0,1.05-2.28,27,27,0,0,0,.86-3.55A15.75,15.75,0,0,1,26,13.43c.6,1.28.56,1.48.56,1.48l1.13-1.13h0l1.14-1.13a.31.31,0,0,1-.13,0,3.61,3.61,0,0,1-.82.1A3.49,3.49,0,0,1,24.5,9.88l-.43-.42.38-.07c0-.06,0-.12,0-.17a3.52,3.52,0,0,1,3.47-3.55,3.43,3.43,0,0,1,2.63,1.24,2.52,2.52,0,0,0,.34-2.51,2.54,2.54,0,0,0-2.05-1.69,5.36,5.36,0,0,0-.69-.06V2.5A2.68,2.68,0,0,0,27.74,1a12.35,12.35,0,0,0-5.62,2.44c0,.13-.08.26-.11.38L22,3.62c-1.7,1.62-2.13,3.82-2.13,6.76Z"/><path id="path79708" class="cls-3" d="M5.06,54.65a2.68,2.68,0,0,0,3-1,8.23,8.23,0,0,0,1.05-2.27A27,27,0,0,0,10,47.79a15.49,15.49,0,0,1,2.62,3.31c.6,1.28.56,1.48.56,1.48l1.13-1.14h0l1.14-1.13s-.2,0-1.48-.56a15.49,15.49,0,0,1-3.31-2.62,22.67,22.67,0,0,0,4.5-1.21A4.38,4.38,0,0,0,17,44.73a2.68,2.68,0,0,0-1.6-4.36c-.23,0-.46,0-.69,0v-.15a2.68,2.68,0,0,0-1.86-2.63,2.71,2.71,0,0,0-3,1,8.47,8.47,0,0,0-1,2.27c-.08.22-.14.44-.2.66a18.78,18.78,0,0,0-.82-2.61A4.32,4.32,0,0,0,6.59,37a2.57,2.57,0,0,0-2.66-.46,2.57,2.57,0,0,0-1.7,2.06c0,.22,0,.45,0,.69H2a2.65,2.65,0,0,0-2,.8,35.51,35.51,0,0,0,.48,4.15,8.75,8.75,0,0,0,2.18,1c.56.18,1.12.33,1.68.47a16.19,16.19,0,0,0-1.62.54,4.92,4.92,0,0,0-1.64,1c.06.25.11.5.18.76a17.66,17.66,0,0,0,1.37,3.85l.53,0a.71.71,0,0,0,0,.14,2.8,2.8,0,0,0,.2,1.08,10.77,10.77,0,0,0,.8,1.08,2.87,2.87,0,0,0,.86.47"/><path id="path79712" class="cls-3" d="M1.31,29.18C.94,30.67.66,32,.45,33.35a2.67,2.67,0,0,0,4.07-.42,8.64,8.64,0,0,0,1-2.27,27,27,0,0,0,.86-3.55A15.49,15.49,0,0,1,9,30.42c.61,1.28.56,1.48.56,1.48l1.14-1.14h0l1.13-1.13s-.2,0-1.48-.56a15.75,15.75,0,0,1-3.31-2.62,23.37,23.37,0,0,0,4.5-1.21,4.41,4.41,0,0,0,1.86-1.19,2.57,2.57,0,0,0,.46-2.66,2.5,2.5,0,0,0-1.64-1.59C7.14,20,2.72,23.25,1.31,29.18"/><path id="path79716" class="cls-3" d="M55.09,13.82a7.23,7.23,0,0,0,1.74.86v-4.3a8.6,8.6,0,0,0-.12-1.45h0a2.65,2.65,0,0,0-2.63,1.85,2.7,2.7,0,0,0,1,3"/><path id="path79720" class="cls-3" d="M8.33,57a9.07,9.07,0,0,0,1.5.32A2.47,2.47,0,0,0,8.33,57"/><path id="path79724" class="cls-3" d="M37,0l-1.3,0A2.49,2.49,0,0,0,37,0"/><path id="path79728" class="cls-3" d="M56.83,21.34V16.13a3.62,3.62,0,0,0-1.26.94,2.57,2.57,0,0,0-.46,2.66,2.5,2.5,0,0,0,1.72,1.61"/><path id="path79732" class="cls-4" d="M35.12,70.63l-1.67-2.86v-24c.31-.22.5-.37.51-.38l.22-.18.25.16a5.3,5.3,0,0,1,.69.62Zm-2.86-4.91-1.67-2.86V45.48a18.23,18.23,0,0,0,1.67-.9ZM29.4,60.81,27.74,58V46.39A9,9,0,0,0,29.4,46ZM26.55,55.9,24.88,53V46l.74.24a3.64,3.64,0,0,0,.93.17ZM23.69,51,22,48.13V44.52l.08,0a7.07,7.07,0,0,0,1.59,1ZM38,39.85l0-.1H30.59a6.3,6.3,0,0,1-2.83,2.18,2,2,0,0,1-2-.77,7.79,7.79,0,0,0-.59-.52A9.59,9.59,0,0,0,20.83,45v1.14l-.29-.51a9.37,9.37,0,0,0-.48,1.5,9,9,0,0,0-.24,2.08v10.7l2,5.67c1.3,3.75,2.33,6.67,3.14,9a19.78,19.78,0,0,0,4.15,1.71,30.75,30.75,0,0,0,12.37,1.24,37.94,37.94,0,0,0,2.09-5,30.76,30.76,0,0,0,1.53-12.71H41.18a25.26,25.26,0,0,1-3.39,14.37l-.35.53-1.13-2V45.52a32.32,32.32,0,0,1,3.9,8.87,22.6,22.6,0,0,1,.7,3h3.88A45.27,45.27,0,0,0,38,39.85"/><path id="path79736" class="cls-4" d="M75.86,31.44c-.16-.74-.33-1.49-.52-2.26-.12-.49-.25-1-.39-1.43l-11.69,1.9V44.72a1.42,1.42,0,0,1-.24,0,4,4,0,0,0-4,1.21,2.27,2.27,0,0,0-.63,2,1.8,1.8,0,0,0,1,1.36c.44.22.93.35,1.39.53h1.05A.61.61,0,0,1,62,49.7a3.26,3.26,0,0,0,3-3.47c0-3.93,0-7.85,0-11.78,0-.24,0-.36.31-.41,1.74-.3,3.48-.64,5.22-1l3.65-.66V42.63H74l-.13,0a4,4,0,0,0-4.05,1.24,2.13,2.13,0,0,0,.6,3.5,3.54,3.54,0,0,0,2.45.32,3.31,3.31,0,0,0,3-3.4c0-4.27,0-8.54,0-12.81"/><path id="path79740" class="cls-4" d="M58,44.16a5,5,0,0,0-1.81-3.55C55.46,40,54.71,39.54,54,39c-.31-.24-.62-.48-.92-.73a12.07,12.07,0,0,1-2.24,1V51.07a9.19,9.19,0,0,0-1.47,0,3.31,3.31,0,0,0-2.66,1.56,1.85,1.85,0,0,0,.67,2.67,3.51,3.51,0,0,0,2.38.36,2.91,2.91,0,0,0,2.6-3c0-4.06,0-8.11,0-12.17V40c2.64.38,4.17,2.15,5.57,4.12"/><path id="path79744" class="cls-1" d="M48.73,71.49A3.53,3.53,0,1,1,52.21,68a3.5,3.5,0,0,1-3.48,3.54M66.09,19.78h-7V28A11.88,11.88,0,0,1,47.57,39.75H29.08a9.41,9.41,0,0,0-9,7.33,9,9,0,0,0-.24,2.08V66.78c0,5,4.36,8,9.26,9.41a32,32,0,0,0,9.18,1.41,32.88,32.88,0,0,0,9.31-1.41c4.66-1.35,9.26-4.06,9.26-9.41V59.72H38.33V57.38H66.09c5.38,0,7.38-3.76,9.25-9.39,1.94-5.8,1.86-11.38,0-18.81-1.33-5.37-3.86-9.4-9.25-9.4M48.74,72.08A4.12,4.12,0,1,0,44.67,68a4.11,4.11,0,0,0,4.07,4.13M66.09,20.37c4.41,0,7.16,2.85,8.67,9,1.88,7.54,1.89,12.89,0,18.48-1.93,5.83-3.88,9-8.68,9H37.74v3.54h18.5v6.46c0,4.17-3,7.14-8.83,8.84A32.41,32.41,0,0,1,38.26,77a31,31,0,0,1-9-1.39c-3.3-1-8.83-3.41-8.83-8.84V49.16a8.58,8.58,0,0,1,.22-1.95,8.81,8.81,0,0,1,8.44-6.86H47.57A12.41,12.41,0,0,0,59.73,28V20.37Z"/></g><path id="path8576" class="cls-5" d="M108.84,20.26v3.79h-10v6h8.55v3.76H98.86v6.48h10.23v3.79H94.49V20.26Z"/><path id="path8580" class="cls-5" d="M111.71,38.27V26.06H116V37.48c0,2.18.43,3.79,2.82,3.79a3.62,3.62,0,0,0,3.51-3.43V26.06h4.26v15l.29,3H123.2L122.91,42h-.07a6.13,6.13,0,0,1-5.19,2.62c-3.94,0-5.94-2.12-5.94-6.3"/><path id="path8584" class="cls-5" d="M130.93,26.06h3.51l.43,2.58a4.68,4.68,0,0,1,4.33-3.12,5.73,5.73,0,0,1,2.86.68l-.75,3.55a5.79,5.79,0,0,0-2.54-.65c-1.93,0-3.19,1.54-3.26,3.62V44.06h-4.26V28.92Z"/><path id="path8588" class="cls-5" d="M154.66,35.15c0-4-.93-6.48-3.65-6.48s-3.76,2.44-3.76,5.87.5,6.91,3.69,6.91c2.61,0,3.72-2.58,3.72-6.3M142.89,35c0-7.44,4.65-9.52,8.34-9.52,2.64,0,7.8.82,7.8,9,0,6.88-3.65,10.06-8.38,10.06s-7.76-3.08-7.76-9.56"/><path id="path8592" class="cls-5" d="M175,28c0-3.69-2.11-4.26-5.62-4.26h-2.18v8.52h2.58c3.15,0,5.22-1.07,5.22-4.26m-4-7.73c5.3,0,8.48,2.51,8.48,7.3,0,5.44-3.83,8.16-9.27,8.16h-3v8.34h-4.37V20.26Z"/><path id="path8596" class="cls-5" d="M193,45.32V42c-3.15,1.4-5.83,3.26-5.83,6.2a2.15,2.15,0,0,0,2.47,2.32c2.47,0,3.36-2,3.36-5.15m-9.59,3.54c0-2.68,1.76-4.69,3.72-6.08-2.93-.43-4.76-2-4.76-5.8V26.06h4.26V36.51c0,2.15.22,3.76,3,3.76a3.31,3.31,0,0,0,3.29-3.4V26.06h4.26V41.81a31.19,31.19,0,0,1-.4,5c-.68,4.33-3.18,6.8-7.66,6.8-3.86,0-5.76-1.83-5.76-4.73"/><path id="path8600" class="cls-5" d="M201.63,38.55V19.19h4.26v6.87h4.83v3.29h-4.83v9.13c0,2.22,1,2.86,2.43,2.86a4.38,4.38,0,0,0,2.33-.75l1.07,2.76a8.49,8.49,0,0,1-4.54,1.25c-5.09,0-5.55-2.9-5.55-6.05"/><path id="path8604" class="cls-5" d="M218.42,19.19V27.6a6.16,6.16,0,0,1,4.83-2.08c3.72,0,5.73,2.08,5.73,6.3V44.06h-4.26V32.57c0-2.11-.43-3.76-2.72-3.76a3.6,3.6,0,0,0-3.58,3.55v11.7h-4.26V19.19Z"/><path id="path8608" class="cls-5" d="M244.3,35.15c0-4-.94-6.48-3.66-6.48s-3.75,2.44-3.75,5.87.5,6.91,3.68,6.91c2.62,0,3.73-2.58,3.73-6.3M232.52,35c0-7.44,4.65-9.52,8.34-9.52,2.65,0,7.8.82,7.8,9,0,6.88-3.65,10.06-8.37,10.06s-7.77-3.08-7.77-9.56"/><path id="path8612-7" class="cls-5" d="M252,26.06h3.58l.35,2.25a6.47,6.47,0,0,1,5.52-2.79c3.61,0,5.69,2,5.69,6.23V44.06h-4.26V32.68c0-2.18-.4-3.87-2.69-3.87a3.64,3.64,0,0,0-3.65,3.58V44.06h-4.22V29.17Z"/><path id="path8616" class="cls-5" d="M102.27,63.88c0-3.41-1.63-4.36-3.69-4.36H96.89v8.95h1.93c2.14,0,3.45-1.56,3.45-4.59m-3.58-6.2c3.64,0,5.92,1.89,5.92,5.86,0,5-2.77,6.75-5.83,6.75H94.57V57.68Z"/><path id="path8620" class="cls-5" d="M106.69,66.29V57.68H109v8.49c0,1.84,1.06,2.41,2.5,2.41a2.14,2.14,0,0,0,2.37-2.31V57.68h2.3v8.89c0,2.51-1.94,4-4.76,4-3.11,0-4.71-1.25-4.71-4.23"/><path id="path8624" class="cls-5" d="M125.28,66.5c0-1.27-.87-2-2.37-2H121v4h1.81c1.86,0,2.44-.86,2.44-2m-.55-5.41c0-1.38-.91-1.67-2.14-1.67H121v3.42h1.43c1.61,0,2.27-.74,2.27-1.75M123,57.68c2.14,0,4.11.64,4.11,3a2.83,2.83,0,0,1-1.89,2.73,2.88,2.88,0,0,1,2.52,3c0,2.46-1.71,3.81-4.86,3.81h-4.15V57.68Z"/><path id="path8628" class="cls-5" d="M132.06,57.68V68.26h5.35v2h-7.67V57.68Z"/><path id="path8630" class="cls-5" d="M141.62,70.29H139.3V57.68h2.32Z"/><path id="path8634" class="cls-5" d="M146.64,57.68,152,66.44h0V57.68h2.3V70.29h-2.22l-5.45-8.9h0v8.9h-2.3V57.68Z"/><path id="path8638" class="cls-5" d="M162.81,68.78V61.84L160.66,63l-.73-1.26,3.22-2h1.74l-.13,1.54v7.51h1.87v1.51h-5.76V68.78Z"/><path id="path8642" class="cls-5" d="M170.25,68.78V61.84L168.11,63l-.73-1.26,3.22-2h1.74l-.13,1.54v7.51h1.87v1.51h-5.76V68.78Z"/><path id="path8644-2" class="cls-5" d="M179.21,66.47h-4.3V64.94h4.3Z"/><path id="path8648" class="cls-5" d="M183,68.78V61.84L180.84,63l-.72-1.26,3.21-2h1.74l-.13,1.54v7.51h1.87v1.51h-5.76V68.78Z"/><path id="path8652" class="cls-5" d="M192.09,61.35h-4.56V59.73h7.06v1.36A10.33,10.33,0,0,0,191,69.5v.79H189v-.92a10.92,10.92,0,0,1,3.11-8"/><path id="path8656" class="cls-5" d="M198.33,69.62l.66-1.46a3.09,3.09,0,0,0,1.78.64c1,0,1.38-.58,1.38-1.48V59.38h2v8a5,5,0,0,1-.14,1.28,2.74,2.74,0,0,1-2.91,1.81,5,5,0,0,1-2.77-.87"/><path id="path8660" class="cls-5" d="M206.29,67.63V62h2v5.23c0,1,.2,1.74,1.29,1.74a1.66,1.66,0,0,0,1.61-1.57V62h2v6.87l.13,1.38h-1.67l-.13-1h0a2.83,2.83,0,0,1-2.38,1.2c-1.81,0-2.72-1-2.72-2.89"/><path id="path8664" class="cls-5" d="M215.21,67.62V58.89h2v8.69c0,1,.21,1.41.89,1.41a2.65,2.65,0,0,0,1-.26l.43,1.31a3.71,3.71,0,0,1-1.95.5c-2.22,0-2.35-1.45-2.35-2.92"/><path id="path8668" class="cls-5" d="M225.07,70.86V69.32c-1.44.64-2.67,1.49-2.67,2.84a1,1,0,0,0,1.13,1.07c1.13,0,1.54-.94,1.54-2.37m-4.39,1.63a3.51,3.51,0,0,1,1.7-2.79A2.33,2.33,0,0,1,220.2,67V62h2v4.79c0,1,.1,1.72,1.4,1.72A1.52,1.52,0,0,0,225.06,67V62H227v7.22a15.37,15.37,0,0,1-.18,2.28,3.28,3.28,0,0,1-3.51,3.11c-1.77,0-2.64-.83-2.64-2.16"/><path id="path8672" class="cls-5" d="M229,69.26c.13-.58.36-.87.83-.87a2.19,2.19,0,0,1,1.4.69l-1.71,3.75-1-.34a28.63,28.63,0,0,1,.51-3.23"/><path id="path8676" class="cls-5" d="M239.32,64.89c.82-.93,1.16-1.41,1.16-2.26a1.25,1.25,0,0,0-1.36-1.36,3.59,3.59,0,0,0-2.26,1.15l-1.09-1.27a5.28,5.28,0,0,1,3.66-1.64,2.78,2.78,0,0,1,3.12,2.92,4.74,4.74,0,0,1-1.41,3.12L238.4,68.7H243v1.59h-7.28V69Z"/><path id="path8680" class="cls-5" d="M249.57,64.94c0-3-.71-3.8-1.8-3.8s-1.89.92-1.89,4c0,2.83.72,3.7,1.84,3.7s1.85-.8,1.85-3.92m-5.64,0c0-3.79,1.52-5.47,3.87-5.47s3.72,1.53,3.72,5.4-1.34,5.54-3.84,5.54-3.75-1.65-3.75-5.47"/><path id="path8684" class="cls-5" d="M256.1,64.89c.82-.93,1.17-1.41,1.17-2.26a1.25,1.25,0,0,0-1.37-1.36,3.61,3.61,0,0,0-2.26,1.15l-1.08-1.27a5.26,5.26,0,0,1,3.66-1.64,2.78,2.78,0,0,1,3.11,2.92,4.74,4.74,0,0,1-1.41,3.12l-2.74,3.15h4.63v1.59h-7.29V69Z"/><path id="path8688" class="cls-5" d="M264.52,64.89c.82-.93,1.16-1.41,1.16-2.26a1.25,1.25,0,0,0-1.36-1.36,3.59,3.59,0,0,0-2.26,1.15L261,61.15a5.29,5.29,0,0,1,3.66-1.64,2.78,2.78,0,0,1,3.12,2.92,4.74,4.74,0,0,1-1.41,3.12L263.6,68.7h4.62v1.59h-7.28V69Z"/></g></g></svg>