<svg xmlns="http://www.w3.org/2000/svg" shape-rendering="optimizeSpeed" viewBox="0 0 96 96" opacity=".3">
	<path fill="#fff" d="M3 0v1h1V0Zm3 0v1h1V0Zm12 0v1h1V0Zm3 0v1h1V0Zm22 0v1h1V0Zm2 0v1h1V0Zm2 0v1h1V0Zm2 0v2h1V0Zm2 0v1h1V0Zm2 0v1h1V0Zm14 0v1h1V0Zm1 1v1h2V1Zm0 1h-2v1h2zm-2 1h-1v1h1zm-1 1h-1v1h1zm1-2V1h-1v1Zm16-2v1h1V0Zm5 0v1h1V0ZM0 1v1h1V1Zm8 0v1h1V1Zm0 1H7v1h1Zm0 1v1h1V3Zm5-2v1h1V1Zm0 1h-1v1h1zm3-1v1h1V1Zm0 1h-1v1h1zm7-1v2h1V1Zm12 0v1h1V1Zm22 0v1h1V1Zm14 0v1h3V1Zm5 0v2h1V1Zm2 0v1h2V1ZM3 2v1h1V2Zm18 0v1h1V2Zm8 0v1h1v1h1V2Zm4 0v1h1V2Zm8 0v1h1V2Zm3 0v1h1V2Zm1 1v1h1V3Zm1 0h2V2h-2zm2 0v2h1V3Zm0 2h-2v1h2zm-3-1h-1v1h1zm-1 1h-1v1h1zm-1 0V4h-1v1zm-1 0h-1v1h1zm-1 1h-1v2h2V7h-1zm1 2v1h1V8Zm1 1v1h1v1h1V9Zm2 2v1h1v-1zm0 1h-1v2h1v-1Zm-3-3h-1v1h1zm48-7v1h1V2Zm2 0v1h1V2Zm2 0v1h1V2ZM0 3v1h1V3Zm18 0v1h1V3Zm9 0v1h1V3Zm0 1h-2v1h2zm24-1v1h1V3Zm1 1v1h2V4Zm0 1h-1v3h1V6Zm0 3v1h1V8Zm3-5v1h1V3Zm1 1v1h1V4Zm1 0h1V3h-1zm-1 1h-1v1h1zm0 1v1h2V6Zm-1 0h-1v1h1zm14-3v1h1V3Zm0 1h-1v1h1zm4-1v1h-1v1h2V3Zm5 0v1h1V3Zm4 0v2h1V4h1V3Zm5 0v1h1V3ZM16 4v2h1V4Zm0 2h-1v1h1zm-1 0V5h-1v1zm-1 0h-1v1h1zm20-2v2h1V5h1V4Zm27 0v1h1V4Zm15 0v1h1V4Zm9 0v1h1V4Zm1 1v1h1V5Zm8-1v1h2V4ZM2 5v1h1V5Zm1 1v1h1V6Zm1 0h1V5H4Zm1 0v1h1V6Zm2-1v2h2V5Zm3 0v1h1V5Zm10 0v1h1V5Zm0 1h-1v1h1zm11-1v1h1V5Zm48 0v1h1V5ZM36 6v1h-1v1h2V6Zm25 0v1h1V6Zm2 0v2h1V7h1V6Zm7 0v1h2V6Zm11 0v1h1V6Zm2 0v2h1V7h1V6Zm5 0v1h1V6ZM0 7v1h1V7Zm17 0v1h1V7Zm4 0v2h1V8h1V7Zm0 2h-1v1h1zm24-2v1h1V7Zm28 0v2h1V7Zm6 0v1h1V7Zm15 0v1h1V7ZM2 8v1h1V8Zm46 0v1h1V8Zm7 0v1h1V8Zm1 1v2h1V9Zm-1 0h-1v1h1zm3-1v1h1V8Zm1 1v1h1V9Zm7-1v1h1V8Zm0 1h-1v1h1zm3-1v1h1V8Zm1 1v1h1V9Zm-1 0h-1v1h1zm20-1v1h2V8Zm2 1v1h1V9Zm1 0h1V8h-1zm-3 0h-1v1h1zM13 9v1h1V9Zm3 0v1h1V9Zm7 0v1h1V9Zm1 1v2h2v-1h-1v-1zm1 0h1V9h-1zm8-1v1h1V9Zm1 1v1h1v-1zm1 1v1h1v-1zm0 1h-1v-1h-1v2h2zm-2 1h-1v3h1v-2zm6-4v1h1V9Zm23 0v1h1V9Zm14 0v1h1V9Zm1 1v1h1v-1zm1 0h1V9h-1zm2-1v2h2V9Zm2 2v1h1v-1Zm13-2v1h1V9ZM2 10v1h1v-1zm1 1v1h1v-1zm2-1v2h1v-2zm42 0v1h1v-1zm1 1v1h1v-1zm-35 0v1h1v-1zm4 0v1h2v1h1v-1h1v-1zm2 2h-1v1h1zm-2-1h-1v1h1zm13-1v1h1v-1zm7 0v1h1v-1zm13 0v1h1v-1zm8 0v2h1v-2zm3 0v1h1v1h2v-1h-1v-1zm8 0v1h2v-1zm0 1h-1v1h1zm19-1v1h1v-1zm2 0v1h1v-1zm5 0v1h-2v2h-1v1h2v-1h1v-1h1v-2ZM7 12v1h1v-1zm1 1v2h1v-1h1v-1zm14-1v1h1v-1zm6 0v1h1v-1zm13 0v1h1v-1zm0 1h-1v1h1zm12-1v1h2v-1zm26 0v1h1v-1zm1 1v2h1v-2zm0 2h-1v1h1zm-1 0v-2h-1v2zm6-3v1h1v-1ZM5 13v1h1v-1zm1 1v1h1v-1zm7-1v1h-1v1h2v-2zm12 0v1h1v-1zm1 1v1h1v-1zm1 1v1h1v-1zm19-2v1h1v1h1v-1h2v-1zm2 2v1h1v-1zm-1 0h-1v2h1v-1zm4-2v1h1v-1zm14 0v2h1v-2zm1 2v1h1v-1zm1 0h1v-1h-1Zm-51-1v2h2v-1h-1v-1zm18 0v1h1v-1zm25 0v2h2v-1h-1v-1zm12 0v1h1v-1zm4 0v2h1v-1h1v-1zm10 0v1h1v-1zm-62 1v1h1v-1zm7 0v1h1v-1zm12 0v1h1v-1zm1 1v1h-1v2h1v-1h1v-2zm11-1v1h1v-1zm9 0v1h1v-1zm20 0v1h1v-1zm4 0v1h1v-1ZM1 16v1h1v-1zm5 0v2h1v-2zm0 2H5v1h1zm0 1v1h1v-1zm2-3v2h1v-1h1v-1zm2 1v1h1v-1zm1 0h1v-1h-1zm0 1v1h1v-1zm27-2v1h1v-1zm0 1h-1v3h1v-1h2v-1h-2zm51-1v1h1v-1zm6 0v1h1v-1zm-72 1v1h3v-1zm3 1v1h1v-1zm1 1v1h1v-1zm-4-1h-1v1h1zm5-1v1h1v-1zm20 0v1h1v-1zm5 0v1h1v-1zm15 0v1h1v-1zm10 0v1h1v-1zm1 1v1h1v-1zm1 0h1v-1h-1zm2-1v1h1v-1zm5 0v1h1v-1zm0 1h-1v1h1zM0 18v1h1v-1zm1 1v2h1v-2zm0 2H0v1h1zm12-3v1h1v-1zm17 0v1h1v-1zm1 1v1h1v-1zm2-1v1h1v-1zm2 0v2h1v-2zm21 0v1h1v-1zm0 1h-1v1h1zm-1 1h-1v1h1zm-1 1h-1v1h1zm4-3v1h1v-1zm1 1v1h2v-2h-1v1zm25-1v1h1v-1zm0 1h-1v1h1zm9-1v1h1v-1zm-74 1v2h1v-1h1v-1zm1 2v1h1v-1zm-1 0h-1v1h1zm48-2v1h1v-1zm5 0v2h1v-1h1v-1zm0 2h-1v1h1zm3-2v1h1v-1zm6 0v1h1v-1zm10 0v1h1v-1zm4 0v2h1v-2zm-82 1v1h1v-1zm10 0v3h1v-1h2v-1h-2v-1zm1 3v2h-1v1h2v-3zm-1 2v-1h-1v1zm-1-1v-1h-1v1zm19-4v1h1v-1zm1 1v1h1v-1zm0 1h-1v1h1zm8-2v1h1v-1zm12 0v1h3v-1zm0 1h-1v1h1zm15-1v1h1v-1zm11 0v2h1v-2zm1 2v1h1v-1zm0 1h-1v1h-1v2h1v-1h1v-1zm-2 1v-1h-1v1zm0-1h1v-1h-1Zm-71-2v1h1v-1zm0 1h-1v2h2v-1h-1zm14-1v1h1v-1zm2 0v1h1v-1zm2 0v2h1v-1h1v-1zm2 1v2h1v-2zm0 2h-1v1h1zm-2-1h-2v2h1v-1h1zm4-2v1h1v-1zm10 0v1h1v-1zm9 0v2h1v-2zm2 0v1h1v-1zm21 0v1h-1v2h1v-1h2v-1h-1v-1zm2 2v1h1v-1zm-2 1v2h2v1h1v-2h-2v-1zm4-3v1h1v-1zm7 0v1h1v1h1v-2ZM7 22v1h1v-1zm57 0v2h2v-2zm0 2h-1v2h1v-1zm11-2v1h1v-1zm1 1v1h1v-1zm18-1v1h1v-1ZM0 23v1h1v-1zm13 0v1h1v-1zm38 0v2h1v-1h1v-1zm1 2v1h1v-1zm1 1v1h-1v2h1v-1h1v-2zm-1 1v-1h-2v-2h-1v1h-1v1h1v1h1v1h1v-1zm8-4v1h1v-1zm7 0v1h1v-1zm1 1v1h3v-1ZM3 24v1h1v-1zm2 0v3h1v-2h1v-1zm2 1v1h1v-1zm1 0h1v-1H8Zm-2 2v1h1v-1Zm-1 0H4v2h1v-1zm0 2v1h1v-1zm23-5v2h2v-2zm14 0v3h1v-3zm15 0v2h1v-1h1v-1zm2 1v1h1v-1zm14-1v1h1v-1zm11 0v2h1v-2zm-6 1v1h1v-1zm16 0v1h1v-1ZM1 26v1h1v-1zm9 0v1h1v-1zm1 1v1h1v-1zm6-1v4h1v-4zm15 0v1h1v-1zm0 1h-1v1h1zm2-1v1h1v-1zm2 0v1h1v-1zm19 0v1h1v-1zm11 0v1h1v-1zm6 0v1h2v-1zm3 0v3h1v-3zm-61 1v1h1v-1zm1 1v1h1v-1zm11-1v1h1v-1zm1 1v1h1v-1zm0 1h-1v1h1zm58-2v1h1v-1zm0 1h-1v1h1zm2-1v1h1v-1zm1 1v1h1v1h1v-2zm0 1h-1v1h1zm3-2v1h1v-1zm-71 1v1h-1v1h2v-2zm3 0v1h1v-1zm6 0v1h1v-1zm1 1v1h1v-1zm0 1h-1v1h1zm-1 1h-2v1h2zm6-3v1h-1v1h2v-2zm-1 2h-1v1h1zm3-2v1h1v-1zm1 1v1h1v-1zm2-1v2h1v-1h1v-1zm1 2v1h-1v1h2v-1h1v-1zm15-2v2h1v-2zm2 0v1h1v-1zm1 1v1h1v-1zm4-1v1h1v-1zm7 0v1h1v-1zm10 0v1h1v-1ZM1 29v1h1v-1zm8 0v1h1v-1zm2 0v1h1v-1zm35 0v2h1v-1h1v-1zm0 2h-1v1h1zm20-2v1h1v-1zm29 0v1h1v-1ZM7 30v1h1v-1zm16 0v2h1v-2zm1 2v2h2v-1h-1v-1zm27-2v2h1v-2zm0 2h-1v1h1zm0 1v3h1v-3zm1 3v1h1v-1zm1 1v1h1v-1zm-2-1h-1v1h1zm-1-4v-1h-1v1zm4-2v1h1v-1zm1 1v1h1v-1zm-1 0h-1v1h1zM4 31v1h1v-1zm1 1v1h1v-1zm4-1v1h1v-1zm5 0v3h1v-2h2v-1zm0 3h-1v1h1zm4-3v2h1v-1h1v-1zm0 2h-1v1h1zm18-2v1h1v-1zm0 1h-1v1h1zm38-1v2h1v-2zm10 0v1h1v-1zm1 1v1h2v-1zm10-1v1h1v-1ZM0 32v1h1v-1zm1 1v1h2v-1zm2 1v2h1v-2zm4-2v1h1v-1zm52 0v1h1v-1zm4 0v1h-1v1h2v-2zm6 0v1h1v-1zm9 0v1h1v2h1v-3zm0 1h-1v1h1zm-1 1h-1v1h1zm11-2v1h1v-1zm2 0v1h1v-1zm-70 1v1h1v-1zm0 1h-1v1h1zm-1 1h-1v1h1zm11-2v2h1v-2zm2 0v1h1v1h1v-2zm2 2v1h1v-1zm0 1h-1v1h1zm4-3v1h2v-1zm2 1v2h1v-1h1v-1zm27-1v1h1v-1zm1 1v1h1v-1zm1 1v1h1v-1zm1 0h1v-1h-1zm1-1h1v-1h-1zm12-1v1h-1v1h2v-2zm12 0v1h1v-1ZM7 34v1h1v-1zm20 0v1h1v1h1v-2zm0 1h-1v1h1zm26-1v1h1v-1zm3 0v4h2v-1h-1v-2h1v-1zm2 4v2h1v-2zm27-4v2h1v-1h1v-1zm4 0v1h1v-1ZM9 35v1h1v-1zm0 1H8v1h1zm6-1v1h1v-1zm21 0v1h1v-1zm2 0v1h1v-1zm6 0v1h1v-1zm16 0v1h1v-1zm6 0v1h1v-1zm7 0v1h1v-1zm1 1v1h3v-1zm-1 0h-2v1h2zm-2 1h-1v1h1zm24-2v1h1v-1zm-65 1v1h1v-1zm1 1v2h1v-2zm31-1v1h1v-1zm0 1h-2v1h2zm20-1v1h1v-1zm9 0v1h1v-1ZM1 37v1h1v-1zm0 1H0v2h1v-1zm13-1v1h1v-1zm1 1v1h1v-1zm-1 0h-1v1h1zm4-1v1h1v-1zm0 1h-1v1h1zm5-1v1h1v-1zm12 0v2h1v-2zm0 2h-1v1h1zm7-2v2h1v-2zm2 0v1h1v-1zm22 0v1h1v-1zm1 1v1h1v-1zm21-1v1h1v-1zm-59 1v1h1v-1zm18 0v1h1v-1zm3 0v2h1v-2zm22 0v1h-1v1h2v-2zm2 0v1h1v-1zm1 1v1h1v-1zm1 0h1v-1h-1zm2-1v3h1v1h1v-2h-1v-2zm2 2h1v-1h-1zm0 2v1h1v1h1v-1h1v-1zm3 1v1h1v-1zm1 0h1v-1h-1zm0 1v1h2v-1zm2 0h1v1h1v-3h-2v1zm-3 0h-1v1h1zm2-6v1h2v-1zm0 1h-1v1h1zm6-1v1h1v-1zm0 1h-1v1h1zm-1 1h-1v1h1zM4 39v1h2v-1zm19 0v1h2v-1zm0 1h-1v1h1zm-1 1h-1v1h1zm33-2v1h2v-1zm5 0v1h1v-1zm-48 1v1h1v-1zm0 1h-1v1h1zm6-1v1h2v-1zm13 0v1h1v-1zm11 0v1h1v-1zm1 1v1h1v-1zm10-1v1h1v-1zm11 0v1h1v-1zm5 0v1h1v-1zm17 0v1h1v-1zm8 0v1h1v-1zm1 1v1h1v-1zm0 1h-1v-1h-1v2h2zm-80-1v1h2v-1zm10 0v1h1v-1zm11 0v1h1v-1zm4 0v1h1v-1zm32 0v2h1v-2ZM0 42v1h1v1h1v-2zm2 2v1h1v-1zm1 1v1h2v-1zm2 0h1v-1H5Zm1-1h1v-1h1v-1H4v1h2zm-1 2v2h2v-1H6v-1Zm-2 0H2v1h1Zm-2-2H0v1h1zm8-2v1h1v-1zm19 0v1h2v-1zm2 1v2h1v-2zm0 2h-2v1h2zm8-3v1h1v-1zm8 0v1h2v-1zm5 0v2h1v-2zm4 0v2h1v-1h2v-1zm5 0v1h1v-1zm0 1h-1v1h-1v2h1v-1h1v-1zm-1 3v1h1v-1zm5-4v1h1v-1zm0 1h-1v2h1v-1zm2-1v2h1v-2zm3 0v1h1v-1zm22 0v1h1v-1zm-74 1v2h1v-2zm0 2h-1v1h-1v1h1v1h1v-2zm-2 1v-1h-1v1zm7-3v2h1v-2zm31 0v2h1v-2zm-20 1v1h1v-1zm0 1h-1v1h1zm0 1v1h1v-1zm-1 0h-1v1h1zm4-2v1h1v-1zm2 0v2h1v-2zm2 0v1h2v-1zm2 1v1h1v-1zm5-1v1h1v-1zm21 0v1h1v-1zm8 0v2h1v-2zm1 2v1h1v-1zm1 1v1h1v-1zm-1 0h-1v1h1zM7 45v1h1v-1zm4 0v1h1v-1zm15 1v1h1v-1zm9 0v1h1v-1zm9 0v1h2v-1zm5 0v1h2v-1zm0 1h-1v1h1zm-1 1h-1v2h2v-1h-1zm8-2v1h1v-1zm0 1h-1v2h-1v1h1v2h-1v1h2v-5zm7-1v1h1v-1zm4 0v2h1v-1h1v-1zm1 2v1h1v-1zm12-2v1h1v-1zm1 1v1h1v-1zm6-1v2h1v-2zm5 0v3h1v-3zm1 3v1h1v-1zm0 1h-1v1h1zM8 47v1h1v-1zm2 0v1h1v-1zm2 0v2h1v-2zm10 0v2h1v-2zm2 0v1h1v-1zm14 0v1h1v-1zm4 0v1h1v-1ZM3 48v1h1v-1zm1 1v1h1v-1zm14-1v1h1v-1zm11 0v1h1v-1zm2 0v1h2v-1zm19 0v1h1v-1zm2 0v1h1v-1zm7 0v2h1v-2zm1 2v1h2v-1zm2 0h2v-1h-2zm2-1h1v-1h-1zm-2 2v1h1v-1zm0 1h-2v1h2zm0 1v3h1v-3zm-2-1v-1h-1v-1h-1v2zm11-4v1h1v-1ZM1 49v1h1v-1zm14 0v1h1v-1zm5 0v1h1v-1zm5 0v1h1v-1zm14 0v1h-1v1h1v1h1v-3zm3 0v2h1v-2zm34 0v1h1v-1zm0 1h-1v1h1zm-1 1h-1v1h1zm3-2v1h1v-1zm1 1v1h1v-1zm3-1v1h1v-1zm4 0v1h1v-1zm-68 1v1h1v-1zm9 0v1h1v-1zm5 0v1h1v-1zm0 1h-2v1h2zm-2 1h-1v1h1zm4-2v1h1v-1zm2 0v1h1v-1zm29 0v1h-1v1h1v1h1v-1h1v-1h-1v-1zm30 0v1h1v-1ZM0 51v1h1v-1zm1 1v1h1v-1zm4-1v1h2v-1zm2 1v1h1v-1zm1 1v1h2v-1zm6-2v1h1v-1zm1 1v1h1v-1zm0 1h-1v1h-2v1h3v-1zm-3 1v-1h-1v1zm38-3v1h1v-1zm21 0v1h1v-1zm0 1h-1v1h1zm6-1v1h-1v1h2v-2zm-59 1v1h1v-1zm4 0v1h2v-1zm0 1h-1v1h1zm4-1v1h1v-1zm1 1v1h1v-1zm1 1v1h1v-1zm17-2v1h1v-1zm2 0v1h2v-1zm5 0v1h1v-1zm32 0v1h1v-1zm11 0v2h1v-2zm-62 1v1h1v-1zm24 0v1h1v-1zm1 1v1h2v-1zm15-1v1h-1v1h-1v1h2v-1h1v-2zm0 3v1h1v1h1v-2zm-2 0h-1v1h1zm17-3v1h1v-1ZM2 54v1h1v-1zm4 0v1h1v-1zm1 1v1h1v-1zm0 1H6v1h1zm0 1v1h1v-1zm1 1v1h1v-1Zm-1 0H6v1h1zm11-4v3h1v-3zm18 0v1h-1v1h2v-2zm3 0v4h1v-1h1v-1h-1v-1h2v-1zm3 1v1h1v-1zm5-1v1h1v1h1v-2zm2 2v1h1v-1zm1 1v1h-1v1h2v-2zm-1 2h-1v2h1v-1zm0 2v1h1v-1zm1 1v1h1v-1zm-1 0h-1v-1h-1v3h1v-1h1zm-2 2h-1v1h1zm0 1v1h1v2h1v-1h1v-1h-1v-1zm3 1h1v-1h-1zm1 0v1h1v-1zm1 0h1v-1h-1zm-1 1h-1v1h1zm-5-2h-1v1h1zm3-7v-1h-1v1zm4-4v1h1v-1zm14 0v1h1v-1zm9 0v1h1v-1zm8 0v1h1v-1zm1 1v1h1v-1zm7-1v1h2v-1zm-60 1v1h1v-1zm1 1v1h1v-1zm1 1v1h2v-1zm31-2v1h1v-1zm13 0v1h1v-1zm1 1v1h1v-1zm1 0h1v-1h-1zm-2 0h-1v1h1zm10-1v1h1v-1ZM3 56v1h2v-1zm7 0v2h2v-1h-1v-1zm3 0v1h1v-1zm1 1v1h1v-1zm16-1v1h1v-1zm1 1v2h2v-1h-1v-1zm21-1v2h1v-2zm5 0v2h1v-2zm3 0v3h1v-3zm8 0v1h-2v2h1v-1h2v-2zm15 0v1h1v-1zm-63 1v1h1v-1zm2 0v1h1v-1zm2 0v2h2v-1h-1v-1zm0 2h-1v1h1zm3-2v1h1v-1zm15 0v1h1v-1zm4 0v1h1v-1zm8 0v1h1v-1zm1 1v1h1v-1zm39-1v1h1v-1zm1 1v2h1v-2zm-66 0v1h1v-1zm15 0v1h1v-1zm20 0v1h1v-1zm7 0v2h1v-1h1v-1zm9 0v1h1v-1zm7 0v1h1v-1ZM0 59v1h2v-1zm14 0v1h1v-1zm0 1h-1v2h1v-1zm25-1v1h1v-1zm0 1h-1v1h1zm2-1v1h1v-1zm33 0v2h1v-2zm10 0v1h1v-1zm6 0v1h1v-1zm0 1h-2v1h1v1h1v-1zm0 2v1h1v-1zm1 1v1h1v-1ZM4 60v1h2v-1zm4 0v1h1v-1zm2 0v2h1v-2zm0 2H9v1h1zm-1 1H7v1h2zm9-3v2h1v-2zm1 2v1h2v-1zm9-2v1h1v-1zm1 1v2h1v-2zm3-1v1h1v1h1v-2zm13 0v1h1v-1zm19 0v1h1v-1zm1 1v3h1v-1h1v-2zm3-1v1h1v-1zm1 1v1h1v-1zm9-1v1h1v-1zm0 1h-1v1h1zm-56 0v1h1v-1zm31 0v1h2v-1zm4 0v1h1v-1zm2 0v1h1v-1zm12 0v1h1v-1zm1 1v1h1v-1zm14-1v1h1v-1zm6 0v1h1v-1zm-68 1v1h1v-1zm3 0v1h1v-1zm11 0v1h1v-1zm5 0v1h1v-1zm2 0v1h1v-1zm16 0v1h1v-1zm2 0v1h1v-1zm16 0v2h1v-2zm2 0v1h1v-1ZM1 63v1h2v-1zm2 1v3h2v-1H4v-2zm8-1v1h1v-1zm4 0v1h1v-1zm26 0v2h1v-2zm1 2v1h1v-1zm0 1h-1v1h1zm26-3v1h2v-1zm0 1h-1v1h1zm8-1v1h1v-1zm9 0v1h1v-1zm3 0v1h1v-1zm5 0v2h1v-2zm-80 1v2h2v-1h-1v-1zm10 0v1h1v-1zm2 0v1h1v-1zm8 0v1h1v-1zm21 0v1h1v-1zm20 0v1h1v-1zm1 1v1h1v-1zm6-1v2h1v-2zm1 2v1h2v-1zm13-2v2h1v-2ZM0 65v1h1v-1zm17 0v2h1v-2zm0 2h-1v2h1v-1zm20-2v1h1v-1zm19 0v1h1v-1zm1 1v1h1v-1zm3-1v1h1v-1zm1 1v1h1v-1zm0 1h-1v1h1zm3-2v1h2v-1zm6 0v1h1v-1zm-59 1v1h1v-1zm1 1v1h2v-1zm9-1v1h1v-1zm7 0v1h1v-1zm1 1v1h1v-1zm5-1v2h1v-2zm20 0v1h1v-1zm18 0v1h1v1h1v-2zm15 0v1h1v-1zm1 1v1h1v-1zm3-1v1h1v-1ZM0 67v1h1v-1zm39 0v1h1v-1zm4 0v3h1v-3zm21 0v1h2v-1zm14 0v1h2v-1zm-60 1v2h1v-2zm0 2h-1v1h1zm2-2v1h1v-1zm5 0v1h1v-1zm28 0v1h1v-1zm0 1h-2v1h2zm3-1v1h1v-1zm0 1h-1v1h1zm12-1v1h2v-1zm3 0v1h1v-1zm15 0v1h1v-1zm1 1v1h1v-1zm-59 0v1h1v-1zm2 0v1h2v-1zm2 1v1h1v-1zm0 1h-1v2h1v-1zm8-2v1h2v-1zm21 1v2h2v1h1v-4h-1v2h-1v-1zm3 3v1h1v-1zm1 1v1h1v-1zm24-5v1h1v-1ZM0 70v2h1v-2zm8 0v1h1v-1zm3 0v1h-1v1h2v-2zm3 0v1h-1v1h2v-2zm8 0v1h1v-1zm15 0v1h1v-1zm22 0v1h1v-1zm10 0v1h1v1h2v-1h-1v-1zm3 1h1v-1h-1zm0 1v2h2v-1h-1v-1zm0 2h-1v1h1zm0 1v1h1v-1zm0 1h-1v1h1zm-1 1h-1v1h1zm-1 1h-1v2h2v-1h-1zm-1 2h-2v1h1v2h3v-1h-1v-1h-1zm0-2v-1h-2v1zm-2 0h-2v1h2zm4-2v-1h-1v1zm6-6v1h1v-1zm5 0v1h1v-1zm0 1h-1v1h1zm-1 1h-1v1h1zm-1 1h-1v1h1zm13-3v1h1v-1zm0 1h-1v1h1zm-46 0v1h1v-1zm2 0v3h1v-3zm1 3v1h2v-1zm2 0h1v-1h-1zm0-3v1h1v-1zm3 0v1h1v-1zm31 0v1h-1v1h2v-2ZM2 72v3h1v-2h1v-1zm1 3v1h1v-1zm1 0h1v-1H4Zm-2 0H0v1h2zm6-3v1h1v-1zm1 1v1h1v-1zm1 1v1h1v-1Zm-2-1H7v1h1Zm-1 1H6v1h1zm10-2v1h1v-1zm6 0v1h1v-1zm15 0v1h1v-1zm0 1h-1v2h1v-1zm6-1v1h1v-1zm22 0v1h1v-1zm1 1v1h2v-2h-1v1zm10-1v2h1v-2zm0 2h-1v1h1zm-57-1v2h1v-2zm7 0v1h-1v1h1v1h1v-3zm1 3v1h1v-1zm1 1v1h2v-1zm-2-1h-1v1h1zm8-3v1h1v-1zm0 1h-1v1h1zm7-1v1h1v-1zm1 1v1h1v-1zm1 1v1h1v-1zm14-2v1h1v-1zm35 0v1h1v-1zm2 0v1h1v-1zm-80 1v2h1v-1h1v-1zm1 2v1h1v-1zm30-2v2h1v-2zm8 0v1h1v-1zm8 0v1h-1v1h2v-2zm24 0v1h1v-1zm2 0v1h2v-1ZM8 75v1h1v-1zm4 0v1h1v-1zm6 0v1h1v-1zm5 0v1h1v-1zm1 1v1h1v-1zm6-1v1h2v-1zm11 0v1h1v-1zm26 0v1h1v-1zm12 0v1h1v-1zm-46 1v1h1v-1zm1 1v1h1v-1zm0 1h-1v1h1zm24-2v1h1v-1zm1 1v1h1v-1zm16-1v1h1v-1zm8 0v1h1v-1zm12 0v1h1v-1ZM1 77v1h1v-1zm3 0v1h2v-1zm5 0v1h1v-1zm-1 2v4h1v-1h1v-1H9v-2zm2 2h1v-1h-1zm0 1v1h1v-1zm0 1H9v1H8v1h1v1h1v-2zm4-6v2h1v-2zm0 2h-1v2h1v-1zm0 2v1h1v-1zm23-4v1h1v1h2v-1h-1v-1zm1 2h-1v1h1zm-1 0v-1h-1v1zm18-2v1h1v-1zm6 0v1h1v-1zm2 0v1h1v-1zm10 0v1h1v-1zm0 1h-1v1h1zm7-1v1h1v-1zm-30 1v1h1v-1zm7 0v1h1v-1zm1 1v2h1v-2zm30-1v2h1v1h-1v1h2v-1h1v-1h-1v-2zm0 3v-1h-2v1zm7-3v1h1v-1zm-74 1v2h1v-2zm1 2v1h1v-1zm1-2v1h1v-1zm20 0v1h1v-1zm0 1h-1v1h1zm4-1v1h1v-1zm16 0v1h1v-1zm14 0v2h1v-2zm1 2v1h1v-1zm1 0h1v-1h-1zm1-1h2v-1h-2zm2 0v1h1v-1zm1 1v1h2v-1zm-1 0h-1v2h1v-1zm10-2v1h1v-1zm1 1v1h1v-1ZM1 80v1h1v-1zm2 0v1h2v-1zm23 0v2h1v-1h3v-1zm4 1v2h1v-2zm3-1v2h1v-2zm18 0v1h2v-1zm10 0v2h1v-2zm12 0v1h1v-1zm1 1v1h1v-1zm0 1h-1v1h1zm0 1v1h1v-1zm-1-1v-1h-1v1zm-57-1v2h1v-1h1v-1zm1 2v1h1v-1zm-1 0h-1v1h1zm23-2v1h1v-1zm24 0v1h2v-1ZM1 82v1h1v-1zm27 0v2h1v-2zm0 2h-1v1h1zm0 1v1h1v-1zm1 1v1h1v-1zm20-4v1h1v-1zm0 1h-1v1h1zm43-1v1h1v-1ZM3 83v1h1v-1zm0 1H2v1h1Zm-1 1H1v1h1zm3-2v2h2v-1H6v-1zm14 0v3h3v-1h-2v-2zm14 0v1h2v1h1v-2zm28 0v1h2v-1zm3 0v1h1v-1zm2 0v1h1v-1zm19 0v1h1v-1zm1 1v1h1v-1zm-1 0h-1v1h1zm3-1v1h1v-1zm-77 1v1h1v-1zm1 1v2h1v-2zm26-1v1h1v-1zm3 0v1h1v-1zm18 0v1h1v-1zm1 1v1h1v-1zm11-1v1h-1v1h3v1h1v-2h-2v-1zm3 3v1h1v-1zm1 0h1v-1h-1zm3-3v1h2v-1zm13 0v1h1v-1zm-75 1v1h1v-1zm7 0v1h1v-1zm9 0v1h-1v1h2v-2zm19 0v1h1v-1zm1 1v1h1v-1zm-1 0h-1v1h1zm3-1v2h1v-2zm9 0v1h1v-1zm0 1h-1v1h1zm0 1v1h1v-1zm3-2v1h1v-1zm-41 1v1h1v-1zm1 1v1h1v-1zm14-1v1h1v-1zm1 1v1h2v-1zm2 0h1v-1h-1zm-2 1h-1v2h1v-1zm-1 2h-1v1h1zm17-4v2h1v-1h1v-1zm20 0v1h2v-1zm3 0v1h1v-1zm7 0v1h1v-1zm1 1v1h2v-1zm-65 0v1h1v-1zm1 1v2h-2v1h1v1h1v-1h1v-3zm10-1v1h1v-1zm4 0v1h-1v1h2v-2zm27 0v1h1v-1zm3 0v1h2v-1zm14 0v1h1v-1ZM2 88v1h1v-1zm1 1v1h1v-1zm1 1v2h1v-1h1v-1Zm-2-1H0v1h2zm6-1v1h1v-1zm1 1v1h1v-1Zm-1 0H7v1h1zm3-1v1h1v-1zm6 0v1h1v-1zm12 0v1h1v-1zm2 0v1h1v-1zm17 0v1h1v-1zm3 0v2h1v-1h1v-1zm2 1v1h-1v1h3v-1h-1v-1zm-1 2h-1v1h1zm-1 0v-1h-1v1zm-1 0h-1v1h1zm9-3v1h1v-1zm1 1v1h1v-1zm1 0h1v-1h-1zm-1 1h-1v1h1zm31-2v1h-1v1h2v1h1v-3zm4 0v1h1v-1zm0 1h-1v1h1zm-76 0v1h1v-1zm44 0v1h1v-1zm18 0v1h1v-1zm-66 1v1h1v1h1v-2zm0 1h-1v1h1zm-1 1h-1v1h1zm0 1v1h1v-1zm1 1v1h1v-1zm1 0h1v-1h-1zm26-4v1h1v-1zm1 1v2h1v-2zm14-1v1h1v-1zm8 0v2h2v-1h-1v-1zm13 0v1h1v-1zm6 0v2h1v-2zm-47 1v2h-1v1h2v-1h1v-1h-1v-1zm2 2v1h1v-1zm1 1v1h1v-1zm0 1h-1v1h1zm-1 0v-1h-1v1zm23-4v1h1v-1zm1 1v1h1v-1zm17-1v1h1v-1zm10 0v1h1v-1ZM2 92v1h1v-1zm0 1H1v1h1zm7-1v1h1v-1zm17 0v1h1v-1zm8 0v1h1v-1zm13 0v1h1v-1zm6 0v1h2v-1zm5 0v1h2v-1zm11 0v1h1v-1zm2 0v1h1v-1zm1 1v2h2v-2h1v-1h-2v1zm16-1v1h1v-1zm0 1h-1v1h1zm-1 1h-1v1h1zm-1 1h-1v1h1zm7-3v1h1v-1zm1 1v1h1v-1zm1 1v2h1v-2zm-1 0h-1v2h1v-1Zm-83-1v1h1v-1zm19 0v2h1v-2zm0 2h-1v1h1zm46-2v1h1v-1zm2 0v1h1v-1zm1 1v1h1v-1zm1 1v1h2v-1h1v-2h-2v2zM3 94v2h2v-1H4v-1zm20 0v1h1v-1zm1 1v1h1v-1zm8-1v1h1v-1zm12 0v1h1v-1zm3 0v1h-1v1h2v-2zm2 0v1h1v-1zm10 0v1h1v-1zm8 0v2h1v-2zm22 0v1h1v-1ZM1 95v1h1v-1zm6 0v1h2v-1zm4 0v1h1v-1zm16 0v1h1v-1zm8 0v1h1v-1zm26 0v1h2v-1zm30 0v1h1v-1z" />
</svg>
