<svg height="91" viewBox="0 0 296 91" width="296" xmlns="http://www.w3.org/2000/svg"><g fill="none" fill-rule="evenodd"><g fill-rule="nonzero"><path d="m56.3290245 74.7726272c2.2188404 0 4.0242322 1.8194778 4.0242322 4.0748001 0 2.2691585-1.8053918 4.1093908-4.0242322 4.1093908-2.2119495 0-4.0104505-1.8402323-4.0104505-4.1093908 0-2.2553223 1.798501-4.0748001 4.0104505-4.0748001zm12.0244608-51.8170665v9.5539879c0 7.3886017-6.2430724 13.6218696-13.3681684 13.6218696h-21.3752879c-5.037181 0-9.3232639 3.7150554-10.4257933 8.5024266-.179161.7817528-.2756323 1.5911783-.2756323 2.4144401v20.4500999c0 5.8250961 5.0440718 9.2495885 10.7014256 10.9237848 6.7736647 1.9993501 13.2648063 2.3590947 21.3752879 0 5.3886122-1.5704238 10.7014256-4.7112713 10.7014256-10.9237848v-8.191109h-21.3821788v-2.7257576h21.3752879 10.6945348c6.2224001 0 8.5377117-4.3584449 10.6945348-10.889194 2.2464035-6.7313759 2.1430414-13.1998615 0-21.8337332-1.5297595-6.2263498-4.4652439-10.9030303-10.6945348-10.9030303z" fill="#f18a00"/><path d="m32.2594305 6.58717896c2.2050587 0 4.0104505 1.8333141 4.0104505 4.10939084 0 2.2484041-1.8053918 4.0748-4.0104505 4.0748-2.2188403 0-4.0173413-1.8263959-4.0173413-4.0748 0-2.26915857 1.798501-4.10939084 4.0173413-4.10939084zm11.5696674-6.58609443c-3.6590193.01383633-7.1526592.33207199-10.2259597.87168897-9.0545224 1.61193277-10.7014256 4.98107982-10.7014256 11.1797569v8.1841909l21.3959603-.0069182v2.7257576l-21.3959603.0069182h-8.0277919c-6.22240005 0-11.66613875 3.7565644-13.36816845 10.9099484-1.97077122 8.1772727-2.04657011 13.2828796.00689081 21.8337333 1.52286868 6.3647131 5.15432475 10.8891939 11.37672484 10.8891939h7.3593834v-9.80996c0-7.0911206 6.1052563-13.3520612 13.3681685-13.3520612l21.3752879-.0069181c5.9467677 0 10.7014256-4.9257345 10.6945497-10.9168666l-.0069058-20.4708545c0-5.82509612-4.892474-10.19045914-10.7014255-11.17283877-3.6796918-.60879864-7.4903088-.8855253-11.1493282-.8647708z" fill="#3dae2b"/><path d="m65.6867425 17.0336103v-4.987998c0-.3528265-.0206725-.6918167-.0620173-1.0308068-.0068908-.0553454-.0137816-.1176089-.0206724-.1729542-.0206725-.1591178-.0344541-.3251538-.0620173-.4842716-.0068908 0-.0137816 0-.0137816 0-.8406787-4.96724353-5.3128134-8.60619907-10.5498278-9.4848062-3.5556572-.59496232-7.2284581-.87168897-10.7703337-.87168897-.1240345 0-.2480691 0-.3789945 0-3.6590193.01383633-7.1526592.33207199-10.2259597.87168897-.9578224.17295416-1.8260643.35974465-2.6253981.57420781-.0068908 0-.0206724.00691817-.0275632.00691817-6.7323199 1.78488693-8.0484643 5.05717965-8.0484643 10.59171282v8.1841908l18.0332458-.0069181h3.3627145v2.7188394l-17.5026535.0069182h-3.0870822-.7993338-8.0277919c-.2342875 0-.4616842.0138363-.6890808.0276726 0 0-.0068908 0-.0068908-.0069181-.0344541 0-.0620173.0069181-.0964714.0069181-.2894139.0138364-.5788279.041509-.861351.0691817-.0826897.0069182-.1722702.0207545-.2549599.0276726-.2756324.0345909-.5512647.083018-.8268971.1314452-.0895805.0138363-.179161.0345908-.2687415.0553453-.2618507.0553454-.5237014.1176089-.7786613.1867905-.0964714.0276727-.1998335.0553454-.2963048.083018-.2411783.0691817-.4892474.1521997-.7235349.2352177-.11025293.041509-.21361506.0760998-.31697719.1176088-.22739668.0899362-.44790255.1798723-.66840842.2767267-.11714374.0553453-.23428749.1106906-.34454042.166036-.20672426.0968543-.4065577.2006268-.60639115.3113175-.12403455.0691816-.2480691.1452815-.37210366.2213813-.17916102.1106906-.36521285.2213813-.53748306.3389901-.13092536.0899362-.26185072.1867905-.39277608.2767267-.1584886.1176088-.31697719.2352177-.47546579.3597447-.13781617.1106906-.27563234.2282994-.41344851.3528264-.13781617.1176089-.27563233.2421359-.4065577.3666629-.14470697.1383633-.28252314.2836448-.42033931.4289263-.11714375.124527-.23428749.2421358-.34454043.3666628-.15848859.1867905-.29630476.3597447-.43412093.539617-.09647132.1176088-.19294264.2352176-.28252315.3597446-.15159779.2006269-.28941396.41509-.42723013.6295532-.07579889.1106906-.15159778.2144631-.22050587.332072-.15159778.2421358-.28941395.4981079-.42723012.7609983-.04823566.0968543-.10336213.1867905-.1584886.2836448-.15159778.3043993-.29630476.622635-.43412093.9408706-.02756324.0622635-.05512647.1176089-.0826897.1798724-.31697719.7817528-.59260953 1.6119327-.79933379 2.497458-.12403455.5050262-.23428749.9892978-.33764961 1.4735695-.01378162.0553453-.02067243.1106906-.03445405.166036-.0826897.3666628-.15848859.7264075-.22739668 1.0792339-.04134485.207545-.0826897.4081719-.11714374.6157169-.03445404.1937086-.07579889.3943354-.11025294.5880441-.04823565.2559722-.08958051.5050261-.13092536.7540801-.0068908.0553454-.02067242.1106907-.02756323.166036-.44101174 2.7395939-.59950034 5.2439702-.46168417 7.8521189 0 .0553454.00689081.1106907.01378162.166036.01378161.2767267.03445404.5603715.05512647.8440163.01378161.1383633.02067242.2767267.03445404.41509.02067242.2559722.04823566.5119443.07579889.7679165.02067243.207545.04823566.41509.0757989.622635.02756323.2006268.04823565.3943354.07579889.5949623.04823566.3182356.09647132.6503076.15159779.9754614.01378161.1037725.03445404.2006269.04823565.3043994.00689081.041509.01378162.0760998.02067243.1106906.18605183 1.0861521.42033932 2.2276496.69597166 3.4314106.06890808.290563.13092536.5811259.19983344.8786071.35832204 1.5012421.84067864 2.8917936 1.44017897 4.1508999.04134486.083018.0757989.1729541.11714375.2559721.00689081.0207545.01378162.0345908.02756323.0553453h.00689081c.24806911.498108.52370145.9685433.8131154 1.4251423.00689081.0138364.00689081.0276727.01378162.0345909.04134485.0691816.08958051.124527.13092536.1937086.06201728.0899362.11714374.1729542.17916102.2628903.13092536.1798724.26185072.3597447.39966689.5326989.06201728.0760998.11714375.1521996.17227021.2213813.01378162.0138363.02756324.0345908.04134486.0484272.0068908 0 .0068908.0069181.01378161.0069181 1.38505251 1.66036 3.14220867 2.8295301 5.29214091 3.3691471.1171438.0276726.2342875.0622635.358322.0899361.2067243.041509.4203394.0760999.6270636.1106907.0689081.0138363.1378162.0276727.2136151.0345908-.0068908 0-.0137816-.0069181-.0206724-.0069181.4961382.0622635 1.0129488.1106906 1.5435411.1106906h7.3593834v-9.80996c0-7.0911206 6.1052563-13.3520612 13.3681685-13.3520612h10.8874774 9.7711664s0 0 0-.0069181h.7097533c.9509315 0 1.8605183-.1383634 2.7356509-.373581 0 .0069181.0068908.0069181.0068908.0138363.0895806-.0276727.1722703-.0622635.2618508-.0899361.1584886-.0484272.3100864-.0968544.4616841-.1521997.1860519-.0622635.3721037-.1314452.5512647-.207545.1584886-.0691817.3169772-.1383633.468575-.2144632.1171437-.0553453.2342875-.0968543.3445404-.1591178-.0068908 0-.0068908-.0069182-.0137816-.0069182 3.4936399-1.8056414 5.8778596-5.4999423 5.8709688-9.7338601v-7.7345101-6.0464774l.0206725-1.6672781c-.0068909 0-.0068909 0 0 0zm-32.490162-2.3729311c-.1309254.0345908-.2687416.0553453-.4065577.0760998-.0206725 0-.0413449.0069182-.0620173.0069182-.1515978.0207545-.3031956.0276726-.4616842.0276726h-.0068908c-.0206724 0-.0413448 0-.0620173 0-.1102529 0-.213615-.0069181-.3169772-.0138363-.0620172-.0069182-.1240345-.0138363-.1860518-.0276727-.0620173-.0069181-.1240345-.0138363-.1860518-.0276726-.0689081-.0138364-.1378162-.0276727-.2067243-.0484272-.0482356-.0138363-.0964713-.0276727-.1447069-.041509-.0757989-.0207545-.144707-.0484272-.2205059-.0691817-.0413449-.0138363-.0757989-.0276726-.1171438-.0415089-.0757989-.0276727-.1584886-.0622635-.2342875-.0968544-.0275632-.0138363-.0551264-.0276726-.0826897-.041509-.0826897-.041509-.1653794-.083018-.2480691-.1314451-.0068908-.0069182-.0206724-.0138364-.0275632-.0207545-.9784948-.5880442-1.6882481-1.577342-1.9087539-2.7465121 0 0-.0068909-.0069182-.0068909-.0069182-.034454-.1867905-.0551264-.373581-.0620172-.5603715h.0068908c0-.0691816-.0068908-.1314451-.0068908-.2006268 0-2.26915857 1.798501-4.10939084 4.0104505-4.10939084.0275632 0 .0551265.00691817.0895805.00691817.110253 0 .2273967.00691817.3376496.0207545.0689081.00691816.1309254.0207545.1929427.02767266.0689081.01383634.1447069.0207545.213615.03459084.0689081.01383633.1378162.03459083.2067243.05534533.0620173.0207545.1309253.03459083.1929426.05534533.0689081.0207545.1378162.04842716.1998335.07609983.0620172.0207545.1240345.04842716.179161.07609983.0620173.02767267.1309254.0622635.1929426.09685433.0620173.02767267.1171438.0622635.1722702.09685433.0620173.03459083.1171438.06918166.1791611.11069066.0551264.03459083.1102529.07609983.1653794.11760883.0551264.041509.1102529.083018.1653794.124527.0551264.041509.1033621.08993616.1515978.13144516.0482356.04842716.1033621.08993616.1515977.13836333.0482357.04842716.0895806.09685433.1378162.14528149.6684084.73332564 1.0818569 1.71570528 1.0818569 2.79493922 0 1.9163321-1.3161444 3.5282649-3.0733005 3.9641094zm-31.80108118 37.1574718c.55815548.2836449 1.15076501.5050262 1.74337454.6987348.64084519.207545 1.28858119.3874174 1.93631719.539617-.62706357.1798724-1.25412715.3804992-1.8674091.6295532-.45479336.1798723-.8958051.3874173-1.295472.6503076-.19983344-.8647708-.37210365-1.7018689-.51681063-2.5182126zm53.58981758-9.0973888h-.5305923c.2480691-.9339525.4616842-1.8748231.6339544-2.8295301.5581555.5672897 1.4815238 1.5635056 2.2050587 2.5458853-.7373165.1798723-1.509087.2836448-2.3084208.2836448zm10.0054539-23.5978657c-.2825232.1937087-.5443739.41509-.7717706.6848985-.7579889.9270343-.9371499 1.9716774-.5237014 3.0855022.2618507.7194893.7028625 1.2383518 1.295472 1.577342v8.025073c0 4.1508999-2.4393462 7.7275919-5.9260953 9.3256884-1.1645466-.7402439-2.5151451-2.0062683-3.2180076-2.6980849 1.7709378-.3251539 3.5212032-.7194894 5.2025604-1.3974697.7993338-.3251538 1.584886-.6987348 2.1499323-1.3836333.7579889-.9270343.9371499-1.9716774.5237014-3.0855022-.4065577-1.0999884-1.2265639-1.7502961-2.3773289-1.9647592-.2618507-.0484272-.5305922-.0484272-.7993338-.0691817 0-.0622635 0-.1176088 0-.1729542.0413449-1.3974696-.8131154-2.6081487-2.1430414-3.0509114-1.2885812-.4289263-2.7218694.0760999-3.5074215 1.203761-.5650463.8094255-.9026959 1.7157053-1.2058915 2.6427396-.0826897.2559721-.1515978.5119443-.2273967.7679164-.2480691-1.0308067-.5443739-2.0477772-.9440408-3.037075-.323868-.8025073-.6959716-1.5911783-1.3781617-2.1584679-.9233683-.7609983-1.9638804-.9408707-3.0733005-.5257807-1.0956386.4081718-1.7433746 1.2314336-1.9569896 2.3867674-.0482357.2628904-.0482357.5326988-.0689081.8025073-.0620173 0-.1171438 0-.1722702-.0069181-1.3919434-.041509-2.5978348.8163436-3.0388466 2.1515497-.4272301 1.2936971.0757989 2.7326758 1.1990007 3.5213467.8062246.5672897 1.7089205.9062798 2.6322888 1.2106792.6408452.207545 1.2885812.3874173 1.9363172.5396169-.6270636.1798724-1.2541271.3804992-1.8674091.6295532-.7993338.3251538-1.5848859.6987348-2.1499322 1.3836333-.757989.9270343-.93715 1.9716774-.5237015 3.0855022.0137816.041509.0344541.0760998.0551265.1176088h-10.5084829c-3.6796918 0-7.1940041 1.5012421-9.895201 4.2200815-2.6460705 2.6634941-4.1620483 6.2471043-4.1620483 9.8237964v9.1181433h-6.6703027c-2.0258976 0-4.38255415-.5257806-6.44979669-2.3521766 1.11631097.1314452 2.24640356-.373581 2.91481199-1.3282879.56504629-.8094255.9026959-1.7157053 1.2058915-2.6427396.4410117-1.3490425.7442073-2.7257576.9922764-4.1232272.8131154.83018 2.4393462 2.5804761 3.0319557 3.8465005.6959717 1.4804877.647736 1.7157053.647736 1.7157053l1.3092536-1.3144516 1.3092537-1.3144516s-.2273967.0484271-1.7089205-.6503077c-1.261018-.5949623-3.0043925-2.2276496-3.8312896-3.0439932 1.7709378-.3251538 3.5212032-.7194893 5.2025604-1.3974696.7993338-.3251538 1.584886-.6987348 2.1499323-1.3836333.7579889-.9270343.9371499-1.9716774.5237014-3.0855022-.4065577-1.0999885-1.2265639-1.7502961-2.3773289-1.9647593-.2618507-.0484272-.5305922-.0484272-.7993338-.0691817 0-.0622634 0-.1176088 0-.1729541.0413449-1.3974696-.8131154-2.6081488-2.1430414-3.0509114-1.2885812-.4289263-2.7218694.0760998-3.5074215 1.203761-.5650463.8094254-.9026959 1.7157052-1.2058915 2.6427395-.0826897.2559722-.15159781.5119443-.2273967.7679165-.2480691-1.0308068-.54437387-2.0477773-.93714995-3.0370751-.323868-.8025073-.69597166-1.5911782-1.3781617-2.1584679-.92336834-.7609983-1.96388042-.9408706-3.07330058-.5257806-1.09563855.4081718-1.74337455 1.2314336-1.95698961 2.3867674-.04823566.2628903-.04823566.5326988-.06890809.8025073-.06201727 0-.11714374 0-.17227021-.0069182-.59260953-.0138363-1.15076501.1314452-1.63312161.41509-.08958051-2.2553222.06201728-4.4691355.42723013-6.8835756.17916102.1037725.36521285.1867905.56504629.2559722 1.28858119.4289263 2.72186935-.0760999 3.50742152-1.203761.5650463-.8094255.90269591-1.7157053 1.20589149-2.6427396.44101174-1.3490424.74420731-2.7257575.99227642-4.1232271.8131154.8301799 2.4393462 2.580476 3.0319557 3.8465005.6959717 1.4804876.647736 1.7157053.647736 1.7157053l1.3092536-1.3144517 1.3092536-1.3144516s-.2273966.0484272-1.7089205-.6503076c-1.2610179-.5949623-3.00439245-2.2276496-3.83128947-3.0439933 1.77093778-.3251538 3.52120317-.7194893 5.20256037-1.3974696.7993338-.3251538 1.584886-.6987348 2.1499323-1.3836333.7579889-.9270343.9371499-1.9716774.5237014-3.0855022-.1722702-.4773535-.4272301-.8647708-.7510981-1.1691701h7.5798893c-.3376496.4012536-.5719371.8924435-.68219 1.4804876-.0482357.2628903-.0482357.5326988-.0689081.8025073-.0620173 0-.1171437 0-.1722702-.0069182-1.3919433-.0415089-2.5978348.8163437-3.0388465 2.1515498-.4272302 1.2936971.0757988 2.7326757 1.1990006 3.5213467.8062246.5672897 1.7089205.9062798 2.6322889 1.2106791.6408452.207545 1.2885812.3874174 1.9363172.539617-.6270636.1798723-1.2541272.3804992-1.8674091.6295532-.7993338.3251538-1.584886.6987348-2.1499323 1.3836333-.7579889.9270343-.9371499 1.9716774-.5237014 3.0855022.4065577 1.0999884 1.2265639 1.7502961 2.3773289 1.9647592.2618507.0484272.5305922.0484272.7993338.0622635 0 .0622635 0 .1176089-.0068908.1729542-.0413449 1.3974696.8131154 2.6081487 2.1430414 3.0509114 1.2885812.4289263 2.7218694-.0760998 3.5074215-1.203761.5650463-.8094254.9026959-1.7157052 1.2058915-2.6427395.4410117-1.3490425.7442073-2.7257576.9922764-4.1232272.8131154.8301799 2.4393462 2.580476 3.0319558 3.8465005.6959716 1.4804876.647736 1.7157053.647736 1.7157053l1.3092536-1.3144516 1.3092536-1.3144517s-.2273967.0484272-1.7089205-.6503076c-1.261018-.5949623-3.0043925-2.2276496-3.8312895-3.0439932 1.7709377-.3251539 3.5212031-.7194893 5.2025604-1.3974697.7993337-.3251538 1.5848859-.6987348 2.1499322-1.3836332.7579889-.9270343.93715-1.9716775.5237015-3.0855023-.4065577-1.0999884-1.226564-1.7502961-2.377329-1.9647592-.2618507-.0484272-.5305922-.0484272-.7993338-.0691817 0-.0622635 0-.1176088.0068909-.1729542.0413448-1.3974696-.8131154-2.6081487-2.1430415-3.0509113-1.2885812-.4289264-2.7218693.0760998-3.5074215 1.2037609-.5650463.8094255-.9026959 1.7157053-1.2058915 2.6427396-.0826897.2559721-.1515978.5119443-.2273967.7679165-.2480691-1.0308068-.5443738-2.0477773-.9371499-3.0370751-.2549599-.6433895-.5512647-1.2660245-1.0060581-1.7779688l16.6826474-.0069181h.0826897c.2205058.1452815.4616841.2698085.7235349.3528265 1.2885812.4289263 2.7218693-.0760999 3.5074215-1.203761.5650463-.8094255.9026959-1.7157053 1.2058915-2.6427396.4410117-1.3490424.7442073-2.7257576.9922764-4.1232272.8131154.83018 2.4393462 2.5804761 3.0319557 3.8465006.6959717 1.4874057.647736 1.7157052.647736 1.7157052l1.3092536-1.3144516 1.3092536-1.3144516s-.2273966.0484272-1.7089205-.6503076c-1.2610179-.5949624-3.0043925-2.2276496-3.8312895-3.0439933 1.7709378-.3251538 3.5212032-.7194893 5.2025604-1.3974696.7993338-.3251538 1.584886-.6987348 2.1499323-1.3836333.7579889-.9270343.9371499-1.9716774.5237014-3.0855022-.4065577-1.09998846-1.2265639-1.75029611-2.3773289-1.96475927-.2618507-.04842716-.5305923-.04842716-.7993338-.06918166 0-.0622635 0-.11760883 0-.17295416.0413449-1.39746962-.8131154-2.60814874-2.1430414-3.05091139-1.2885812-.42892632-2.7218694.07609983-3.5074215 1.20376095-.5650463.80942547-.902696 1.71570528-1.2058915 2.64273958-.0826897.25597215-.1515978.51194431-.2273967.76791647-.2480691-1.0308068-.5443739-2.04777726-.9440408-3.03707506-.323868-.8025073-.6959716-1.59117828-1.3781617-2.15846792-.9233683-.76099831-1.9638804-.94087064-3.0733006-.52578065-1.0956385.40817182-1.7433745 1.23143362-1.9569896 2.38676741-.0482356.26289033-.0482356.53269882-.068908.80250731-.0620173 0-.1171438 0-.1722703-.00691817-1.3919433-.041509-2.5978348.81634364-3.0388465 2.15154976-.4272301 1.29369712.0757989 2.7326757 1.1990007 3.5213467.8062246.5672897 1.7089205.9062798 2.6322888 1.2106791.6408452.207545 1.2885812.3874174 1.9363172.539617-.6270636.1798723-1.2541271.3804992-1.8674091.6295532-.7993338.3251538-1.5848859.6987348-2.1499322 1.3836332-.757989.9270343-.93715 1.9716775-.5237015 3.0855023.1102529.2974811.2549599.5603714.4272301.7886709l-16.6137392.0069182c.4823566-.2282995.9233683-.5742078 1.2403455-1.037725.5650463-.8094254.9026959-1.7157052 1.2058915-2.6427395.4410117-1.3490425.7442073-2.7257576.9922764-4.1232272.2618507.2698085.6201728.6433895.9922764 1.0653976.323868.6572258.7855522 1.2245155 1.3574893 1.6672781.2756324.3874173.5168106.7679165.6821901 1.1138248.6959716 1.4804876.6477359 1.7157053.6477359 1.7157053l1.3092537-1.3144516.537483-.539617c2.4393462-.1729542 4.3756634-2.2345678 4.3756634-4.7527803 0-1.27986084-.4961382-2.4421128-1.295472-3.29996543.3169772-.71257114.3307588-1.48048762.0344541-2.28991309-.4065577-1.09998846-1.226564-1.7502961-2.377329-1.96475926-.2618507-.04842717-.5305922-.04842717-.7993338-.06918167 0-.06226349 0-.11760883 0-.17295416.0137817-.38049915-.0551264-.7402438-.1722702-1.08615213.434121-.09685433.8889143-.18679049 1.3712709-.26980849 3.1835535-.51194431 6.6771934-.80942547 10.184615-.8232618h.3721036c3.6245653 0 7.2146765.29056299 10.6531899.85785264 4.5479336.7609983 9.1303213 4.00561836 9.9778907 8.87600749-1.0956385.207545-1.9983345.9823797-2.3635473 2.0892863-.4272301 1.2936971.0757989 2.7326757 1.1990007 3.5213467.4134485.290563.861351.5188625 1.3161444.7194893z" fill="#006e43"/><path d="m87.6890939 50.2684818c-.179161 1.1830064-.4341209 2.3452584-.7579889 3.5144285-.6546268.8440163-1.653794 1.3213698-2.6736337 1.5219966-.9784948.1867905-1.9363172.1106907-2.8321223-.373581-1.6744664-.8993616-1.9018631-2.6980849-.6959716-4.0609637 1.2472363-1.4043877 2.8527947-1.8333141 4.6788589-1.4389786.0482357.0138364.0964713.0207545.1515978.0276727.0344541.0069182.0757989.0069182.1378162.0207545 0-3.9433549 0-7.8867097 0-11.8439009-1.4126158.2559721-2.8183407.5119443-4.2171748.7679164-2.0121161.373581-4.0173414.7609984-6.0294574 1.1069067-.3376496.0553453-.3583221.2006268-.3583221.4704353 0 4.5590717-.0137816 9.1181433-.0206724 13.677215-.0068908 2.2345678-1.2472363 3.6735464-3.4660767 4.0263729-.0551264.0069181-1.8742999.0691816-2.98372-.539617-.6063912-.332072-1.0129489-.8440163-1.1300926-1.5704238-.144707-.8993616.1309253-1.6672781.7235349-2.3037494 1.2610179-1.3490425 2.8183406-1.7918051 4.6237325-1.3974696.0826897.0207545.1722702.0207545.2825231.0345908 0-5.8320143 0-11.6501923 0-17.4960429 4.2654105-.6918166 8.5239301-1.3905514 12.810013-2.0892862.1722702.5465351.3307588 1.1069066.4823566 1.7087871.5719371 2.3037494.9922764 4.4207083 1.2610179 6.4269766-.0068908 3.2653745-.0068908 6.5376672.0137816 9.80996zm-43.3983118-3.4521651c1.5090871 2.3452584 5.8227332 9.7061875 7.3662743 19.0733848h-4.499698c-.1722702-.9131979-.3996668-1.8333141-.68219-2.7811029-1.5642135-5.2232156-3.2317892-8.4055722-4.5134796-10.2803953v31.5053299l1.3092537 2.2553223.4065577-.6157168c.0551264-.083018 4.3481001-6.7175396 3.955324-15.9740463h4.499698c.1515978 2.3383403.1033621 4.7735348-.2205059 7.2502384-.179161.5050262-.2825232 1.037725-.2825232 1.6050146 0 .0484272.0068909.0968544.0068909.1452815-.3031956 1.6741963-.7235349 3.3622289-1.3161445 5.0571797-.6615176 1.9024957-1.3505984 3.5836102-2.0603517 5.0640978-1.3643801.166036-2.7080877.249054-4.0380138.249054-3.3902777 0-6.7047566-.5119443-10.4189024-1.6119328-1.5573227-.4635171-3.5418756-1.2037609-5.3541582-2.3521766-.8820235-2.4836217-1.9569896-5.5552876-3.273134-9.3602791-.5305923-1.5427512-1.0680753-3.0785841-1.584886-4.5798262v-14.4174588c0-.7609984.0895805-1.5219967.25496-2.2622405.7510981-3.24462 2.9975016-5.8527688 5.8571872-7.1257114.034454.0345909.0757989.0760998.1171437.1106907.6408452.622635 1.1094202 1.0792339 2.2532944.8924434.7442073-.1176088 1.6744664-.8509344 2.6391796-1.8402322h9.5782238zm-16.910044 6.025723c-.9922764-.4635172-1.5090871-.8578527-1.8398459-1.1138248-.0275632-.0207545-.0551264-.041509-.0826897-.0622635v4.1924088l1.9294264 3.3276381v-6.3439586zm3.3006973 1.0377249c-.3652129-.0276726-.7304257-.0899361-1.0749662-.2006268-.3031955-.0968543-.5857187-.1937087-.8475694-.2836448v8.1496l1.9294264 3.3207199v-10.9860483zm3.3006972-.5396169c-.6339544.2213813-1.2816903.3943354-1.9294263.4842716v13.4212429l1.9294263 3.3207198zm3.3006973-1.6050147c-.5650463.3459084-1.2196731.705653-1.9294264 1.037725v20.1664551l1.9294264 3.3207199zm3.3075881-.6503076c-.468575-.4911898-.757989-.6918166-.7993338-.7194893l-.2756324-.1867905-.2618507.207545c-.0137816.0069182-.2273967.1798723-.5857187.4358445v27.811029l1.9294264 3.327638v-30.8757767zm18.1710619 7.8244462v.3528265c-.5926095-.0276727-1.150765-.1106907-1.7020297-.0622635-1.295472.124527-2.3704381.6779803-3.0801914 1.8194778-.6890808 1.1138248-.3514312 2.4559491.7786614 3.0993385.8613511.4842717 1.7778286.5742079 2.7425418.41509 1.8674091-.3182356 3.0112833-1.6188509 3.0112833-3.5075104.0137816-4.7043531.0206724-9.4087063.034454-14.1130595 0-.124527 0-.2490539 0-.4427626 3.0457374.4358445 4.8097843 2.4974581 6.4360151 4.7735348-.1378161-1.6534417-.8337878-3.0439932-2.0948057-4.116309-.792443-.6710621-1.6675757-1.24527-2.4875819-1.8886594-.1584886-.124527-.3100864-.249054-.468575-.373581-.9922764.5949623-2.0603517 1.0653976-3.1835535 1.3974696.0137816 4.2200815.0137816 8.4332449.0137816 12.6464082z" fill="#ffcfa1"/></g><g fill="#fff" transform="translate(105 22)"><path d="m15.7261118 1v4.14383533h-10.94183298v6.52921657h9.37300148v4.105608h-9.37300148v7.0764126h11.21572118v4.1449275h-16v-26z"/><path d="m19 21.1917653v-13.1917653h4.7824077v12.3401956c0 2.360188.4816087 4.1011509 3.1748003 4.1011509 2.1296308 0 3.9381892-1.8576755 3.9381892-3.7142703v-12.7270762h4.7824077v16.209002l.3221951 3.2495812h-4.0998481l-.3210725-2.2823796h-.0808294c-1.4066565 1.9344032-3.5362874 2.8237964-5.8275771 2.8237964-4.4197979 0-6.6706729-2.2834603-6.6706729-6.8082347"/><path d="m41 7.57919431h3.7811911l.4634869 2.77948549c.8482889-2.1625411 2.7388844-3.3586798 4.6682835-3.3586798 1.1576394 0 2.3540824.27072211 3.0870385.73450898l-.8105632 3.82246672c-.7706817-.3872081-1.7364592-.6956803-2.7399623-.6956803-2.0824575 0-3.4330369 1.6599255-3.510644 3.8990454v12.2396592h-4.5917542v-16.332848z"/><path d="m66.1309465 17.5990566c0-4.413522-1.0380327-7.1309748-4.0707384-7.1309748-2.9145193 0-4.1911546 2.6778301-4.1911546 6.4606918 0 3.6639937.5597126 7.6042453 4.1108771 7.6042453 2.9145194 0 4.1510159-2.8363208 4.1510159-6.9339623m-13.1309465-.1177673c0-8.19638364 5.1890486-10.4812893 9.2988107-10.4812893 2.9546581 0 8.7011893.90581761 8.7011893 9.9287736 0 7.5646226-4.0707384 11.0712264-9.3389495 11.0712264-5.3484886 0-8.6610505-3.3888365-8.6610505-10.5187107"/><path d="m89.132598 9.44421106c0-4.0271383-2.2777844-4.6529995-6.0640211-4.6529995h-2.356552v9.30599904h2.7806019c3.399952 0 5.6399712-1.1719879 5.6399712-4.65299954zm-4.2879751-8.44421106c5.7176598 0 9.1553771 2.73609477 9.1553771 7.97454209 0 5.94404301-4.132598 8.91497231-10.0045558 8.91497231h-3.2834193v9.1104856h-4.7120249v-26z"/><path d="m108.449956 27.9876857v-3.667042c-3.391263 1.5213048-6.283906 3.5504377-6.283906 6.748883 0 1.7163718 1.002625 2.5347815 2.661102 2.5347815 2.658949 0 3.622804-2.2231102 3.622804-5.6166225m-10.3320991 3.8621091c0-2.9260053 1.8900181-5.1109739 4.0105001-6.6322787-3.1618766-.4685968-5.128357-2.1838788-5.128357-6.3195176v-11.8979985h4.588813v11.3912601c0 2.3408043.230464 4.0953177 3.276032 4.0953177 1.851248 0 3.547419-1.4809837 3.547419-3.7051836v-11.7813942h4.587736v17.164808c0 1.4036108-.155078 4.134549-.424312 5.4226452-.733391 4.7197501-3.43111 7.4125468-8.250387 7.4125468-4.163424 0-6.2074441-1.9909913-6.2074441-5.1502052"/><path d="m118 21.3349071v-21.3349071h4.641902v7.57176582h5.26627v3.62779348h-5.26627v10.0571294c0 2.4435002 1.05369 3.1540762 2.652204 3.1540762 1.05369 0 1.911243-.4340573 2.535612-.8284545l1.170282 3.0372993c-1.170282.8284545-3.120753 1.3803903-4.953541 1.3803903-5.538683 0-6.046459-3.1948379-6.046459-6.6650929"/><path d="m136.59888 0v9.12914506c1.276027-1.55408175 3.246205-2.25298444 5.217462-2.25298444 4.019162 0 6.183658 2.25298444 6.183658 6.83817678v13.2856626h-4.59888v-12.4706379c0-2.2920535-.464206-4.0794646-2.937454-4.0794646-2.20336 0-3.864786 1.8655493-3.864786 3.8461353v12.7039672h-4.59888v-27z"/><path d="m165.130946 17.5990566c0-4.413522-1.038032-7.1309748-4.070738-7.1309748-2.914519 0-4.191154 2.6778301-4.191154 6.4606918 0 3.6639937.558597 7.6042453 4.109762 7.6042453 2.914519 0 4.15213-2.8363208 4.15213-6.9339623m-13.130946-.1177673c0-8.19638364 5.187934-10.4812893 9.298811-10.4812893 2.953543 0 8.701189.90581761 8.701189 9.9287736 0 7.5646226-4.070738 11.0712264-9.340064 11.0712264-5.348489 0-8.659936-3.3888365-8.659936-10.5187107"/><path d="m174 7.57919431h4.019019l.401902 2.43218469c1.406656-1.93064773 3.536287-3.011379 6.189064-3.011379 4.058311 0 6.390015 2.16254112 6.390015 6.7173597v13.2826403h-4.782408v-12.2784878c0-2.3556059-.442316-4.1697676-3.014264-4.1697676-2.411411 0-4.098725 1.8928976-4.098725 3.8612954v12.58696h-4.743116v-16.0621259z"/><path d="m8.44247232 48.8840086c0-3.7894236-1.78796727-4.8416713-4.05532025-4.8416713h-1.85045295v9.9375247h2.1212242c2.34957097 0 3.784549-1.7271069 3.784549-5.0958534zm-3.9303489-6.8840086c3.99283457 0 6.48787658 2.1056053 6.48787658 6.5055102 0 5.5154206-3.03658452 7.4944898-6.38373379 7.4944898h-4.61626621v-14z"/><path d="m14 51.3889408v-9.3889408h2.4249789v9.2646417c0 2.0062306 1.1221471 2.6266356 2.6447591 2.6266356 1.4835164 0 2.5052831-.8275701 2.5052831-2.523053v-9.3682243h2.4249789v9.6985981c0 2.7302181-2.0435334 4.3014019-5.0295858 4.3014019-3.2871936 0-4.9704142-1.3640187-4.9704142-4.6110592"/><path d="m34.2838273 51.7898993c0-1.4107667-.969031-2.1899627-2.6318126-2.1899627h-2.0845821v4.4209942h2.000222c2.063492 0 2.7161727-.9479109 2.7161727-2.2310315zm-.6105006-6.0004757c0-1.5361928-1.010101-1.8525331-2.3787324-1.8525331h-1.7271617v3.7894236h1.5795315c1.7893218 0 2.5263626-.8202648 2.5263626-1.9368905zm-1.936952-3.7894236c2.3787324 0 4.5687646.715928 4.5687646 3.3887259 0 1.5173234-.8635809 2.506303-2.1056721 3.0324269 1.7482517.357409 2.8005328 1.4951241 2.8005328 3.3465472 0 2.7371759-1.8947719 4.2323-5.3901654 4.2323h-4.6098346v-14z"/><path d="m41.4157641 42v11.7478792h5.5842359v2.2521208h-8v-14z"/><path d="m49 56h3v-14h-3z"/><path d="m57.5722161 42 5.876516 9.7266313h.0209482v-9.7266313h2.5303197v14h-2.446527l-6.0022051-9.8731468h-.0209482v9.8731468h-2.5303197v-14z"/><path d="m72 55.0598829.6759402-1.5776677c.4739825.354435 1.1159197.6915804 1.8423493.6915804 1.0314271 0 1.4198867-.6202612 1.4198867-1.5949572v-8.5788384h2.0618238v8.6674471c0 .4073841-.0329727.9919856-.1514683 1.3820801-.3379701 1.2232328-1.4198867 1.9504728-2.992272 1.9504728-1.1488924 0-2.3153014-.4970734-2.8562597-.9401171"/><path d="m81 52.9363283v-5.9363283h2.2507927v5.5532366c0 1.0622569.2271548 1.8454192 1.4943788 1.8454192 1.0020179 0 1.8529836-.8351609 1.8529836-1.6713831v-5.7272727h2.2519458v7.2935975l.1498991 1.4623275h-1.9279331l-.1510522-1.0272373h-.0380513c-.6630153.8712416-1.6650332 1.2713123-2.7431537 1.2713123-2.0801383 0-3.1398097-1.0272374-3.1398097-3.0636717"/><path d="m91 52.7407916v-9.7407916h2.2906003v9.7050743c0 1.1530007.2477896 1.5737958 1.0295486 1.5737958.3629595 0 .7829223-.1283592 1.1842718-.293552l.4955793 1.4655276c-.5339693.347128-1.4495114.5491543-2.2708236.5491543-2.5756166 0-2.7291764-1.6106293-2.7291764-3.2592084"/><path d="m101.725029 56.7946726v-1.7114318c-1.695652.7103219-3.1421853 1.6570478-3.1421853 3.1498336 0 .8013318.5017626 1.1831298 1.3301998 1.1831298 1.3301995 0 1.8119855-1.0377358 1.8119855-2.6215316m-5.165687 1.8024417c0-1.3651498.9435957-2.3851276 2.0047003-3.0954495-1.5804935-.2175361-2.5640423-1.0188679-2.5640423-2.9489456v-5.5527192h2.293772v5.3163152c0 1.0921199.1163338 1.9112098 1.639248 1.9112098.924794 0 1.772033-.6925638 1.772033-1.7291898v-5.4983352h2.294947v8.0110988c0 .6537181-.077556 1.9289678-.212691 2.5305216-.366627 2.2019978-1.715629 3.4583796-4.1245593 3.4583796-2.0822562 0-3.1034077-.9289678-3.1034077-2.4028857"/><path d="m112.002092 54.2858766v-7.8811057l-2.246862 1.2847406-.75523-1.4346838 3.362971-2.2548277h1.817991l-.137029 1.7516092v8.5342674h1.956067v1.7141234h-6.023013v-1.7141234z"/><path d="m120.002092 54.2858766v-7.8811057l-2.246862 1.2847406-.75523-1.4346838 3.362971-2.2548277h1.817991l-.137029 1.7516092v8.5342674h1.956067v1.7141234h-6.023013v-1.7141234z"/><path d="m125 52h5v-2h-5z"/><path d="m134.002092 54.2858766v-7.8811057l-2.246862 1.2847406-.75523-1.4346838 3.362971-2.2548277h1.817991l-.137029 1.7516092v8.5342674h1.956067v1.7141234h-6.023013v-1.7141234z"/><path d="m144.172668 45.8449304h-5.172668v-1.8449304h8v1.5461517c-3.683584 3.0934393-4.018146 7.1002556-4.018146 9.5597841v.8940642h-2.344202v-1.0428855c0-2.6276626.538702-6.0573701 3.535016-9.1121841"/><path d="m147.557503 54.9775028c.143483-.6456693.394304-.9775028.916758-.9775028.627601 0 1.274918.4971879 1.525739.7739033l-1.868565 4.2260967-1.131435-.3880765c.215772-1.8267716.396495-2.9336333.557503-3.6344207"/><path d="m158.928052 49.9916489c.900727-1.0422196 1.278594-1.5711237 1.278594-2.5209242 0-1.0232903-.629411-1.5154496-1.494989-1.5154496-.936976 0-1.766305.6213232-2.486887 1.2782778l-1.188521-1.4063283c1.044624-1.0778509 2.486887-1.8272246 4.017026-1.8272246 2.234244 0 3.423864 1.3161362 3.423864 3.2513687 0 1.2059014-.558012 2.338313-1.549911 3.4707246l-3.00865 3.5074697h5.081422v1.770437h-8v-1.4052148z"/><path d="m169.94391 49.9550356c0-3.2736245-.742593-4.1740084-1.90125-4.1740084-1.208164 0-1.985517 1.0078597-1.985517 4.4087005 0 3.1113142.759447 4.0654359 1.933904 4.0654359 1.123897 0 1.952863-.8817401 1.952863-4.300128m-5.94391.0361909c0-4.1553647 1.607373-5.9912265 4.078473-5.9912265 2.418433 0 3.921527 1.6746481 3.921527 5.9199415 0 4.2617437-1.416722 6.0800585-4.043713 6.0800585-2.642791 0-3.956287-1.8183148-3.956287-6.0087735"/><path d="m176.928052 49.9916489c.900727-1.0422196 1.278594-1.5711237 1.278594-2.5209242 0-1.0232903-.629411-1.5154496-1.494989-1.5154496-.936976 0-1.766305.6213232-2.486887 1.2782778l-1.188521-1.4063283c1.044624-1.0778509 2.486887-1.8272246 4.017026-1.8272246 2.234244 0 3.423864 1.3161362 3.423864 3.2513687 0 1.2059014-.558012 2.338313-1.549911 3.4707246l-3.00865 3.5074697h5.081422v1.770437h-8v-1.4052148z"/><path d="m185.927492 49.9916489c.900852-1.0422196 1.279869-1.5711237 1.279869-2.5209242 0-1.0232903-.630596-1.5154496-1.495194-1.5154496-.938204 0-1.766548.6213232-2.487229 1.2782778l-1.189783-1.4063283c1.044768-1.0778509 2.487229-1.8272246 4.018676-1.8272246 2.234551 0 3.423236 1.3161362 3.423236 3.2513687 0 1.2059014-.55699 2.338313-1.549025 3.4707246l-3.009064 3.5074697h5.081022v1.770437h-8v-1.4052148z"/></g></g></svg>