<?xml version="1.0" encoding="UTF-8" standalone="no"?>
<svg
   xmlns:dc="http://purl.org/dc/elements/1.1/"
   xmlns:cc="http://creativecommons.org/ns#"
   xmlns:rdf="http://www.w3.org/1999/02/22-rdf-syntax-ns#"
   xmlns:svg="http://www.w3.org/2000/svg"
   xmlns="http://www.w3.org/2000/svg"
   xmlns:sodipodi="http://sodipodi.sourceforge.net/DTD/sodipodi-0.dtd"
   xmlns:inkscape="http://www.inkscape.org/namespaces/inkscape"
   width="375.96774"
   height="130"
   viewBox="0 0 375.96774 130"
   version="1.1"
   id="svg30"
   sodipodi:docname="1password_m30.svg"
   inkscape:version="0.92.5 (2060ec1f9f, 2020-04-08)">
  <metadata
     id="metadata36">
    <rdf:RDF>
      <cc:Work
         rdf:about="">
        <dc:format>image/svg+xml</dc:format>
        <dc:type
           rdf:resource="http://purl.org/dc/dcmitype/StillImage" />
        <dc:title>1Password wordmark / Black, detailed icon / 1P-wordmark</dc:title>
      </cc:Work>
    </rdf:RDF>
  </metadata>
  <defs
     id="defs34" />
  <sodipodi:namedview
     pagecolor="#ffffff"
     bordercolor="#666666"
     borderopacity="1"
     objecttolerance="10"
     gridtolerance="10"
     guidetolerance="10"
     inkscape:pageopacity="0"
     inkscape:pageshadow="2"
     inkscape:window-width="1920"
     inkscape:window-height="1016"
     id="namedview32"
     showgrid="false"
     fit-margin-top="30"
     fit-margin-left="0"
     fit-margin-right="0"
     fit-margin-bottom="30"
     inkscape:zoom="1.1081081"
     inkscape:cx="-324.17514"
     inkscape:cy="131.84341"
     inkscape:window-x="1920"
     inkscape:window-y="27"
     inkscape:window-maximized="1"
     inkscape:current-layer="1Password-wordmark-/-Black,-detailed-icon-/-1P-wordmark" />
  <title
     id="title2">1Password wordmark / Black, detailed icon / 1P-wordmark</title>
  <g
     id="1Password-wordmark-/-Black,-detailed-icon-/-1P-wordmark"
     style="fill:none;fill-rule:evenodd;stroke:none;stroke-width:1"
     transform="matrix(0.56451613,0,0,0.56451613,0,27.741935)">
    <g
       id="zzz---document-symbol-/-1Password"
       transform="translate(0,4)"
       style="fill:#051627">
      <path
         d="m 287.28224,31 c 8.60089,0 17.02047,1.547514 22.09273,2.946769 L 309.809,34.068 310.21764,32 h 35.06644 v 11.504009 l -7.76174,0.831615 11.0882,38.947308 h 0.97022 l 12.33562,-49.481099 h 20.92898 l 11.91982,49.481099 h 0.83161 L 405.99198,44.335624 398.09164,43.504009 399.89347,32 H 429 l -0.002,7.757973 c -0.62903,1.24359 -1.21303,2.513827 -1.74985,3.808567 l -3.23789,0.630482 c -1.8658,0.266543 -2.70644,0.917524 -3.26121,2.569028 l -0.0652,0.203022 -17.04811,57.242838 h -21.8992 l -10.811,-46.431841 h -0.83161 l -10.9496,46.431841 H 334.19588 L 316.73196,46.83047 c -0.53131,-1.593929 -1.18991,-1.914929 -2.70774,-2.304879 l -0.20291,-0.05136 -1.22231,-0.262227 0.0786,0.313442 v 10.508087 l -14.7678,-0.966002 -1.38054,-7.183241 c -0.13609,-1.105006 -0.41388,-1.656807 -1.37773,-1.93341 l -0.44054,-0.127111 c -1.86593,-0.506525 -4.95296,-0.977895 -8.39264,-0.977895 -6.90128,0 -10.7665,2.624214 -10.7665,7.044238 0,4.829889 5.52292,6.445195 12.37079,8.015555 l 4.62325,1.05219 0.63964,0.152051 c 10.46208,2.517638 21.56288,6.771964 21.56288,22.133169 C 314.74841,99.09477 301.08615,106 283.55728,106 c -12.22677,0 -24.19159,-3.14169 -27.10938,-4.83674 L 256.23,101.02818 V 81.000468 l 14.76781,1.105006 1.38193,7.872641 0.0431,0.336626 c 0.15348,1.00883 0.48902,1.485394 1.6124,1.734383 l 0.3237,0.103369 0.36861,0.107961 0.41276,0.111077 0.4746,0.117069 c 1.99095,0.469615 5.08611,0.942132 9.04794,0.942132 7.31235,0 11.45255,-2.071008 11.45255,-7.181836 0,-5.434456 -5.34122,-7.126476 -12.21325,-8.364318 l -3.14305,-0.566266 -1.33879,-0.253908 C 268.65635,74.968458 256.78418,71.174261 256.78418,55.172533 256.78418,38.045642 271.41169,31 287.28224,31 Z M 160.004,31 c 20.65436,0 29.06766,5.552695 29.23386,24.424964 l 0.003,0.575972 4.6e-4,33.764557 0.005,0.370566 0.0118,0.329474 0.0227,0.30211 c 0.10607,1.035776 0.4843,1.30143 1.786,1.504699 l 0.37067,0.05338 5.58411,0.936517 V 81.000468 l 14.68726,1.105006 1.3744,7.872641 c 0.13395,1.242605 0.41162,1.79581 1.64649,2.071009 l 0.32193,0.103369 0.36659,0.107961 0.41052,0.111077 0.472,0.117069 c 1.9801,0.469615 5.05837,0.942132 8.99859,0.942132 7.27247,0 11.39009,-2.071008 11.39009,-7.181836 0,-5.253308 -4.96385,-7.009517 -11.46839,-8.238898 l -3.84699,-0.699723 -1.33011,-0.254071 -0.96499,-0.193681 -0.93966,-0.198285 C 207.99867,74.466258 197.5719,70.208946 197.5719,55.172533 197.5719,38.045642 212.11962,31 227.9036,31 c 10.47857,0 20.70173,2.323533 24.8466,3.849575 l 0.41029,0.156247 v 20.027707 l -14.68725,-0.966002 -1.37301,-7.183241 c -0.13535,-1.105006 -0.41162,-1.656807 -1.37021,-1.93341 -1.78463,-0.551801 -5.07901,-1.105006 -8.78501,-1.105006 -6.86363,0 -10.70777,2.624214 -10.70777,7.044238 0,4.913163 5.68383,6.498882 12.65674,8.096337 l 3.26538,0.743711 C 243.00248,62.215366 255.22,66.083589 255.22,82.243073 255.22,99.093361 241.63227,106 224.199,106 c -11.10479,0 -21.9678,-2.61636 -25.98176,-4.36293 l -0.19186,-0.0852 v 2.78989 h -25.25689 l -1.3744,-7.45844 -0.6851,-0.1376 C 165.49463,101.85658 158.631,106 147.64974,106 130.35741,106 127.61,94.122941 127.61,85.558091 c 0,-13.673754 8.34214,-20.037492 25.15639,-21.235585 l 16.2961,-1.138329 -4e-4,-7.863082 -0.007,-0.782545 -0.0107,-0.516775 -0.0274,-0.755352 -0.0272,-0.489922 c -0.31678,-4.924089 -1.90699,-8.100823 -9.12395,-8.100823 l -0.84148,0.006 -0.54103,0.01164 c -5.59684,0.158373 -8.54575,1.50661 -8.63526,8.885859 l -0.002,0.350746 -19.35463,-1.659615 c 0,-18.458247 16.54889,-21.216198 29.13256,-21.269511 z m 497.32577,-31 0.005,89.500297 0.0119,0.319877 c 0.0662,1.201542 0.38137,1.490903 1.77866,1.710096 L 666,92.542373 v 10.814867 h -25.19786 l -1.35473,-7.666236 -0.9483,-0.136897 C 632.80927,101.16688 626.17112,105 616.28164,105 600.2959,105 590,94.732725 590,68.585398 c 0,-27.516298 13.68271,-37.92047 28.72014,-37.92047 7.67032,0 13.66236,2.609114 18.73227,6.299147 l 0.36934,0.271909 V 16.42764 c 0,-1.296919 -0.48635,-2.22524 -1.57424,-2.668563 L 636.06061,13.6897 628.60963,11.088657 630.09982,0 Z m -78.80131,30 c 3.09843,0 9.19201,0.520896 11.8607,1.185037 l 0.26359,0.0692 v 25.363465 l -16.72316,-0.557438 -1.3936,-7.386064 c -0.27872,-1.254238 -0.6968,-1.532957 -1.81168,-1.532957 -3.41021,0 -7.43766,2.715826 -9.64245,4.545741 l -0.39145,0.331848 6.7e-4,37.170694 c 0.0119,1.954808 0.20317,2.385596 2.03988,2.532981 l 13.98582,1.128717 V 104 H 531.14616 V 92.711864 l 6.27118,-0.836158 c 1.8881,-0.269728 2.21004,-0.66997 2.22884,-2.590066 l 9.2e-4,-41.029519 c 0,-1.463277 -0.38094,-2.41864 -1.62764,-2.866088 l -0.18404,-0.06047 -7.44863,-2.622919 -0.0601,-0.137731 1.51623,-11.17532 h 24.5273 l 1.67232,11.148776 h 0.83616 C 563.47761,35.435028 569.60943,30 578.52846,30 Z M 96.760942,4 c 25.614978,0 33.365628,13.536928 33.365628,29.420107 0,23.792249 -14.24516,33.506398 -37.234776,33.698302 l -0.699326,0.0029 H 82.085809 l 0.0021,22.491561 0.008,0.349888 0.01738,0.321806 c 0.08812,1.155358 0.445038,1.434532 1.822023,1.646823 l 0.367231,0.05232 19.796717,1.105027 V 104 H 49.829228 L 49.829,103.968 49.768688,104 H 1.6074007 V 93.136358 L 13.405703,92.171757 c 1.794063,-0.127868 2.151834,-0.614984 2.191563,-2.355854 l 0.0041,-0.39256 V 41.932604 c 0,-1.969875 -1.480911,-1.644859 -11.7953484,1.850395 L 0,32.505557 23.573734,19 h 12.746452 l 4.59e-4,70.624312 0.0047,0.37164 0.0118,0.333087 c 0.07043,1.363042 0.415906,1.702523 1.992647,1.829021 l 0.18745,0.0137 11.25149,0.964601 0.06031,0.02964 2.28e-4,-0.07726 8.72176,-0.967425 c 1.807499,-0.256857 2.17075,-0.634803 2.21115,-2.369034 l 0.0041,-0.39283 V 18.779556 c 0,-2.002012 -0.2604,-2.587007 -2.027089,-2.748078 l -0.188185,-0.01519 -8.72176,-0.966021 V 4 Z m 71.913788,69.924659 -9.33207,0.684687 c -8.09337,0.546915 -10.97529,2.599586 -10.97529,8.075693 0,5.477498 3.29342,7.530168 7.82136,7.530168 4.52464,0 9.04928,-2.447038 12.19515,-4.715714 l 0.29085,-0.212086 z M 624.71257,46.556604 c -9.93965,0 -13.89991,9.307912 -13.98393,21.384844 l -0.001,0.394786 c 0,13.371038 3.80183,20.814709 12.35594,20.814709 4.48461,0 9.35361,-2.601627 12.98888,-5.656682 l 0.31752,-0.270685 V 50.691977 c -3.39449,-2.343378 -7.73944,-4.135373 -11.67704,-4.135373 z M 89.897142,19.166652 h -8.097558 v 32.990239 l 7.133605,-6.27e-4 0.539912,-0.0051 0.796231,-0.01792 0.51585,-0.01885 0.758589,-0.03917 c 8.173566,-0.500015 16.190319,-3.601382 16.190319,-17.44044 0,-13.142657 -8.09756,-15.468089 -17.836948,-15.468089 z"
         id="1Passw---rd"
         inkscape:connector-curvature="0" />
    </g>
    <g
       id="1Password-logo-2020-/-coloured-/-light-bg-/-116px"
       transform="translate(421,12)">
      <g
         id="g26">
        <g
           id="lock">
          <g
             id="Chrome">
            <path
               d="m 2,58 c 0,30.928947 25.072018,56 56,56 30.927982,0 56,-25.071053 56,-56 C 114,27.072018 88.927982,2 58,2 27.072018,2 2,27.072018 2,58 Z"
               id="chrome"
               inkscape:connector-curvature="0"
               style="fill:#ffffff" />
            <path
               d="m 58,14 c 24.300327,0 44,19.699673 44,44 0,24.301244 -19.699673,44 -44,44 C 33.699673,102 14,82.301244 14,58 14,33.699673 33.699673,14 58,14"
               id="color"
               inkscape:connector-curvature="0"
               style="fill:#1a8cff" />
            <path
               d="m 0,58 c 0,32.033552 25.967448,58 58,58 32.032552,0 58,-25.966448 58,-58 C 116,25.967448 90.032552,0 58,0 25.967448,0 0,25.967448 0,58 Z m 2,0 v 0 C 2,27.075404 27.068577,2 58,2 88.931422,2 114,27.075404 114,58 114,88.925212 88.93174,114 58,114 27.06826,114 2,88.925212 2,58 Z"
               id="path8"
               inkscape:connector-curvature="0"
               style="opacity:0.5;fill:#000000;fill-rule:nonzero" />
            <path
               d="M 113.92101,54.999979 C 113.97345,55.993344 114,56.993571 114,58 114,88.927946 88.927946,114 58,114 27.072054,114 2,88.927946 2,58 2,56.993571 2.0265493,55.993344 2.0789859,54.999979 3.6378036,84.533005 28.078397,108 58,108 87.690828,108 111.98487,84.893595 113.88088,55.682015 Z M 58,8 c 27.061953,0 49,21.938047 49,49 0,15.129279 -6.85672,28.657086 -17.632147,37.645651 C 98.371021,86.248813 104,74.281766 104,61 104,35.594901 83.405098,15 58,15 32.594901,15 12,35.594901 12,61 12,74.281766 17.628979,86.248813 26.631444,94.645651 15.856716,85.657086 9,72.129279 9,57 9,29.938047 30.938047,8 58,8 Z"
               id="shadows"
               inkscape:connector-curvature="0"
               style="fill:#000000;fill-opacity:0.05244757" />
          </g>
          <path
             d="m 58,14 c 24.30358,0 44,19.702856 44,44 0,24.297726 -19.696121,44 -44,44 C 33.93916,102 14.394383,82.689801 14.005894,58.727538 L 14,58 C 14,33.702856 33.696419,14 58,14 Z m 0,2 c -23.195767,0 -42,18.804233 -42,42 0,23.196642 18.804233,42 42,42 23.195767,0 42,-18.803358 42,-42 C 100,34.804233 81.195767,16 58,16 Z"
             id="inside-shadow-outer"
             inkscape:connector-curvature="0"
             style="opacity:0.2561384;fill:#000000;fill-rule:nonzero" />
          <path
             d="M 58.22287,23 C 38.670265,23 23,38.670265 23,58.22287 23,77.402692 38.742899,93 58.22287,93 77.330045,93 93,77.330347 93,58.22287 93,38.743212 77.40208,23 58.22287,23 Z m -0.0014,2 C 76.225167,25 91,39.774833 91,58.221477 91,76.226083 76.225167,91 58.221477,91 39.774833,91 25,76.226083 25,58.221477 25,39.774833 39.774833,25 58.221477,25 Z"
             id="inside-shadow"
             inkscape:connector-curvature="0"
             style="fill:#000000;fill-opacity:0.25;fill-rule:nonzero" />
          <path
             d="M 58.221477,25 C 76.225167,25 91,39.774833 91,58.221477 91,76.226083 76.225167,91 58.221477,91 39.774833,91 25,76.226083 25,58.221477 25,39.774833 39.774833,25 58.221477,25 Z"
             id="inside"
             inkscape:connector-curvature="0"
             style="fill:#f7f7f7" />
          <g
             id="bevel"
             transform="translate(41,41)">
            <path
               d="M 32,17 C 32,25.28417 25.284268,32 17,32 8.7157322,32 2,25.28417 2,17 2,8.7158303 8.7157322,2 17,2 25.284268,2 32,8.7158303 32,17 Z"
               id="path15"
               inkscape:connector-curvature="0"
               style="fill:#000000;fill-opacity:0.05" />
            <path
               d="M 17,0 C 7.6111953,0 0,7.6112297 0,17 0,26.38877 7.6111953,34 17,34 26.388805,34 34,26.38877 34,17 34,7.6112297 26.388805,0 17,0 Z m 0,2 C 25.284268,2 32,8.7158303 32,17 32,25.28417 25.284268,32 17,32 8.7157322,32 2,25.28417 2,17 2,8.7158303 8.7157322,2 17,2 Z"
               id="bevel-outside"
               inkscape:connector-curvature="0"
               style="fill:#ffffff;fill-rule:nonzero" />
            <path
               d="M 17,2 C 25.284268,2 32,8.7158303 32,17 32,25.28417 25.284268,32 17,32 8.7157322,32 2,25.28417 2,17 2,8.7158303 8.7157322,2 17,2 Z m 0,2 C 9.8203367,4 4,9.8203629 4,17 4,24.179637 9.8203367,30 17,30 24.179663,30 30,24.179637 30,17 30,9.8203629 24.179663,4 17,4 Z"
               id="bevel-inside"
               inkscape:connector-curvature="0"
               style="fill:#000000;fill-opacity:0.15;fill-rule:nonzero" />
          </g>
        </g>
        <g
           id="keyhole"
           transform="translate(48,32)">
          <path
             d="M 15.57685,0 H 4.4231499 C 1.9510953,0 0,2.1645652 0,4.7722183 V 15.564093 c 0,0.981549 0.35407549,1.929888 0.99573028,2.641747 L 2.635199,20.024683 c 0.038231,0.04241 0.038231,0.161523 0,0.203937 L 0.99573028,22.047463 C 0.35407549,22.759322 0,23.707661 0,24.68921 V 47.227782 C 0,49.835435 1.9510953,52 4.4231499,52 H 15.57685 C 18.048905,52 20,49.835435 20,47.227782 V 36.435907 c 0,-0.981549 -0.354076,-1.929888 -0.99573,-2.641747 l -1.639469,-1.818843 c -0.03823,-0.04242 -0.03823,-0.161523 0,-0.203937 L 19.00427,29.952537 C 19.645924,29.240678 20,28.292339 20,27.31079 V 4.7722183 C 20,2.1645652 18.048905,0 15.57685,0 Z M 15.449715,2.0377358 C 16.858199,2.0377358 18,3.3315492 18,4.9275488 V 27.30163 c 0,0.510951 -0.179127,1.000974 -0.497974,1.362271 l -1.593928,1.806133 c -0.663965,0.752361 -0.663965,1.97218 0,2.724542 l 1.593928,1.806133 C 17.820873,35.362005 18,35.852029 18,36.36298 v 10.709471 c 0,1.596 -1.141801,2.889813 -2.550285,2.889813 H 4.5502846 C 3.1418013,49.962264 2,48.668451 2,47.072451 V 24.69837 c 0,-0.510951 0.1791266,-1.000974 0.497974,-1.362271 l 1.5939279,-1.806133 c 0.6639654,-0.752361 0.6639654,-1.97218 0,-2.724542 L 2.497974,16.999291 C 2.1791266,16.637995 2,16.147971 2,15.637021 V 4.9275488 C 2,3.3315492 3.1418013,2.0377358 4.5502846,2.0377358 Z"
             id="keyhole-outer"
             inkscape:connector-curvature="0"
             style="fill:#ffffff;fill-rule:nonzero" />
          <path
             d="M 2,15.620701 V 4.8943638 C 2,3.2958508 3.1418013,2 4.5502846,2 H 15.449715 C 16.858199,2 18,3.2958508 18,4.8943638 V 27.30368 c 0,0.511755 -0.179127,1.00255 -0.497974,1.364416 l -1.593928,1.808977 c -0.663965,0.753546 -0.663965,1.975286 0,2.728833 l 1.593928,1.808977 C 17.820873,35.376749 18,35.867544 18,36.379299 V 47.105636 C 18,48.704149 16.858199,50 15.449715,50 H 4.5502846 C 3.1418013,50 2,48.704149 2,47.105636 V 24.69632 c 0,-0.511755 0.1791266,-1.00255 0.497974,-1.364416 l 1.5939279,-1.808977 c 0.6639654,-0.753547 0.6639654,-1.975286 0,-2.728833 L 2.497974,16.985117 C 2.1791266,16.623251 2,16.132456 2,15.620701 Z"
             id="path22"
             inkscape:connector-curvature="0"
             style="fill:#0a2d4d" />
          <path
             d="M 15.449715,2 C 16.858199,2 18,3.2958508 18,4.8943638 V 27.30368 c 0,0.511755 -0.179127,1.00255 -0.497974,1.364416 l -1.593928,1.808977 c -0.663965,0.753546 -0.663965,1.975286 0,2.728833 l 1.593928,1.808977 C 17.820873,35.376749 18,35.867544 18,36.379299 V 47.105636 C 18,48.704149 16.858199,50 15.449715,50 H 4.5502846 C 3.1418013,50 2,48.704149 2,47.105636 V 24.69632 c 0,-0.511755 0.1791266,-1.00255 0.497974,-1.364416 l 1.5939279,-1.808977 c 0.6639654,-0.753547 0.6639654,-1.975286 0,-2.728833 L 2.497974,16.985117 C 2.1791266,16.623251 2,16.132456 2,15.620701 V 4.8943638 C 2,3.2958508 3.1418013,2 4.5502846,2 Z M 15.161607,4.0543584 4.8383934,4.0409449 c -0.4043895,0 -0.7842524,0.3791904 -0.8331035,0.9164256 L 4,5.0748308 V 15.70543 c 0,0.03127 0.00652,0.05861 0.015178,0.07799 l 0.014027,0.02259 1.6698292,1.79421 c 1.3055978,1.402849 1.3506184,3.600965 0.1350618,5.05866 l -0.1350618,0.153278 -1.6698292,1.79421 c -0.00968,0.0104 -0.019435,0.0308 -0.02486,0.05713 L 4,24.706963 v 22.218206 c 0,0.558685 0.3529036,0.975121 0.7522256,1.028163 l 0.086168,0.0057 10.3232134,0.01341 c 0.404389,0 0.784252,-0.379191 0.833103,-0.916426 L 16,46.938583 V 36.307984 c 0,-0.03127 -0.0065,-0.05861 -0.01518,-0.078 l -0.01403,-0.02259 -1.669829,-1.79421 C 12.995364,33.010336 12.950343,30.812219 14.1659,29.354525 l 0.135061,-0.153279 1.669829,-1.79421 c 0.0097,-0.0104 0.01943,-0.0308 0.02486,-0.05713 L 16,27.306451 V 5.0882443 C 16,4.5295595 15.647096,4.1131235 15.247774,4.0600817 Z"
             id="keyhole-shadow"
             inkscape:connector-curvature="0"
             style="fill:#000000;fill-opacity:0.4;fill-rule:nonzero" />
        </g>
      </g>
    </g>
  </g>
</svg>
