<svg width="236.54" height="72" xmlns="http://www.w3.org/2000/svg" data-name="Blue 313">

 <title>Arm-logo-blue-pms313</title>
 <g>
  <title>Layer 1</title>
  <path id="svg_1" fill="#008fbe" d="m143.01999,1.78l15.85,0l0,6.31a21,21 0 0 1 16.84,-8.09a20,20 0 0 1 17.64,10c5.66,-8.09 14.24,-10 20.22,-10c8.25,0 15.53,3.88 19.42,10.68c1.29,2.27 3.56,7.28 3.56,17.15l0,42.07l-15.86,0l0,-37.54c0,-7.6 -0.81,-10.68 -1.46,-12.13c-1,-2.59 -3.4,-6 -9.06,-6a11.72,11.72 0 0 0 -9.39,5c-2.75,3.88 -3.07,9.71 -3.07,15.53l0,35.14l-15.86,0l0,-37.54c0,-7.6 -0.81,-10.68 -1.46,-12.13c-1,-2.59 -3.4,-6 -9.06,-6a11.71,11.71 0 0 0 -9.38,5c-2.75,3.88 -3.08,9.71 -3.08,15.53l0,35.14l-15.85,0l0,-68.12zm-54.9,0l15.86,0l0,6.15a27.45,27.45 0 0 1 6.63,-5.66a18.31,18.31 0 0 1 9.71,-2.27a23.52,23.52 0 0 1 12.46,3.24l-6.51,14.4a14.36,14.36 0 0 0 -8.09,-2.43c-3.4,0 -6.8,0.48 -9.87,3.72c-4.37,4.69 -4.37,11.16 -4.37,15.69l0,35.28l-15.81,0l-0.01,-68.12zm-71.95,34.3c0,11.81 7.44,21.68 18.93,21.68c10,0 19.25,-7.28 19.25,-21.52c0,-14.89 -9.22,-22 -19.25,-22c-11.49,0 -18.93,9.71 -18.93,21.84m37.21,-34.3l15.89,0l0,68.12l-15.88,0l0,-7.12a26.16,26.16 0 0 1 -20.38,9.22c-21,0 -33,-17.47 -33,-36.24c0,-22.17 15.21,-35.76 33.17,-35.76a24.83,24.83 0 0 1 20.23,9.71l-0.03,-7.93z" class="cls-1"/>
 </g>
</svg>