<?xml version="1.0" encoding="UTF-8" standalone="no"?>
<svg
   width="236.54"
   height="72"
   data-name="Blue 313"
   version="1.1"
   id="svg9"
   sodipodi:docname="arm.svg"
   inkscape:version="1.1.2 (0a00cf5339, 2022-02-04)"
   xmlns:inkscape="http://www.inkscape.org/namespaces/inkscape"
   xmlns:sodipodi="http://sodipodi.sourceforge.net/DTD/sodipodi-0.dtd"
   xmlns="http://www.w3.org/2000/svg"
   xmlns:svg="http://www.w3.org/2000/svg"
   xmlns:rdf="http://www.w3.org/1999/02/22-rdf-syntax-ns#"
   xmlns:cc="http://creativecommons.org/ns#"
   xmlns:dc="http://purl.org/dc/elements/1.1/">
  <defs
     id="defs13" />
  <sodipodi:namedview
     id="namedview11"
     pagecolor="#ffffff"
     bordercolor="#666666"
     borderopacity="1.0"
     inkscape:pageshadow="2"
     inkscape:pageopacity="0.0"
     inkscape:pagecheckerboard="0"
     showgrid="false"
     inkscape:zoom="2.9255095"
     inkscape:cx="77.593321"
     inkscape:cy="42.214869"
     inkscape:window-width="1920"
     inkscape:window-height="1016"
     inkscape:window-x="1920"
     inkscape:window-y="27"
     inkscape:window-maximized="1"
     inkscape:current-layer="svg9" />
  <title
     id="title2">Arm-logo-blue-pms313</title>
  <g
     id="g7"
     transform="matrix(0.72098073,0,0,0.72098073,32.992403,10.050368)">
    <title
       id="title4">Layer 1</title>
    <path
       id="svg_1"
       fill="#008fbe"
       d="m 143.01999,1.78 h 15.85 v 6.31 a 21,21 0 0 1 16.84,-8.09 20,20 0 0 1 17.64,10 c 5.66,-8.09 14.24,-10 20.22,-10 8.25,0 15.53,3.88 19.42,10.68 1.29,2.27 3.56,7.28 3.56,17.15 V 69.9 h -15.86 V 32.36 c 0,-7.6 -0.81,-10.68 -1.46,-12.13 -1,-2.59 -3.4,-6 -9.06,-6 a 11.72,11.72 0 0 0 -9.39,5 c -2.75,3.88 -3.07,9.71 -3.07,15.53 V 69.9 h -15.86 V 32.36 c 0,-7.6 -0.81,-10.68 -1.46,-12.13 -1,-2.59 -3.4,-6 -9.06,-6 a 11.71,11.71 0 0 0 -9.38,5 c -2.75,3.88 -3.08,9.71 -3.08,15.53 V 69.9 h -15.85 z m -54.9,0 h 15.86 v 6.15 a 27.45,27.45 0 0 1 6.63,-5.66 18.31,18.31 0 0 1 9.71,-2.27 23.52,23.52 0 0 1 12.46,3.24 l -6.51,14.4 a 14.36,14.36 0 0 0 -8.09,-2.43 c -3.4,0 -6.8,0.48 -9.87,3.72 -4.37,4.69 -4.37,11.16 -4.37,15.69 V 69.9 h -15.81 z m -71.95,34.3 c 0,11.81 7.44,21.68 18.93,21.68 10,0 19.25,-7.28 19.25,-21.52 0,-14.89 -9.22,-22 -19.25,-22 -11.49,0 -18.93,9.71 -18.93,21.84 m 37.21,-34.3 h 15.89 V 69.9 h -15.88 v -7.12 a 26.16,26.16 0 0 1 -20.38,9.22 c -21,0 -33,-17.47 -33,-36.24 0,-22.17 15.21,-35.76 33.17,-35.76 a 24.83,24.83 0 0 1 20.23,9.71 z"
       class="cls-1" />
  </g>
  <metadata
     id="metadata830">
    <rdf:RDF>
      <cc:Work
         rdf:about="">
        <dc:title>Arm-logo-blue-pms313</dc:title>
      </cc:Work>
    </rdf:RDF>
  </metadata>
</svg>
