<?xml version="1.0" encoding="UTF-8" standalone="no"?>
<svg
   xmlns:dc="http://purl.org/dc/elements/1.1/"
   xmlns:cc="http://creativecommons.org/ns#"
   xmlns:rdf="http://www.w3.org/1999/02/22-rdf-syntax-ns#"
   xmlns:svg="http://www.w3.org/2000/svg"
   xmlns="http://www.w3.org/2000/svg"
   xmlns:sodipodi="http://sodipodi.sourceforge.net/DTD/sodipodi-0.dtd"
   xmlns:inkscape="http://www.inkscape.org/namespaces/inkscape"
   version="1.1"
   id="svg2"
   xml:space="preserve"
   width="3340.6667"
   height="1010.9947"
   viewBox="0 0 3340.6667 1010.9947"
   sodipodi:docname="Copy of Backmarket_Horizontal_Logo_Black_CMYK.ai"><metadata
     id="metadata8"><rdf:RDF><cc:Work
         rdf:about=""><dc:format>image/svg+xml</dc:format><dc:type
           rdf:resource="http://purl.org/dc/dcmitype/StillImage" /></cc:Work></rdf:RDF></metadata><defs
     id="defs6"><clipPath
       clipPathUnits="userSpaceOnUse"
       id="clipPath18"><path
         d="M 0,758.246 H 2505.497 V 0 H 0 Z"
         id="path16" /></clipPath></defs><sodipodi:namedview
     pagecolor="#ffffff"
     bordercolor="#666666"
     borderopacity="1"
     objecttolerance="10"
     gridtolerance="10"
     guidetolerance="10"
     inkscape:pageopacity="0"
     inkscape:pageshadow="2"
     inkscape:window-width="640"
     inkscape:window-height="480"
     id="namedview4" /><g
     id="g10"
     inkscape:groupmode="layer"
     inkscape:label="Copy of Backmarket_Horizontal_Logo_Black_CMYK"
     transform="matrix(1.3333333,0,0,-1.3333333,0,1010.9947)"><g
       id="g12"><g
         id="g14"
         clip-path="url(#clipPath18)"><g
           id="g20"
           transform="translate(761.2618,285.6058)"><path
             d="m 0,0 c -29.969,0 -52.355,20.581 -52.355,57.41 0,36.829 22.386,57.41 52.355,57.41 25.88,0 42.499,-12.88 48.335,-32.93 9.424,1.888 28.566,5.751 36.655,7.575 -8.985,38.731 -40.488,61.823 -85.351,61.823 -51.994,0 -92.434,-37.912 -92.434,-93.878 0,-55.966 40.44,-93.878 92.434,-93.878 43.906,0 74.735,22.196 85.142,61.87 C 76.553,27.251 57.554,31.083 48.24,32.949 41.564,12.266 25.923,0 0,0 m 1194.02,147.678 h -50.549 l -73.888,-83.4 V 219.892 H 1028.42 V -32.856 h 41.163 v 83.398 l 73.888,-83.398 h 50.549 l -80.167,90.266 z m 83.951,-29.969 c 25.997,0 46.577,-14.804 49.106,-41.522 h -98.571 c 5.053,26.357 24.912,41.522 49.465,41.522 m 47.372,-89.107 c -6.816,-18.155 -21.803,-30.046 -46.649,-30.046 -28.886,0 -49.106,18.053 -50.912,47.662 h 138.291 v 12.636 c 0,58.133 -36.829,92.435 -88.102,92.435 -48.02,0 -90.266,-37.552 -90.266,-93.879 0,-56.326 36.106,-93.878 90.266,-93.878 42.056,0 70.906,20.447 83.491,57.487 -10.712,2.292 -23.075,4.882 -36.119,7.583 m 84.18,-14.881 v 98.572 h -33.578 v 35.385 h 33.578 v 34.939 l 41.524,24.082 v -59.021 h 40.44 v -35.385 h -40.44 V 20.165 c 0,-11.915 6.859,-17.331 20.58,-17.331 h 18.053 v -35.69 h -30.33 c -29.607,0 -49.827,12.636 -49.827,46.577 M 893.052,147.678 h 26.996 l 14.166,-19.803 c 12.277,14.081 24.315,22.534 42.619,22.534 h 30.466 l 0.103,-39.144 h -46.299 c -17.008,0 -26.889,-7.978 -26.889,-27.177 V -32.856 H 893.052 Z M 822.764,44.051 v 26.358 c 0,25.997 -22.025,45.495 -48.744,45.495 -28.164,0 -51.272,-18.776 -51.272,-58.494 0,-39.718 23.108,-58.493 51.632,-58.493 26.359,0 48.384,19.137 48.384,45.134 M 681.225,57.41 c 0,60.66 39.718,93.879 85.935,93.879 22.747,0 41.883,-10.777 55.604,-23.414 l 14.166,19.803 h 26.996 V -32.856 h -41.162 v 22.33 c -11.555,-12.277 -29.607,-25.942 -56.688,-25.942 -42.245,0 -84.851,33.219 -84.851,93.878 m -70.538,162.482 -75.126,-161.175 -0.059,-0.144 -0.059,0.144 -75.126,161.175 H 415.001 V -32.856 h 41.072 V 137.976 L 516.342,7.579 h 38.293 l 60.296,130.397 V -32.856 h 40.974 V 219.892 Z M 373.919,147.678 h -50.55 L 243.396,57.41 323.369,-32.857 h 50.55 L 293.752,57.41 Z m -103.413,0 H 219.957 L 146.068,64.044 V 219.892 H 104.906 V -32.857 h 41.162 v 83.634 l 73.889,-83.634 h 50.549 L 190.339,57.41 Z M -155.878,44.051 v 26.358 c 0,25.997 -22.025,45.494 -48.745,45.494 -28.163,0 -51.272,-18.775 -51.272,-58.493 0,-39.718 23.109,-58.493 51.633,-58.493 26.359,0 48.384,19.137 48.384,45.134 M -297.417,57.41 c 0,60.66 39.717,93.878 85.934,93.878 22.748,0 41.884,-10.776 55.605,-23.414 l 14.166,19.804 h 26.996 V -32.857 h -41.162 v 22.331 c -11.555,-12.277 -29.608,-25.942 -56.688,-25.942 -42.246,0 -84.851,33.219 -84.851,93.878 M -397.971,6.86 c 23.109,0 38.996,11.555 38.996,34.663 0,23.47 -15.887,35.024 -38.996,35.024 h -68.242 V 6.86 Z m -10.47,109.405 c 23.469,0 36.829,10.11 36.829,32.135 0,21.664 -13.36,31.774 -36.829,31.774 h -57.772 v -63.909 z m -100.072,103.627 h 98.988 c 49.467,0 80.158,-27.803 80.158,-63.91 0,-26.719 -14.269,-43.96 -30.691,-53.375 23.469,-7.582 45.134,-29.31 45.134,-61.445 0,-44.411 -34.302,-74.019 -90.268,-74.019 h -103.321 z"
             style="fill:#020909;fill-opacity:1;fill-rule:nonzero;stroke:none"
             id="path22" /></g></g></g></g></svg>
