<?xml version="1.0" encoding="utf-8"?>
<!-- Generator: Adobe Illustrator 22.1.0, SVG Export Plug-In . SVG Version: 6.00 Build 0)  -->
<svg version="1.1" id="Layer_1" xmlns="http://www.w3.org/2000/svg" xmlns:xlink="http://www.w3.org/1999/xlink" x="0px" y="0px"
	 width="1439.9980469px" height="143.9976654px" viewBox="0 0 1439.9980469 143.9976654"
	 style="enable-background:new 0 0 1439.9980469 143.9976654;" xml:space="preserve">
<metadata><?xpacket begin="﻿" id="W5M0MpCehiHzreSzNTczkc9d"?>
<x:xmpmeta xmlns:x="adobe:ns:meta/" x:xmptk="Adobe XMP Core 5.6-c143 79.161356, 2017/09/07-01:11:22        ">
   <rdf:RDF xmlns:rdf="http://www.w3.org/1999/02/22-rdf-syntax-ns#">
      <rdf:Description rdf:about=""
            xmlns:lr="http://ns.adobe.com/lightroom/1.0/"
            xmlns:dc="http://purl.org/dc/elements/1.1/"
            xmlns:xmp="http://ns.adobe.com/xap/1.0/"
            xmlns:xmpMM="http://ns.adobe.com/xap/1.0/mm/"
            xmlns:stEvt="http://ns.adobe.com/xap/1.0/sType/ResourceEvent#">
         <lr:hierarchicalSubject>
            <rdf:Bag>
               <rdf:li>00_Icons|Primary</rdf:li>
               <rdf:li>00_Icons|2019</rdf:li>
               <rdf:li>00_Icons|Logo</rdf:li>
               <rdf:li>00_Icons|Bank of America</rdf:li>
               <rdf:li>00_Icons|Unified</rdf:li>
               <rdf:li>00_Icons|Unified brand</rdf:li>
               <rdf:li>00_Icons|Color</rdf:li>
               <rdf:li>00_Icons|Blue</rdf:li>
               <rdf:li>00_Icons|Red</rdf:li>
            </rdf:Bag>
         </lr:hierarchicalSubject>
         <dc:subject>
            <rdf:Bag>
               <rdf:li>Primary</rdf:li>
               <rdf:li>2019</rdf:li>
               <rdf:li>Logo</rdf:li>
               <rdf:li>Bank of America</rdf:li>
               <rdf:li>Unified</rdf:li>
               <rdf:li>Unified brand</rdf:li>
               <rdf:li>Color</rdf:li>
               <rdf:li>Blue</rdf:li>
               <rdf:li>Red</rdf:li>
               <rdf:li>bofa_lo1_rgb</rdf:li>
            </rdf:Bag>
         </dc:subject>
         <xmp:MetadataDate>2019-02-07T13:03:43-05:00</xmp:MetadataDate>
         <xmpMM:InstanceID>xmp.iid:3ad1a00d-5ae4-4f88-a069-853166cb8d94</xmpMM:InstanceID>
         <xmpMM:DocumentID>xmp.did:6d2319be-9ea4-411a-8910-e825f58c3c3b</xmpMM:DocumentID>
         <xmpMM:OriginalDocumentID>xmp.did:6d2319be-9ea4-411a-8910-e825f58c3c3b</xmpMM:OriginalDocumentID>
         <xmpMM:History>
            <rdf:Seq>
               <rdf:li>
                  <rdf:Description>
                     <stEvt:action>saved</stEvt:action>
                     <stEvt:instanceID>xmp.iid:6d2319be-9ea4-411a-8910-e825f58c3c3b</stEvt:instanceID>
                     <stEvt:when>2019-02-07T10:53:49-05:00</stEvt:when>
                     <stEvt:softwareAgent>Adobe Bridge CC 2018 (Macintosh)</stEvt:softwareAgent>
                     <stEvt:changed>/metadata</stEvt:changed>
                  </rdf:Description>
               </rdf:li>
               <rdf:li>
                  <rdf:Description>
                     <stEvt:action>saved</stEvt:action>
                     <stEvt:instanceID>xmp.iid:3ad1a00d-5ae4-4f88-a069-853166cb8d94</stEvt:instanceID>
                     <stEvt:when>2019-02-07T13:03:43-05:00</stEvt:when>
                     <stEvt:softwareAgent>Adobe Bridge CC 2018 (Macintosh)</stEvt:softwareAgent>
                     <stEvt:changed>/metadata</stEvt:changed>
                  </rdf:Description>
               </rdf:li>
            </rdf:Seq>
         </xmpMM:History>
      </rdf:Description>
   </rdf:RDF>
</x:xmpmeta>
                                                                                                    
                                                                                                    
                                                                                                    
                                                                                                    
                                                                                                    
                                                                                                    
                                                                                                    
                                                                         
<?xpacket end="w"?></metadata>
<style type="text/css">
	.st0{fill-rule:evenodd;clip-rule:evenodd;fill:#E31837;}
	.st1{fill:#E31837;}
	.st2{fill:#012169;}
</style>
<g>
	<g>
		<g>
			<path class="st0" d="M1329.1583252,138.0816498c0-3.1902771,2.6968994-5.8209839,6.0526123-5.8209839
				c3.3188477,0,6.0076904,2.6307068,6.0076904,5.8209839c0,3.2976074-2.6888428,5.9160156-6.0076904,5.9160156
				C1331.8552246,143.9976654,1329.1583252,141.3792572,1329.1583252,138.0816498 M1330.3016357,138.0816498
				c0,2.6888275,2.1835938,4.7642059,4.9093018,4.7642059c2.6888428,0,4.835083-2.0753784,4.835083-4.7642059
				c0-2.5687714-2.1462402-4.6691742-4.835083-4.6691742
				C1332.4852295,133.4124756,1330.3016357,135.5128784,1330.3016357,138.0816498"/>
			<path class="st0" d="M1338.1942139,141.4165955h-1.1311035l-1.939209-3.0409546h-1.1721191v3.0409546h-0.9736328v-6.5748596
				h2.9039307c0.5926514,0,1.1314697,0.0373383,1.6447754,0.3275146c0.5014648,0.265152,0.7458496,0.8531494,0.7458496,1.3961639
				c0,1.2964783-0.923584,1.7686615-2.1335449,1.8102264L1338.1942139,141.4165955z M1335.0455322,137.5721436
				c0.9650879,0,2.2662354,0.1739349,2.2662354-1.0275116c0-0.8535767-0.7580566-0.9447784-1.6367188-0.9447784h-1.7232666v1.97229
				H1335.0455322z"/>
		</g>
		<g>
			<path class="st1" d="M1306.6408691,143.9976654c41.9975586-35.9570694,101.0040283-70.9993134,133.3571777-83.536087
				c-5.0356445-3.211647-12.8457031-7.8192596-21.5786133-12.823761
				c-41.725708,13.765213-90.5039062,44.4456367-134.1628418,79.0964203
				C1291.6916504,132.1282349,1299.362793,138.0591583,1306.6408691,143.9976654z"/>
			<path class="st2" d="M1287.3835449,46.2348061c-6.2470703-2.9010315-12.9293213-5.7992554-18.2941895-8.1869164
				c-15.8365479,7.8017654-36.3662109,19.6998634-62.4013672,38.2083664
				c5.6766357,2.9860229,11.6573486,6.5587921,18.0788574,10.1780548
				C1244.7935791,71.5980835,1265.012207,57.5392189,1287.3835449,46.2348061z"/>
			<path class="st1" d="M1324.7619629,28.9074574c-7.5415039-4.2984772-34.0723877-13.9028864-52.2536621-18.1326485
				c-5.3635254,2.065341-12.9708252,4.9773464-18.1795654,7.168066c6.5054932,1.8396015,31.1794434,8.3549633,52.1723633,18.9844933
				C1312.0927734,34.396225,1319.5037842,31.1474495,1324.7619629,28.9074574z"/>
			<path class="st2" d="M1235.3630371,26.3167553c-23.4840088,10.8029537-47.9493408,25.6668034-61.3330078,34.1448212
				c4.7495117,2.132103,9.555542,3.9938622,16.1834717,7.2499733c29.5489502-20.0204201,52.7249756-32.1496468,62.012085-36.2161026
				C1245.6462402,29.2886505,1239.3380127,27.5126572,1235.3630371,26.3167553z"/>
			<path class="st1" d="M1342.3364258,22.8679428c5.3137207-1.721283,11.6716309-3.4493122,17.0338135-4.9546318
				C1343.6804199,11.3100309,1324.1096191,4.3857713,1306.6429443,0c-2.7312012,0.746624-11.1148682,3.0564175-17.0792236,4.8684154
				C1295.6037598,6.3433499,1315.4688721,10.9299097,1342.3364258,22.8679428z"/>
			<path class="st1" d="M1243.717041,97.9423447c6.3356934,3.8518982,13.2519531,9.0810318,19.8374023,13.4161987
				c43.7850342-33.9356003,86.9622803-60.2542992,134.4952393-75.0951538
				c-6.6051025-3.3312759-12.3973389-6.3217564-19.7265625-9.9078884
				C1349.7653809,33.6122246,1301.2941895,53.0658531,1243.717041,97.9423447z"/>
		</g>
	</g>
	<path class="st2" d="M0,133.6473541h31.9895706c16.2049332,0,23.8367462-8.3619232,23.8367462-20.1750488
		c0-9.5158081-5.0180588-15.9954834-15.4730797-18.0885773c9.2007675-2.2973175,13.3817291-7.8412628,13.3817291-16.0979385
		c0-10.4550247-7.6318169-18.8186874-23.8350048-18.8186874H0V133.6473541z M27.808609,102.5987396
		c6.0628662,0,10.1403236,2.9267044,10.1403236,9.0937729c0,6.4831543-4.0774574,9.0969086-10.1403236,9.0969086H17.4591846
		v-18.1906815H27.808609z M25.8228512,73.3267746c6.0628662,0,10.1399746,2.6120148,10.1399746,8.5727692
		c0,5.9593582-4.0771084,8.5731125-10.1399746,8.5731125h-8.3636665V73.3267746H25.8228512z M120.3428955,60.4671021h-18.0871811
		l-27.3897095,73.1802521H93.056694l4.9124603-15.1583786h26.4508438l4.9128113,15.1583786h18.3997955L120.3428955,60.4671021z
		 M111.3512344,77.9262848l8.6766205,26.9732513h-17.5626907L111.3512344,77.9262848z M239.10289,60.4671021h-16.5178833v48.928093
		l-31.1542206-48.928093h-18.6092377v73.1802521h16.5178986v-48.820755l31.1542206,48.820755H239.10289V60.4671021z
		 M315.8252258,133.6473541l-24.0444641-37.2188187v37.2188187h-17.7721252V60.4671021h17.7721252v35.2295761l22.8957825-35.2295761
		h19.8634949L310.5994263,95.594574l26.2396851,38.0527802H315.8252258z M399.6478271,97.0582733
		c0,14.6342392,8.7822266,23.6255569,20.1767883,23.6255569c11.3959656,0,20.1781921-8.9913177,20.1781921-23.6255569
		c0-14.6377258-8.7822266-23.6276474-20.1781921-23.6276474C408.4300537,73.4306259,399.6478271,82.4205475,399.6478271,97.0582733
		L399.6478271,97.0582733z M380.8308716,97.0582733c0.1038818-21.432785,15.2639771-38.1601219,38.9937439-38.1601219
		c23.7311401,0,38.8912659,16.7273369,38.9951172,38.1601219c-0.1038513,21.4307022-15.2639771,38.1580353-38.9951172,38.1580353
		C396.0948486,135.2163086,380.9347534,118.4889755,380.8308716,97.0582733L380.8308716,97.0582733z M483.2720337,133.6473541
		h17.7721558v-28.8534088h23.1035156V90.785614h-23.1035156V74.4754333h28.0177002l3.1361694-14.0083313h-48.9260254V133.6473541z
		 M615.1089478,60.4671021h-18.086792l-27.3900757,73.1802521h18.19104l4.9124756-15.1583786h26.4508057l4.9124756,15.1583786
		h18.4001465L615.1089478,60.4671021z M606.1176758,77.9262848l8.6765747,26.9732513h-17.5626831L606.1176758,77.9262848z
		 M748.427063,60.4671021h-20.8044434l-19.0264282,39.5178833l-18.9221802-39.5178833h-20.8047485v73.1802521h15.9957886V84.7210007
		l23.5220947,48.9263535l23.5220337-48.9263535v48.9263535h16.5178833V60.4671021z M782.9268799,133.6473541h49.9708252v-14.0083313
		h-32.1986694v-16.3084335h25.4039307V89.7408066h-25.4039307V74.4754333h29.4810181l3.1361694-14.0083313h-50.3893433V133.6473541z
		 M900.748291,133.6473541h19.3393555l-18.2945557-31.0486145c9.9309082-2.7193527,14.7398682-9.7231674,14.7398682-20.0729446
		c0-13.2761307-7.9451294-22.0586929-25.9266968-22.0586929h-28.121582v73.1802521h17.4588623v-28.8534088h4.7036743
		L900.748291,133.6473541z M887.4700928,73.9530334c7.3188477,0,11.1868896,3.2414017,11.1868896,9.3046188
		c0,6.2723083-3.868042,9.4102097-11.1868896,9.4102097h-7.5265503V73.9530334H887.4700928z M946.7458496,133.6473541h17.7739258
		v-5.6847916V60.4671021h-17.7739258V133.6473541z M1052.2303467,113.9929657
		c-6.8985596,4.7033615-12.8579102,6.3779068-18.9224854,6.3779068c-13.6950684,0-23.1035156-9.3046188-23.1035156-23.3125992
		c0-14.0083313,9.4084473-23.3146896,22.6864014-23.3146896c6.0631104,0,11.9168701,1.6727982,18.5039062,6.3761673V63.6032562
		c-6.0628662-3.3452568-12.9631348-4.7051048-20.8044434-4.7051048c-24.2538452,0-39.4122314,16.7273369-39.5178223,38.1601219
		c0.1055908,21.6380539,15.0548706,38.1580353,39.6234131,38.1580353c8.1542969,0,15.2623291-1.3581085,21.5345459-4.7033691
		V113.9929657z M1117.3613281,60.4671021h-18.085083l-27.3918457,73.1802521h18.1907959l4.9144287-15.1583786h26.4490967
		l4.9143066,15.1583786h18.3984375L1117.3613281,60.4671021z M1108.37146,77.9262848l8.6768799,26.9732513h-17.5629883
		L1108.37146,77.9262848z"/>
</g>
</svg>
