<?xml version="1.0" encoding="UTF-8" standalone="no"?>
<svg xmlns="http://www.w3.org/2000/svg" viewBox="0 0 303.84586 74.669685" width="303.84586" height="74.669685" version="1.1" >
  <defs id="defs0">
    <linearGradient
       id="linearGradient0"
       x1="0"
       y1="0"
       x2="1"
       y2="0"
       gradientTransform="matrix(176.536,0,0,176.536,120.982,37.335)"
       gradientUnits="userSpaceOnUse"
       spreadMethod="pad" >
      <stop id="stop0" offset="0.00" style="stop-color:#000000;stop-opacity:0.00" />
      <stop id="stop1" offset="0.19" style="stop-color:#000000;stop-opacity:0.10" />
      <stop id="stop2" offset="0.32" style="stop-color:#000000;stop-opacity:0.23" />
      <stop id="stop3" offset="0.48" style="stop-color:#000000;stop-opacity:0.40" />
      <stop id="stop4" offset="0.86" style="stop-color:#000000;stop-opacity:1.00" />
      <stop id="stop6" offset="1.00" style="stop-color:#000000;stop-opacity:1.00" />
    </linearGradient>
  </defs>
  <path
     id="energy"
     style="fill:#e87511;"
     d="m 19.096,26.174066 -1.964,-4.061 c -1.918,1.204 -2.719,1.606 -3.97,1.963 -0.846,0.268 -1.649,0.358 -2.453,0.358 -1.962,0 -3.749,-0.983 -4.642,-2.499 -0.489,-0.849 -0.621,-1.561 -0.711,-3.301 h 13.74 v -2.277 c 0,-5.62 -3.569,-9.5030002 -8.7,-9.5030002 C 4.462,6.8540658 0,11.807066 0,18.364066 c 0,6.338 3.882,10.395 10.041,10.395 2.408,0 4.64,-0.488 6.823,-1.471 0.492,-0.222 1.251,-0.58 2.232,-1.114 m -5.354,-10.887 H 5.621 c 0.446,-2.811 2.055,-4.416 4.42,-4.416 2.497,0 3.569,1.248 3.701,4.416 m 26.993,12.894 v -15.259 c 0,-3.9270002 -1.875,-5.8900002 -5.621,-5.8900002 -2.633,0 -4.685,1.116 -7.184,3.8390002 V 7.4340658 H 22.575 V 28.181066 h 5.355 v -12.493 l 0.714,-0.759 c 2.32,-2.499 3.882,-3.612 4.998,-3.612 1.291,0 1.739,0.936 1.739,3.524 v 13.34 z m 22.664,-2.007 -1.962,-4.061 c -1.919,1.204 -2.723,1.606 -3.971,1.963 -0.849,0.268 -1.65,0.358 -2.453,0.358 -1.965,0 -3.75,-0.983 -4.643,-2.499 -0.488,-0.849 -0.623,-1.561 -0.713,-3.301 h 13.742 v -2.277 c 0,-5.62 -3.569,-9.5030002 -8.701,-9.5030002 -5.935,0 -10.394,4.9530002 -10.394,11.5100002 0,6.338 3.881,10.395 10.04,10.395 2.408,0 4.638,-0.488 6.823,-1.471 0.493,-0.222 1.251,-0.58 2.232,-1.114 m -5.353,-10.887 h -8.121 c 0.445,-2.811 2.054,-4.416 4.419,-4.416 2.498,0 3.569,1.248 3.702,4.416 M 79.505,8.5930658 c -0.846,-0.98 -1.784,-1.471 -2.901,-1.471 -1.604,0 -2.901,1.338 -4.908,4.8630002 L 71.473,7.4340658 H 66.881 V 28.181066 h 5.308 v -9.503 c 0,-1.562 0.446,-2.767 1.427,-3.97 0.803,-0.984 1.739,-1.562 2.587,-1.562 0.581,0 1.027,0.177 1.607,0.624 z m 21.994,2.8570002 V 7.4340658 l -4.192996,0.269 h -3.078 c -1.965,-0.671 -2.81,-0.849 -4.327,-0.849 -5.486,0 -8.880004,3.033 -8.880004,7.9870002 0,1.964 0.626,3.659 1.83,5.085 0.491,0.581 0.891,0.894 1.829004,1.608 -0.580004,0.445 -1.026004,0.713 -1.293004,0.937 -2.01,1.338 -2.721,2.275 -2.721,3.479 0,1.25 0.848,2.053 2.898,2.809 -2.407,2.054 -3.301,3.439 -3.301,5.044 0,3.121 3.436,5.218 8.522004,5.218 6.96,0 11.957996,-3.746 11.957996,-8.92 0,-3.349 -1.919996,-4.998 -5.979996,-4.998 h -7.272 c -1.026,0 -1.384,-0.134 -1.384,-0.581 0,-0.536 0.668,-1.205 2.054,-2.231 0.669,0.134 0.979,0.134 1.515,0.134 5.446,0 9.104,-3.168 9.104,-7.897 0,-1.338 -0.225,-2.052 -0.938,-3.078 z m -8.163996,3.123 c 0,2.142 -1.515,3.837 -3.434,3.837 -1.918,0 -3.436,-1.695 -3.436,-3.793 0,-2.141 1.518,-3.926 3.391,-3.926 1.917,0 3.479,1.739 3.479,3.882 m 2.41,16.15 c 0,0.803 -0.581,1.742 -1.562,2.498 -1.249,1.026 -2.988,1.608 -4.595,1.608 -2.455,0 -4.372,-1.026 -4.372,-2.321 0,-0.534 0.356,-1.337 0.981,-2.363 0.133,-0.135 0.268,-0.402 0.445,-0.714 h 6.472 c 1.782,0 2.631,0.446 2.631,1.292 M 121.801,7.4340658 h -5.266 l -3.123,9.2370002 -0.581,2.499 -0.533,-2.499 -3.66,-9.2370002 h -5.8 l 7.631,17.5790002 c -1.162,3.346 -1.785,4.64 -3.169,6.737 -1.114,1.785 -1.874,2.675 -3.836,4.773 l 4.372,2.856 c 1.784,-2.231 2.407,-3.078 3.659,-5.221 1.561,-2.542 2.319,-4.148 3.344,-7.092 z" />
  <path
     id="&amp; meteo"
     style="fill:#000000;"
     d="m 149.5642,26.335766 -1.662,-1.121 c -1.357,1.968 -2.134,2.613 -3.22,2.613 -1.053,0 -1.798,-0.544 -3.156,-2.24 1.665,-1.796 2.273,-2.643 2.815,-4.002 0.442,-1.118 0.613,-1.965 0.782,-4 h -2.341 c -0.169,1.832 -0.305,2.545 -0.711,3.562 -0.407,1.016 -0.78,1.56 -1.832,2.678 l -6.511,-9.02 c -1.591,-2.204 -1.831,-2.61 -2.102,-3.66 -0.102,-0.341 -0.17,-0.681 -0.17,-1.018 0,-1.9000002 1.662,-3.2910002 3.869,-3.2910002 1.998,0 3.455,1.154 3.455,2.713 0,1.1540002 -0.542,1.9680002 -1.863,2.9840002 l -1.357,1.018 1.324,1.696 1.56,-1.155 c 1.932,-1.456 3.016,-3.119 3.016,-4.6100002 0,-2.848 -2.474,-4.816 -6.103,-4.816 -3.968,0 -6.611,2.273 -6.611,5.6290002 0,1.492 0.439,2.61 1.795,4.41 0.373,0.473 0.782,1.05 1.255,1.66 l -1.459,1.187 c -3.153,2.578 -4.203,4.205 -4.203,6.543 0,3.697 2.712,6.106 6.849,6.106 2.678,0 4.61,-0.781 6.68,-2.714 1.355,1.458 1.968,1.968 2.883,2.341 0.539,0.201 1.153,0.337 1.795,0.337 1.324,0 2.41,-0.473 3.391,-1.491 0.645,-0.61 0.983,-1.05 1.832,-2.339 m -11.12,-0.645 c -1.324,1.084 -1.8,1.392 -2.477,1.696 -0.711,0.305 -1.593,0.474 -2.476,0.474 -2.781,0 -4.578,-1.592 -4.578,-4.069 0,-1.696 0.748,-2.915 2.713,-4.475 l 1.425,-1.155 z m 46.84,2.284 v -15.26 c 0,-3.9260002 -1.875,-5.8870002 -5.621,-5.8870002 -2.723,0 -5.088,1.339 -7.364,4.0580002 -0.49,-2.6320002 -2.365,-4.0580002 -5.441,-4.0580002 -2.633,0 -4.687,1.115 -7.185,3.8370002 V 7.2297658 h -5.355 V 27.974766 h 5.355 v -12.493 l 0.715,-0.757 c 2.319,-2.498 3.88,-3.615 4.994,-3.615 1.296,0 1.742,0.937 1.742,3.525 v 13.34 h 5.353 v -12.447 c 1.341,-1.517 2.098,-2.277 2.856,-2.9 1.161,-0.982 2.232,-1.518 2.9,-1.518 1.252,0 1.697,0.937 1.697,3.525 v 13.34 z m 21.771,-2.008 -1.963,-4.06 c -1.919,1.205 -2.722,1.607 -3.971,1.963 -0.848,0.268 -1.652,0.358 -2.453,0.358 -1.964,0 -3.749,-0.982 -4.64,-2.498 -0.492,-0.849 -0.625,-1.562 -0.715,-3.302 h 13.742 v -2.277 c 0,-5.621 -3.571,-9.5020002 -8.7,-9.5020002 -5.936,0 -10.395,4.9530002 -10.395,11.5110002 0,6.336 3.881,10.396 10.038,10.396 2.41,0 4.64,-0.491 6.827,-1.473 0.488,-0.222 1.249,-0.58 2.23,-1.116 m -5.353,-10.886 h -8.121 c 0.447,-2.81 2.051,-4.416 4.417,-4.416 2.5,0 3.569,1.248 3.704,4.416 m 19.984,10.886 -1.692,-3.882 c -1.474,0.983 -2.232,1.294 -2.856,1.294 -0.85,0 -1.071,-0.669 -1.071,-2.988 v -9.237 h 4.506 V 7.2297658 h -4.506 v -6.204 h -5.042 v 6.204 l -3.079,0.535 v 3.3890002 h 3.079 v 12.894 c 0,3.08 1.294,4.508 4.06,4.508 1.471,0 3.08,-0.491 4.641,-1.384 0.579,-0.357 1.249,-0.759 1.96,-1.205 m 20.034,0 -1.964,-4.06 c -1.917,1.205 -2.72,1.607 -3.969,1.963 -0.849,0.268 -1.65,0.358 -2.453,0.358 -1.964,0 -3.749,-0.982 -4.642,-2.498 -0.488,-0.849 -0.624,-1.562 -0.714,-3.302 h 13.742 v -2.277 c 0,-5.621 -3.568,-9.5020002 -8.701,-9.5020002 -5.934,0 -10.394,4.9530002 -10.394,11.5110002 0,6.336 3.881,10.396 10.039,10.396 2.41,0 4.639,-0.491 6.825,-1.473 0.492,-0.222 1.251,-0.58 2.231,-1.116 m -5.352,-10.886 h -8.122 c 0.446,-2.81 2.054,-4.416 4.418,-4.416 2.5,0 3.57,1.248 3.704,4.416 m 28.062,2.499 c 0,-6.202 -4.507,-10.9310002 -10.441,-10.9310002 -5.934,0 -10.439,4.7290002 -10.439,10.9310002 0,6.246 4.505,10.976 10.439,10.976 5.934,0 10.441,-4.73 10.441,-10.976 m -5.533,0 c 0,3.702 -2.229,6.736 -4.908,6.736 -2.675,0 -4.907,-3.034 -4.907,-6.736 0,-3.66 2.232,-6.694 4.907,-6.694 2.679,0 4.908,3.034 4.908,6.694" />
  <path
     id="systems"
     style="fill:#000000;"
     d="m 161.3621,43.350866 c 0,-1.58301 -0.602,-2.27301 -2.744,-3.16701 -1.829,-0.759 -2.097,-0.915 -2.498,-1.316 -0.156,-0.156 -0.246,-0.379 -0.246,-0.625 0,-0.757 0.737,-1.27 1.875,-1.27 0.379,0 0.758,0.065 1.161,0.178 0.512,0.134 0.801,0.267 1.447,0.668 l 0.825,-1.36 c -0.845,-0.469 -1.204,-0.603 -1.962,-0.758 -0.424,-0.066 -0.87,-0.113 -1.292,-0.113 -2.365,0 -3.838,1.095 -3.838,2.857 0,1.225 0.668,1.917 2.632,2.744 1.806,0.73401 2.278,1.02601 2.678,1.60501 0.111,0.157 0.199,0.446 0.199,0.691 0,0.781 -0.758,1.339 -1.782,1.339 -0.716,0 -1.606,-0.222 -2.322,-0.558 -0.178,-0.089 -0.422,-0.223 -0.759,-0.4 l -0.691,1.405 c 1.004,0.514 1.428,0.669 2.386,0.847 0.514,0.089 0.983,0.133 1.408,0.133 2.208,0 3.523,-1.091 3.523,-2.9 m 10.212,-7.49501 h -1.718 l -2.073,6.18001 -0.223,0.982 -0.335,-0.982 -2.43,-6.18001 h -1.877 l 3.749,8.99101 c -0.581,1.538 -0.849,2.142 -1.406,3.123 -0.579,1.047 -0.915,1.495 -1.918,2.61 l 1.339,1.026 c 0.826,-1.048 1.115,-1.472 1.515,-2.118 0.558,-0.894 0.938,-1.718 1.408,-2.968 z m 8.706,7.49501 c 0,-1.58301 -0.6,-2.27301 -2.744,-3.16701 -1.829,-0.759 -2.097,-0.915 -2.497,-1.316 -0.157,-0.156 -0.245,-0.379 -0.245,-0.625 0,-0.757 0.735,-1.27 1.875,-1.27 0.379,0 0.756,0.065 1.161,0.178 0.51,0.134 0.801,0.267 1.448,0.668 l 0.824,-1.36 c -0.847,-0.469 -1.203,-0.603 -1.962,-0.758 -0.424,-0.066 -0.872,-0.113 -1.294,-0.113 -2.365,0 -3.837,1.095 -3.837,2.857 0,1.225 0.669,1.917 2.633,2.744 1.806,0.73401 2.274,1.02601 2.676,1.60501 0.111,0.157 0.201,0.446 0.201,0.691 0,0.781 -0.758,1.339 -1.784,1.339 -0.714,0 -1.606,-0.222 -2.32,-0.558 -0.18,-0.089 -0.424,-0.223 -0.758,-0.4 l -0.692,1.405 c 1.002,0.514 1.426,0.669 2.386,0.847 0.514,0.089 0.982,0.133 1.406,0.133 2.209,0 3.523,-1.091 3.523,-2.9 m 7.884,1.63 -0.693,-1.115 c -0.714,0.534 -1.046,0.714 -1.471,0.714 -0.358,0 -0.559,-0.158 -0.58,-0.491 -0.024,-0.112 -0.024,-0.314 -0.045,-0.626 l -0.022,-0.445 v -5.75601 h 2.676 v -1.406 h -2.676 v -2.944 h -1.673 v 2.944 l -1.697,0.424 v 0.982 h 1.697 v 6.73701 c 0,1.338 0.78,2.252 1.941,2.252 0.804,0 1.36,-0.289 2.543,-1.27 m 9.764,-4.21601 v -0.982 c 0,-2.521 -1.538,-4.195 -3.903,-4.195 -2.877,0 -4.773,2.119 -4.773,5.332 0,3.19101 1.896,5.33101 4.707,5.33101 1.315,0 2.163,-0.289 3.659,-1.226 l -0.669,-1.317 c -1.095,0.76 -1.741,1.003 -2.633,1.003 -2.055,0 -3.303,-1.493 -3.303,-3.94601 z m -1.83,-1.25 h -4.95 c 0.377,-1.562 1.36,-2.408 2.768,-2.408 1.382,0 2.161,0.846 2.182,2.408 m 19.677,6.44701 v -7.56101 c 0,-1.898 -0.87,-2.813 -2.654,-2.813 -0.939,0 -1.941,0.358 -2.699,1.005 -0.491,0.401 -0.69,0.602 -1.406,1.405 -0.111,-1.628 -0.96,-2.41 -2.633,-2.41 -0.936,0 -1.94,0.358 -2.699,1.005 -0.49,0.401 -0.692,0.602 -1.384,1.382 v -2.119 h -1.672 v 10.10601 h 1.672 v -6.17901 c 1.765,-1.942 2.858,-2.699 3.884,-2.699 0.467,0 0.846,0.201 1.025,0.536 0.132,0.311 0.158,0.445 0.158,1.182 v 7.16001 h 1.671 v -6.17901 l 0.469,-0.492 c 1.471,-1.584 2.476,-2.207 3.413,-2.207 0.468,0 0.848,0.201 1.028,0.536 0.133,0.311 0.154,0.445 0.154,1.182 v 7.16001 z m 10.075,-2.611 c 0,-1.58301 -0.604,-2.27301 -2.744,-3.16701 -1.83,-0.759 -2.098,-0.915 -2.498,-1.316 -0.156,-0.156 -0.246,-0.379 -0.246,-0.625 0,-0.757 0.736,-1.27 1.872,-1.27 0.381,0 0.761,0.065 1.161,0.178 0.514,0.134 0.803,0.267 1.45,0.668 l 0.825,-1.36 c -0.846,-0.469 -1.204,-0.603 -1.962,-0.758 -0.424,-0.066 -0.87,-0.113 -1.294,-0.113 -2.365,0 -3.837,1.095 -3.837,2.857 0,1.225 0.671,1.917 2.633,2.744 1.805,0.73401 2.275,1.02601 2.675,1.60501 0.114,0.157 0.202,0.446 0.202,0.691 0,0.781 -0.758,1.339 -1.785,1.339 -0.715,0 -1.604,-0.222 -2.32,-0.558 -0.178,-0.089 -0.424,-0.223 -0.76,-0.4 l -0.69,1.405 c 1.005,0.514 1.427,0.669 2.387,0.847 0.513,0.089 0.983,0.133 1.405,0.133 2.211,0 3.526,-1.091 3.526,-2.9" />
  <path
     id="isobar-curve"
     style="fill:url(#linearGradient0);"
     d="m 122.4722,59.94957 c 2.617,2.386 8.072,4.82 15.42,6.843 22.063,6.118 61.208,8.928 95.293,2.187 26.949,-5.315 50.645,-16.593 60.535,-36.561 0.403,-0.794 2.908,-6.19 1.677,-12.359 -0.632,-3.183 -2.224,-6.587 -5.643,-9.804 -3.418,-3.213 -8.697,-6.231 -16.7,-8.504 -0.473,-0.137 -0.748,-0.63 -0.613,-1.104 0.136,-0.473 0.63,-0.747 1.104,-0.614 8.198,2.33 13.747,5.46 17.431,8.922 3.689,3.454 5.482,7.245 6.174,10.757 1.337,6.827 -1.362,12.542 -1.832,13.501 -10.338,20.772 -34.609,32.14 -61.786,37.517 -22.958,4.532 -48.064,4.784 -68.888,2.621 -10.413,-1.082 -19.751,-2.768 -27.229,-4.839 -7.482,-2.083 -13.085,-4.495 -16.138,-7.239 -0.366,-0.332 -0.397,-0.895 -0.065,-1.262 0.333,-0.366 0.896,-0.392 1.26,-0.062" />
  <path
     d="m 296.9363,22.92797 c 0,0 17.951,11.617 -4.015,13.898"
     style="fill:#000000;"
     id="isobar-warm-0-2" />
  <path
     id="isobar-cold"
     style="fill:#000000;"
     d="m 297.4803,47.11847 -4.147,-10.321 -8.195,10.244 z" />
</svg>
