<?xml version="1.0" encoding="UTF-8" standalone="no"?>
<!-- Created with Inkscape (http://www.inkscape.org/) -->

<svg
   xmlns:dc="http://purl.org/dc/elements/1.1/"
   xmlns:cc="http://creativecommons.org/ns#"
   xmlns:rdf="http://www.w3.org/1999/02/22-rdf-syntax-ns#"
   xmlns:svg="http://www.w3.org/2000/svg"
   xmlns="http://www.w3.org/2000/svg"
   xmlns:sodipodi="http://sodipodi.sourceforge.net/DTD/sodipodi-0.dtd"
   xmlns:inkscape="http://www.inkscape.org/namespaces/inkscape"
   id="svg3004"
   version="1.1"
   inkscape:version="0.91 r13725"
   width="633.37164"
   height="152.04262"
   xml:space="preserve"
   sodipodi:docname="evolabel-logo-black-on-white.svg"><metadata
     id="metadata3010"><rdf:RDF><cc:Work
         rdf:about=""><dc:format>image/svg+xml</dc:format><dc:type
           rdf:resource="http://purl.org/dc/dcmitype/StillImage" /><dc:title></dc:title></cc:Work></rdf:RDF></metadata><defs
     id="defs3008" /><sodipodi:namedview
     pagecolor="#ffffff"
     bordercolor="#666666"
     borderopacity="1"
     objecttolerance="10"
     gridtolerance="10"
     guidetolerance="10"
     inkscape:pageopacity="0"
     inkscape:pageshadow="2"
     inkscape:window-width="1743"
     inkscape:window-height="1175"
     id="namedview3006"
     showgrid="false"
     inkscape:zoom="1.5245791"
     inkscape:cx="306.17717"
     inkscape:cy="44.06626"
     inkscape:window-x="2212"
     inkscape:window-y="24"
     inkscape:window-maximized="0"
     inkscape:current-layer="g3014"
     fit-margin-top="0"
     fit-margin-left="0"
     fit-margin-right="0"
     fit-margin-bottom="0" /><g
     id="g3012"
     inkscape:groupmode="layer"
     inkscape:label="ink_ext_XXXXXX"
     transform="matrix(1.25,0,0,-1.25,-65.630875,258.1325)"><g
       id="g3014"
       transform="scale(0.1,0.1)"><path
         d="m 1341.21,1925.38 c -93.1,93.1 -215.69,139.68 -338.27,139.68 -122.549,0 -245.104,-46.56 -338.21,-139.65 l 0.043,-0.14 c -93.148,-93.15 -139.722,-215.68 -139.726,-338.14 0.016,-122.55 46.578,-245.11 139.664,-338.2 l 0.137,0.03 c 93.148,-93.14 215.668,-139.71 338.132,-139.71 122.56,0.01 245.11,46.57 338.2,139.65 93.12,93.11 139.69,215.69 139.7,338.27 -0.02,122.56 -46.58,245.11 -139.67,338.21 z m -338.23,62.71 c 102.72,0 205.52,-39.09 283.66,-117.23 78.16,-78.16 117.25,-180.98 117.26,-283.73 0.01,-102.73 -39.08,-205.51 -117.23,-283.65 -78.17,-78.16 -180.97,-117.26 -283.73,-117.27 -102.815,0 -205.627,39.06 -283.752,117.15 l 0.089,0.09 c -78.156,78.16 -117.25,180.97 -117.265,283.73 0,102.81 39.058,205.62 117.144,283.75 l 0.09,-0.09 c 78.176,78.16 180.984,117.25 283.734,117.25"
         style="fill:#000000;fill-opacity:1;fill-rule:nonzero;stroke:none"
         id="path3020"
         inkscape:connector-curvature="0" /><path
         d="m 1133.91,1718.06 c -36.01,36.02 -83.52,54.06 -130.97,54.05 -47.436,0 -94.889,-18.03 -130.893,-54.02 -36.027,-36.02 -54.051,-83.5 -54.043,-130.96 0,-47.43 18.016,-94.88 54.012,-130.88 l 0.136,0.03 c 36.047,-36.05 83.461,-54.08 130.828,-54.08 47.45,0.01 94.88,18.01 130.9,54.01 36.02,36.02 54.04,83.5 54.04,130.96 0,47.43 -18.01,94.88 -54.01,130.89 z m -130.93,-22.91 c 27.61,0 55.3,-10.55 76.36,-31.6 21.06,-21.07 31.61,-48.78 31.61,-76.42 0,-27.6 -10.54,-55.29 -31.59,-76.34 -21.07,-21.08 -48.78,-31.62 -76.42,-31.62 -27.702,-0.01 -55.405,10.5 -76.444,31.49 l 0.09,0.1 c -21.074,21.07 -31.617,48.78 -31.613,76.42 -0.004,27.61 10.531,55.29 31.586,76.34 21.074,21.07 48.785,31.63 76.421,31.63"
         style="fill:#000000;fill-opacity:1;fill-rule:nonzero;stroke:none"
         id="path3022"
         inkscape:connector-curvature="0" /><path
         d="m 1301.78,1934.76 -155.49,-51.81 -18.16,-6.05 -6.13,-18.38 -51.86,-155.53 72.91,-24.4 45.73,137.15 137.31,45.76 -24.31,73.26"
         style="fill:#000000;fill-opacity:1;fill-rule:nonzero;stroke:none"
         id="path3024"
         inkscape:connector-curvature="0" /><path
         d="m 704.152,1239.59 155.528,51.78 18.175,6.06 6.125,18.37 51.801,155.5 -72.914,24.4 -45.679,-137.11 -137.348,-45.73 24.312,-73.27"
         style="fill:#000000;fill-opacity:1;fill-rule:nonzero;stroke:none"
         id="path3026"
         inkscape:connector-curvature="0" /><path
         d="m 2055.92,952.48 c -0.48,-42.156 34.98,-60.882 72.82,-60.882 46.47,0 71.15,23.515 71.15,54.894 0,38.809 -38.33,46.711 -50.79,49.828 -42.88,11.02 -51.02,12.69 -51.02,25.87 0,14.37 13.9,19.4 25.87,19.4 17.97,0 32.58,-5.27 33.78,-25.87 l 36.41,0 c 0,39.53 -32.82,55.1 -68.51,55.1 -30.9,0 -63.96,-16.77 -63.96,-51.75 0,-32.097 25.63,-41.914 51.02,-48.625 25.16,-6.707 50.79,-9.82 50.79,-28.265 0,-17.485 -20.12,-21.317 -33.3,-21.317 -20.12,0 -37.85,8.864 -37.85,31.617 l -36.41,0 z m 163.61,-56.769 34.02,0 0,123.839 -34.02,0 0,-123.839 z m 34.02,171.039 -34.02,0 0,-28.03 34.02,0 0,28.03 z m 27.78,-171.039 34.02,0 0,71.859 c 0,24.196 16.29,28.508 23,28.508 21.56,0 20.6,-16.527 20.6,-30.898 l 0,-69.469 34.01,0 0,68.984 c 0,15.575 3.59,31.383 22.76,31.383 19.4,0 20.84,-13.652 20.84,-30.183 l 0,-70.184 34.01,0 0,82.883 c 0,32.096 -18.92,44.316 -45.27,44.316 -17.25,0 -30.18,-9.82 -37.37,-20.6 -6.71,14.85 -20.6,20.6 -36.17,20.6 -16.05,0 -28.98,-7.43 -37.85,-20.12 l -0.48,0 0,16.76 -32.1,0 0,-123.839 z m 216.07,-43.641 34.02,0 0,58.973 0.48,0 c 8.14,-12.219 22.28,-18.727 37.13,-18.727 36.17,0 54.38,30.942 54.38,63.997 0,35.214 -17.49,66.597 -56.3,66.597 -15.33,0 -28.75,-5.99 -36.89,-19.16 l -0.48,0 0,15.8 -32.34,0 0,-167.48 z m 62.53,65.918 c -22.04,0 -29.71,19.16 -29.71,39.285 0,20.122 7.19,40.004 29.46,40.004 21.8,0 29.71,-20.363 29.71,-40.004 0,-20.125 -7.19,-39.285 -29.46,-39.285 z m 84.79,-22.277 34.02,0 0,171.039 -34.02,0 0,-171.039 z m 61.81,0 34.01,0 0,123.839 -34.01,0 0,-123.839 z m 34.01,171.039 -34.01,0 0,-28.03 34.01,0 0,28.03 z m 144.45,-90.793 c -2.16,31.623 -28.99,46.953 -58.21,46.953 -40.24,0 -63.24,-28.508 -63.24,-67.078 0,-37.129 25.15,-63.516 62.52,-63.516 32.58,0 55.34,18.008 59.65,50.825 l -32.82,0 c -2.16,-15.094 -11.26,-25.153 -27.07,-25.153 -21.32,0 -28.27,21.317 -28.27,39.047 0,18.203 7.19,40.242 28.99,40.242 14.13,0 23,-7.425 25.15,-21.32 l 33.3,0 z m 20.84,-80.246 34.02,0 0,123.839 -34.02,0 0,-123.839 z m 34.02,171.039 -34.02,0 0,-28.03 34.02,0 0,28.03 z m 69.94,-10.06 -34.01,0 0,-37.14 -20.6,0 0,-22.753 20.6,0 0,-73.063 c 0,-24.675 18.2,-29.5 39.04,-29.5 6.71,0 14.14,0.239 19.89,1.196 l 0,26.633 c -3.6,-0.723 -6.95,-0.965 -10.54,-0.965 -11.5,0 -14.38,2.879 -14.38,14.375 l 0,61.324 24.92,0 0,22.753 -24.92,0 0,37.14 z m 154.03,-37.14 -35.21,0 -27.07,-84.796 -0.48,0 -28.02,84.796 -36.46,0 43.64,-116.175 c 3.83,-9.863 0,-22.078 -11.74,-23.273 -6.71,-0.243 -13.41,0.714 -19.88,1.195 l 0,-28.027 c 6.95,-0.719 13.89,-1.2 20.84,-1.2 23.47,0 35.21,8.149 42.64,28.032 l 51.74,139.448 z m 121.21,37.14 -34.01,0 0,-37.14 -20.61,0 0,-22.753 20.61,0 0,-73.063 c 0,-24.675 18.2,-29.5 39.04,-29.5 6.71,0 14.13,0.239 19.89,1.196 l 0,26.633 c -3.6,-0.723 -6.95,-0.965 -10.55,-0.965 -11.5,0 -14.37,2.879 -14.37,14.375 l 0,61.324 24.92,0 0,22.753 -24.92,0 0,37.14 z m 41.2,-160.979 34.02,0 0,64.914 c 0,25.152 7.9,35.453 26.35,35.453 15.81,0 21.79,-10.062 21.79,-30.422 l 0,-69.945 34.02,0 0,76.176 c 0,30.653 -9.1,51.023 -45.27,51.023 -12.7,0 -27.55,-6.71 -36.18,-20.6 l -0.71,0 0,64.44 -34.02,0 0,-171.039 z m 142.05,0 34.02,0 0,55.812 c 0,21.797 8.62,39.766 33.53,39.766 4.08,0 9.11,-0.48 12.22,-1.199 l 0,31.62 c -2.16,0.72 -5.03,1.2 -7.43,1.2 -16.53,0 -33.29,-10.78 -39.52,-26.351 l -0.48,0 0,22.991 -32.34,0 0,-123.839 z m 85.04,61.801 c 0,-39.285 25.15,-65.196 63.96,-65.196 39.05,0 64.2,25.911 64.2,65.196 0,39.523 -25.15,65.398 -64.2,65.398 -38.81,0 -63.96,-25.875 -63.96,-65.398 z m 34.02,0 c 0,19.883 6.94,39.765 29.94,39.765 23.23,0 30.18,-19.882 30.18,-39.765 0,-19.641 -6.95,-39.524 -30.18,-39.524 -23,0 -29.94,19.883 -29.94,39.524 z m 232.36,62.038 -34.02,0 0,-64.913 c 0,-25.153 -7.91,-35.453 -26.35,-35.453 -15.81,0 -21.8,10.058 -21.8,30.425 l 0,69.941 -34.01,0 0,-76.171 c 0,-30.664 9.1,-51.063 45.27,-51.063 14.37,0 29.23,6.743 37.85,20.641 l 0.72,0 0,-17.246 32.34,0 0,123.839 z m 144.92,0 -32.34,0 0,-16.52 -0.48,0 c -8.14,14.37 -20.6,19.88 -36.89,19.88 -34.73,0 -53.18,-29.226 -53.18,-61.324 0,-34.016 15.81,-62.281 52.94,-62.281 14.86,0 29.71,6.222 37.13,19.16 l 0.48,0 0,-16.289 c 0.24,-17.766 -8.38,-30.703 -27.31,-30.703 -11.97,0 -22.27,4.316 -25.39,17.011 l -33.78,0 c 1.68,-28.265 30.18,-39.765 54.62,-39.765 57.01,0 64.2,34.492 64.2,54.894 l 0,115.937 z m -61.32,-94.616 c -20.84,0 -27.55,19.406 -27.55,37.129 0,18.445 8.38,35.214 27.55,35.214 22.04,0 28.98,-17.968 28.98,-38.089 0,-17.723 -9.58,-34.254 -28.98,-34.254 z m 88.63,-29.223 34.02,0 0,64.914 c 0,25.152 7.9,35.453 26.35,35.453 15.81,0 21.79,-10.062 21.79,-30.422 l 0,-69.945 34.02,0 0,76.176 c 0,30.653 -9.1,51.023 -45.27,51.023 -12.7,0 -27.55,-6.71 -36.18,-20.6 l -0.71,0 0,64.44 -34.02,0 0,-171.039 z m 251.76,160.979 -34.01,0 0,-37.14 -20.61,0 0,-22.753 20.61,0 0,-73.063 c 0,-24.675 18.2,-29.5 39.04,-29.5 6.71,0 14.14,0.239 19.89,1.196 l 0,26.633 c -3.6,-0.723 -6.95,-0.965 -10.54,-0.965 -11.5,0 -14.38,2.879 -14.38,14.375 l 0,61.324 24.92,0 0,22.753 -24.92,0 0,37.14 z m 158.58,-107.323 c 2.4,38.09 -17.97,73.543 -60.13,73.543 -37.6,0 -63.24,-28.269 -63.24,-65.398 0,-38.328 24.2,-65.196 63.24,-65.196 28.03,0 48.39,12.497 57.98,41.723 l -29.95,0 c -2.15,-7.668 -13.17,-16.051 -26.83,-16.051 -18.92,0 -29.46,9.821 -30.42,31.379 l 89.35,0 z m -89.35,21.559 c 0.48,9.582 6.71,26.351 28.27,26.351 16.52,0 23.95,-9.105 27.06,-26.351 l -55.33,0 z m 227.09,5.031 c -2.16,31.623 -28.98,46.953 -58.21,46.953 -40.24,0 -63.24,-28.508 -63.24,-67.078 0,-37.129 25.15,-63.516 62.52,-63.516 32.58,0 55.34,18.008 59.65,50.825 l -32.82,0 c -2.16,-15.094 -11.26,-25.153 -27.07,-25.153 -21.32,0 -28.27,21.317 -28.27,39.047 0,18.203 7.19,40.242 28.99,40.242 14.14,0 23,-7.425 25.15,-21.32 l 33.3,0 z m 19.88,-80.246 34.02,0 0,64.914 c 0,25.152 7.91,35.453 26.35,35.453 15.81,0 21.8,-10.062 21.8,-30.422 l 0,-69.945 34.01,0 0,76.176 c 0,30.653 -9.1,51.023 -45.27,51.023 -12.69,0 -27.55,-6.71 -36.17,-20.6 l -0.72,0 0,64.44 -34.02,0 0,-171.039 z m 142.05,0 34.02,0 0,64.914 c 0,25.152 7.9,35.453 26.35,35.453 15.81,0 21.8,-10.062 21.8,-30.422 l 0,-69.945 34.02,0 0,76.176 c 0,30.653 -9.11,51.023 -45.28,51.023 -14.37,0 -29.22,-6.71 -37.85,-20.6 l -0.72,0 0,17.24 -32.34,0 0,-123.839 z m 138.22,61.801 c 0,-39.285 25.16,-65.196 63.96,-65.196 39.05,0 64.2,25.911 64.2,65.196 0,39.523 -25.15,65.398 -64.2,65.398 -38.8,0 -63.96,-25.875 -63.96,-65.398 z m 34.02,0 c 0,19.883 6.95,39.765 29.94,39.765 23.24,0 30.18,-19.882 30.18,-39.765 0,-19.641 -6.94,-39.524 -30.18,-39.524 -22.99,0 -29.94,19.883 -29.94,39.524 z m 117.14,-61.801 34.01,0 0,171.039 -34.01,0 0,-171.039 z m 57,61.801 c 0,-39.285 25.16,-65.196 63.97,-65.196 39.04,0 64.19,25.911 64.19,65.196 0,39.523 -25.15,65.398 -64.19,65.398 -38.81,0 -63.97,-25.875 -63.97,-65.398 z m 34.02,0 c 0,19.883 6.95,39.765 29.95,39.765 23.23,0 30.18,-19.882 30.18,-39.765 0,-19.641 -6.95,-39.524 -30.18,-39.524 -23,0 -29.95,19.883 -29.95,39.524 z m 235.24,62.038 -32.34,0 0,-16.52 -0.48,0 c -8.14,14.37 -20.6,19.88 -36.89,19.88 -34.74,0 -53.18,-29.226 -53.18,-61.324 0,-34.016 15.81,-62.281 52.94,-62.281 14.85,0 29.71,6.222 37.13,19.16 l 0.48,0 0,-16.289 c 0.24,-17.766 -8.38,-30.703 -27.31,-30.703 -11.98,0 -22.28,4.316 -25.39,17.011 l -33.78,0 c 1.68,-28.265 30.19,-39.765 54.62,-39.765 57.01,0 64.2,34.492 64.2,54.894 l 0,115.937 z m -61.33,-94.616 c -20.84,0 -27.54,19.406 -27.54,37.129 0,18.445 8.38,35.214 27.54,35.214 22.04,0 28.99,-17.968 28.99,-38.089 0,-17.723 -9.58,-34.254 -28.99,-34.254 z m 201.46,94.616 -35.21,0 -27.07,-84.796 -0.48,0 -28.02,84.796 -36.46,0 43.64,-116.175 c 3.84,-9.863 0,-22.078 -11.74,-23.273 -6.71,-0.243 -13.41,0.714 -19.88,1.195 l 0,-28.027 c 6.95,-0.719 13.9,-1.2 20.84,-1.2 23.48,0 35.22,8.149 42.64,28.032 l 51.74,139.448"
         style="fill:#4d4d4d;fill-opacity:1;fill-rule:evenodd;stroke:none"
         id="path3028"
         inkscape:connector-curvature="0" /><path
         d="m 1955.42,1572.33 c -7.97,26.76 -21.41,47.03 -40.32,61.1 -18.8,13.93 -42.56,20.9 -71.18,20.9 -24.89,0 -47.04,-7.59 -66.7,-22.64 -19.79,-15.06 -32.98,-34.85 -39.82,-59.36 l 218.02,0 z m -221.26,-74.04 c 3.11,-28.87 14.69,-51.77 34.47,-68.32 19.79,-16.67 45.42,-25.01 76.78,-25.01 20.79,0 39.57,4.35 56.25,13.06 16.68,8.84 29.86,21.03 39.57,36.84 l 100.67,0 c -17.04,-43.68 -42.43,-77.65 -76.4,-101.92 -33.86,-24.14 -73.05,-36.21 -117.6,-36.21 -29.86,0 -57.36,5.23 -82.5,15.81 -25.14,10.57 -47.66,26.25 -67.7,46.91 -18.91,19.66 -33.59,42.43 -44.05,68.32 -10.45,25.88 -15.68,52.39 -15.68,79.64 0,28 4.85,54.25 14.44,78.89 9.58,24.76 23.76,46.91 42.43,66.58 20.41,21.65 43.55,38.32 69.31,49.89 25.76,11.7 52.27,17.55 79.77,17.55 34.72,0 67.19,-7.84 97.31,-23.64 30.11,-15.8 55.75,-38.08 76.9,-66.7 12.94,-17.3 22.41,-36.59 28.62,-57.99 6.23,-21.4 9.34,-45.92 9.34,-73.67 0,-2.11 -0.13,-5.47 -0.38,-9.95 -0.25,-4.61 -0.37,-7.84 -0.37,-10.08 l -321.18,0 z m 554.13,-170.98 -73.29,0 -152.32,401.07 99.43,0 93.33,-266.56 96.31,266.56 96.94,0 -160.4,-401.07 z m 260.33,203.08 c 0,-37.2 10.2,-66.7 30.61,-88.48 20.41,-21.77 48.16,-32.6 83.13,-32.6 34.59,0 62.09,11.08 82.62,33.35 20.54,22.28 30.86,52.27 30.86,89.85 0,33.85 -10.7,61.6 -32.23,83.37 -21.52,21.78 -48.65,32.6 -81.25,32.6 -33.48,0 -60.86,-10.94 -82.01,-32.97 -21.15,-22.03 -31.73,-50.4 -31.73,-85.12 z m -96.19,-0.74 c 0,28.12 5.22,55 15.55,80.39 10.33,25.38 25.26,47.91 44.92,67.57 20.16,20.16 42.94,35.71 68.2,46.53 25.26,10.83 51.51,16.18 78.77,16.18 28.86,0 55.62,-4.85 80.01,-14.43 24.39,-9.59 46.91,-24.02 67.32,-43.18 20.91,-20.16 37.09,-43.43 48.41,-69.82 11.44,-26.37 17.17,-53.38 17.17,-81.13 0,-30.61 -4.98,-58.49 -14.93,-83.75 -9.96,-25.38 -24.89,-48.15 -44.8,-68.56 -20.03,-20.66 -42.68,-36.34 -68.19,-46.91 -25.51,-10.58 -53.26,-15.81 -83.13,-15.81 -30.23,0 -57.61,5.35 -82.37,16.06 -24.9,10.7 -47.41,26.75 -67.82,48.15 -19.54,20.91 -34.23,43.93 -44.18,69.06 -9.95,25.14 -14.93,51.64 -14.93,79.65 z m 479.34,-202.34 0,530.85 91.09,0 0,-530.85 -91.09,0 z m 245.39,203.83 c 0,-33.72 11.2,-61.97 33.73,-84.74 22.4,-22.78 49.77,-34.1 82.12,-34.1 29.37,0 55.25,11.45 77.65,34.22 22.28,22.9 33.48,49.65 33.48,80.27 0,32.6 -11.2,60.6 -33.73,83.99 -22.39,23.52 -48.78,35.22 -78.89,35.22 -31.48,0 -58.49,-11.08 -80.89,-33.35 -22.27,-22.27 -33.47,-49.41 -33.47,-81.51 z m 237.55,-203.83 0,49.28 c -11.19,-19.91 -26.87,-34.72 -47.16,-44.18 -20.28,-9.46 -46.29,-14.18 -77.9,-14.18 -59.23,0 -108.76,20.28 -148.45,60.72 -39.7,40.44 -59.61,90.71 -59.61,150.7 0,28.24 4.98,55 14.93,80.26 9.96,25.26 24.14,47.54 42.69,66.7 19.91,21.16 42.06,36.71 66.32,46.79 24.27,10.08 51.65,15.18 82.01,15.18 29.12,0 54.25,-4.85 75.28,-14.56 21.03,-9.71 37.96,-24.39 50.78,-44.18 l 0,48.54 91.21,0 0,-401.07 -90.1,0 z m 260.95,198.73 c 0,-32.61 10.83,-60.23 32.48,-82.75 21.66,-22.65 47.79,-33.98 78.4,-33.98 34.71,0 63.59,11.2 86.48,33.73 22.77,22.52 34.22,50.64 34.22,84.49 0,32.23 -11.32,60.11 -34.1,83.5 -22.76,23.27 -50.14,34.97 -82.25,34.97 -32.6,0 -59.85,-11.45 -82,-34.47 -22.15,-23.03 -33.23,-51.52 -33.23,-85.49 z m -3.61,170.23 c 17.3,14.31 35.97,24.89 56.13,31.48 20.16,6.72 43.3,10.09 69.31,10.09 26.75,0 51.89,-4.48 75.41,-13.45 23.64,-9.08 44.55,-22.15 62.72,-39.44 21.65,-19.91 38.32,-43.43 50.15,-70.56 11.82,-27.13 17.66,-55.62 17.66,-85.49 0,-32.11 -6.47,-62.35 -19.53,-90.97 -12.94,-28.49 -31.49,-53.25 -55.5,-74.16 -17.8,-15.31 -37.83,-27 -60.23,-34.97 -22.4,-8.09 -46.17,-12.07 -71.43,-12.07 -23.76,0 -45.92,3.61 -66.33,10.7 -20.4,7.22 -39.94,18.05 -58.36,32.73 l 0,-32.85 -91.83,0 0,530.85 91.83,0 0,-161.89 z m 689.4,-123.94 c -7.97,26.76 -21.41,47.03 -40.32,61.1 -18.79,13.93 -42.56,20.9 -71.18,20.9 -24.89,0 -47.04,-7.59 -66.7,-22.64 -19.79,-15.06 -32.98,-34.85 -39.82,-59.36 l 218.02,0 z m -221.25,-74.04 c 3.1,-28.87 14.68,-51.77 34.46,-68.32 19.79,-16.67 45.42,-25.01 76.78,-25.01 20.79,0 39.57,4.35 56.25,13.06 16.67,8.84 29.86,21.03 39.57,36.84 l 100.67,0 c -17.05,-43.68 -42.43,-77.65 -76.41,-101.92 -33.84,-24.14 -73.04,-36.21 -117.59,-36.21 -29.87,0 -57.37,5.23 -82.5,15.81 -25.14,10.57 -47.66,26.25 -67.7,46.91 -18.91,19.66 -33.6,42.43 -44.05,68.32 -10.45,25.88 -15.68,52.39 -15.68,79.64 0,28 4.86,54.25 14.43,78.89 9.59,24.76 23.77,46.91 42.44,66.58 20.41,21.65 43.56,38.32 69.31,49.89 25.77,11.7 52.27,17.55 79.77,17.55 34.71,0 67.19,-7.84 97.31,-23.64 30.11,-15.8 55.75,-38.08 76.9,-66.7 12.95,-17.3 22.4,-36.59 28.62,-57.99 6.22,-21.4 9.34,-45.92 9.34,-73.67 0,-2.11 -0.13,-5.47 -0.38,-9.95 -0.25,-4.61 -0.37,-7.84 -0.37,-10.08 l -321.17,0 z m 380.28,-170.98 0,530.85 91.09,0 0,-530.85 -91.09,0"
         style="fill:#000000;fill-opacity:1;fill-rule:evenodd;stroke:none"
         id="path3030"
         inkscape:connector-curvature="0" /><path
         d="m 5493.75,1018.79 12.63,0 0,46.8 17.2,0 0,10.62 -47.04,0 0,-10.62 17.21,0 0,-46.8 z m 36.43,0 11.82,0 0,40.29 0.16,0 14.07,-40.29 9.73,0 14.08,40.69 0.16,0 0,-40.69 11.82,0 0,57.42 -17.77,0 -12.71,-39.49 -0.16,0 -13.43,39.49 -17.77,0 0,-57.42"
         style="fill:#4d4d4d;fill-opacity:1;fill-rule:evenodd;stroke:none"
         id="path3032"
         inkscape:connector-curvature="0" /><g
         transform="scale(1,-1)"
         style="font-style:normal;font-weight:normal;font-size:176.88528442px;line-height:125%;font-family:Sans;letter-spacing:0px;word-spacing:0px;fill:#000000;fill-opacity:1;stroke:none;stroke-width:1px;stroke-linecap:butt;stroke-linejoin:miter;stroke-opacity:1"
         id="text4144"><path
           d="m 4736.1453,-1929.4289 q -11.3145,0 -21.0742,4.0593 -9.7598,4.0594 -17.8786,12.1782 -8.1187,8.1187 -12.2645,18.0513 -4.1457,9.8461 -4.1457,21.0742 0,11.1417 4.1457,20.9878 4.1458,9.7598 12.2645,17.8786 8.1188,8.1187 17.8786,12.2645 9.7597,4.0594 21.0742,4.0594 11.4008,0 21.1606,-4.0594 9.8461,-4.1458 17.9649,-12.2645 8.0324,-8.0324 12.0054,-17.7922 4.0594,-9.7598 4.0594,-21.0742 0,-11.4872 -4.0594,-21.247 -4.0594,-9.8461 -12.0054,-17.8785 -8.1188,-8.1188 -17.9649,-12.1782 -9.7598,-4.0593 -21.1606,-4.0593 z m 0,-8.8961 q 13.1282,0 24.4426,4.7503 11.4008,4.7504 20.8151,14.1647 9.4143,9.4143 14.0783,20.7287 4.664,11.3144 4.664,24.6154 0,13.1282 -4.664,24.4426 -4.664,11.2281 -14.0783,20.6424 -9.4143,9.4143 -20.8151,14.1646 -11.3144,4.7504 -24.4426,4.7504 -13.1282,0 -24.529,-4.7504 -11.3145,-4.7503 -20.7288,-14.1646 -9.4143,-9.4143 -14.0783,-20.6424 -4.6639,-11.3144 -4.6639,-24.4426 0,-13.301 4.6639,-24.6154 4.664,-11.3144 14.0783,-20.7287 9.4143,-9.4143 20.7288,-14.1647 11.4008,-4.7503 24.529,-4.7503 z m -2.332,35.7571 -10.6235,0 0,23.838 10.6235,0 q 9.5007,0 13.2146,-2.6774 3.8002,-2.6775 3.8002,-9.1552 0,-6.5641 -3.8002,-9.2416 -3.8003,-2.7638 -13.2146,-2.7638 z m 0.6046,-8.8961 q 15.2011,0 22.7152,5.1822 7.5142,5.0958 7.5142,15.5465 0,7.4278 -4.5776,12.2645 -4.4912,4.8367 -12.7827,6.305 2.0729,0.691 4.9231,4.0594 2.9365,3.282 6.9095,9.587 l 11.8327,19.2605 -14.8556,0 -11.1417,-18.0513 q -5.0958,-8.2915 -8.2915,-10.4507 -3.1093,-2.2456 -7.7733,-2.2456 l -5.7004,0 0,30.7476 -13.3873,0 0,-72.2051 24.6154,0 z"
           style="fill:#4d4d4d;fill-opacity:1"
           id="path4170"
           inkscape:connector-curvature="0" /></g></g></g></svg>