<svg width="598" height="138" viewBox="0 0 598 138" fill="none" xmlns="http://www.w3.org/2000/svg">
<g clip-path="url(#clip0_373_2158)">
<path d="M281.79 62.26C291.51 62.26 301.9 66.95 301.9 66.95L308.9 49.19C308.9 49.19 299.18 41.48 279.07 41.48C244.55 41.48 233.82 68.29 233.48 87.74V90.42C233.82 109.86 244.21 136.67 279.07 136.67C299.18 136.67 308.9 128.96 308.9 128.96L301.9 111.2C301.9 111.2 291.51 115.89 281.79 115.89C262.35 115.89 259.33 100.47 259 88.74C258.66 77.68 263.36 62.26 281.79 62.26ZM195.59 78.44C187.08 75.75 180.26 73.6 180.26 69.3C180.26 64.3 184.62 62.3 191.66 62.3C203.72 62.3 216.12 70.01 216.12 70.01L224.84 50.23C214.933 44.5786 203.735 41.5786 192.33 41.52C169.87 41.52 154.78 53.25 155.12 71.35C155.12 90.35 172.96 95.16 186.87 98.9C195.76 101.3 203.05 103.25 203.05 108.22C203.05 112.58 199.05 115.93 190.65 115.93C175.23 115.93 163.5 106.55 163.5 106.55L155.5 127.33C155.5 127.33 167.56 137.33 189.68 137.33C210.8 137.33 228.57 128.62 228.57 108.17C228.32 88.77 209.65 82.87 195.59 78.44V78.44ZM115.27 41.44C103.87 41.44 94.15 49.15 88.45 54.51V42.49H63.31V135.33H88.45V75.33C88.79 74.66 96.83 62.6 108.23 62.6C113.59 62.6 119.63 66 120 81V135.3H145.1V80.3C145.1 49.19 130.69 41.48 115.27 41.48V41.44ZM0 42.49V62.93H23.8V135.33H48.94V42.49H0ZM36.37 0C33.1739 0 30.0495 0.947767 27.392 2.72345C24.7345 4.49913 22.6632 7.02298 21.4401 9.97584C20.217 12.9287 19.897 16.1779 20.5205 19.3127C21.144 22.4474 22.6831 25.3268 24.9432 27.5868C27.2032 29.8469 30.0826 31.386 33.2173 32.0095C36.3521 32.633 39.6013 32.313 42.5542 31.0899C45.507 29.8668 48.0309 27.7955 49.8065 25.138C51.5822 22.4805 52.53 19.3561 52.53 16.16C52.53 14.0378 52.112 11.9365 51.2999 9.97584C50.4878 8.01521 49.2974 6.23375 47.7968 4.73315C46.2962 3.23256 44.5148 2.04222 42.5542 1.23011C40.5935 0.417991 38.4922 0 36.37 0V0ZM397.64 0C394.444 0 391.319 0.947767 388.662 2.72345C386.004 4.49913 383.933 7.02298 382.71 9.97584C381.487 12.9287 381.167 16.1779 381.79 19.3127C382.414 22.4474 383.953 25.3268 386.213 27.5868C388.473 29.8469 391.353 31.386 394.487 32.0095C397.622 32.633 400.871 32.313 403.824 31.0899C406.777 29.8668 409.301 27.7955 411.077 25.138C412.852 22.4805 413.8 19.3561 413.8 16.16C413.8 11.8741 412.097 7.76374 409.067 4.73315C406.036 1.70257 401.926 0 397.64 0V0ZM597.89 97.79C597.89 97.79 601.58 41.14 558 41.14C527.49 41.14 517.44 70.64 517.77 90.08C518.1 109.52 527.49 136.34 564.03 136.34C574.449 136.208 584.682 133.563 593.86 128.63L586.86 110.86C586.86 110.86 576.47 115.56 566.75 115.56C543.29 115.56 543.96 97.79 543.96 97.79H597.89ZM543.26 80C543.26 80 544.26 62.23 558.34 62.23C572.42 62.23 572.42 80 572.42 80H543.26ZM473.52 41.14C460.45 41.14 451.4 49.86 449.72 51.54V13.66H424.59V135.33H449.72V127C452.07 130 459.11 136.72 471.51 136.72C488.61 136.72 508.72 124.32 509.05 88.12C509.39 72.03 505.05 59.29 496.65 50.91C490.529 44.7328 482.216 41.2217 473.52 41.14V41.14ZM465.52 115.56C462.562 115.552 459.645 114.866 456.993 113.556C454.34 112.245 452.024 110.345 450.22 108L450.12 107.87V107.53L450.39 71L450.73 70.66L450.83 70.55C451.83 69.55 458.54 62.26 466.48 61.95C470.426 62.0851 474.159 63.7703 476.87 66.64C481.57 71.33 483.87 79.04 483.87 88.76C483.58 101.14 478.89 115.56 465.48 115.56H465.52ZM385.11 135.33H410.25V42.48H385.07L385.11 135.33ZM344.5 52.54V42.48H319.36V135.33H344.5V82.71C344.5 75 350.5 63.94 366.29 63.94C368.538 63.9706 370.78 64.1948 372.99 64.61V41.48C372.99 41.48 369.99 41.14 366.99 41.14C355.23 41.48 348.52 47.18 344.5 52.54Z" fill="#101E2E"/>
</g>
<defs>
<clipPath id="clip0_373_2158">
<rect width="597.97" height="137.34" fill="white"/>
</clipPath>
</defs>
</svg>
