<?xml version="1.0" encoding="UTF-8" standalone="no"?>
<svg
   height="200"
   viewBox="0 0 200 200.00001"
   width="200"
   version="1.1"
   id="svg60"
   sodipodi:docname="jetbrains.svg"
   inkscape:version="1.1.2 (0a00cf5339, 2022-02-04)"
   xmlns:inkscape="http://www.inkscape.org/namespaces/inkscape"
   xmlns:sodipodi="http://sodipodi.sourceforge.net/DTD/sodipodi-0.dtd"
   xmlns="http://www.w3.org/2000/svg"
   xmlns:svg="http://www.w3.org/2000/svg">
  <defs
     id="defs64" />
  <sodipodi:namedview
     id="namedview62"
     pagecolor="#ffffff"
     bordercolor="#666666"
     borderopacity="1.0"
     inkscape:pageshadow="2"
     inkscape:pageopacity="0.0"
     inkscape:pagecheckerboard="0"
     showgrid="false"
     inkscape:zoom="1.0347222"
     inkscape:cx="85.04698"
     inkscape:cy="174.44295"
     inkscape:window-width="1920"
     inkscape:window-height="1016"
     inkscape:window-x="1920"
     inkscape:window-y="27"
     inkscape:window-maximized="1"
     inkscape:current-layer="svg60"
     fit-margin-top="0"
     fit-margin-left="0"
     fit-margin-right="0"
     fit-margin-bottom="0" />
  <linearGradient
     id="a"
     gradientUnits="userSpaceOnUse"
     x1="32.639999"
     x2="82.769997"
     y1="61.16"
     y2="85.540001">
    <stop
       offset=".21"
       stop-color="#fe2857"
       id="stop2" />
    <stop
       offset="1"
       stop-color="#293896"
       id="stop4" />
  </linearGradient>
  <linearGradient
     id="b"
     gradientUnits="userSpaceOnUse"
     x1="17.379999"
     x2="82.949997"
     y1="69.860001"
     y2="21.23">
    <stop
       offset="0"
       stop-color="#fe2857"
       id="stop7" />
    <stop
       offset=".01"
       stop-color="#fe2857"
       id="stop9" />
    <stop
       offset=".86"
       stop-color="#ff318c"
       id="stop11" />
  </linearGradient>
  <linearGradient
     id="c"
     gradientUnits="userSpaceOnUse"
     x1="74.169998"
     x2="160.27"
     y1="21.58"
     y2="99.760002">
    <stop
       offset=".02"
       stop-color="#ff318c"
       id="stop14" />
    <stop
       offset=".21"
       stop-color="#fe2857"
       id="stop16" />
    <stop
       offset=".86"
       stop-color="#fdb60d"
       id="stop18" />
  </linearGradient>
  <linearGradient
     id="d"
     gradientUnits="userSpaceOnUse"
     x1="155.46001"
     x2="55.07"
     y1="89.800003"
     y2="158.89999">
    <stop
       offset=".01"
       stop-color="#fdb60d"
       id="stop21" />
    <stop
       offset=".86"
       stop-color="#fcf84a"
       id="stop23" />
  </linearGradient>
  <g
     id="g897"
     transform="matrix(1.2720911,0,0,1.2720911,-15.177485,-14.467391)">
    <path
       d="m 81.56,83.71 -41.35,-35 a 15,15 0 1 0 -14.47,25.7 h 0.15 l 0.39,0.12 52.16,15.89 a 3.53,3.53 0 0 0 1.18,0.21 3.73,3.73 0 0 0 1.93,-6.91 z"
       fill="url(#a)"
       id="path26"
       style="fill:url(#a)" />
    <path
       d="M 89.85,25.93 A 10.89,10.89 0 0 0 73,16.75 L 22.5,47.41 a 15,15 0 1 0 17.9,24 l 45.27,-36.89 0.36,-0.3 a 10.93,10.93 0 0 0 3.82,-8.29 z"
       fill="url(#b)"
       id="path28"
       style="fill:url(#b)" />
    <path
       d="M 163.29,92 86.67,18.21 a 10.91,10.91 0 1 0 -14.81,16 l 0.14,0.12 81.4,68.58 a 7.36,7.36 0 0 0 12.09,-5.65 7.39,7.39 0 0 0 -2.2,-5.26 z"
       fill="url(#c)"
       id="path30"
       style="fill:url(#c)" />
    <path
       d="m 165.5,97.29 a 7.35,7.35 0 0 0 -11.67,-6 l -92.71,45.3 a 15,15 0 1 0 15.48,25.59 l 85.73,-58.84 a 7.35,7.35 0 0 0 3.17,-6.05 z"
       fill="url(#d)"
       id="path32"
       style="fill:url(#d)" />
    <path
       d="m 60,60 h 60 v 60 H 60 Z"
       id="path34" />
    <g
       fill="#ffffff"
       id="g56">
      <path
         d="m 66.53,108.75 h 22.5 v 3.75 h -22.5 z"
         id="path36" />
      <path
         d="m 65.59,75.47 1.67,-1.58 a 1.88,1.88 0 0 0 1.47,0.87 c 0.64,0 1.06,-0.45 1.06,-1.32 v -5.92 h 2.58 v 5.94 a 3.44,3.44 0 0 1 -0.92,2.63 3.52,3.52 0 0 1 -2.57,1 3.84,3.84 0 0 1 -3.29,-1.62 z"
         id="path38" />
      <path
         d="m 73.53,67.52 h 7.53 v 2.19 h -5 v 1.43 h 4.49 v 2 H 76.1 v 1.49 h 5 v 2.2 h -7.6 z"
         id="path40" />
      <path
         d="m 84.73,69.79 h -2.8 v -2.27 h 8.21 v 2.27 h -2.81 v 7.09 h -2.6 z"
         id="path42" />
      <path
         d="m 66.63,80.58 h 4.42 a 3.47,3.47 0 0 1 2.55,0.83 2.09,2.09 0 0 1 0.61,1.52 2.18,2.18 0 0 1 -1.45,2.09 2.27,2.27 0 0 1 1.86,2.29 C 74.62,89 73.31,90 71.07,90 h -4.44 z m 5,2.89 c 0,-0.52 -0.42,-0.8 -1.18,-0.8 h -1.29 v 1.64 h 1.25 c 0.78,0 1.24,-0.27 1.24,-0.81 z m -0.9,2.66 h -1.57 v 1.73 h 1.62 c 0.8,0 1.24,-0.31 1.24,-0.86 -0.02,-0.53 -0.4,-0.87 -1.27,-0.87 z"
         id="path44" />
      <path
         d="m 75.45,80.58 h 4.15 a 4.14,4.14 0 0 1 3.05,1 2.92,2.92 0 0 1 0.83,2.18 3,3 0 0 1 -1.93,2.89 L 83.79,90 h -3 L 78.9,87.16 H 78.03 V 90 h -2.6 z m 4,4.5 c 0.87,0 1.4,-0.43 1.4,-1.12 0,-0.75 -0.55,-1.13 -1.41,-1.13 h -1.39 v 2.27 z"
         id="path46" />
      <path
         d="m 87.09,80.51 h 2.5 l 4,9.44 H 90.8 L 90.13,88.26 H 86.5 L 85.83,90 h -2.71 z m 2.28,5.73 -1.05,-2.65 -1.06,2.65 z"
         id="path48" />
      <path
         d="m 94,80.55 h 2.6 v 9.37 H 94 Z"
         id="path50" />
      <path
         d="M 97.56,80.55 H 100 l 3.37,5 v -5 h 2.57 v 9.37 h -2.27 l -3.53,-5.14 v 5.14 h -2.58 z"
         id="path52" />
      <path
         d="m 106.37,88.53 1.44,-1.73 a 4.86,4.86 0 0 0 3,1.13 c 0.71,0 1.08,-0.25 1.08,-0.65 0,-0.41 -0.3,-0.61 -1.59,-0.91 -2,-0.46 -3.53,-1 -3.53,-2.93 0,-1.74 1.38,-3 3.63,-3 a 5.88,5.88 0 0 1 3.85,1.25 L 113,83.47 a 4.56,4.56 0 0 0 -2.62,-0.92 c -0.63,0 -0.94,0.25 -0.94,0.6 0,0.43 0.32,0.62 1.63,0.91 2.15,0.47 3.48,1.17 3.48,2.92 0,1.91 -1.51,3 -3.78,3 a 6.56,6.56 0 0 1 -4.4,-1.45 z"
         id="path54" />
    </g>
  </g>
  <path
     d="M -15.583508,25.844653 H 164.41649 V 205.84466 H -15.583508 Z"
     fill="none"
     id="path58" />
</svg>
