<?xml version="1.0" encoding="UTF-8" standalone="no"?>
<svg
   version="1.1"
   id="Layer_1"
   x="0px"
   y="0px"
   width="2125"
   viewBox="0 0 2125 1470"
   enable-background="new 0 0 2125 1470"
   xml:space="preserve"
   sodipodi:docname="KrakenV2_stacked_Dark_adobe_express.svg"
   height="1470"
   inkscape:version="1.2.1 (9c6d41e, 2022-07-14)"
   xmlns:inkscape="http://www.inkscape.org/namespaces/inkscape"
   xmlns:sodipodi="http://sodipodi.sourceforge.net/DTD/sodipodi-0.dtd"
   xmlns="http://www.w3.org/2000/svg"
   xmlns:svg="http://www.w3.org/2000/svg"><defs
   id="defs500" /><sodipodi:namedview
   id="namedview498"
   pagecolor="#ffffff"
   bordercolor="#000000"
   borderopacity="0.25"
   inkscape:showpageshadow="2"
   inkscape:pageopacity="0.0"
   inkscape:pagecheckerboard="0"
   inkscape:deskcolor="#d1d1d1"
   showgrid="false"
   inkscape:zoom="0.16054422"
   inkscape:cx="1068.2415"
   inkscape:cy="735"
   inkscape:window-width="1440"
   inkscape:window-height="876"
   inkscape:window-x="0"
   inkscape:window-y="24"
   inkscape:window-maximized="0"
   inkscape:current-layer="Layer_1" />
<path
   fill="#180048"
   opacity="1"
   stroke="none"
   d="m 1328,1470 c -443,0 -885.5,0 -1328,0 C 0,980 0,490 0,0 c 708.33331,0 1416.6666,0 2125,0 0,490 0,980 0,1470 -265.5,0 -531,0 -797,0 M 1194.8455,228.71533 c -3.2923,1.49561 -6.5845,2.99121 -10.5544,4.19994 -64.0725,-25.79097 -130.1522,-32.48535 -197.8868,-19.33116 -81.79114,15.884 -150.08026,55.82229 -202.67615,120.36676 -72.44116,88.89813 -95.55963,190.461 -70.99439,302.2218 14.66797,66.7323 48.16651,123.50812 97.03248,171.29736 18.41754,18.01172 38.96307,33.26685 60.36956,47.33154 10.34326,6.79578 21.76441,11.98731 32.8421,17.62098 18.8252,9.57367 38.72181,16.42932 59.16724,21.41845 15.06055,3.67499 30.36579,6.49555 45.68626,8.90729 11.134,1.75275 22.4673,3.00757 33.7184,3.06097 15.502,0.0737 31.0584,-0.66131 46.5002,-2.05804 12.2895,-1.11157 24.5186,-3.34943 36.6414,-5.75696 36.8878,-7.32586 71.3771,-20.94549 103.856,-39.91034 36.7962,-21.48571 68.4525,-48.95154 95.3553,-81.82452 20.6864,-25.27698 37.2422,-53.15472 50.0933,-83.2489 17.8287,-41.75061 26.9449,-85.40735 27.5923,-130.63941 0.2616,-18.27996 -1.2406,-36.75329 -3.866,-54.85934 -2.6521,-18.29041 -7.5662,-36.26349 -11.7511,-54.31494 -1.3831,-5.96567 -3.5796,-11.7428 -4.9933,-16.28586 9.2495,-5.12625 18.0555,-9.23975 26.0482,-14.57236 30.6309,-20.43658 40.0917,-51.0708 39.6328,-85.83475 -0.1358,-10.29205 -1.7157,-20.69442 -3.8014,-30.80542 -4.9084,-23.79519 -17.0914,-43.83929 -34.066,-60.92439 -11.5217,-11.59651 -25.37,-19.95492 -40.2842,-26.54152 -20.3441,-8.98462 -41.6631,-14.5323 -63.7832,-16.05136 -23.7453,-1.63067 -47.1731,0.96027 -70.5399,8.69322 -0.7578,0.34381 -1.5155,0.68761 -2.6495,1.22185 0,0 -0.4143,0.0782 -1.168,-0.10597 -1.9257,0.64267 -3.8513,1.28535 -5.777,1.92802 0.2545,-0.45637 0.5091,-0.91275 0.7636,-1.36912 -2.47,-2.46279 -4.94,-4.92557 -7.4096,-8.17337 -1.6238,-3.59181 -3.3022,-3.30698 -5.8238,-0.0441 -4.4031,1.54628 -8.8062,3.09255 -14.0103,4.6572 -1.5869,0.84491 -3.6826,1.34686 -4.5699,2.66327 -0.5325,0.78996 0.8215,2.85155 1.3738,5.19743 0.036,1.71389 0.072,3.42775 -0.4133,5.68859 0.2587,1.87433 0.5175,3.74864 0.3453,6.17718 M 322.04495,1100.7572 c -0.21762,-0.5686 -0.43524,-1.1373 -0.84958,-2.631 0,-18.3948 0,-36.7895 0,-55.0182 -18.5401,0 -36.2911,0 -54.04614,0 0,54.1253 0,107.9716 0,161.8459 18.07059,0 35.82068,0 54.02142,0 0,-10.321 -0.0411,-20.4316 0.0427,-30.5411 0.0131,-1.5814 0.11224,-3.529 0.99426,-4.6732 4.0213,-5.2164 8.33627,-10.2064 12.85761,-15.6537 1.27328,2.028 2.2297,3.5326 3.16781,5.0485 8.832,14.272 17.61261,28.5763 26.56531,42.772 0.8977,1.4233 2.82974,3.1159 4.29001,3.1236 20.63632,0.1094 41.27405,-0.051 62.82513,0.079 17.90094,0 35.80191,0 54.13977,0 0,-15.7865 0,-30.8517 0,-45.4884 8.28842,-2.6128 12.75879,0.8079 16.75501,7.5914 6.99704,11.8777 15.14227,23.0744 22.59869,34.6897 1.65772,2.5822 3.44464,3.3505 6.42438,3.3407 33.81677,-0.1117 67.63409,-0.068 101.45123,-0.08 1.46088,-5e-4 2.92169,-0.1415 4.2865,-0.212 2.37848,-6.2165 4.44946,-12.1969 7.01727,-17.9559 0.6745,-1.5127 2.87445,-3.3095 4.39734,-3.3313 16.65827,-0.2378 33.32215,-0.2251 49.98127,-0.018 1.48077,0.018 3.60992,1.5511 4.28411,2.9403 2.22211,4.5789 4.26361,9.3123 5.69367,14.1864 1.05987,3.6123 2.88086,4.4848 6.40887,4.4723 33.8144,-0.1207 67.6294,-0.069 101.44422,-0.082 1.44555,-6e-4 2.89105,-0.148 4.71704,-0.2478 0,-9.4376 0.39105,-18.5965 -0.10034,-27.7078 -0.59473,-11.0268 9.03955,-15.0096 13.49511,-23.3181 10.43232,16.8632 20.2508,32.4431 29.6883,48.2505 1.75555,2.9405 3.74639,3.055 6.44146,3.0539 65.14594,-0.026 130.29192,-0.021 195.43782,-0.021 1.4439,0 2.8877,-10e-5 4.4596,-10e-5 0,-15.0992 0,-29.6844 0,-44.8257 -28.6147,0 -56.9977,0 -85.45778,0 0,-5.9641 0,-11.3677 0,-17.1515 23.55348,0 46.80618,0 70.26638,0 0,-13.2777 0,-26.1703 0,-39.6206 -23.6304,0 -47.006,0 -70.17831,0 0,-5.6318 0,-10.6976 0,-16.1406 28.32081,0 56.25111,0 84.39171,0 0,-14.9839 0,-29.5663 0,-44.6418 -46.1494,0 -92.08555,0 -138.32152,-0.3526 -0.52191,0.1154 -1.04388,0.2306 -2.51104,0.3848 -19.32495,0 -38.65009,-0.024 -57.97473,0.053 -1.6626,0.01 -4.06592,0.1154 -4.87116,1.1515 -10.83777,13.9442 -21.44324,28.069 -32.12793,42.1325 -3.82605,5.0362 -7.71008,10.0282 -11.56763,15.0404 -0.36633,-0.1461 -0.73266,-0.2924 -1.099,-0.4385 0,-19.2072 0,-38.4142 0,-57.6985 -18.3117,0 -36.07604,0 -54.41076,0 0,50.6981 0,101.1642 0,151.6304 -0.44745,0.1075 -0.89496,0.2152 -1.34241,0.3229 -21.3468,-50.9795 -42.6936,-101.9589 -64.14496,-153.188 -17.18652,0 -34.33203,-0.091 -51.47217,0.1692 -1.40612,0.021 -3.39642,2.174 -4.07183,3.7762 -16.82911,39.9232 -33.51093,79.9086 -50.23603,119.8756 -4.04876,9.6752 -8.15838,19.3248 -12.56488,29.755 -10.60742,-15.4914 -20.6903,-30.2169 -30.92779,-45.1681 2.58972,-1.5575 4.72638,-2.7944 6.81591,-4.1064 28.48749,-17.8862 33.95215,-59.4415 10.87342,-83.8635 -11.07922,-11.7242 -25.5119,-17.5025 -41.06128,-18.0542 -32.59558,-1.1567 -65.24216,-0.8775 -98.37885,-1.2095 -0.17041,-0.01 -0.34082,-0.013 -1.44787,-0.1431 -19.47888,-0.01 -38.95856,-0.1008 -58.43534,0.095 -1.9194,0.019 -4.42108,1.3151 -5.63171,2.8328 -6.8436,8.5793 -13.32938,17.4427 -20.02618,26.1408 -7.58512,9.8517 -15.26438,19.631 -22.97608,28.8278 m 867.44182,-0.2731 c 0,3.8784 0,7.7569 0,11.6353 -0.4215,0.1224 -0.8431,0.2449 -1.2646,0.3673 -3.4313,-4.1052 -6.9251,-8.1603 -10.2832,-12.3245 -14.7449,-18.2843 -29.4062,-36.6366 -44.26,-54.8318 -1.1153,-1.3659 -3.4954,-2.3714 -5.3023,-2.3949 -14.6583,-0.191 -29.3203,-0.1147 -43.9811,-0.091 -1.0846,0 -2.1689,0.2246 -3.1728,0.3357 0,54.1065 0,107.8572 0,161.7579 17.9503,0 35.6742,0 53.9405,0 0,-24.3708 0,-48.5133 0,-73.6602 5.5607,7.1034 10.3651,13.3612 15.297,19.5172 12.3942,15.4706 24.7693,30.9579 37.3393,46.2848 2.4985,3.0465 5.7212,7.5638 8.7992,7.722 15.4335,0.7935 30.9301,0.3635 46.6226,0.3635 0,-54.2396 0,-108.1278 0,-161.9648 -18.0088,0 -35.7232,0 -53.7346,0 0,19.0105 0,37.6508 0,57.2839 m 238.9761,50.0158 c 0,18.105 0,36.2101 0,54.3045 39.8636,0 79.0759,0 118.2883,0 0,-5.6325 0,-10.8962 0,-16.6982 -33.2916,0 -66.3357,0 -99.5097,0 0,-18.9584 0,-37.3723 0,-56.3623 29.4296,0 58.628,0 88.0371,0 0,-5.8468 0,-11.1163 0,-16.9578 -29.4724,0 -58.6925,0 -87.919,0 0,-18.6314 0,-36.6881 0,-55.094 32.9544,0 65.5548,0 98.3487,0 0,-5.7453 0,-11.1355 0,-16.476 -39.1603,0 -78.0234,0 -117.245,0 0,35.6849 0,70.9842 -4e-4,107.2838 M 1802.5,1132.1707 c 18.4209,0 36.8418,0 55.6167,0 0,24.6635 0,48.6013 0,72.6701 6.2444,0 12.1223,0 18.1428,0 0,-54.0803 0,-107.8305 0,-161.6789 -6.1733,0 -12.0639,0 -18.5139,0 0,24.0373 0,47.7467 0,71.4111 -31.1627,0 -61.7609,0 -92.9988,0 0,-23.9512 0,-47.6552 0,-71.1877 -6.5516,0 -12.4551,0 -18.333,0 0,54.3065 0,108.2231 0,162.6189 4.5368,0 8.8468,-0.2549 13.1123,0.073 4.1771,0.3207 5.4408,-1.1507 5.404,-5.3301 -0.1851,-20.9921 -0.085,-41.9867 -0.085,-62.9803 0,-1.7529 10e-5,-3.5058 10e-5,-5.5957 12.7148,0 24.6847,0 37.6547,0 m -115.4655,46.3483 c -14.429,10.1437 -30.2172,14.5575 -47.841,11.5179 -21.6321,-3.7307 -36.9586,-15.856 -46.1283,-35.49 -5.9491,-12.7379 -8.2975,-26.2022 -6.1563,-40.4424 3.1798,-21.1473 12.8703,-37.916 31.4916,-48.8733 8.636,-5.0815 18.0994,-7.4108 28.2838,-7.3231 10.4011,0.089 20.6492,0.3634 29.8551,5.947 7.9629,4.8297 15.8063,9.8564 24.1206,15.0577 3.2819,-3.6517 7.4591,-8.2999 12.6733,-14.1016 -9.4495,-6.1231 -17.7211,-13.0718 -27.2056,-17.2995 -20.0684,-8.9455 -41.1016,-9.9105 -62.3714,-3.7279 -15.2114,4.4218 -27.9465,12.7579 -37.6826,25.0199 -18.0403,22.7207 -22.9159,48.7777 -16.7464,76.7731 4.1985,19.0521 14.1295,35.1145 29.8573,46.7873 13.2374,9.8246 28.3518,15.0448 45.1362,15.6906 22.1108,0.8509 41.6879,-5.2327 58.9448,-19.0576 11.2952,-9.0487 11.2808,-8.9097 1.1989,-18.8009 -2.5857,-2.5368 -4.4242,-2.7123 -7.0753,-0.1477 -3.0187,2.9201 -6.469,5.394 -10.3547,8.4705 M 1321.9968,1094.5 c 0,37.0852 0,74.1703 0,111.5032 4.6397,0 8.6593,-0.3515 12.5908,0.087 5.1993,0.5796 6.3865,-1.4248 6.3655,-6.411 -0.1874,-44.4911 -0.1091,-88.9834 -0.1091,-133.4753 0,-1.9393 10e-5,-3.8783 10e-5,-6.4028 18.4328,0 36.3035,0 53.9098,0 0,-6.0098 0,-11.4177 0,-16.7297 -42.5319,0 -84.6479,0 -127.0259,0 0,5.6644 0,11.0883 0,17.0175 18.1557,0 36.0561,0 54.2688,0 0,11.472 0,22.4416 0,34.4111 m -221.5119,214.5292 c -0.9744,-2.4992 -2.5602,-4.943 -2.7924,-7.5093 -0.448,-4.9541 -0.2764,-9.9833 -0.079,-14.9701 0.1236,-3.1278 -0.8371,-4.5312 -4.1528,-4.6451 -3.3519,-0.115 -4.4177,1.2859 -4.3546,4.3911 0.1286,6.323 -0.032,12.6533 0.178,18.9724 0.2555,7.7021 7.1599,13.3817 14.8341,13.4377 7.444,0.054 13.7984,-1.6762 18.3114,-7.904 7.622,7.6252 22.8325,10.3439 31.9055,6.004 4.5444,-2.1735 7.3063,-6.9283 6.6639,-11.6196 -0.6989,-5.1018 -4.5218,-7.0686 -8.8224,-8.1186 -3.8361,-0.9365 -7.8933,-1.0118 -11.6834,-2.0729 -1.7814,-0.4988 -3.164,-2.4214 -4.7273,-3.6989 1.8574,-1.2003 3.7473,-3.4558 5.5659,-3.3995 5.0483,0.156 10.0667,1.2738 15.8782,2.1262 3.1664,-3.0974 2.7095,-4.9237 -2.4746,-7.1218 -6.9394,-2.9428 -14.0192,-2.4108 -20.9477,-0.6733 -7.011,1.7585 -9.0702,11.8521 -3.8654,17.0024 3.7128,3.6739 8.4418,4.2865 13.2473,4.4827 3.7797,0.1547 7.3253,0.397 9.2276,4.4225 -5.1063,6.0517 -11.4089,4.3243 -17.0733,2.4954 -6.5134,-2.1032 -10.7838,-6.9419 -11.3142,-14.1904 -0.2424,-3.3134 -0.299,-6.6675 -0.082,-9.9797 0.2151,-3.2875 -1.1591,-4.4359 -4.29,-4.5272 -3.3374,-0.097 -4.22,1.6656 -4.2023,4.5246 0.029,4.6616 0.029,9.3235 -4e-4,13.9851 -0.054,8.4505 -6.5337,12.5738 -14.9494,8.5863 m -145.25547,-6.9102 c 1.49072,10.0818 6.78082,16.7797 19.64764,16.4528 6.68622,-0.1699 6.94452,-0.3289 5.49116,-7.4982 -1.95734,0 -3.93842,0.043 -5.91712,-0.01 -5.44824,-0.1401 -9.90326,-4.5853 -10.51617,-9.7806 -0.77423,-6.563 3.94519,-11.5642 9.05035,-12.1257 4.87079,-0.5357 9.84674,-0.1155 15.0061,-0.1155 0,6.3608 -0.23266,12.1819 0.10492,17.9697 0.15277,2.6188 0.87043,5.5603 2.32032,7.679 3.92431,5.7346 9.97847,3.8422 15.38097,3.8558 0,-2.6295 0,-4.9164 0,-7.4308 -1.84,0 -3.6829,0.4835 -5.0422,-0.1208 -1.753,-0.7795 -4.32944,-2.3316 -4.44192,-3.7216 -0.48835,-6.0345 -0.20948,-12.1312 -0.20948,-18.5409 3.7557,0 6.8563,0 9.7899,0 0,-2.4568 0,-4.5494 0,-7.1499 -3.3521,0 -6.4164,0 -9.53129,0 -0.15601,-3.0896 -0.28601,-5.6642 -0.40991,-8.1171 -2.94239,0 -5.35327,0 -7.73505,0 -0.56048,8.5201 -0.56048,8.5201 -9.05292,8.5201 -1.49908,0 -3.02527,0.1853 -4.49304,-0.029 -12.21966,-1.7845 -20.44482,8.9026 -19.44226,20.161 m 101.77647,26.9512 c 0,-4.6807 0,-9.3615 0,-15.1757 6.5169,5.5275 12.8332,5.9407 19.0855,3.3755 8.2853,-3.3994 12.6909,-12.9209 10.7223,-21.7733 -1.9757,-8.885 -9.8766,-14.821 -19.3056,-14.5041 -10.3521,0.3476 -17.3754,5.5617 -18.0487,15.3071 -0.8097,11.7202 -0.1915,23.539 -0.1915,36.6716 2.9651,-1.156 5.3133,-2.0715 7.738,-3.9011 m -125.29521,-47.9807 c -10.7633,0.6054 -18.39904,8.3578 -17.62237,20.0033 0.54016,8.0978 5.90197,16.4468 15.46563,17.5027 10.85206,1.1978 18.8921,-3.0538 22.33491,-12.1908 4.27203,-11.3382 -2.48743,-25.3818 -20.17817,-25.3152 m 109.27371,32.4156 c 8.2743,-7.9384 6.7234,-20.1452 1.5909,-25.521 -6.9214,-7.2496 -19.6584,-9.6821 -26.6145,-4.3004 -8.8028,6.8102 -10.612,16.126 -4.9265,27.1189 4.474,8.6505 20.5992,11.0966 29.9501,2.7025 m 288.0555,3.4927 c 2.4928,-1.6814 4.9855,-3.3628 8.8928,-5.9983 -1.1263,6.6773 -0.9769,12.3679 -3.1174,17.0005 -3.5742,7.7356 -16.2662,8.5315 -23.142,2.2029 -1.2625,-1.1621 -2.5423,-2.3054 -4.3149,-3.9109 0.2993,4.8705 1.6801,6.4117 7.1786,8.8365 11.4652,5.0559 23.6247,-0.3944 24.3578,-10.3698 0.6897,-9.3859 0.6319,-18.8898 0.047,-28.2886 -0.6019,-9.6774 -8.8044,-16.1184 -17.9107,-15.0665 -10.479,1.2104 -18.7206,10.446 -17.0049,19.8889 2.2777,12.5361 10.045,19.4142 25.0134,15.7053 m -154.4525,-11.4757 c -0.2937,-1.9231 -0.5874,-3.8462 -0.9543,-6.2494 10.4194,0 20.3575,0 30.2822,0 0.1568,-9.3018 -4.6896,-15.8229 -12.5492,-17.317 -9.447,-1.7959 -15.7284,1.5519 -19.0549,10.1556 -3.1294,8.0943 -0.1506,19.7866 6.1263,23.6573 5.767,3.5561 19.127,4.1456 24.0026,-4.9557 -1.6383,0.1129 -3.1161,0.6168 -4.2696,1.5301 -8.4714,6.7081 -19.2247,3.9353 -23.5831,-6.8209 m 90.8232,10.4338 c -9.154,0.2742 -16.7631,-8.0882 -14.5954,-17.0157 9.8942,0 19.9283,0 29.9929,0 -1.2794,-11.6559 -8.0466,-18.0164 -17.9576,-17.5455 -10.5849,0.5026 -15.7923,8.9218 -15.5827,17.8627 0.2616,11.1674 4.5796,17.5881 15.1802,18.721 8.0507,0.8602 15.1406,-2.2885 15.9622,-7.1774 -4.1166,1.7432 -8.1431,3.4481 -12.9996,5.1549 m 157.418,-3.4308 c 5.119,-3.0386 2.8045,-7.6884 2.9287,-11.8331 -9.1294,-1.3697 -10.3666,-0.9917 -10.1712,3.1511 0.7828,0.055 1.5927,0.085 2.3957,0.1762 0.9447,0.1069 1.8834,0.2668 2.7933,0.3992 -0.1021,4.8619 -3.4365,6.8905 -8.0209,5.1339 -4.1338,-1.5838 -6.3514,-6.2619 -4.926,-10.3924 1.745,-5.0565 5.074,-6.6845 10.2161,-5.2516 2.2855,0.6369 5.1206,2.5437 6.4556,-2.0491 -1.6891,-0.7865 -3.3761,-1.8138 -5.2058,-2.3791 -5.6944,-1.7591 -12.1784,0.6883 -14.548,5.3214 -3.2245,6.3044 -2.2466,13.2893 2.6877,17.0552 4.5631,3.4824 9.6409,2.2825 15.3948,0.6683 m -699.36882,-1.404 c 1.29693,0.7335 2.52423,1.6547 3.90338,2.1669 4.94482,1.8365 10.68866,0.2993 14.11981,-3.6327 3.30853,-3.7915 3.94904,-9.4319 1.59229,-14.0214 -2.37751,-4.6297 -7.50104,-7.2685 -12.96308,-6.5528 -4.85968,0.6367 -8.37286,3.2596 -10.18829,7.7916 -2.07074,5.1694 -0.82379,9.7905 3.53589,14.2484 m 753.71432,-21.8004 c -7.5159,2.812 -9.8019,6.7068 -8.9602,15.2652 0.4253,4.3263 4.2197,8.5539 8.2506,9.1927 7.5886,1.2026 13.1678,-1.2629 15.6465,-7.2626 3.3127,-8.0192 -1.1929,-18.7654 -14.9369,-17.1953 m -39.1868,14.1549 c 0,2.4881 0.07,4.9785 -0.014,7.4637 -0.1075,3.1673 1.2494,3.6792 3.8717,2.4738 0.1319,-2.4772 0.2533,-4.7587 0.3671,-6.8956 5.2893,-2.4823 6.518,2.0125 9.0246,4.5075 1.5732,1.5661 3.7907,2.4851 5.7192,3.6944 0.3622,-0.47 0.7242,-0.9399 1.0863,-1.4097 -1.7301,-2.5277 -3.4601,-5.0553 -5.5402,-8.0942 0.8756,-0.6141 1.7626,-1.0992 2.4828,-1.7648 2.8112,-2.5979 3.7527,-5.6492 2.3847,-9.3909 -1.3537,-3.703 -4.2705,-4.8898 -7.7698,-5.0303 -3.7488,-0.1505 -7.5082,-0.034 -11.6122,-0.034 0,4.9208 0,9.2054 0,14.48 m -784.68933,3.2032 c 3.07642,2.4223 3.47083,8.5053 9.98127,6.9613 -1.87171,-2.8291 -3.58667,-5.4212 -5.396,-8.156 1.10126,-0.9248 2.2102,-1.6594 3.07458,-2.6152 4.28656,-4.7402 1.84943,-12.6808 -4.44433,-13.5629 -4.33258,-0.6073 -8.81909,-0.1165 -13.28839,-0.1165 0,8.4643 0,16.4023 0,24.3266 3.09662,0.143 3.09662,0.143 4.63611,-7.634 1.56695,0.089 3.19177,0.1811 5.43676,0.7967 m 708.74443,4.8485 c 4.4577,-9.6311 8.9154,-19.2622 13.3731,-28.8933 -0.7109,-0.3429 -1.4217,-0.6859 -2.1327,-1.0289 -4.4519,9.1351 -8.9039,18.2701 -13.7396,28.1928 -4.5511,-8.673 -8.5959,-16.5441 -12.8321,-24.311 -0.8111,-1.4869 -2.3757,-2.5627 -3.5927,-3.8282 -0.3507,0.3343 -0.7015,0.6688 -1.0524,1.0032 4.8313,9.1396 9.7392,18.2402 14.4158,27.4583 0.7504,1.4792 1.1561,3.7809 0.5448,5.1933 -2.988,6.9046 -6.3747,13.6366 -9.6206,20.4297 0.3031,0.2985 0.6062,0.5973 0.9093,0.896 1.186,-1.1464 2.7918,-2.0829 3.4873,-3.4744 3.4537,-6.91 6.6674,-13.9399 10.2398,-21.6375 m -481.26725,-19.1599 c -0.68952,-1.1175 -1.32697,-3.1612 -2.07703,-3.2033 -5.0835,-0.286 -10.19074,-0.1495 -15.34302,-0.1495 0,8.617 0,16.6513 0,24.7586 5.95392,0 11.55109,0 17.43042,0 0,-1.1652 0.0961,-2.9166 -0.0139,-2.9297 -4.5033,-0.5334 -9.02509,-0.9108 -13.53009,-1.3065 0,-1.8274 0,-3.4325 0,-5.5374 2.67749,0 5.13031,0.024 7.58252,-0.01 4.04724,-0.049 4.04706,-0.064 3.37121,-4.1056 -3.52868,0 -7.13067,0 -10.8728,0 0,-2.4411 0,-4.4818 0,-7.0153 4.43933,0 8.56793,0 13.45264,-0.506 m -253.14624,18.4386 c 0.84515,2.8044 2.30236,4.2277 5.46612,2.3644 -3.17273,-7.4509 -6.23199,-14.8113 -9.49451,-22.0804 -0.42083,-0.9378 -1.90185,-1.9485 -2.87756,-1.9345 -0.97772,0.014 -2.40277,1.0601 -2.8316,2.0137 -3.31476,7.3729 -6.43537,14.8334 -9.61609,22.2666 0.36523,0.3735 0.73053,0.7472 1.09576,1.1207 1.41059,-1.0834 3.28113,-1.8867 4.14386,-3.3034 2.41187,-3.9612 10.04254,-4.7709 14.11402,-0.4471 m 893.35854,-17.1324 c 0,2.9947 0.2445,6.0156 -0.068,8.9775 -0.4076,3.8572 -2.044,7.3024 -6.5404,7.2355 -4.5824,-0.068 -5.3838,-3.589 -5.3686,-7.3857 0.014,-3.4938 0.032,-6.9882 -0.021,-10.4811 -0.014,-0.949 -0.2776,-1.8943 -0.4704,-3.1203 -1.6104,0.1866 -2.994,0.3468 -5.0668,0.587 0.5907,6.1295 0.7108,11.9267 1.813,17.5307 1.0957,5.5711 5.1409,7.6948 11.2026,6.9485 5.0047,-0.6162 8.3416,-4.1987 8.5146,-9.4045 0.1325,-3.9886 0.1889,-7.9954 -0.067,-11.9717 -0.079,-1.2212 -1.2988,-2.3692 -1.9963,-3.5506 -0.6437,1.2342 -1.2875,2.4682 -1.9317,4.6347 m -307.0602,16.6423 c 0.03,-5.3252 -0.2066,-10.6682 0.1514,-15.9713 0.5576,-8.2598 9.5724,-12.9051 16.8368,-9.0049 5.1051,2.7409 7.4347,6.9828 7.439,12.653 0,6.3362 0,12.6723 0,20.3426 1.6798,-1.5594 2.6118,-2.0223 2.6115,-2.4847 0,-7.3147 0.514,-14.7102 -0.3928,-21.923 -1.0414,-8.2827 -8.3036,-13.5347 -16.1579,-12.4906 -8.1181,1.0794 -12.6114,3.8561 -13.204,14.6004 -0.3932,7.1284 -0.075,14.2961 -0.075,21.4616 4.4655,-0.624 2.2457,-4.0241 2.7896,-7.1831 m -378.745,-5.5006 c 3.81604,-0.3462 7.63208,-0.6924 11.89307,-1.0788 0,3.8847 0,6.8261 0,9.7677 0.45117,0.3063 0.90234,0.6127 1.35351,0.9193 0.91016,-1.101 2.56116,-2.1718 2.6073,-3.3079 0.25678,-6.3182 0.0659,-12.6531 0.14942,-18.9806 0.0413,-3.1257 -1.3111,-3.6385 -4.27295,-2.5425 0,3.3679 0,6.6347 0,10.0884 -4.12171,0 -7.83527,0 -11.91315,0 0,-2.4518 -0.0139,-4.5881 0.004,-6.7244 0.0198,-2.4112 0.27631,-5.0378 -3.99493,-3.3182 0,7.1672 -0.1084,14.4673 0.12811,21.7562 0.0319,0.9833 1.79852,1.9103 2.76184,2.8633 0.37854,-0.3535 0.75714,-0.707 1.13574,-1.0605 0,-2.4872 0,-4.9744 0.14838,-8.382 m -248.04535,7.4717 c 0,-1.9446 0,-3.8891 0,-5.8226 3.40778,-0.4239 6.26239,-0.4594 8.93018,-1.1833 4.25714,-1.1552 6.22772,-4.3187 5.87738,-8.6738 -0.33637,-4.1825 -2.85327,-6.8881 -6.91052,-7.3624 -3.86542,-0.4522 -7.82508,-0.098 -12.04309,-0.098 0,7.6832 0.0149,14.8183 -0.006,21.9531 -0.01,3.3301 1.4892,3.6314 4.15253,1.1867 m 959.88433,-23.2943 c -3.2528,0 -6.5055,0 -9.8118,0 0,8.6528 0,16.5799 0,24.817 1.1588,0 2.8646,0.191 2.9194,-0.029 0.6144,-2.4653 0.9741,-4.9941 1.4472,-7.7683 1.2657,0 2.4131,0.029 3.5588,0 6.0473,-0.1813 9.9939,-2.9385 10.7904,-7.5179 0.7708,-4.433 -1.7478,-7.4028 -8.904,-9.4966 m -775.84685,0.011 c -4.92499,0 -9.84998,0 -15.16602,0 0,7.8607 -0.10852,15.1347 0.12805,22.3974 0.0319,0.9823 1.79609,1.9082 2.75818,2.8601 0.42224,-0.3505 0.84455,-0.7011 1.26679,-1.0515 0,-2.9307 0,-5.8613 0,-8.7098 11.5921,-1.5684 11.5921,-1.5684 10.95697,-4.6522 -3.50879,0 -7.1084,0 -10.77741,0 0,-2.4375 0,-4.4762 0,-6.8911 4.59357,0 8.85883,0 14.66791,0 -1.43085,-1.933 -2.17169,-2.9337 -3.83447,-3.9529 m 47.01715,3.971 c 0.69702,-1.0472 1.39398,-2.0944 2.64227,-3.9698 -6.89239,0 -12.3443,-0.089 -17.78796,0.084 -0.95514,0.03 -1.8758,1.1533 -2.81238,1.7718 1.01025,0.7122 1.93103,1.7239 3.05389,2.0592 1.34235,0.4009 2.85742,0.2233 4.71552,0.3175 0,6.0849 0.0669,11.8572 -0.0271,17.6267 -0.0499,3.059 1.16992,3.684 4.12775,2.5011 0,-6.7 0,-13.2817 0,-20.3689 1.9776,0 3.58532,0 6.08801,-0.021 m -144.79254,-0.7303 c 2.37579,0.4145 4.75164,0.8289 7.6745,1.3388 0,6.6606 0,13.4087 0,20.1568 0.62384,0.2294 1.24768,0.4588 1.87152,0.6882 0.73974,-1.3621 2.05713,-2.6989 2.1178,-4.0905 0.24469,-5.6102 0.10137,-11.2373 0.10137,-16.7606 7.49433,-1.1653 7.49433,-1.1653 7.23914,-4.5615 -5.60315,0 -11.24622,-0.093 -16.87915,0.1057 -0.7915,0.028 -1.53284,1.48 -2.12518,3.1231 m 629.57514,-9.5232 c -0.2517,-0.394 -0.4662,-1.101 -0.7607,-1.1361 -6.5279,-0.7771 -13.119,3.5131 -13.7517,10.1374 -0.7831,8.2019 -0.3615,16.5197 -0.3975,24.7877 -10e-4,0.2261 0.7174,0.4552 1.0829,0.6726 0.3173,-0.3247 0.7157,-0.5411 0.719,-0.7637 0.084,-5.633 0.1573,-11.2667 0.1711,-16.9004 0.025,-10.0987 2.9539,-13.8037 12.9369,-16.7975 z"
   id="path325" />
<path
   fill="#ef50f7"
   opacity="1"
   stroke="none"
   d="m 1231.1204,212.17438 c 0,0 0.4143,-0.0782 0.9353,-0.1796 1.2854,-0.43797 2.0499,-0.77449 2.8143,-1.11099 22.681,-7.74237 46.1088,-10.33331 69.8541,-8.70264 22.1201,1.51906 43.4391,7.06674 63.7832,16.05136 14.9142,6.5866 28.7625,14.94501 40.2842,26.54152 16.9746,17.0851 29.1576,37.1292 34.066,60.92439 2.0857,10.111 3.6656,20.51337 3.8014,30.80542 0.4589,34.76395 -9.0019,65.39817 -39.6328,85.83475 -7.9927,5.33261 -16.7987,9.44611 -26.0482,14.57236 1.4137,4.54306 3.6102,10.32019 4.9933,16.28586 4.1849,18.05145 9.099,36.02453 11.7511,54.31494 2.6254,18.10605 4.1276,36.57938 3.866,54.85934 -0.6474,45.23206 -9.7636,88.8888 -27.5923,130.63941 -12.8511,30.09418 -29.4069,57.97192 -50.0933,83.2489 -26.9028,32.87298 -58.5591,60.33881 -95.3553,81.82452 -32.4789,18.96485 -66.9682,32.58448 -103.856,39.91034 -12.1228,2.40753 -24.3519,4.64539 -36.6414,5.75696 -15.4418,1.39673 -30.9982,2.13171 -46.5002,2.05804 -11.2511,-0.0534 -22.5844,-1.30822 -33.7184,-3.06097 -15.32047,-2.41174 -30.62571,-5.2323 -45.68626,-8.90729 -20.44543,-4.98913 -40.34204,-11.84478 -59.16724,-21.41845 -11.07769,-5.63367 -22.49884,-10.8252 -32.8421,-17.62098 C 848.72931,840.73688 828.18378,825.48175 809.76624,807.47003 760.90027,759.68079 727.40173,702.90497 712.73376,636.17267 688.16852,524.41187 711.28699,422.849 783.72815,333.95087 836.32404,269.4064 904.61316,229.46811 986.4043,213.58411 c 67.7346,-13.15419 133.8143,-6.45981 198.1826,19.8072 -2.6583,2.51364 -5.6125,4.55124 -8.7348,6.28447 -3.1956,-1.72343 -6.1679,-4.20018 -9.2608,-4.36124 -8.9058,-0.46374 -16.5659,2.85102 -22.4036,9.87989 -1.0328,1.2436 -2.3082,2.28561 -3.8347,3.25808 -38.9925,-10.7438 -78.1738,-14.6387 -118.3751,-10.60714 6.6012,13.36659 13.1003,25.90728 19.0638,38.69775 56.8169,121.86133 83.2089,250.46384 83.8938,384.50125 0.1648,32.24292 -2.463,64.50025 -3.8442,97.20612 -2.9435,24.33899 -5.8492,48.22284 -8.918,73.44726 19.2403,-13.01373 38.2804,-24.05987 53.441,-40.58246 17.3601,-18.91973 32.5142,-39.30847 41.7673,-63.33477 4.9818,-12.93567 8.8437,-26.51459 11.3225,-40.14667 2.8461,-15.65106 3.398,-31.67554 1.3602,-47.63879 -1.5947,-12.49317 -1.8788,-25.26612 -4.6895,-37.4668 -5.0675,-21.9967 -10.5397,-44.01471 -17.7858,-65.36426 -8.0552,-23.73358 -17.9199,-46.88223 -27.6452,-70.01294 -15.498,-36.86069 -23.4586,-75.04831 -21.8652,-115.08575 0.2693,-6.76822 1.0634,-13.51557 1.7051,-20.65552 0.7908,-4.05801 1.4914,-7.73303 2.4521,-11.68335 2.4775,-8.07062 4.2994,-16.00726 7.0201,-23.6228 2.8902,-8.0903 6.633,-15.87604 10.2465,-24.03156 2.2804,-3.57037 4.3177,-6.90393 6.6725,-10.34616 7.4823,-8.46352 14.5954,-16.86334 21.8391,-25.14905 2.5548,-2.92239 5.4292,-5.56562 8.5235,-8.40359 10.6239,-2.05538 16.4145,-10.83418 24.5829,-15.9989 m -3.3092,116.8201 c -1.7609,12.59402 -4.8263,25.16623 -5.0374,37.78616 -0.6249,37.36499 10.9794,71.3222 31.4757,102.35156 18.4304,27.90195 36.6146,55.93634 51.1487,86.15717 17.3944,36.16833 28.4289,74.08594 31.7355,114.15167 0.784,9.4997 1.3181,19.02002 2.0597,29.88684 2.3189,-4.9209 4.1375,-8.5874 5.7948,-12.3255 23.446,-52.88739 31.8842,-108.14435 25.8464,-165.61352 -2.863,-27.25159 -9.391,-53.66248 -19.0278,-79.31827 -1.0468,-2.78671 -2.5506,-3.83441 -5.5555,-4.51145 -8.0769,-1.82004 -16.1601,-3.91403 -23.9222,-6.76684 -16.5149,-6.06986 -28.6263,-17.24659 -36.0425,-33.2948 -0.8056,-1.74332 -1.0074,-3.76572 -0.8613,-5.33103 10.7779,9.47489 22.1277,18.17929 35.28,24.10794 15.6618,7.05982 32.0955,10.7508 48.9596,5.78742 20.5702,-6.05411 33.9591,-20.53885 41.4076,-40.20951 8.7236,-23.03823 6.4707,-46.16824 -2.2505,-68.64886 -16.1977,-41.75247 -58.7784,-67.18454 -101.8149,-61.42574 -28.8721,3.86342 -51.3136,17.43084 -66.9436,41.8464 -6.0976,9.52474 -10.9573,19.81243 -10.9768,32.00341 0,0 -0.2088,0.33008 -0.6765,0.81195 -0.046,0.65018 -0.092,1.30036 -0.599,2.555 M 775.49255,716.97839 c 10.53907,14.90686 20.66144,30.13129 31.72199,44.64063 13.97943,18.33856 30.96564,33.87012 49.17322,47.8808 32.49316,25.00366 68.37872,43.60412 107.95782,54.71533 25.33905,7.11359 51.11802,11.70752 77.51822,11.73517 14.2944,0.0149 28.5883,-0.70343 42.8852,-0.90546 4.3749,-0.0619 5.8335,-2.50275 6.1985,-6.21692 0.7131,-7.25604 1.523,-14.50781 2.0029,-21.78045 1.1031,-16.71698 2.8755,-33.44642 2.8542,-50.16883 -0.043,-33.42383 -0.5292,-66.87091 -1.9485,-100.26092 -0.9772,-22.98871 -3.3189,-45.95783 -5.9993,-68.82441 -2.4095,-20.55737 -5.6009,-41.05755 -9.3583,-61.41479 -6.4245,-34.80713 -14.807,-69.16348 -25.1604,-103.04605 -12.6611,-41.43472 -27.735,-81.93613 -46.2937,-121.0817 -14.26602,-30.09118 -29.84799,-59.50064 -47.69394,-87.66813 -1.70611,-2.69298 -3.19519,-3.56575 -6.41973,-2.49942 -43.09357,14.2508 -81.56324,36.57496 -115.21424,66.90303 -20.06396,18.08273 -37.67322,38.49054 -52.45172,61.19879 -13.29529,20.42926 -24.25403,42.03934 -32.86841,64.867 -11.05243,29.28803 -17.60803,59.63352 -19.0954,90.76282 -0.93243,19.51514 0.49964,39.20209 1.80817,58.74921 1.35761,20.28113 6.29395,39.99401 12.42145,59.33191 6.90771,21.80035 16.25024,42.57788 27.96197,63.08239 z"
   id="path327" />
<path
   fill="#fefdfe"
   opacity="1"
   stroke="none"
   d="m 931.935,1042.7913 c 45.93622,0 91.8724,0 138.0218,0 0,15.0755 0,29.6579 0,44.6418 -28.1406,0 -56.0709,0 -84.39174,0 0,5.443 0,10.5088 0,16.1406 23.17234,0 46.54794,0 70.17834,0 0,13.4503 0,26.3429 0,39.6206 -23.4602,0 -46.7129,0 -70.26641,0 0,5.7838 0,11.1874 0,17.1515 28.46011,0 56.84311,0 85.45781,0 0,15.1413 0,29.7265 0,44.8257 -1.5719,0 -3.0157,10e-5 -4.4596,10e-5 -65.1459,0 -130.29191,-0.01 -195.43785,0.021 -2.69507,0 -4.68591,-0.1134 -6.44146,-3.0539 -9.4375,-15.8074 -19.25598,-31.3873 -29.6883,-48.2505 -4.45556,8.3085 -14.08984,12.2913 -13.49511,23.3181 0.49139,9.1113 0.10034,18.2702 0.10034,27.7078 -1.82599,0.1 -3.27149,0.2472 -4.71704,0.2478 -33.81482,0.013 -67.62982,-0.038 -101.44422,0.082 -3.52801,0.013 -5.349,-0.86 -6.40887,-4.4723 -1.43006,-4.8741 -3.47156,-9.6075 -5.69367,-14.1864 -0.67419,-1.3892 -2.80334,-2.922 -4.28411,-2.9403 -16.65912,-0.207 -33.323,-0.2197 -49.98127,0.018 -1.52289,0.022 -3.72284,1.8186 -4.39734,3.3313 -2.56781,5.759 -4.63879,11.7394 -7.01727,17.9559 -1.36481,0.071 -2.82562,0.2115 -4.2865,0.212 -33.81714,0.012 -67.63446,-0.031 -101.45123,0.08 -2.97974,0.01 -4.76666,-0.7585 -6.42438,-3.3407 -7.45642,-11.6153 -15.60165,-22.812 -22.59869,-34.6897 -3.99622,-6.7835 -8.46659,-10.2042 -16.75501,-7.5914 0,14.6367 0,29.7019 0,45.4884 -18.33786,0 -36.23883,0 -54.59292,-0.3809 -0.43564,-0.738 -0.41813,-1.095 -0.36582,-1.9376 0.0162,-53.5787 -0.003,-106.6718 -0.0213,-159.7651 32.62561,0.3104 65.27219,0.031 97.86777,1.1879 15.54938,0.5517 29.98206,6.33 41.06128,18.0542 23.07873,24.422 17.61407,65.9773 -10.87342,83.8635 -2.08953,1.312 -4.22619,2.5489 -6.81591,4.1064 10.23749,14.9512 20.32037,29.6767 30.92779,45.1681 4.4065,-10.4302 8.51612,-20.0798 12.56488,-29.755 16.7251,-39.967 33.40692,-79.9524 50.23603,-119.8756 0.67541,-1.6022 2.66571,-3.7549 4.07183,-3.7762 17.14014,-0.2604 34.28565,-0.1692 51.47217,-0.1692 21.45136,51.2291 42.79816,102.2085 64.14496,153.188 0.44745,-0.1077 0.89496,-0.2154 1.34241,-0.3229 0,-50.4662 0,-100.9323 0,-151.6304 18.33472,0 36.09906,0 54.41076,0 0,19.2843 0,38.4913 0,57.6985 0.36634,0.1461 0.73267,0.2924 1.099,0.4385 3.85755,-5.0122 7.74158,-10.0042 11.56763,-15.0404 10.68469,-14.0635 21.29016,-28.1883 32.12793,-42.1325 0.80524,-1.0361 3.20856,-1.1449 4.87116,-1.1515 19.32464,-0.077 38.64978,-0.052 58.51153,0.2902 -18.05811,23.6034 -36.65314,46.8635 -55.35992,70.2635 18.82806,29.932 37.57232,59.7308 56.31659,89.5296 0.29718,-0.142 0.59442,-0.284 0.89166,-0.4258 0,-1.6356 0,-3.2712 0,-4.9069 0,-49.6367 -0.005,-99.2733 0.0181,-148.91 8.5e-4,-1.9753 0.26574,-3.9508 0.40759,-5.9261 m -436.40763,77.2075 c 6.79193,-0.2595 13.66761,0.056 20.3555,-0.9182 9.1814,-1.3372 14.11469,-7.3184 13.94611,-15.3711 -0.17126,-8.1806 -5.68927,-14.0668 -15.17804,-14.6791 -9.39392,-0.6062 -18.85745,-0.1326 -28.55176,-0.1326 0,10.1916 0,20.411 0,31.101 2.86701,0 5.65186,0 9.42819,0 m 172.65793,1.6632 c -2.79327,7.5546 -5.58661,15.1091 -8.50348,22.9977 9.82019,0 19.0398,0 29.03119,0 -4.78973,-12.7671 -9.42578,-25.1245 -14.49603,-38.6393 -2.19299,5.7477 -3.94598,10.3421 -6.03168,15.6416 z"
   id="path329" />
<path
   fill="#fdfdfe"
   opacity="1"
   stroke="none"
   d="m 1189.4868,1099.9877 c 0,-19.1367 0,-37.777 0,-56.7875 18.0114,0 35.7258,0 53.7346,0 0,53.837 0,107.7252 0,161.9648 -15.6925,0 -31.1891,0.43 -46.6226,-0.3635 -3.078,-0.1582 -6.3007,-4.6755 -8.7992,-7.722 -12.57,-15.3269 -24.9451,-30.8142 -37.3393,-46.2848 -4.9319,-6.156 -9.7363,-12.4138 -15.297,-19.5172 0,25.1469 0,49.2894 0,73.6602 -18.2663,0 -35.9902,0 -53.9405,0 0,-53.9007 0,-107.6514 0,-161.7579 1.0039,-0.1111 2.0882,-0.334 3.1728,-0.3357 14.6608,-0.023 29.3228,-0.1 43.9811,0.091 1.8069,0.024 4.187,1.029 5.3023,2.3949 14.8538,18.1952 29.5151,36.5475 44.26,54.8318 3.3581,4.1642 6.8519,8.2193 10.2832,12.3245 0.4215,-0.1224 0.8431,-0.2449 1.2646,-0.3673 0,-3.8784 0,-7.7569 0,-12.1317 z"
   id="path331" />
<path
   fill="#fefefe"
   opacity="1"
   stroke="none"
   d="m 431.05969,1203.2759 c -0.0175,0.3572 -0.035,0.7142 -0.0562,1.3396 -20.64108,0.3634 -41.27881,0.5239 -61.91513,0.4145 -1.46027,-0.01 -3.39231,-1.7003 -4.29001,-3.1236 -8.9527,-14.1957 -17.73331,-28.5 -26.56531,-42.772 -0.93811,-1.5159 -1.89453,-3.0205 -3.16781,-5.0485 -4.52134,5.4473 -8.83631,10.4373 -12.85761,15.6537 -0.88202,1.1442 -0.98117,3.0918 -0.99426,4.6732 -0.0837,10.1095 -0.0427,20.2201 -0.0427,30.5411 -18.20074,0 -35.95083,0 -54.02142,0 0,-53.8743 0,-107.7206 0,-161.8459 17.75504,0 35.50604,0 54.04614,0 0,18.2287 0,36.6234 4.9e-4,55.7779 0.30777,1.3348 0.61511,1.9101 0.92243,2.4853 7.63836,-9.8108 15.31762,-19.5901 22.90274,-29.4418 6.6968,-8.6981 13.18258,-17.5615 20.02618,-26.1408 1.21063,-1.5177 3.71231,-2.8135 5.63171,-2.8328 19.47678,-0.1959 38.95646,-0.1055 58.8328,0.3035 -18.202,23.5952 -36.80152,46.7921 -55.50699,70.1211 11.46832,18.2486 22.79462,36.3789 34.23471,54.437 7.52188,11.8733 15.20776,23.6426 22.82025,35.4585 z"
   id="path333" />
<path
   fill="#ee4ff6"
   opacity="1"
   stroke="none"
   d="m 1428.4631,1149.9998 c 2e-4,-35.7995 2e-4,-71.0988 2e-4,-106.7837 39.2216,0 78.0847,0 117.245,0 0,5.3405 0,10.7307 0,16.476 -32.7939,0 -65.3943,0 -98.3487,0 0,18.4059 0,36.4626 0,55.094 29.2265,0 58.4466,0 87.919,0 0,5.8415 0,11.111 0,16.9578 -29.4091,0 -58.6075,0 -88.0371,0 0,18.99 0,37.4039 0,56.3623 33.174,0 66.2181,0 99.5097,0 0,5.802 0,11.0657 0,16.6982 -39.2124,0 -78.4247,0 -118.2883,0 0,-18.0944 0,-36.1995 2e-4,-54.8046 z"
   id="path335" />
<path
   fill="#ee4ff6"
   opacity="1"
   stroke="none"
   d="m 1802,1132.1707 c -12.47,0 -24.4399,0 -37.1547,0 0,2.0899 -10e-5,3.8428 -10e-5,5.5957 0,20.9936 -0.1002,41.9882 0.085,62.9803 0.037,4.1794 -1.2269,5.6508 -5.404,5.3301 -4.2655,-0.3275 -8.5755,-0.073 -13.1123,-0.073 0,-54.3958 0,-108.3124 0,-162.6189 5.8779,0 11.7814,0 18.333,0 0,23.5325 0,47.2365 0,71.1877 31.2379,0 61.8361,0 92.9988,0 0,-23.6644 0,-47.3738 0,-71.4111 6.45,0 12.3406,0 18.5139,0 0,53.8484 0,107.5986 0,161.6789 -6.0205,0 -11.8984,0 -18.1428,0 0,-24.0688 0,-48.0066 0,-72.6701 -18.7749,0 -37.1958,0 -56.1167,0 z"
   id="path337" />
<path
   fill="#ed4ff6"
   opacity="1"
   stroke="none"
   d="m 1687.3459,1178.3147 c 3.5743,-2.8722 7.0246,-5.3461 10.0433,-8.2662 2.6511,-2.5646 4.4896,-2.3891 7.0753,0.1477 10.0819,9.8912 10.0963,9.7522 -1.1989,18.8009 -17.2569,13.8249 -36.834,19.9085 -58.9448,19.0576 -16.7844,-0.6458 -31.8988,-5.866 -45.1362,-15.6906 -15.7278,-11.6728 -25.6588,-27.7352 -29.8573,-46.7873 -6.1695,-27.9954 -1.2939,-54.0524 16.7464,-76.7731 9.7361,-12.262 22.4712,-20.5981 37.6826,-25.0199 21.2698,-6.1826 42.303,-5.2176 62.3714,3.7279 9.4845,4.2277 17.7561,11.1764 27.2056,17.2995 -5.2142,5.8017 -9.3914,10.4499 -12.6733,14.1016 -8.3143,-5.2013 -16.1577,-10.228 -24.1206,-15.0577 -9.2059,-5.5836 -19.454,-5.8578 -29.8551,-5.947 -10.1844,-0.088 -19.6478,2.2416 -28.2838,7.3231 -18.6213,10.9573 -28.3118,27.726 -31.4916,48.8733 -2.1412,14.2402 0.2072,27.7045 6.1563,40.4424 9.1697,19.634 24.4962,31.7593 46.1283,35.49 17.6238,3.0396 33.412,-1.3742 48.1524,-11.7222 z"
   id="path339" />
<path
   fill="#ee4ff7"
   opacity="1"
   stroke="none"
   d="m 1321.9968,1094 c 0,-11.4695 0,-22.4391 0,-33.9111 -18.2127,0 -36.1131,0 -54.2688,0 0,-5.9292 0,-11.3531 0,-17.0175 42.378,0 84.494,0 127.0259,0 0,5.312 0,10.7199 0,16.7297 -17.6063,0 -35.477,0 -53.9098,0 0,2.5245 -10e-5,4.4635 -10e-5,6.4028 0,44.4919 -0.078,88.9842 0.1091,133.4753 0.021,4.9862 -1.1662,6.9906 -6.3655,6.411 -3.9315,-0.4385 -7.9511,-0.087 -12.5908,-0.087 0,-37.3329 0,-74.418 0,-112.0032 z"
   id="path341" />
<path
   fill="#1c044b"
   opacity="1"
   stroke="none"
   d="m 931.78516,1042.615 c 0.008,2.1516 -0.2569,4.1271 -0.25775,6.1024 -0.0229,49.6367 -0.0181,99.2733 -0.0181,148.91 0,1.6357 0,3.2713 0,4.9069 -0.29724,0.1418 -0.59448,0.2838 -0.89166,0.4258 -18.74427,-29.7988 -37.48853,-59.5976 -56.31659,-89.5296 18.70678,-23.4 37.30181,-46.6601 55.83258,-70.283 0.4577,-0.4782 0.97967,-0.5934 1.65149,-0.5325 z"
   id="path343" />
<path
   fill="#180048"
   opacity="1"
   stroke="none"
   d="m 431.09448,1202.7905 c -7.64728,-11.3305 -15.33316,-23.0998 -22.85504,-34.9731 -11.44009,-18.0581 -22.76639,-36.1884 -34.23471,-54.437 18.70547,-23.329 37.30499,-46.5259 55.97534,-70.0592 0.24124,-0.3302 0.41165,-0.3239 0.83762,-0.3066 0.27423,53.1041 0.29294,106.1972 0.27679,159.7759 z"
   id="path345" />
<path
   fill="#f3f1f5"
   opacity="1"
   stroke="none"
   d="m 1100.7764,1309.3181 c 8.1242,3.6986 14.604,-0.4247 14.6579,-8.8752 0.03,-4.6616 0.029,-9.3235 4e-4,-13.9851 -0.018,-2.859 0.8649,-4.6219 4.2023,-4.5246 3.1309,0.091 4.5051,1.2397 4.29,4.5272 -0.2166,3.3122 -0.16,6.6663 0.082,9.9797 0.5304,7.2485 4.8008,12.0872 11.3142,14.1904 5.6644,1.8289 11.967,3.5563 17.0733,-2.4954 -1.9023,-4.0255 -5.4479,-4.2678 -9.2276,-4.4225 -4.8055,-0.1962 -9.5345,-0.8088 -13.2473,-4.4827 -5.2048,-5.1503 -3.1456,-15.2439 3.8654,-17.0024 6.9285,-1.7375 14.0083,-2.2695 20.9477,0.6733 5.1841,2.1981 5.641,4.0244 2.4746,7.1218 -5.8115,-0.8524 -10.8299,-1.9702 -15.8782,-2.1262 -1.8186,-0.056 -3.7085,2.1992 -5.5659,3.3995 1.5633,1.2775 2.9459,3.2001 4.7273,3.6989 3.7901,1.0611 7.8473,1.1364 11.6834,2.0729 4.3006,1.05 8.1235,3.0168 8.8224,8.1186 0.6424,4.6913 -2.1195,9.4461 -6.6639,11.6196 -9.073,4.3399 -24.2835,1.6212 -31.9055,-6.004 -4.513,6.2278 -10.8674,7.9584 -18.3114,7.904 -7.6742,-0.056 -14.5786,-5.7356 -14.8341,-13.4377 -0.2096,-6.3191 -0.049,-12.6494 -0.178,-18.9724 -0.063,-3.1052 1.0027,-4.5061 4.3546,-4.3911 3.3157,0.1139 4.2764,1.5173 4.1528,4.6451 -0.1971,4.9868 -0.3687,10.016 0.079,14.9701 0.2322,2.5663 1.818,5.0101 3.0839,7.7982 z"
   id="path347" />
<path
   fill="#f9f8fa"
   opacity="1"
   stroke="none"
   d="m 955.1925,1301.687 c -0.96563,-10.8264 7.25953,-21.5135 19.47919,-19.729 1.46777,0.2144 2.99396,0.029 4.49304,0.029 8.49244,0 8.49244,0 9.05292,-8.5201 2.38178,0 4.79266,0 7.73505,0 0.1239,2.4529 0.2539,5.0275 0.40991,8.1171 3.11489,0 6.17919,0 9.53129,0 0,2.6005 0,4.6931 0,7.1499 -2.9336,0 -6.0342,0 -9.7899,0 0,6.4097 -0.27887,12.5064 0.20948,18.5409 0.11248,1.39 2.68892,2.9421 4.44192,3.7216 1.3593,0.6043 3.2022,0.1208 5.0422,0.1208 0,2.5144 0,4.8013 0,7.4308 -5.4025,-0.014 -11.45666,1.8788 -15.38097,-3.8558 -1.44989,-2.1187 -2.16755,-5.0602 -2.32032,-7.679 -0.33758,-5.7878 -0.10492,-11.6089 -0.10492,-17.9697 -5.15936,0 -10.13531,-0.4202 -15.0061,0.1155 -5.10516,0.5615 -9.82458,5.5627 -9.05035,12.1257 0.61291,5.1953 5.06793,9.6405 10.51617,9.7806 1.9787,0.051 3.95978,0.01 5.91712,0.01 1.45336,7.1693 1.19506,7.3283 -5.49116,7.4982 -12.86682,0.3269 -18.15692,-6.371 -19.68457,-16.8848 z"
   id="path349" />
<path
   fill="#f9f8fa"
   opacity="1"
   stroke="none"
   d="m 1056.9675,1329.5272 c -2.3863,1.3726 -4.7345,2.2881 -7.6996,3.4441 0,-13.1326 -0.6182,-24.9514 0.1915,-36.6716 0.6733,-9.7454 7.6966,-14.9595 18.0487,-15.3071 9.429,-0.3169 17.3299,5.6191 19.3056,14.5041 1.9686,8.8524 -2.437,18.3739 -10.7223,21.7733 -6.2523,2.5652 -12.5686,2.152 -19.0855,-3.3755 0,5.8142 0,10.495 -0.038,15.6327 m 21.1298,-26.5923 c 0.9941,-7.7823 -1.6843,-12.8184 -7.516,-14.1322 -6.0021,-1.3521 -11.0165,1.4878 -12.8146,7.2575 -1.8561,5.9559 0.9347,12.4573 6.2393,14.5346 5.6177,2.2 10.7097,-0.2939 14.0913,-7.6599 z"
   id="path351" />
<path
   fill="#f5f5f7"
   opacity="1"
   stroke="none"
   d="m 932.14648,1281.0396 c 17.25495,-0.017 24.01441,14.0269 19.74238,25.3651 -3.44281,9.137 -11.48285,13.3886 -22.33491,12.1908 -9.56366,-1.0559 -14.92547,-9.4049 -15.46563,-17.5027 -0.77667,-11.6455 6.85907,-19.3979 18.05816,-20.0532 m -9.16827,17.6875 c 0.22455,6.4803 2.89502,10.7137 7.63037,12.097 4.46997,1.3057 9.30078,-0.4153 11.82324,-4.3088 2.80561,-4.3306 2.78925,-8.8822 0.24964,-13.2117 -2.20368,-3.7567 -5.79633,-5.3729 -10.17249,-4.8148 -5.5318,0.7054 -8.48376,4.0982 -9.53076,10.2383 z"
   id="path353" />
<path
   fill="#f5f5f7"
   opacity="1"
   stroke="none"
   d="m 1040.72,1313.7571 c -9.0865,8.1421 -25.2117,5.696 -29.6857,-2.9545 -5.6855,-10.9929 -3.8763,-20.3087 4.9265,-27.1189 6.9561,-5.3817 19.6931,-2.9492 26.6145,4.3004 5.1325,5.3758 6.6834,17.5826 -1.8553,25.773 m -2.5807,-13.376 c -0.4424,-7.5421 -4.2965,-11.9907 -10.516,-12.1377 -5.7667,-0.1365 -10.5622,4.5573 -10.9782,10.7454 -0.4036,6.0046 3.4635,11.249 8.8875,12.0528 6.4458,0.9556 10.8959,-2.5322 12.6067,-10.6605 z"
   id="path355" />
<path
   fill="#dfdce6"
   opacity="1"
   stroke="none"
   d="m 1328.6531,1317.1448 c -14.5816,3.5619 -22.3489,-3.3162 -24.6266,-15.8523 -1.7157,-9.4429 6.5259,-18.6785 17.0049,-19.8889 9.1063,-1.0519 17.3088,5.3891 17.9107,15.0665 0.5846,9.3988 0.6424,18.9027 -0.047,28.2886 -0.7331,9.9754 -12.8926,15.4257 -24.3578,10.3698 -5.4985,-2.4248 -6.8793,-3.966 -7.1786,-8.8365 1.7726,1.6055 3.0524,2.7488 4.3149,3.9109 6.8758,6.3286 19.5678,5.5327 23.142,-2.2029 2.1405,-4.6326 1.9911,-10.3232 3.1174,-17.0005 -3.9073,2.6355 -6.4,4.3169 -9.2796,6.1453 m -19.6808,-9.95 c 0.4049,0.7196 0.736,1.4945 1.2264,2.1503 4.6739,6.2495 12.366,8.1982 18.9585,4.8332 6.3225,-3.227 9.406,-11.5437 7.1855,-19.38 -2.1752,-7.676 -7.7822,-11.5858 -15.5422,-10.8111 -10.718,1.0701 -16.8836,13.7305 -11.8282,23.2076 z"
   id="path357" />
<path
   fill="#990c9e"
   opacity="1"
   stroke="none"
   d="m 1230.7435,212.08231 c -7.7915,5.25679 -13.5821,14.03559 -24.5774,15.99191 -3.1801,-0.37229 -5.6231,-0.71274 -8.0241,-1.39742 -1.0121,-1.79135 -2.0662,-3.23848 -3.1203,-4.6856 -0.036,-1.71389 -0.072,-3.42775 -0.01,-5.89344 1.3665,-2.87695 2.6306,-5.00212 3.8947,-7.12727 4.4031,-1.54628 8.8062,-3.09255 13.9212,-4.4662 2.1783,0.33391 3.645,0.49519 5.1116,0.65651 2.4699,2.46278 4.9399,4.92556 7.4099,7.38835 -0.2545,0.45637 -0.5091,0.91275 -0.7636,1.36912 1.9257,-0.64267 3.8513,-1.28535 6.1538,-1.83596 m -25.9941,-3.03985 c -1.3569,0.93172 -3.0896,1.61928 -3.9181,2.89428 -0.4398,0.67662 0.9552,3.47738 1.0718,3.44931 4.5417,-1.0934 9.0738,-2.28215 13.4797,-3.82221 0.6166,-0.21547 0.9844,-2.40411 0.6936,-3.46788 -0.1672,-0.612 -1.9504,-1.23005 -2.8992,-1.09488 -2.5985,0.37023 -5.1403,1.1378 -8.4278,2.04138 z"
   id="path359" />
<path
   fill="#c42ad1"
   opacity="1"
   stroke="none"
   d="m 1198.1,227.02101 c 2.443,0.34047 4.886,0.68092 7.7003,1.12045 -2.3571,2.86979 -5.2315,5.51302 -7.7863,8.43541 -7.2437,8.28571 -14.3568,16.68553 -21.82,24.73185 -0.257,-7.31524 -0.2154,-14.32192 -0.1737,-21.32859 2.9541,-2.03758 5.9083,-4.07518 8.9055,-6.44537 3.3352,-1.82822 6.6274,-3.32382 10.4375,-5.14765 1.2576,-0.67417 1.9971,-1.02014 2.7367,-1.3661 z"
   id="path361" />
<path
   fill="#ebe9ef"
   opacity="1"
   stroke="none"
   d="m 1174.7429,1305.8979 c 4.2029,10.3804 14.9562,13.1532 23.4276,6.4451 1.1535,-0.9133 2.6313,-1.4172 4.2696,-1.5301 -4.8756,9.1013 -18.2356,8.5118 -24.0026,4.9557 -6.2769,-3.8707 -9.2557,-15.563 -6.1263,-23.6573 3.3265,-8.6037 9.6079,-11.9515 19.0549,-10.1556 7.8596,1.4941 12.706,8.0152 12.5492,17.317 -9.9247,0 -19.8628,0 -30.2822,0 0.3669,2.4032 0.6606,4.3263 1.1098,6.6252 m 22.8726,-18.014 c -4.6059,-4.3889 -9.9639,-5.3151 -15.64,-2.7339 -4.8239,2.1934 -7.319,6.2573 -7.7586,11.6115 9.2735,0 18.2128,0 28.0969,0 -1.5987,-3.1172 -2.9224,-5.6981 -4.6983,-8.8776 z"
   id="path363" />
<path
   fill="#ebe9ef"
   opacity="1"
   stroke="none"
   d="m 1265.8256,1315.9551 c 4.4415,-1.706 8.468,-3.4109 12.5846,-5.1541 -0.8216,4.8889 -7.9115,8.0376 -15.9622,7.1774 -10.6006,-1.1329 -14.9186,-7.5536 -15.1802,-18.721 -0.2096,-8.9409 4.9978,-17.3601 15.5827,-17.8627 9.911,-0.4709 16.6782,5.8896 17.9576,17.5455 -10.0646,0 -20.0987,0 -29.9929,0 -2.1677,8.9275 5.4414,17.2899 15.0104,17.0149 m 6.4759,-18.9903 c 1.8042,0 3.6084,0 5.4417,0 -0.9541,-8.5859 -6.5381,-13.5015 -14.5708,-13.0747 -6.9021,0.367 -12.0341,5.7908 -12.183,13.0747 6.7889,0 13.5748,0 21.3121,0 z"
   id="path365" />
<path
   fill="#6472f1"
   opacity="1"
   stroke="none"
   d="m 1422.448,1312.6943 c -5.3733,1.445 -10.4511,2.6449 -15.0142,-0.8375 -4.9343,-3.7659 -5.9122,-10.7508 -2.6877,-17.0552 2.3696,-4.6331 8.8536,-7.0805 14.548,-5.3214 1.8297,0.5653 3.5167,1.5926 5.2058,2.3791 -1.335,4.5928 -4.1701,2.686 -6.4556,2.0491 -5.1421,-1.4329 -8.4711,0.1951 -10.2161,5.2516 -1.4254,4.1305 0.7922,8.8086 4.926,10.3924 4.5844,1.7566 7.9188,-0.272 8.0209,-5.1339 -0.9099,-0.1324 -1.8486,-0.2923 -2.7933,-0.3992 -0.803,-0.091 -1.6129,-0.1209 -2.3957,-0.1762 -0.1954,-4.1428 1.0418,-4.5208 10.1712,-3.1511 -0.1242,4.1447 2.1903,8.7945 -3.3093,12.0023 z"
   id="path367" />
<path
   fill="#6472f1"
   opacity="1"
   stroke="none"
   d="m 723.16016,1310.8962 c -4.06006,-4.233 -5.30701,-8.8541 -3.23627,-14.0235 1.81543,-4.532 5.32861,-7.1549 10.18829,-7.7916 5.46204,-0.7157 10.58557,1.9231 12.96308,6.5528 2.35675,4.5895 1.71624,10.2299 -1.59229,14.0214 -3.43115,3.932 -9.17499,5.4692 -14.11981,3.6327 -1.37915,-0.5122 -2.60645,-1.4334 -4.203,-2.3918 m 16.74487,-7.7758 c -0.10639,-5.9484 -2.34485,-9.3713 -6.75208,-10.0256 -4.0899,-0.6071 -7.15509,1.0644 -8.9129,4.7764 -2.02258,4.2711 -0.10889,9.3737 4.09162,11.3709 4.60626,2.1904 8.64154,0.2998 11.57336,-6.1217 z"
   id="path369" />
<path
   fill="#6472f1"
   opacity="1"
   stroke="none"
   d="m 1477.5837,1289.2638 c 13.3344,-1.5132 17.84,9.233 14.5273,17.2522 -2.4787,5.9997 -8.0579,8.4652 -15.6465,7.2626 -4.0309,-0.6388 -7.8253,-4.8664 -8.2506,-9.1927 -0.8417,-8.5584 1.4443,-12.4532 9.3698,-15.3221 m -0.7536,19.7408 c 1.2638,0.3299 2.5185,0.8981 3.7929,0.9466 4.6094,0.1755 8.179,-3.3064 8.363,-7.9674 0.1927,-4.8902 -3.2841,-8.8036 -7.9725,-8.9733 -4.5056,-0.1631 -8.7373,3.3105 -8.3869,7.8662 0.2043,2.6578 2.2882,5.171 4.2035,8.1279 z"
   id="path371" />
<path
   fill="#6472f1"
   opacity="1"
   stroke="none"
   d="m 1437.9873,1302.9807 c 0,-4.7797 0,-9.0643 0,-13.9851 4.104,0 7.8634,-0.1166 11.6122,0.034 3.4993,0.1405 6.4161,1.3273 7.7698,5.0303 1.368,3.7417 0.4265,6.793 -2.3847,9.3909 -0.7202,0.6656 -1.6072,1.1507 -2.4828,1.7648 2.0801,3.0389 3.8101,5.5665 5.5402,8.0942 -0.3621,0.4698 -0.7241,0.9397 -1.0863,1.4097 -1.9285,-1.2093 -4.146,-2.1283 -5.7192,-3.6944 -2.5066,-2.495 -3.7353,-6.9898 -9.0246,-4.5075 -0.1138,2.1369 -0.2352,4.4184 -0.3671,6.8956 -2.6223,1.2054 -3.9792,0.6935 -3.8717,-2.4738 0.085,-2.4852 0.015,-4.9756 0.014,-7.9586 m 10.1953,-9.9794 c -1.9055,0 -3.8109,0 -5.7163,0 0,3.3844 0,5.9654 0,8.9959 2.0877,0 4.0667,0.4861 5.6189,-0.1202 2.0525,-0.8016 4.8377,-2.1119 5.3949,-3.8255 0.9536,-2.9325 -1.14,-4.9215 -5.2975,-5.0502 z"
   id="path373" />
<path
   fill="#6472f1"
   opacity="1"
   stroke="none"
   d="m 652.98785,1306.4171 c -1.93487,-0.3539 -3.55969,-0.446 -5.12664,-0.535 -1.53949,7.777 -1.53949,7.777 -4.63611,7.634 0,-7.9243 0,-15.8623 0,-24.3266 4.4693,0 8.95581,-0.4908 13.28839,0.1165 6.29376,0.8821 8.73089,8.8227 4.44433,13.5629 -0.86438,0.9558 -1.97332,1.6904 -3.07458,2.6152 1.80933,2.7348 3.52429,5.3269 5.396,8.156 -6.51044,1.544 -6.90485,-4.539 -10.29139,-7.223 m -5.81683,-10.6977 c 0,1.9384 0,3.8769 0,6.2779 2.36609,0 4.15161,0.014 5.93671,-0.01 0.65954,-0.01 1.34363,0 1.97308,-0.1678 3.51618,-0.925 4.85797,-4.8058 2.58313,-7.3842 -1.95105,-2.2115 -7.95367,-1.9879 -10.49292,1.2813 z"
   id="path375" />
<path
   fill="#dfdce6"
   opacity="1"
   stroke="none"
   d="m 1361.9054,1311.8823 c -3.4354,7.3426 -6.6491,14.3725 -10.1028,21.2825 -0.6955,1.3915 -2.3013,2.328 -3.4873,3.4744 -0.3031,-0.2987 -0.6062,-0.5975 -0.9093,-0.896 3.2459,-6.7931 6.6326,-13.5251 9.6206,-20.4297 0.6113,-1.4124 0.2056,-3.7141 -0.5448,-5.1933 -4.6766,-9.2181 -9.5845,-18.3187 -14.4158,-27.4583 0.3509,-0.3344 0.7017,-0.6689 1.0524,-1.0032 1.217,1.2655 2.7816,2.3413 3.5927,3.8282 4.2362,7.7669 8.281,15.638 12.8321,24.311 4.8357,-9.9227 9.2877,-19.0577 13.7396,-28.1928 0.711,0.343 1.4218,0.686 2.1327,1.0289 -4.4577,9.6311 -8.9154,19.2622 -13.5101,29.2483 z"
   id="path377" />
<path
   fill="#6675f6"
   opacity="1"
   stroke="none"
   d="m 880.3971,1292.6204 c -4.50666,0.253 -8.63526,0.253 -13.07459,0.253 0,2.5335 0,4.5742 0,7.0153 3.74213,0 7.34412,0 10.8728,0 0.67585,4.0417 0.67603,4.0565 -3.37121,4.1056 -2.45221,0.03 -4.90503,0.01 -7.58252,0.01 0,2.1049 0,3.71 0,5.5374 4.505,0.3957 9.02679,0.7731 13.53009,1.3065 0.10992,0.013 0.0139,1.7645 0.0139,2.9297 -5.87933,0 -11.4765,0 -17.43042,0 0,-8.1073 0,-16.1416 0,-24.7586 5.15228,0 10.25952,-0.1365 15.34302,0.1495 0.75006,0.042 1.38751,2.0858 1.69898,3.4563 z"
   id="path379" />
<path
   fill="#6472f1"
   opacity="1"
   stroke="none"
   d="m 627.4436,1310.4348 c -3.88617,-3.9526 -11.51684,-3.1429 -13.92871,0.8183 -0.86273,1.4167 -2.73327,2.22 -4.14386,3.3034 -0.36523,-0.3735 -0.73053,-0.7472 -1.09576,-1.1207 3.18072,-7.4332 6.30133,-14.8937 9.61609,-22.2666 0.42883,-0.9536 1.85388,-1.9998 2.8316,-2.0137 0.97571,-0.014 2.45673,0.9967 2.87756,1.9345 3.26252,7.2691 6.32178,14.6295 9.49451,22.0804 -3.16376,1.8633 -4.62097,0.44 -5.65143,-2.7356 m -5.32599,-12.7433 c -0.48278,-0.7928 -0.96551,-1.5855 -1.68121,-2.761 -1.31232,3.1272 -2.44116,5.8172 -3.73621,8.9032 2.82392,0 5.01288,0 7.7931,0 -0.81592,-2.1379 -1.44818,-3.7944 -2.37568,-6.1422 z"
   id="path381" />
<path
   fill="#6472f1"
   opacity="1"
   stroke="none"
   d="m 1520.9877,1293.2074 c 0.6439,-1.7003 1.2877,-2.9343 1.9314,-4.1685 0.6975,1.1814 1.9178,2.3294 1.9963,3.5506 0.2556,3.9763 0.1992,7.9831 0.067,11.9717 -0.173,5.2058 -3.5099,8.7883 -8.5146,9.4045 -6.0617,0.7463 -10.1069,-1.3774 -11.2026,-6.9485 -1.1022,-5.604 -1.2223,-11.4012 -1.813,-17.5307 2.0728,-0.2402 3.4564,-0.4004 5.0668,-0.587 0.1928,1.226 0.4562,2.1713 0.4704,3.1203 0.053,3.4929 0.035,6.9873 0.021,10.4811 -0.015,3.7967 0.7862,7.3178 5.3686,7.3857 4.4964,0.067 6.1328,-3.3783 6.5404,-7.2355 0.3128,-2.9619 0.066,-5.9828 0.069,-9.4437 z"
   id="path383" />
<path
   fill="#dfdce6"
   opacity="1"
   stroke="none"
   d="m 1213.9272,1310.7843 c -0.5439,2.6906 1.6759,6.0907 -2.7896,6.7147 0,-7.1655 -0.3185,-14.3332 0.075,-21.4616 0.5926,-10.7443 5.0859,-13.521 13.204,-14.6004 7.8543,-1.0441 15.1165,4.2079 16.1579,12.4906 0.9068,7.2128 0.3888,14.6083 0.3928,21.923 3e-4,0.4624 -0.9317,0.9253 -2.6115,2.4847 0,-7.6703 0,-14.0064 0,-20.3426 0,-5.6702 -2.3339,-9.9121 -7.439,-12.653 -7.2644,-3.9002 -16.2792,0.7451 -16.8368,9.0049 -0.358,5.3031 -0.1214,10.6461 -0.1514,16.4397 z"
   id="path385" />
<path
   fill="#6675f6"
   opacity="1"
   stroke="none"
   d="m 835.10803,1305.2755 c -0.0742,2.9474 -0.0742,5.4346 -0.0742,7.9218 -0.3786,0.3535 -0.7572,0.707 -1.13574,1.0605 -0.96332,-0.953 -2.72992,-1.88 -2.76184,-2.8633 -0.23651,-7.2889 -0.12811,-14.589 -0.12811,-21.7562 4.27124,-1.7196 4.01477,0.907 3.99493,3.3182 -0.0175,2.1363 -0.004,4.2726 -0.004,6.7244 4.07788,0 7.79144,0 11.91315,0 0,-3.4537 0,-6.7205 0,-10.0884 2.96185,-1.096 4.31421,-0.5832 4.27295,2.5425 -0.0835,6.3275 0.10736,12.6624 -0.14942,18.9806 -0.0461,1.1361 -1.69714,2.2069 -2.6073,3.3079 -0.45117,-0.3066 -0.90234,-0.613 -1.35351,-0.9193 0,-2.9416 0,-5.883 0,-9.7677 -4.26099,0.3864 -8.07703,0.7326 -11.96729,1.539 z"
   id="path387" />
<path
   fill="#6472f1"
   opacity="1"
   stroke="none"
   d="m 587.05481,1312.7319 c -2.58124,1.9998 -4.08044,1.6985 -4.07044,-1.6316 0.0214,-7.1348 0.006,-14.2699 0.006,-21.9531 4.21801,0 8.17767,-0.3545 12.04309,0.098 4.05725,0.4743 6.57415,3.1799 6.91052,7.3624 0.35034,4.3551 -1.62024,7.5186 -5.87738,8.6738 -2.66779,0.7239 -5.5224,0.7594 -8.93018,1.1833 0,1.9335 0,3.878 -0.0821,6.2675 m 0.10992,-14.3452 c -0.47033,5.4334 3.61914,3.5517 6.06488,3.4575 3.01569,-0.1163 5.29688,-2.2237 4.29963,-5.2758 -1.71656,-5.2532 -6.17334,-3.3628 -10.17414,-3.2799 -0.0738,1.6258 -0.13251,2.9185 -0.19037,5.0982 z"
   id="path389" />
<path
   fill="#6472f1"
   opacity="1"
   stroke="none"
   d="m 1547.4578,1289.0066 c 6.7196,2.0799 9.2382,5.0497 8.4674,9.4827 -0.7965,4.5794 -4.7431,7.3366 -10.7904,7.5179 -1.1457,0.034 -2.2931,0 -3.5588,0 -0.4731,2.7742 -0.8328,5.303 -1.4472,7.7683 -0.055,0.2203 -1.7606,0.029 -2.9194,0.029 0,-8.2371 0,-16.1642 0,-24.817 3.3063,0 6.559,0 10.2484,0.014 m -1.292,3.9957 c -1.5722,0.092 -3.1442,0.1841 -4.7193,0.2763 0,3.0908 0,5.6635 0,8.4859 3.9086,0.033 8.216,1.7217 9.9637,-3.1616 1.236,-3.4539 -1.1437,-5.1188 -5.2444,-5.6006 z"
   id="path391" />
<path
   fill="#6675f6"
   opacity="1"
   stroke="none"
   d="m 771.63538,1289.0126 c 1.20178,1.01 1.94262,2.0107 3.37347,3.9437 -5.80908,0 -10.07434,0 -14.66791,0 0,2.4149 0,4.4536 0,6.8911 3.66901,0 7.26862,0 10.77741,0 0.63513,3.0838 0.63513,3.0838 -10.95697,4.6522 0,2.8485 0,5.7791 0,8.7098 -0.42224,0.3504 -0.84455,0.701 -1.26679,1.0515 -0.96209,-0.9519 -2.72626,-1.8778 -2.75818,-2.8601 -0.23657,-7.2627 -0.12805,-14.5367 -0.12805,-22.3974 5.31604,0 10.24103,0 15.62702,0.01 z"
   id="path393" />
<path
   fill="#6675f6"
   opacity="1"
   stroke="none"
   d="m 817.74402,1292.9851 c -2.05518,0.011 -3.6629,0.011 -5.6405,0.011 0,7.0872 0,13.6689 0,20.3689 -2.95783,1.1829 -4.17762,0.5579 -4.12775,-2.5011 0.094,-5.7695 0.0271,-11.5418 0.0271,-17.6267 -1.8581,-0.094 -3.37317,0.083 -4.71552,-0.3175 -1.12286,-0.3353 -2.04364,-1.347 -3.05389,-2.0592 0.93658,-0.6185 1.85724,-1.7417 2.81238,-1.7718 5.44366,-0.1722 10.89557,-0.084 17.78796,-0.084 -1.24829,1.8754 -1.94525,2.9226 -3.08978,3.9805 z"
   id="path395" />
<path
   fill="#6675f6"
   opacity="1"
   stroke="none"
   d="m 673.31287,1291.819 c 0.67846,-1.218 1.4198,-2.6702 2.2113,-2.698 5.63293,-0.1984 11.276,-0.1057 16.87915,-0.1057 0.25519,3.3962 0.25519,3.3962 -7.23914,4.5615 0,5.5233 0.14332,11.1504 -0.10137,16.7606 -0.0607,1.3916 -1.37806,2.7284 -2.1178,4.0905 -0.62384,-0.2294 -1.24768,-0.4588 -1.87152,-0.6882 0,-6.7481 0,-13.4962 0,-20.1568 -2.92286,-0.5099 -5.29871,-0.9243 -7.76062,-1.7639 z"
   id="path397" />
<path
   fill="#ebe9ef"
   opacity="1"
   stroke="none"
   d="m 1302.8845,1283.1008 c -9.8934,2.6139 -12.8225,6.3189 -12.8473,16.4176 -0.014,5.6337 -0.087,11.2674 -0.1711,16.9004 0,0.2226 -0.4017,0.439 -0.719,0.7637 -0.3655,-0.2174 -1.0839,-0.4465 -1.0829,-0.6726 0.036,-8.268 -0.3856,-16.5858 0.3975,-24.7877 0.6327,-6.6243 7.2238,-10.9145 13.7517,-10.1374 0.2945,0.035 0.509,0.7421 0.6711,1.516 z"
   id="path399" />
<path
   fill="#180048"
   opacity="1"
   stroke="none"
   d="m 1198.5101,208.97967 c -0.8636,2.11597 -2.1277,4.24114 -3.5172,6.69018 -0.6317,-1.16617 -1.9857,-3.22776 -1.4532,-4.01772 0.8873,-1.31641 2.983,-1.81836 4.9704,-2.67246 z"
   id="path401" />
<path
   fill="#180048"
   opacity="1"
   stroke="none"
   d="m 1198.142,226.6768 c -0.7816,0.69017 -1.5211,1.03614 -2.5631,1.43322 -0.5612,-1.82323 -0.82,-3.69754 -0.8179,-5.84534 1.3148,1.17364 2.3689,2.62077 3.381,4.41212 z"
   id="path403" />
<path
   fill="#180048"
   opacity="1"
   stroke="none"
   d="m 1217.9436,204.76828 c -1.4668,0.2312 -2.9335,0.0699 -4.7112,-0.27737 1.4091,-3.42211 3.0875,-3.70694 4.7112,0.27737 z"
   id="path405" />
<path
   fill="#990c9e"
   opacity="1"
   stroke="none"
   d="m 1234.5271,210.87907 c -0.4215,0.34122 -1.186,0.67774 -2.2833,1.0205 0.4249,-0.33759 1.1826,-0.68139 2.2833,-1.0205 z"
   id="path407" />
<path
   fill="#180048"
   opacity="1"
   stroke="none"
   d="m 322.0816,1101.0642 c -0.27063,-0.2682 -0.57797,-0.8435 -0.78741,-1.7158 0.31552,0.2715 0.53314,0.8402 0.78741,1.7158 z"
   id="path409" />
<path
   fill="#d848df"
   opacity="1"
   stroke="none"
   d="m 775.32239,716.65259 c -11.54157,-20.17871 -20.8841,-40.95624 -27.79181,-62.75659 -6.1275,-19.3379 -11.06384,-39.05078 -12.42145,-59.33191 -1.30853,-19.54712 -2.7406,-39.23407 -1.80817,-58.74921 1.48737,-31.1293 8.04297,-61.47479 19.0954,-90.76282 8.61438,-22.82766 19.57312,-44.43774 32.86841,-64.867 14.7785,-22.70825 32.38776,-43.11606 52.45172,-61.19879 33.651,-30.32807 72.12067,-52.65223 115.21424,-66.90303 3.22454,-1.06633 4.71362,-0.19356 6.41973,2.49942 17.84595,28.16749 33.42792,57.57695 47.69394,87.66813 18.5587,39.14557 33.6326,79.64698 46.2937,121.0817 10.3534,33.88257 18.7359,68.23892 25.1604,103.04605 3.7574,20.35724 6.9488,40.85742 9.3583,61.41479 2.6804,22.86658 5.0221,45.8357 5.9993,68.82441 1.4193,33.39001 1.9057,66.83709 1.9485,100.26092 0.021,16.72241 -1.7511,33.45185 -2.8542,50.16883 -0.4799,7.27264 -1.2898,14.52441 -2.0029,21.78045 -0.365,3.71417 -1.8236,6.15503 -6.1985,6.21692 -14.2969,0.20203 -28.5908,0.92041 -42.8852,0.90546 -26.4002,-0.0276 -52.17917,-4.62158 -77.51822,-11.73517 -39.5791,-11.11121 -75.46466,-29.71167 -107.95782,-54.71533 -18.20758,-14.01068 -35.19379,-29.54224 -49.17322,-47.8808 -11.06055,-14.50934 -21.18292,-29.73377 -31.89215,-44.96643 m 92.86053,-14.31842 c -9.46338,3.45508 -18.92676,6.91015 -28.97815,10.57989 12.1084,29.42804 32.83619,48.16724 63.42926,53.64978 35.11884,6.29358 64.28083,-5.53155 84.96491,-34.83618 16.37506,-23.19971 19.03796,-48.8902 9.94494,-76.5293 -5.64105,2.13453 -10.58636,4.00574 -16.26544,5.99714 -37.4682,13.65606 -74.93634,27.31213 -113.09552,41.13867 z"
   id="path411" />
<path
   fill="#190049"
   opacity="1"
   stroke="none"
   d="m 1284.7974,391.83881 c 0.4818,1.89297 0.6836,3.91537 1.4892,5.65869 7.4162,16.04821 19.5276,27.22494 36.0425,33.2948 7.7621,2.85281 15.8453,4.9468 23.9222,6.76684 3.0049,0.67704 4.5087,1.72474 5.5555,4.51145 9.6368,25.65579 16.1648,52.06668 19.0278,79.31827 6.0378,57.46917 -2.4004,112.72613 -25.8464,165.61352 -1.6573,3.7381 -3.4759,7.4046 -5.7948,12.3255 -0.7416,-10.86682 -1.2757,-20.38714 -2.0597,-29.88684 -3.3066,-40.06573 -14.3411,-77.98334 -31.7355,-114.15167 -14.5341,-30.22083 -32.7183,-58.25522 -51.1487,-86.15717 -20.4963,-31.02936 -32.1006,-64.98657 -31.4757,-102.35156 0.2111,-12.61993 3.2765,-25.19214 5.501,-38.327 0.5101,-1.19256 0.5566,-1.8443 0.6031,-2.49603 0,0 0.2088,-0.33008 0.5172,-0.74969 4.1309,-7.4202 7.8196,-14.50003 11.8876,-21.35486 0.8185,-1.37937 3.0763,-1.90457 4.8806,-2.56284 38.1798,29.33365 68.2951,65.03559 90.5203,107.37573 1.0414,1.98383 1.5974,4.22242 1.9636,6.40784 -13.5642,-1.91211 -24.7386,-8.02017 -35.1755,-15.99222 -4.291,-3.27777 -9.2056,-5.80011 -14.0468,-8.25064 -1.0924,-0.55307 -3.0619,0.6261 -4.6275,1.00788 z"
   id="path413" />
<path
   fill="#190049"
   opacity="1"
   stroke="none"
   d="m 1121.1292,757.79529 c 1.3433,-32.25067 3.9711,-64.508 3.8063,-96.75092 -0.6849,-134.03741 -27.0769,-262.63992 -83.8938,-384.50125 -5.9635,-12.79047 -12.4626,-25.33116 -19.0638,-38.69775 40.2013,-4.03156 79.3826,-0.13666 118.5162,10.97146 -1.5878,8.39984 -0.45,15.66608 4.3677,22.46772 -4.1714,6.54397 -8.1356,12.82235 -12.4294,19.16073 -3.1903,1.32974 -6.2132,2.32633 -8.8847,3.91437 -15.332,9.11432 -18.9339,27.72247 -7.3037,39.55035 0.5425,0.55173 0.7322,1.45056 1.0043,2.62699 -0.4512,8.10769 -0.8207,15.77615 -1.496,23.59222 -1.3907,0.91177 -2.5195,1.62119 -3.5537,2.44873 -9.3534,7.48462 -13.6196,20.10983 -10.2085,31.2067 3.298,10.72925 11.0527,16.08899 22.0328,17.61154 1.7214,7.12448 3.4013,13.86298 4.7793,20.78241 -2.9488,2.11578 -6.2618,3.55707 -8.1252,6.07236 -7.4528,10.05883 -9.6624,21.26071 -4.0991,32.82986 5.4055,11.24133 14.8949,16.0892 27.4292,15.31793 1.8987,6.78174 3.7326,13.18393 5.1936,19.68506 -3.2263,2.27069 -6.9502,3.87995 -8.7805,6.71277 -7.4214,11.48615 -8.9685,23.97858 -2.6798,36.35303 6.1486,12.09918 16.4769,18.23523 30.3452,18.22687 1.9526,7.20739 3.8739,14.03247 5.2845,20.86279 -9.8552,-1.67566 -16.4256,2.26751 -20.5721,10.38098 -13.1892,25.80743 -0.4406,55.22235 27.1351,59.80566 -1.6825,9.12097 -3.3365,17.82794 -5.3525,26.54645 -6.5819,-4.09332 -12.9129,-5.41662 -20.0605,-1.95837 -15.3294,7.41699 -26.076,27.26831 -22.7312,43.93438 1.25,6.22858 4.2084,12.11432 6.1739,18.41724 -5.7538,4.31708 -11.2937,8.37341 -16.8336,12.42969 z"
   id="path415" />
<path
   fill="#c52ad1"
   opacity="1"
   stroke="none"
   d="m 1173.8807,588.23395 c -1.9212,-6.82501 -3.8425,-13.65009 -5.4063,-20.87512 1.9712,-0.76496 3.6051,-1.05939 5.1963,-1.50586 14.6261,-4.10462 22.8259,-18.07361 17.1989,-30.88202 -2.372,-5.39911 -6.5936,-10.40003 -11.0473,-14.38178 -8.566,-7.6582 -18.0846,-14.06607 -30.2486,-14.60431 -1.834,-6.40219 -3.6679,-12.80438 -5.1875,-19.64209 13.3822,-4.19391 19.7774,-10.8641 18.3465,-21.61563 -0.7422,-5.57699 -3.5978,-11.50754 -7.1643,-15.93744 -6.7602,-8.39691 -14.5332,-16.12756 -26.4643,-16.79205 -1.6799,-6.73849 -3.3598,-13.47699 -4.6473,-20.60623 13.998,-0.63098 22.5912,-8.8952 21.4405,-21.34073 -1.0598,-11.46512 -7.2817,-20.60709 -15.203,-28.43066 -4.0418,-3.99228 -9.3114,-5.08222 -14.6362,-1.63843 0.3695,-7.66846 0.739,-15.33692 1.5452,-23.44931 1.477,-0.005 2.5239,0.41809 3.5566,0.87387 8.1941,3.61572 16.2277,4.26227 23.833,-1.43884 1.6709,-1.25266 3.1392,-2.77594 4.7007,-4.17457 -0.5516,6.75699 -1.3457,13.50434 -1.615,20.27256 -1.5934,40.03744 6.3672,78.22506 21.8652,115.08575 9.7253,23.13071 19.59,46.27936 27.6452,70.01294 7.2461,21.34955 12.7183,43.36756 17.7858,65.36426 2.8107,12.20068 3.0948,24.97363 4.6895,37.4668 2.0378,15.96325 1.4859,31.98773 -1.3602,47.63879 -2.4788,13.63208 -6.3407,27.211 -11.3225,40.14667 -9.2531,24.0263 -24.4072,44.41504 -41.7673,63.33477 -15.1606,16.52259 -34.2007,27.56873 -53.441,40.58246 3.0688,-25.22442 5.9745,-49.10827 8.918,-73.44726 5.5778,-4.51148 11.1177,-8.56781 17.1499,-12.73114 8.6594,9.07702 18.3958,14.23224 31.1835,13.63519 14.2749,-0.66644 25.3631,-11.54034 25.6472,-25.89825 0.2548,-12.8761 -4.7368,-24.0044 -11.0811,-34.69025 -2.7768,-4.67706 -6.0178,-9.07861 -9.0482,-13.60522 1.654,-8.70698 3.308,-17.41395 5.4446,-26.53986 4.268,-0.77094 8.1122,-0.81616 11.8279,-1.52991 13.2495,-2.54547 22.5931,-14.34527 21.7174,-27.57733 -0.5033,-7.60492 -4.4384,-13.72437 -9.3788,-19.33429 -8.5253,-9.68042 -19.3845,-15.99957 -30.673,-21.74548 z"
   id="path417" />
<path
   fill="#c42ad1"
   opacity="1"
   stroke="none"
   d="m 1245.9531,301.02948 c -1.5941,0.91901 -3.8519,1.44421 -4.6704,2.82358 -4.068,6.85483 -7.7567,13.93466 -11.8639,21.16104 -0.3126,-11.57755 4.5471,-21.86524 10.6447,-31.38998 15.63,-24.41556 38.0715,-37.98298 66.9436,-41.8464 43.0365,-5.7588 85.6172,19.67327 101.8149,61.42574 8.7212,22.48062 10.9741,45.61063 2.2505,68.64886 -7.4485,19.67066 -20.8374,34.1554 -41.4076,40.20951 -16.8641,4.96338 -33.2978,1.2724 -48.9596,-5.78742 -13.1523,-5.92865 -24.5021,-14.63305 -35.594,-24.27178 1.2517,-0.5456 3.2212,-1.72477 4.3136,-1.1717 4.8412,2.45053 9.7558,4.97287 14.0468,8.25064 10.4369,7.97205 21.6113,14.08011 35.1358,15.98813 0.3763,-0.0696 0.3781,-0.14969 0.4098,0.0961 0.2439,0.51584 0.516,0.69556 1.3218,0.78797 8.3865,-0.6951 16.3176,-1.23926 24.1978,-2.20124 1.9279,-0.23538 3.6891,-1.83847 5.893,-2.76678 2.0203,-0.6774 3.7951,-1.20737 5.3098,-2.15347 17.6811,-11.04349 27.5174,-27.55021 30.0394,-47.67514 3.3427,-26.67472 -7.4554,-49.02488 -26.0082,-67.23862 -21.9865,-21.58453 -48.6627,-29.6543 -79.1629,-22.88126 -10.8054,2.39951 -21.4514,5.42618 -31.0473,11.98383 -7.8974,5.06 -15.4527,10.07028 -22.9069,15.22656 -0.5918,0.40939 -0.4835,1.83075 -0.7007,2.7818 z"
   id="path419" />
<path
   fill="#990c9e"
   opacity="1"
   stroke="none"
   d="m 1149.7837,331.40979 c -1.6516,1.78159 -3.1199,3.30487 -4.7908,4.55753 -7.6053,5.70111 -15.6389,5.05456 -23.833,1.43884 -1.0327,-0.45578 -2.0796,-0.87934 -3.4748,-1.31314 -0.7089,-0.73246 -0.8986,-1.63129 -1.4411,-2.18302 -11.6302,-11.82788 -8.0283,-30.43603 7.3037,-39.55035 2.6715,-1.58804 5.6944,-2.58463 9.3017,-4.0181 8.0318,-0.16354 12.2115,2.46402 14.6571,10.07627 2.0405,6.35104 3.0199,13.04296 4.4693,19.58389 -0.7007,3.67505 -1.4013,7.35007 -2.1921,11.40808 m -15.2429,-12.38892 c 4.6241,-5.14502 6.7595,-11.0415 4.9162,-17.89282 -1.3449,-4.99924 -4.9897,-6.91861 -9.3736,-5.3045 -7.8946,2.9067 -14.9225,15.99835 -13.1909,24.1903 0.8731,4.13056 3.4221,5.96973 7.1346,4.75919 3.5272,-1.15015 6.6825,-3.44153 10.5137,-5.75217 z"
   id="path421" />
<path
   fill="#990c9e"
   opacity="1"
   stroke="none"
   d="m 1145.0692,271.01898 c -5.0251,-6.53607 -6.1629,-13.80231 -4.212,-22.03947 1.0223,-1.49947 2.2977,-2.54148 3.3305,-3.78508 5.8377,-7.02887 13.4978,-10.34363 22.4036,-9.87989 3.0929,0.16106 6.0652,2.63781 9.2608,4.36124 0.1265,7.31102 0.085,14.3177 0.024,21.74158 -2.0562,3.75079 -4.0935,7.08435 -6.7315,10.71054 -5.877,4.12097 -11.5987,4.87054 -17.6094,2.4447 -2.2645,-0.91397 -4.317,-2.35364 -6.4662,-3.55362 m 23.9223,-24.73413 c 0.3217,-4.31174 -1.3877,-7.00075 -5.9889,-6.20683 -7.1271,1.2298 -12.5878,5.09021 -15.5046,11.84326 -2.1693,5.02272 0.1126,8.03334 5.6438,7.96083 7.3244,-0.0961 13.4283,-5.03412 15.8497,-13.59726 z"
   id="path423" />
<path
   fill="#c42ad1"
   opacity="1"
   stroke="none"
   d="m 1144.8618,271.28455 c 2.3566,0.93441 4.4091,2.37408 6.6736,3.28805 6.0107,2.42584 11.7324,1.67627 17.3662,-2.20792 -3.0127,7.86292 -6.7555,15.64866 -9.6457,23.73896 -2.7207,7.61554 -4.5426,15.55218 -7.0201,23.6228 -1.7094,-6.26566 -2.6888,-12.95758 -4.7293,-19.30862 -2.4456,-7.61225 -6.6253,-10.23981 -14.3274,-10.13626 3.5471,-6.17466 7.5113,-12.45304 11.6827,-18.99701 z"
   id="path425" />
<path
   fill="#c42ad1"
   opacity="1"
   stroke="none"
   d="m 1228.644,326.19855 c 0.1874,0.41079 0.1409,1.06253 -0.1386,1.95288 -0.187,-0.41159 -0.1411,-1.06177 0.1386,-1.95288 z"
   id="path427" />
<path
   fill="#190049"
   opacity="1"
   stroke="none"
   d="m 495.03162,1119.9988 c -3.28058,0 -6.06543,0 -8.93244,0 0,-10.69 0,-20.9094 0,-31.101 9.69431,0 19.15784,-0.4736 28.55176,0.1326 9.48877,0.6123 15.00678,6.4985 15.17804,14.6791 0.16858,8.0527 -4.76471,14.0339 -13.94611,15.3711 -6.68789,0.974 -13.56357,0.6587 -20.85125,0.9182 z"
   id="path429" />
<path
   fill="#1c044b"
   opacity="1"
   stroke="none"
   d="m 668.35162,1121.3096 c 1.91938,-4.9471 3.67237,-9.5415 5.86536,-15.2892 5.07025,13.5148 9.7063,25.8722 14.49603,38.6393 -9.99139,0 -19.211,0 -29.03119,0 2.91687,-7.8886 5.71021,-15.4431 8.6698,-23.3501 z"
   id="path431" />
<path
   fill="#1c044b"
   opacity="1"
   stroke="none"
   d="m 1078.0278,1303.3481 c -3.3121,6.9528 -8.4041,9.4467 -14.0218,7.2467 -5.3046,-2.0773 -8.0954,-8.5787 -6.2393,-14.5346 1.7981,-5.7697 6.8125,-8.6096 12.8146,-7.2575 5.8317,1.3138 8.5101,6.3499 7.4465,14.5454 z"
   id="path433" />
<path
   fill="#1c044b"
   opacity="1"
   stroke="none"
   d="m 923.00677,1298.3174 c 1.01844,-5.7304 3.9704,-9.1232 9.5022,-9.8286 4.37616,-0.5581 7.96881,1.0581 10.17249,4.8148 2.53961,4.3295 2.55597,8.8811 -0.24964,13.2117 -2.52246,3.8935 -7.35327,5.6145 -11.82324,4.3088 -4.73535,-1.3833 -7.40582,-5.6167 -7.60181,-12.5067 z"
   id="path435" />
<path
   fill="#1c044b"
   opacity="1"
   stroke="none"
   d="m 1038.108,1300.7957 c -1.6795,7.7137 -6.1296,11.2015 -12.5754,10.2459 -5.424,-0.8038 -9.2911,-6.0482 -8.8875,-12.0528 0.416,-6.1881 5.2115,-10.8819 10.9782,-10.7454 6.2195,0.147 10.0736,4.5956 10.4847,12.5523 z"
   id="path437" />
<path
   fill="#1b034a"
   opacity="1"
   stroke="none"
   d="m 1308.8002,1306.8467 c -4.8833,-9.129 1.2823,-21.7894 12.0003,-22.8595 7.76,-0.7747 13.367,3.1351 15.5422,10.8111 2.2205,7.8363 -0.863,16.153 -7.1855,19.38 -6.5925,3.365 -14.2846,1.4163 -18.9585,-4.8332 -0.4904,-0.6558 -0.8215,-1.4307 -1.3985,-2.4984 z"
   id="path439" />
<path
   fill="#1b004a"
   opacity="1"
   stroke="none"
   d="m 1205.1111,208.89581 c 2.9258,-0.75693 5.4676,-1.5245 8.0661,-1.89473 0.9488,-0.13517 2.732,0.48288 2.8992,1.09488 0.2908,1.06377 -0.077,3.25241 -0.6936,3.46788 -4.4059,1.54006 -8.938,2.72881 -13.4797,3.82221 -0.1166,0.0281 -1.5116,-2.77269 -1.0718,-3.44931 0.8285,-1.275 2.5612,-1.96256 4.2798,-3.04093 z"
   id="path441" />
<path
   fill="#1b034a"
   opacity="1"
   stroke="none"
   d="m 1197.8416,1288.1831 c 1.5498,2.8803 2.8735,5.4612 4.4722,8.5784 -9.8841,0 -18.8234,0 -28.0969,0 0.4396,-5.3542 2.9347,-9.4181 7.7586,-11.6115 5.6761,-2.5812 11.0341,-1.655 15.8661,3.0331 z"
   id="path443" />
<path
   fill="#1c044b"
   opacity="1"
   stroke="none"
   d="m 1271.8258,1296.9648 c -7.2616,0 -14.0475,0 -20.8364,0 0.1489,-7.2839 5.2809,-12.7077 12.183,-13.0747 8.0327,-0.4268 13.6167,4.4888 14.5708,13.0747 -1.8333,0 -3.6375,0 -5.9174,0 z"
   id="path445" />
<path
   fill="#1c044b"
   opacity="1"
   stroke="none"
   d="m 739.82343,1303.5083 c -2.85022,6.0336 -6.8855,7.9242 -11.49176,5.7338 -4.20051,-1.9972 -6.1142,-7.0998 -4.09162,-11.3709 1.75781,-3.712 4.823,-5.3835 8.9129,-4.7764 4.40723,0.6543 6.64569,4.0772 6.67048,10.4135 z"
   id="path447" />
<path
   fill="#1c044b"
   opacity="1"
   stroke="none"
   d="m 1476.4915,1308.8153 c -1.5767,-2.7676 -3.6606,-5.2808 -3.8649,-7.9386 -0.3504,-4.5557 3.8813,-8.0293 8.3869,-7.8662 4.6884,0.1697 8.1652,4.0831 7.9725,8.9733 -0.184,4.661 -3.7536,8.1429 -8.363,7.9674 -1.2744,-0.048 -2.5291,-0.6167 -4.1315,-1.1359 z"
   id="path449" />
<path
   fill="#1c044b"
   opacity="1"
   stroke="none"
   d="m 1448.6138,1293.0054 c 3.7263,0.1246 5.8199,2.1136 4.8663,5.0461 -0.5572,1.7136 -3.3424,3.0239 -5.3949,3.8255 -1.5522,0.6063 -3.5312,0.1202 -5.6189,0.1202 0,-3.0305 0,-5.6115 0,-8.9959 1.9054,0 3.8108,0 6.1475,0 z"
   id="path451" />
<path
   fill="#1c044b"
   opacity="1"
   stroke="none"
   d="m 647.18768,1295.2734 c 2.52259,-2.8232 8.52521,-3.0468 10.47626,-0.8353 2.27484,2.5784 0.93305,6.4592 -2.58313,7.3842 -0.62945,0.1656 -1.31354,0.16 -1.97308,0.1678 -1.7851,0.021 -3.57062,0.01 -5.93671,0.01 0,-2.401 0,-4.3395 0.0167,-6.7239 z"
   id="path453" />
<path
   fill="#1c044b"
   opacity="1"
   stroke="none"
   d="m 622.26526,1298.0371 c 0.77985,2.0022 1.41211,3.6587 2.22803,5.7966 -2.78022,0 -4.96918,0 -7.7931,0 1.29505,-3.086 2.42389,-5.776 3.73621,-8.9032 0.7157,1.1755 1.19843,1.9682 1.82886,3.1066 z"
   id="path455" />
<path
   fill="#1c044b"
   opacity="1"
   stroke="none"
   d="m 587.16431,1297.9431 c 0.0583,-1.7361 0.117,-3.0288 0.19079,-4.6546 4.0008,-0.083 8.45758,-1.9733 10.17414,3.2799 0.99725,3.0521 -1.28394,5.1595 -4.29963,5.2758 -2.44574,0.094 -6.53521,1.9759 -6.0653,-3.9011 z"
   id="path457" />
<path
   fill="#1c044b"
   opacity="1"
   stroke="none"
   d="m 1546.5876,1293.0087 c 3.6789,0.4754 6.0586,2.1403 4.8226,5.5942 -1.7477,4.8833 -6.0551,3.1946 -9.9637,3.1616 0,-2.8224 0,-5.3951 0,-8.4859 1.5751,-0.092 3.1471,-0.1842 5.1411,-0.2699 z"
   id="path459" />
<path
   fill="#fefdfe"
   opacity="1"
   stroke="none"
   d="m 982.01221,661.07532 c 4.94531,-1.87122 9.89062,-3.74243 15.53167,-5.87696 9.09302,27.6391 6.43012,53.32959 -9.94494,76.5293 -20.68408,29.30463 -49.84607,41.12976 -84.96491,34.83618 -30.59307,-5.48254 -51.32086,-24.22174 -63.42926,-53.64978 10.05139,-3.66974 19.51477,-7.12481 29.40167,-10.33532 20.17914,33.38281 62.00428,41.95739 91.54346,18.367 19.16931,-15.30884 26.06909,-35.71509 21.86231,-59.87042 z"
   id="path461" />
<path
   fill="#1b034a"
   opacity="1"
   stroke="none"
   d="m 981.64532,661.13538 c 4.57367,24.09527 -2.32611,44.50152 -21.49542,59.81036 -29.53918,23.59039 -71.36432,15.01581 -91.198,-18.45221 37.3902,-13.9859 74.85834,-27.64197 112.69342,-41.35815 m -49.70465,55.5559 c 11.85334,8.33985 25.91199,-0.47906 27.08368,-12.07324 0.82147,-8.12829 -3.92743,-15.65973 -11.57312,-18.28106 -7.66797,-2.62891 -16.43573,0.78625 -20.53369,7.9981 -4.12671,7.26251 -2.44726,15.53375 5.02313,22.3562 z"
   id="path463" />
<path
   fill="#ee4ff6"
   opacity="1"
   stroke="none"
   d="m 1370.0637,410.93988 c -1.8377,0.97421 -3.5989,2.5773 -5.5268,2.81268 -7.8802,0.96198 -15.8113,1.50614 -24.2078,1.90833 -0.7706,-0.44419 -1.057,-0.59253 -1.3435,-0.74085 0,-3e-5 0,0.0801 0.038,0.0842 -0.7424,-2.11584 -1.2984,-4.35443 -2.3398,-6.33826 -22.2252,-42.34014 -52.3405,-78.04208 -90.5201,-107.37573 0.01,-1.21179 -0.1015,-2.63315 0.4903,-3.04254 7.4542,-5.15628 15.0095,-10.16656 23.1661,-15.01184 12.6199,11.24908 25.1713,21.75494 36.4933,33.45093 26.7406,27.62356 47.862,59.20852 63.7505,94.25311 z"
   id="path465" />
<path
   fill="#990c9e"
   opacity="1"
   stroke="none"
   d="m 1174.5806,684.97229 c 3.3924,4.51514 6.6334,8.91669 9.4102,13.59375 6.3443,10.68585 11.3359,21.81415 11.0811,34.69025 -0.2841,14.35791 -11.3723,25.23181 -25.6472,25.89825 -12.7877,0.59705 -22.5241,-4.55817 -30.9696,-13.89599 -2.4578,-6.19587 -5.4162,-12.08161 -6.6662,-18.31019 -3.3448,-16.66607 7.4018,-36.51739 22.7312,-43.93438 7.1476,-3.45825 13.4786,-2.13495 20.0605,1.95831 m -3.6903,33.13043 c 2.0767,-7.72101 1.7522,-15.15112 -3.0033,-21.89404 -3.2088,-4.54974 -7.9604,-5.41864 -12.6606,-2.5603 -10.676,6.49249 -17.1397,27.24707 -12.0667,38.74554 2.18,4.9411 5.1244,6.30127 10.4113,4.58594 8.9706,-2.9104 14.0882,-9.51904 17.3193,-18.87714 z"
   id="path467" />
<path
   fill="#990c9e"
   opacity="1"
   stroke="none"
   d="m 1173.3701,588.23926 c 11.7991,5.7406 22.6583,12.05975 31.1836,21.74017 4.9404,5.60992 8.8755,11.72937 9.3788,19.33429 0.8757,13.23206 -8.4679,25.03186 -21.7174,27.57733 -3.7157,0.71375 -7.5599,0.75897 -11.7993,1.11579 -28.0584,-4.16425 -40.807,-33.57917 -27.6178,-59.3866 4.1465,-8.11347 10.7169,-12.05664 20.5721,-10.38098 m 15.483,28.64996 c -2.7305,-7.71539 -7.4003,-13.73755 -15.1956,-16.81323 -6.1868,-2.44104 -10.8332,-0.21924 -13.0567,5.97272 -4.3034,11.98388 1.1066,31.17584 11.0423,39.17181 5.464,4.39728 10.4876,3.67896 14.2763,-2.24701 5.0528,-7.90308 5.8587,-16.40375 2.9337,-26.08429 z"
   id="path469" />
<path
   fill="#990c9e"
   opacity="1"
   stroke="none"
   d="m 1149.2007,506.0838 c 12.537,0.4393 22.0556,6.84717 30.6216,14.50537 4.4537,3.98175 8.6753,8.98267 11.0473,14.38178 5.627,12.80841 -2.5728,26.7774 -17.1989,30.88202 -1.5912,0.44647 -3.2251,0.7409 -5.2278,1.12347 -14.2256,0.40839 -24.5539,-5.72766 -30.7025,-17.82684 -6.2887,-12.37445 -4.7416,-24.86688 2.6798,-36.35303 1.8303,-2.83282 5.5542,-4.44208 8.7805,-6.71277 m 13.649,15.50879 c -1.0763,-0.77271 -2.0947,-1.64624 -3.2381,-2.30176 -7.3445,-4.21014 -12.8715,-1.86914 -14.1543,6.42652 -1.5462,9.99908 0.6946,19.22753 7.7157,26.7716 5.4908,5.89978 11.5248,4.80121 15.0729,-2.37555 4.5528,-9.20977 2.7253,-19.70544 -5.3962,-28.52081 z"
   id="path471" />
<path
   fill="#990c9e"
   opacity="1"
   stroke="none"
   d="m 1128.8022,432.17859 c 12.233,0.48355 20.006,8.2142 26.7662,16.61111 3.5665,4.4299 6.4221,10.36045 7.1643,15.93744 1.4309,10.75153 -4.9643,17.42172 -18.411,21.23609 -12.8489,1.20678 -22.3383,-3.64109 -27.7438,-14.88242 -5.5633,-11.56915 -3.3537,-22.77103 4.0991,-32.82986 1.8634,-2.51529 5.1764,-3.95658 8.1252,-6.07236 m 12.3417,16.29907 c -1.6922,-1.56525 -3.1842,-3.46262 -5.1173,-4.62851 -4.4153,-2.66299 -8.4473,-1.59231 -10.1693,3.16416 -3.2003,8.83853 -3.3302,17.68466 2.6459,25.6267 3.8076,5.06028 8.6786,5.05546 12.3347,-0.13702 5.3059,-7.53573 5.4197,-15.47067 0.306,-24.02533 z"
   id="path473" />
<path
   fill="#990c9e"
   opacity="1"
   stroke="none"
   d="m 1115.7523,360.12921 c 5.6306,-3.5914 10.9002,-2.50146 14.942,1.49082 7.9213,7.82357 14.1432,16.96554 15.203,28.43066 1.1507,12.44553 -7.4425,20.70975 -21.4819,20.95471 -11.3726,-1.13177 -19.1273,-6.49151 -22.4253,-17.22076 -3.4111,-11.09687 0.8551,-23.72208 10.2085,-31.2067 1.0342,-0.82754 2.163,-1.53696 3.5537,-2.44873 m -7.409,23.8046 c 0.7592,4.17657 1.0493,8.51465 2.4146,12.48269 1.2713,3.694 4.5671,4.48059 8.2508,3.04133 10.9741,-4.28763 15.4627,-21.49146 7.9284,-30.43098 -3.7591,-4.46026 -8.9543,-5.00018 -12.1449,-0.26028 -2.8656,4.25717 -4.2373,9.52002 -6.4489,15.16724 z"
   id="path475" />
<path
   fill="#190049"
   opacity="1"
   stroke="none"
   d="m 1370.4299,410.98578 c -16.2547,-35.09049 -37.3761,-66.67545 -64.1167,-94.29901 -11.322,-11.69599 -23.8734,-22.20185 -36.1253,-33.46332 8.9687,-6.75998 19.6147,-9.78665 30.4201,-12.18616 30.5002,-6.77304 57.1764,1.29673 79.1629,22.88126 18.5528,18.21374 29.3509,40.5639 26.0082,67.23862 -2.522,20.12493 -12.3583,36.63165 -30.0394,47.67514 -1.5147,0.9461 -3.2895,1.47607 -5.3098,2.15347 z"
   id="path477" />
<path
   fill="#190049"
   opacity="1"
   stroke="none"
   d="m 1339.0173,415.16583 c 0.2548,-0.0975 0.5412,0.0509 0.8377,0.4921 -0.3217,0.20346 -0.5938,0.0237 -0.8377,-0.4921 z"
   id="path479" />
<path
   fill="#1b004a"
   opacity="1"
   stroke="none"
   d="m 1134.2845,319.28137 c -3.5749,2.05014 -6.7302,4.34152 -10.2574,5.49167 -3.7125,1.21054 -6.2615,-0.62863 -7.1346,-4.75919 -1.7316,-8.19195 5.2963,-21.2836 13.1909,-24.1903 4.3839,-1.61411 8.0287,0.30526 9.3736,5.3045 1.8433,6.85132 -0.2921,12.7478 -5.1725,18.15332 z"
   id="path481" />
<path
   fill="#1b004a"
   opacity="1"
   stroke="none"
   d="m 1168.9675,246.69159 c -2.3974,8.1564 -8.5013,13.09445 -15.8257,13.19052 -5.5312,0.0725 -7.8131,-2.93811 -5.6438,-7.96083 2.9168,-6.75305 8.3775,-10.61346 15.5046,-11.84326 4.6012,-0.79392 6.3106,1.89509 5.9649,6.61357 z"
   id="path483" />
<path
   fill="#fdfdfe"
   opacity="1"
   stroke="none"
   d="m 931.65149,716.45813 c -7.18121,-6.5893 -8.86066,-14.86054 -4.73395,-22.12305 4.09796,-7.21185 12.86572,-10.62701 20.53369,-7.9981 7.64569,2.62133 12.39459,10.15277 11.57312,18.28106 -1.17169,11.59418 -15.23034,20.41309 -27.37286,11.84009 z"
   id="path485" />
<path
   fill="#190049"
   opacity="1"
   stroke="none"
   d="m 1170.77,718.4895 c -3.1108,8.97132 -8.2284,15.57996 -17.199,18.49036 -5.2869,1.71533 -8.2313,0.35516 -10.4113,-4.58594 -5.073,-11.49847 1.3907,-32.25305 12.0667,-38.74554 4.7002,-2.85834 9.4518,-1.98944 12.6606,2.5603 4.7555,6.74292 5.08,14.17303 2.883,22.28082 z"
   id="path487" />
<path
   fill="#1b004a"
   opacity="1"
   stroke="none"
   d="m 1188.9531,617.27832 c 2.825,9.29144 2.0191,17.79211 -3.0337,25.69519 -3.7887,5.92597 -8.8123,6.64429 -14.2763,2.24701 -9.9357,-7.99597 -15.3457,-27.18793 -11.0423,-39.17181 2.2235,-6.19196 6.8699,-8.41376 13.0567,-5.97272 7.7953,3.07568 12.4651,9.09784 15.2956,17.20233 z"
   id="path489" />
<path
   fill="#1b004a"
   opacity="1"
   stroke="none"
   d="m 1163.1089,521.84717 c 7.8623,8.56079 9.6898,19.05646 5.137,28.26623 -3.5481,7.17676 -9.5821,8.27533 -15.0729,2.37555 -7.0211,-7.54407 -9.2619,-16.77252 -7.7157,-26.7716 1.2828,-8.29566 6.8098,-10.63666 14.1543,-6.42652 1.1434,0.65552 2.1618,1.52905 3.4973,2.55634 z"
   id="path491" />
<path
   fill="#1b004a"
   opacity="1"
   stroke="none"
   d="m 1141.3735,448.76669 c 4.8841,8.26563 4.7703,16.20057 -0.5356,23.7363 -3.6561,5.19248 -8.5271,5.1973 -12.3347,0.13702 -5.9761,-7.94204 -5.8462,-16.78817 -2.6459,-25.6267 1.722,-4.75647 5.754,-5.82715 10.1693,-3.16416 1.9331,1.16589 3.4251,3.06326 5.3469,4.91754 z"
   id="path493" />
<path
   fill="#1b004a"
   opacity="1"
   stroke="none"
   d="m 1108.4337,383.51981 c 2.1212,-5.23322 3.4929,-10.49607 6.3585,-14.75324 3.1906,-4.7399 8.3858,-4.19998 12.1449,0.26028 7.5343,8.93952 3.0457,26.14335 -7.9284,30.43098 -3.6837,1.43926 -6.9795,0.65267 -8.2508,-3.04133 -1.3653,-3.96804 -1.6554,-8.30612 -2.3242,-12.89669 z"
   id="path495" />
</svg>
