<?xml version="1.0" standalone="no"?>
<!DOCTYPE svg PUBLIC "-//W3C//DTD SVG 20010904//EN"
 "http://www.w3.org/TR/2001/REC-SVG-20010904/DTD/svg10.dtd">
<svg version="1.0" xmlns="http://www.w3.org/2000/svg"
 width="2125.000000pt" height="1470.000000pt" viewBox="0 0 2125.000000 1470.000000"
 preserveAspectRatio="xMidYMid meet">

<g transform="translate(0.000000,1470.000000) scale(0.100000,-0.100000)"
fill="#000000" stroke="none">
<path d="M0 7350 l0 -7350 10625 0 10625 0 0 7350 0 7350 -10625 0 -10625 0 0
-7350z m9995 748 c44 -149 44 -320 0 -471 -42 -146 -109 -259 -215 -365 -159
-159 -365 -244 -595 -245 -324 0 -608 173 -752 460 -26 51 -45 95 -42 96 2 2
69 27 148 56 112 40 146 49 152 39 177 -287 516 -387 812 -241 106 53 211 162
265 273 50 105 66 182 60 303 l-4 95 71 25 c38 14 73 26 77 26 4 1 14 -23 23
-51z m-533 -258 c132 -37 171 -199 72 -292 -134 -125 -343 25 -270 195 18 42
55 75 103 92 47 17 49 17 95 5z m-2405 -3652 c21 -51 167 -399 323 -773 l285
-681 3 768 2 768 275 0 275 0 2 -295 3 -295 224 295 224 295 313 0 c173 0 314
-2 314 -5 0 -3 -125 -161 -279 -352 l-278 -346 205 -326 c113 -179 239 -381
281 -448 l76 -122 3 800 2 799 695 0 695 0 0 -225 0 -225 -425 0 -425 0 0 -80
0 -80 355 0 355 0 0 -195 0 -195 -355 0 -355 0 0 -85 0 -85 430 0 430 0 0
-225 0 -225 -1022 2 -1023 3 -133 215 c-73 118 -143 232 -155 253 l-23 39 -67
-83 -67 -82 0 -174 0 -173 -557 2 -557 3 -41 102 -40 103 -285 0 -285 0 -39
-105 -39 -105 -551 0 -551 1 -153 229 -152 230 -55 0 -55 0 0 -230 0 -230
-597 0 -598 0 -154 250 c-85 138 -157 250 -161 250 -4 0 -37 -36 -73 -80 l-67
-79 0 -171 0 -170 -270 0 -270 0 0 810 0 810 270 0 270 0 2 -300 3 -299 224
295 c124 163 229 298 235 300 6 2 150 3 319 2 l307 -3 -279 -349 c-168 -209
-277 -355 -273 -362 4 -6 131 -208 282 -449 l275 -437 3 801 2 802 503 -3
c480 -4 505 -5 582 -26 132 -36 233 -92 304 -167 96 -103 130 -186 138 -340 6
-120 -11 -208 -60 -299 -38 -73 -134 -171 -199 -206 -27 -14 -48 -29 -48 -33
0 -9 273 -413 293 -434 9 -9 88 169 332 752 l320 765 271 0 272 0 39 -92z
m4548 -268 l280 -349 3 349 2 350 275 0 275 0 0 -810 0 -810 -247 1 -248 0
-295 368 -295 367 -3 -368 -2 -368 -270 0 -270 0 0 810 0 810 258 -1 257 0
280 -349z m-1645 -1995 l0 -45 50 0 50 0 0 -35 0 -35 -50 0 -50 0 0 -94 c0
-108 10 -126 66 -126 35 0 35 -1 32 -37 l-3 -38 -48 1 c-52 0 -93 24 -114 65
-8 14 -13 65 -13 127 l0 104 -91 -4 c-88 -3 -92 -4 -120 -36 -43 -47 -41 -102
5 -148 30 -30 40 -34 85 -34 l51 0 0 -35 c0 -31 -3 -35 -34 -41 -21 -3 -56 0
-89 10 -151 44 -182 235 -54 330 24 18 46 22 138 24 l109 4 0 44 0 44 40 0 40
0 0 -45z m-509 -70 c91 -60 106 -199 31 -278 -51 -54 -124 -75 -194 -57 -178
48 -199 272 -33 352 56 26 142 19 196 -17z m904 16 c161 -73 147 -298 -22
-347 -167 -49 -307 109 -232 263 44 90 157 128 254 84z m402 4 c48 -20 71 -41
94 -87 38 -74 14 -192 -47 -235 -65 -46 -152 -50 -211 -8 l-22 16 -3 -88 -3
-88 -37 -3 -38 -3 0 181 c0 188 7 227 48 274 45 51 149 70 219 41z m798 -5
c33 -17 43 -43 25 -65 -9 -11 -17 -12 -31 -5 -36 20 -115 29 -153 19 -28 -8
-36 -15 -36 -34 0 -27 7 -30 104 -45 77 -12 121 -31 136 -59 25 -47 0 -120
-49 -145 -73 -38 -212 -24 -292 29 l-37 24 -18 -21 c-50 -54 -168 -71 -234
-32 -65 38 -75 62 -78 198 -4 135 2 150 55 144 l28 -3 3 -122 c3 -118 3 -123
29 -143 33 -26 83 -26 117 1 25 20 26 24 26 128 0 122 9 145 55 139 l30 -3 5
-90 c6 -99 14 -120 60 -159 70 -58 220 -63 220 -7 0 28 -19 38 -85 46 -89 11
-131 31 -150 71 -27 58 -1 115 65 143 35 15 169 8 205 -9z m413 -12 c35 -21
61 -62 73 -115 l7 -33 -154 0 -154 0 0 -25 c0 -39 24 -89 54 -113 54 -42 152
-36 207 14 9 8 20 11 23 6 7 -12 -32 -48 -67 -61 -91 -35 -187 5 -228 94 -75
162 91 324 239 233z m378 1 c49 -30 64 -80 64 -214 0 -96 -3 -115 -15 -115
-13 0 -15 21 -15 128 0 140 -6 159 -60 187 -60 31 -137 10 -165 -45 -11 -21
-15 -61 -15 -150 0 -100 -2 -120 -15 -120 -12 0 -15 19 -15 108 0 127 10 169
48 206 52 49 123 55 188 15z m347 17 c50 -18 76 -42 98 -91 35 -77 39 -75
-136 -75 -153 0 -155 0 -155 -22 0 -12 10 -42 21 -66 43 -88 163 -108 235 -41
15 14 24 17 29 9 20 -32 -79 -75 -154 -68 -94 9 -151 78 -151 183 0 88 44 153
119 175 37 12 51 11 94 -4z m337 -1 c0 -9 -9 -15 -24 -15 -32 0 -75 -36 -92
-76 -9 -22 -14 -73 -14 -144 0 -67 -4 -110 -10 -110 -6 0 -10 48 -10 125 0
161 13 191 97 221 49 17 53 17 53 -1z m281 -11 c37 -19 66 -62 78 -115 13 -57
14 -221 1 -290 -18 -98 -105 -147 -208 -119 -46 12 -116 66 -106 82 4 5 18 -1
33 -15 40 -37 65 -47 121 -47 101 0 140 46 140 167 l0 67 -27 -26 c-73 -70
-181 -63 -250 15 -36 41 -48 87 -40 153 13 116 150 184 258 128z m214 -128
l73 -139 52 109 c29 60 58 124 66 142 13 30 34 44 34 22 0 -23 -246 -530 -257
-530 -7 0 -13 2 -13 4 0 1 23 51 50 109 28 58 50 110 50 116 0 5 -34 74 -75
152 -41 79 -75 147 -75 152 0 29 31 -16 95 -137z"/>
<path d="M4860 3654 l0 -156 158 4 c139 3 162 6 200 26 46 24 82 82 82 132 0
51 -35 106 -82 129 -40 19 -61 21 -201 21 l-157 0 0 -156z"/>
<path d="M6737 3623 c-8 -12 -137 -358 -137 -366 0 -4 63 -7 140 -7 100 0 140
3 140 12 0 11 -128 360 -135 366 -2 2 -5 0 -8 -5z"/>
<path d="M9302 1808 c-41 -11 -72 -59 -72 -111 0 -31 7 -46 34 -73 28 -28 42
-34 76 -34 34 0 47 6 71 31 24 26 29 40 29 80 0 81 -61 129 -138 107z"/>
<path d="M10234 1806 c-42 -19 -64 -52 -64 -99 0 -68 40 -116 97 -117 69 0
113 45 113 117 0 47 -22 81 -66 99 -40 17 -41 17 -80 0z"/>
<path d="M10605 1786 c-70 -71 -21 -196 77 -196 60 0 98 42 98 108 0 40 -6 57
-26 81 -22 27 -32 31 -75 31 -39 0 -55 -5 -74 -24z"/>
<path d="M11806 1841 c-29 -19 -65 -73 -66 -98 0 -10 34 -13 139 -13 l140 0
-10 32 c-5 18 -22 46 -38 62 -39 39 -121 48 -165 17z"/>
<path d="M12585 1850 c-30 -12 -64 -53 -75 -88 l-9 -32 140 0 c94 0 139 4 139
11 0 27 -36 83 -64 100 -32 20 -96 24 -131 9z"/>
<path d="M13154 1842 c-69 -44 -96 -112 -74 -185 27 -91 127 -140 207 -101 95
47 112 197 29 273 -36 34 -118 40 -162 13z"/>
</g>
</svg>
