<?xml version="1.0" encoding="UTF-8" standalone="no"?>
<!-- Created with Inkscape (http://www.inkscape.org/) -->

<svg
   version="1.1"
   id="svg2"
   xml:space="preserve"
   width="696.69336"
   height="68.346664"
   viewBox="0 0 696.69336 68.346664"
   sodipodi:docname="manning.svg"
   inkscape:version="1.1.2 (0a00cf5339, 2022-02-04)"
   xmlns:inkscape="http://www.inkscape.org/namespaces/inkscape"
   xmlns:sodipodi="http://sodipodi.sourceforge.net/DTD/sodipodi-0.dtd"
   xmlns="http://www.w3.org/2000/svg"
   xmlns:svg="http://www.w3.org/2000/svg"><defs
     id="defs6" /><sodipodi:namedview
     id="namedview4"
     pagecolor="#ffffff"
     bordercolor="#666666"
     borderopacity="1.0"
     inkscape:pageshadow="2"
     inkscape:pageopacity="0.0"
     inkscape:pagecheckerboard="0"
     showgrid="false"
     inkscape:zoom="1.0298648"
     inkscape:cx="227.21428"
     inkscape:cy="-36.898045"
     inkscape:window-width="1920"
     inkscape:window-height="1043"
     inkscape:window-x="3852"
     inkscape:window-y="0"
     inkscape:window-maximized="1"
     inkscape:current-layer="g8" /><g
     id="g8"
     inkscape:groupmode="layer"
     inkscape:label="ink_ext_XXXXXX"
     transform="matrix(1.3333333,0,0,-1.3333333,0,68.346667)"><g
       id="g10"
       transform="scale(0.1)"><path
         d="m 0,0 95.0117,512.102 292.9223,0.496 2.296,-315.176 52.797,314.473 H 734.551 V 0 H 459.664 L 454.504,431.555 386.934,0 H 112.477 V 452.211 L 22.7734,0 H 0"
         style="fill:#0f65a6;fill-opacity:1;fill-rule:nonzero;stroke:none"
         id="path12" /><path
         d="m 940.855,379.961 c 0.899,5.109 2.7,7.805 5.098,7.805 2.402,0 4.199,-1.504 8.102,-9.297 l 81.895,-169.199 81.6,171.296 c 2.1,4.797 3.9,7.2 6.6,7.2 2.7,0 4.5,-3 5.4,-9.297 l 27.3,-185.391 c 2.7,-18.906 5.69,-27.609 14.69,-30.305 8.7,-2.703 14.71,-2.996 18.6,-2.996 2.7,0 4.81,-0.304 4.81,-2.101 0,-2.403 -3.61,-3.301 -7.81,-3.301 -7.5,0 -48.89,0.898 -60.89,1.797 -6.9,0.605 -8.7,1.504 -8.7,3.301 0,1.504 1.2,2.402 3.29,3.3 1.81,0.594 2.7,4.504 1.51,12.903 l -18,131.992 h -1.2 l -65.4,-136.191 c -6.9,-14.102 -8.4,-16.797 -11.1,-16.797 -2.7,0 -5.7,5.996 -10.5,15 -7.2,13.797 -30.896,59.695 -34.502,68.093 -2.699,6.301 -20.695,44.094 -31.195,66.594 h -1.199 L 933.652,184.973 c -0.593,-5.403 -0.898,-9.297 -0.898,-14.106 0,-5.691 3.902,-8.394 9,-9.597 5.398,-1.2 9.598,-1.493 12.601,-1.493 2.399,0 4.497,-0.605 4.497,-2.101 0,-2.703 -2.7,-3.301 -7.196,-3.301 -12.601,0 -26.097,0.898 -31.5,0.898 -5.703,0 -20.101,-0.898 -29.703,-0.898 -2.996,0 -5.394,0.598 -5.394,3.301 0,1.496 1.796,2.101 4.8,2.101 2.399,0 4.496,0 8.996,0.899 8.403,1.797 10.797,13.496 12.301,23.699 l 29.699,195.586"
         style="fill:#231f20;fill-opacity:1;fill-rule:nonzero;stroke:none"
         id="path14" /><path
         d="m 1318.78,247.668 c 1.5,0 1.8,0.906 1.5,1.805 l -27,74.093 c -0.3,1.2 -0.6,2.704 -1.5,2.704 -0.9,0 -1.5,-1.504 -1.79,-2.704 l -27.61,-73.8 c -0.3,-1.192 0,-2.098 1.2,-2.098 z m -61.2,-15 c -1.5,0 -2.1,-0.598 -2.7,-2.395 l -16.19,-42.898 c -3.01,-7.5 -4.51,-14.699 -4.51,-18.301 0,-5.402 2.7,-9.297 12.01,-9.297 h 4.49 c 3.6,0 4.51,-0.605 4.51,-2.402 0,-2.402 -1.81,-3 -5.11,-3 -9.6,0 -22.5,0.898 -31.79,0.898 -3.3,0 -19.8,-0.898 -35.4,-0.898 -3.9,0 -5.7,0.598 -5.7,3 0,1.797 1.2,2.402 3.6,2.402 2.7,0 6.9,0.293 9.3,0.594 13.8,1.809 19.49,12.004 25.5,27.004 l 75.29,188.387 c 3.6,8.703 5.4,12.004 8.4,12.004 2.7,0 4.5,-2.696 7.5,-9.602 7.2,-16.492 55.2,-138.894 74.4,-184.492 11.4,-27 20.1,-31.199 26.4,-32.695 4.5,-0.907 9,-1.2 12.6,-1.2 2.4,0 3.9,-0.304 3.9,-2.402 0,-2.402 -2.7,-3 -13.8,-3 -10.8,0 -32.7,0 -56.7,0.598 -5.4,0.3 -9,0.3 -9,2.402 0,1.797 1.2,2.402 4.2,2.695 2.1,0.606 4.2,3.297 2.7,6.903 l -24,63.593 c -0.6,1.504 -1.5,2.102 -3,2.102 h -66.9"
         style="fill:#231f20;fill-opacity:1;fill-rule:nonzero;stroke:none"
         id="path16" /><path
         d="m 1472.38,195.176 c 0.6,-23.399 4.5,-31.199 10.51,-33.301 5.09,-1.805 10.79,-2.098 15.59,-2.098 3.3,0 5.1,-0.605 5.1,-2.402 0,-2.402 -2.7,-3 -6.9,-3 -19.5,0 -31.49,0.898 -37.2,0.898 -2.7,0 -16.79,-0.898 -32.4,-0.898 -3.89,0 -6.59,0.305 -6.59,3 0,1.797 1.8,2.402 4.8,2.402 3.89,0 9.29,0.293 13.49,1.493 7.81,2.402 9,11.105 9.31,37.199 l 2.7,177.597 c 0,5.997 0.89,10.196 3.89,10.196 3.3,0 6,-3.899 11.11,-9.297 3.59,-3.899 49.19,-52.793 92.99,-96.301 20.4,-20.391 60.9,-63.594 66,-68.387 h 1.5 l -3,134.688 c -0.3,18.301 -3,24.004 -10.2,27 -4.5,1.797 -11.7,1.797 -15.9,1.797 -3.6,0 -4.8,0.898 -4.8,2.707 0,2.398 3.3,2.691 7.8,2.691 15.6,0 30,-0.894 36.3,-0.894 3.3,0 14.7,0.894 29.39,0.894 3.91,0 6.91,-0.293 6.91,-2.691 0,-1.809 -1.8,-2.707 -5.4,-2.707 -3,0 -5.4,0 -9.01,-0.899 -8.39,-2.402 -10.79,-8.703 -11.09,-25.496 l -3.3,-189.297 c 0,-6.593 -1.2,-9.297 -3.9,-9.297 -3.3,0 -6.9,3.301 -10.2,6.602 -18.9,17.996 -57.3,57.293 -88.5,88.191 -32.7,32.403 -65.99,69.903 -71.39,75.594 h -0.91 l 3.3,-125.984"
         style="fill:#231f20;fill-opacity:1;fill-rule:nonzero;stroke:none"
         id="path18" /><path
         d="m 1756.48,195.176 c 0.6,-23.399 4.5,-31.199 10.5,-33.301 5.1,-1.805 10.8,-2.098 15.6,-2.098 3.3,0 5.1,-0.605 5.1,-2.402 0,-2.402 -2.7,-3 -6.9,-3 -19.5,0 -31.5,0.898 -37.2,0.898 -2.7,0 -16.8,-0.898 -32.4,-0.898 -3.9,0 -6.6,0.305 -6.6,3 0,1.797 1.8,2.402 4.8,2.402 3.9,0 9.3,0.293 13.5,1.493 7.8,2.402 9,11.105 9.3,37.199 l 2.7,177.597 c 0,5.997 0.9,10.196 3.9,10.196 3.3,0 6,-3.899 11.1,-9.297 3.6,-3.899 49.2,-52.793 93,-96.301 20.4,-20.391 60.89,-63.594 65.99,-68.387 h 1.51 l -3.01,134.688 c -0.29,18.301 -2.99,24.004 -10.2,27 -4.49,1.797 -11.7,1.797 -15.9,1.797 -3.59,0 -4.8,0.898 -4.8,2.707 0,2.398 3.31,2.691 7.81,2.691 15.59,0 29.99,-0.894 36.3,-0.894 3.29,0 14.69,0.894 29.39,0.894 3.9,0 6.9,-0.293 6.9,-2.691 0,-1.809 -1.8,-2.707 -5.4,-2.707 -3,0 -5.4,0 -8.99,-0.899 -8.41,-2.402 -10.81,-8.703 -11.11,-25.496 l -3.3,-189.297 c 0,-6.593 -1.19,-9.297 -3.9,-9.297 -3.3,0 -6.89,3.301 -10.2,6.602 -18.9,17.996 -57.3,57.293 -88.49,88.191 -32.7,32.403 -66,69.903 -71.4,75.594 h -0.9 l 3.3,-125.984"
         style="fill:#231f20;fill-opacity:1;fill-rule:nonzero;stroke:none"
         id="path20" /><path
         d="m 2023.78,294.172 c 0,45.594 0,53.992 -0.6,63.594 -0.6,10.203 -3.6,15.3 -10.2,16.797 -3.3,0.906 -7.2,1.199 -10.8,1.199 -3,0 -4.8,0.605 -4.8,3 0,1.804 2.4,2.398 7.2,2.398 11.4,0 30.3,-0.894 39,-0.894 7.5,0 25.19,0.894 36.6,0.894 3.9,0 6.29,-0.594 6.29,-2.398 0,-2.395 -1.79,-3 -4.8,-3 -2.99,0 -5.4,-0.293 -8.99,-0.899 -8.1,-1.496 -10.5,-6.601 -11.1,-17.097 -0.6,-9.602 -0.6,-18 -0.6,-63.594 v -52.805 c 0,-29.09 0,-52.793 1.2,-65.691 0.9,-8.106 3,-13.496 11.99,-14.699 4.2,-0.606 10.81,-1.2 15.31,-1.2 3.29,0 4.8,-0.898 4.8,-2.402 0,-2.102 -2.4,-3 -5.71,-3 -19.8,0 -38.69,0.898 -46.79,0.898 -6.9,0 -25.8,-0.898 -37.8,-0.898 -3.9,0 -6,0.898 -6,3 0,1.504 1.2,2.402 4.8,2.402 4.5,0 8.1,0.594 10.8,1.2 6,1.203 7.8,6.3 8.7,15 1.5,12.597 1.5,36.3 1.5,65.39 v 52.805"
         style="fill:#231f20;fill-opacity:1;fill-rule:nonzero;stroke:none"
         id="path22" /><path
         d="m 2176.18,195.176 c 0.6,-23.399 4.5,-31.199 10.5,-33.301 5.1,-1.805 10.8,-2.098 15.6,-2.098 3.3,0 5.1,-0.605 5.1,-2.402 0,-2.402 -2.7,-3 -6.9,-3 -19.5,0 -31.5,0.898 -37.2,0.898 -2.7,0 -16.8,-0.898 -32.4,-0.898 -3.9,0 -6.6,0.305 -6.6,3 0,1.797 1.8,2.402 4.8,2.402 3.9,0 9.3,0.293 13.5,1.493 7.8,2.402 9,11.105 9.3,37.199 l 2.7,177.597 c 0,5.997 0.9,10.196 3.9,10.196 3.3,0 6,-3.899 11.1,-9.297 3.6,-3.899 49.19,-52.793 92.99,-96.301 20.4,-20.391 60.9,-63.594 66,-68.387 h 1.5 l -3,134.688 c -0.3,18.301 -3,24.004 -10.2,27 -4.5,1.797 -11.7,1.797 -15.9,1.797 -3.6,0 -4.8,0.898 -4.8,2.707 0,2.398 3.3,2.691 7.8,2.691 15.6,0 30,-0.894 36.3,-0.894 3.3,0 14.7,0.894 29.4,0.894 3.9,0 6.9,-0.293 6.9,-2.691 0,-1.809 -1.8,-2.707 -5.4,-2.707 -3,0 -5.4,0 -9,-0.899 -8.4,-2.402 -10.8,-8.703 -11.1,-25.496 l -3.3,-189.297 c 0,-6.593 -1.2,-9.297 -3.9,-9.297 -3.3,0 -6.9,3.301 -10.2,6.602 -18.9,17.996 -57.3,57.293 -88.49,88.191 -32.7,32.403 -66,69.903 -71.4,75.594 h -0.9 l 3.3,-125.984"
         style="fill:#231f20;fill-opacity:1;fill-rule:nonzero;stroke:none"
         id="path24" /><path
         d="m 2624.11,174.473 c 0,-8.094 -0.31,-8.7 -3.91,-10.801 -19.49,-10.195 -48.9,-13.496 -72.29,-13.496 -73.5,0 -138.6,34.797 -138.6,117.597 0,48 24.9,81.594 52.2,98.094 28.8,17.395 55.5,19.496 80.7,19.496 20.7,0 47.09,-3.593 53.09,-4.797 6.31,-1.199 16.8,-2.996 23.71,-3.3 3.59,-0.301 4.2,-1.504 4.2,-3.606 0,-3.297 -2.11,-11.695 -2.11,-49.195 0,-4.797 -0.9,-6.301 -3.3,-6.301 -2.09,0 -2.7,1.504 -2.99,3.906 -0.91,6.895 -2.4,16.496 -10.21,24.895 -8.99,9.598 -32.99,23.398 -66.9,23.398 -16.49,0 -38.4,-1.203 -59.39,-18.593 -16.8,-14.102 -27.6,-36.602 -27.6,-73.497 0,-64.503 41.09,-112.804 104.39,-112.804 7.81,0 18.3,0 25.51,3.301 4.49,2.097 5.69,6.007 5.69,11.105 v 28.203 c 0,14.988 0,26.395 -0.3,35.391 -0.29,10.203 -3,15 -12.89,17.097 -2.4,0.606 -7.5,0.899 -11.7,0.899 -2.7,0 -4.51,0.605 -4.51,2.402 0,2.403 2.11,3 6.31,3 15.59,0 34.49,-0.898 43.49,-0.898 9.3,0 25.2,0.898 35.1,0.898 3.91,0 6,-0.597 6,-3 0,-1.797 -1.8,-2.402 -3.9,-2.402 -2.39,0 -4.5,-0.293 -8.09,-0.899 -8.11,-1.492 -11.11,-6.601 -11.41,-17.097 -0.29,-8.996 -0.29,-20.996 -0.29,-35.996 v -33"
         style="fill:#231f20;fill-opacity:1;fill-rule:nonzero;stroke:none"
         id="path26" /><path
         d="m 2797.8,294.172 c 0,45.594 0,53.992 -0.6,63.594 -0.59,10.203 -3,15 -12.9,17.097 -2.4,0.606 -7.5,0.899 -11.7,0.899 -3.3,0 -5.1,0.605 -5.1,2.707 0,2.097 2.1,2.691 6.61,2.691 15.89,0 34.79,-0.894 43.19,-0.894 12.29,0 29.7,0.894 43.51,0.894 37.49,0 50.99,-12.594 55.79,-17.097 6.6,-6.297 15,-19.793 15,-35.696 0,-42.594 -31.2,-72.594 -73.8,-72.594 -1.51,0 -4.81,0 -6.3,0.293 -1.5,0.301 -3.6,0.606 -3.6,2.704 0,2.402 2.1,3.3 8.39,3.3 16.81,0 40.21,18.899 40.21,49.493 0,9.902 -0.91,30 -17.71,45 -10.8,9.902 -23.09,11.699 -30,11.699 -4.49,0 -8.99,-0.293 -11.7,-1.199 -1.49,-0.598 -2.39,-2.395 -2.39,-5.696 v -120 c 0,-27.597 0,-51.297 1.5,-64.199 0.89,-8.398 2.7,-14.988 11.7,-16.191 4.19,-0.606 10.8,-1.2 15.3,-1.2 3.3,0 4.79,-0.898 4.79,-2.402 0,-2.102 -2.39,-3 -5.69,-3 -19.8,0 -38.7,0.898 -46.49,0.898 -6.91,0 -25.81,-0.898 -37.81,-0.898 -3.89,0 -6,0.898 -6,3 0,1.504 1.21,2.402 4.8,2.402 4.5,0 8.11,0.594 10.8,1.2 6,1.203 7.5,7.793 8.7,16.496 1.5,12.597 1.5,36.297 1.5,63.894 v 52.805"
         style="fill:#231f20;fill-opacity:1;fill-rule:nonzero;stroke:none"
         id="path28" /><path
         d="m 2981.4,294.172 c 0,45.594 0,53.992 -0.59,63.594 -0.61,10.203 -3.01,15 -12.91,17.097 -2.4,0.606 -7.5,0.899 -11.7,0.899 -3.3,0 -5.1,0.605 -5.1,2.707 0,2.097 2.11,2.691 6.6,2.691 15.9,0 34.8,-0.894 43.8,-0.894 7.2,0 26.1,0.894 36.9,0.894 4.5,0 6.6,-0.594 6.6,-2.691 0,-2.102 -1.8,-2.707 -4.8,-2.707 -3.3,0 -5.1,-0.293 -8.7,-0.899 -8.1,-1.496 -10.5,-6.601 -11.1,-17.097 -0.6,-9.602 -0.6,-18 -0.6,-63.594 v -42.004 c 0,-43.496 8.7,-61.797 23.4,-73.801 13.5,-11.09 27.29,-12.293 37.5,-12.293 13.19,0 29.4,4.199 41.39,16.203 16.51,16.493 17.41,43.496 17.41,74.395 v 37.5 c 0,45.594 0,53.992 -0.61,63.594 -0.59,10.203 -3,15 -12.89,17.097 -2.4,0.606 -7.5,0.899 -10.8,0.899 -3.3,0 -5.1,0.605 -5.1,2.707 0,2.097 2.09,2.691 6.29,2.691 15.3,0 34.2,-0.894 34.5,-0.894 3.61,0 22.5,0.894 34.2,0.894 4.2,0 6.3,-0.594 6.3,-2.691 0,-2.102 -1.8,-2.707 -5.4,-2.707 -3.3,0 -5.1,-0.293 -8.7,-0.899 -8.1,-1.496 -10.5,-6.601 -11.09,-17.097 -0.61,-9.602 -0.61,-18 -0.61,-63.594 V 262.07 c 0,-33.3 -3.3,-68.703 -28.5,-90.293 -21.29,-18.3 -42.9,-21.601 -62.4,-21.601 -15.9,0 -44.69,0.898 -66.59,20.691 -15.3,13.801 -26.7,36.008 -26.7,79.504 v 43.801"
         style="fill:#231f20;fill-opacity:1;fill-rule:nonzero;stroke:none"
         id="path30" /><path
         d="m 3325.49,265.07 c -6.3,4.5 -13.2,6.602 -24.9,7.196 -5.39,0.304 -8.4,0.304 -12.89,0.304 -1.21,0 -1.81,-0.597 -1.81,-2.101 v -71.094 c 0,-19.805 0.91,-24.902 10.5,-28.797 8.11,-3.301 15,-3.605 21.91,-3.605 13.49,0 36.29,7.199 36.29,38.398 0,18.606 -6.3,43.801 -29.1,59.699 z m -39.6,24.004 c 0,-2.402 0.91,-3.008 2.1,-3.301 2.7,-0.605 7.21,-0.898 14.1,-0.898 9.91,0 16.51,1.191 21.61,5.691 7.79,6.301 12.29,17.102 12.29,31.797 0,20.11 -11.7,46.504 -37.49,46.504 -4.21,0 -6.9,0 -9.9,-0.605 -2.11,-0.594 -2.71,-1.797 -2.71,-5.098 z m -35.99,5.098 c 0,45.594 0,53.992 -0.6,63.594 -0.6,10.203 -3.01,15 -12.91,17.097 -2.39,0.606 -7.5,0.899 -11.7,0.899 -3.3,0 -5.1,0.605 -5.1,2.707 0,2.097 2.11,2.691 6.61,2.691 15.89,0 34.8,-0.894 40.8,-0.894 14.69,0 26.39,0.894 36.6,0.894 54.3,0 63.89,-29.097 63.89,-45 0,-24.597 -14.1,-39.293 -30.59,-52.488 24.59,-8.406 54.59,-29.707 54.59,-64.805 0,-32.097 -24.9,-65.39 -80.1,-65.39 -7.2,0 -34.49,1.796 -43.49,1.796 -6.9,0 -25.81,-0.898 -37.8,-0.898 -3.9,0 -6,0.898 -6,3 0,1.504 1.2,2.402 4.79,2.402 4.51,0 8.11,0.594 10.8,1.2 6.01,1.203 7.5,7.793 8.71,16.496 1.5,12.597 1.5,36.297 1.5,63.894 v 52.805"
         style="fill:#231f20;fill-opacity:1;fill-rule:nonzero;stroke:none"
         id="path32" /><path
         d="m 3499.5,241.367 c 0,-38.398 0,-59.09 6.3,-64.492 5.09,-4.5 12.9,-6.602 36.29,-6.602 15.9,0 27.6,0.305 35.1,8.399 3.6,3.898 7.2,12.305 7.8,18 0.31,2.703 0.89,4.5 3.3,4.5 2.11,0 2.4,-1.504 2.4,-5.098 0,-3.301 -2.1,-25.801 -4.49,-34.5 -1.81,-6.601 -3.3,-8.097 -18.91,-8.097 -43.2,0 -63,1.796 -87.29,1.796 -6.91,0 -25.81,-0.898 -37.81,-0.898 -3.89,0 -5.99,0.898 -5.99,3 0,1.504 1.2,2.402 4.8,2.402 4.49,0 8.1,0.594 10.8,1.2 6,1.203 7.5,7.793 8.69,16.496 1.51,12.597 1.51,36.297 1.51,63.894 v 52.805 c 0,45.594 0,53.992 -0.61,63.594 -0.59,10.203 -3,15 -12.89,17.097 -2.4,0.606 -6,0.899 -9.9,0.899 -3.3,0 -5.1,0.605 -5.1,2.707 0,2.097 2.09,2.691 6.6,2.691 14.09,0 32.99,-0.894 41.1,-0.894 7.19,0 29.1,0.894 40.8,0.894 4.2,0 6.29,-0.594 6.29,-2.691 0,-2.102 -1.8,-2.707 -5.39,-2.707 -3.31,0 -8.11,-0.293 -11.7,-0.899 -8.11,-1.496 -10.51,-6.601 -11.11,-17.097 -0.59,-9.602 -0.59,-18 -0.59,-63.594 v -52.805"
         style="fill:#231f20;fill-opacity:1;fill-rule:nonzero;stroke:none"
         id="path34" /><path
         d="m 3643.49,294.172 c 0,45.594 0,53.992 -0.59,63.594 -0.61,10.203 -3.61,15.3 -10.21,16.797 -3.3,0.906 -7.2,1.199 -10.8,1.199 -3,0 -4.8,0.605 -4.8,3 0,1.804 2.41,2.398 7.2,2.398 11.4,0 30.3,-0.894 39,-0.894 7.5,0 25.19,0.894 36.6,0.894 3.9,0 6.3,-0.594 6.3,-2.398 0,-2.395 -1.8,-3 -4.8,-3 -3.01,0 -5.41,-0.293 -9,-0.899 -8.11,-1.496 -10.5,-6.601 -11.1,-17.097 -0.6,-9.602 -0.6,-18 -0.6,-63.594 v -52.805 c 0,-29.09 0,-52.793 1.2,-65.691 0.9,-8.106 3,-13.496 12,-14.699 4.2,-0.606 10.8,-1.2 15.29,-1.2 3.31,0 4.81,-0.898 4.81,-2.402 0,-2.102 -2.4,-3 -5.7,-3 -19.81,0 -38.7,0.898 -46.8,0.898 -6.9,0 -25.8,-0.898 -37.79,-0.898 -3.91,0 -6.01,0.898 -6.01,3 0,1.504 1.2,2.402 4.8,2.402 4.51,0 8.1,0.594 10.8,1.2 6,1.203 7.8,6.3 8.71,15 1.49,12.597 1.49,36.3 1.49,65.39 v 52.805"
         style="fill:#231f20;fill-opacity:1;fill-rule:nonzero;stroke:none"
         id="path36" /><path
         d="m 3780.67,182.871 c -29.41,25.801 -37.2,59.395 -37.2,88.496 0,20.403 6.3,55.801 35.1,82.199 21.59,19.801 50.1,31.797 94.79,31.797 18.6,0 29.7,-1.203 43.5,-3 11.4,-1.496 21,-4.199 30,-5.097 3.3,-0.301 4.5,-1.797 4.5,-3.606 0,-2.398 -0.91,-5.992 -1.5,-16.492 -0.6,-9.902 -0.3,-26.406 -0.9,-32.402 -0.3,-4.5 -0.9,-6.895 -3.6,-6.895 -2.41,0 -3,2.395 -3,6.594 -0.3,9.305 -4.2,19.805 -11.7,27.598 -9.9,10.507 -33.3,18.601 -60.9,18.601 -26.09,0 -43.19,-6.601 -56.4,-18.601 -21.89,-20.098 -27.59,-48.594 -27.59,-77.696 0,-71.398 54.29,-106.797 94.49,-106.797 26.7,0 42.9,3.008 54.9,16.805 5.1,5.695 9,14.395 10.2,19.797 0.89,4.805 1.5,6.004 3.9,6.004 2.1,0 2.7,-2.098 2.7,-4.5 0,-3.606 -3.61,-29.699 -6.6,-39.903 -1.5,-5.097 -2.7,-6.601 -7.8,-8.703 -12,-4.793 -34.8,-6.894 -54,-6.894 -41.09,0 -75.6,8.996 -102.89,32.695"
         style="fill:#231f20;fill-opacity:1;fill-rule:nonzero;stroke:none"
         id="path38" /><path
         d="m 4098.29,247.668 c 1.5,0 1.8,0.906 1.5,1.805 l -27,74.093 c -0.3,1.2 -0.6,2.704 -1.5,2.704 -0.9,0 -1.5,-1.504 -1.8,-2.704 l -27.6,-73.8 c -0.3,-1.192 0,-2.098 1.2,-2.098 z m -61.2,-15 c -1.5,0 -2.09,-0.598 -2.7,-2.395 l -16.2,-42.898 c -3,-7.5 -4.49,-14.699 -4.49,-18.301 0,-5.402 2.69,-9.297 11.99,-9.297 h 4.5 c 3.6,0 4.5,-0.605 4.5,-2.402 0,-2.402 -1.79,-3 -5.1,-3 -9.59,0 -22.5,0.898 -31.8,0.898 -3.29,0 -19.8,-0.898 -35.39,-0.898 -3.91,0 -5.71,0.598 -5.71,3 0,1.797 1.21,2.402 3.61,2.402 2.69,0 6.89,0.293 9.29,0.594 13.8,1.809 19.51,12.004 25.5,27.004 l 75.3,188.387 c 3.6,8.703 5.4,12.004 8.4,12.004 2.7,0 4.5,-2.696 7.5,-9.602 7.2,-16.492 55.2,-138.894 74.4,-184.492 11.39,-27 20.1,-31.199 26.39,-32.695 4.51,-0.907 9.01,-1.2 12.6,-1.2 2.4,0 3.91,-0.304 3.91,-2.402 0,-2.402 -2.71,-3 -13.81,-3 -10.79,0 -32.7,0 -56.69,0.598 -5.4,0.3 -9,0.3 -9,2.402 0,1.797 1.2,2.402 4.2,2.695 2.1,0.606 4.2,3.297 2.7,6.903 l -24,63.593 c -0.6,1.504 -1.5,2.102 -3,2.102 h -66.9"
         style="fill:#231f20;fill-opacity:1;fill-rule:nonzero;stroke:none"
         id="path40" /><path
         d="m 4255.5,364.367 -44.69,-1.203 c -17.4,-0.594 -24.6,-2.098 -29.1,-8.699 -3,-4.504 -4.5,-8.098 -5.1,-10.5 -0.6,-2.402 -1.5,-3.602 -3.29,-3.602 -2.1,0 -2.71,1.504 -2.71,4.805 0,4.793 5.7,32.098 6.3,34.5 0.9,3.898 1.8,5.695 3.6,5.695 2.41,0 5.4,-3 12.9,-3.593 8.7,-0.903 20.1,-1.504 30,-1.504 h 118.79 c 19.2,0 26.4,2.996 28.8,2.996 2.1,0 2.4,-1.797 2.4,-6.297 0,-6.301 -0.9,-27.004 -0.9,-34.797 -0.3,-2.996 -0.89,-4.805 -2.7,-4.805 -2.39,0 -3,1.504 -3.3,6.004 l -0.29,3.305 c -0.61,7.793 -8.71,16.191 -35.4,16.797 l -37.81,0.898 v -123 c 0,-27.597 0,-51.297 1.51,-64.199 0.9,-8.398 2.69,-14.988 11.7,-16.191 4.2,-0.606 10.8,-1.2 15.3,-1.2 3.3,0 4.79,-0.898 4.79,-2.402 0,-2.102 -2.4,-3 -5.7,-3 -19.79,0 -38.69,0.898 -47.09,0.898 -6.9,0 -25.8,-0.898 -37.8,-0.898 -3.9,0 -6,0.898 -6,3 0,1.504 1.2,2.402 4.8,2.402 4.5,0 8.1,0.594 10.8,1.2 5.99,1.203 7.8,7.793 8.7,16.496 1.49,12.597 1.49,36.297 1.49,63.894 v 123"
         style="fill:#231f20;fill-opacity:1;fill-rule:nonzero;stroke:none"
         id="path42" /><path
         d="m 4428.61,294.172 c 0,45.594 0,53.992 -0.61,63.594 -0.59,10.203 -3.59,15.3 -10.19,16.797 -3.3,0.906 -7.2,1.199 -10.8,1.199 -3,0 -4.8,0.605 -4.8,3 0,1.804 2.39,2.398 7.2,2.398 11.4,0 30.29,-0.894 38.99,-0.894 7.5,0 25.21,0.894 36.6,0.894 3.9,0 6.3,-0.594 6.3,-2.398 0,-2.395 -1.79,-3 -4.79,-3 -3.01,0 -5.4,-0.293 -9.01,-0.899 -8.09,-1.496 -10.49,-6.601 -11.1,-17.097 -0.59,-9.602 -0.59,-18 -0.59,-63.594 v -52.805 c 0,-29.09 0,-52.793 1.2,-65.691 0.9,-8.106 2.99,-13.496 12,-14.699 4.2,-0.606 10.8,-1.2 15.29,-1.2 3.3,0 4.81,-0.898 4.81,-2.402 0,-2.102 -2.41,-3 -5.71,-3 -19.79,0 -38.7,0.898 -46.79,0.898 -6.91,0 -25.8,-0.898 -37.81,-0.898 -3.89,0 -5.99,0.898 -5.99,3 0,1.504 1.2,2.402 4.8,2.402 4.49,0 8.1,0.594 10.79,1.2 6.01,1.203 7.81,6.3 8.7,15 1.51,12.597 1.51,36.3 1.51,65.39 v 52.805"
         style="fill:#231f20;fill-opacity:1;fill-rule:nonzero;stroke:none"
         id="path44" /><path
         d="m 4731.67,262.07 c 0,67.2 -38.71,108.899 -87.9,108.899 -34.5,0 -73.79,-19.199 -73.79,-93.899 0,-62.402 34.49,-111.894 92.09,-111.894 21,0 69.6,10.195 69.6,96.894 z m -203.09,5.703 c 0,51.29 33.9,117.59 123.89,117.59 74.69,0 121.2,-43.496 121.2,-112.199 0,-68.691 -48,-122.988 -124.2,-122.988 -86.1,0 -120.89,64.492 -120.89,117.597"
         style="fill:#231f20;fill-opacity:1;fill-rule:nonzero;stroke:none"
         id="path46" /><path
         d="m 4854.7,195.176 c 0.61,-23.399 4.5,-31.199 10.5,-33.301 5.1,-1.805 10.8,-2.098 15.61,-2.098 3.3,0 5.09,-0.605 5.09,-2.402 0,-2.402 -2.7,-3 -6.9,-3 -19.49,0 -31.5,0.898 -37.2,0.898 -2.69,0 -16.8,-0.898 -32.39,-0.898 -3.91,0 -6.6,0.305 -6.6,3 0,1.797 1.79,2.402 4.79,2.402 3.91,0 9.31,0.293 13.51,1.493 7.79,2.402 8.99,11.105 9.3,37.199 l 2.69,177.597 c 0,5.997 0.91,10.196 3.91,10.196 3.3,0 5.99,-3.899 11.09,-9.297 3.6,-3.899 49.2,-52.793 93,-96.301 20.4,-20.391 60.9,-63.594 65.99,-68.387 h 1.51 l -3,134.688 c -0.3,18.301 -3.01,24.004 -10.2,27 -4.51,1.797 -11.7,1.797 -15.9,1.797 -3.6,0 -4.8,0.898 -4.8,2.707 0,2.398 3.3,2.691 7.8,2.691 15.6,0 30,-0.894 36.29,-0.894 3.3,0 14.71,0.894 29.41,0.894 3.89,0 6.89,-0.293 6.89,-2.691 0,-1.809 -1.79,-2.707 -5.4,-2.707 -3,0 -5.4,0 -8.99,-0.899 -8.4,-2.402 -10.8,-8.703 -11.11,-25.496 l -3.3,-189.297 c 0,-6.593 -1.2,-9.297 -3.89,-9.297 -3.3,0 -6.91,3.301 -10.21,6.602 -18.89,17.996 -57.29,57.293 -88.49,88.191 -32.7,32.403 -66,69.903 -71.4,75.594 h -0.9 l 3.3,-125.984"
         style="fill:#231f20;fill-opacity:1;fill-rule:nonzero;stroke:none"
         id="path48" /><path
         d="m 5105.5,157.969 c -4.79,2.101 -5.69,3.605 -5.69,10.207 0,16.492 1.2,34.5 1.49,39.297 0.31,4.5 1.2,7.8 3.61,7.8 2.69,0 3,-2.703 3,-5.097 0,-3.906 1.2,-10.203 2.7,-15.301 6.59,-22.199 24.3,-30.305 42.89,-30.305 27,0 40.21,18.301 40.21,34.2 0,14.699 -4.51,28.8 -29.41,48 l -13.8,10.8 c -33,25.797 -44.39,46.797 -44.39,71.09 0,33.012 27.6,56.703 69.3,56.703 19.5,0 32.09,-3 39.89,-5.097 2.7,-0.598 4.2,-1.504 4.2,-3.606 0,-3.894 -1.19,-12.597 -1.19,-35.996 0,-6.601 -0.91,-8.992 -3.31,-8.992 -2.09,0 -3,1.797 -3,5.398 0,2.696 -1.5,11.993 -7.8,19.797 -4.5,5.703 -13.2,14.696 -32.7,14.696 -22.2,0 -35.69,-12.903 -35.69,-30.899 0,-13.797 6.89,-24.297 31.79,-43.191 l 8.4,-6.301 c 36,-27.899 49.2,-47.996 49.2,-76.504 0,-17.391 -6.6,-38.094 -28.19,-52.195 -15,-9.602 -31.81,-12.297 -47.71,-12.297 -17.39,0 -30.9,2.101 -43.8,7.793"
         style="fill:#231f20;fill-opacity:1;fill-rule:nonzero;stroke:none"
         id="path50" /></g></g></svg>
