<?xml version="1.0" encoding="UTF-8"?>
<svg id="Layer_2" data-name="Layer 2" xmlns="http://www.w3.org/2000/svg" viewBox="0 0 337.65 72" width="337.65" height="72">
	<defs>
		<style>
			.cls-1 {
			fill: #00aeef;
			}

			.cls-2 {
			fill: #f26522;
			}

			.cls-3 {
			fill: #ffc20d;
			}

			.cls-4 {
			fill: #8dc63f;
			}

			.cls-5 {
			fill: #77787b;
			}
		</style>
	</defs>
	<g id="Layer_1-2" data-name="Layer 1">
		<g>
			<path class="cls-5" d="m322.95,32.59h-10.86v25h-7.38v-25h-5.18v-5.97h5.18v-4.31c0-3.25,1.06-5.92,3.18-8,2.12-2.08,4.84-3.12,8.15-3.12.88,0,1.67.05,2.35.14.68.09,1.28.23,1.81.41v6.3c-.24-.14-.66-.31-1.27-.51-.6-.2-1.3-.3-2.08-.3-1.53,0-2.7.48-3.53,1.43-.82.95-1.23,2.36-1.23,4.23v3.74h10.86v-6.96l7.32-2.23v9.19h7.38v5.97h-7.38v14.49c0,1.91.35,3.25,1.04,4.04.69.78,1.78,1.17,3.27,1.17.42,0,.93-.1,1.52-.3.59-.2,1.11-.44,1.55-.72v6.02c-.46.26-1.23.5-2.3.72-1.07.22-2.13.33-3.18.33-3.07,0-5.38-.82-6.91-2.45-1.54-1.64-2.31-4.1-2.31-7.4v-15.91Zm-48.41,9.73c0,3.23.73,5.7,2.2,7.41,1.47,1.71,3.56,2.56,6.3,2.56s4.67-.85,6.06-2.56c1.39-1.71,2.08-4.24,2.08-7.59s-.72-5.85-2.15-7.55c-1.44-1.7-3.45-2.55-6.04-2.55s-4.74.89-6.22,2.67c-1.48,1.78-2.21,4.31-2.21,7.61m-7.59.24c0-5.12,1.45-9.18,4.34-12.17,2.89-2.99,6.91-4.49,12.05-4.49,4.84,0,8.62,1.44,11.34,4.32,2.72,2.88,4.08,6.77,4.08,11.67s-1.45,9.02-4.34,11.99c-2.89,2.97-6.83,4.46-11.81,4.46s-8.61-1.41-11.43-4.23c-2.82-2.82-4.23-6.67-4.23-11.55m-16.42-7.8c0,1.05.33,1.86.99,2.46.66.59,2.13,1.34,4.4,2.24,2.91,1.17,4.96,2.48,6.13,3.93,1.18,1.46,1.76,3.22,1.76,5.29,0,2.91-1.12,5.25-3.36,7.02-2.24,1.77-5.27,2.65-9.08,2.65-1.29,0-2.71-.16-4.26-.47-1.56-.31-2.88-.71-3.96-1.19v-7.17c1.33.92,2.75,1.66,4.28,2.2,1.53.54,2.91.81,4.16.81,1.65,0,2.86-.23,3.64-.69.78-.46,1.18-1.24,1.18-2.32,0-1.01-.41-1.85-1.22-2.55-.81-.69-2.35-1.49-4.62-2.4-2.69-1.12-4.6-2.39-5.72-3.8s-1.69-3.19-1.69-5.36c0-2.79,1.11-5.09,3.33-6.88,2.22-1.8,5.1-2.7,8.63-2.7,1.08,0,2.3.12,3.64.36,1.35.24,2.47.55,3.37.93v6.93c-.96-.64-2.09-1.19-3.37-1.66-1.29-.46-2.56-.69-3.83-.69-1.39,0-2.47.27-3.24.81-.77.54-1.16,1.29-1.16,2.23m-35.07,7.56c0,3.23.73,5.7,2.2,7.41,1.46,1.71,3.56,2.56,6.29,2.56s4.67-.85,6.06-2.56c1.39-1.71,2.08-4.24,2.08-7.59s-.72-5.85-2.15-7.55c-1.44-1.7-3.45-2.55-6.04-2.55s-4.75.89-6.22,2.67c-1.48,1.78-2.21,4.31-2.21,7.61m-7.59.24c0-5.12,1.45-9.18,4.34-12.17,2.89-2.99,6.91-4.49,12.05-4.49,4.84,0,8.62,1.44,11.34,4.32,2.72,2.88,4.08,6.77,4.08,11.67s-1.45,9.02-4.34,11.99c-2.89,2.97-6.83,4.46-11.81,4.46s-8.61-1.41-11.43-4.23c-2.82-2.82-4.23-6.67-4.23-11.55m-3.14-16.45c.58,0,1.1.04,1.57.12.46.08.85.18,1.17.3v7.38c-.38-.28-.94-.55-1.67-.8-.73-.25-1.62-.38-2.67-.38-1.79,0-3.3.75-4.53,2.26-1.24,1.51-1.85,3.83-1.85,6.96v15.63h-7.29v-30.97h7.29v4.88h.12c.66-1.69,1.67-3.01,3.01-3.96,1.35-.95,2.96-1.43,4.85-1.43m-27.96,26.18c1.08,0,2.28-.25,3.59-.75,1.3-.5,2.51-1.16,3.61-1.99v6.78c-1.16.66-2.49,1.16-3.96,1.51-1.48.34-3.1.51-4.87.51-4.56,0-8.26-1.44-11.12-4.32-2.85-2.88-4.28-6.56-4.28-11.04,0-4.98,1.46-9.08,4.37-12.31,2.91-3.22,7.04-4.84,12.38-4.84,1.37,0,2.75.18,4.14.53,1.4.35,2.5.76,3.33,1.22v6.99c-1.12-.82-2.27-1.46-3.45-1.91-1.17-.45-2.38-.68-3.6-.68-2.87,0-5.19.93-6.96,2.8-1.77,1.87-2.65,4.39-2.65,7.56s.85,5.57,2.55,7.32c1.7,1.75,4,2.62,6.91,2.62m-22.11,5.3h-7.29v-30.97h7.29v30.97Zm-8.04-39.92c0-1.21.44-2.21,1.31-3.03.87-.81,1.91-1.22,3.12-1.22,1.29,0,2.35.42,3.19,1.25.84.83,1.27,1.83,1.27,3s-.43,2.18-1.3,2.98c-.86.8-1.92,1.2-3.16,1.2s-2.29-.41-3.15-1.22c-.85-.81-1.28-1.8-1.28-2.97m-6.27-3.28v43.2h-7.5V23.74h-.12l-13.41,33.86h-4.97l-13.74-33.86h-.09v33.86h-6.93V14.4h10.76l12.41,32.02h.18l13.11-32.02h10.3Z" />
			<path class="cls-2" d="m34.22,34.22H0V0h34.22v34.22Z" />
			<path class="cls-4" d="m72,34.22h-34.22V0h34.22v34.22Z" />
			<path class="cls-1" d="m34.22,72H0v-34.22h34.22v34.22Z" />
			<path class="cls-3" d="m72,72h-34.22v-34.22h34.22v34.22Z" />
		</g>
	</g>
</svg>
