<?xml version="1.0" encoding="UTF-8" standalone="no"?>
<!DOCTYPE svg PUBLIC "-//W3C//DTD SVG 1.1//EN" "http://www.w3.org/Graphics/SVG/1.1/DTD/svg11.dtd">
<svg xmlns="http://www.w3.org/2000/svg" xmlns:xlink="http://www.w3.org/1999/xlink" version="1.1" width="482pt" height="216pt" viewBox="0 0 482 216">
<g enable-background="new">
<g id="Layer-1" data-name="MS-symbol">
<clipPath id="cp0">
<path transform="matrix(1,0,0,-1,0,216)" d="M 0 216 L 482 216 L 482 0 L 0 0 Z "/>
</clipPath>
<g clip-path="url(#cp0)">
<path transform="matrix(1,0,0,-1,394.9424,104.5891)" d="M 0 0 L -10.858 0 L -10.858 -25.004 L -18.238 -25.004 L -18.238 0 L -23.42 0 L -23.42 5.965 L -18.238 5.965 L -18.238 10.273 C -18.238 13.527 -17.179 16.193 -15.06 18.271 C -12.941 20.35 -10.225 21.389 -6.911 21.389 C -6.028 21.389 -5.244 21.344 -4.561 21.254 C -3.879 21.163 -3.276 21.027 -2.754 20.847 L -2.754 14.551 C -2.995 14.691 -3.417 14.862 -4.019 15.063 C -4.622 15.263 -5.315 15.364 -6.097 15.364 C -7.625 15.364 -8.799 14.887 -9.623 13.933 C -10.447 12.979 -10.858 11.568 -10.858 9.701 L -10.858 5.965 L 0 5.965 L 0 12.924 L 7.321 15.153 L 7.321 5.965 L 14.702 5.965 L 14.702 0 L 7.321 0 L 7.321 -14.49 C 7.321 -16.399 7.667 -17.744 8.36 -18.527 C 9.053 -19.31 10.142 -19.702 11.629 -19.702 C 12.05 -19.702 12.557 -19.602 13.15 -19.401 C 13.742 -19.2 14.259 -18.96 14.702 -18.678 L 14.702 -24.703 C 14.239 -24.964 13.471 -25.205 12.397 -25.426 C 11.323 -25.647 10.263 -25.757 9.219 -25.757 C 6.146 -25.757 3.841 -24.94 2.305 -23.302 C .768 -21.665 0 -19.2 0 -15.906 Z M -48.407 -9.731 C -48.407 -12.964 -47.674 -15.434 -46.208 -17.142 C -44.742 -18.849 -42.643 -19.702 -39.912 -19.702 C -37.26 -19.702 -35.242 -18.849 -33.857 -17.142 C -32.471 -15.434 -31.778 -12.904 -31.778 -9.55 C -31.778 -6.216 -32.496 -3.701 -33.932 -2.003 C -35.368 -.306 -37.382 .542 -39.972 .542 C -42.643 .542 -44.717 -.346 -46.193 -2.124 C -47.669 -3.901 -48.407 -6.437 -48.407 -9.731 M -55.999 -9.971 C -55.999 -4.85 -54.553 -.794 -51.661 2.199 C -48.769 5.192 -44.752 6.688 -39.611 6.688 C -34.77 6.688 -30.99 5.247 -28.268 2.365 C -25.547 -.518 -24.186 -4.409 -24.186 -9.309 C -24.186 -14.33 -25.633 -18.327 -28.524 -21.299 C -31.416 -24.272 -35.353 -25.757 -40.334 -25.757 C -45.134 -25.757 -48.945 -24.347 -51.766 -21.525 C -54.588 -18.704 -55.999 -14.852 -55.999 -9.971 M -72.416 -2.169 C -72.416 -3.214 -72.085 -4.032 -71.422 -4.625 C -70.76 -5.217 -69.294 -5.965 -67.024 -6.868 C -64.112 -8.034 -62.068 -9.344 -60.893 -10.8 C -59.718 -12.256 -59.131 -14.019 -59.131 -16.087 C -59.131 -18.999 -60.251 -21.339 -62.49 -23.106 C -64.73 -24.874 -67.757 -25.757 -71.573 -25.757 C -72.858 -25.757 -74.279 -25.602 -75.836 -25.29 C -77.392 -24.979 -78.713 -24.583 -79.797 -24.1 L -79.797 -16.931 C -78.471 -17.855 -77.046 -18.587 -75.519 -19.129 C -73.993 -19.672 -72.608 -19.943 -71.362 -19.943 C -69.715 -19.943 -68.5 -19.712 -67.717 -19.25 C -66.933 -18.789 -66.542 -18.015 -66.542 -16.931 C -66.542 -15.926 -66.948 -15.078 -67.762 -14.385 C -68.575 -13.692 -70.117 -12.893 -72.386 -11.99 C -75.077 -10.865 -76.985 -9.6 -78.11 -8.194 C -79.235 -6.788 -79.797 -5.001 -79.797 -2.832 C -79.797 -.04 -78.688 2.254 -76.468 4.052 C -74.25 5.849 -71.372 6.748 -67.837 6.748 C -66.753 6.748 -65.537 6.628 -64.192 6.387 C -62.846 6.145 -61.722 5.834 -60.818 5.453 L -60.818 -1.476 C -61.782 -.833 -62.907 -.282 -64.192 .181 C -65.478 .643 -66.753 .874 -68.018 .874 C -69.404 .874 -70.483 .603 -71.256 .061 C -72.03 -.482 -72.416 -1.225 -72.416 -2.169 M -107.482 -9.731 C -107.482 -12.964 -106.749 -15.434 -105.282 -17.142 C -103.817 -18.849 -101.718 -19.702 -98.987 -19.702 C -96.335 -19.702 -94.317 -18.849 -92.932 -17.142 C -91.546 -15.434 -90.853 -12.904 -90.853 -9.55 C -90.853 -6.216 -91.571 -3.701 -93.007 -2.003 C -94.443 -.306 -96.456 .542 -99.046 .542 C -101.718 .542 -103.791 -.346 -105.268 -2.124 C -106.744 -3.901 -107.482 -6.437 -107.482 -9.731 M -115.074 -9.971 C -115.074 -4.85 -113.628 -.794 -110.736 2.199 C -107.843 5.192 -103.827 6.688 -98.685 6.688 C -93.845 6.688 -90.064 5.247 -87.343 2.365 C -84.622 -.518 -83.261 -4.409 -83.261 -9.309 C -83.261 -14.33 -84.707 -18.327 -87.599 -21.299 C -90.491 -24.272 -94.427 -25.757 -99.408 -25.757 C -104.209 -25.757 -108.019 -24.347 -110.841 -21.525 C -113.663 -18.704 -115.074 -14.852 -115.074 -9.971 M -118.21 6.477 C -117.628 6.477 -117.105 6.436 -116.643 6.356 C -116.181 6.276 -115.79 6.176 -115.468 6.055 L -115.468 -1.325 C -115.85 -1.044 -116.407 -.779 -117.14 -.527 C -117.873 -.276 -118.762 -.151 -119.806 -.151 C -121.594 -.151 -123.105 -.904 -124.34 -2.41 C -125.575 -3.916 -126.193 -6.236 -126.193 -9.369 L -126.193 -25.004 L -133.484 -25.004 L -133.484 5.965 L -126.193 5.965 L -126.193 1.085 L -126.073 1.085 C -125.41 2.772 -124.406 4.092 -123.06 5.046 C -121.714 5.999 -120.098 6.477 -118.21 6.477 M -146.166 -19.702 C -145.082 -19.702 -143.887 -19.452 -142.581 -18.949 C -141.276 -18.447 -140.071 -17.785 -138.966 -16.961 L -138.966 -23.739 C -140.131 -24.402 -141.451 -24.904 -142.928 -25.245 C -144.403 -25.587 -146.026 -25.757 -147.793 -25.757 C -152.352 -25.757 -156.058 -24.317 -158.909 -21.434 C -161.761 -18.553 -163.187 -14.872 -163.187 -10.394 C -163.187 -5.413 -161.731 -1.311 -158.818 1.913 C -155.907 5.137 -151.78 6.748 -146.437 6.748 C -145.071 6.748 -143.691 6.572 -142.294 6.221 C -140.899 5.869 -139.79 5.463 -138.966 5.001 L -138.966 -1.988 C -140.091 -1.165 -141.24 -.527 -142.416 -.075 C -143.59 .376 -144.791 .603 -146.015 .603 C -148.887 .603 -151.207 -.331 -152.974 -2.199 C -154.742 -4.067 -155.626 -6.587 -155.626 -9.761 C -155.626 -12.893 -154.777 -15.334 -153.08 -17.081 C -151.383 -18.829 -149.078 -19.702 -146.166 -19.702 M -168.278 -25.004 L -175.568 -25.004 L -175.568 5.965 L -168.278 5.965 Z M -176.322 14.912 C -176.322 16.117 -175.885 17.126 -175.011 17.94 C -174.137 18.753 -173.098 19.16 -171.893 19.16 C -170.608 19.16 -169.543 18.743 -168.7 17.91 C -167.856 17.076 -167.434 16.077 -167.434 14.912 C -167.434 13.727 -167.866 12.733 -168.73 11.93 C -169.594 11.126 -170.648 10.725 -171.893 10.725 C -173.139 10.725 -174.188 11.131 -175.041 11.944 C -175.895 12.759 -176.322 13.747 -176.322 14.912 M -182.595 18.196 L -182.595 -25.004 L -190.096 -25.004 L -190.096 8.857 L -190.216 8.857 L -203.623 -25.004 L -208.593 -25.004 L -222.331 8.857 L -222.421 8.857 L -222.421 -25.004 L -229.35 -25.004 L -229.35 18.196 L -218.595 18.196 L -206.183 -13.828 L -206.003 -13.828 L -192.898 18.196 Z " fill="#77787b"/>
<path transform="matrix(1,0,0,-1,0,216)" d="M 106.214 109.786 L 71.996 109.786 L 71.996 144.004 L 106.214 144.004 Z " fill="#f26522"/>
<path transform="matrix(1,0,0,-1,0,216)" d="M 143.993 109.786 L 109.774997 109.786 L 109.774997 144.004 L 143.993 144.004 Z " fill="#8dc63f"/>
<path transform="matrix(1,0,0,-1,0,216)" d="M 106.214 72.007 L 71.996 72.007 L 71.996 106.225009 L 106.214 106.225009 Z " fill="#00aeef"/>
<path transform="matrix(1,0,0,-1,0,216)" d="M 143.993 72.007 L 109.774997 72.007 L 109.774997 106.225009 L 143.993 106.225009 Z " fill="#ffc20d"/>
</g>
</g>
</g>
</svg>
