<?xml version="1.0" encoding="utf-8"?>
<!-- Generator: Adobe Illustrator 22.0.1, SVG Export Plug-In . SVG Version: 6.00 Build 0)  -->
<svg version="1.1" id="Layer_1" xmlns="http://www.w3.org/2000/svg" xmlns:xlink="http://www.w3.org/1999/xlink" x="0px" y="0px"
	 viewBox="0 0 601 194" style="enable-background:new 0 0 601 194;" xml:space="preserve">
<metadata><?xpacket begin="﻿" id="W5M0MpCehiHzreSzNTczkc9d"?>
<x:xmpmeta xmlns:x="adobe:ns:meta/" x:xmptk="Adobe XMP Core 5.6-c143 79.161210, 2017/08/11-10:28:36        ">
   <rdf:RDF xmlns:rdf="http://www.w3.org/1999/02/22-rdf-syntax-ns#">
      <rdf:Description rdf:about=""/>
   </rdf:RDF>
</x:xmpmeta>
                                                                                                    
                                                                                                    
                                                                                                    
                                                                                                    
                                                                                                    
                                                                                                    
                                                                                                    
                                                                                                    
                                                                                                    
                                                                                                    
                                                                                                    
                                                                                                    
                                                                                                    
                                                                                                    
                                                                                                    
                                                                                                    
                                                                                                    
                                                                                                    
                                                                                                    
                                                                                                    
                           
<?xpacket end="w"?></metadata>
<style type="text/css">
	.st0{fill:#00A5B5;}
	.st1{fill:#636569;}
</style>
<g>
	<path class="st0" d="M65.6,67.2c2.4-0.7,5.6-1.4,9.7-2.2c4.1-0.8,9-1.2,14.9-1.2c4.9,0,9,0.7,12.2,2.1c3.3,1.4,5.9,3.4,7.8,6
		c1.9,2.6,3.3,5.7,4.2,9.4c0.8,3.6,1.2,7.7,1.2,12.1v35.9h-8.1V95.9c0-4.6-0.3-8.4-0.9-11.6c-0.6-3.1-1.7-5.7-3.1-7.7
		c-1.5-2-3.4-3.4-5.7-4.3c-2.4-0.9-5.3-1.3-8.9-1.3c-3.8,0-7.1,0.2-9.9,0.6c-2.8,0.4-4.6,0.8-5.4,1.1v56.4h-8.1V67.2z"/>
	<path class="st0" d="M179.4,127c-2.4,0.7-5.6,1.4-9.7,2.2c-4.1,0.8-9,1.2-14.9,1.2c-4.8,0-8.8-0.7-12.1-2.1c-3.2-1.4-5.8-3.4-7.8-6
		c-2-2.6-3.4-5.7-4.3-9.3c-0.9-3.6-1.3-7.7-1.3-12.1V65h8.1v33.4c0,4.6,0.3,8.4,1,11.6c0.7,3.1,1.7,5.7,3.2,7.6
		c1.5,1.9,3.4,3.4,5.8,4.2c2.4,0.9,5.2,1.3,8.6,1.3c3.8,0,7.1-0.2,9.9-0.6c2.8-0.4,4.6-0.8,5.3-1.1V65h8.1V127z"/>
	<path class="st0" d="M194.6,67.2c2.4-0.7,5.5-1.4,9.4-2.2c3.9-0.8,8.8-1.2,15-1.2c8.1,0,14,2.4,17.6,7.1c0.4-0.3,1.2-0.9,2.4-1.7
		c1.2-0.8,2.7-1.6,4.5-2.4c1.8-0.8,4-1.5,6.4-2.1c2.4-0.6,5.2-0.9,8.1-0.9c4.9,0,8.8,0.7,11.9,2.2c3,1.5,5.4,3.5,7,6.1
		c1.7,2.6,2.8,5.7,3.4,9.4c0.6,3.6,0.9,7.6,0.9,11.9v35.9h-8.1V95.9c0-4.2-0.2-7.9-0.6-11c-0.4-3.1-1.1-5.7-2.2-7.7
		c-1.1-2-2.7-3.6-4.8-4.6c-2.1-1-4.8-1.6-8.1-1.6c-2.5,0-4.7,0.2-6.8,0.7c-2,0.5-3.8,1-5.3,1.7c-1.5,0.7-2.7,1.3-3.7,2
		c-1,0.7-1.6,1.2-2.1,1.5c0.7,2.2,1.3,4.6,1.7,7.3c0.4,2.7,0.6,5.5,0.6,8.5v36.5h-8.1V95.9c0-4.2-0.2-7.9-0.6-11
		c-0.4-3.1-1.1-5.7-2.3-7.7c-1.2-2-2.8-3.6-4.9-4.6c-2.1-1-4.9-1.6-8.4-1.6c-3.9,0-7.2,0.2-9.9,0.6c-2.7,0.4-4.4,0.8-5.2,1.1v56.4
		h-8.1V67.2z"/>
	<path class="st0" d="M303.7,68.8c1.4-1.1,3.7-2.2,6.8-3.4c3.1-1.2,6.8-1.8,11-1.8c4.6,0,8.8,0.8,12.4,2.5c3.6,1.7,6.6,4,9.1,7
		c2.5,3,4.4,6.5,5.7,10.6c1.3,4.1,1.9,8.6,1.9,13.5c0,5.2-0.8,9.9-2.3,14c-1.5,4.1-3.7,7.7-6.5,10.6c-2.8,2.9-6.1,5.1-9.9,6.6
		c-3.9,1.5-8.1,2.3-12.9,2.3c-5.7,0-10.4-0.4-14.2-1.1c-3.7-0.7-6.8-1.5-9.2-2.4V34.3l8.1-1.5V68.8z M303.7,121.6
		c1.2,0.4,3.1,0.8,5.5,1.2c2.4,0.4,5.7,0.6,9.6,0.6c7,0,12.6-2.3,16.8-6.8c4.2-4.5,6.3-11,6.3-19.4c0-3.6-0.4-6.9-1.1-10.1
		c-0.7-3.2-1.9-6-3.6-8.3c-1.7-2.4-3.8-4.2-6.5-5.7c-2.7-1.4-6-2.1-10-2.1c-1.9,0-3.7,0.2-5.5,0.6c-1.7,0.4-3.4,0.9-4.8,1.4
		c-1.5,0.6-2.8,1.2-3.9,1.9c-1.1,0.7-2.1,1.3-2.8,1.9V121.6z"/>
	<path class="st0" d="M358,97c0-5.6,0.8-10.5,2.4-14.7c1.6-4.2,3.7-7.7,6.3-10.5c2.6-2.8,5.6-4.9,8.9-6.3c3.4-1.4,6.8-2.1,10.4-2.1
		c7.9,0,14.1,2.6,18.8,7.7c4.7,5.1,7,13,7,23.7c0,0.7,0,1.3-0.1,2c0,0.7-0.1,1.3-0.2,1.9h-45.1c0.2,7.9,2.2,13.9,5.8,18.1
		c3.6,4.2,9.4,6.3,17.4,6.3c4.4,0,7.9-0.4,10.4-1.2c2.6-0.8,4.4-1.5,5.6-2.1l1.5,7c-1.2,0.7-3.3,1.5-6.5,2.4
		c-3.2,0.9-6.9,1.4-11.2,1.4c-5.6,0-10.4-0.8-14.4-2.5c-4-1.7-7.2-4-9.8-7c-2.6-3-4.4-6.5-5.6-10.6C358.6,106.4,358,101.9,358,97z
		 M403.6,91.9c-0.2-6.7-1.7-11.9-4.7-15.7c-3-3.7-7.2-5.6-12.7-5.6c-2.9,0-5.5,0.6-7.8,1.7c-2.3,1.2-4.3,2.7-6,4.7
		c-1.7,1.9-3,4.2-4,6.8c-1,2.6-1.5,5.3-1.7,8.1H403.6z"/>
	<path class="st0" d="M445.6,63.7c2.6,0,5.2,0.2,7.5,0.6c2.4,0.4,4,0.8,4.9,1.2l-1.6,7c-0.7-0.3-2-0.7-4-1.1c-2-0.4-4.7-0.6-8-0.6
		c-3.5,0-6.3,0.2-8.4,0.7c-2.1,0.5-3.5,0.9-4.2,1.2v56.3h-8.1V67.9c2.1-0.9,4.9-1.8,8.6-2.8C436,64.2,440.4,63.7,445.6,63.7z"/>
	<path class="st1" d="M480.3,130.3c-2.7-0.1-5.1-0.4-7.1-1.1c-2-0.6-3.7-1.6-5.1-2.9c-1.4-1.3-2.4-2.9-3.1-5c-0.7-2-1.1-4.6-1.1-7.6
		V34.3l8.1-1.5v80.8c0,2,0.2,3.6,0.6,4.8c0.4,1.2,0.9,2.2,1.7,2.9c0.7,0.7,1.7,1.2,2.9,1.6c1.2,0.3,2.6,0.6,4.3,0.9L480.3,130.3z"/>
	<path class="st1" d="M507,130.6c-2.7-5.1-5.3-10.3-7.8-15.8c-2.5-5.5-4.9-11-7.1-16.6c-2.2-5.6-4.2-11.2-6-16.8
		c-1.8-5.6-3.4-11.1-4.7-16.5h8.6c0.9,4,2.1,8.3,3.5,12.9c1.4,4.6,3,9.3,4.8,14.2c1.8,4.9,3.7,9.9,5.9,15c2.2,5.1,4.5,10.2,7,15.2
		c1.8-5.1,3.5-10,4.9-14.5c1.4-4.6,2.7-9.1,4-13.6c1.2-4.5,2.4-9.1,3.5-13.8c1.1-4.7,2.3-9.8,3.5-15.3h8.1
		c-2.7,12-5.7,23.7-9.1,35.1c-3.4,11.4-7,21.7-11,31.2c-1.6,3.7-3.2,6.9-4.9,9.6c-1.7,2.7-3.5,4.9-5.6,6.6c-2,1.7-4.4,3-7.1,3.9
		c-2.7,0.8-5.9,1.2-9.5,1.2c-2.1,0-4-0.2-5.7-0.7c-1.7-0.5-2.8-0.9-3.2-1.1l1.6-6.7c0.3,0.2,1.3,0.6,2.8,1.1
		c1.5,0.5,3.1,0.7,4.8,0.7c2.3,0,4.4-0.2,6.3-0.7s3.5-1.3,5-2.5c1.5-1.2,2.8-2.8,4-4.7C504.7,135.9,505.9,133.5,507,130.6z"/>
</g>
</svg>
