<svg id="svg" version="1.1" xmlns="http://www.w3.org/2000/svg" xmlns:xlink="http://www.w3.org/1999/xlink" width="400" height="60.27859856479527" viewBox="0, 0, 400,60.27859856479527"><g id="svgg"><path id="path0" d="M0.000 33.917 L 0.000 60.167 4.725 60.167 L 9.451 60.167 9.551 57.875 C 10.510 36.047,28.338 18.347,50.496 17.225 L 52.667 17.115 52.667 12.391 L 52.667 7.667 26.333 7.667 L 0.000 7.667 0.000 33.917 M48.083 33.993 C 36.126 36.137,26.706 46.266,26.066 57.667 C 26.023 58.446,25.957 59.327,25.921 59.625 L 25.854 60.167 39.260 60.167 L 52.667 60.167 52.667 46.917 L 52.667 33.667 51.208 33.680 C 50.406 33.688,49.000 33.828,48.083 33.993 " stroke="none" fill="#fc0c1c" fill-rule="evenodd"></path><path id="path1" d="M49.167 17.283 C 27.718 18.945,10.485 36.602,9.551 57.875 L 9.451 60.167 17.639 60.167 L 25.827 60.167 25.903 59.792 C 25.945 59.585,26.016 58.704,26.060 57.833 C 26.696 45.370,37.930 34.379,50.708 33.719 L 52.667 33.618 52.667 25.392 L 52.667 17.167 51.292 17.196 C 50.535 17.212,49.579 17.251,49.167 17.283 " stroke="none" fill="#fcfbfb" fill-rule="evenodd"></path><path id="path2" d="M279.881 0.242 C 276.267 1.371,274.416 5.293,275.918 8.639 C 277.797 12.828,283.859 13.838,287.182 10.515 C 292.020 5.677,286.653 -1.875,279.881 0.242 M300.833 8.500 L 300.833 15.500 297.500 15.500 L 294.167 15.500 294.167 19.750 L 294.167 24.000 297.500 24.000 L 300.833 24.000 300.833 38.833 L 300.833 53.667 306.250 53.667 L 311.667 53.667 311.667 38.833 L 311.667 24.000 315.417 24.000 L 319.167 24.000 319.167 19.750 L 319.167 15.500 315.417 15.500 L 311.667 15.500 311.667 8.500 L 311.667 1.500 306.250 1.500 L 300.833 1.500 300.833 8.500 M85.750 14.499 C 83.878 14.644,82.863 14.818,82.741 15.015 C 82.689 15.098,82.494 15.167,82.306 15.167 C 81.040 15.167,76.176 17.353,74.230 18.797 C 68.944 22.720,66.374 27.371,66.060 33.583 C 65.400 46.652,76.854 56.219,91.083 54.483 C 111.677 51.969,116.943 26.573,98.804 17.247 C 97.054 16.348,93.872 15.167,93.197 15.167 C 93.008 15.167,92.811 15.099,92.761 15.017 C 92.535 14.651,88.061 14.321,85.750 14.499 M133.167 14.448 C 131.947 14.522,129.997 14.815,129.767 14.959 C 129.666 15.022,128.921 15.242,128.113 15.447 C 121.562 17.107,115.220 23.114,113.577 29.213 C 109.212 45.415,124.799 58.636,142.290 53.567 C 147.172 52.152,151.599 48.720,153.985 44.500 C 154.373 43.813,154.872 42.950,155.093 42.583 C 157.479 38.621,157.310 29.158,154.795 25.917 C 154.724 25.825,154.221 25.062,153.677 24.220 C 150.958 20.012,146.420 16.807,141.333 15.500 C 140.554 15.300,139.788 15.069,139.631 14.987 C 138.982 14.648,135.143 14.328,133.167 14.448 M184.167 14.446 C 182.998 14.516,181.221 14.807,180.861 14.988 C 180.708 15.065,180.021 15.294,179.333 15.498 C 177.649 15.996,175.517 17.138,174.000 18.354 L 172.750 19.355 172.703 17.428 L 172.656 15.500 167.245 15.500 L 161.833 15.500 161.833 34.583 L 161.833 53.667 167.250 53.667 L 172.667 53.667 172.667 43.787 C 172.667 31.968,172.789 30.559,174.032 28.000 C 176.688 22.534,184.664 21.898,187.224 26.948 C 188.340 29.150,188.499 31.231,188.499 43.625 L 188.500 53.667 193.905 53.667 L 199.309 53.667 199.384 43.042 C 199.472 30.433,199.557 29.675,201.170 27.161 C 204.301 22.283,212.168 22.271,214.012 27.142 C 214.849 29.353,214.877 29.810,214.952 42.125 L 215.022 53.667 220.436 53.667 L 225.850 53.667 225.791 40.042 C 225.728 25.434,225.701 24.936,224.838 22.430 C 223.717 19.175,221.166 16.821,217.333 15.504 C 216.737 15.300,216.100 15.066,215.917 14.986 C 214.338 14.291,207.989 14.295,207.083 14.991 C 206.992 15.061,206.544 15.210,206.089 15.321 C 203.703 15.904,200.973 17.558,198.935 19.656 C 198.212 20.400,197.607 20.988,197.592 20.963 C 196.058 18.502,193.072 16.158,190.417 15.331 C 190.050 15.217,189.675 15.066,189.583 14.996 C 189.132 14.653,186.019 14.337,184.167 14.446 M253.583 14.499 C 252.257 14.616,251.719 14.723,251.083 14.999 C 250.900 15.078,250.338 15.271,249.833 15.428 C 248.342 15.892,245.075 17.632,243.542 18.779 L 243.000 19.184 243.000 17.342 L 243.000 15.500 237.667 15.500 L 232.333 15.500 232.333 34.583 L 232.333 53.667 237.667 53.667 L 243.000 53.667 243.006 44.792 C 243.012 35.406,243.142 32.208,243.587 30.478 C 245.433 23.306,254.255 21.025,257.667 26.839 C 258.799 28.768,258.996 31.390,258.999 44.542 L 259.000 53.667 264.250 53.667 L 269.500 53.667 269.500 40.537 C 269.500 23.540,269.321 22.247,266.548 19.163 C 264.073 16.410,258.281 13.985,255.083 14.362 C 254.992 14.372,254.317 14.434,253.583 14.499 M374.386 14.506 C 369.930 14.873,365.627 16.992,362.081 20.567 C 357.698 24.987,355.761 31.794,356.978 38.500 C 359.581 52.839,377.004 59.595,388.500 50.722 L 389.250 50.143 389.297 51.905 L 389.345 53.667 394.672 53.667 L 400.000 53.667 400.000 34.583 L 400.000 15.500 394.667 15.500 L 389.333 15.500 389.333 17.428 L 389.333 19.356 388.624 18.775 C 386.960 17.411,383.406 15.610,381.667 15.249 C 381.346 15.183,381.007 15.067,380.914 14.992 C 380.419 14.596,376.678 14.318,374.386 14.506 M276.833 34.583 L 276.833 53.667 282.250 53.667 L 287.667 53.667 287.667 34.583 L 287.667 15.500 282.250 15.500 L 276.833 15.500 276.833 34.583 M324.000 19.665 L 324.000 23.830 331.835 23.873 L 339.670 23.917 337.989 26.583 C 337.064 28.050,336.128 29.599,335.909 30.026 C 335.690 30.453,335.444 30.828,335.363 30.859 C 335.216 30.916,326.500 44.738,326.500 44.914 C 326.500 45.038,322.822 50.802,321.818 52.250 C 321.373 52.892,321.007 53.473,321.004 53.542 C 321.002 53.610,328.688 53.667,338.083 53.667 L 355.167 53.667 355.167 49.585 L 355.167 45.503 346.415 45.460 L 337.663 45.417 342.182 38.167 C 344.667 34.179,346.927 30.504,347.204 30.000 C 347.482 29.496,347.991 28.708,348.336 28.250 C 349.163 27.150,356.167 15.907,356.167 15.678 C 356.167 15.553,351.364 15.500,340.083 15.500 L 324.000 15.500 324.000 19.665 M381.565 23.995 C 391.701 26.588,392.831 40.110,383.289 44.638 C 374.972 48.585,365.751 41.123,367.747 32.059 C 369.101 25.908,375.179 22.362,381.565 23.995 M91.806 24.388 C 102.644 28.127,100.649 44.203,89.188 45.480 C 84.699 45.980,79.858 43.567,78.000 39.905 C 77.771 39.453,77.528 39.042,77.460 38.991 C 77.136 38.749,76.667 36.193,76.669 34.682 C 76.681 27.052,84.371 21.823,91.806 24.388 M137.569 24.083 C 147.278 26.140,149.194 39.304,140.467 43.992 C 132.325 48.365,123.304 43.028,123.719 34.083 C 124.046 27.030,130.269 22.537,137.569 24.083 " stroke="none" fill="#040404" fill-rule="evenodd"></path><path id="path3" d="" stroke="none" fill="#408480" fill-rule="evenodd"></path><path id="path4" d="" stroke="none" fill="#400484" fill-rule="evenodd"></path></g></svg>