<?xml version="1.0" encoding="UTF-8"?><svg id="a" xmlns="http://www.w3.org/2000/svg" viewBox="0 0 541.2 171.7"><defs><style>.b{fill:#f36f26;}</style></defs><path class="b" d="M22.7,140.9H0V0H54.6c32.5,0,49.9,16.4,49.9,42.8s-17.4,42.7-49.9,42.7H22.7v55.4Zm0-76.8h31.3c18.5,0,26.9-6.7,26.9-21.3s-8.3-21.4-26.9-21.4H22.7v42.7Z"/><path class="b" d="M184.1,140.9v-11.6c-6.7,8.6-16.5,14.1-30.3,14.1-27,0-48.2-21.2-48.2-50.7s21.2-50.7,48.2-50.7c13.8,0,23.6,5.6,30.3,14.2v-11.7h21v96.4h-21Zm-56.9-48.2c0,16.9,11,30.9,29.1,30.9s29.1-13.3,29.1-30.9-11.8-30.9-29.1-30.9c-18.1,0-29.1,14-29.1,30.9Z"/><path class="b" d="M302.8,57.4l-13.5,14.4c-6.8-6.4-13.9-10-23.1-10-16.2,0-28.5,12.7-28.5,30.9s12.3,30.9,28.5,30.9c9.2,0,17.5-4.3,23.6-10.1l13,14.5c-8.9,10.2-21.5,15.4-36,15.4-30.6,0-50.7-21.8-50.7-50.7s20.1-50.7,50.7-50.7c14.5,0,27.5,5.2,36,15.4h0Z"/><polyline class="b" points="332.4 100.2 332.4 140.9 311.3 140.9 311.3 0 332.4 0 332.4 80.6"/><polygon class="b" points="428 140.9 428 63.6 408.8 63.6 408.8 44.5 428 44.5 428 15.3 449.1 15.3 449.1 44.5 468.4 44.5 468.4 63.6 449.1 63.6 449.1 140.9 428 140.9"/><polygon class="b" points="336.4 89.9 344.2 81.1 376 44.5 402.5 44.5 362.1 89.9 402.9 140.9 376.2 140.9 344.1 100.2 336.4 89.9"/><polygon class="b" points="533.5 100.2 501.4 140.9 474.7 140.9 515.5 89.9 475.1 44.5 501.6 44.5 533.4 81.1 541.2 89.9 533.5 100.2"/><polygon class="b" points="541.2 171.7 0 171.7 0 157.7 541.2 157.7 541.2 171.7"/></svg>