<?xml version="1.0" encoding="UTF-8" standalone="no"?>
<!-- Created with Inkscape (http://www.inkscape.org/) -->

<svg
   version="1.1"
   id="svg178"
   width="298.66666"
   height="213.33333"
   viewBox="0 0 298.66666 213.33333"
   sodipodi:docname="Qt.svg"
   inkscape:version="1.2.1 (9c6d41e, 2022-07-14)"
   xmlns:inkscape="http://www.inkscape.org/namespaces/inkscape"
   xmlns:sodipodi="http://sodipodi.sourceforge.net/DTD/sodipodi-0.dtd"
   xmlns="http://www.w3.org/2000/svg"
   xmlns:svg="http://www.w3.org/2000/svg">
  <defs
     id="defs182">
    <clipPath
       clipPathUnits="userSpaceOnUse"
       id="clipPath194">
      <path
         d="M 0,160 H 224 V 0 H 0 Z"
         id="path192" />
    </clipPath>
  </defs>
  <sodipodi:namedview
     id="namedview180"
     pagecolor="#ffffff"
     bordercolor="#000000"
     borderopacity="0.25"
     inkscape:showpageshadow="2"
     inkscape:pageopacity="0.0"
     inkscape:pagecheckerboard="0"
     inkscape:deskcolor="#d1d1d1"
     showgrid="false"
     inkscape:zoom="1.10625"
     inkscape:cx="149.15254"
     inkscape:cy="106.66666"
     inkscape:window-width="1309"
     inkscape:window-height="456"
     inkscape:window-x="0"
     inkscape:window-y="25"
     inkscape:window-maximized="0"
     inkscape:current-layer="g186">
    <inkscape:page
       x="0"
       y="0"
       id="page184"
       width="298.66666"
       height="213.33333" />
  </sodipodi:namedview>
  <g
     id="g186"
     inkscape:groupmode="layer"
     inkscape:label="Page 1"
     transform="matrix(1.3333333,0,0,-1.3333333,0,213.33333)">
    <g
       id="g188">
      <g
         id="g190"
         clip-path="url(#clipPath194)">
        <g
           id="g196"
           transform="translate(66.4482,112.5281)">
          <path
             d="m 0,0 c 3.36,5.952 9.552,8.928 18.576,8.928 9.024,0 15.2,-2.976 18.512,-8.928 3.296,-5.952 4.96,-15.504 4.96,-28.656 0,-13.152 -1.6,-22.48 -4.816,-28 -3.232,-5.52 -9.44,-8.272 -18.656,-8.272 -9.216,0 -15.456,2.8 -18.72,8.416 -3.264,5.616 -4.896,14.944 -4.896,28 0,13.056 1.68,22.56 5.04,28.512 m 80.192,-73.296 c 3.024,-3.744 8.624,-5.616 16.784,-5.616 3.36,0 8.256,0.624 14.688,1.872 l -0.72,12.528 -11.808,-0.432 c -3.552,0 -5.76,0.96 -6.624,2.88 -0.864,1.92 -1.296,5.808 -1.296,11.664 v 31.68 h 19.872 V -5.328 H 91.216 v 20.88 H 75.664 V -5.328 H 66.448 V -18.72 h 9.216 v -33.408 c 0,-10.368 1.504,-17.424 4.528,-21.168 m -40.016,-25.776 14.832,6.912 h -0.016 l -12.096,19.44 c 5.568,3.744 9.584,9.168 12.032,16.272 2.432,7.104 3.664,16.416 3.664,27.936 0,17.472 -2.976,30.416 -8.928,38.816 -5.952,8.4 -16.32,12.608 -31.104,12.608 -14.784,0 -25.168,-4.224 -31.168,-12.672 -6,-8.464 -8.992,-21.392 -8.992,-38.816 0,-17.424 2.944,-30.176 8.848,-38.24 5.92,-8.064 16.352,-12.096 31.328,-12.096 4.032,0 6.96,0.288 8.784,0.864 z m -106.624,120.944 25.6,25.6 h 198.4 v -134.4 l -25.6,-25.6 h -198.4 z"
             style="fill:#6ecb84;fill-opacity:1;fill-rule:evenodd;stroke:none"
             id="path198" />
        </g>
      </g>
    </g>
  </g>
</svg>
