<?xml version="1.0" encoding="utf-8"?>
<!-- Generator: Adobe Illustrator 24.3.0, SVG Export Plug-In . SVG Version: 6.00 Build 0)  -->
<svg version="1.1" xmlns="http://www.w3.org/2000/svg" xmlns:xlink="http://www.w3.org/1999/xlink" x="0px" y="0px"
	 viewBox="0 0 435.56 135.13" style="enable-background:new 0 0 435.56 135.13;" xml:space="preserve">
<style type="text/css">
	.st0{fill:#FFE600;}
	.st1{fill:url(#XMLID_2_);}
	.st2{fill:url(#XMLID_3_);}
	.st3{fill:url(#XMLID_4_);}
	.st4{font-family:'SourceSansPro-Regular';}
	.st5{font-size:26px;}
</style>
<g id="Layer_2">
</g>
<g id="Layer_1">
	<g id="XMLID_5_">
		<g id="XMLID_147_">
			<polyline id="XMLID_152_" class="st0" points="84.8,56.78 46.26,56.78 46.27,86.89 100.66,135.13 115.3,116.61 72.67,79.67 
				84.8,79.67 84.8,79.67 107.69,56.77 107.69,22.88 84.84,0 0,0 0,22.88 84.8,22.88 84.8,56.78 			"/>
		</g>
		
			<linearGradient id="XMLID_2_" gradientUnits="userSpaceOnUse" x1="1215.171" y1="1270.0232" x2="1222.2467" y2="1270.0232" gradientTransform="matrix(0 -1 1 0 -1173.7725 1245.1412)">
			<stop  offset="0" style="stop-color:#FFFFFF"/>
			<stop  offset="0.3333" style="stop-color:#FBFAFA"/>
			<stop  offset="0.5198" style="stop-color:#F1F0F0"/>
			<stop  offset="0.6702" style="stop-color:#E3E3E3"/>
			<stop  offset="0.8012" style="stop-color:#D1D1D2"/>
			<stop  offset="0.9184" style="stop-color:#BBBBBD"/>
			<stop  offset="1" style="stop-color:#A8AAAD"/>
		</linearGradient>
		<polygon id="XMLID_75_" class="st1" points="107.69,22.89 107.69,29.97 84.81,29.97 84.81,22.89 		"/>
		
			<linearGradient id="XMLID_3_" gradientUnits="userSpaceOnUse" x1="854.5811" y1="2972.509" x2="861.6569" y2="2972.509" gradientTransform="matrix(0 1 -1 0 3068.7598 -804.86)">
			<stop  offset="0" style="stop-color:#FFFFFF"/>
			<stop  offset="0.3333" style="stop-color:#FBFAFA"/>
			<stop  offset="0.5198" style="stop-color:#F1F0F0"/>
			<stop  offset="0.6702" style="stop-color:#E3E3E3"/>
			<stop  offset="0.8012" style="stop-color:#D1D1D2"/>
			<stop  offset="0.9184" style="stop-color:#BBBBBD"/>
			<stop  offset="1" style="stop-color:#A8AAAD"/>
		</linearGradient>
		<polygon id="XMLID_146_" class="st2" points="84.82,56.8 84.82,49.72 107.68,49.72 107.68,56.8 		"/>
		
			<linearGradient id="XMLID_4_" gradientUnits="userSpaceOnUse" x1="-267.0431" y1="1592.5836" x2="-256.4196" y2="1592.5836" gradientTransform="matrix(-0.7071 0.7071 -0.9781 -0.9781 1437.776 1810.9562)">
			<stop  offset="0" style="stop-color:#FFFFFF"/>
			<stop  offset="0.3116" style="stop-color:#FBFAFA"/>
			<stop  offset="0.486" style="stop-color:#F1F0F0"/>
			<stop  offset="0.6265" style="stop-color:#E3E1E2"/>
			<stop  offset="0.7489" style="stop-color:#D0CFCF"/>
			<stop  offset="0.8596" style="stop-color:#B9B8BA"/>
			<stop  offset="0.9604" style="stop-color:#9FA0A2"/>
			<stop  offset="1" style="stop-color:#939598"/>
		</linearGradient>
		<polygon id="XMLID_142_" class="st3" points="46.28,56.83 55.64,56.82 84.05,79.58 72.47,79.6 		"/>
	</g>
	<g id="XMLID_10_">
		<path id="XMLID_11_" d="M143.44,54.26h-2.95l-10.06-11.02h-7.94v11.02h-2.24v-29.1c4.28,0,8.52,0,12.8,0
			c6.32,0,9.52,4.53,9.56,9.06c0.04,4.74-3.08,8.9-9.44,8.9L143.44,54.26z M122.48,41.12h10.31c5.07,0,7.32-2.87,7.36-6.94
			c0.04-3.41-2.29-6.94-7.11-6.94h-10.56V41.12z"/>
		<path id="XMLID_14_" d="M172.49,54.26l-3.2-7.15h-17.38l-3.16,7.15h-2.41l13.05-29.1h2.45l13.05,29.1H172.49z M168.42,45.03
			l-7.82-17.71l-7.82,17.71H168.42z"/>
		<path id="XMLID_23_" d="M180.93,44.2v10.06h-2.25v-29.1c4.24,0,8.52,0,12.76,0c12.64,0,12.64,19.04,0,19.04H180.93z M180.93,27.24
			v14.93h10.52c9.69,0,9.69-14.93,0-14.93H180.93z"/>
		<path id="XMLID_110_" d="M205.58,54.26v-29.1h2.2v29.1H205.58z"/>
		<path id="XMLID_112_" d="M239.08,39.38c0.17,7.4-4.57,14.88-14.76,14.88c-3.28,0-6.57,0-9.85,0v-29.1c3.28,0,6.57,0,9.85,0
			C234.18,25.16,238.92,32.23,239.08,39.38z M216.72,27.28V52.1h7.61c8.65,0,12.64-6.48,12.51-12.72
			c-0.13-6.07-4.12-12.1-12.51-12.1H216.72z"/>
		<path id="XMLID_115_" d="M269.01,54.26h-6.53l-8.48-9.73h-5.28v9.73h-5.49V25.12c4.62,0,9.23,0.04,13.84,0.04
			c6.86,0.04,10.48,4.61,10.48,9.64c0,3.99-1.83,8.02-7.36,9.15l8.81,9.94V54.26z M248.73,30.27v9.31h8.36
			c3.49,0,4.99-2.33,4.99-4.66c0-2.33-1.54-4.66-4.99-4.66H248.73z"/>
		<path id="XMLID_118_" d="M293.25,48.77h-15.22l-2.49,5.49h-5.94l13.05-29.1h5.99l13.05,29.1h-5.99L293.25,48.77z M285.64,31.27
			l-5.4,12.39h10.81L285.64,31.27z"/>
		<path id="XMLID_129_" d="M307.42,30.15h-9.23v-4.99c8.4,0,15.51,0,23.95,0v4.99h-9.23v24.11h-5.49V30.15z"/>
		<path id="XMLID_131_" d="M325.17,54.26v-29.1h5.45v29.1H325.17z"/>
		<path id="XMLID_133_" d="M354.56,25.12h5.49v29.14h-3.41v0.04l-15.3-19.66v19.62h-5.49v-29.1h4.45l14.26,18.04V25.12z"/>
		<path id="XMLID_153_" d="M387.19,32.27c-1.95-1.87-4.86-2.91-7.4-2.91c-6.24,0-10.02,4.74-10.02,10.73
			c0,4.78,2.78,9.73,10.02,9.73c2.29,0,4.28-0.5,6.57-2.33v-5.16h-7.44v-4.91h12.47v12.26c-2.87,3.28-6.48,5.24-11.6,5.24
			c-10.93,0-15.38-7.19-15.38-14.84c0-8.19,5.11-15.76,15.38-15.76c3.91,0,7.82,1.5,10.81,4.45L387.19,32.27z"/>
		<path id="XMLID_155_" d="M413.51,32.18c-1-1.66-3.74-3.24-6.9-3.24c-4.07,0-6.03,1.7-6.03,3.87c0,2.54,2.99,3.24,6.49,3.66
			c6.07,0.75,11.72,2.33,11.72,9.27c0,6.49-5.74,9.27-12.22,9.27c-5.95,0-10.52-1.83-12.68-7.15l4.57-2.37
			c1.29,3.2,4.66,4.62,8.19,4.62c3.45,0,6.69-1.21,6.69-4.37c0-2.74-2.87-3.87-6.73-4.28c-5.95-0.71-11.43-2.29-11.43-8.81
			c0-5.99,5.9-8.44,11.27-8.48c4.53,0,9.23,1.29,11.43,5.78L413.51,32.18z"/>
	</g>
	<text transform="matrix(1 0 0 1 421.5869 42.8346)" class="st4 st5">®</text>
</g>
</svg>
