<?xml version="1.0" encoding="UTF-8" standalone="no"?>
<svg
   xmlns:dc="http://purl.org/dc/elements/1.1/"
   xmlns:cc="http://creativecommons.org/ns#"
   xmlns:rdf="http://www.w3.org/1999/02/22-rdf-syntax-ns#"
   xmlns:svg="http://www.w3.org/2000/svg"
   xmlns="http://www.w3.org/2000/svg"
   xmlns:sodipodi="http://sodipodi.sourceforge.net/DTD/sodipodi-0.dtd"
   xmlns:inkscape="http://www.inkscape.org/namespaces/inkscape"
   version="1.1"
   id="svg2"
   xml:space="preserve"
   width="343.28"
   height="62.173332"
   viewBox="0 0 343.28 62.173332"
   sodipodi:docname="RenRelogoPantone302.eps"><metadata
     id="metadata8"><rdf:RDF><cc:Work
         rdf:about=""><dc:format>image/svg+xml</dc:format><dc:type
           rdf:resource="http://purl.org/dc/dcmitype/StillImage" /></cc:Work></rdf:RDF></metadata><defs
     id="defs6" /><sodipodi:namedview
     pagecolor="#ffffff"
     bordercolor="#666666"
     borderopacity="1"
     objecttolerance="10"
     gridtolerance="10"
     guidetolerance="10"
     inkscape:pageopacity="0"
     inkscape:pageshadow="2"
     inkscape:window-width="640"
     inkscape:window-height="480"
     id="namedview4" /><g
     id="g10"
     inkscape:groupmode="layer"
     inkscape:label="ink_ext_XXXXXX"
     transform="matrix(1.3333333,0,0,-1.3333333,0,62.173333)"><g
       id="g12"
       transform="scale(0.1)"><path
         d="m 1227.06,300.965 c -18.73,0 -36.7,-9.215 -53.9,-27.61 -17.16,-18.496 -30,-39.578 -33.42,-63.347 -2.49,-17.129 0.2,-38.449 11.39,-63.957 l 11.46,-26.199 c 9.52,-21.5239 17.62,-38.4887 15.82,-50.8989 -1.6,-11.1836 -6.13,-20.5664 -13.56,-28.1953 -7.39,-7.5664 -15.71,-11.375 -24.87,-11.375 -14.91,0 -28.44,8.2813 -40.37,24.793 l -27.48,-35.1172 c 15.59,-10.32032 30.48,-15.47657 44.73,-15.47657 20.21,0 39.62,9.16797 58.22,27.48047 18.47,18.3477 31.94,39.207 35.32,62.5664 2.45,16.9261 -0.35,38.6051 -11.78,64.9611 l -10.51,23.808 c -9.89,22.872 -18.01,41.204 -16,54.993 3.93,27.269 16.89,40.863 38.82,40.863 19.49,0 39.43,-24.586 39.43,-24.586 l 23.77,31.285 c -9.05,8.551 -36.84,16.012 -47.07,16.012"
         style="fill:#193958;fill-opacity:1;fill-rule:nonzero;stroke:none"
         id="path14" /><path
         d="m 1031.9,427.734 -34.252,-11.457 -24.16,-69.269 65.372,63.961 c 10.4,11.277 5.16,20 -6.96,16.765"
         style="fill:#193958;fill-opacity:1;fill-rule:nonzero;stroke:none"
         id="path16" /><path
         d="m 1109.88,300.965 c -18.73,0 -36.71,-9.215 -53.9,-27.61 -17.18,-18.496 -29.99,-39.578 -33.45,-63.347 -2.48,-17.129 0.25,-38.449 11.45,-63.957 l 11.46,-26.199 c 9.51,-21.5239 17.59,-38.4887 15.77,-50.8989 -1.6,-11.1836 -6.11,-20.5664 -13.54,-28.1953 -7.4,-7.5664 -15.71,-11.375 -24.88,-11.375 -12.54,0 -27.552,8.3789 -40.477,23.6328 l -5.79,7.6055 C 972.016,54.8984 967.688,50.1719 967.656,50.125 962.5,44.5977 951.637,33.1523 945.285,33.2695 c -6.601,0.1446 -8.328,8.836 -6.683,20.2344 0.855,5.6055 3.964,18.5742 9.484,38.8672 l 35.273,129.6089 21.281,71.426 c 0.73,5.18 -0.74,9.93 -8.14,6.387 -23.801,-11.324 -72.977,-36.625 -75.562,-37.977 l -6.02,-16.605 c 13.824,6.215 17.703,7.223 22.715,7.223 7.219,0 9.738,-7.375 7.652,-22.036 -1.277,-8.554 -5.336,-25.859 -12.195,-51.718 L 912.816,103.816 C 872.641,49.8789 857.461,31.4414 846.582,31.4414 c -6.676,0 -9.18,5.5274 -7.566,16.5352 0.863,5.957 4.039,19.1015 9.547,39.3945 l 35.148,129.6879 20.859,77.664 c -17.062,2.121 -34.855,2.851 -50.761,3.16 -44.707,0.75 -75.715,-20.656 -109.805,-71.137 C 711.09,177.965 691.754,123.59 684.379,72.75 683.652,67.625 683.055,62.8086 682.781,58.2305 668.375,40.3867 658.188,31.4414 650.742,31.4414 c -6.472,0 -8.945,5.5274 -7.332,16.5352 0.86,5.957 4.016,19.0625 9.481,39.3437 l 34.382,128.1177 c 4.008,14.824 6.774,27.453 8.258,37.8 4.586,31.813 -4.722,47.727 -23.031,47.727 -15.187,0 -33.547,-13.621 -55.066,-40.797 -21.516,-27.219 -57.606,-96.508 -57.606,-96.508 l 14.348,53.301 c 4.035,15.25 14.89,54.086 20.637,74.73 1.789,6.352 -2.645,11.305 -10.489,7.594 -17.351,-8.285 -58.929,-29.512 -81.527,-41.066 0.262,10.625 -1.156,19.66 -4.449,27.086 -4.657,10.472 -11.875,15.66 -21.762,15.66 -27.301,0 -56.043,-21.688 -86.371,-65.051 C 359.848,192.527 341.168,146.246 334.008,97.0195 330.016,69.4688 331.699,47 339.004,29.6367 346.336,12.2422 357.93,3.46484 373.727,3.58203 c 61.785,0.46875 94.73,82.12887 94.73,82.12887 l -9.805,-3.5937 c 0,0 -31.453,-40.6836 -56.445,-39.8828 -23.781,0.7226 -34.195,30.0859 -28.148,69.0426 0,0 57.488,23.407 82.414,47.071 24.562,23.367 39.429,51.172 44.687,83.371 l 6.719,3.492 c 0,0 21.812,11.906 27.707,5.367 4.348,-4.762 6.484,-13.031 0.984,-33.168 L 497.012,87.5742 c 0,0 -22.75,-75.8086 -24.086,-81.48436 -1.305,-5.574215 3.328,-7.82031 7.262,-4.61718 5.425,4.33593 43.042,33.52344 43.042,33.52344 0,0 9.391,34.3359 17.579,58.6328 C 551.738,126.07 620,260.668 650.016,260.168 c 6.793,-0.121 6.808,-7.734 3.879,-20.016 -1.641,-6.691 -3.465,-14.754 -6.219,-24.656 L 612.766,87.4297 c -5.696,-20.8984 -9.192,-35.7031 -10.45,-44.4141 -3.82,-26.289 7.082,-39.4531 22.969,-39.4531 15.535,0 34.504,13.2227 56.922,39.5898 0.496,-26.3671 9.633,-39.57027 27.445,-39.57027 15.469,0 34.118,13.85547 55.856,41.60157 21.742,27.7617 62.387,107.5584 62.387,107.5584 L 810.316,87.8672 c -5.668,-21.0156 -9.14,-35.9063 -10.421,-44.6563 -3.852,-26.4257 4.015,-39.62887 20.222,-39.62887 18.848,0 42.871,19.45317 86.113,75.58597 -4.308,-16.2422 -6.972,-28.2539 -8.078,-35.9571 -3.867,-26.4257 2.313,-39.62887 18.422,-39.62887 10.309,0 22.231,5.78125 35.637,17.31247 15.945,-10.8476 33.773,-17.31247 47.461,-17.31247 20.238,0 39.628,9.16797 58.188,27.48047 18.54,18.3477 31.93,39.207 35.38,62.5664 2.41,16.9261 -0.39,38.6051 -11.8,64.9341 l -10.5,23.835 c -9.9,22.872 -17.99,41.204 -15.99,54.993 3.92,27.269 16.85,40.863 38.78,40.863 19.51,0 39.45,-24.586 39.45,-24.586 l 23.76,31.285 c -9.48,8.942 -36.81,16.012 -47.06,16.012 M 468.281,234.094 c -3.957,-27.035 -14.054,-49.039 -30.379,-66.071 -15.851,-16.511 -38.234,-30.574 -63.168,-43.289 4.938,22.051 18.161,73.496 34.27,103.25 0.805,1.457 1.613,2.981 2.43,4.387 16.343,27.832 31.144,41.766 44.336,41.766 12.195,0 16.398,-13.34 12.511,-40.043 M 781.777,94.0508 C 765.426,68.5039 755.078,57.957 745.508,57.957 c -10.254,0 -18.164,5.711 -16.778,33.3789 2.02,38.9451 6.063,66.0351 27.325,113.4571 12.195,27.324 29.101,56.281 54.609,63.961 15.758,4.769 26.551,3.234 48.969,1.203 L 844.32,213.191 c 0,0 -8.925,-35.351 -62.543,-119.1402"
         style="fill:#193958;fill-opacity:1;fill-rule:nonzero;stroke:none"
         id="path18" /><path
         d="m 98.0898,42.293 c 0,0 -48.1562,-37.51956 -52.3007,-40.82034 -4.1289,-3.3125 -8.8946,-0.16797 -7.3047,4.66797 1.9258,5.62497 86.5976,251.64037 86.5976,251.64037 17.313,63.477 88.676,116.055 113.285,126.864 6.192,2.707 9.883,-4 2.477,-11.118 -13.809,-13.183 -44.91,-35.64 -61.793,-83.183 C 154.082,220.145 98.0898,42.293 98.0898,42.293 M 317.223,39.8203 C 303.895,29.793 294.777,21.0039 287.586,49.6758 275.938,96.1797 273.48,127.945 254.246,163.27 c -14.09,25.82 -29.316,36.093 -43.324,41.289 -10.211,3.777 -9.57,8.464 -2.688,10.293 27.688,7.285 65.973,17.011 95.176,35.461 39.348,24.898 78.289,76.171 70.25,123.523 -17.898,105.16 -159.324,92.312 -182.762,91.57 C 125.039,463.277 -13.3359,406.496 1.03906,325.484 8.29688,284.734 36.1719,279.316 43.7188,277.047 65.75,270.449 88.875,281.438 102.715,291.563 l -4.8205,5.187 C 85.2344,288.371 64.9219,277.957 45.6484,284.953 19.7305,294.27 10.0469,315.836 9.60156,333.691 8.05078,396.418 105.039,444.754 182.184,450.211 c 70.14,4.957 121.984,-16.551 138.175,-66.445 28.793,-88.735 -100.511,-154.188 -137.527,-165.653 -10.41,-3.222 -20.754,-9.629 -3.578,-17.179 14.242,-6.25 20.519,-17.684 27.637,-30.301 11.371,-20.332 24.992,-95.6057 36.257,-132.0705 8.965,-29.23047 32.153,-49.8242 57.993,-27.1875 9.875,8.6914 39.507,37.0703 51.875,54.3555 V 84.2266 C 345.641,71.9102 327.086,47.1758 317.223,39.8203"
         style="fill:#193958;fill-opacity:1;fill-rule:nonzero;stroke:none"
         id="path20" /><path
         d="m 1948.21,42.293 c 0,0 -48.15,-37.51956 -52.25,-40.82034 -4.16,-3.3125 -8.94,-0.16797 -7.29,4.66797 1.92,5.62497 86.6,251.64037 86.6,251.64037 17.3,63.477 88.67,116.055 113.29,126.864 6.16,2.707 9.88,-4 2.44,-11.118 -13.77,-13.183 -44.91,-35.64 -61.81,-83.183 -24.97,-70.199 -80.98,-248.051 -80.98,-248.051 m 525.73,297.91 c -36.97,-2.355 -60.67,-32.441 -60.67,-32.441 l 5.83,-5.641 c 0,0 23.83,28.512 55.14,28.914 61.18,0.742 89.86,-45.324 88.5,-71.609 -2.91,-57.047 -59.16,-81.996 -111.16,-89.242 -25.79,-3.586 -33.36,2.246 -69.58,6.367 -34.3,3.875 -59.4,-6.289 -85.24,-18.203 24.72,17.402 50.2,52.82 55.05,86.218 2.41,16.692 1.3,30.313 -3.33,40.739 -4.58,10.445 -11.86,15.66 -21.7,15.66 -27.34,0 -56.09,-21.649 -86.34,-65.051 -30.38,-43.387 -49.09,-89.668 -56.23,-138.8945 -2.2,-15.2851 -2.64,-28.9062 -1.35,-41.0664 -5.7,-6.9609 -11.34,-13.0468 -15.48,-16.1328 -13.31,-10.0273 -22.47,-18.8164 -29.65,9.8555 -11.6,46.5039 -14.1,78.2692 -33.3,113.5942 -14.07,25.82 -29.3,36.093 -43.34,41.289 -10.21,3.777 -9.53,8.464 -2.71,10.293 27.66,7.285 66,17.011 95.17,35.461 39.39,24.898 78.34,76.171 70.32,123.523 -17.91,105.16 -159.36,92.312 -182.78,91.57 -65.87,-2.129 -204.28,-58.91 -189.9,-139.922 7.29,-40.75 35.17,-46.168 42.71,-48.437 7.42,-2.246 15.03,-2.442 22.41,-1.332 v 7.547 c -6.76,-1.024 -13.65,-0.805 -20.51,1.691 -25.94,9.317 -35.6,30.883 -36.07,48.738 -1.52,62.727 95.47,111.063 172.6,116.52 70.23,4.957 122.05,-16.551 138.19,-66.445 28.76,-88.735 -100.5,-154.188 -137.45,-165.653 -10.49,-3.222 -20.85,-9.629 -3.65,-17.179 14.23,-6.25 20.54,-17.684 27.63,-30.301 11.41,-20.332 25.03,-95.6057 36.23,-132.0705 9,-29.23047 32.23,-49.8242 58.05,-27.1875 6.31,5.5273 20.59,19.0625 33.35,32.6563 1.18,-5.1563 2.64,-9.961 4.51,-14.3946 7.32,-17.3945 18.92,-25.61717 34.72,-26.0742 59.77,-1.69141 94.7,82.1875 94.7,82.1875 l -9.76,-3.6328 c 0,0 -31.41,-40.1094 -56.47,-39.8828 -23.76,0.1953 -35.47,26.5508 -28.02,77.8596 0,0 11.4,67.5 37.28,112.301 16.08,27.945 31.09,41.742 44.28,41.742 12.16,0 16.36,-13.34 12.52,-40.059 -3.91,-27.019 -13.97,-49.023 -30.34,-66.055 -12.22,-12.722 -34.03,-26.64 -34.03,-26.64 29.54,8.847 86.67,6.691 103.94,6.691 114.82,0 213.4,25.184 216.56,110.645 1.78,49.265 -49.4,84.746 -100.63,81.484"
         style="fill:#193958;fill-opacity:1;fill-rule:nonzero;stroke:none"
         id="path22" /><path
         d="m 1884.99,158.348 c 25.25,24.023 40.27,52.773 45.12,86.218 2.43,16.727 1.32,30.313 -3.26,40.739 -4.61,10.472 -11.87,15.66 -21.74,15.66 -27.29,0 -56.11,-21.688 -86.42,-65.07 -30.31,-43.329 -49,-89.649 -56.16,-138.8755 -0.06,-0.5468 -0.13,-1.0742 -0.18,-1.6211 -29.22,-35.9961 -38.31,-51.4062 -63.34,-53.1836 -19.12,-1.3203 -35.68,23.379 -30.1,63.3012 6.88,49.57 19.72,90.73 37.62,123.515 15.37,28.164 28.28,42 44.07,45.145 27.09,5.48 39.55,-16.43 43.1,-23.789 l 24.61,33.672 c -5.34,6.168 -16.67,19.277 -48.89,16.777 -28.64,-2.223 -54.69,-26.055 -82.04,-64.145 -30.6,-42.66 -48.89,-88.734 -56.24,-139.5738 -1.78,-12.1875 -2.42,-23.2344 -1.99,-33.332 -16.79,-21.5704 -28.22,-32.3438 -36.45,-32.3438 -6.49,0 -8.9,5.5274 -7.3,16.5625 0.85,5.9297 3.99,19.0742 9.46,39.3164 l 34.44,128.1177 c 3.95,14.824 6.71,27.453 8.18,37.8 4.66,31.793 -4.7,47.727 -23.03,47.727 -15.12,0 -33.49,-13.621 -55.01,-40.797 -21.52,-27.219 -57.59,-96.508 -57.59,-96.508 l 14.31,53.301 c 4.07,15.25 14.91,54.07 20.67,74.73 1.76,6.352 -2.68,11.305 -10.5,7.594 -15.09,-7.187 -48.36,-24.097 -71.66,-35.992 l -3.28,-12.34 -1.59,-5.765 0.04,0.058 c 0,0 21.79,11.871 27.78,5.332 4.33,-4.762 6.42,-13.062 0.9,-33.168 L 1439.89,90.6016 c -32.86,-43.7578 -46.38,-59.1602 -56.32,-59.1602 -6.66,0 -9.14,5.5274 -7.54,16.5625 0.83,5.9297 4.03,19.0742 9.55,39.3672 l 35.1,129.6879 20.94,77.664 c -17.14,2.121 -34.87,2.851 -50.81,3.16 -44.71,0.75 -75.75,-20.668 -109.8,-71.137 -32.95,-48.762 -52.29,-103.156 -59.61,-153.996 -6.71,-46.1602 1.73,-69.16797 25.23,-69.16797 15.51,0 34.12,13.85547 55.87,41.60157 21.75,27.7344 62.33,107.5584 62.33,107.5584 l -17.49,-64.8748 c -5.65,-21.0156 -9.17,-35.9258 -10.44,-44.6563 -3.83,-26.4257 4.03,-39.62887 20.18,-39.62887 17.25,0 38.78,16.21097 75.28,61.77737 -6.83,-22.8516 -16.59,-55.62502 -17.43,-59.26956 -1.33,-5.574215 3.31,-7.82031 7.25,-4.61718 5.4,4.33593 43.08,33.54294 43.08,33.54294 0,0 9.35,34.3282 17.55,58.6133 10.87,32.4411 79.16,167.0391 109.23,166.5391 6.74,-0.121 6.75,-7.734 3.81,-20.016 -1.62,-6.691 -3.42,-14.754 -6.23,-24.656 L 1554.73,87.4297 c -5.67,-20.8984 -9.13,-35.7031 -10.43,-44.4141 -3.8,-26.289 7.05,-39.4531 22.98,-39.4531 16.9,0 37.9,15.625 62.97,46.9336 1.13,-7.832 3.05,-14.9414 5.79,-21.25 7.34,-17.1289 19.15,-25.39063 35.34,-25.66407 29.17,-0.50781 42.46,14.96097 89.19,72.83207 -0.75,-18.3594 1.6,-33.9844 7,-46.7774 7.28,-17.3945 18.89,-26.17186 34.64,-26.05467 61.8,0.46875 94.74,82.12887 94.74,82.12887 l -9.75,-3.5937 c 0,0 -31.51,-40.6836 -56.5,-39.9024 -23.8,0.7422 -34.21,30.1055 -28.18,69.0622 0,0 57.56,23.407 82.47,47.071 m -47.5,69.636 c 0.81,1.457 1.59,2.981 2.4,4.387 16.36,27.832 31.18,41.766 44.37,41.766 12.18,0 16.4,-13.34 12.52,-40.043 -3.91,-26.996 -14.04,-49.039 -30.36,-66.071 -15.88,-16.511 -38.19,-30.574 -63.19,-43.289 4.92,22.051 18.16,73.496 34.26,103.25 M 1318.78,94.0508 C 1302.43,68.5039 1292.07,57.957 1282.5,57.957 c -10.23,0 -18.16,5.7305 -16.74,33.3789 1.99,38.9451 6.02,66.0351 27.27,113.4571 12.22,27.324 29.14,56.281 54.63,63.973 15.75,4.757 26.49,3.222 48.99,1.191 l -15.32,-56.766 c 0,0 -8.93,-35.351 -62.55,-119.1402"
         style="fill:#193958;fill-opacity:1;fill-rule:nonzero;stroke:none"
         id="path24" /></g></g></svg>
