<svg width="2104" height="1812" xmlns="http://www.w3.org/2000/svg" xml:space="preserve" enable-background="new 0 0 2104 1812" version="1.1">

 <g>
  <title>Layer 1</title>
  <path id="svg_1" d="m2105,632c0,394 0,787.5 0,1181c-701.33337,0 -1402.66669,0 -2104,0c0,-604 0,-1208 0,-1812c701.33331,0 1402.66663,0 2104,0c0,210.16667 0,420.33334 0,631m-899.49988,-538.64892c-325.14575,-0.00001 -650.29156,-0.00298 -975.43731,0.02368c-5.82009,0.00048 -11.66022,0.11098 -17.45684,0.58651c-30.30644,2.48613 -56.05673,14.85634 -76.90622,36.85207c-22.42864,23.66173 -32.96859,52.07852 -32.96343,84.71962c0.06889,436.30487 0.042,872.60974 0.09378,1308.91467c0.00073,6.14075 0.39427,12.31897 1.12837,18.41651c6.96616,57.86315 58.43864,103.35363 116.79498,103.35351c556.29709,-0.00049 1112.59408,0.01599 1668.8912,-0.04333c29.89038,-0.00318 55.99427,-10.65186 78.0691,-30.57117c27.26525,-24.60327 39.92541,-55.81336 39.92626,-92.32581c0.00989,-435.80481 0.01368,-871.60974 -0.05541,-1307.41456c-0.0011,-6.629 -0.5669,-13.31194 -1.50733,-19.87827c-8.44006,-58.93007 -59.0885,-102.64656 -118.62146,-102.64197c-226.98523,0.01746 -453.97034,0.00801 -681.95569,0.00854z" fill="#FFFFFF"/>
  <path id="svg_2" d="m1206.00024,93.35112c227.48523,-0.00057 454.47034,0.00888 681.45557,-0.00858c59.53296,-0.00459 110.1814,43.7119 118.62146,102.64197c0.94043,6.56633 1.50623,13.24927 1.50733,19.87827c0.06909,435.80482 0.0653,871.60975 0.05541,1307.41456c-0.00085,36.51245 -12.66101,67.72254 -39.92626,92.32581c-22.07483,19.91931 -48.17872,30.56799 -78.0691,30.57117c-556.29712,0.05932 -1112.59411,0.04284 -1668.8912,0.04333c-58.35634,0.00012 -109.82882,-45.49036 -116.79498,-103.35351c-0.7341,-6.09754 -1.12764,-12.27576 -1.12837,-18.41651c-0.05178,-436.30493 -0.02489,-872.6098 -0.09378,-1308.91467c-0.00516,-32.6411 10.53479,-61.05789 32.96343,-84.71962c20.84949,-21.99573 46.59978,-34.36594 76.90622,-36.85207c5.79662,-0.47553 11.63675,-0.58603 17.45683,-0.58651c325.14576,-0.02666 650.29157,-0.02369 975.93744,-0.02364m-578.50012,37.29242c-135.16455,0.00011 -270.3291,-0.00409 -405.49364,0.02327c-3.65672,0.00075 -7.36555,0.01041 -10.96211,0.57568c-42.14769,6.62444 -71.16047,40.61898 -71.16063,83.24999c-0.0016,437.32619 -0.00485,874.65242 0.04111,1311.97859c0.00047,4.4718 0.42781,8.97485 1.03966,13.4104c5.30571,38.46399 40.7247,69.23376 79.6915,69.23425c556.32428,0.00672 1112.64855,0.01807 1668.97277,-0.05469c22.99219,-0.00305 42.41358,-9.17688 58.13099,-25.71813c15.62219,-16.44092 22.6394,-36.34156 22.63122,-59.01404c-0.07031,-193.66346 -0.03882,-387.32691 -0.03809,-580.99042c0.00086,-242.49603 -0.01538,-484.99203 0.04078,-727.48805c0.00354,-15.47312 -2.87342,-30.20577 -10.88514,-43.48404c-16.4132,-27.20291 -40.52917,-41.67212 -72.52917,-41.67679c-419.49304,-0.06119 -838.98621,-0.04379 -1259.47925,-0.04602z" fill="#D00403"/>
  <path id="svg_3" d="m628.00012,130.64349c419.99304,0.00228 839.48621,-0.01512 1258.97925,0.04607c32,0.00467 56.11597,14.47388 72.52917,41.67679c8.01172,13.27827 10.88868,28.01092 10.88514,43.48404c-0.05616,242.49602 -0.03992,484.99202 -0.04078,727.48805c-0.00073,193.66351 -0.03222,387.32696 0.03809,580.99042c0.00818,22.67248 -7.00903,42.57312 -22.63122,59.01404c-15.71741,16.54125 -35.1388,25.71508 -58.13099,25.71813c-556.32422,0.07276 -1112.64849,0.06141 -1668.97277,0.05469c-38.9668,-0.00049 -74.38579,-30.77026 -79.6915,-69.23425c-0.61185,-4.43555 -1.03919,-8.9386 -1.03966,-13.4104c-0.04596,-437.32617 -0.04271,-874.6524 -0.04111,-1311.97859c0.00016,-42.63101 29.01294,-76.62555 71.16063,-83.24999c3.59656,-0.56527 7.30539,-0.57493 10.96211,-0.57568c135.16454,-0.02736 270.32909,-0.02316 405.99364,-0.02332m-390.87175,565.85651c-0.00116,162.98926 -0.00253,325.97852 -0.00345,488.96777c-0.0005,88.82935 -0.00912,177.6587 0.00525,266.48804c0.00403,24.83228 12.55046,43.10742 35.41188,49.55225c9.63794,2.71692 19.95859,4.10766 29.98246,4.17846c55.32812,0.3899 110.66043,0.21448 165.99121,0.1471c6.31509,-0.00769 12.68731,-0.10706 18.93451,-0.92066c31.2377,-4.06799 55.49783,-23.44702 55.48452,-60.84387c-0.1062,-299.31994 -0.06006,-598.63995 -0.0606,-897.9599c0,-1.9483 0,-3.89654 0,-6.23736c2.27716,0 4.07025,0 5.8634,0c45.3313,0 90.66266,-0.03113 135.99383,0.04449c4.97388,0.0083 9.97962,0.37427 14.91462,1.00934c31.12957,4.0061 49.70684,25.18158 49.71454,56.54004c0.01098,44.33136 0.10693,88.66327 -0.10743,132.99359c-0.03595,7.43164 -0.73791,15.01996 -2.3797,22.25269c-4.19323,18.47265 -13.02105,34.13073 -31.5791,41.41534c-7.38788,2.89984 -15.75787,4.10474 -23.75647,4.4837c-20.2785,0.96051 -40.67285,0.10303 -60.88177,1.71546c-17.15851,1.36914 -32.20325,8.44366 -41.11145,24.54248c-5.71247,10.32348 -7.33319,21.72168 -7.35999,33.27429c-0.12597,54.33063 -0.1358,108.66187 0.00214,162.99249c0.03302,12.99195 2.5393,25.53736 10.25329,36.41052c11.45783,16.15003 28.23273,21.90272 47.01148,23.42078c13.41278,1.08435 26.95038,1.2284 40.23529,3.15234c20.5708,2.97913 35.02972,14.42164 42.1969,34.3075c1.85736,5.15356 3.77386,10.32324 5.09399,15.62708c9.54621,38.35522 18.94605,76.74682 28.3927,115.12683c12.11139,49.2063 24.16889,98.42602 36.35987,147.61267c5.23327,21.11462 10.06689,42.36377 16.31207,63.18274c6.73034,22.43615 21.32739,37.99279 45.03772,42.57995c11.19848,2.16663 22.79461,3.17798 34.21148,3.1847c286.48713,0.16845 572.97431,0.13452 859.46149,0.13c14.71411,-0.00012 29.18811,-1.77905 43.36804,-5.83643c48.72083,-13.94091 83.28601,-50.99804 83.09009,-108.59326c-0.58691,-172.49035 -0.3136,-344.98389 -0.12353,-517.47595c0.03784,-34.28705 -10.26721,-64.80695 -31.09241,-91.72888c-22.45972,-29.03455 -51.28674,-48.51758 -88.16528,-53.31391c-22.06263,-2.86944 -44.43909,-3.36865 -66.68445,-4.77648c-24.57813,-1.55536 -49.16919,-2.90168 -73.75135,-4.39319c-36.70251,-2.22693 -73.40063,-4.52497 -110.10351,-6.74494c-17.53125,-1.06042 -34.79321,-3.30841 -50.57019,-11.75683c-16.21558,-8.68335 -26.72083,-21.46289 -27.00879,-40.60321c-0.31604,-20.99427 -0.23657,-41.99866 -0.02722,-62.99561c0.23657,-23.73309 14.0365,-42.88806 36.73865,-49.62695c8.94104,-2.65405 18.61059,-3.9549 27.95385,-3.98206c96.1615,-0.2796 192.32422,-0.12665 288.48645,-0.25421c7.95069,-0.0105 16.00354,-0.58936 23.83033,-1.93964c24.31823,-4.19555 41.19641,-17.20068 46.70849,-42.19131c1.59998,-7.254 2.46265,-14.82071 2.48828,-22.24814c0.19861,-57.83008 0.14014,-115.66116 0.0636,-173.49182c-0.00769,-5.81012 -0.36633,-11.65536 -1.06811,-17.42273c-2.82862,-23.24499 -16.12415,-38.99205 -38.86963,-44.58981c-9.59155,-2.36051 -19.70752,-3.61475 -29.58716,-3.62648c-177.15845,-0.21027 -354.31738,-0.20568 -531.47595,-0.02942c-11.42395,0.01137 -23.0138,0.86976 -34.23792,2.91678c-35.81445,6.53175 -62.78808,25.36351 -78.1842,59.09373c-9.21265,20.18311 -12.48657,41.65353 -12.49524,63.6333c-0.06677,170.99234 -0.05725,341.98471 -0.01331,512.97708c0.00611,23.64502 5.9209,45.86444 18.43372,65.91346c29.16431,46.72882 73.24158,69.92199 126.37561,76.87817c22.86389,2.99322 46.14648,2.85687 69.2478,3.9538c43.88086,2.0838 87.77246,3.94097 131.65039,6.08331c16.60401,0.81067 33.31824,1.17285 49.74268,3.46008c30.47095,4.24341 48.38208,24.29895 49.66467,55.03455c0.77759,18.63281 0.77832,37.34594 0.05615,55.98156c-0.9508,24.54334 -13.14636,41.99598 -36.47595,50.24781c-8.95154,3.16626 -18.78113,5.19421 -28.24597,5.33313c-41.32202,0.60656 -82.65698,0.36999 -123.9873,0.36291c-88.16102,-0.01501 -176.32618,0.40222 -264.48096,-0.35803c-34.99133,-0.30163 -50.38025,-13.76306 -60.68689,-41.88293c-15.93677,-43.48108 -31.87695,-86.96778 -48.52142,-130.1803c-10.51758,-27.30597 -30.30848,-44.15729 -59.80585,-48.99713c-12.43036,-2.03949 -24.77759,-4.7619 -36.99982,-7.82367c-6.80694,-1.70514 -13.03827,-5.66223 -14.52618,-13.04138c-3.60321,-17.86963 0.10308,-32.01984 20.34448,-35.79175c10.78137,-2.00898 21.69086,-3.32263 32.52808,-5.04145c56.08044,-8.89441 96.53796,-56.39312 96.5371,-113.28234c-0.00244,-153.15979 0.01123,-306.31961 -0.04431,-459.4794c-0.00195,-5.47962 -0.32678,-11.00599 -1.07592,-16.43119c-8.07508,-58.48062 -55.7475,-99.81145 -114.97608,-99.81132c-209.15729,0.00046 -418.31463,-0.00745 -627.47195,0.04622c-5.47629,0.0014 -11.00904,0.29324 -16.41883,1.09868c-23.49225,3.49763 -40.12449,15.59799 -46.38531,39.23039c-2.1073,7.95434 -3.22351,16.41372 -3.2354,24.64456c-0.19383,134.16037 -0.13739,268.32113 -0.13675,403.48178z" fill="#FFFFFF"/>
  <path id="svg_4" d="m237.12805,696c-0.00032,-134.66065 -0.05676,-268.82141 0.13707,-402.98178c0.01189,-8.23084 1.1281,-16.69022 3.2354,-24.64456c6.26082,-23.6324 22.89306,-35.73276 46.38531,-39.23039c5.40979,-0.80544 10.94254,-1.09728 16.41883,-1.09868c209.15732,-0.05367 418.31466,-0.04576 627.47195,-0.04622c59.22858,-0.00013 106.901,41.3307 114.97608,99.81132c0.74914,5.4252 1.07397,10.95157 1.07592,16.43119c0.05554,153.15979 0.04187,306.31961 0.04431,459.4794c0.00086,56.88922 -40.45666,104.38793 -96.5371,113.28234c-10.83722,1.71882 -21.74671,3.03247 -32.52808,5.04145c-20.2414,3.77191 -23.94769,17.92212 -20.34448,35.79175c1.48791,7.37915 7.71924,11.33624 14.52618,13.04138c12.22223,3.06177 24.56946,5.78418 36.99982,7.82367c29.49737,4.83984 49.28827,21.69116 59.80585,48.99713c16.64447,43.21252 32.58465,86.69922 48.52142,130.1803c10.30664,28.11987 25.69556,41.5813 60.68689,41.88293c88.15478,0.76025 176.31994,0.34302 264.48096,0.35803c41.33032,0.00708 82.66528,0.24365 123.9873,-0.36291c9.46484,-0.13892 19.29443,-2.16687 28.24597,-5.33313c23.32959,-8.25183 35.52515,-25.70447 36.47595,-50.24781c0.72217,-18.63562 0.72144,-37.34875 -0.05615,-55.98156c-1.28259,-30.7356 -19.19372,-50.79114 -49.66467,-55.03455c-16.42444,-2.28723 -33.13867,-2.64941 -49.74268,-3.46008c-43.87793,-2.14234 -87.76953,-3.99951 -131.65039,-6.08331c-23.10132,-1.09693 -46.38391,-0.96058 -69.2478,-3.9538c-53.13403,-6.95618 -97.2113,-30.14935 -126.37561,-76.87817c-12.51282,-20.04902 -18.42761,-42.26844 -18.43372,-65.91346c-0.04394,-170.99237 -0.05346,-341.98474 0.01331,-512.97708c0.00867,-21.97977 3.28259,-43.45019 12.49524,-63.6333c15.39612,-33.73022 42.36975,-52.56198 78.1842,-59.09373c11.22412,-2.04702 22.81397,-2.90541 34.23792,-2.91678c177.15857,-0.17626 354.3175,-0.18085 531.47595,0.02942c9.87964,0.01173 19.99561,1.26597 29.58716,3.62648c22.74548,5.59776 36.04101,21.34482 38.86963,44.58981c0.70178,5.76737 1.06042,11.61261 1.06811,17.42273c0.07654,57.83066 0.13501,115.66174 -0.0636,173.49182c-0.02563,7.42743 -0.8883,14.99414 -2.48828,22.24814c-5.51208,24.99063 -22.39026,37.99576 -46.70849,42.19131c-7.82679,1.35028 -15.87964,1.92914 -23.83033,1.93964c-96.16223,0.12756 -192.32495,-0.02539 -288.48645,0.25421c-9.34326,0.02716 -19.01281,1.32801 -27.95385,3.98206c-22.70215,6.73889 -36.50208,25.89386 -36.73865,49.62695c-0.20935,20.99695 -0.28882,42.00134 0.02722,62.99561c0.28796,19.14032 10.79321,31.91986 27.00879,40.60321c15.77698,8.44842 33.03894,10.69641 50.57019,11.75683c36.70288,2.21997 73.401,4.51801 110.10351,6.74494c24.58216,1.49151 49.17322,2.83783 73.75135,4.39319c22.24536,1.40783 44.62182,1.90704 66.68445,4.77648c36.87854,4.79633 65.70556,24.27936 88.16528,53.31391c20.8252,26.92193 31.13025,57.44183 31.09241,91.72888c-0.19007,172.49206 -0.46338,344.9856 0.12353,517.47595c0.19592,57.59522 -34.36926,94.65235 -83.09009,108.59326c-14.17993,4.05738 -28.65393,5.83631 -43.36804,5.83643c-286.48718,0.00452 -572.97436,0.03845 -859.46149,-0.13c-11.41687,-0.00672 -23.013,-1.01807 -34.21148,-3.1847c-23.71033,-4.58716 -38.30738,-20.1438 -45.03772,-42.57995c-6.24518,-20.81897 -11.0788,-42.06812 -16.31207,-63.18274c-12.19098,-49.18665 -24.24848,-98.40637 -36.35987,-147.61267c-9.44665,-38.38001 -18.84649,-76.77161 -28.3927,-115.12683c-1.32013,-5.30384 -3.23663,-10.47352 -5.09399,-15.62708c-7.16718,-19.88586 -21.6261,-31.32837 -42.1969,-34.3075c-13.28491,-1.92394 -26.82251,-2.06799 -40.23529,-3.15234c-18.77875,-1.51806 -35.55365,-7.27075 -47.01148,-23.42078c-7.71399,-10.87316 -10.22027,-23.41857 -10.25329,-36.41052c-0.13794,-54.33062 -0.12811,-108.66186 -0.00214,-162.99249c0.0268,-11.55261 1.64752,-22.95081 7.35999,-33.27429c8.9082,-16.09882 23.95294,-23.17334 41.11145,-24.54248c20.20892,-1.61243 40.60327,-0.75495 60.88177,-1.71546c7.9986,-0.37896 16.36859,-1.58386 23.75647,-4.4837c18.55805,-7.28461 27.38587,-22.94269 31.5791,-41.41534c1.64179,-7.23273 2.34375,-14.82105 2.3797,-22.25269c0.21436,-44.33032 0.11841,-88.66223 0.10743,-132.99359c-0.0077,-31.35846 -18.58497,-52.53394 -49.71454,-56.54004c-4.935,-0.63507 -9.94074,-1.00104 -14.91462,-1.00934c-45.33117,-0.07562 -90.66253,-0.04449 -135.99383,-0.04449c-1.79315,0 -3.58624,0 -5.8634,0c0,2.34082 0,4.28906 0,6.23736c0.00054,299.31995 -0.0456,598.63996 0.0606,897.9599c0.01331,37.39685 -24.24682,56.77588 -55.48452,60.84387c-6.2472,0.8136 -12.61942,0.91297 -18.93451,0.92066c-55.33078,0.06738 -110.66309,0.2428 -165.99121,-0.1471c-10.02387,-0.0708 -20.34452,-1.46154 -29.98246,-4.17846c-22.86142,-6.44483 -35.40785,-24.71997 -35.41188,-49.55225c-0.01437,-88.82934 -0.00575,-177.65869 -0.00525,-266.48804c0.00092,-162.98925 0.00229,-325.97851 0.00313,-489.46777z" fill="#D00000"/>
 </g>
</svg>