<svg version="1.1" id="Layer_1" xmlns="http://www.w3.org/2000/svg" xmlns:xlink="http://www.w3.org/1999/xlink" x="0px" y="0px"
	 width="100%" viewBox="0 0 2104 1812" enable-background="new 0 0 2104 1812" xml:space="preserve">
<path fill="#FFFFFF" opacity="1.000000" stroke="none" 
	d="
M2105.000000,632.000000 
	C2105.000000,1026.000000 2105.000000,1419.500000 2105.000000,1813.000000 
	C1403.666626,1813.000000 702.333313,1813.000000 1.000000,1813.000000 
	C1.000000,1209.000000 1.000000,605.000000 1.000000,1.000000 
	C702.333313,1.000000 1403.666626,1.000000 2105.000000,1.000000 
	C2105.000000,211.166672 2105.000000,421.333344 2105.000000,632.000000 
M1205.500122,93.351082 
	C880.354370,93.351074 555.208557,93.348099 230.062805,93.374756 
	C224.242722,93.375237 218.402588,93.485741 212.605972,93.961266 
	C182.299530,96.447395 156.549240,108.817612 135.699753,130.813339 
	C113.271111,154.475067 102.731163,182.891861 102.736320,215.532959 
	C102.805214,651.837830 102.778320,1088.142700 102.830101,1524.447632 
	C102.830833,1530.588379 103.224373,1536.766602 103.958466,1542.864136 
	C110.924629,1600.727295 162.397110,1646.217773 220.753448,1646.217651 
	C777.050537,1646.217163 1333.347534,1646.233643 1889.644653,1646.174316 
	C1919.535034,1646.171143 1945.638916,1635.522461 1967.713745,1615.603149 
	C1994.979004,1590.999878 2007.639160,1559.789795 2007.640015,1523.277344 
	C2007.649902,1087.472534 2007.653687,651.667603 2007.584595,215.862778 
	C2007.583496,209.233780 2007.017700,202.550842 2006.077271,195.984512 
	C1997.637207,137.054443 1946.988770,93.337952 1887.455811,93.342537 
	C1660.470581,93.360001 1433.485474,93.350548 1205.500122,93.351082 
z"/>
<path fill="#D00403" opacity="1.000000" stroke="none" 
	d="
M1206.000244,93.351120 
	C1433.485474,93.350548 1660.470581,93.360001 1887.455811,93.342537 
	C1946.988770,93.337952 1997.637207,137.054443 2006.077271,195.984512 
	C2007.017700,202.550842 2007.583496,209.233780 2007.584595,215.862778 
	C2007.653687,651.667603 2007.649902,1087.472534 2007.640015,1523.277344 
	C2007.639160,1559.789795 1994.979004,1590.999878 1967.713745,1615.603149 
	C1945.638916,1635.522461 1919.535034,1646.171143 1889.644653,1646.174316 
	C1333.347534,1646.233643 777.050537,1646.217163 220.753448,1646.217651 
	C162.397110,1646.217773 110.924629,1600.727295 103.958466,1542.864136 
	C103.224373,1536.766602 102.830833,1530.588379 102.830101,1524.447632 
	C102.778320,1088.142700 102.805214,651.837830 102.736320,215.532959 
	C102.731163,182.891861 113.271111,154.475067 135.699753,130.813339 
	C156.549240,108.817612 182.299530,96.447395 212.605972,93.961266 
	C218.402588,93.485741 224.242722,93.375237 230.062805,93.374756 
	C555.208557,93.348099 880.354370,93.351074 1206.000244,93.351120 
M627.500122,130.643539 
	C492.335571,130.643646 357.171021,130.639450 222.006485,130.666809 
	C218.349762,130.667557 214.640930,130.677216 211.044373,131.242493 
	C168.896683,137.866928 139.883896,171.861465 139.883743,214.492477 
	C139.882141,651.818665 139.878891,1089.144897 139.924850,1526.471069 
	C139.925323,1530.942871 140.352661,1535.445923 140.964508,1539.881470 
	C146.270218,1578.345459 181.689209,1609.115234 220.656006,1609.115723 
	C776.980286,1609.122437 1333.304565,1609.133789 1889.628784,1609.061035 
	C1912.620972,1609.057983 1932.042358,1599.884155 1947.759766,1583.342896 
	C1963.381958,1566.901978 1970.399170,1547.001343 1970.390991,1524.328857 
	C1970.320679,1330.665405 1970.352173,1137.001953 1970.352905,943.338440 
	C1970.353760,700.842407 1970.337524,458.346405 1970.393677,215.850388 
	C1970.397217,200.377274 1967.520264,185.644623 1959.508545,172.366348 
	C1943.095337,145.163437 1918.979370,130.694229 1886.979370,130.689560 
	C1467.486328,130.628372 1047.993164,130.645767 627.500122,130.643539 
z"/>
<path fill="#FFFFFF" opacity="1.000000" stroke="none" 
	d="
M628.000122,130.643494 
	C1047.993164,130.645767 1467.486328,130.628372 1886.979370,130.689560 
	C1918.979370,130.694229 1943.095337,145.163437 1959.508545,172.366348 
	C1967.520264,185.644623 1970.397217,200.377274 1970.393677,215.850388 
	C1970.337524,458.346405 1970.353760,700.842407 1970.352905,943.338440 
	C1970.352173,1137.001953 1970.320679,1330.665405 1970.390991,1524.328857 
	C1970.399170,1547.001343 1963.381958,1566.901978 1947.759766,1583.342896 
	C1932.042358,1599.884155 1912.620972,1609.057983 1889.628784,1609.061035 
	C1333.304565,1609.133789 776.980286,1609.122437 220.656006,1609.115723 
	C181.689209,1609.115234 146.270218,1578.345459 140.964508,1539.881470 
	C140.352661,1535.445923 139.925323,1530.942871 139.924850,1526.471069 
	C139.878891,1089.144897 139.882141,651.818665 139.883743,214.492477 
	C139.883896,171.861465 168.896683,137.866928 211.044373,131.242493 
	C214.640930,130.677216 218.349762,130.667557 222.006485,130.666809 
	C357.171021,130.639450 492.335571,130.643646 628.000122,130.643494 
M237.128372,696.500000 
	C237.127213,859.489258 237.125839,1022.478516 237.124924,1185.467773 
	C237.124420,1274.297119 237.115799,1363.126465 237.130173,1451.955811 
	C237.134201,1476.788086 249.680634,1495.063232 272.542053,1501.508057 
	C282.179993,1504.224976 292.500641,1505.615723 302.524506,1505.686523 
	C357.852631,1506.076416 413.184937,1505.901001 468.515717,1505.833618 
	C474.830811,1505.825928 481.203033,1505.726562 487.450226,1504.912964 
	C518.687927,1500.844971 542.948059,1481.465942 542.934753,1444.069092 
	C542.828552,1144.749146 542.874695,845.429138 542.874146,546.109192 
	C542.874146,544.160889 542.874146,542.212646 542.874146,539.871826 
	C545.151306,539.871826 546.944397,539.871826 548.737549,539.871826 
	C594.068848,539.871826 639.400208,539.840698 684.731384,539.916321 
	C689.705261,539.924622 694.710999,540.290588 699.645996,540.925659 
	C730.775574,544.931763 749.352844,566.107239 749.360535,597.465698 
	C749.371521,641.797058 749.467468,686.128967 749.253113,730.459290 
	C749.217163,737.890930 748.515198,745.479248 746.873413,752.711975 
	C742.680176,771.184631 733.852356,786.842712 715.294312,794.127319 
	C707.906433,797.027161 699.536438,798.232056 691.537842,798.611023 
	C671.259338,799.571533 650.864990,798.714050 630.656067,800.326477 
	C613.497559,801.695618 598.452820,808.770142 589.544617,824.868958 
	C583.832153,835.192444 582.211426,846.590637 582.184631,858.143250 
	C582.058655,912.473877 582.048828,966.805115 582.186768,1021.135742 
	C582.219788,1034.127686 584.726074,1046.673096 592.440063,1057.546265 
	C603.897888,1073.696289 620.672791,1079.448975 639.451538,1080.967041 
	C652.864319,1082.051392 666.401917,1082.195435 679.686829,1084.119385 
	C700.257629,1087.098511 714.716553,1098.541016 721.883728,1118.426880 
	C723.741089,1123.580444 725.657593,1128.750122 726.977722,1134.053955 
	C736.523926,1172.409180 745.923767,1210.800781 755.370422,1249.180786 
	C767.481812,1298.387085 779.539307,1347.606812 791.730286,1396.793457 
	C796.963562,1417.908081 801.797180,1439.157227 808.042358,1459.976196 
	C814.772705,1482.412354 829.369751,1497.968994 853.080078,1502.556152 
	C864.278564,1504.722778 875.874695,1505.734131 887.291565,1505.740845 
	C1173.778687,1505.909302 1460.265869,1505.875366 1746.753052,1505.870850 
	C1761.467163,1505.870728 1775.941162,1504.091797 1790.121094,1500.034424 
	C1838.841919,1486.093506 1873.407104,1449.036377 1873.211182,1391.441162 
	C1872.624268,1218.950806 1872.897583,1046.457275 1873.087646,873.965210 
	C1873.125488,839.678162 1862.820435,809.158264 1841.995239,782.236328 
	C1819.535522,753.201782 1790.708496,733.718750 1753.829956,728.922424 
	C1731.767334,726.052979 1709.390869,725.553772 1687.145508,724.145935 
	C1662.567383,722.590576 1637.976318,721.244263 1613.394165,719.752747 
	C1576.691650,717.525818 1539.993530,715.227783 1503.290649,713.007812 
	C1485.759399,711.947388 1468.497437,709.699402 1452.720459,701.250977 
	C1436.504883,692.567627 1425.999634,679.788086 1425.711670,660.647766 
	C1425.395630,639.653503 1425.475098,618.649109 1425.684448,597.652161 
	C1425.921021,573.919067 1439.720947,554.764099 1462.423096,548.025208 
	C1471.364136,545.371155 1481.033691,544.070312 1490.376953,544.043152 
	C1586.538452,543.763550 1682.701172,543.916504 1778.863403,543.788940 
	C1786.814087,543.778442 1794.866943,543.199585 1802.693726,541.849304 
	C1827.011963,537.653748 1843.890137,524.648621 1849.402222,499.657990 
	C1851.002197,492.403992 1851.864868,484.837280 1851.890503,477.409851 
	C1852.089111,419.579773 1852.030640,361.748688 1851.954102,303.918030 
	C1851.946411,298.107910 1851.587769,292.262665 1850.885986,286.495300 
	C1848.057373,263.250305 1834.761841,247.503250 1812.016357,241.905487 
	C1802.424805,239.544983 1792.308838,238.290741 1782.429199,238.279007 
	C1605.270752,238.068741 1428.111816,238.073334 1250.953247,238.249588 
	C1239.529297,238.260956 1227.939453,239.119354 1216.715332,241.166367 
	C1180.900879,247.698120 1153.927246,266.529877 1138.531128,300.260101 
	C1129.318481,320.443207 1126.044556,341.913635 1126.035889,363.893402 
	C1125.969116,534.885742 1125.978638,705.878113 1126.022583,876.870483 
	C1126.028687,900.515503 1131.943481,922.734924 1144.456299,942.783936 
	C1173.620605,989.512756 1217.697876,1012.705933 1270.831909,1019.662109 
	C1293.695801,1022.655334 1316.978394,1022.518982 1340.079712,1023.615906 
	C1383.960571,1025.699707 1427.852173,1027.556885 1471.730103,1029.699219 
	C1488.334106,1030.509888 1505.048340,1030.872070 1521.472778,1033.159302 
	C1551.943726,1037.402710 1569.854858,1057.458252 1571.137451,1088.193848 
	C1571.915039,1106.826660 1571.915771,1125.539795 1571.193604,1144.175415 
	C1570.242798,1168.718750 1558.047241,1186.171387 1534.717651,1194.423218 
	C1525.766113,1197.589478 1515.936523,1199.617432 1506.471680,1199.756348 
	C1465.149658,1200.362915 1423.814697,1200.126343 1382.484375,1200.119263 
	C1294.323364,1200.104248 1206.158203,1200.521484 1118.003418,1199.761230 
	C1083.012085,1199.459595 1067.623169,1185.998169 1057.316528,1157.878296 
	C1041.379761,1114.397217 1025.439575,1070.910522 1008.795105,1027.697998 
	C998.277527,1000.392029 978.486633,983.540710 948.989258,978.700867 
	C936.558899,976.661377 924.211670,973.938965 911.989441,970.877197 
	C905.182495,969.172058 898.951172,965.214966 897.463257,957.835815 
	C893.860046,939.966187 897.566345,925.815979 917.807739,922.044067 
	C928.589111,920.035095 939.498596,918.721436 950.335815,917.002625 
	C1006.416260,908.108215 1046.873779,860.609497 1046.872925,803.720276 
	C1046.870483,650.560486 1046.884155,497.400665 1046.828613,344.240875 
	C1046.826660,338.761261 1046.501831,333.234894 1045.752686,327.809692 
	C1037.677612,269.329071 990.005188,227.998245 930.776611,227.998367 
	C721.619324,227.998825 512.461975,227.990921 303.304657,228.044586 
	C297.828369,228.045990 292.295624,228.337830 286.885834,229.143265 
	C263.393585,232.640900 246.761337,244.741257 240.500519,268.373657 
	C238.393219,276.328003 237.277008,284.787384 237.265121,293.018219 
	C237.071289,427.178589 237.127731,561.339355 237.128372,696.500000 
z"/>
<path fill="#D00000" opacity="1.000000" stroke="none" 
	d="
M237.128052,696.000000 
	C237.127731,561.339355 237.071289,427.178589 237.265121,293.018219 
	C237.277008,284.787384 238.393219,276.328003 240.500519,268.373657 
	C246.761337,244.741257 263.393585,232.640900 286.885834,229.143265 
	C292.295624,228.337830 297.828369,228.045990 303.304657,228.044586 
	C512.461975,227.990921 721.619324,227.998825 930.776611,227.998367 
	C990.005188,227.998245 1037.677612,269.329071 1045.752686,327.809692 
	C1046.501831,333.234894 1046.826660,338.761261 1046.828613,344.240875 
	C1046.884155,497.400665 1046.870483,650.560486 1046.872925,803.720276 
	C1046.873779,860.609497 1006.416260,908.108215 950.335815,917.002625 
	C939.498596,918.721436 928.589111,920.035095 917.807739,922.044067 
	C897.566345,925.815979 893.860046,939.966187 897.463257,957.835815 
	C898.951172,965.214966 905.182495,969.172058 911.989441,970.877197 
	C924.211670,973.938965 936.558899,976.661377 948.989258,978.700867 
	C978.486633,983.540710 998.277527,1000.392029 1008.795105,1027.697998 
	C1025.439575,1070.910522 1041.379761,1114.397217 1057.316528,1157.878296 
	C1067.623169,1185.998169 1083.012085,1199.459595 1118.003418,1199.761230 
	C1206.158203,1200.521484 1294.323364,1200.104248 1382.484375,1200.119263 
	C1423.814697,1200.126343 1465.149658,1200.362915 1506.471680,1199.756348 
	C1515.936523,1199.617432 1525.766113,1197.589478 1534.717651,1194.423218 
	C1558.047241,1186.171387 1570.242798,1168.718750 1571.193604,1144.175415 
	C1571.915771,1125.539795 1571.915039,1106.826660 1571.137451,1088.193848 
	C1569.854858,1057.458252 1551.943726,1037.402710 1521.472778,1033.159302 
	C1505.048340,1030.872070 1488.334106,1030.509888 1471.730103,1029.699219 
	C1427.852173,1027.556885 1383.960571,1025.699707 1340.079712,1023.615906 
	C1316.978394,1022.518982 1293.695801,1022.655334 1270.831909,1019.662109 
	C1217.697876,1012.705933 1173.620605,989.512756 1144.456299,942.783936 
	C1131.943481,922.734924 1126.028687,900.515503 1126.022583,876.870483 
	C1125.978638,705.878113 1125.969116,534.885742 1126.035889,363.893402 
	C1126.044556,341.913635 1129.318481,320.443207 1138.531128,300.260101 
	C1153.927246,266.529877 1180.900879,247.698120 1216.715332,241.166367 
	C1227.939453,239.119354 1239.529297,238.260956 1250.953247,238.249588 
	C1428.111816,238.073334 1605.270752,238.068741 1782.429199,238.279007 
	C1792.308838,238.290741 1802.424805,239.544983 1812.016357,241.905487 
	C1834.761841,247.503250 1848.057373,263.250305 1850.885986,286.495300 
	C1851.587769,292.262665 1851.946411,298.107910 1851.954102,303.918030 
	C1852.030640,361.748688 1852.089111,419.579773 1851.890503,477.409851 
	C1851.864868,484.837280 1851.002197,492.403992 1849.402222,499.657990 
	C1843.890137,524.648621 1827.011963,537.653748 1802.693726,541.849304 
	C1794.866943,543.199585 1786.814087,543.778442 1778.863403,543.788940 
	C1682.701172,543.916504 1586.538452,543.763550 1490.376953,544.043152 
	C1481.033691,544.070312 1471.364136,545.371155 1462.423096,548.025208 
	C1439.720947,554.764099 1425.921021,573.919067 1425.684448,597.652161 
	C1425.475098,618.649109 1425.395630,639.653503 1425.711670,660.647766 
	C1425.999634,679.788086 1436.504883,692.567627 1452.720459,701.250977 
	C1468.497437,709.699402 1485.759399,711.947388 1503.290649,713.007812 
	C1539.993530,715.227783 1576.691650,717.525818 1613.394165,719.752747 
	C1637.976318,721.244263 1662.567383,722.590576 1687.145508,724.145935 
	C1709.390869,725.553772 1731.767334,726.052979 1753.829956,728.922424 
	C1790.708496,733.718750 1819.535522,753.201782 1841.995239,782.236328 
	C1862.820435,809.158264 1873.125488,839.678162 1873.087646,873.965210 
	C1872.897583,1046.457275 1872.624268,1218.950806 1873.211182,1391.441162 
	C1873.407104,1449.036377 1838.841919,1486.093506 1790.121094,1500.034424 
	C1775.941162,1504.091797 1761.467163,1505.870728 1746.753052,1505.870850 
	C1460.265869,1505.875366 1173.778687,1505.909302 887.291565,1505.740845 
	C875.874695,1505.734131 864.278564,1504.722778 853.080078,1502.556152 
	C829.369751,1497.968994 814.772705,1482.412354 808.042358,1459.976196 
	C801.797180,1439.157227 796.963562,1417.908081 791.730286,1396.793457 
	C779.539307,1347.606812 767.481812,1298.387085 755.370422,1249.180786 
	C745.923767,1210.800781 736.523926,1172.409180 726.977722,1134.053955 
	C725.657593,1128.750122 723.741089,1123.580444 721.883728,1118.426880 
	C714.716553,1098.541016 700.257629,1087.098511 679.686829,1084.119385 
	C666.401917,1082.195435 652.864319,1082.051392 639.451538,1080.967041 
	C620.672791,1079.448975 603.897888,1073.696289 592.440063,1057.546265 
	C584.726074,1046.673096 582.219788,1034.127686 582.186768,1021.135742 
	C582.048828,966.805115 582.058655,912.473877 582.184631,858.143250 
	C582.211426,846.590637 583.832153,835.192444 589.544617,824.868958 
	C598.452820,808.770142 613.497559,801.695618 630.656067,800.326477 
	C650.864990,798.714050 671.259338,799.571533 691.537842,798.611023 
	C699.536438,798.232056 707.906433,797.027161 715.294312,794.127319 
	C733.852356,786.842712 742.680176,771.184631 746.873413,752.711975 
	C748.515198,745.479248 749.217163,737.890930 749.253113,730.459290 
	C749.467468,686.128967 749.371521,641.797058 749.360535,597.465698 
	C749.352844,566.107239 730.775574,544.931763 699.645996,540.925659 
	C694.710999,540.290588 689.705261,539.924622 684.731384,539.916321 
	C639.400208,539.840698 594.068848,539.871826 548.737549,539.871826 
	C546.944397,539.871826 545.151306,539.871826 542.874146,539.871826 
	C542.874146,542.212646 542.874146,544.160889 542.874146,546.109192 
	C542.874695,845.429138 542.828552,1144.749146 542.934753,1444.069092 
	C542.948059,1481.465942 518.687927,1500.844971 487.450226,1504.912964 
	C481.203033,1505.726562 474.830811,1505.825928 468.515717,1505.833618 
	C413.184937,1505.901001 357.852631,1506.076416 302.524506,1505.686523 
	C292.500641,1505.615723 282.179993,1504.224976 272.542053,1501.508057 
	C249.680634,1495.063232 237.134201,1476.788086 237.130173,1451.955811 
	C237.115799,1363.126465 237.124420,1274.297119 237.124924,1185.467773 
	C237.125839,1022.478516 237.127213,859.489258 237.128052,696.000000 
z"/>
</svg>