<svg id="svg" version="1.1" xmlns="http://www.w3.org/2000/svg" xmlns:xlink="http://www.w3.org/1999/xlink" width="400" height="218.46710923355462" viewBox="0, 0, 400,218.46710923355462"><g id="svgg"><path id="path0" d="M89.250 72.920 C 87.875 73.026,86.600 73.160,86.417 73.217 C 86.233 73.274,85.878 73.356,85.626 73.399 C 84.866 73.530,83.143 74.119,82.083 74.611 C 79.151 75.971,75.623 79.486,74.666 82.000 C 74.544 82.321,74.388 82.658,74.320 82.750 C 73.889 83.326,73.263 85.839,72.970 88.167 C 72.650 90.711,72.650 127.867,72.970 130.167 C 73.678 135.247,74.906 137.827,78.104 140.947 C 78.873 141.698,79.651 142.359,79.834 142.417 C 80.017 142.475,80.167 142.581,80.167 142.653 C 80.167 142.998,84.425 144.734,86.083 145.066 C 87.428 145.334,92.301 145.620,94.208 145.542 L 96.333 145.455 96.333 135.156 C 96.333 125.488,96.351 124.853,96.625 124.782 C 96.785 124.740,96.542 124.697,96.083 124.686 C 82.462 124.369,80.329 105.293,93.604 102.511 C 94.600 102.302,94.630 102.280,94.829 101.607 C 94.941 101.227,95.327 100.348,95.687 99.653 L 96.342 98.389 96.335 85.665 C 96.332 78.666,96.311 72.926,96.290 72.909 C 96.098 72.759,91.229 72.766,89.250 72.920 M94.750 105.620 C 88.316 106.517,85.584 114.379,90.091 119.025 C 91.266 120.236,94.370 121.500,96.170 121.500 C 96.274 121.500,96.333 118.612,96.333 113.500 L 96.333 105.500 95.792 105.525 C 95.494 105.539,95.025 105.581,94.750 105.620 M98.208 124.782 C 98.369 124.823,98.631 124.823,98.792 124.782 C 98.952 124.740,98.821 124.705,98.500 124.705 C 98.179 124.705,98.048 124.740,98.208 124.782 " stroke="none" fill="#04cdf4" fill-rule="evenodd"></path><path id="path1" d="M107.250 91.593 C 107.067 91.635,106.504 91.748,106.000 91.844 C 101.153 92.764,96.712 96.668,95.014 101.500 C 94.706 102.377,94.662 102.422,93.983 102.538 C 82.358 104.528,81.519 121.197,92.898 124.079 C 96.899 125.092,104.539 124.451,108.580 122.762 C 109.067 122.559,109.241 122.570,110.106 122.858 C 123.396 127.291,133.684 123.200,133.664 113.489 C 133.653 108.143,128.722 102.500,124.061 102.500 C 123.779 102.500,123.646 102.319,123.422 101.634 C 121.877 96.912,117.785 93.205,112.667 91.892 C 111.757 91.659,107.890 91.445,107.250 91.593 M112.250 94.906 C 116.550 96.081,119.936 99.641,120.940 104.042 L 121.235 105.333 122.076 105.336 C 131.411 105.368,133.992 118.181,125.226 120.981 C 120.151 122.602,111.126 120.917,104.970 117.199 C 103.015 116.018,103.153 116.384,103.205 112.502 L 103.250 109.130 106.203 107.607 L 109.156 106.083 111.619 107.319 C 112.975 107.999,114.365 108.731,114.708 108.946 L 115.333 109.338 115.333 112.556 C 115.333 116.250,115.468 115.911,113.517 117.135 L 112.451 117.804 113.100 117.987 C 117.789 119.311,118.334 118.748,118.332 112.584 C 118.331 107.240,118.418 107.378,113.453 104.843 C 108.955 102.546,109.409 102.547,104.952 104.822 C 99.852 107.425,100.083 107.057,100.085 112.583 C 100.086 117.765,100.078 117.748,103.244 119.682 C 104.997 120.754,105.000 120.720,103.125 121.053 C 98.963 121.791,95.506 121.776,93.281 121.011 C 84.603 118.025,86.509 106.152,95.787 105.399 C 97.108 105.292,97.176 105.267,97.262 104.852 C 98.797 97.427,105.411 93.038,112.250 94.906 " stroke="none" fill="#fafbfc" fill-rule="evenodd"></path><path id="path2" d="M232.458 91.180 C 232.190 91.336,232.167 91.784,232.167 96.766 L 232.167 102.183 231.542 101.574 C 229.889 99.964,226.930 99.277,224.330 99.899 C 223.319 100.141,221.500 100.973,221.500 101.194 C 221.500 101.271,221.421 101.333,221.324 101.333 C 221.227 101.333,220.796 101.692,220.366 102.130 C 215.575 107.006,216.750 115.203,222.668 118.195 L 224.083 118.910 226.333 118.913 C 228.154 118.916,228.692 118.861,229.151 118.625 C 229.463 118.465,229.819 118.333,229.942 118.333 C 230.066 118.333,230.167 118.263,230.167 118.178 C 230.167 118.092,230.306 117.978,230.476 117.924 C 230.646 117.870,231.114 117.530,231.517 117.168 L 232.250 116.510 232.299 117.297 C 232.363 118.333,232.615 118.500,234.109 118.500 C 235.804 118.500,235.667 119.722,235.667 104.687 L 235.667 91.519 235.296 91.259 C 234.870 90.961,232.928 90.907,232.458 91.180 M260.000 91.333 C 259.616 91.717,259.462 117.472,259.839 118.178 C 260.142 118.744,262.949 118.655,263.171 118.072 C 263.271 117.808,263.333 112.692,263.333 104.656 C 263.333 89.567,263.526 91.000,261.500 91.000 C 260.556 91.000,260.270 91.063,260.000 91.333 M324.116 91.208 C 323.865 91.395,323.831 91.971,323.793 96.719 L 323.750 102.021 323.167 101.495 C 318.950 97.689,312.122 99.841,309.659 105.750 C 308.450 108.649,309.064 112.861,311.091 115.585 C 313.963 119.444,320.030 120.195,323.269 117.091 L 324.000 116.390 324.000 117.123 C 324.000 118.350,324.165 118.500,325.517 118.500 C 327.551 118.500,327.333 120.138,327.333 104.853 C 327.333 89.504,327.525 91.000,325.560 91.000 C 324.891 91.000,324.278 91.088,324.116 91.208 M164.333 99.915 C 158.929 101.410,157.946 107.501,162.750 109.722 C 164.188 110.387,165.540 110.829,166.144 110.832 C 168.027 110.840,170.356 112.342,170.374 113.558 C 170.417 116.398,164.581 116.484,161.927 113.683 C 161.263 112.983,160.853 113.032,159.851 113.932 C 158.665 114.999,158.689 115.357,160.028 116.569 C 160.594 117.081,161.157 117.500,161.278 117.500 C 161.400 117.500,161.500 117.559,161.500 117.630 C 161.500 117.761,161.868 117.934,163.417 118.532 C 167.543 120.127,173.066 118.065,173.824 114.646 C 174.610 111.104,172.251 108.629,167.167 107.661 C 164.597 107.172,163.167 106.218,163.167 104.995 C 163.167 102.657,167.425 102.262,170.331 104.331 C 171.012 104.816,171.239 104.758,172.167 103.864 C 173.525 102.556,173.243 101.878,170.861 100.723 C 168.762 99.705,166.228 99.392,164.333 99.915 M183.250 99.913 C 182.367 100.135,180.489 100.927,180.339 101.141 C 180.290 101.210,179.959 101.486,179.604 101.753 C 176.656 103.968,175.376 109.818,177.095 113.222 C 177.226 113.481,177.333 113.761,177.333 113.844 C 177.333 114.218,178.572 115.870,179.415 116.622 C 180.293 117.404,181.091 117.867,182.828 118.602 C 184.419 119.275,188.964 118.954,190.167 118.084 C 190.304 117.985,190.679 117.785,191.000 117.640 C 191.964 117.206,193.333 115.871,193.333 115.366 C 193.333 114.013,191.312 113.066,190.417 114.000 C 190.153 114.275,189.839 114.500,189.719 114.500 C 189.598 114.500,189.500 114.559,189.500 114.630 C 189.500 114.702,189.256 114.863,188.958 114.989 C 185.371 116.501,181.823 115.372,180.330 112.244 C 179.502 110.508,178.810 110.667,187.191 110.667 L 194.550 110.667 194.452 108.792 C 194.119 102.428,189.094 98.444,183.250 99.913 M205.000 99.907 C 203.944 100.203,202.899 100.831,202.056 101.675 L 201.333 102.400 201.333 101.483 C 201.333 100.287,201.186 100.167,199.723 100.167 C 198.049 100.167,198.167 99.464,198.167 109.456 C 198.167 119.359,198.000 118.500,199.917 118.500 C 201.810 118.500,201.667 119.026,201.667 112.079 L 201.667 106.059 202.224 105.274 C 204.018 102.752,207.182 102.231,209.155 104.134 C 210.249 105.190,210.242 105.141,210.333 111.917 C 210.379 115.308,210.477 118.177,210.552 118.292 C 210.713 118.542,213.284 118.579,213.667 118.337 C 214.067 118.084,214.032 105.989,213.627 104.604 C 212.547 100.911,208.764 98.851,205.000 99.907 M246.833 99.909 C 242.109 100.982,238.969 105.717,239.676 110.701 C 239.890 112.214,240.125 112.869,241.116 114.728 C 243.401 119.015,250.953 120.382,254.849 117.214 C 256.672 115.731,256.747 115.438,255.598 114.256 C 254.699 113.331,254.400 113.316,253.285 114.143 C 247.615 118.344,240.841 112.848,243.814 106.460 C 245.501 102.835,250.989 101.758,253.340 104.591 C 253.971 105.352,256.000 104.152,256.000 103.017 C 256.000 102.362,255.888 102.227,254.667 101.408 C 252.365 99.865,249.467 99.311,246.833 99.909 M274.339 99.936 C 273.747 100.065,273.188 100.245,273.098 100.336 C 273.007 100.426,272.832 100.500,272.709 100.500 C 272.181 100.500,270.544 101.751,269.395 103.032 C 266.877 105.840,266.491 110.903,268.525 114.460 C 271.358 119.417,278.593 120.566,282.948 116.750 C 283.821 115.985,285.333 113.905,285.333 113.469 C 285.333 113.339,285.403 113.162,285.488 113.075 C 286.310 112.236,286.329 107.190,285.517 105.529 C 284.600 103.653,283.763 102.553,282.546 101.628 C 280.241 99.875,277.346 99.278,274.339 99.936 M289.958 100.399 C 289.533 100.722,289.513 112.619,289.936 114.023 C 290.431 115.667,291.945 117.833,292.600 117.833 C 292.728 117.833,292.833 117.895,292.833 117.969 C 292.833 118.435,294.786 118.917,296.667 118.914 C 298.988 118.911,299.689 118.643,301.186 117.187 L 302.167 116.234 302.167 117.167 C 302.167 118.370,302.317 118.500,303.711 118.500 C 305.691 118.500,305.500 119.471,305.500 109.388 C 305.500 99.256,305.685 100.181,303.658 100.172 C 301.870 100.164,302.000 99.656,302.000 106.677 L 302.000 112.787 301.493 113.435 C 298.964 116.667,294.679 116.415,293.515 112.966 C 293.189 112.001,293.167 111.575,293.167 106.251 C 293.167 102.052,293.114 100.514,292.967 100.367 C 292.688 100.088,290.335 100.113,289.958 100.399 M188.051 103.578 C 189.488 104.298,190.596 105.673,190.910 107.125 L 191.026 107.667 185.437 107.667 L 179.848 107.667 180.077 107.019 C 180.778 105.030,181.578 104.216,183.833 103.195 C 184.648 102.826,186.971 103.037,188.051 103.578 M229.240 103.570 C 229.785 103.837,230.647 104.466,231.157 104.967 L 232.083 105.878 232.135 109.053 C 232.164 110.799,232.146 112.383,232.095 112.572 C 231.989 112.969,230.594 114.500,230.338 114.500 C 230.244 114.500,230.166 114.556,230.165 114.625 C 230.163 114.740,229.613 115.015,228.450 115.480 C 226.628 116.209,223.739 115.275,222.335 113.502 C 220.682 111.415,220.588 107.333,222.150 105.459 C 223.032 104.400,224.117 103.505,224.531 103.494 C 224.651 103.491,224.938 103.377,225.167 103.241 C 225.894 102.811,228.048 102.984,229.240 103.570 M278.677 103.351 C 284.087 105.323,283.820 113.973,278.302 115.489 C 270.661 117.590,267.681 105.830,275.167 103.117 C 275.808 102.885,277.754 103.014,278.677 103.351 M320.500 103.353 C 321.473 103.752,322.408 104.427,323.139 105.258 L 323.833 106.047 323.833 109.372 L 323.833 112.698 322.792 113.734 C 321.440 115.079,320.452 115.557,318.853 115.641 C 317.393 115.717,315.167 115.106,315.167 114.629 C 315.167 114.558,315.087 114.500,314.991 114.500 C 314.675 114.500,313.836 113.440,313.287 112.348 C 312.340 110.464,312.529 107.471,313.713 105.595 C 315.043 103.489,318.251 102.429,320.500 103.353 " stroke="none" fill="#142c54" fill-rule="evenodd"></path><path id="path3" d="M94.542 72.787 L 96.333 72.845 96.341 85.547 L 96.349 98.250 96.799 97.667 C 104.391 87.836,118.997 89.884,123.466 101.405 L 123.785 102.227 125.101 102.581 C 126.862 103.055,127.804 103.497,129.181 104.499 L 130.333 105.337 130.333 89.185 L 130.333 73.034 129.542 72.920 C 129.106 72.857,120.650 72.788,110.750 72.767 C 100.850 72.746,93.556 72.755,94.542 72.787 M106.250 94.997 C 101.570 96.277,98.251 99.992,97.424 104.875 C 97.330 105.432,97.265 105.500,96.826 105.500 L 96.333 105.500 96.333 113.500 L 96.333 121.500 97.828 121.500 C 99.289 121.500,102.122 121.168,103.713 120.810 L 104.510 120.631 103.297 119.884 C 100.036 117.875,100.007 117.813,100.007 112.583 C 100.007 106.949,99.799 107.276,105.061 104.643 C 109.074 102.635,109.435 102.588,111.675 103.789 C 112.358 104.155,113.779 104.888,114.833 105.417 C 118.318 107.167,118.500 107.522,118.500 112.583 C 118.500 118.582,117.938 119.284,113.922 118.314 C 112.263 117.913,112.153 117.802,112.946 117.330 C 113.297 117.122,113.938 116.719,114.371 116.434 L 115.158 115.917 115.162 112.629 C 115.167 109.398,115.160 109.337,114.792 109.107 C 113.904 108.552,109.434 106.333,109.205 106.333 C 108.979 106.333,106.241 107.670,104.083 108.834 L 103.250 109.283 103.205 112.554 L 103.160 115.825 103.955 116.415 C 105.798 117.781,110.667 119.896,113.583 120.596 C 123.713 123.028,130.045 120.536,130.335 114.004 C 130.558 108.991,127.157 105.507,122.036 105.501 C 121.477 105.500,121.134 105.424,121.094 105.292 C 121.060 105.177,120.904 104.525,120.747 103.843 C 119.273 97.425,112.494 93.289,106.250 94.997 M130.172 121.687 C 127.346 124.322,122.131 125.344,116.224 124.421 C 113.967 124.068,111.355 123.442,109.869 122.897 C 109.219 122.658,109.097 122.659,108.490 122.901 C 106.146 123.839,100.459 124.827,97.375 124.832 L 96.333 124.833 96.333 135.161 L 96.333 145.488 94.625 145.542 C 93.685 145.572,100.417 145.610,109.583 145.626 C 120.260 145.645,126.879 145.592,128.000 145.480 C 128.962 145.383,129.881 145.306,130.042 145.308 C 130.317 145.312,130.333 144.642,130.333 133.539 L 130.333 121.766 130.866 121.216 C 131.712 120.344,131.348 120.590,130.172 121.687 " stroke="none" fill="#11b0fc" fill-rule="evenodd"></path><path id="path4" d="M130.338 89.175 L 130.343 105.417 130.861 105.917 C 131.447 106.483,132.327 107.797,132.702 108.667 C 133.299 110.053,133.384 110.305,133.603 111.333 C 134.323 114.720,132.886 119.589,130.609 121.479 C 130.309 121.727,130.169 145.333,130.467 145.333 C 130.540 145.333,130.701 145.240,130.824 145.125 C 131.006 144.956,131.023 144.961,130.915 145.151 C 130.810 145.336,130.867 145.362,131.182 145.274 C 131.403 145.212,131.921 145.115,132.333 145.058 C 132.746 145.001,133.220 144.884,133.387 144.798 C 133.554 144.712,134.100 144.536,134.601 144.405 C 138.689 143.340,143.311 138.659,144.543 134.333 C 145.652 130.440,145.656 130.347,145.656 109.167 C 145.656 88.249,145.641 87.894,144.620 84.250 C 143.569 80.500,140.416 76.719,136.833 74.915 C 136.146 74.569,135.384 74.184,135.141 74.059 C 134.898 73.935,134.551 73.833,134.370 73.833 C 134.189 73.833,133.784 73.726,133.470 73.595 C 133.156 73.464,132.601 73.329,132.237 73.295 C 131.873 73.261,131.480 73.174,131.364 73.102 C 131.247 73.030,131.056 73.051,130.939 73.148 C 130.787 73.274,130.669 73.269,130.529 73.129 C 130.379 72.979,130.334 76.725,130.338 89.175 M130.392 113.583 C 130.392 114.408,130.420 114.767,130.455 114.380 C 130.490 113.993,130.490 113.318,130.456 112.880 C 130.422 112.442,130.393 112.758,130.392 113.583 " stroke="none" fill="#1c94fc" fill-rule="evenodd"></path><path id="path5" d="M108.875 94.615 C 109.035 94.657,109.298 94.657,109.458 94.615 C 109.619 94.573,109.487 94.539,109.167 94.539 C 108.846 94.539,108.715 94.573,108.875 94.615 M133.717 113.500 C 133.717 114.004,133.748 114.210,133.786 113.958 C 133.824 113.706,133.824 113.294,133.786 113.042 C 133.748 112.790,133.717 112.996,133.717 113.500 " stroke="none" fill="#69ccfc" fill-rule="evenodd"></path><path id="path6" d="M107.875 94.615 C 108.035 94.657,108.298 94.657,108.458 94.615 C 108.619 94.573,108.487 94.539,108.167 94.539 C 107.846 94.539,107.715 94.573,107.875 94.615 M109.875 94.615 C 110.035 94.657,110.298 94.657,110.458 94.615 C 110.619 94.573,110.487 94.539,110.167 94.539 C 109.846 94.539,109.715 94.573,109.875 94.615 M97.167 105.139 C 97.167 105.259,96.830 105.345,96.292 105.363 L 95.417 105.393 96.232 105.457 C 96.998 105.516,97.535 105.312,97.281 105.058 C 97.218 104.996,97.167 105.032,97.167 105.139 M121.625 105.454 C 121.923 105.491,122.410 105.491,122.708 105.454 C 123.006 105.417,122.763 105.387,122.167 105.387 C 121.571 105.387,121.327 105.417,121.625 105.454 M115.237 112.583 C 115.237 114.417,115.261 115.189,115.291 114.301 C 115.321 113.412,115.321 111.912,115.291 110.967 C 115.261 110.023,115.237 110.750,115.237 112.583 M87.717 113.500 C 87.717 114.004,87.748 114.210,87.786 113.958 C 87.824 113.706,87.824 113.294,87.786 113.042 C 87.748 112.790,87.717 112.996,87.717 113.500 M96.963 121.622 C 97.355 121.657,97.955 121.657,98.296 121.621 C 98.637 121.585,98.317 121.557,97.583 121.557 C 96.850 121.558,96.571 121.587,96.963 121.622 M120.129 121.622 C 120.521 121.657,121.121 121.657,121.463 121.621 C 121.804 121.585,121.483 121.557,120.750 121.557 C 120.017 121.558,119.737 121.587,120.129 121.622 " stroke="none" fill="#7edcfc" fill-rule="evenodd"></path><path id="path7" d="M108.042 91.448 C 108.202 91.490,108.465 91.490,108.625 91.448 C 108.785 91.406,108.654 91.372,108.333 91.372 C 108.013 91.372,107.881 91.406,108.042 91.448 M109.708 91.448 C 109.869 91.490,110.131 91.490,110.292 91.448 C 110.452 91.406,110.321 91.372,110.000 91.372 C 109.679 91.372,109.548 91.406,109.708 91.448 M84.545 113.500 C 84.545 113.912,84.578 114.081,84.618 113.875 C 84.657 113.669,84.657 113.331,84.618 113.125 C 84.578 112.919,84.545 113.087,84.545 113.500 M97.127 124.785 C 97.334 124.824,97.634 124.823,97.794 124.781 C 97.953 124.739,97.783 124.707,97.417 124.709 C 97.050 124.711,96.920 124.745,97.127 124.785 " stroke="none" fill="#48c5fc" fill-rule="evenodd"></path><path id="path8" d="M118.404 112.583 C 118.404 114.600,118.429 115.402,118.458 114.366 C 118.487 113.329,118.487 111.679,118.458 110.699 C 118.428 109.719,118.404 110.567,118.404 112.583 M120.708 124.782 C 120.869 124.823,121.131 124.823,121.292 124.782 C 121.452 124.740,121.321 124.705,121.000 124.705 C 120.679 124.705,120.548 124.740,120.708 124.782 " stroke="none" fill="#44b4f8" fill-rule="evenodd"></path></g></svg>