<?xml version="1.0" encoding="UTF-8" standalone="no"?>
<!-- Created with Inkscape (http://www.inkscape.org/) -->

<svg
   version="1.1"
   id="svg162"
   width="863.98413"
   height="222.40292"
   viewBox="0 0 863.98413 222.40292"
   xmlns="http://www.w3.org/2000/svg"
   xmlns:svg="http://www.w3.org/2000/svg">
  <defs
     id="defs166" />
  <g
     id="g170"
     transform="matrix(1.3333333,0,0,-1.3333333,-48.007865,255.20133)">
    <g
       id="g172"
       transform="scale(0.1)">
      <path
         d="m 4240.75,1602.14 -2.11,21.84 c -4.27,109.18 -49.97,132.59 -247.5,132.59 -257.84,0 -313.93,-23.41 -313.93,-135.71 0,-91.97 31.19,-126.32 126.86,-135.69 22.8,-1.53 47.81,-4.67 76.83,-4.67 27.08,-1.56 77.1,-4.68 151.88,-7.71 274.36,-10.95 355.57,-26.59 419.96,-82.72 51.93,-45.2 72.72,-98.28 72.72,-198.02 0,-141.88 -22.91,-208.999 -85.18,-252.55 -87.44,-60.82 -187.08,-76.379 -463.6,-76.379 -272.4,0 -361.85,9.238 -442.91,49.758 -83.16,42.141 -126.81,120.011 -126.81,235.501 0,9.37 2.06,26.52 2.06,49.87 h 253.67 v -23.35 c 0,-112.3 41.59,-151.32 168.4,-152.91 h 122.69 l 37.36,-1.53 c 232.93,0 272.41,23.43 272.41,154.44 0,102.9 -33.4,126.3 -195.41,132.53 l -145.65,7.73 c -282.7,12.51 -334.68,20.32 -405.29,65.57 -72.82,45.2 -103.96,113.81 -103.96,224.45 0,129.54 33.3,205.88 108.08,244.95 93.51,48.19 191.24,62.33 449.03,62.33 230.82,0 328.4,-12.51 403.44,-51.51 80.96,-42.08 118.47,-112.29 118.47,-221.38 0,-9.34 0,-21.87 0,-37.43 h -251.51"
         style="fill:#100f0d;fill-opacity:1;fill-rule:nonzero;stroke:none"
         id="path174" />
      <path
         d="M 5199.09,867.789 H 4932.91 V 1906.23 h 266.18 V 867.789"
         style="fill:#100f0d;fill-opacity:1;fill-rule:nonzero;stroke:none"
         id="path176" />
      <path
         d="m 6822.87,1419.73 2.11,-29.66 2.01,-163.72 v -13.94 c 0,-173.14 -31.14,-241.769 -133.14,-294.75 -87.19,-46.808 -184.97,-57.711 -463.45,-57.711 -282.9,0 -378.43,13.961 -472.09,73.281 -106.02,68.62 -143.33,154.38 -143.33,341.41 v 21.84 c 2.1,53.06 2.1,92.06 2.1,113.91 2.02,185.44 6.14,216.73 29.04,283.77 22.79,63.91 68.6,116.9 126.75,151.3 104.02,57.65 180.91,68.55 455.42,68.55 313.89,0 374.16,-6.22 463.55,-49.89 54.09,-26.52 93.71,-70.24 110.24,-120.05 16.67,-48.4 18.68,-60.8 20.79,-151.35 h -264.02 l -2.11,20.37 c -10.35,118.44 -47.86,134.09 -330.56,134.09 -151.87,0 -224.59,-9.3 -266.18,-35.86 -54.09,-34.28 -70.61,-79.55 -70.61,-207.34 l -2.16,-104.54 2.16,-134.17 c 2.11,-123.07 14.52,-166.76 64.39,-198.03 45.8,-29.53 120.53,-38.94 286.91,-38.94 280.64,0 322.28,24.98 322.28,207.44 0,7.81 0,18.63 0,35.81 h -351.25 v 148.18 h 611.15"
         style="fill:#100f0d;fill-opacity:1;fill-rule:nonzero;stroke:none"
         id="path178" />
      <path
         d="m 360.059,1273 c 86.132,-50.34 131.632,-119.02 311.027,-119.02 179.57,0 291.941,119.02 505.004,119.02 215.21,0 332.55,-119.02 548.03,-119.02 212.94,0 296.59,119.02 502.42,119.02 208.12,0 320.64,-119.02 504.86,-119.02 184.39,0 246.46,74.32 351.88,119.02 V 994.32 C 2977.86,949.551 2915.79,878.031 2731.4,878.031 c -184.22,0 -296.74,119.059 -504.86,119.059 -205.83,0 -289.48,-119.059 -502.42,-119.059 -215.48,0 -332.82,119.059 -548.03,119.059 -213.063,0 -325.434,-119.059 -505.004,-119.059 -179.395,0 -224.895,65.84 -311.027,116.289 v 278.68 0"
         style="fill:#100f0d;fill-opacity:1;fill-rule:evenodd;stroke:none"
         id="path180" />
      <path
         d="m 360.059,1486.63 v 0 -152.56 c 86.132,-50.39 131.632,-114.88 311.027,-114.88 179.57,0 291.941,117.7 505.004,117.7 215.21,0 332.55,-117.7 548.03,-117.7 212.94,0 296.59,117.7 502.42,117.7 208.12,0 320.64,-117.7 504.86,-117.7 184.39,0 246.46,70.04 351.88,114.88 v 152.56 c -105.42,-44.78 -167.49,-117.73 -351.88,-117.73 -184.22,0 -296.74,117.73 -504.86,117.73 -205.83,0 -289.48,-117.73 -502.42,-117.73 -215.48,0 -332.82,117.73 -548.03,117.73 -213.063,0 -325.434,-117.73 -505.004,-117.73 -179.395,0 -224.895,67.33 -311.027,117.73"
         style="fill:#100f0d;fill-opacity:1;fill-rule:evenodd;stroke:none"
         id="path182" />
      <path
         d="m 360.059,1642.24 v 0 -89.45 c 86.132,-49.09 131.632,-114.93 311.027,-114.93 179.57,0 291.941,117.75 505.004,117.75 215.21,0 332.55,-117.75 548.03,-117.75 212.94,0 296.59,117.75 502.42,117.75 208.12,0 320.64,-117.75 504.86,-117.75 184.39,0 246.46,70.16 351.88,114.93 v 89.45 c -105.42,-44.93 -167.49,-117.75 -351.88,-117.75 -184.22,0 -296.74,117.75 -504.86,117.75 -205.83,0 -289.48,-117.75 -502.42,-117.75 -215.48,0 -332.82,117.75 -548.03,117.75 -213.063,0 -325.434,-117.75 -505.004,-117.75 -179.395,0 -224.895,67.3 -311.027,117.75"
         style="fill:#100f0d;fill-opacity:1;fill-rule:evenodd;stroke:none"
         id="path184" />
      <path
         d="m 3124.36,908.211 h 10.75 c 14.71,0 21.95,-4.211 21.95,-14.063 0,-9.386 -6.73,-13.359 -20.75,-13.359 h -11.95 z m -24.38,14.519 v -94.468 h 24.38 v 38.668 h 11.95 l 19.29,-38.668 h 27.22 l -22.5,42.187 c 13.76,3.262 22,12.653 22,25.11 0,17.98 -14.27,27.171 -42.99,27.171 z m 37.34,36.309 c -32.62,0 -60.8,-15.219 -77.07,-41.027 -8.99,-14.262 -13.18,-29.032 -13.18,-44.301 0,-22.051 8.96,-43.141 25.94,-59.313 17.5,-16.617 40.15,-25.757 64.31,-25.757 23.5,0 46.45,8.691 64.18,24.859 17.18,15.672 26.62,36.762 26.62,60.211 0,22.75 -8.99,43.848 -25.62,59.82 -17.47,16.668 -40.12,25.508 -65.18,25.508 z m 0.25,-14.008 c 20.94,0 39.47,-7.293 54.19,-21.351 14.21,-13.598 21.45,-30.731 21.45,-51.121 0,-18.278 -7.99,-36.11 -22.21,-49.02 -14.96,-13.359 -33.94,-20.84 -53.68,-20.84 -19.89,0 -39.1,7.68 -53.59,21.539 -14.21,13.364 -21.75,30.942 -21.75,49.672 0,18.828 8.27,37.121 23.03,50.93 14.14,13.359 32.12,20.191 52.56,20.191"
         style="fill:#100f0d;fill-opacity:1;fill-rule:nonzero;stroke:none"
         id="path186" />
      <path
         d="m 379.871,385.449 h 46.832 c 0.832,-24.859 9.418,-43.238 25.664,-55.187 16.274,-12.012 40.707,-18.032 73.25,-18.032 27.848,0 49.391,4.622 64.582,13.809 15.242,9.242 22.828,22.402 22.828,39.422 0,12.359 -4.195,22 -12.504,28.828 -8.39,6.93 -22.328,12.16 -41.882,15.473 l -77.926,14.058 c -31.559,5.578 -54.613,15.02 -69.129,28.43 -14.484,13.41 -21.77,31.691 -21.77,54.789 0,30.391 11.5,53.84 34.454,70.359 22.953,16.532 55.695,24.813 98.207,24.813 40.101,0 70.918,-8.59 92.488,-25.813 21.496,-17.226 32.488,-41.839 32.918,-73.828 h -44.32 c -1.559,20.039 -9.192,34.809 -22.875,44.45 -13.711,9.539 -34.278,14.308 -61.649,14.308 -26.668,0 -47.059,-4.269 -61.223,-12.859 -14.086,-8.637 -21.14,-20.989 -21.14,-37.207 0,-11.801 4.015,-20.84 12,-27.121 8.035,-6.332 22.625,-11.602 43.746,-15.719 l 69.207,-13.66 c 36.305,-6.981 61.723,-16.883 76.133,-29.684 14.414,-12.808 21.597,-31.34 21.597,-55.699 0,-31.141 -11.879,-55.391 -35.609,-72.617 -23.754,-17.282 -57.328,-25.871 -100.746,-25.871 -46.781,0 -82.211,9.55 -106.27,28.781 -24.004,19.238 -36.312,47.816 -36.863,85.777"
         style="fill:#100f0d;fill-opacity:1;fill-rule:nonzero;stroke:none"
         id="path188" />
      <path
         d="M 1261.75,593.781 V 396.449 c 0,-40.98 -11.83,-72.168 -35.43,-93.558 -23.61,-21.403 -58.19,-32 -103.71,-32 -45.53,0 -80.03,10.597 -103.56,32 -23.554,21.39 -35.308,52.578 -35.308,93.558 v 197.332 h 44.318 V 415.09 c 0,-34.66 7.69,-60.219 23.01,-76.699 15.34,-16.469 39.2,-24.653 71.54,-24.653 32.52,0 56.44,8.133 71.77,24.563 15.36,16.32 23.02,41.929 23.02,76.789 v 178.691 h 44.35"
         style="fill:#100f0d;fill-opacity:1;fill-rule:nonzero;stroke:none"
         id="path190" />
      <path
         d="m 1588.11,385.449 h 46.86 c 0.86,-24.859 9.4,-43.238 25.69,-55.187 16.25,-12.012 40.66,-18.032 73.2,-18.032 27.87,0 49.37,4.622 64.61,13.809 15.19,9.242 22.83,22.402 22.83,39.422 0,12.359 -4.2,22 -12.56,28.828 -8.33,6.93 -22.27,12.16 -41.86,15.473 l -77.89,14.058 c -31.59,5.578 -54.62,15.02 -69.13,28.43 -14.52,13.41 -21.77,31.691 -21.77,54.789 0,30.391 11.47,53.84 34.42,70.359 22.95,16.532 55.7,24.813 98.24,24.813 40.1,0 70.89,-8.59 92.45,-25.813 21.55,-17.226 32.55,-41.839 32.97,-73.828 h -44.34 c -1.58,20.039 -9.24,34.809 -22.88,44.45 -13.71,9.539 -34.25,14.308 -61.67,14.308 -26.69,0 -47.08,-4.269 -61.17,-12.859 -14.16,-8.637 -21.19,-20.989 -21.19,-37.207 0,-11.801 3.99,-20.84 12.02,-27.121 7.99,-6.332 22.61,-11.602 43.77,-15.719 l 69.16,-13.66 c 36.36,-6.981 61.72,-16.883 76.11,-29.684 14.42,-12.808 21.65,-31.34 21.65,-55.699 0,-31.141 -11.88,-55.391 -35.64,-72.617 -23.78,-17.282 -57.35,-25.871 -100.72,-25.871 -46.8,0 -82.21,9.55 -106.24,28.781 -24.06,19.238 -36.36,47.816 -36.92,85.777"
         style="fill:#100f0d;fill-opacity:1;fill-rule:nonzero;stroke:none"
         id="path192" />
      <path
         d="m 2396.49,319.559 -32.9,26.621 24.16,31.09 46.26,-37.52 c 12.73,10.102 22.5,23.5 29.3,40.129 6.81,16.723 10.17,35.562 10.17,56.551 0,38.922 -11.1,69.261 -33.32,91.148 -22.2,21.801 -53.11,32.801 -92.68,32.801 -39.45,0 -70.26,-11 -92.41,-32.801 -22.1,-21.887 -33.17,-52.226 -33.17,-91.148 0,-39.328 11.17,-69.758 33.59,-91.309 22.4,-21.59 54.07,-32.391 94.95,-32.391 9.89,0 18.53,0.598 25.99,1.711 7.41,1.161 14.11,2.86 20.06,5.118 z m 37.12,-30.84 c -11.08,-6.27 -23.38,-10.739 -36.97,-13.598 -13.61,-2.82 -30.01,-4.23 -49.24,-4.23 -52.86,0 -94.67,14.918 -125.58,44.711 -30.84,29.777 -46.26,70.109 -46.26,120.828 0,50.82 15.47,91.101 46.41,120.98 30.96,29.84 72.95,44.801 125.91,44.801 52.83,0 94.72,-14.961 125.6,-44.84 30.91,-29.84 46.36,-70.223 46.36,-120.941 0,-25.969 -4.45,-49.668 -13.26,-71.258 -8.84,-21.5 -21.62,-39.383 -38.4,-53.641 l 42.87,-33.902 -24.96,-31.641 -52.48,42.731"
         style="fill:#100f0d;fill-opacity:1;fill-rule:nonzero;stroke:none"
         id="path194" />
      <path
         d="M 3119.54,593.781 V 396.449 c 0,-40.98 -11.85,-72.168 -35.43,-93.558 -23.63,-21.403 -58.19,-32 -103.71,-32 -45.53,0 -80.08,10.597 -103.61,32 -23.56,21.39 -35.26,52.578 -35.26,93.558 v 197.332 h 44.33 V 415.09 c 0,-34.66 7.68,-60.219 23,-76.699 15.31,-16.469 39.17,-24.653 71.54,-24.653 32.52,0 56.43,8.133 71.77,24.563 15.32,16.32 23.03,41.929 23.03,76.789 v 178.691 h 44.34"
         style="fill:#100f0d;fill-opacity:1;fill-rule:nonzero;stroke:none"
         id="path196" />
      <path
         d="m 3460.29,279.328 v 314.453 h 250.16 v -40.383 h -205.76 v -92.707 h 192.8 v -41.293 h -192.8 v -97.679 h 208.73 v -42.391 h -253.13"
         style="fill:#100f0d;fill-opacity:1;fill-rule:nonzero;stroke:none"
         id="path198" />
      <path
         d="m 4037.55,279.328 v 314.453 h 44.3 V 466.66 h 191.84 v 127.121 h 44.35 V 279.328 h -44.35 V 425.379 H 4081.85 V 279.328 h -44.3"
         style="fill:#100f0d;fill-opacity:1;fill-rule:nonzero;stroke:none"
         id="path200" />
      <path
         d="m 4726.6,409.91 h 123.65 L 4790.33,544 Z m -107.48,-130.582 149.26,314.453 h 46.61 l 139.92,-314.453 h -46.21 l -40.13,89.703 h -160.6 l -41.94,-89.703 h -46.91"
         style="fill:#100f0d;fill-opacity:1;fill-rule:nonzero;stroke:none"
         id="path202" />
      <path
         d="m 5259.71,279.328 v 314.453 h 60.11 l 197.93,-268.242 v 268.242 h 43.34 V 279.328 h -60.12 L 5303.05,547.57 V 279.328 h -43.34"
         style="fill:#100f0d;fill-opacity:1;fill-rule:nonzero;stroke:none"
         id="path204" />
      <path
         d="m 5901.35,279.328 v 314.453 h 60.11 l 197.92,-268.242 v 268.242 h 43.35 V 279.328 h -60.07 L 5944.64,547.57 V 279.328 h -43.29"
         style="fill:#100f0d;fill-opacity:1;fill-rule:nonzero;stroke:none"
         id="path206" />
      <path
         d="m 6611.64,409.91 h 123.64 L 6675.22,544 Z m -107.58,-130.582 149.26,314.453 h 46.55 l 140.07,-314.453 h -46.2 l -40.23,89.703 H 6592.9 l -41.84,-89.703 h -47"
         style="fill:#100f0d;fill-opacity:1;fill-rule:nonzero;stroke:none"
         id="path208" />
    </g>
  </g>
</svg>
