<?xml version="1.0" encoding="UTF-8" standalone="no"?>
<!-- Created with Inkscape (http://www.inkscape.org/) -->

<svg
   version="1.1"
   id="svg148"
   width="863.98529"
   height="222.40266"
   viewBox="0 0 863.98529 222.40266"
   xmlns="http://www.w3.org/2000/svg"
   xmlns:svg="http://www.w3.org/2000/svg">
  <defs
     id="defs152" />
  <g
     id="g156"
     transform="matrix(1.3333333,0,0,-1.3333333,0,222.40266)">
    <g
       id="g158"
       transform="scale(0.1)">
      <path
         d="m 3880.69,1356.14 -2.11,21.85 c -4.27,109.18 -49.97,132.58 -247.49,132.58 -257.84,0 -313.94,-23.4 -313.94,-135.69 0,-91.99 31.19,-126.34 126.86,-135.7 22.8,-1.54 47.81,-4.67 76.84,-4.67 27.07,-1.56 77.09,-4.68 151.87,-7.71 274.36,-10.95 355.57,-26.59 419.96,-82.72 51.93,-45.2 72.72,-98.29 72.72,-198.025 0,-141.875 -22.9,-209 -85.18,-252.543 -87.43,-60.821 -187.07,-76.383 -463.59,-76.383 -272.41,0 -361.86,9.242 -442.92,49.762 -83.16,42.14 -126.81,120.007 -126.81,235.492 0,9.371 2.06,26.523 2.06,49.875 h 253.68 v -23.352 c 0,-112.301 41.58,-151.32 168.39,-152.906 h 122.69 l 37.37,-1.531 c 232.93,0 272.4,23.429 272.4,154.437 0,102.894 -33.39,126.304 -195.41,132.534 l -145.65,7.73 c -282.7,12.51 -334.68,20.32 -405.29,65.57 -72.82,45.2 -103.96,113.8 -103.96,224.44 0,129.55 33.3,205.89 108.08,244.96 93.51,48.19 191.24,62.33 449.04,62.33 230.82,0 328.4,-12.51 403.43,-51.51 80.96,-42.08 118.47,-112.3 118.47,-221.38 0,-9.34 0,-21.87 0,-37.44 h -251.51"
         style="fill:#1d60ac;fill-opacity:1;fill-rule:nonzero;stroke:none"
         id="path160" />
      <path
         d="M 4839.03,621.801 H 4572.85 V 1660.24 h 266.18 V 621.801"
         style="fill:#1d60ac;fill-opacity:1;fill-rule:nonzero;stroke:none"
         id="path162" />
      <path
         d="m 6462.81,1173.73 2.11,-29.65 2.01,-163.721 v -13.937 c 0,-173.141 -31.14,-241.774 -133.14,-294.758 -87.18,-46.805 -184.97,-57.703 -463.45,-57.703 -282.9,0 -378.42,13.961 -472.09,73.277 -106.01,68.621 -143.33,154.379 -143.33,341.402 v 21.85 c 2.11,53.06 2.11,92.06 2.11,113.9 2.01,185.45 6.13,216.74 29.03,283.78 22.8,63.91 68.6,116.9 126.76,151.3 104.01,57.65 180.9,68.55 455.41,68.55 313.89,0 374.16,-6.23 463.55,-49.89 54.09,-26.52 93.72,-70.24 110.24,-120.06 16.67,-48.39 18.68,-60.8 20.79,-151.34 h -264.02 l -2.1,20.36 c -10.35,118.45 -47.87,134.09 -330.57,134.09 -151.87,0 -224.59,-9.29 -266.17,-35.86 -54.09,-34.27 -70.62,-79.54 -70.62,-207.34 l -2.16,-104.53 2.16,-134.17 c 2.12,-123.073 14.52,-166.764 64.39,-198.03 45.8,-29.527 120.53,-38.945 286.92,-38.945 280.64,0 322.27,24.984 322.27,207.441 0,7.809 0,18.634 0,35.814 h -351.25 v 148.17 h 611.15"
         style="fill:#1d60ac;fill-opacity:1;fill-rule:nonzero;stroke:none"
         id="path164" />
      <path
         d="m 0,1027.01 c 86.1367,-50.346 131.633,-119.026 311.027,-119.026 179.571,0 291.946,119.026 505.008,119.026 215.205,0 332.545,-119.026 548.025,-119.026 212.94,0 296.59,119.026 502.42,119.026 208.12,0 320.65,-119.026 504.86,-119.026 184.39,0 246.47,74.329 351.88,119.026 V 748.328 c -105.41,-44.773 -167.49,-116.289 -351.88,-116.289 -184.21,0 -296.74,119.055 -504.86,119.055 -205.83,0 -289.48,-119.055 -502.42,-119.055 -215.48,0 -332.82,119.055 -548.025,119.055 -213.062,0 -325.437,-119.055 -505.008,-119.055 C 131.633,632.039 86.1367,697.883 0,748.328 v 278.682 0"
         style="fill:#1d60ac;fill-opacity:1;fill-rule:evenodd;stroke:none"
         id="path166" />
      <path
         d="m 0,1240.63 v 0 -152.55 c 86.1367,-50.4 131.633,-114.881 311.027,-114.881 179.571,0 291.946,117.691 505.008,117.691 215.205,0 332.545,-117.691 548.025,-117.691 212.94,0 296.59,117.691 502.42,117.691 208.12,0 320.65,-117.691 504.86,-117.691 184.39,0 246.47,70.031 351.88,114.881 v 152.55 c -105.41,-44.77 -167.49,-117.72 -351.88,-117.72 -184.21,0 -296.74,117.72 -504.86,117.72 -205.83,0 -289.48,-117.72 -502.42,-117.72 -215.48,0 -332.82,117.72 -548.025,117.72 -213.062,0 -325.437,-117.72 -505.008,-117.72 -179.394,0 -224.8903,67.32 -311.027,117.72"
         style="fill:#1d60ac;fill-opacity:1;fill-rule:evenodd;stroke:none"
         id="path168" />
      <path
         d="m 0,1396.25 v 0 -89.45 c 86.1367,-49.09 131.633,-114.93 311.027,-114.93 179.571,0 291.946,117.74 505.008,117.74 215.205,0 332.545,-117.74 548.025,-117.74 212.94,0 296.59,117.74 502.42,117.74 208.12,0 320.65,-117.74 504.86,-117.74 184.39,0 246.47,70.16 351.88,114.93 v 89.45 c -105.41,-44.93 -167.49,-117.75 -351.88,-117.75 -184.21,0 -296.74,117.75 -504.86,117.75 -205.83,0 -289.48,-117.75 -502.42,-117.75 -215.48,0 -332.82,117.75 -548.025,117.75 -213.062,0 -325.437,-117.75 -505.008,-117.75 -179.394,0 -224.8903,67.3 -311.027,117.75"
         style="fill:#1d60ac;fill-opacity:1;fill-rule:evenodd;stroke:none"
         id="path170" />
      <path
         d="m 2764.3,662.219 h 10.75 c 14.72,0 21.95,-4.207 21.95,-14.059 0,-9.39 -6.73,-13.359 -20.75,-13.359 h -11.95 z m -24.38,14.515 V 582.27 h 24.38 v 38.671 h 11.95 l 19.29,-38.671 h 27.22 l -22.5,42.179 c 13.76,3.27 22,12.66 22,25.121 0,17.969 -14.26,27.164 -42.99,27.164 z m 37.34,36.313 c -32.62,0 -60.79,-15.215 -77.07,-41.027 -8.99,-14.27 -13.18,-29.032 -13.18,-44.301 0,-22.047 8.97,-43.141 25.94,-59.309 17.5,-16.621 40.15,-25.769 64.31,-25.769 23.51,0 46.46,8.691 64.18,24.859 17.18,15.672 26.62,36.77 26.62,60.219 0,22.75 -8.99,43.847 -25.61,59.816 -17.48,16.672 -40.13,25.512 -65.19,25.512 z m 0.25,-14.012 c 20.95,0 39.48,-7.281 54.19,-21.344 14.21,-13.609 21.45,-30.742 21.45,-51.121 0,-18.281 -7.99,-36.109 -22.2,-49.019 -14.97,-13.36 -33.95,-20.84 -53.69,-20.84 -19.89,0 -39.1,7.68 -53.58,21.539 -14.22,13.359 -21.75,30.941 -21.75,49.672 0,18.828 8.26,37.117 23.03,50.926 14.13,13.355 32.11,20.187 52.55,20.187"
         style="fill:#1d60ac;fill-opacity:1;fill-rule:nonzero;stroke:none"
         id="path172" />
      <path
         d="m 19.8164,139.461 h 46.8281 c 0.8321,-24.859 9.4219,-43.2422 25.668,-55.1993 16.2735,-12 40.7035,-18.0234 73.2465,-18.0234 27.851,0 49.39,4.6211 64.586,13.8125 15.242,9.2383 22.828,22.3982 22.828,39.4182 0,12.359 -4.2,22 -12.508,28.832 -8.387,6.929 -22.324,12.148 -41.883,15.469 l -77.922,14.062 c -31.5623,5.578 -54.617,15.02 -69.1287,28.43 -14.4883,13.41 -21.7696,31.687 -21.7696,54.789 0,30.39 11.5,53.84 34.4492,70.359 22.9532,16.52 55.6951,24.809 98.2071,24.809 40.102,0 70.918,-8.59 92.488,-25.809 21.496,-17.23 32.492,-41.84 32.918,-73.828 h -44.32 c -1.559,20.039 -9.191,34.797 -22.875,44.449 -13.711,9.539 -34.277,14.309 -61.645,14.309 -26.671,0 -47.062,-4.27 -61.2262,-12.86 -14.0859,-8.64 -21.1406,-20.992 -21.1406,-37.21 0,-11.801 4.0156,-20.84 12.0039,-27.122 8.0312,-6.328 22.6209,-11.609 43.7419,-15.718 l 69.207,-13.66 c 36.309,-6.981 61.723,-16.879 76.133,-29.68 14.414,-12.809 21.602,-31.34 21.602,-55.699 0,-31.141 -11.883,-55.4027 -35.61,-72.6215 C 239.941,33.4883 206.363,24.8984 162.949,24.8984 116.164,24.8984 80.7344,34.4492 56.6797,53.6797 32.6719,72.9219 20.3672,101.488 19.8164,139.461"
         style="fill:#1d60ac;fill-opacity:1;fill-rule:nonzero;stroke:none"
         id="path174" />
      <path
         d="m 901.688,347.781 v -197.32 c 0,-40.981 -11.825,-72.1719 -35.426,-93.5626 -23.61,-21.3984 -58.188,-32 -103.711,-32 -45.528,0 -80.031,10.6016 -103.559,32 -23.554,21.3907 -35.304,52.5816 -35.304,93.5626 v 197.32 h 44.32 V 169.09 c 0,-34.649 7.683,-60.211 23.004,-76.6916 15.34,-16.4687 39.195,-24.6484 71.539,-24.6484 32.519,0 56.449,8.1289 71.765,24.5508 15.368,16.3282 23.028,41.9372 23.028,76.7892 v 178.691 h 44.344"
         style="fill:#1d60ac;fill-opacity:1;fill-rule:nonzero;stroke:none"
         id="path176" />
      <path
         d="m 1228.06,139.461 h 46.86 c 0.85,-24.859 9.39,-43.2422 25.69,-55.1993 16.24,-12 40.65,-18.0234 73.19,-18.0234 27.88,0 49.37,4.6211 64.62,13.8125 15.19,9.2383 22.82,22.3982 22.82,39.4182 0,12.359 -4.19,22 -12.55,28.832 -8.34,6.929 -22.28,12.148 -41.87,15.469 l -77.89,14.062 c -31.59,5.578 -54.61,15.02 -69.13,28.43 -14.51,13.41 -21.77,31.687 -21.77,54.789 0,30.39 11.47,53.84 34.42,70.359 22.96,16.52 55.7,24.809 98.24,24.809 40.1,0 70.89,-8.59 92.46,-25.809 21.55,-17.23 32.54,-41.84 32.97,-73.828 h -44.35 c -1.58,20.039 -9.23,34.797 -22.87,44.449 -13.71,9.539 -34.25,14.309 -61.68,14.309 -26.69,0 -47.08,-4.27 -61.17,-12.86 -14.16,-8.64 -21.19,-20.992 -21.19,-37.21 0,-11.801 3.99,-20.84 12.03,-27.122 7.98,-6.328 22.6,-11.609 43.77,-15.718 l 69.15,-13.66 c 36.37,-6.981 61.73,-16.879 76.11,-29.68 14.42,-12.809 21.65,-31.34 21.65,-55.699 0,-31.141 -11.88,-55.4027 -35.63,-72.6215 -23.78,-17.2812 -57.36,-25.8711 -100.72,-25.8711 -46.81,0 -82.22,9.5508 -106.25,28.7813 -24.06,19.2422 -36.36,47.8083 -36.91,85.7813"
         style="fill:#1d60ac;fill-opacity:1;fill-rule:nonzero;stroke:none"
         id="path178" />
      <path
         d="m 2036.43,73.5703 -32.89,26.6207 24.16,31.079 46.25,-37.5083 c 12.73,10.0903 22.5,23.5003 29.3,40.1293 6.81,16.718 10.18,35.55 10.18,56.55 0,38.918 -11.11,69.25 -33.33,91.149 -22.19,21.801 -53.11,32.801 -92.68,32.801 -39.45,0 -70.26,-11 -92.41,-32.801 -22.1,-21.899 -33.17,-52.231 -33.17,-91.149 0,-39.332 11.17,-69.761 33.6,-91.3121 22.39,-21.5898 54.06,-32.3906 94.94,-32.3906 9.9,0 18.53,0.6015 25.99,1.7109 7.41,1.1524 14.11,2.8594 20.06,5.1211 z m 37.12,-30.8398 c -11.08,-6.2696 -23.38,-10.75 -36.97,-13.6094 -13.6,-2.8125 -30,-4.2227 -49.24,-4.2227 -52.85,0 -94.67,14.9219 -125.58,44.7032 -30.83,29.7773 -46.25,70.1094 -46.25,120.8394 0,50.821 15.47,91.098 46.4,120.981 30.97,29.828 72.95,44.797 125.91,44.797 52.83,0 94.72,-14.969 125.61,-44.848 30.9,-29.832 46.35,-70.211 46.35,-120.93 0,-25.972 -4.44,-49.671 -13.26,-71.269 -8.84,-21.4923 -21.62,-39.3712 -38.4,-53.6329 L 2150.99,31.6289 2126.03,0 2073.55,42.7305"
         style="fill:#1d60ac;fill-opacity:1;fill-rule:nonzero;stroke:none"
         id="path180" />
      <path
         d="m 2759.48,347.781 v -197.32 c 0,-40.981 -11.85,-72.1719 -35.43,-93.5626 -23.63,-21.3984 -58.18,-32 -103.71,-32 -45.53,0 -80.08,10.6016 -103.61,32 -23.55,21.3907 -35.25,52.5816 -35.25,93.5626 v 197.32 h 44.32 V 169.09 c 0,-34.649 7.68,-60.211 23,-76.6916 15.32,-16.4687 39.17,-24.6484 71.54,-24.6484 32.52,0 56.43,8.1289 71.77,24.5508 15.32,16.3282 23.03,41.9372 23.03,76.7892 v 178.691 h 44.34"
         style="fill:#1d60ac;fill-opacity:1;fill-rule:nonzero;stroke:none"
         id="path182" />
      <path
         d="M 3100.24,33.3398 V 347.781 h 250.16 v -40.383 h -205.76 v -92.699 h 192.8 V 173.41 h -192.8 V 75.7305 h 208.72 V 33.3398 h -253.12"
         style="fill:#1d60ac;fill-opacity:1;fill-rule:nonzero;stroke:none"
         id="path184" />
      <path
         d="M 3677.49,33.3398 V 347.781 h 44.3 V 220.672 h 191.84 v 127.109 h 44.35 V 33.3398 h -44.35 V 179.391 H 3721.79 V 33.3398 h -44.3"
         style="fill:#1d60ac;fill-opacity:1;fill-rule:nonzero;stroke:none"
         id="path186" />
      <path
         d="m 4366.54,163.922 h 123.65 l -59.92,134.09 z M 4259.06,33.3398 4408.33,347.781 h 46.6 L 4594.85,33.3398 h -46.2 l -40.13,89.6992 h -160.61 l -41.93,-89.6992 h -46.92"
         style="fill:#1d60ac;fill-opacity:1;fill-rule:nonzero;stroke:none"
         id="path188" />
      <path
         d="M 4899.65,33.3398 V 347.781 h 60.11 L 5157.69,79.5391 V 347.781 h 43.34 V 33.3398 h -60.12 L 4942.99,301.582 V 33.3398 h -43.34"
         style="fill:#1d60ac;fill-opacity:1;fill-rule:nonzero;stroke:none"
         id="path190" />
      <path
         d="M 5541.29,33.3398 V 347.781 h 60.11 L 5799.33,79.5391 V 347.781 h 43.34 V 33.3398 H 5782.6 L 5584.58,301.582 V 33.3398 h -43.29"
         style="fill:#1d60ac;fill-opacity:1;fill-rule:nonzero;stroke:none"
         id="path192" />
      <path
         d="m 6251.58,163.922 h 123.65 l -60.07,134.09 z M 6144,33.3398 6293.26,347.781 h 46.56 L 6479.89,33.3398 h -46.21 l -40.22,89.6992 H 6232.84 L 6191.01,33.3398 H 6144"
         style="fill:#1d60ac;fill-opacity:1;fill-rule:nonzero;stroke:none"
         id="path194" />
    </g>
  </g>
</svg>
