<svg width="796.79" height="292.01" xmlns="http://www.w3.org/2000/svg">

 <g>
  <title>Layer 1</title>
  <path id="svg_1" fill="#fd3456" d="m203.35,135.27a102,102 0 0 0 -7.23,-38.16c-1,0.41 -1.72,0.79 -2.24,1l0,0a5.86,5.86 0 0 0 -3.13,5.93a141.71,141.71 0 0 1 0.94,16c0,24.45 -7.89,47.89 -22.22,66c-13.55,17.14 -31.73,28.16 -51.5,31.31l0.17,0.1a40.28,40.28 0 0 0 37.65,1.13c27.9,-13.64 47.56,-45.85 47.56,-83.31z" class="cls-1"/>
  <path id="svg_2" fill="#fd3456" d="m208.8,94.62a27.7,27.7 0 0 0 -5.18,0.33a109.86,109.86 0 0 1 7.51,40.32c0,42 -23.4,79.27 -57.56,92.86c1.72,0.11 3.46,0.17 5.21,0.17l0.22,0a54.8,54.8 0 0 0 42.41,-20.38c13.08,-16.2 21.11,-38 21.11,-61.91a100.35,100.35 0 0 0 -13.72,-51.39z" class="cls-1"/>
  <path id="svg_3" fill="#fd3456" d="m241.08,146a82,82 0 0 0 -6.27,-31.56a36.25,36.25 0 0 0 -7.91,-12a26.37,26.37 0 0 0 -6.21,-4.66c-0.58,-0.31 -1.17,-0.58 -1.75,-0.83a109.48,109.48 0 0 1 11.39,49c0,24.3 -7.91,47.71 -22,65.67a82.15,82.15 0 0 0 32.75,-65.62z" class="cls-1"/>
  <path id="svg_4" fill="#290042" d="m217.82,88.68a82.06,82.06 0 0 0 -59,-25c-45.48,0 -82.76,37.67 -82.29,83.15a81.92,81.92 0 0 0 6.47,31.4a22.19,22.19 0 0 0 -4.08,-0.18c-3.69,0.17 -8.91,-1.17 -11.27,-1.83s-4.47,1.24 -3.51,3.44l0,0.06c8.17,18.72 26.28,30.9 43.57,30.86l0,0a32.89,32.89 0 0 0 3.44,-0.18c40.49,-3.08 72.62,-42.39 72.62,-90.28c0,-3 -0.13,-6 -0.39,-9a1.78,1.78 0 0 0 -3.2,-0.92l0,0c-11.19,14.82 -27.78,40.87 -48.53,27.29c-8,-5.21 -12.26,-16.42 -9.85,-27.83c4.32,-20.48 28.2,-33.95 38.72,-29.75c0.82,0.33 3.78,1.51 4.79,4.21c1.54,4.12 -3.1,7.51 -5.47,14.81c-2.55,7.89 -1.11,16.27 0.68,16.63c2,0.41 5.35,-6.93 13.61,-13.59c6,-4.84 10.52,-6.2 13.36,-11.32c2.74,-5 -2.14,-10.27 -0.48,-10.74s3.21,5.29 8.15,8.15c4.13,2.39 7.81,0.89 13.24,0.68a35.88,35.88 0 0 1 6,0.46s1.07,0.14 2.75,0.49a0.62,0.62 0 0 0 0.67,-1.01zm-61.34,63.44a5.8,5.8 0 0 1 3.74,-2.27a4.79,4.79 0 0 1 3.69,1c2,1.84 1.41,5.43 -0.32,7.49c-1.59,1.9 -4.74,3.15 -6.93,1.73a5,5 0 0 1 -1.94,-4a5.85,5.85 0 0 1 1.76,-3.95z" class="cls-2"/>
  <path id="svg_5" fill="#290042" d="m285.21,104.39s-17.63,0 -17.63,17.64l0,20.1s0,17.64 17.63,17.64l48,0l0,20.1l-46.04,0c-17.52,0 -17.63,17.64 -17.63,17.64l64.69,0s17.63,0 17.63,-17.64l0,-20.1s0,-17.64 -17.63,-17.64l-48,0l0,-20.13l45.1,0c17.51,0 17.63,-17.64 17.63,-17.64l-63.75,0l0,0.03z" class="cls-2"/>
  <path id="svg_6" fill="#290042" d="m428.81,104.39l-49,0c-17.63,0 -17.63,17.64 -17.63,17.64l0,57.84c0,17.64 17.63,17.64 17.63,17.64l49,0c17.63,0 17.63,-17.64 17.63,-17.64l0,-57.87c0,-17.61 -17.63,-17.61 -17.63,-17.61zm-1,75.48l-47.04,0l0,-57.87l47.06,0l-0.02,57.87z" class="cls-2"/>
  <path id="svg_7" fill="#290042" d="m457.72,105.37l0,91.16l18.62,0l0,-74.53s0,-16.63 -18.62,-16.63z" class="cls-2"/>
  <path id="svg_8" fill="#290042" d="m524.37,104.39l-30.37,0c-17.63,0 -17.63,17.64 -17.63,17.64l47.05,0l0,74.5l18.58,0l0,-74.53c0,-17.61 -17.63,-17.61 -17.63,-17.61z" class="cls-2"/>
  <path id="svg_9" fill="#290042" d="m573.86,104.39l-17.64,0c0,17.55 17.64,17.64 17.64,17.64l45.14,0l0,18.14l-48,0s-17.64,0 -17.64,17.64l0,22.06s0,17.64 17.64,17.64l31.37,0s16.66,0 16.66,-17.64l-47.13,0l0,-22.8l47.1,0l0,22.8s0.48,16.66 18.62,16.66l0,-74.53s0,-17.64 -17.64,-17.64l-46.12,0.03z" class="cls-2"/>
  <path id="svg_10" fill="#290042" d="m650.53,105.37l0,91.16l18.62,0l0,-74.53c0,-16.64 -18.62,-16.63 -18.62,-16.63z" class="cls-2"/>
  <path id="svg_11" fill="#290042" d="m686.79,104.39c-17.64,0 -17.64,17.64 -17.64,17.64l46.07,0s17.64,0 17.64,-17.64l-46.07,0z" class="cls-2"/>
 </g>
</svg>