<svg id="Logo" xmlns="http://www.w3.org/2000/svg" viewBox="0 0 796.79 292.01"><defs><style>.cls-1{fill:#fd3456;}.cls-2{fill:#290042;}</style></defs><path class="cls-1" d="M203.35,135.27a102,102,0,0,0-7.23-38.16c-1,.41-1.72.79-2.24,1l0,0a5.86,5.86,0,0,0-3.13,5.93,141.71,141.71,0,0,1,.94,16c0,24.45-7.89,47.89-22.22,66-13.55,17.14-31.73,28.16-51.5,31.31l.17.1a40.28,40.28,0,0,0,37.65,1.13C183.69,204.94,203.35,172.73,203.35,135.27Z"/><path class="cls-1" d="M208.8,94.62a27.7,27.7,0,0,0-5.18.33,109.86,109.86,0,0,1,7.51,40.32c0,42-23.4,79.27-57.56,92.86,1.72.11,3.46.17,5.21.17H159a54.8,54.8,0,0,0,42.41-20.38c13.08-16.2,21.11-38,21.11-61.91A100.35,100.35,0,0,0,208.8,94.62Z"/><path class="cls-1" d="M241.08,146a82,82,0,0,0-6.27-31.56,36.25,36.25,0,0,0-7.91-12,26.37,26.37,0,0,0-6.21-4.66c-.58-.31-1.17-.58-1.75-.83a109.48,109.48,0,0,1,11.39,49c0,24.3-7.91,47.71-22,65.67A82.15,82.15,0,0,0,241.08,146Z"/><path class="cls-2" d="M217.82,88.68a82.06,82.06,0,0,0-59-25c-45.48,0-82.76,37.67-82.29,83.15A81.92,81.92,0,0,0,83,178.23a22.19,22.19,0,0,0-4.08-.18c-3.69.17-8.91-1.17-11.27-1.83s-4.47,1.24-3.51,3.44l0,.06c8.17,18.72,26.28,30.9,43.57,30.86h0a32.89,32.89,0,0,0,3.44-.18c40.49-3.08,72.62-42.39,72.62-90.28,0-3-.13-6-.39-9a1.78,1.78,0,0,0-3.2-.92l0,0c-11.19,14.82-27.78,40.87-48.53,27.29-8-5.21-12.26-16.42-9.85-27.83,4.32-20.48,28.2-33.95,38.72-29.75.82.33,3.78,1.51,4.79,4.21,1.54,4.12-3.1,7.51-5.47,14.81-2.55,7.89-1.11,16.27.68,16.63,2,.41,5.35-6.93,13.61-13.59,6-4.84,10.52-6.2,13.36-11.32,2.74-5-2.14-10.27-.48-10.74s3.21,5.29,8.15,8.15c4.13,2.39,7.81.89,13.24.68a35.88,35.88,0,0,1,6,.46s1.07.14,2.75.49A.62.62,0,0,0,217.82,88.68Zm-61.34,63.44a5.8,5.8,0,0,1,3.74-2.27,4.79,4.79,0,0,1,3.69,1c2,1.84,1.41,5.43-.32,7.49-1.59,1.9-4.74,3.15-6.93,1.73a5,5,0,0,1-1.94-4A5.85,5.85,0,0,1,156.48,152.12Z"/><path class="cls-2" d="M285.21,104.39s-17.63,0-17.63,17.64v20.1s0,17.64,17.63,17.64h48v20.1H287.17c-17.52,0-17.63,17.64-17.63,17.64h64.69s17.63,0,17.63-17.64v-20.1s0-17.64-17.63-17.64h-48V122h45.1c17.51,0,17.63-17.64,17.63-17.64H285.21Z"/><path class="cls-2" d="M428.81,104.39h-49c-17.63,0-17.63,17.64-17.63,17.64v57.84c0,17.64,17.63,17.64,17.63,17.64h49c17.63,0,17.63-17.64,17.63-17.64V122C446.44,104.39,428.81,104.39,428.81,104.39Zm-1,75.48H380.77V122h47.06Z"/><path class="cls-2" d="M457.72,105.37v91.16h18.62V122S476.34,105.37,457.72,105.37Z"/><path class="cls-2" d="M524.37,104.39H494c-17.63,0-17.63,17.64-17.63,17.64h47.05v74.5H542V122C542,104.39,524.37,104.39,524.37,104.39Z"/><path class="cls-2" d="M573.86,104.39H556.22c0,17.55,17.64,17.64,17.64,17.64H619v18.14h-48s-17.64,0-17.64,17.64v22.06s0,17.64,17.64,17.64h31.37s16.66,0,16.66-17.64H571.9v-22.8H619v22.8s.48,16.66,18.62,16.66V122s0-17.64-17.64-17.64Z"/><path class="cls-2" d="M650.53,105.37v91.16h18.62V122C669.15,105.36,650.53,105.37,650.53,105.37Z"/><path class="cls-2" d="M686.79,104.39c-17.64,0-17.64,17.64-17.64,17.64h46.07s17.64,0,17.64-17.64Z"/></svg>