<?xml version="1.0" encoding="UTF-8" standalone="no"?>
<!-- Generator: Adobe Illustrator 19.2.1, SVG Export Plug-In . SVG Version: 6.00 Build 0)  -->

<svg
   version="1.1"
   id="Layer_1"
   x="0px"
   y="0px"
   viewBox="0 0 660 245"
   xml:space="preserve"
   sodipodi:docname="stickermule.svg"
   width="660"
   height="245"
   inkscape:version="1.1.2 (0a00cf5339, 2022-02-04)"
   xmlns:inkscape="http://www.inkscape.org/namespaces/inkscape"
   xmlns:sodipodi="http://sodipodi.sourceforge.net/DTD/sodipodi-0.dtd"
   xmlns="http://www.w3.org/2000/svg"
   xmlns:svg="http://www.w3.org/2000/svg"><defs
   id="defs36" /><sodipodi:namedview
   id="namedview34"
   pagecolor="#ffffff"
   bordercolor="#666666"
   borderopacity="1.0"
   inkscape:pageshadow="2"
   inkscape:pageopacity="0.0"
   inkscape:pagecheckerboard="0"
   showgrid="false"
   inkscape:zoom="1.0348485"
   inkscape:cx="568.19912"
   inkscape:cy="175.87116"
   inkscape:window-width="1920"
   inkscape:window-height="1043"
   inkscape:window-x="3852"
   inkscape:window-y="0"
   inkscape:window-maximized="1"
   inkscape:current-layer="Layer_1" />
<style
   type="text/css"
   id="style2">
	.Arched_x0020_Green{fill:url(#SVGID_1_);stroke:#FFFFFF;stroke-width:0.25;stroke-miterlimit:1;}
	.st0{fill:#4E2817;}
	.st1{fill-rule:evenodd;clip-rule:evenodd;fill:#4E2817;}
	.st2{fill:#F26922;}
</style>
<linearGradient
   id="SVGID_1_"
   gradientUnits="userSpaceOnUse"
   x1="330.30688"
   y1="115.7228"
   x2="331.01401"
   y2="115.0157">
	<stop
   offset="0"
   style="stop-color:#1EAB4B"
   id="stop4" />
	<stop
   offset="0.9831"
   style="stop-color:#19361A"
   id="stop6" />
</linearGradient>











<g
   id="g865"
   transform="translate(-0.12556842,6.85)"><path
     class="st0"
     d="m 176.5,146.1 c -7.2,0 -13.8,-0.8 -19.6,-6.6 l 7.5,-7.5 c 3.8,3.8 8.7,4.3 12.3,4.3 4,0 8.1,-1.3 8.1,-4.8 0,-2.3 -1.2,-3.9 -4.9,-4.2 l -7.2,-0.7 c -8.3,-0.8 -13.4,-4.4 -13.4,-12.9 0,-9.5 8.4,-14.7 17.8,-14.7 7.2,0 13.2,1.2 17.6,5.4 l -7.1,7.2 c -2.7,-2.4 -6.7,-3.1 -10.7,-3.1 -4.6,0 -6.5,2.1 -6.5,4.4 0,1.7 0.7,3.6 4.8,4 l 7.2,0.7 c 9.1,0.9 13.7,5.7 13.7,13.5 0,10.2 -8.7,15 -19.6,15 z"
     id="path9" /><path
     class="st0"
     d="m 216.1,145.6 c -9.4,0 -13.3,-6.6 -13.3,-13.2 v -22.8 h -4.9 v -8.7 h 4.9 V 87.3 h 11.5 v 13.6 h 8.1 v 8.7 h -8.1 v 22.1 c 0,2.6 1.2,4.2 4,4.2 h 4.2 v 9.7 z"
     id="path11" /><path
     class="st0"
     d="m 227.5,91.7 v -9.4 h 11.8 v 9.4 z m 0.2,53.9 v -46 h 11.5 v 46 z"
     id="path13" /><path
     class="st0"
     d="m 265.1,146.1 c -9.2,0 -20.6,-4.9 -20.6,-23.6 0,-18.6 11.4,-23.5 20.6,-23.5 6.4,0 11.1,1.9 15.2,6.2 l -7.8,7.8 c -2.4,-2.6 -4.4,-3.6 -7.4,-3.6 -2.7,0 -4.9,1 -6.5,3 -1.8,2.2 -2.6,5.3 -2.6,10.2 0,4.9 0.8,8 2.6,10.3 1.7,2 3.8,3 6.5,3 3,0 5,-1.1 7.4,-3.6 l 7.8,7.7 c -4.1,4.1 -8.8,6.1 -15.2,6.1 z"
     id="path15" /><path
     class="st0"
     d="m 312,145.6 -11.3,-19.2 -4.9,5.5 v 13.7 H 284.3 V 82.7 h 11.5 v 35.7 L 311.1,99.6 H 325 l -16.4,18.6 17.7,27.5 H 312 Z"
     id="path17" /><path
     class="st0"
     d="m 335.8,126.1 c 0,5.9 3.6,10.2 10.1,10.2 5,0 7.5,-1.4 10.4,-4.3 l 7,6.8 c -4.7,4.7 -9.2,7.2 -17.5,7.2 -10.9,0 -21.3,-4.9 -21.3,-23.6 0,-15 8.1,-23.5 20.1,-23.5 12.8,0 20.1,9.4 20.1,22 v 5.1 h -28.9 z m 16.5,-12.8 c -1.2,-2.7 -3.8,-4.8 -7.7,-4.8 -3.9,0 -6.5,2 -7.7,4.8 -0.7,1.7 -1,2.9 -1.1,4.9 h 17.5 c -0.1,-2 -0.3,-3.2 -1,-4.9 z"
     id="path19" /><path
     class="st0"
     d="m 395.1,112.1 c -1.8,-1.8 -3.3,-2.7 -6.1,-2.7 -3.5,0 -7.4,2.7 -7.4,8.5 v 27.7 h -11.5 v -46 h 11.2 v 4.4 c 2.2,-2.7 6.6,-4.9 11.6,-4.9 4.5,0 7.7,1.1 10.9,4.3 z"
     id="path21" /><path
     class="st1"
     d="m 121.5,150.7 c -0.7,0.3 -1.6,0.2 -2.5,0.3 -0.8,0 -1.9,0 -2.4,-0.4 -0.3,-0.2 -0.3,-0.7 -0.3,-1 0,-0.3 0.1,-0.8 0.1,-1.1 0.1,-0.4 0.2,-1 0,-1.3 -0.2,-0.3 -0.9,-0.2 -1.3,-0.4 -0.4,-0.2 -0.5,-0.8 -0.6,-1.4 0,-0.2 -0.2,-0.4 -0.2,-0.5 -0.1,-0.9 0.2,-2.2 0.4,-3.1 0.2,-1 0.5,-1.9 0.7,-2.9 0.3,-1.4 0.3,-3 0.2,-4.5 0,-0.8 -0.2,-1.4 0,-2 0.1,-0.6 0.4,-1.1 0.5,-1.7 0,-0.2 0,-0.4 0,-0.6 0,-0.2 0.1,-0.3 0.1,-0.5 0,-0.4 -0.1,-0.9 -0.1,-1.4 -0.1,-1.3 0,-3.2 0.1,-4.3 0,-0.4 0.2,-0.8 -0.1,-1 -1.4,0 -2.6,0.2 -3.9,0.4 -3.4,0.4 -7.8,0.5 -11.1,-0.2 -0.3,-0.1 -0.6,-0.1 -0.9,-0.1 -2.4,-0.5 -4.5,-1.6 -6.2,-2.9 -0.3,-0.2 -0.6,-0.4 -0.9,-0.7 -0.3,-0.2 -0.6,-0.5 -0.9,-0.7 -1.3,-0.6 -3.1,0.1 -3.7,1 -0.2,0.3 -0.4,0.8 -0.6,1.2 -0.2,0.4 -0.4,0.8 -0.5,1.2 -0.9,2 -1.9,4 -2.8,6 -0.5,1.2 -1.1,2.5 -1.5,3.8 -0.8,2.8 -0.1,6.5 0.6,9.2 0.1,0.2 0.2,0.5 0.3,0.8 0.2,0.6 0.6,1.5 1.1,1.9 0.3,0.2 0.7,0.4 1,0.6 0.4,0.3 0.6,0.9 0.9,1.5 0.1,0.2 0.3,0.5 0.4,0.8 0.3,0.6 0.5,1.1 -0.2,1.5 -0.5,0.3 -1.3,0.3 -2,0.4 -0.3,0.1 -0.2,0.5 -0.4,0.7 -0.1,0.1 -0.6,0.3 -0.8,0.4 -0.9,0.3 -2.5,0.3 -3.2,0 -0.4,-0.1 -0.8,-0.4 -0.9,-0.7 -0.2,-0.6 0.3,-1.3 -0.1,-1.7 -0.2,-0.2 -0.6,-0.2 -0.9,-0.3 -0.5,-0.2 -0.9,-0.7 -1.2,-1.2 -0.5,-1.4 -0.2,-3.5 -0.3,-5.2 0,-0.5 -0.1,-1 -0.1,-1.6 0,-1 -0.3,-2 -0.4,-3 -0.1,-0.5 -0.2,-0.9 -0.3,-1.3 -0.2,-0.7 -0.3,-1.5 -0.5,-2.2 -0.2,-0.8 -0.2,-1.6 0,-2.2 0.1,-0.2 0.3,-0.4 0.4,-0.6 0.2,-0.4 0.2,-0.8 0.2,-1.2 -0.1,-0.2 -0.6,0 -0.7,-0.2 -0.3,-2.2 -0.6,-4.3 -0.8,-6.6 -0.1,-0.8 -0.1,-1.5 -0.1,-2.3 -0.1,-1.5 0,-3.1 -0.2,-4.6 -0.1,-0.7 -0.2,-1.4 -0.3,-2.1 -0.3,-2 -0.8,-4.5 -0.4,-6.6 0.3,-1.3 0.7,-2.4 1.5,-3.4 0.5,-0.7 1.1,-1.3 1.7,-2 0.6,-0.6 1.3,-1.2 2,-1.7 0.5,-0.3 1,-0.7 1.5,-1 1.1,-0.5 2.6,-1 4.2,-1.1 1.6,-0.1 3.4,-0.1 4.9,0.2 1.5,0.3 3,0.5 4.5,0.8 1.4,0.3 2.8,0.7 4.2,1 0.2,0 0.3,0.2 0.5,0.2 0.4,0.1 0.9,0.1 1.4,0.3 1.3,0.3 2.9,0.5 4.5,0.5 1.7,0 3.2,0 4.6,-0.4 0.2,-0.1 0.4,-0.2 0.6,-0.2 0.2,-0.1 0.5,-0.1 0.7,-0.1 0.1,0 0.3,-0.2 0.4,-0.3 0.8,-0.4 1.5,-0.8 2.2,-1.3 0.6,-0.4 1,-0.7 1.8,-1 0.3,-0.1 0.7,-0.3 1,-0.4 0.7,-0.2 1.5,-0.4 2,-0.8 0.9,-0.5 1.5,-1.3 2.2,-2 0.7,-0.6 1.5,-1.3 2.3,-1.9 1.6,-1.3 3.2,-2.4 4.7,-3.6 0.8,-0.6 1.6,-1.2 2.5,-1.7 1.7,-1 3.5,-2.1 6,-2.3 1,-0.1 2,-0.1 3,0 0.3,0 0.6,0.2 0.9,0.1 0.3,-0.1 0.5,-0.5 0.6,-0.8 0.4,-0.7 0.6,-1.1 1,-1.9 0.2,-0.5 0.1,-1 0.6,-1 0.5,0 0.4,1.3 0.4,1.8 0,0.6 -0.1,1.4 0,1.8 0.1,0.3 0.5,0.7 0.9,0.7 0.3,0 0.5,-0.2 0.7,-0.4 0.3,-0.2 0.5,-0.2 0.7,-0.4 0.4,-0.3 0.9,-0.8 1.3,-1.2 0.3,-0.3 0.9,-1.2 1.4,-1.1 1,0.1 0,1.6 -0.2,2 -0.5,1.1 -1,2 -1.6,3 -0.2,0.4 -0.8,1 -0.8,1.5 0,0.3 0.3,0.5 0.4,0.9 0.1,0.2 0.1,0.3 0.2,0.5 0.3,0.8 0.6,1.9 0.9,2.8 0.2,0.8 0.4,1.6 0.7,2.3 0.3,0.7 0.7,1.4 1,2.2 0.1,0.2 0.1,0.4 0.2,0.6 0.6,1.6 1.2,3.4 2,5 0.3,0.6 0.7,1.4 0.7,2.3 0,1 -0.5,1.5 -1,2.3 -0.2,0.4 -0.6,1 -1,1.1 -0.3,0.1 -0.6,0 -0.9,0 -0.4,0.1 -0.7,0.3 -1,0.3 -0.9,0.1 -1.8,-0.6 -2,-1.3 -0.1,-0.2 0,-0.5 -0.1,-0.8 -0.2,-1.1 -0.8,-1.6 -1.5,-2.4 -0.5,-0.5 -0.9,-0.8 -1.5,-1.1 -0.9,-0.5 -1.8,-0.7 -2.8,-1.2 -0.3,-0.2 -0.8,-0.4 -1.1,-0.3 -0.5,0.1 -1,0.9 -1.4,1.4 -2.4,3.2 -4.6,6.5 -6.9,9.6 -1.6,2.1 -3.2,4.2 -4.5,6.5 -0.3,0.6 -0.5,1.3 -0.8,2 -0.2,0.7 -0.4,1.4 -0.6,2.2 -0.9,2.6 -1.2,5.8 -2,8.5 -0.1,0.3 -0.1,0.6 -0.2,0.9 -0.4,1.4 -0.8,3 -1.2,4.5 -0.3,1.1 -0.4,2.6 -0.5,4 0,1.4 -0.1,3.3 0.4,4.1 0.3,0.5 1.2,0.6 1.5,1.1 0.2,0.3 0.4,1 0.7,1.4 0.2,0.3 0.7,0.9 0.6,1.4 0,0.3 -0.3,0.6 -0.6,0.7 -0.3,0.1 -0.7,0.1 -1,0.2 0,0.4 0.1,0.8 -0.2,1 z"
     id="path23" /><path
     class="st2"
     d="m 455.4,99 c -5.7,0 -9.9,1.8 -13.8,5.8 -2.9,-4 -7.1,-5.8 -12.2,-5.8 -4.2,0 -8.5,1.7 -11.5,4.8 v -4.2 h -11.2 v 46 h 11.5 v -27.8 c 0,-6.3 4.1,-8.4 7.7,-8.4 3.6,0 7.6,2.1 7.6,8.4 v 27.8 H 445 v -28.1 c 0,-6 4.2,-8.1 7.7,-8.1 3.6,0 7.6,2.1 7.6,8.4 v 27.8 h 11.5 v -29.4 c 0,-5 -1.3,-9.4 -5,-13.1 C 464.1,100.5 460,99 455.4,99 Z"
     id="path25" /><path
     class="st2"
     d="m 505.3,127.4 c 0,6.3 -4.1,8.4 -7.7,8.4 -3.6,0 -7.6,-2.1 -7.6,-8.4 V 99.5 H 478.5 V 129 c 0,5 1,9.4 4.7,13.1 2.6,2.6 6.3,4.1 10.9,4.1 4.2,0 8.5,-1.6 11.5,-4.8 v 4.2 h 11.2 v -46 h -11.5 z"
     id="path27" /><path
     class="st2"
     d="m 535.6,131.7 v -49 h -11.5 v 49.7 c 0,6.5 4,13.2 13.4,13.2 h 6.5 v -9.7 h -4.4 c -2.9,0 -4,-1.4 -4,-4.2 z"
     id="path29" /><path
     class="st2"
     d="m 586.2,121 c 0,-12.6 -7.2,-22 -20.1,-22 -11.9,0 -20.1,8.5 -20.1,23.5 0,18.6 10.4,23.6 21.3,23.6 8.3,0 12.8,-2.6 17.5,-7.2 l -7,-6.8 c -2.9,2.9 -5.4,4.3 -10.4,4.3 -6.5,0 -10.1,-4.3 -10.1,-10.2 h 28.8 V 121 Z m -28.8,-2.7 c 0.1,-2 0.4,-3.3 1.1,-4.9 1.2,-2.7 3.8,-4.8 7.7,-4.8 3.9,0 6.4,2 7.7,4.8 0.7,1.7 1,2.9 1.1,4.9 z"
     id="path31" /></g>
</svg>
