<?xml version="1.0" encoding="UTF-8" standalone="no"?>
<!-- Generator: Adobe Illustrator 23.1.1, SVG Export Plug-In . SVG Version: 6.00 Build 0)  -->

<svg
   version="1.1"
   id="Layer_1"
   x="0px"
   y="0px"
   viewBox="0 0 203.35249 20"
   xml:space="preserve"
   sodipodi:docname="TMH_Logo_Black_Horizontal.svg"
   width="203.35249"
   height="20"
   inkscape:version="1.2.1 (9c6d41e, 2022-07-14)"
   xmlns:inkscape="http://www.inkscape.org/namespaces/inkscape"
   xmlns:sodipodi="http://sodipodi.sourceforge.net/DTD/sodipodi-0.dtd"
   xmlns="http://www.w3.org/2000/svg"
   xmlns:svg="http://www.w3.org/2000/svg"><defs
   id="defs397" /><sodipodi:namedview
   id="namedview395"
   pagecolor="#ffffff"
   bordercolor="#000000"
   borderopacity="0.25"
   inkscape:showpageshadow="2"
   inkscape:pageopacity="0.0"
   inkscape:pagecheckerboard="0"
   inkscape:deskcolor="#d1d1d1"
   showgrid="false"
   inkscape:zoom="5.6667446"
   inkscape:cx="56.822748"
   inkscape:cy="10.058685"
   inkscape:window-width="1309"
   inkscape:window-height="456"
   inkscape:window-x="0"
   inkscape:window-y="25"
   inkscape:window-maximized="0"
   inkscape:current-layer="Layer_1" />
<style
   type="text/css"
   id="style369">
	.st0{fill:#212120;}
</style>
<g
   id="g391"
   transform="translate(-5,-5)">
	<g
   id="g389">
		<g
   id="g375">
			<path
   class="st0"
   d="m 202.74,14.95 -4.61,4.61 -1.5,1.5 -1.3,1.3 1.3,1.3 0.33,0.33 0.47,0.47 c 0.72,0.72 1.89,0.72 2.61,0 l 6.28,-6.28 -0.17,0.18 1.3,-1.3 -1.3,-1.3 -0.33,-0.33 -0.47,-0.47 c -0.72,-0.73 -1.89,-0.73 -2.61,-0.01 z"
   id="path371" />
			<path
   class="st0"
   d="m 207.82,14.08 -6.28,-6.28 -1.5,-1.5 -1.3,-1.3 -1.3,1.3 -0.33,0.33 -0.47,0.47 c -0.72,0.72 -0.72,1.89 0,2.61 l 5.75,5.66 c 3.09,3.09 2.4,4.37 2.4,4.37 l 2.23,-2.26 0.33,-0.33 0.47,-0.47 c 0.71,-0.71 0.71,-1.88 0,-2.6 z"
   id="path373" />
		</g>
		<g
   id="g381">
			<path
   class="st0"
   d="m 193.11,14.95 -4.61,4.61 -1.5,1.5 -1.3,1.3 1.3,1.3 0.33,0.33 0.47,0.47 c 0.72,0.72 1.89,0.72 2.61,0 l 6.28,-6.28 -0.18,0.18 1.3,-1.3 -1.3,-1.3 -0.33,-0.33 -0.47,-0.47 c -0.72,-0.73 -1.89,-0.73 -2.6,-0.01 z"
   id="path377" />
			<path
   class="st0"
   d="M 198.18,14.08 191.9,7.8 190.4,6.3 189.1,5 187.8,6.3 187.47,6.63 187,7.1 c -0.72,0.72 -0.72,1.89 0,2.61 l 5.75,5.66 c 3.09,3.09 2.4,4.37 2.4,4.37 l 2.23,-2.26 0.33,-0.33 0.47,-0.47 c 0.72,-0.71 0.72,-1.88 0,-2.6 z"
   id="path379" />
		</g>
		<g
   id="g387">
			<path
   class="st0"
   d="m 183.47,14.95 -4.61,4.61 -1.5,1.5 -1.3,1.3 1.3,1.3 0.33,0.33 0.47,0.47 c 0.72,0.72 1.89,0.72 2.61,0 l 6.28,-6.28 -0.17,0.18 1.3,-1.3 -1.3,-1.3 -0.33,-0.33 -0.47,-0.47 c -0.72,-0.73 -1.89,-0.73 -2.61,-0.01 z"
   id="path383" />
			<path
   class="st0"
   d="m 188.55,14.08 -6.28,-6.28 -1.5,-1.5 -1.3,-1.3 -1.3,1.3 -0.33,0.33 -0.47,0.47 c -0.72,0.72 -0.72,1.89 0,2.61 l 5.75,5.66 c 3.09,3.09 2.4,4.37 2.4,4.37 l 2.23,-2.26 0.33,-0.33 0.47,-0.47 c 0.71,-0.71 0.71,-1.88 0,-2.6 z"
   id="path385" />
		</g>
	</g>
</g>
<path
   id="Combined-Shape_2_"
   class="st0"
   d="m 18.02,14.99 h -1.89 v -4.1 h -4.32 v 4.1 H 9.89 V 5 h 1.92 v 3.86 h 4.3 V 5 h 1.92 v 9.99 z M 21.31,7.03 V 5 h 6.64 v 2.03 h -3.32 z m 0,3.99 V 8.99 h 2.13 2.14 v 2.03 h -2.14 z m 6.64,3.97 h -6.64 v -2.03 h 3.32 3.32 z M 57.6,10.02 c 0,0.7 -0.12,1.35 -0.37,1.95 -0.24,0.61 -0.58,1.13 -1.01,1.57 -0.41,0.45 -0.91,0.8 -1.49,1.07 C 54.17,14.87 53.56,15 52.91,15 52.26,15 51.65,14.87 51.08,14.61 50.5,14.35 50.01,13.99 49.59,13.54 49.14,13.08 48.81,12.55 48.58,11.96 48.34,11.35 48.21,10.7 48.21,10.01 48.21,9.32 48.33,8.68 48.58,8.07 48.81,7.48 49.15,6.94 49.59,6.47 50.01,6.01 50.51,5.65 51.08,5.39 51.65,5.13 52.26,5 52.91,5 c 0.67,0 1.28,0.13 1.84,0.4 0.57,0.27 1.07,0.63 1.49,1.08 0.41,0.44 0.75,0.98 1,1.6 0.24,0.6 0.36,1.25 0.36,1.94 z m -1.91,0 c 0,-0.24 -0.04,-0.5 -0.11,-0.8 C 55.52,8.95 55.4,8.68 55.25,8.42 55.1,8.18 54.91,7.94 54.66,7.72 54.03,7.16 53.06,6.91 52.26,7.12 52.05,7.18 51.84,7.26 51.62,7.38 51.4,7.5 51.2,7.65 51.02,7.83 c -0.19,0.18 -0.36,0.4 -0.5,0.65 -0.18,0.33 -0.29,0.64 -0.34,0.93 -0.01,0.05 -0.02,0.1 -0.03,0.15 -0.01,0.05 -0.01,0.1 -0.02,0.16 -0.01,0.09 -0.02,0.19 -0.02,0.32 0,0.4 0.07,0.78 0.22,1.13 0.14,0.36 0.34,0.67 0.6,0.94 0.25,0.27 0.55,0.49 0.89,0.64 0.34,0.16 0.7,0.24 1.08,0.24 0.36,0 0.72,-0.08 1.07,-0.23 0.32,-0.14 0.62,-0.35 0.89,-0.63 0.25,-0.26 0.45,-0.57 0.6,-0.93 0.15,-0.38 0.23,-0.77 0.23,-1.18 z m 11.38,2.02 c 0,0.28 -0.04,0.56 -0.12,0.85 -0.08,0.3 -0.2,0.58 -0.38,0.85 -0.18,0.28 -0.4,0.52 -0.65,0.72 -0.25,0.21 -0.56,0.36 -0.93,0.45 -0.04,0.01 -0.08,0.02 -0.12,0.03 -0.05,0.01 -0.1,0.02 -0.15,0.03 -0.1,0.02 -0.16,0.03 -0.2,0.03 h -5.09 v -2.04 h 1.92 1.1 1.46 0.03 0.32 c 0.24,0 0.45,-0.09 0.62,-0.27 0.17,-0.18 0.26,-0.4 0.26,-0.66 0,-0.26 -0.09,-0.48 -0.26,-0.66 -0.17,-0.18 -0.38,-0.28 -0.62,-0.28 h -0.32 -0.03 -1.46 -1.1 -1.92 V 8.92 h 1.92 1.1 1.32 0.29 0.21 c 0.24,0 0.45,-0.09 0.63,-0.27 0.17,-0.18 0.26,-0.4 0.26,-0.66 C 65.16,7.73 65.07,7.51 64.9,7.32 64.73,7.14 64.52,7.04 64.27,7.04 h -0.21 -0.29 -1.32 -1.1 -1.92 V 5 h 5.15 c 0.05,0 0.11,0.01 0.17,0.02 0.05,0.02 0.12,0.04 0.22,0.07 0.07,0.03 0.14,0.05 0.2,0.08 0.08,0.02 0.12,0.03 0.1,0.03 0,0 0.06,0.03 0.17,0.08 0.03,0.02 0.06,0.04 0.1,0.06 0.03,0.02 0.07,0.04 0.1,0.05 0.2,0.11 0.38,0.24 0.54,0.4 0.17,0.17 0.3,0.34 0.41,0.52 0.11,0.17 0.2,0.36 0.28,0.56 0.07,0.2 0.11,0.39 0.13,0.55 0.01,0.06 0.03,0.17 0.04,0.33 0.01,0.09 0.01,0.16 0.01,0.23 0,0.32 -0.06,0.66 -0.17,1.02 -0.11,0.37 -0.3,0.7 -0.56,1.01 0.01,0.01 0.03,0.03 0.06,0.07 0.05,0.05 0.07,0.07 0.06,0.07 0.22,0.25 0.38,0.56 0.48,0.91 0.11,0.32 0.15,0.65 0.15,0.98 z m 2.76,2.95 V 5 h 1.92 v 9.99 z m 11.63,0 H 74.82 V 5 h 1.91 v 7.95 h 4.73 z m 2.74,0 V 5 h 1.92 v 9.99 z M 96.52,7.03 h -3.04 v 7.96 H 91.56 V 7.04 H 88.49 V 5 h 8.03 z m 10.44,-2.02 -3.55,6.37 V 15 h -1.92 V 11.4 L 97.93,5.02 h 2.22 l 2.27,4.08 2.29,-4.08 h 2.25 z m 15.7,9.98 h -1.89 v -4.1 h -4.32 v 4.1 h -1.92 V 5 h 1.92 v 3.86 h 4.3 V 5 h 1.92 v 9.99 z m 20.86,-3.95 c 0,0.04 0,0.09 -0.02,0.15 0,0.04 -0.01,0.08 -0.01,0.12 -0.01,0.04 -0.01,0.06 -0.01,0.09 -0.05,0.31 -0.12,0.62 -0.21,0.91 -0.11,0.3 -0.25,0.58 -0.41,0.86 -0.16,0.27 -0.36,0.52 -0.62,0.76 -0.28,0.26 -0.52,0.44 -0.73,0.55 -0.04,0.02 -0.07,0.04 -0.11,0.06 -0.04,0.02 -0.07,0.04 -0.11,0.06 -0.09,0.05 -0.17,0.09 -0.22,0.11 -0.21,0.1 -0.45,0.18 -0.72,0.23 -0.26,0.05 -0.51,0.08 -0.76,0.08 -0.11,0 -0.25,-0.01 -0.43,-0.03 -0.08,-0.01 -0.16,-0.02 -0.24,-0.03 -0.08,-0.01 -0.15,-0.02 -0.22,-0.04 -0.25,-0.06 -0.53,-0.17 -0.85,-0.32 -0.29,-0.15 -0.58,-0.35 -0.86,-0.62 -0.22,-0.21 -0.43,-0.45 -0.61,-0.72 -0.18,-0.28 -0.31,-0.53 -0.4,-0.77 -0.06,-0.14 -0.1,-0.29 -0.14,-0.43 -0.03,-0.07 -0.05,-0.12 -0.05,-0.16 -0.01,-0.04 -0.03,-0.09 -0.04,-0.16 -0.01,-0.04 -0.02,-0.1 -0.03,-0.19 -0.02,-0.08 -0.03,-0.15 -0.03,-0.21 -0.01,-0.09 -0.02,-0.15 -0.02,-0.17 0,-0.03 -0.01,-0.06 -0.01,-0.09 V 5.02 h 1.92 v 6.01 c 0,0.01 0,0.02 0.01,0.03 0,0.01 0.01,0.01 0.01,0.01 0,0 0,0.02 0,0.04 0.01,0.09 0.03,0.17 0.05,0.24 0.02,0.08 0.04,0.16 0.07,0.23 0.19,0.5 0.47,0.86 0.83,1.08 0.35,0.21 0.7,0.31 1.03,0.31 0.17,0 0.36,-0.03 0.57,-0.09 0.2,-0.06 0.39,-0.16 0.56,-0.29 0.18,-0.13 0.34,-0.29 0.48,-0.49 0.15,-0.21 0.25,-0.44 0.32,-0.71 0.02,-0.05 0.04,-0.12 0.06,-0.21 0.02,-0.09 0.04,-0.15 0.04,-0.18 V 5.01 h 1.92 v 6.03 z m 5.68,-5.98 c 0.16,0.02 0.37,0.08 0.63,0.15 0.22,0.07 0.44,0.18 0.67,0.32 0.24,0.15 0.44,0.31 0.63,0.49 0.19,0.19 0.36,0.41 0.52,0.68 0,0.02 0.04,0.07 0.09,0.16 0.04,0.08 0.08,0.17 0.08,0.17 l -1.63,0.86 C 150.12,7.72 150.02,7.57 149.9,7.46 149.78,7.34 149.65,7.24 149.52,7.17 149.38,7.1 149.25,7.04 149.1,7.01 c -0.13,-0.03 -0.27,-0.04 -0.4,-0.04 -0.15,0 -0.28,0.01 -0.38,0.03 -0.12,0.02 -0.24,0.06 -0.36,0.13 -0.1,0.05 -0.19,0.14 -0.26,0.27 -0.07,0.13 -0.1,0.29 -0.1,0.47 0,0.14 0.04,0.29 0.13,0.46 0.09,0.17 0.23,0.31 0.42,0.42 0.02,0.01 0.05,0.03 0.1,0.06 0.05,0.03 0.08,0.05 0.1,0.05 0.12,0.07 0.29,0.17 0.53,0.3 0.17,0.1 0.35,0.19 0.54,0.28 0.04,0.03 0.09,0.06 0.16,0.09 0.06,0.03 0.11,0.05 0.16,0.09 0.08,0.04 0.17,0.08 0.26,0.13 0.07,0.04 0.15,0.08 0.23,0.14 0.27,0.16 0.49,0.33 0.66,0.52 0.17,0.2 0.3,0.4 0.39,0.61 0.1,0.22 0.16,0.43 0.2,0.64 0.04,0.23 0.06,0.45 0.06,0.66 0,0.26 -0.03,0.51 -0.09,0.74 -0.07,0.26 -0.17,0.49 -0.29,0.68 -0.14,0.21 -0.31,0.4 -0.54,0.58 -0.23,0.18 -0.51,0.34 -0.84,0.47 -0.04,0.01 -0.08,0.03 -0.12,0.04 -0.04,0.02 -0.09,0.03 -0.14,0.04 -0.08,0.02 -0.19,0.04 -0.32,0.06 -0.06,0.01 -0.11,0.02 -0.17,0.02 -0.15,0.01 -0.32,0.02 -0.46,0.02 h -0.02 -0.06 c -0.15,0 -0.22,0 -0.36,-0.01 -0.03,0 -0.08,-0.01 -0.16,-0.02 -0.21,-0.02 -0.41,-0.08 -0.63,-0.15 -0.22,-0.07 -0.44,-0.17 -0.67,-0.3 -0.23,-0.14 -0.44,-0.3 -0.63,-0.49 -0.21,-0.2 -0.38,-0.43 -0.52,-0.69 -0.03,-0.07 -0.06,-0.12 -0.08,-0.16 -0.04,-0.08 -0.07,-0.14 -0.09,-0.17 l 1.59,-0.85 h 0.03 c 0.07,0.17 0.17,0.31 0.3,0.43 0.12,0.12 0.24,0.22 0.38,0.29 0.14,0.07 0.28,0.12 0.42,0.15 0.14,0.03 0.27,0.05 0.39,0.05 0.16,0 0.29,-0.01 0.39,-0.03 0.13,-0.02 0.25,-0.06 0.36,-0.13 0.1,-0.05 0.18,-0.14 0.26,-0.27 0.07,-0.12 0.1,-0.27 0.1,-0.46 0,-0.39 -0.25,-0.72 -0.75,-0.99 -0.01,0 -0.03,-0.01 -0.06,-0.03 -0.03,-0.02 -0.06,-0.03 -0.1,-0.06 -0.08,-0.05 -0.17,-0.11 -0.27,-0.16 -0.05,-0.03 -0.1,-0.06 -0.16,-0.09 -0.05,-0.03 -0.11,-0.06 -0.16,-0.1 -0.15,-0.08 -0.25,-0.13 -0.3,-0.16 -0.03,-0.02 -0.08,-0.04 -0.14,-0.07 -0.05,-0.02 -0.1,-0.05 -0.16,-0.08 -0.04,-0.02 -0.08,-0.04 -0.12,-0.07 -0.04,-0.02 -0.08,-0.05 -0.13,-0.08 -0.04,-0.02 -0.09,-0.04 -0.13,-0.07 C 147.04,10.18 147,10.15 146.96,10.13 146.7,9.99 146.48,9.81 146.31,9.61 146.13,9.4 146,9.2 145.91,9 145.82,8.81 145.75,8.59 145.7,8.35 c -0.04,-0.22 -0.06,-0.44 -0.06,-0.66 0,0 0,-0.03 0.01,-0.06 0,-0.04 0.01,-0.09 0.01,-0.16 0,-0.06 0.01,-0.13 0.01,-0.18 0.01,-0.06 0.01,-0.11 0.02,-0.16 0.01,-0.03 0.02,-0.07 0.03,-0.12 0,-0.04 0.01,-0.08 0.04,-0.14 0.01,-0.02 0.02,-0.05 0.03,-0.08 0.01,-0.03 0.02,-0.07 0.04,-0.1 0.03,-0.08 0.07,-0.15 0.1,-0.2 0.07,-0.15 0.16,-0.3 0.29,-0.43 0.11,-0.13 0.24,-0.25 0.38,-0.36 0.11,-0.09 0.25,-0.19 0.41,-0.29 0.16,-0.08 0.29,-0.15 0.4,-0.19 0.2,-0.07 0.4,-0.12 0.61,-0.15 0.21,-0.03 0.41,-0.05 0.6,-0.05 0.15,0 0.42,0.01 0.58,0.04 z m 5.21,1.97 V 5 h 6.64 v 2.03 h -3.32 z m 0,3.99 V 8.99 h 2.13 2.14 v 2.03 h -2.14 z m 6.64,3.97 h -6.64 v -2.03 h 3.32 3.32 z M 39.31,5.01 h 1.63 1.86 1.63 1.41 0.45 V 15 H 44.43 V 6.99 H 42.8 V 15 H 40.94 V 6.99 H 39.31 V 15 H 37.45 V 6.99 5.01 Z M 8.03,7.03 H 4.98 v 7.96 H 3.07 V 7.04 H 0 V 5 h 8.03 z m 125.96,2.98 c 0,0.7 -0.12,1.35 -0.37,1.95 -0.24,0.61 -0.58,1.13 -1.01,1.57 -0.41,0.45 -0.91,0.8 -1.49,1.07 -0.57,0.26 -1.18,0.39 -1.83,0.39 -0.65,0 -1.26,-0.13 -1.83,-0.39 -0.58,-0.26 -1.07,-0.62 -1.49,-1.07 -0.45,-0.46 -0.78,-0.99 -1.01,-1.58 -0.24,-0.61 -0.37,-1.26 -0.37,-1.95 0,-0.69 0.12,-1.33 0.37,-1.94 0.23,-0.59 0.57,-1.13 1.01,-1.6 0.42,-0.46 0.92,-0.82 1.49,-1.08 0.57,-0.26 1.18,-0.39 1.83,-0.39 0.67,0 1.28,0.13 1.84,0.4 0.57,0.27 1.07,0.63 1.49,1.08 0.41,0.44 0.75,0.98 1,1.6 0.25,0.61 0.37,1.25 0.37,1.94 z m -1.92,0 c 0,-0.24 -0.04,-0.5 -0.11,-0.8 -0.06,-0.27 -0.18,-0.54 -0.33,-0.8 -0.15,-0.24 -0.34,-0.48 -0.59,-0.7 -0.63,-0.56 -1.6,-0.81 -2.4,-0.6 -0.21,0.06 -0.42,0.14 -0.64,0.26 -0.22,0.12 -0.42,0.27 -0.6,0.45 -0.19,0.18 -0.36,0.4 -0.5,0.65 -0.18,0.33 -0.29,0.64 -0.34,0.93 -0.01,0.05 -0.02,0.1 -0.03,0.15 -0.01,0.05 -0.01,0.1 -0.02,0.16 -0.01,0.09 -0.02,0.19 -0.02,0.32 0,0.4 0.07,0.78 0.22,1.13 0.14,0.36 0.34,0.67 0.6,0.94 0.25,0.27 0.55,0.49 0.89,0.64 0.34,0.16 0.7,0.24 1.08,0.24 0.36,0 0.72,-0.08 1.07,-0.23 0.32,-0.14 0.62,-0.35 0.89,-0.63 0.25,-0.26 0.45,-0.57 0.6,-0.93 0.15,-0.37 0.23,-0.76 0.23,-1.18 z" />
</svg>
