<?xml version="1.0" encoding="UTF-8" standalone="no"?>
<!-- Generator: Adobe Illustrator 23.1.1, SVG Export Plug-In . SVG Version: 6.00 Build 0)  -->

<svg
   version="1.1"
   id="Layer_1"
   x="0px"
   y="0px"
   viewBox="0 0 164.35001 54.990002"
   xml:space="preserve"
   sodipodi:docname="TMH_Logo_Black_Vertical.svg"
   width="164.35001"
   height="54.990002"
   inkscape:version="1.2.1 (9c6d41e, 2022-07-14)"
   xmlns:inkscape="http://www.inkscape.org/namespaces/inkscape"
   xmlns:sodipodi="http://sodipodi.sourceforge.net/DTD/sodipodi-0.dtd"
   xmlns="http://www.w3.org/2000/svg"
   xmlns:svg="http://www.w3.org/2000/svg"><defs
   id="defs202" /><sodipodi:namedview
   id="namedview200"
   pagecolor="#ffffff"
   bordercolor="#000000"
   borderopacity="0.25"
   inkscape:showpageshadow="2"
   inkscape:pageopacity="0.0"
   inkscape:pagecheckerboard="0"
   inkscape:deskcolor="#d1d1d1"
   showgrid="false"
   inkscape:zoom="3.1466667"
   inkscape:cx="82.309322"
   inkscape:cy="27.648305"
   inkscape:window-width="1309"
   inkscape:window-height="456"
   inkscape:window-x="0"
   inkscape:window-y="25"
   inkscape:window-maximized="0"
   inkscape:current-layer="Layer_1" />
<style
   type="text/css"
   id="style176">
	.st0{fill:#212120;}
</style>
<path
   id="Combined-Shape_1_"
   class="st0"
   d="m 18.39,54.98 h -1.93 v -4.19 h -4.41 v 4.19 H 10.09 V 44.79 h 1.96 v 3.93 h 4.39 v -3.93 h 1.96 v 10.19 z m 3.36,-8.12 v -2.07 h 6.78 v 2.07 h -3.39 z m 0,4.06 v -2.07 h 2.17 2.18 v 2.07 h -2.18 z m 6.77,4.06 H 21.74 V 52.9 h 3.38 3.39 v 2.08 z M 58.78,49.9 c 0,0.72 -0.12,1.38 -0.37,1.99 -0.25,0.62 -0.59,1.15 -1.03,1.61 -0.42,0.46 -0.93,0.82 -1.52,1.09 -0.58,0.27 -1.21,0.4 -1.87,0.4 -0.66,0 -1.29,-0.13 -1.87,-0.4 -0.59,-0.27 -1.1,-0.63 -1.52,-1.1 -0.45,-0.47 -0.8,-1.01 -1.03,-1.61 -0.25,-0.62 -0.37,-1.29 -0.37,-1.99 0,-0.7 0.12,-1.36 0.37,-1.98 0.24,-0.6 0.58,-1.15 1.03,-1.63 0.43,-0.46 0.94,-0.83 1.52,-1.1 0.58,-0.27 1.21,-0.4 1.87,-0.4 0.68,0 1.31,0.13 1.88,0.4 0.58,0.27 1.09,0.64 1.52,1.11 0.42,0.45 0.76,1 1.02,1.63 0.25,0.62 0.37,1.28 0.37,1.98 z m -1.95,0 c 0,-0.24 -0.04,-0.51 -0.11,-0.82 -0.07,-0.28 -0.18,-0.55 -0.34,-0.82 -0.15,-0.25 -0.35,-0.49 -0.6,-0.71 -0.64,-0.57 -1.63,-0.82 -2.45,-0.62 -0.21,0.06 -0.43,0.14 -0.65,0.26 -0.22,0.13 -0.43,0.28 -0.61,0.46 -0.19,0.18 -0.37,0.41 -0.51,0.66 -0.18,0.33 -0.3,0.65 -0.35,0.95 -0.01,0.05 -0.02,0.1 -0.03,0.15 -0.01,0.05 -0.01,0.1 -0.02,0.16 -0.01,0.09 -0.02,0.19 -0.02,0.32 0,0.41 0.08,0.8 0.22,1.16 0.15,0.37 0.35,0.69 0.61,0.96 0.26,0.28 0.56,0.5 0.9,0.65 0.35,0.16 0.71,0.25 1.1,0.25 0.37,0 0.73,-0.08 1.09,-0.24 0.33,-0.15 0.63,-0.36 0.91,-0.64 0.26,-0.27 0.46,-0.59 0.61,-0.95 0.17,-0.36 0.25,-0.76 0.25,-1.18 z m 11.62,2.06 c 0,0.29 -0.04,0.57 -0.12,0.87 -0.08,0.31 -0.21,0.6 -0.39,0.87 -0.19,0.28 -0.41,0.53 -0.66,0.73 -0.26,0.21 -0.58,0.37 -0.95,0.46 -0.04,0.01 -0.08,0.02 -0.13,0.03 -0.05,0.01 -0.1,0.02 -0.15,0.03 -0.1,0.02 -0.16,0.03 -0.2,0.03 H 60.66 V 52.9 h 1.96 1.12 1.49 0.04 0.33 c 0.24,0 0.46,-0.09 0.63,-0.28 0.18,-0.19 0.27,-0.41 0.27,-0.67 0,-0.26 -0.09,-0.49 -0.27,-0.68 -0.18,-0.19 -0.39,-0.28 -0.63,-0.28 h -0.33 -0.04 -1.49 -1.12 -1.96 v -2.22 h 1.96 1.12 1.35 0.29 0.21 c 0.25,0 0.46,-0.09 0.64,-0.28 0.18,-0.19 0.27,-0.41 0.27,-0.68 0,-0.27 -0.09,-0.49 -0.27,-0.68 -0.18,-0.19 -0.39,-0.28 -0.64,-0.28 H 65.38 65.1 63.75 62.63 60.67 v -2.07 h 5.25 c 0.05,0 0.11,0.01 0.18,0.02 0.05,0.02 0.12,0.04 0.23,0.07 0.07,0.03 0.14,0.05 0.21,0.08 0.08,0.02 0.12,0.03 0.1,0.03 0,0 0.06,0.03 0.17,0.08 0.03,0.02 0.07,0.04 0.1,0.06 0.04,0.02 0.07,0.04 0.1,0.05 0.2,0.11 0.39,0.25 0.55,0.41 0.17,0.17 0.31,0.35 0.42,0.53 0.11,0.18 0.21,0.37 0.28,0.57 0.07,0.21 0.12,0.39 0.14,0.56 0.01,0.06 0.03,0.17 0.04,0.33 0.01,0.09 0.01,0.17 0.01,0.23 0,0.33 -0.06,0.68 -0.18,1.04 -0.11,0.38 -0.3,0.72 -0.57,1.03 0.01,0.01 0.03,0.03 0.06,0.07 0.05,0.05 0.07,0.07 0.06,0.07 0.23,0.26 0.39,0.57 0.49,0.93 0.09,0.35 0.14,0.68 0.14,1.02 z m 2.81,3.02 V 44.79 h 1.96 v 10.19 z m 11.87,0 H 76.35 V 44.79 h 1.95 v 8.12 h 4.82 v 2.07 z m 2.79,0 V 44.79 h 1.96 v 10.19 z m 12.57,-8.12 h -3.11 v 8.12 h -1.96 v -8.11 h -3.13 v -2.08 h 8.19 v 2.07 z m 10.66,-2.07 -3.62,6.5 v 3.69 h -1.95 V 51.3 l -3.63,-6.51 h 2.27 l 2.32,4.16 2.34,-4.16 z m 16.02,10.18 h -1.93 v -4.19 h -4.41 v 4.19 h -1.95 V 44.78 h 1.95 v 3.93 h 4.39 v -3.93 h 1.96 v 10.19 z m 21.29,-4.03 c 0,0.05 0,0.09 -0.02,0.15 0,0.04 -0.01,0.08 -0.01,0.12 -0.01,0.04 -0.01,0.06 -0.01,0.09 -0.05,0.32 -0.12,0.63 -0.22,0.92 -0.12,0.3 -0.26,0.59 -0.42,0.87 -0.16,0.27 -0.37,0.53 -0.63,0.78 -0.28,0.26 -0.53,0.45 -0.75,0.56 -0.04,0.02 -0.07,0.04 -0.11,0.06 -0.04,0.02 -0.07,0.04 -0.11,0.06 -0.09,0.05 -0.17,0.09 -0.22,0.11 -0.21,0.1 -0.46,0.18 -0.73,0.23 -0.27,0.05 -0.52,0.08 -0.77,0.08 -0.11,0 -0.26,-0.01 -0.44,-0.03 -0.08,-0.01 -0.16,-0.02 -0.24,-0.03 -0.08,-0.01 -0.15,-0.02 -0.23,-0.04 -0.26,-0.06 -0.55,-0.17 -0.87,-0.33 -0.3,-0.15 -0.59,-0.36 -0.88,-0.64 -0.23,-0.21 -0.44,-0.46 -0.62,-0.74 -0.19,-0.28 -0.32,-0.54 -0.4,-0.79 -0.06,-0.15 -0.11,-0.29 -0.14,-0.44 -0.03,-0.07 -0.05,-0.12 -0.05,-0.16 -0.01,-0.04 -0.03,-0.09 -0.04,-0.16 -0.01,-0.04 -0.02,-0.1 -0.03,-0.19 -0.02,-0.08 -0.03,-0.15 -0.03,-0.22 -0.01,-0.1 -0.02,-0.15 -0.02,-0.17 0,-0.03 -0.01,-0.06 -0.01,-0.09 v -6.18 h 1.95 v 6.13 c 0,0.01 0,0.02 0.01,0.03 0,0.01 0.01,0.01 0.01,0.01 0,0 0,0.02 0,0.04 0.01,0.09 0.03,0.17 0.05,0.25 0.02,0.08 0.04,0.16 0.07,0.24 0.2,0.51 0.48,0.88 0.85,1.1 0.36,0.21 0.71,0.32 1.06,0.32 0.18,0 0.37,-0.03 0.58,-0.09 0.21,-0.06 0.4,-0.16 0.57,-0.3 0.18,-0.13 0.34,-0.3 0.49,-0.5 0.15,-0.21 0.26,-0.45 0.33,-0.72 0.02,-0.05 0.04,-0.12 0.06,-0.22 0.02,-0.1 0.04,-0.16 0.04,-0.18 v -6.11 h 1.96 v 6.18 z m 5.8,-6.1 c 0.17,0.02 0.38,0.08 0.65,0.15 0.22,0.07 0.45,0.18 0.68,0.32 0.24,0.15 0.45,0.32 0.64,0.5 0.19,0.19 0.37,0.42 0.53,0.7 0,0.02 0.04,0.07 0.09,0.16 0.05,0.09 0.08,0.17 0.08,0.17 l -1.66,0.88 c -0.08,-0.18 -0.18,-0.32 -0.3,-0.44 -0.12,-0.12 -0.25,-0.22 -0.39,-0.3 -0.14,-0.07 -0.28,-0.13 -0.43,-0.17 -0.14,-0.03 -0.27,-0.05 -0.41,-0.05 -0.16,0 -0.29,0.01 -0.39,0.03 -0.13,0.02 -0.25,0.06 -0.37,0.13 -0.1,0.05 -0.19,0.15 -0.26,0.28 -0.07,0.13 -0.11,0.29 -0.11,0.48 0,0.14 0.04,0.3 0.13,0.46 0.09,0.18 0.23,0.32 0.43,0.42 0.02,0.01 0.05,0.03 0.1,0.06 0.05,0.03 0.09,0.05 0.1,0.05 0.12,0.07 0.3,0.18 0.54,0.31 0.17,0.1 0.36,0.19 0.55,0.29 0.04,0.03 0.1,0.06 0.16,0.09 0.06,0.03 0.11,0.06 0.16,0.09 0.08,0.04 0.17,0.08 0.26,0.13 0.07,0.04 0.15,0.08 0.24,0.14 0.27,0.16 0.5,0.34 0.67,0.53 0.17,0.21 0.3,0.41 0.4,0.62 0.1,0.23 0.16,0.44 0.2,0.66 0.04,0.23 0.06,0.45 0.06,0.68 0,0.27 -0.03,0.52 -0.09,0.76 -0.07,0.27 -0.17,0.5 -0.3,0.69 -0.14,0.21 -0.32,0.41 -0.55,0.59 -0.24,0.18 -0.52,0.35 -0.86,0.48 -0.04,0.01 -0.08,0.03 -0.13,0.04 -0.04,0.02 -0.09,0.03 -0.14,0.05 -0.08,0.02 -0.19,0.04 -0.33,0.06 -0.06,0.01 -0.11,0.02 -0.17,0.02 -0.16,0.01 -0.33,0.02 -0.47,0.02 h -0.02 -0.06 c -0.16,0 -0.22,0 -0.37,-0.01 -0.03,0 -0.08,-0.01 -0.17,-0.02 -0.21,-0.03 -0.42,-0.08 -0.64,-0.15 -0.22,-0.07 -0.45,-0.17 -0.68,-0.31 -0.24,-0.14 -0.45,-0.31 -0.64,-0.5 -0.21,-0.2 -0.39,-0.44 -0.53,-0.71 -0.03,-0.07 -0.06,-0.12 -0.08,-0.16 -0.04,-0.08 -0.07,-0.14 -0.09,-0.17 l 1.63,-0.87 h 0.04 c 0.08,0.17 0.18,0.32 0.3,0.44 0.12,0.12 0.25,0.22 0.38,0.29 0.14,0.07 0.28,0.12 0.43,0.15 0.15,0.03 0.28,0.05 0.4,0.05 0.16,0 0.29,-0.01 0.39,-0.03 0.13,-0.02 0.26,-0.06 0.37,-0.13 0.1,-0.05 0.19,-0.14 0.27,-0.27 0.07,-0.12 0.1,-0.28 0.1,-0.47 0,-0.4 -0.26,-0.74 -0.77,-1.01 -0.01,0 -0.03,-0.01 -0.06,-0.03 -0.03,-0.02 -0.07,-0.03 -0.11,-0.06 -0.08,-0.05 -0.18,-0.11 -0.28,-0.17 -0.05,-0.03 -0.11,-0.06 -0.16,-0.09 -0.06,-0.03 -0.11,-0.06 -0.17,-0.1 -0.15,-0.08 -0.25,-0.14 -0.31,-0.16 -0.03,-0.02 -0.08,-0.04 -0.15,-0.07 -0.05,-0.02 -0.1,-0.05 -0.17,-0.08 -0.04,-0.02 -0.08,-0.04 -0.13,-0.07 -0.04,-0.02 -0.08,-0.05 -0.13,-0.08 -0.04,-0.02 -0.09,-0.05 -0.13,-0.07 -0.05,-0.02 -0.09,-0.05 -0.13,-0.07 -0.27,-0.15 -0.49,-0.32 -0.66,-0.53 -0.18,-0.21 -0.32,-0.42 -0.41,-0.62 -0.09,-0.19 -0.16,-0.41 -0.21,-0.66 -0.04,-0.23 -0.06,-0.45 -0.06,-0.67 0,0 0,-0.03 0.01,-0.07 0,-0.04 0.01,-0.1 0.01,-0.17 0,-0.07 0.01,-0.13 0.01,-0.19 0.01,-0.06 0.01,-0.11 0.02,-0.17 0.01,-0.03 0.02,-0.07 0.03,-0.12 0,-0.04 0.01,-0.08 0.04,-0.14 0.01,-0.02 0.02,-0.05 0.03,-0.08 0.01,-0.03 0.02,-0.07 0.04,-0.1 0.04,-0.08 0.07,-0.15 0.1,-0.2 0.07,-0.16 0.17,-0.3 0.3,-0.44 0.12,-0.13 0.25,-0.25 0.39,-0.36 0.11,-0.09 0.25,-0.19 0.42,-0.29 0.16,-0.08 0.3,-0.15 0.41,-0.19 0.2,-0.07 0.41,-0.12 0.62,-0.15 0.21,-0.03 0.42,-0.05 0.62,-0.05 0.21,0.01 0.48,0.02 0.65,0.05 z m 5.31,2.02 v -2.07 h 6.78 v 2.07 h -3.39 z m 0,4.06 v -2.07 h 2.18 2.18 v 2.07 h -2.18 z m 6.77,4.06 h -6.78 V 52.9 h 3.38 3.39 v 2.08 z M 40.12,44.79 h 1.66 1.9 1.66 1.44 0.46 v 10.19 h -1.9 v -8.17 h -1.66 v 8.17 h -1.9 v -8.17 h -1.66 v 8.17 h -1.9 V 46.81 44.79 Z M 8.19,46.86 H 5.08 v 8.12 H 3.12 V 46.87 H 0 v -2.08 h 8.19 z m 128.54,3.04 c 0,0.72 -0.12,1.38 -0.37,1.99 -0.25,0.62 -0.59,1.15 -1.03,1.61 -0.42,0.46 -0.93,0.82 -1.52,1.09 -0.58,0.27 -1.21,0.4 -1.87,0.4 -0.66,0 -1.29,-0.13 -1.87,-0.4 -0.59,-0.27 -1.1,-0.63 -1.52,-1.1 -0.45,-0.47 -0.8,-1.01 -1.03,-1.61 -0.25,-0.62 -0.37,-1.29 -0.37,-1.99 0,-0.7 0.12,-1.36 0.37,-1.98 0.24,-0.6 0.58,-1.15 1.03,-1.63 0.43,-0.46 0.94,-0.83 1.52,-1.1 0.58,-0.27 1.21,-0.4 1.87,-0.4 0.68,0 1.31,0.13 1.88,0.4 0.58,0.27 1.09,0.64 1.52,1.11 0.42,0.45 0.76,1 1.02,1.63 0.25,0.61 0.37,1.27 0.37,1.98 z m -1.95,0 c 0,-0.24 -0.04,-0.51 -0.11,-0.82 -0.07,-0.28 -0.18,-0.55 -0.34,-0.82 -0.15,-0.25 -0.35,-0.49 -0.6,-0.71 -0.64,-0.57 -1.63,-0.82 -2.45,-0.62 -0.21,0.06 -0.43,0.14 -0.65,0.26 -0.22,0.13 -0.43,0.28 -0.61,0.46 -0.19,0.18 -0.37,0.41 -0.51,0.66 -0.18,0.33 -0.3,0.65 -0.35,0.95 -0.01,0.05 -0.02,0.1 -0.03,0.15 -0.01,0.05 -0.01,0.1 -0.02,0.16 -0.01,0.09 -0.02,0.19 -0.02,0.32 0,0.41 0.08,0.8 0.22,1.16 0.15,0.37 0.35,0.69 0.61,0.96 0.26,0.28 0.56,0.5 0.9,0.65 0.35,0.16 0.71,0.25 1.1,0.25 0.37,0 0.73,-0.08 1.09,-0.24 0.33,-0.15 0.63,-0.36 0.91,-0.64 0.26,-0.27 0.46,-0.59 0.61,-0.95 0.17,-0.37 0.25,-0.76 0.25,-1.18 z" />
<g
   id="g197"
   transform="translate(-10,-10)">
	<g
   id="g183">
		<path
   class="st0"
   d="m 107.09,24.11 -6.53,6.53 -2.12,2.12 -1.85,1.85 1.85,1.85 0.46,0.46 0.67,0.67 c 1.01,1.01 2.68,1.01 3.69,0 l 8.9,-8.9 -0.25,0.25 1.85,-1.85 -1.85,-1.85 -0.46,-0.46 -0.67,-0.67 c -1.01,-1.02 -2.68,-1.02 -3.69,0 z"
   id="path179" />
		<path
   class="st0"
   d="m 114.28,22.87 -8.9,-8.9 -2.12,-2.12 -1.85,-1.85 -1.85,1.85 -0.46,0.46 -0.67,0.67 c -1.02,1.02 -1.02,2.68 0,3.69 l 8.15,8.02 c 4.38,4.38 3.41,6.2 3.41,6.2 l 3.16,-3.2 0.46,-0.46 0.67,-0.67 c 1.02,-1.01 1.02,-2.67 0,-3.69 z"
   id="path181" />
	</g>
	<g
   id="g189">
		<path
   class="st0"
   d="m 93.43,24.11 -6.53,6.53 -2.12,2.12 -1.85,1.85 1.85,1.85 0.46,0.46 0.67,0.67 c 1.01,1.01 2.68,1.01 3.69,0 l 8.9,-8.9 -0.25,0.25 1.85,-1.85 -1.85,-1.85 -0.46,-0.46 -0.67,-0.67 c -1.01,-1.02 -2.67,-1.02 -3.69,0 z"
   id="path185" />
		<path
   class="st0"
   d="m 100.63,22.87 -8.9,-8.9 -2.12,-2.12 -1.85,-1.85 -1.85,1.85 -0.46,0.46 -0.67,0.67 c -1.02,1.02 -1.02,2.68 0,3.69 l 8.15,8.02 c 4.38,4.38 3.41,6.2 3.41,6.2 l 3.16,-3.2 0.46,-0.46 0.67,-0.67 c 1.01,-1.01 1.01,-2.67 0,-3.69 z"
   id="path187" />
	</g>
	<g
   id="g195">
		<path
   class="st0"
   d="m 79.77,24.11 -6.53,6.53 -2.12,2.12 -1.85,1.85 1.85,1.85 0.46,0.46 0.67,0.67 c 1.02,1.01 2.68,1.01 3.69,0 l 8.9,-8.9 -0.25,0.25 1.85,-1.85 -1.85,-1.85 -0.46,-0.46 -0.67,-0.67 c -1.01,-1.02 -2.67,-1.02 -3.69,0 z"
   id="path191" />
		<path
   class="st0"
   d="m 86.97,22.87 -8.9,-8.9 -2.12,-2.12 -1.85,-1.85 -1.85,1.85 -0.46,0.46 -0.67,0.67 c -1.01,1.02 -1.01,2.68 0,3.69 l 8.15,8.02 c 4.38,4.38 3.41,6.2 3.41,6.2 l 3.16,-3.2 0.46,-0.46 0.67,-0.67 c 1.02,-1.01 1.02,-2.67 0,-3.69 z"
   id="path193" />
	</g>
</g>
</svg>
