<svg id="Layer_1" data-name="Layer 1" xmlns="http://www.w3.org/2000/svg" viewBox="0 0 798.01 300"><defs><style>.cls-1{fill:#a435f0;}</style></defs><path class="cls-1" d="M265,210.58l-62-35.79-62,35.79V174.79L203,139l62,35.79Z" transform="translate(-141 -139)"/><path d="M141,240.63h32.47v78.89c0,20.4,15.22,30.33,29.52,30.33s29.51-10.2,29.51-30.6V240.63H265V321.4c0,18.78-5.9,33.28-17.71,43.2s-26.56,14.76-44.54,14.76S170,374.53,158.44,364.6,141,340.72,141,322.21Z" transform="translate(-141 -139)"/><path d="M545.7,338.68a49.12,49.12,0,0,1-33.8,13c-23.28,0-38.91-13.26-40.67-33.82H576.15s.69-6.64.69-12.87c0-19.32-6.17-35.42-18.79-48.57-12.34-13.15-28.44-19.59-48-19.59-20.66,0-37.57,6.44-51,19.59-13.15,13.15-19.86,30.32-19.86,51.79v1.08c0,21.19,6.71,38.1,19.86,50.71s30.59,19,51.79,19h0c24.65,0,44.26-9.71,59-26.49ZM484,272.83a41.63,41.63,0,0,1,26-8.59,34.64,34.64,0,0,1,23.88,8.86c6.41,5.38,9.87,12,10.17,19.59h-72Q473.61,280.91,484,272.83Z" transform="translate(-141 -139)"/><path d="M872.57,397.32c-13.19,31.1-27,41.68-48.1,41.68H809.83V410.22h11.84c7.27,0,14-2.73,20.47-17.6l6.44-14.87L793,240.63h33l39.45,98.75L906,240.63h33Z" transform="translate(-141 -139)"/><path d="M391.39,188.84v64c-10.64-9.53-27.19-15.2-43.2-15.2-19.06,0-35.16,6.71-48.31,20.39-12.88,13.42-19.32,30.06-19.32,50.18S287,345,299.88,358.7q19.72,20.13,48.31,20.13c22,0,35.86-8.63,43.2-15.41v12.45h32.2v-187Zm-9.66,148.93c-7.78,7.78-17.71,11.81-29.25,11.81a38.86,38.86,0,0,1-28.71-11.81c-7.52-7.78-11.27-17.71-11.27-29.52s3.75-21.73,11.27-29.52a38.85,38.85,0,0,1,28.71-11.8c11.54,0,21.47,4,29.25,11.8,8,7.79,12.07,17.72,12.07,29.52S389.78,330,381.73,337.77Z" transform="translate(-141 -139)"/><path d="M743,238c-24.46,0-37.18,10.15-45.89,19.92C693.6,251.23,683.79,238,660.86,238c-19.38,0-30.81,9.79-36.5,16.76V240.63H592.43V375.87h31.93V298.06c0-18.25,11.27-31.4,26.3-31.4,15.29,0,24.15,11.54,24.15,30v79.16h31.93V298.06c0-18.52,11-31.4,26.84-31.4,15.29,0,24.15,11.54,24.15,30v79.16h32.2V292.15C789.93,256.88,771,238,743,238Z" transform="translate(-141 -139)"/></svg>