<svg width="798.01" height="300" xmlns="http://www.w3.org/2000/svg" data-name="Layer 1">

 <g>
  <title>Layer 1</title>
  <path id="svg_1" fill="#a435f0" d="m124,71.58l-62,-35.79l-62,35.79l0,-35.79l62,-35.79l62,35.79l0,35.79z" class="cls-1"/>
  <path id="svg_2" d="m0,101.63l32.47,0l0,78.89c0,20.4 15.22,30.33 29.52,30.33s29.51,-10.2 29.51,-30.6l0,-78.62l32.5,0l0,80.77c0,18.78 -5.9,33.28 -17.71,43.2s-26.56,14.76 -44.54,14.76s-32.75,-4.83 -44.31,-14.76s-17.44,-23.88 -17.44,-42.39l0,-81.58z"/>
  <path id="svg_3" d="m404.7,199.68a49.12,49.12 0 0 1 -33.8,13c-23.28,0 -38.91,-13.26 -40.67,-33.82l104.92,0s0.69,-6.64 0.69,-12.87c0,-19.32 -6.17,-35.42 -18.79,-48.57c-12.34,-13.15 -28.44,-19.59 -48,-19.59c-20.66,0 -37.57,6.44 -51,19.59c-13.15,13.15 -19.86,30.32 -19.86,51.79l0,1.08c0,21.19 6.71,38.1 19.86,50.71s30.59,19 51.79,19l0,0c24.65,0 44.26,-9.71 59,-26.49l-24.14,-13.83zm-61.7,-65.85a41.63,41.63 0 0 1 26,-8.59a34.64,34.64 0 0 1 23.88,8.86c6.41,5.38 9.87,12 10.17,19.59l-72,0q1.56,-11.78 11.95,-19.86z"/>
  <path id="svg_4" d="m731.57,258.32c-13.19,31.1 -27,41.68 -48.1,41.68l-14.64,0l0,-28.78l11.84,0c7.27,0 14,-2.73 20.47,-17.6l6.44,-14.87l-55.58,-137.12l33,0l39.45,98.75l40.55,-98.75l33,0l-66.43,156.69z"/>
  <path id="svg_5" d="m250.39,49.84l0,64c-10.64,-9.53 -27.19,-15.2 -43.2,-15.2c-19.06,0 -35.16,6.71 -48.31,20.39c-12.88,13.42 -19.32,30.06 -19.32,50.18s6.44,36.79 19.32,50.49q19.72,20.13 48.31,20.13c22,0 35.86,-8.63 43.2,-15.41l0,12.45l32.2,0l0,-187l-32.2,-0.03zm-9.66,148.93c-7.78,7.78 -17.71,11.81 -29.25,11.81a38.86,38.86 0 0 1 -28.71,-11.81c-7.52,-7.78 -11.27,-17.71 -11.27,-29.52s3.75,-21.73 11.27,-29.52a38.85,38.85 0 0 1 28.71,-11.8c11.54,0 21.47,4 29.25,11.8c8,7.79 12.07,17.72 12.07,29.52s-4.02,21.75 -12.07,29.52z"/>
  <path id="svg_6" d="m602,99c-24.46,0 -37.18,10.15 -45.89,19.92c-3.51,-6.69 -13.32,-19.92 -36.25,-19.92c-19.38,0 -30.81,9.79 -36.5,16.76l0,-14.13l-31.93,0l0,135.24l31.93,0l0,-77.81c0,-18.25 11.27,-31.4 26.3,-31.4c15.29,0 24.15,11.54 24.15,30l0,79.16l31.93,0l0,-77.76c0,-18.52 11,-31.4 26.84,-31.4c15.29,0 24.15,11.54 24.15,30l0,79.16l32.2,0l0,-83.67c0,-35.27 -18.93,-54.15 -46.93,-54.15z"/>
 </g>
</svg>