<svg width="1444" height="581" viewBox="0 0 1444 581" fill="none" xmlns="http://www.w3.org/2000/svg">
<g clip-path="url(#clip0)">
<path d="M417.644 266.756C473.233 136.3 602.607 44.8351 753.349 44.8351C904.05 44.8351 1033.47 136.3 1089.01 266.798H1089.06C1092.27 275.648 1100.74 281.952 1110.67 281.952C1123.36 281.952 1133.63 271.64 1133.63 258.991C1133.63 255.902 1133.13 253.022 1132.04 250.308C1069.23 103.112 923.289 0 753.308 0C583.327 0 437.426 103.071 374.7 250.141C373.531 252.813 373.072 255.86 373.072 258.95C373.072 271.64 383.339 281.91 396.026 281.91C405.958 281.91 414.18 275.69 417.644 266.756Z" fill="#F38B00"/>
<path d="M210.812 504.332C209.56 508.214 206.638 510.677 201.171 510.677H170.539C165.531 510.677 162.985 509.258 161.733 504.332L132.811 396.168C129.89 385.231 128.638 372.499 126.927 359.766C125.675 372.499 124.005 385.565 121.084 396.168L92.1627 504.332C91.328 508.214 87.9893 510.677 82.5222 510.677H51.4724C46.4643 510.677 43.9186 509.258 42.6666 504.332L0.265135 348.787C-0.986875 343.485 2.35182 340.271 6.98426 340.271H26.6826C32.1079 340.271 35.071 342.066 36.323 347.368L63.1995 458.37C66.0792 471.102 66.9556 484.169 68.2076 496.192C70.2943 484.503 71.9636 470.768 75.344 458.746L105.142 347.034C106.394 342.442 110.192 340.312 115.241 340.312H139.53C144.538 340.312 148.754 342.817 150.006 347.409L180.221 458.787C183.601 470.81 185.271 484.252 186.94 496.233C188.609 484.545 190.32 470.81 192.824 458.787L217.572 347.075C218.407 342.483 222.58 340.354 227.63 340.354H246.076C250.709 340.354 254.048 343.193 252.796 348.495L210.812 504.332Z" fill="#005CB9"/>
<path d="M374.908 512.306C326.288 512.306 294.362 478.867 294.362 424.389C294.362 370.286 326.247 337.39 374.908 337.39C423.611 337.39 454.619 370.286 454.619 424.389C454.578 478.825 423.57 512.306 374.908 512.306ZM374.073 361.102C345.152 361.102 329.21 381.933 329.21 424.389C329.21 467.888 345.152 488.928 374.073 488.928C402.995 488.928 418.937 467.888 418.937 424.389C418.937 381.933 403.037 361.102 374.073 361.102Z" fill="#005CB9"/>
<path d="M611.162 364.316C609.91 369.284 606.154 372.415 598.976 370.662C593.092 369.284 583.493 366.779 575.522 366.779C563.335 366.779 546.976 380.639 546.976 411.364V503.664C546.976 507.547 542.802 510.719 538.17 510.719H522.228C517.637 510.719 513.422 507.547 513.422 503.664V347.368C513.422 343.151 517.637 340.271 522.228 340.271H531.91C536.125 340.271 539.464 342.066 540.716 345.614L546.6 364.692C558.369 348.077 574.27 337.39 593.592 337.39C606.989 337.39 617.506 342.734 615.377 349.789L611.162 364.316Z" fill="#005CB9"/>
<path d="M994.362 509.216H985.556C979.254 509.216 975.915 507.087 974.663 502.119L971.283 487.967C959.138 505.25 944.031 512.013 922.246 512.013C879.052 512.013 856.39 482.498 856.39 425.265C856.39 390.24 862.275 372.916 876.548 356.676C887.44 344.278 905.511 337.557 923.498 337.557C944.073 337.557 959.556 346.031 970.49 362.646V266.505C970.49 262.247 974.705 259.408 979.296 259.408H994.403C999.036 259.408 1003.21 262.247 1003.21 266.505V502.119C1003.17 506.043 998.952 509.216 994.362 509.216ZM930.593 360.893C917.989 360.893 908.349 365.485 902.506 374.669C896.621 383.895 891.989 399.09 891.989 424.889C891.989 470.142 903.758 488.677 930.175 488.677C957.427 488.677 971.241 468.054 971.241 425.599C971.241 383.477 956.134 360.893 930.593 360.893Z" fill="#005CB9"/>
<path d="M803.681 510.802H778.098C773.883 510.802 770.544 508.339 768.04 504.791L703.436 422.76V503.747C703.436 507.629 699.221 510.844 694.589 510.844H679.481C674.89 510.844 670.675 507.629 670.675 503.747V267.549C670.675 263.333 674.849 260.494 679.481 260.494H694.589C699.221 260.494 703.436 263.333 703.436 267.549V419.546L770.001 345.697C772.088 342.858 775.427 340.396 780.894 340.396H803.514C809.398 340.396 811.485 345.363 808.146 348.87L737.407 419.921L808.271 502.286C811.234 505.834 809.565 510.802 803.681 510.802Z" fill="#005CB9"/>
<path d="M1250.11 347.368C1248.35 343.527 1252.78 340.396 1257.66 340.396H1277.4C1282.66 340.396 1286.66 342.859 1288.46 347.368L1327.48 450.355C1329.27 455.239 1331.03 462.544 1331.9 468.138C1333.24 462.92 1335.87 452.776 1338.96 444.051L1370.34 346.992C1371.68 342.442 1375.68 340.354 1380.98 340.354H1400.01C1404.85 340.354 1408.86 343.485 1407.52 347.326L1342.46 534.347C1335.83 553.509 1322.97 568.537 1300.85 576.928L1291.55 580.393C1287.58 581.812 1282.28 580.727 1280.03 577.304L1273.85 567.535C1272.06 564.738 1274.27 559.186 1278.28 557.725L1284.87 555.262C1301.44 549.251 1313.58 531.175 1318.84 508.089L1250.11 347.368Z" fill="#005CB9"/>
<path d="M1137.8 337.516C1089.1 337.516 1060.59 370.495 1060.59 424.64C1060.59 479.201 1089.81 511.847 1135.34 511.847H1135.38C1154.91 511.847 1167.56 505.084 1179.7 487.718L1183 502.329C1184.25 507.296 1187.63 509.425 1193.93 509.425H1202.74C1207.37 509.425 1211.59 506.253 1211.59 502.329L1211.67 424.222V424.18C1211.71 369.994 1186.59 337.516 1137.8 337.516ZM1137.01 488.385C1108 488.385 1095.52 468.18 1095.52 424.64C1095.52 382.142 1108.04 361.269 1137.01 361.269C1165.97 361.269 1179.66 382.142 1179.66 424.64C1179.62 468.18 1165.97 488.385 1137.01 488.385Z" fill="#005CB9"/>
<path d="M1430.02 465.55C1432.82 466.719 1435.32 468.431 1437.49 470.643C1439.58 472.772 1441.2 475.235 1442.29 477.949C1443.42 480.746 1444 483.626 1444 486.716C1444 489.847 1443.42 492.727 1442.25 495.524C1441.12 498.363 1439.45 500.742 1437.28 502.871C1435.07 505 1432.56 506.67 1429.81 507.839C1427.06 508.966 1424.13 509.551 1421.13 509.551C1418.08 509.551 1415.16 508.924 1412.37 507.797C1409.61 506.587 1407.07 504.833 1404.9 502.621C1402.77 500.492 1401.18 498.029 1400.05 495.315C1398.89 492.518 1398.34 489.721 1398.34 486.674C1398.34 484.587 1398.68 482.583 1399.18 480.537C1399.76 478.575 1400.56 476.655 1401.68 474.735C1403.77 471.27 1406.48 468.556 1409.86 466.636C1413.28 464.674 1417.04 463.755 1421.13 463.755C1424.22 463.755 1427.22 464.34 1430.02 465.55ZM1413.91 468.932C1411.61 469.809 1409.65 471.186 1407.86 472.939C1405.94 474.776 1404.6 476.905 1403.56 479.285C1402.56 481.623 1402.06 484.086 1402.06 486.59C1402.06 489.095 1402.52 491.558 1403.43 493.812C1404.39 496.067 1405.77 498.154 1407.52 499.907C1409.36 501.744 1411.45 503.205 1413.74 504.207C1416.08 505.209 1418.5 505.71 1421.05 505.71C1423.51 505.71 1425.89 505.209 1428.22 504.291C1430.56 503.33 1432.69 501.953 1434.57 500.158C1436.32 498.446 1437.7 496.442 1438.7 494.105C1439.66 491.85 1440.16 489.429 1440.16 486.966C1440.16 484.253 1439.7 481.748 1438.78 479.41C1437.91 477.114 1436.49 475.027 1434.74 473.232C1432.86 471.353 1430.81 469.892 1428.52 468.932C1426.22 467.972 1423.72 467.471 1421.09 467.471C1418.54 467.513 1416.12 468.013 1413.91 468.932ZM1421.59 473.524C1425.14 473.524 1427.89 474.15 1429.69 475.361C1431.52 476.613 1432.4 478.366 1432.4 480.871C1432.4 482.583 1431.9 483.96 1430.94 485.129C1429.94 486.34 1428.56 487.175 1426.85 487.592L1432.52 498.947H1425.64L1420.8 488.552H1417.79V498.947H1411.61V473.566H1421.59V473.524ZM1417.83 484.795H1420.84C1422.67 484.795 1423.97 484.461 1424.8 483.919C1425.64 483.334 1426.05 482.499 1426.05 481.205C1426.05 479.953 1425.6 478.993 1424.72 478.366C1423.76 477.74 1422.38 477.406 1420.5 477.406H1417.79V484.795H1417.83Z" fill="#005CB9"/>
</g>
<defs>
<clipPath id="clip0">
<rect width="1444" height="581" fill="white"/>
</clipPath>
</defs>
</svg>
