<svg width="3109.9999999999995" height="614" xmlns="http://www.w3.org/2000/svg" xml:space="preserve" enable-background="new 0 0 3110 614" version="1.1">

 <g>
  <title>Layer 1</title>
  <path id="svg_1" d="m3111,336c0,92.99002 0,185.98004 0,278.97754c-1036.54565,0.00751 -2073.09131,0.00751 -3110,0.00751c0,-97.68634 0,-195.38806 0.20086,-293.1868c1.06409,16.60168 1.27578,33.36575 2.94416,49.98364c2.46674,24.56995 4.52452,49.32803 9.40687,73.46997c5.68606,28.11615 13.62421,55.8324 21.72782,83.38614c6.25218,21.25854 14.88558,41.67419 28.73724,59.44647c9.21758,11.82648 20.84162,20.22363 35.37388,23.64887c16.52204,3.8941 33.38725,3.23034 50.074,0.84124c31.84347,-4.5592 63.0206,-12.1499 93.43481,-22.57495c112.81404,-38.66925 212.35457,-98.8486 296.21053,-184.08468c16.69787,-16.97272 32.61194,-34.75785 44.9162,-55.35925c7.30926,-12.23804 13.30914,-25.06049 13.92065,-39.60197c0.88709,-21.09341 -8.28882,-38.93923 -20.05035,-55.27079c-18.50916,-25.70094 -39.6894,-49.18563 -63.72003,-69.90299c-17.95328,-15.47792 -35.97193,-30.92267 -54.61771,-45.54544c-34.28311,-26.88629 -71.34924,-49.56851 -110.12616,-69.31579c-20.29678,-10.33621 -41.05728,-19.8726 -62.06827,-28.67204c-40.78973,-17.08283 -82.93661,-29.89572 -126.59996,-37.38276c-8.55742,-1.46736 -17.1748,-2.58499 -25.76454,-3.86392c991.88086,0 1983.76172,0 2976,0c0,105.36797 0,210.73636 -0.4082,316.38428c-0.46949,-2.71454 -0.51734,-5.70902 -0.59326,-8.70273c-0.646,-25.4978 -2.50757,-50.84235 -8.93775,-75.66797c-12.03662,-46.47136 -40.26318,-77.75728 -86.88281,-90.66394c-42.99561,-11.90323 -86.51489,-11.94853 -129.90332,-1.76616c-24.09204,5.65387 -45.55542,16.58808 -62.83765,34.74478c-20.64209,21.68642 -30.25586,48.48714 -35.4414,77.27834c-5.22291,28.99573 -5.46705,58.29986 -5.11646,87.61636c0.30273,25.33701 2.16577,50.53067 8.19214,75.26151c12.51465,51.35714 43.69482,84.61306 95.46289,97.10519c39.42041,9.51251 79.18921,9.578 118.74853,0.7309c52.21314,-11.67688 84.75538,-43.83832 97.95557,-95.71204c6.36597,-25.01648 8.25781,-50.5029 8.80103,-76.17233c0.03857,-1.81803 0.62744,-3.62442 0.96069,-5.43619m-636.86792,-186.35716c-9.25098,6.1222 -19.30566,11.32223 -27.59473,18.54782c-20.86596,18.1887 -31.10815,42.63476 -37.57568,68.8934c-6.68652,27.14662 -8.60449,54.84606 -8.85254,82.66823c-0.29517,33.16022 1.06763,66.19638 8.88843,98.66226c12.38647,51.41858 44.0332,83.15915 95.84473,94.67017c35.01635,7.77972 70.34082,7.39392 105.78417,4.47241c23.29835,-1.92047 45.95801,-7.29257 68.47998,-13.20371c6.37159,-1.6723 12.68116,-4.03604 18.58204,-6.9638c18.46753,-9.16318 23.13183,-25.8125 23.13525,-44.6481c0.02588,-142.4534 0.0188,-284.90682 -0.01904,-427.36021c-0.00074,-2.64084 -0.23853,-5.34216 -0.82373,-7.91086c-1.64722,-7.22943 -7.50977,-10.88595 -14.63672,-9.12371c-12.89624,3.18876 -25.78198,6.42709 -38.62329,9.82804c-7.89746,2.09157 -10.88306,6.24384 -10.88526,14.45156c-0.00952,35.15517 -0.00439,70.31034 -0.00463,105.4655c0,1.81516 0,3.63033 0,5.40409c-0.63209,0.09152 -0.98267,0.2424 -1.28028,0.17117c-33.21533,-7.95288 -66.91479,-10.81853 -101.00976,-9.85988c-27.13062,0.76285 -53.68799,4.26715 -79.40894,15.83562m-1189.37732,126.57545c-17.86365,1.91882 -35.77856,3.4574 -53.578,5.85309c-22.09058,2.97321 -44.02149,6.87753 -64.99939,14.90128c-28.89588,11.05224 -48.85852,30.56537 -56.93396,60.85641c-6.75147,25.32495 -7.33435,51.06268 -1.88465,76.67453c7.25281,34.08634 27.51563,57.60779 59.68372,70.93723c17.69666,7.33285 36.25793,10.96725 55.22717,12.4982c31.94898,2.57836 63.8805,2.26629 95.69361,-1.96747c21.43652,-2.85273 42.82385,-6.0083 63.1344,-14.02362c17.51513,-6.91211 29.27343,-18.84201 32.51208,-37.83133c1.28113,-7.51221 2.11755,-15.20133 2.13489,-22.81223c0.15918,-69.66095 0.09912,-139.32239 0.0791,-208.9837c-0.00122,-4.15759 -0.11816,-8.31979 -0.33447,-12.47186c-0.77674,-14.91166 -3.05994,-29.46808 -10.76538,-42.62162c-10.99182,-18.7637 -28.8086,-27.99147 -48.59803,-34.13157c-25.71862,-7.97974 -52.33337,-9.40009 -78.99987,-9.5325c-32.02771,-0.15908 -63.87964,2.62788 -95.29456,8.83175c-16.9126,3.33992 -33.59143,7.9982 -50.20166,12.67917c-8.76111,2.46896 -11.83874,8.97682 -10.02783,17.84853c1.79529,8.79437 3.46509,17.61435 5.25403,26.41008c2.03698,10.01661 7.7417,13.61657 17.76965,11.23127c9.86072,-2.34556 19.6969,-4.79623 29.5636,-7.1165c37.74158,-8.87536 75.85352,-14.24316 114.75854,-11.93437c14.81604,0.87923 29.49781,2.40451 43.29077,8.5529c9.7616,4.35134 16.23218,11.52237 16.75062,22.29644c0.82324,17.11235 0.74609,34.26812 1.0238,51.40594c0.00439,0.26645 -0.32373,0.53827 -0.2478,0.42011c-21.53565,0.665 -42.79981,1.32165 -65.01038,2.02984m532.93323,-142.72581c-32.35986,0.41598 -64.5127,3.25432 -96.21948,9.73218c-15.4292,3.15226 -30.63685,7.5066 -45.78272,11.87876c-8.00696,2.31145 -11.68274,8.57541 -10.35119,15.96024c1.80029,9.98538 3.78308,19.94133 5.89257,29.86632c1.59583,7.50773 7.62061,11.48305 15.23255,10.06479c5.22278,-0.97304 10.38794,-2.28743 15.53991,-3.60196c40.93824,-10.4455 82.27698,-17.88349 124.77234,-16.18608c16.46692,0.65776 32.88465,1.78556 48.401,8.32257c10.37928,4.37286 17.41565,11.56474 17.93946,23.02128c0.78271,17.11313 0.64123,34.26863 0.8623,51.40645c0.0033,0.24811 -0.38989,0.50134 -0.41968,0.5372c-4.33276,0 -8.48364,-0.0441 -12.63342,0.00696c-33.30762,0.40982 -66.55664,1.87787 -99.56946,6.57709c-22.20996,3.16147 -44.37439,6.6358 -65.74072,13.90579c-32.51746,11.06433 -54.85486,31.82208 -63.09351,66.01038c-4.40673,18.28707 -5.1615,36.83163 -3.70459,55.55069c3.68921,47.39541 29.47022,79.60476 74.76429,93.42428c25.13025,7.66748 50.98999,9.14368 76.99438,9.52448c25.69251,0.37628 51.23413,-1.53675 76.59448,-5.62934c17.07349,-2.75531 34.03711,-5.97784 50.10425,-12.79574c16.30994,-6.92096 27.1532,-18.51459 30.29712,-36.15818c1.53906,-8.63757 2.30591,-17.5249 2.33057,-26.30224c0.18628,-66.48935 0.14111,-132.97955 0.057,-199.4693c-0.01171,-9.31137 -0.22192,-18.65824 -1.04748,-27.92567c-1.94031,-21.78194 -9.42114,-41.19278 -28.42395,-53.58095c-9.4635,-6.16942 -20.16443,-10.97548 -30.92554,-14.51317c-26.2279,-8.62235 -53.61902,-9.24515 -81.87048,-9.62683m512.61841,58.76771c-7.1167,-21.64432 -21.33326,-36.93387 -41.99634,-46.14239c-24.91553,-11.10359 -51.53174,-13.48784 -78.19946,-12.30605c-26.042,1.15407 -52.06324,4.04668 -77.93555,7.3978c-25.22803,3.2677 -50.14087,8.63092 -74.01538,17.78885c-23.15979,8.88379 -31.66089,21.54255 -31.66114,46.32184c-0.00073,95.65702 -0.00122,191.31404 0.00098,286.97108c0.00025,12.54929 5.68836,18.40158 18.19043,18.52683c9.6648,0.09683 19.33154,0.08349 28.99658,0.00177c12.11866,-0.10245 17.48023,-5.641 17.48047,-17.87815c0.00073,-93.65722 0.00025,-187.31445 0.00025,-280.97168c0,-1.82551 0.00024,-3.65103 0.00024,-5.60855c1.36939,-0.47033 2.57886,-0.976 3.83472,-1.30382c26.59594,-6.94275 53.54516,-12.09567 80.89233,-14.7928c19.69702,-1.94259 39.45337,-3.18834 59.23853,-0.32913c20.96826,3.03018 31.51977,12.68262 34.98339,33.54556c1.30127,7.83808 1.79371,15.89263 1.80616,23.84978c0.12573,81.65825 0.20312,163.31719 -0.08008,244.97466c-0.03565,10.31332 5.49145,18.72644 18.31323,18.55551c9.49732,-0.12665 18.99854,0.05468 28.49658,-0.04477c12.41748,-0.13001 18.1836,-6.08597 18.18384,-18.5817c0.00122,-85.32473 0.0083,-170.64947 -0.00659,-255.97421c-0.00244,-14.71712 -1.67456,-29.21007 -6.52319,-44.00043m-1371.80976,4.9081c5.3938,0 10.78766,0 16.9748,0c-1.18018,1.52846 -1.72852,2.31058 -2.34839,3.03116c-58.20587,67.66234 -116.41895,135.31846 -174.62647,202.97935c-11.83685,13.75922 -23.66858,27.52295 -35.47174,41.31104c-3.8316,4.47589 -7.20569,9.18966 -7.19354,15.48343c0.02295,11.83304 -0.11438,23.6679 0.05658,35.49853c0.11664,8.07117 5.32336,13.72476 13.33124,14.92972c1.96698,0.29596 3.97809,0.41766 5.96893,0.41812c86.83185,0.01987 173.6637,0.01929 260.49554,0.00168c1.82569,-0.00037 3.6731,-0.09107 5.47351,-0.37384c8.46778,-1.32977 13.54517,-7.15164 13.65992,-15.76324c0.09546,-7.16526 0.03076,-14.33286 0.01733,-21.49937c-0.02087,-11.21493 -6.03137,-17.18386 -17.30273,-17.18429c-65.9989,-0.00244 -131.99775,-0.00134 -197.99665,-0.00143c-1.74774,0 -3.49548,-0.00003 -6.11676,-0.00003c14.53375,-16.88746 28.40009,-32.99707 42.26392,-49.10892c57.01776,-66.26306 114.01758,-132.54154 171.08459,-198.76209c4.57996,-5.31457 6.90369,-11.17888 6.78199,-18.20584c-0.16468,-9.49696 -0.03308,-18.99898 -0.04285,-28.49879c-0.01392,-13.59888 -5.41724,-18.93228 -19.16309,-18.9323c-87.99847,-0.00004 -175.99701,-0.00011 -263.99548,0.00421c-1.66547,0.00008 -3.34601,-0.07918 -4.99365,0.10715c-5.34516,0.60441 -10.40888,3.09546 -11.68964,8.10031c-3.23437,12.63934 -3.62182,25.77443 0.15314,38.27213c2.08368,6.89869 9.18445,8.25045 16.18378,8.24124c62.49884,-0.0824 124.9978,-0.04798 188.49572,-0.04793m534.00312,-141.66856c0,127.99757 -0.02307,255.99517 0.06372,383.9927c0.00464,6.96253 0.41186,14.00784 1.51879,20.87152c3.89405,24.1398 15.68885,42.54172 39.37476,51.61173c14.94812,5.72403 30.55432,6.75455 46.19177,4.34494c7.58435,-1.16877 15.06495,-3.79877 22.219,-6.69095c4.61511,-1.86572 6.83984,-6.40677 5.84131,-11.59912c-1.75904,-9.14609 -3.62745,-18.28104 -5.83362,-27.32712c-1.15857,-4.75067 -4.2793,-7.74112 -9.65955,-7.7395c-4.32202,0.00128 -8.65698,-0.1377 -12.96386,-0.48828c-16.42371,-1.33686 -21.693,-7.06214 -21.75147,-23.41846c-0.00354,-0.99997 -0.00037,-1.99997 -0.00037,-2.99994c0,-136.49731 0.00013,-272.9946 -0.00305,-409.4919c0,-1.83247 0.08362,-3.67667 -0.08581,-5.49545c-0.922,-9.89728 -7.72888,-14.73786 -17.3479,-12.33174c-12.09034,3.02422 -24.15296,6.1594 -36.25403,9.13957c-7.70349,1.89713 -11.20874,6.08175 -11.29163,14.1226c-0.07739,7.49906 -0.01758,14.99954 -0.01806,23.4994z" fill="#FFFFFF"/>
  <path id="svg_2" d="m134.53143,1c9.05831,1.27893 17.67569,2.39656 26.23311,3.86392c43.66335,7.48704 85.81023,20.29993 126.59996,37.38276c21.01099,8.79944 41.77149,18.33583 62.06827,28.67204c38.77692,19.74728 75.84305,42.4295 110.12616,69.31579c18.64578,14.62277 36.66443,30.06752 54.61771,45.54544c24.03063,20.71736 45.21087,44.20205 63.72003,69.90299c11.76153,16.33156 20.93744,34.17738 20.05035,55.27079c-0.61151,14.54148 -6.61139,27.36393 -13.92065,39.60197c-12.30426,20.6014 -28.21833,38.38653 -44.9162,55.35925c-83.85596,85.23608 -183.39649,145.41543 -296.21053,184.08468c-30.41421,10.42505 -61.59134,18.01575 -93.43481,22.57495c-16.68675,2.3891 -33.55196,3.05286 -50.074,-0.84124c-14.53226,-3.42524 -26.1563,-11.82239 -35.37388,-23.64887c-13.85166,-17.77228 -22.48506,-38.18793 -28.73724,-59.44647c-8.10361,-27.55374 -16.04176,-55.26999 -21.72783,-83.38614c-4.88234,-24.14194 -6.94012,-48.90002 -9.40686,-73.46997c-1.66838,-16.61789 -1.88007,-33.38196 -2.94416,-50.43127c-0.20086,-14.03818 -0.20086,-27.72574 0.16803,-42.10733c0.81844,-8.60196 1.06632,-16.52768 1.76059,-24.41408c1.33988,-15.22029 2.48967,-30.47817 4.53451,-45.61014c2.39404,-17.71617 5.37252,-35.36751 8.61624,-52.95126c4.28851,-23.24746 10.76615,-45.95437 18.39678,-68.31489c8.02296,-23.51017 16.41627,-46.77409 33.64504,-65.70252c7.59493,-8.34418 16.39227,-14.10919 27.06759,-17.1287c5.7951,-1.63915 11.7355,-2.76456 17.61036,-4.1217c7.02095,0 14.0419,0 21.53143,0z" fill="#FF671B"/>
  <path id="svg_3" d="m3111,335.53204c-0.33325,2.27973 -0.92212,4.08612 -0.96069,5.90415c-0.54322,25.66943 -2.43506,51.15585 -8.80103,76.17233c-13.20019,51.87372 -45.74243,84.03516 -97.95557,95.71204c-39.55932,8.8471 -79.32812,8.78161 -118.74853,-0.7309c-51.76807,-12.49213 -82.94824,-45.74805 -95.46289,-97.10519c-6.02637,-24.73084 -7.88941,-49.9245 -8.19214,-75.26151c-0.35059,-29.3165 -0.10645,-58.62063 5.11646,-87.61636c5.18554,-28.7912 14.79931,-55.59192 35.4414,-77.27834c17.28223,-18.1567 38.74561,-29.09091 62.83765,-34.74478c43.38843,-10.18237 86.90771,-10.13707 129.90332,1.76616c46.61963,12.90666 74.84619,44.19258 86.88281,90.66394c6.43018,24.82562 8.29175,50.17017 8.93775,75.66797c0.07592,2.99371 0.12377,5.98819 0.59326,9.15036c0.4082,5.85614 0.4082,11.54416 0.4082,17.70013m-254.63818,-96.53904c-2.1316,12.92953 -5.48291,25.79795 -6.13452,38.80165c-1.26465,25.23581 -1.73487,50.56469 -1.13794,75.82205c0.40673,17.21722 2.13696,34.56402 5.14282,51.52185c4.69263,26.47287 19.05322,45.99963 45.9458,53.66168c29.24683,8.33277 58.86523,8.23398 88.24805,0.70398c21.74585,-5.57281 36.84716,-19.12173 44.5083,-40.51962c4.97827,-13.90494 7.41088,-28.36737 7.93139,-42.99802c0.86304,-24.26272 1.67554,-48.57461 1.04517,-72.82773c-0.47827,-18.38629 -2.10571,-36.90872 -5.23926,-55.02165c-4.8855,-28.24277 -20.94043,-47.82785 -49.59692,-54.99888c-26.56714,-6.64824 -53.42237,-6.66976 -80.11792,-0.79435c-25.40503,5.59127 -42.73047,20.51984 -50.59497,46.64904z" fill="#010101"/>
  <path id="svg_4" d="m112.53134,1c-5.4062,1.35714 -11.3466,2.48255 -17.1417,4.1217c-10.67532,3.01951 -19.47266,8.78452 -27.06759,17.1287c-17.22877,18.92843 -25.62208,42.19235 -33.64504,65.70252c-7.63063,22.36052 -14.10827,45.06743 -18.39678,68.31489c-3.24372,17.58375 -6.2222,35.23509 -8.61624,52.95126c-2.04484,15.13197 -3.19463,30.38985 -4.53451,45.61014c-0.69427,7.8864 -0.94215,15.81212 -1.76059,23.94542c-0.36889,-92.33727 -0.36889,-184.89991 -0.36889,-277.77463c37.02031,0 74.0415,0 111.53134,0z" fill="#FFFFFF"/>
  <path id="svg_5" d="m2474.45703,149.44745c25.396,-11.37308 51.95337,-14.87738 79.08399,-15.64023c34.09497,-0.95865 67.79443,1.907 101.00976,9.85988c0.29761,0.07123 0.64819,-0.07965 1.28028,-0.17117c0,-1.77376 0,-3.58893 0,-5.40409c0.00024,-35.15516 -0.00489,-70.31033 0.00463,-105.4655c0.0022,-8.20772 2.9878,-12.35999 10.88526,-14.45156c12.84131,-3.40095 25.72705,-6.63928 38.62329,-9.82804c7.12695,-1.76224 12.9895,1.89428 14.63672,9.12371c0.5852,2.5687 0.82299,5.27002 0.82373,7.91086c0.03784,142.45339 0.04492,284.90681 0.01904,427.36021c-0.00342,18.8356 -4.66772,35.48492 -23.13525,44.6481c-5.90088,2.92776 -12.21045,5.2915 -18.58204,6.9638c-22.52197,5.91114 -45.18163,11.28324 -68.47998,13.20371c-35.44335,2.92151 -70.76782,3.30731 -105.78417,-4.47241c-51.81153,-11.51102 -83.45826,-43.25159 -95.84473,-94.67017c-7.8208,-32.46588 -9.1836,-65.50204 -8.88843,-98.66226c0.24805,-27.82217 2.16602,-55.52161 8.85254,-82.66823c6.46753,-26.25864 16.70972,-50.7047 37.57568,-68.8934c8.28907,-7.22559 18.34375,-12.42562 27.91968,-18.74321m7.59351,275.90732c2.4143,4.16067 4.53735,8.526 7.29297,12.4469c12.52929,17.82797 31.04296,24.13568 51.60009,26.17746c22.94043,2.27847 45.89991,2.01693 68.7107,-1.18302c15.43115,-2.16476 30.71386,-5.38785 46.17798,-8.15817c0,-2.69888 -0.00025,-4.34995 -0.00025,-6.00101c-0.00024,-81.64447 0.00464,-163.28894 -0.02222,-244.93342c-0.00073,-2.45113 0.94532,-4.98177 -3.21826,-5.93039c-38.07934,-8.67566 -76.4209,-13.00707 -115.41406,-7.80681c-29.2207,3.89697 -49.6875,19.13237 -58.78686,47.52289c-3.88257,12.11323 -6.54249,24.78238 -8.22901,37.4032c-4.2251,31.62075 -4.14184,63.40689 -1.04468,95.1427c1.82715,18.725 4.802,37.25436 12.9336,55.31967z" fill="#010101"/>
  <path id="svg_6" d="m1285.22803,276.1925c21.7373,-0.6824 43.00146,-1.33905 64.53711,-2.00405c-0.07593,0.11816 0.25219,-0.15366 0.2478,-0.42011c-0.27771,-17.13782 -0.20056,-34.29359 -1.0238,-51.40594c-0.51844,-10.77407 -6.98902,-17.9451 -16.75062,-22.29644c-13.79296,-6.14839 -28.47473,-7.67367 -43.29077,-8.5529c-38.90502,-2.30879 -77.01696,3.05901 -114.75854,11.93437c-9.8667,2.32027 -19.70288,4.77094 -29.5636,7.1165c-10.02795,2.3853 -15.73267,-1.21466 -17.76965,-11.23127c-1.78894,-8.79573 -3.45874,-17.61571 -5.25403,-26.41008c-1.81091,-8.87171 1.26672,-15.37957 10.02783,-17.84853c16.61023,-4.68097 33.28906,-9.33925 50.20166,-12.67917c31.41492,-6.20387 63.26685,-8.99083 95.29456,-8.83175c26.6665,0.13241 53.28125,1.55276 78.99987,9.5325c19.78943,6.1401 37.60621,15.36787 48.59803,34.13157c7.70544,13.15354 9.98864,27.70996 10.76538,42.62162c0.21631,4.15207 0.33325,8.31427 0.33447,12.47186c0.02002,69.66131 0.08008,139.32275 -0.0791,208.9837c-0.01734,7.6109 -0.85376,15.30002 -2.13489,22.81223c-3.23865,18.98932 -14.99695,30.91922 -32.51208,37.83133c-20.31055,8.01532 -41.69788,11.17089 -63.1344,14.02362c-31.81311,4.23376 -63.74463,4.54583 -95.69361,1.96747c-18.96924,-1.53095 -37.53051,-5.16535 -55.22717,-12.4982c-32.16809,-13.32944 -52.43091,-36.85089 -59.68372,-70.93723c-5.4497,-25.61185 -4.86682,-51.34958 1.88465,-76.67453c8.07544,-30.29104 28.03808,-49.80417 56.93396,-60.85641c20.9779,-8.02375 42.90881,-11.92807 64.99939,-14.90128c17.79944,-2.39569 35.71435,-3.93427 54.05127,-5.87888m-27.67481,189.80631c29.80213,0.67593 59.10132,-2.52298 87.80677,-10.88675c4.18945,-1.22067 5.27355,-3.06366 5.22851,-7.21097c-0.2168,-19.99322 -0.09765,-39.99008 -0.09765,-59.98565c0,-19.48008 0,-38.96018 0,-58.91413c-1.85059,0 -3.4834,-0.05703 -5.11133,0.00855c-25.93445,1.04464 -51.88501,1.80795 -77.79725,3.25409c-21.47216,1.19836 -42.6156,4.71362 -63.06616,11.70074c-16.32434,5.57739 -27.62487,16.21628 -30.9657,33.3851c-1.85656,9.5412 -2.73986,19.5524 -2.15331,29.23618c1.82275,30.09054 16.26733,47.57861 45.66516,54.48691c12.84668,3.01889 26.32128,3.3656 40.49096,4.92593z" fill="#010101"/>
  <path id="svg_7" d="m1818.15112,133.49249c27.78833,0.38167 55.17945,1.00447 81.40735,9.62682c10.76111,3.53769 21.46204,8.34375 30.92554,14.51317c19.00281,12.38817 26.48364,31.79901 28.42395,53.58095c0.82556,9.26743 1.03577,18.6143 1.04748,27.92567c0.08411,66.48975 0.12928,132.97995 -0.057,199.4693c-0.02466,8.77734 -0.79151,17.66467 -2.33057,26.30224c-3.14392,17.64359 -13.98718,29.23722 -30.29712,36.15818c-16.06714,6.8179 -33.03076,10.04043 -50.10425,12.79574c-25.36035,4.09259 -50.90197,6.00562 -76.59448,5.62934c-26.00439,-0.3808 -51.86413,-1.857 -76.99438,-9.52448c-45.29407,-13.81952 -71.07508,-46.02887 -74.76429,-93.42428c-1.45691,-18.71906 -0.70214,-37.26362 3.70459,-55.55069c8.23865,-34.1883 30.57605,-54.94605 63.09351,-66.01038c21.36633,-7.26999 43.53076,-10.74432 65.74072,-13.90579c33.01282,-4.69922 66.26184,-6.16727 99.56946,-6.57709c4.14978,-0.05106 8.30066,-0.00696 12.63342,-0.00696c0.02979,-0.03586 0.42298,-0.28909 0.41968,-0.5372c-0.22107,-17.13782 -0.07959,-34.29332 -0.8623,-51.40645c-0.52381,-11.45654 -7.56018,-18.64842 -17.93946,-23.02128c-15.51635,-6.53701 -31.93408,-7.66481 -48.401,-8.32257c-42.49536,-1.69741 -83.8341,5.74058 -124.77234,16.18608c-5.15197,1.31453 -10.31713,2.62892 -15.53991,3.60196c-7.61194,1.41826 -13.63672,-2.55706 -15.23255,-10.06479c-2.10949,-9.92499 -4.09228,-19.88094 -5.89257,-29.86632c-1.33155,-7.38483 2.34423,-13.64879 10.35119,-15.96024c15.14587,-4.37216 30.35352,-8.7265 45.78272,-11.87876c31.70678,-6.47786 63.85962,-9.3162 96.68261,-9.73217m-75.68652,320.57856c8.59277,2.96624 16.97363,7.25875 25.8147,8.67193c41.01245,6.55567 81.57019,3.70627 121.53491,-7.74716c3.82263,-1.09552 5.16333,-2.54587 5.1405,-6.74237c-0.20752,-37.99625 -0.12146,-75.99408 -0.12146,-113.99146c0,-1.61789 0,-3.23581 0,-5.26236c-2.24536,0 -4.0459,-0.07235 -5.83935,0.01081c-29.42176,1.36404 -58.8667,2.37182 -88.25476,4.26321c-18.63221,1.19916 -36.88745,5.12134 -54.47046,11.63339c-16.56421,6.13489 -26.45667,18.07077 -29.25342,35.43827c-1.23657,7.67804 -1.99744,15.57708 -1.70789,23.32849c0.77698,20.79907 7.37928,38.83938 27.15723,50.39725z" fill="#010101"/>
  <path id="svg_8" d="m2330.48901,192.61221c4.66602,14.43834 6.33814,28.93129 6.34058,43.64841c0.01489,85.32474 0.00781,170.64948 0.00659,255.97421c-0.00024,12.49573 -5.76636,18.45169 -18.18384,18.5817c-9.49804,0.09945 -18.99926,-0.08188 -28.49658,0.04477c-12.82178,0.17093 -18.34888,-8.24219 -18.31323,-18.55551c0.2832,-81.65747 0.20581,-163.31641 0.08008,-244.97466c-0.01245,-7.95715 -0.50489,-16.0117 -1.80616,-23.84978c-3.46362,-20.86294 -14.01513,-30.51538 -34.98339,-33.54556c-19.78516,-2.85921 -39.54151,-1.61346 -59.23853,0.32913c-27.34717,2.69713 -54.29639,7.85005 -80.89233,14.7928c-1.25586,0.32782 -2.46533,0.83349 -3.83472,1.30382c0,1.95752 -0.00024,3.78304 -0.00024,5.60855c0,93.65723 0.00048,187.31446 -0.00025,280.97168c-0.00024,12.23715 -5.36181,17.7757 -17.48047,17.87815c-9.66504,0.08172 -19.33178,0.09506 -28.99658,-0.00177c-12.50207,-0.12525 -18.19018,-5.97754 -18.19043,-18.52683c-0.0022,-95.65704 -0.00171,-191.31406 -0.00098,-286.97108c0.00025,-24.77929 8.50135,-37.43805 31.66114,-46.32184c23.87451,-9.15793 48.78735,-14.52115 74.01538,-17.78885c25.87231,-3.35112 51.89355,-6.24373 77.93555,-7.3978c26.66772,-1.18179 53.28393,1.20246 78.19946,12.30605c20.66308,9.20852 34.87964,24.49807 42.17895,46.49441z" fill="#010101"/>
  <path id="svg_9" d="m957.99719,197.16829c-62.99847,-0.00005 -125.49743,-0.03447 -187.99627,0.04793c-6.99933,0.00921 -14.1001,-1.34255 -16.18378,-8.24124c-3.77496,-12.4977 -3.38751,-25.63279 -0.15314,-38.27213c1.28076,-5.00485 6.34448,-7.4959 11.68964,-8.10031c1.64764,-0.18633 3.32818,-0.10707 4.99365,-0.10715c87.99847,-0.00432 175.99701,-0.00425 263.99548,-0.00421c13.74585,0.00002 19.14917,5.33342 19.16309,18.9323c0.00977,9.49981 -0.12183,19.00183 0.04285,28.49879c0.1217,7.02696 -2.20203,12.89127 -6.78199,18.20584c-57.06701,66.22055 -114.06683,132.49903 -171.08459,198.76209c-13.86383,16.11185 -27.73017,32.22146 -42.26392,49.10892c2.62128,0 4.36902,0.00003 6.11676,0.00003c65.9989,0.00009 131.99775,-0.00101 197.99665,0.00143c11.27136,0.00043 17.28186,5.96936 17.30273,17.18429c0.01343,7.16651 0.07813,14.33411 -0.01733,21.49937c-0.11475,8.6116 -5.19214,14.43347 -13.65992,15.76324c-1.80041,0.28277 -3.64782,0.37347 -5.47351,0.37384c-86.83184,0.01761 -173.66369,0.01819 -260.49554,-0.00168c-1.99084,-0.00046 -4.00195,-0.12216 -5.96893,-0.41812c-8.00788,-1.20496 -13.2146,-6.85855 -13.33124,-14.92972c-0.17096,-11.83063 -0.03363,-23.66549 -0.05658,-35.49853c-0.01215,-6.29377 3.36194,-11.00754 7.19354,-15.48343c11.80316,-13.78809 23.63489,-27.55182 35.47174,-41.31104c58.20752,-67.66089 116.4206,-135.31701 174.62647,-202.97935c0.61987,-0.72058 1.16821,-1.5027 2.34839,-3.03116c-6.18714,0 -11.581,0 -17.47425,0z" fill="#010101"/>
  <path id="svg_10" d="m1492.49976,54.99972c0.00048,-7.99985 -0.05933,-15.50033 0.01806,-22.99939c0.08289,-8.04085 3.58814,-12.22547 11.29163,-14.1226c12.10107,-2.98017 24.16369,-6.11535 36.25403,-9.13957c9.61902,-2.40612 16.4259,2.43446 17.3479,12.33174c0.16943,1.81878 0.08581,3.66298 0.08581,5.49545c0.00318,136.4973 0.00305,272.99459 0.00305,409.4919c0,0.99997 -0.00317,1.99997 0.00037,2.99994c0.05847,16.35632 5.32776,22.0816 21.75147,23.41846c4.30688,0.35058 8.64184,0.48956 12.96386,0.48828c5.38025,-0.00162 8.50098,2.98883 9.65955,7.7395c2.20617,9.04608 4.07458,18.18103 5.83362,27.32712c0.99853,5.19235 -1.2262,9.7334 -5.84131,11.59912c-7.15405,2.89218 -14.63465,5.52218 -22.219,6.69095c-15.63745,2.40961 -31.24365,1.37909 -46.19177,-4.34494c-23.68591,-9.07001 -35.48071,-27.47193 -39.37476,-51.61173c-1.10693,-6.86368 -1.51415,-13.90899 -1.51879,-20.87152c-0.08679,-127.99753 -0.06372,-255.99513 -0.06372,-384.4927l0,-0.00001z" fill="#000000"/>
  <path id="svg_11" d="m2856.53174,238.63068c7.69458,-25.76688 25.02002,-40.69545 50.42505,-46.28672c26.69555,-5.87541 53.55078,-5.85389 80.11792,0.79435c28.65649,7.17103 44.71142,26.75611 49.59692,54.99888c3.13355,18.11293 4.76099,36.63536 5.23926,55.02165c0.63037,24.25312 -0.18213,48.56501 -1.04517,72.82773c-0.52051,14.63065 -2.95312,29.09308 -7.93139,42.99802c-7.66114,21.39789 -22.76245,34.94681 -44.5083,40.51962c-29.38282,7.53 -59.00122,7.62879 -88.24805,-0.70398c-26.89258,-7.66205 -41.25317,-27.18881 -45.9458,-53.66168c-3.00586,-16.95783 -4.73609,-34.30463 -5.14282,-51.52185c-0.59693,-25.25736 -0.12671,-50.58624 1.13794,-75.82205c0.65161,-13.0037 4.00292,-25.87212 6.30444,-39.16397z" fill="#FFFFFF"/>
  <path id="svg_12" d="m2481.95019,424.98984c-8.03125,-17.70038 -11.0061,-36.22974 -12.83325,-54.95474c-3.09716,-31.73581 -3.18042,-63.52195 1.04468,-95.1427c1.68652,-12.62082 4.34644,-25.28997 8.22901,-37.4032c9.09936,-28.39052 29.56616,-43.62592 58.78686,-47.52289c38.99316,-5.20026 77.33472,-0.86885 115.41406,7.80681c4.16358,0.94862 3.21753,3.47926 3.21826,5.93039c0.02686,81.64448 0.02198,163.28895 0.02222,244.93342c0,1.65106 0.00025,3.30213 0.00025,6.00101c-15.46412,2.77032 -30.74683,5.99341 -46.17798,8.15817c-22.81079,3.19995 -45.77027,3.46149 -68.7107,1.18302c-20.55713,-2.04178 -39.0708,-8.34949 -51.60009,-26.17746c-2.75562,-3.9209 -4.87867,-8.28623 -7.39332,-12.81183z" fill="#FEFEFE"/>
  <path id="svg_13" d="m1257.06311,465.99872c-13.67957,-1.56024 -27.15417,-1.90695 -40.00085,-4.92584c-29.39783,-6.9083 -43.84241,-24.39637 -45.66516,-54.48691c-0.58655,-9.68378 0.29675,-19.69498 2.15331,-29.23618c3.34083,-17.16882 14.64136,-27.80771 30.9657,-33.3851c20.45056,-6.98712 41.594,-10.50238 63.06616,-11.70074c25.91224,-1.44614 51.8628,-2.20945 77.79725,-3.25409c1.62793,-0.06558 3.26074,-0.00855 5.11133,-0.00855c0,19.95395 0,39.43405 0,58.91413c0,19.99557 -0.11915,39.99243 0.09765,59.98565c0.04504,4.14731 -1.03906,5.9903 -5.22851,7.21097c-28.70545,8.36377 -58.00464,11.56268 -88.29688,10.88666z" fill="#FFFFFF"/>
  <path id="svg_14" d="m1742.12903,453.92194c-19.44238,-11.40876 -26.04468,-29.44907 -26.82166,-50.24814c-0.28955,-7.75141 0.47132,-15.65045 1.70789,-23.32849c2.79675,-17.3675 12.68921,-29.30338 29.25342,-35.43827c17.58301,-6.51205 35.83825,-10.43423 54.47046,-11.63339c29.38806,-1.89139 58.833,-2.89917 88.25476,-4.26321c1.79345,-0.08316 3.59399,-0.01081 5.83935,-0.01081c0,2.02655 0,3.64447 0,5.26236c0,37.99738 -0.08606,75.99521 0.12146,113.99146c0.02283,4.1965 -1.31787,5.64685 -5.1405,6.74237c-39.96472,11.45343 -80.52246,14.30283 -121.53491,7.74716c-8.84107,-1.41318 -17.22193,-5.70569 -26.15027,-8.82104z" fill="#FEFEFE"/>
 </g>
</svg>