<svg xmlns="http://www.w3.org/2000/svg" viewBox="0 0 120 120" width="512" height="512">
  <rect width="120" height="120" fill="#FB471F"></rect>
  <g>
        <rect x="38" y="86" width="68" height="18" fill="#ffffff"></rect>
        <rect x="46" y="92" width="6" height="12" fill="#FB471F"></rect>
        <rect x="92" y="92" width="6" height="12" fill="#FB471F"></rect>
        <rect x="22" y="38" width="16" height="48" fill="#ffffff"></rect>
        <rect x="19" y="33" width="22" height="5" fill="#ffffff"></rect>
        <rect x="27" y="46" width="6" height="7" rx="1" fill="#FB471F"></rect>
        <rect x="27" y="58" width="6" height="7" rx="1" fill="#FB471F"></rect>
        <rect x="27" y="70" width="6" height="7" rx="1" fill="#FB471F"></rect>
        <rect x="56" y="60" width="42" height="26" fill="#ffffff"></rect>
        <circle cx="65" cy="71" r="3" fill="#FB471F"></circle>
        <circle cx="77" cy="71" r="3" fill="#FB471F"></circle>
        <circle cx="89" cy="71" r="3" fill="#FB471F"></circle>
        <path d="M56,60 Q56,36 77,26 Q98,36 98,60 Z" fill="#ffffff"></path>
        <rect x="66" y="33" width="1.8" height="27" fill="#FB471F"></rect>
        <rect x="76.2" y="29" width="1.8" height="31" fill="#FB471F"></rect>
        <rect x="86.4" y="33" width="1.8" height="27" fill="#FB471F"></rect>
        <rect x="72" y="18" width="10" height="10" fill="#ffffff"></rect>
        <circle cx="77" cy="15" r="3" fill="#ffffff"></circle>
      </g>
</svg>