<?xml version="1.0" encoding="UTF-8" standalone="no"?>
<!-- Created with Inkscape (http://www.inkscape.org/) -->

<svg
   version="1.1"
   id="svg2"
   width="254.20488"
   height="254.20488"
   viewBox="0 0 254.20487 254.20488"
   sodipodi:docname="pykonik.svg"
   inkscape:version="1.2.2 (732a01da63, 2022-12-09)"
   xmlns:inkscape="http://www.inkscape.org/namespaces/inkscape"
   xmlns:sodipodi="http://sodipodi.sourceforge.net/DTD/sodipodi-0.dtd"
   xmlns:xlink="http://www.w3.org/1999/xlink"
   xmlns="http://www.w3.org/2000/svg"
   xmlns:svg="http://www.w3.org/2000/svg">
  <defs
     id="defs6">
    <linearGradient
       inkscape:collect="always"
       id="linearGradient45040">
      <stop
         style="stop-color:#ffe762;stop-opacity:1;"
         offset="0"
         id="stop45036" />
      <stop
         style="stop-color:#ffd53f;stop-opacity:1;"
         offset="1"
         id="stop45038" />
    </linearGradient>
    <linearGradient
       inkscape:collect="always"
       id="linearGradient43456">
      <stop
         style="stop-color:#569ace;stop-opacity:1;"
         offset="0"
         id="stop43452" />
      <stop
         style="stop-color:#316696;stop-opacity:1;"
         offset="1"
         id="stop43454" />
    </linearGradient>
    <linearGradient
       inkscape:collect="always"
       xlink:href="#linearGradient43456"
       id="linearGradient43458"
       x1="52.781204"
       y1="82.756836"
       x2="285.35547"
       y2="184.75684"
       gradientUnits="userSpaceOnUse"
       spreadMethod="pad"
       gradientTransform="translate(1.4142136)" />
    <linearGradient
       inkscape:collect="always"
       xlink:href="#linearGradient45040"
       id="linearGradient45042"
       x1="118.5"
       y1="35"
       x2="177.75"
       y2="135.5"
       gradientUnits="userSpaceOnUse" />
    <linearGradient
       inkscape:collect="always"
       xlink:href="#linearGradient45040"
       id="linearGradient47239"
       gradientUnits="userSpaceOnUse"
       x1="118.5"
       y1="35"
       x2="177.75"
       y2="135.5" />
    <linearGradient
       inkscape:collect="always"
       xlink:href="#linearGradient45040"
       id="linearGradient47241"
       gradientUnits="userSpaceOnUse"
       x1="118.5"
       y1="35"
       x2="177.75"
       y2="135.5" />
    <linearGradient
       inkscape:collect="always"
       xlink:href="#linearGradient45040"
       id="linearGradient47243"
       gradientUnits="userSpaceOnUse"
       x1="118.5"
       y1="35"
       x2="177.75"
       y2="135.5" />
  </defs>
  <sodipodi:namedview
     id="namedview4"
     pagecolor="#ffffff"
     bordercolor="#000000"
     borderopacity="0.25"
     inkscape:showpageshadow="2"
     inkscape:pageopacity="0.0"
     inkscape:pagecheckerboard="0"
     inkscape:deskcolor="#d1d1d1"
     showgrid="false"
     inkscape:zoom="2.8284271"
     inkscape:cx="211.42493"
     inkscape:cy="159.98291"
     inkscape:window-width="2560"
     inkscape:window-height="1361"
     inkscape:window-x="-9"
     inkscape:window-y="299"
     inkscape:window-maximized="1"
     inkscape:current-layer="g8" />
  <g
     inkscape:groupmode="layer"
     inkscape:label="Image"
     id="g8"
     transform="translate(-43.23526,-8.13202)">
    <path
       id="path737"
       style="fill:url(#linearGradient43458);fill-opacity:1"
       d="m 104.26186,83.013672 c -7.781178,0 -20.399669,1.508263 -25.695304,2.521484 -11.183819,2.139811 -17.54718,5.576448 -20.900391,11.289063 -2.596431,4.423371 -3.478103,5.467891 -3.470703,19.425781 V 131 h 25.033203 l 25.033195,-0.39844 V 150.25 161.63867 l 0.004,0.004 -0.002,0.0371 c 8.1e-4,12.32758 9.99469,22.32058 22.32227,22.32031 h 138.2246 c 12.20601,-0.003 22.17321,-9.75592 22.43946,-21.95898 1.3e-4,-2.9e-4 0.0195,-0.0391 0.0195,-0.0391 V 151.77734 136 h -6.62305 -7.46484 v 4.08984 c 0,0 -0.0155,0.86476 -0.0371,1.29688 -0.10392,2.15138 -0.69832,4.24882 -1.73633,6.12695 -0.11557,0.20759 -0.23619,0.41141 -0.36328,0.60742 -2.44795,3.97949 -6.48558,6.03778 -11.10352,6.13477 -8.12914,0 -12.52933,-5.40424 -14.0664,-12.03516 -0.54984,-2.41005 -1.05664,-6.12304 -1.05664,-6.12304 0,0 -3.59302,-0.0977 -10.24414,-0.0977 h -9.90433 -50.25586 -10 -10 v -12.02539 l 0.0215,-11.84766 -3.27148,1.53907 c -5.60569,2.96363 -15.57646,2.28042 -26.99805,-1.92188 -8.80803,-3.2407 -9.58409,-4.77315 -10.75,-2.87305 -1.23137,2.0068 -2.70553,1.53432 -9.03515,-1.38867 -3.21855,-1.48631 -4.874078,-2.3863 -4.966788,-4.30273 -0.07775,-1.6072 1.800008,-5.507363 3.999988,-10.056643 2.2,-4.549288 4.38672,-9.822266 4.38672,-9.822266 0,0 -0.23821,-0.287109 -3.53906,-0.287109 z M 76.726712,99.125 c 4.970528,0 9,4.02944 9,9 0,4.97056 -4.029472,9 -9,9 -4.970528,0 -9,-4.02944 -9,-9 0,-4.97056 4.029472,-9 9,-9 z" />
    <g
       id="g752"
       style="fill:url(#linearGradient45042);fill-opacity:1"
       transform="translate(1.4142136)">
      <path
         style="fill:url(#linearGradient47239);fill-opacity:1"
         d="m 223.25584,135.99996 c -0.55707,-13.03292 -1.10742,-34.44727 -1.10742,-34.44727 0,0 20.60388,7.22264 21.61133,7.94727 0.14299,0.10285 1.1038,7.68113 2.13476,16.8418 1.1431,10.15703 1.67075,14.95763 2.86133,17.77929 0.13663,0.40066 0.35299,0.76365 0.53516,1.11719 1.83827,3.39308 5.31136,5.50035 9.08398,5.51172 5.76442,0 10.4375,-4.81299 10.4375,-10.75 -8.8e-4,-0.74104 0.11131,-2.04249 -0.0371,-2.76758 -0.0716,-8.52372 -4.40516,-37.614087 -6.10156,-40.894529 C 258.59931,88.458677 255.23466,86.655576 219,72.939453 c -22.13494,-8.378855 -25.14297,-9.271194 -31.16602,-9.240234 -7.64394,0.03929 -11.98872,1.868826 -30.33398,12.771484 -6.04993,3.595516 -12.81557,7.478644 -15.03516,8.628906 l -4.03515,2.089844 -8.14453,-3.140625 -8.14454,-3.140625 8.42774,-18.359375 c 7.52436,-0.5583 13.35002,-6.816301 13.36914,-14.361328 0,-7.973579 -6.46393,-14.4375 -14.4375,-14.4375 -7.97357,0 -14.4375,6.463921 -14.4375,14.4375 0.0139,4.624885 2.24256,8.963242 5.99414,11.667969 l 0.11524,0.111328 -9.23243,19.732422 c 0,0 -9.57703,20.600921 -10.0957,21.578121 -0.78765,1.48398 -0.23356,2.09653 3.35742,3.72071 3.7681,1.70426 4.75076,2.5619 6.3125,-1.25196 0.0216,-0.0527 9.60742,3.92188 9.60742,3.92188 8.07937,3.2986 12.28903,4.77182 19.64649,4.82812 0,0 4.59308,-0.2416 6.73242,-0.99609 4.41282,-1.55629 12.13477,-6.54883 12.13477,-6.54883 l 12.07031,-7.675779 c 0,0 1.1705,20.618829 1.29101,31.974609 L 173,136"
         id="path731"
         sodipodi:nodetypes="ccsscccccssssccccccsccccsssccscccc" />
      <path
         style="fill:url(#linearGradient47241);fill-opacity:1"
         d="m 125.83398,184 c 0,0 -9.92086,10.63053 -21.63867,21.50977 -11.71778,10.87917 -20.942868,20.09898 -20.499998,20.48828 1.846494,1.6231 19.056108,8.14257 22.874998,8.66601 6.18355,0.84755 9.75198,-1.3651 24.17383,-14.99804 7.07854,-6.6914 18.52289,-17.45359 25.43164,-23.91602 L 168.73633,184 h 16.88086 c 0,0 -5.67819,22.28788 -6.59375,26.38281 -1.42511,6.37406 0.002,10.85771 4.29101,13.48633 1.75251,1.07413 13.98562,6.03043 27.18555,11.01367 13.19993,4.98331 29.62507,11.31281 36.5,14.06641 6.87493,2.75359 13.10476,5.01715 13.84375,5.0293 1.0582,0.0175 1.27067,-2.06606 1,-9.80469 -0.30229,-8.64263 -0.66444,-10.31084 -3.00195,-13.83985 -3.19934,-4.82994 -6.92998,-6.71028 -31.49024,-15.86914 -9.81785,-3.66118 -18.40471,-7.1821 -19.08008,-7.82422 -0.96656,-0.91898 -0.6279,-3.39958 1.58985,-11.65429 L 212.67773,184 h 50.71875"
         id="path729"
         sodipodi:nodetypes="csssccccsscscscssccc" />
      <path
         style="fill:url(#linearGradient47243);fill-opacity:1"
         d="m 194.71875,15.556641 c -12.44799,-1.8e-5 -22.53908,10.091075 -22.53906,22.539062 -2e-5,12.447988 10.09107,22.539081 22.53906,22.539063 12.44799,1.8e-5 22.53908,-10.091075 22.53906,-22.539063 2e-5,-12.447987 -10.09107,-22.53908 -22.53906,-22.539062 z"
         id="path170" />
    </g>
  </g>
</svg>
